<svg width="107" height="861" viewBox="0 0 107 861" fill="none" xmlns="http://www.w3.org/2000/svg">
<rect width="56" height="69.2699" rx="10" transform="matrix(0.999968 -0.00805687 -0.00805687 -0.999968 24.5898 295.063)" fill="black"/>
<rect width="55" height="54.6867" rx="10" transform="matrix(0.999968 -0.00805687 -0.00805687 -0.999968 23.1191 55.6646)" fill="black"/>
<rect x="2.97573" y="-3.02407" width="94" height="194.518" rx="17" transform="matrix(0.999968 -0.00805687 -0.00805687 -0.999968 2.08511 229.675)" fill="white" stroke="black" stroke-width="6"/>
<g clip-path="url(#clip0_605_418)">
<path d="M53.7353 139.835L61.838 143.033C62.8045 143.414 63.8935 143.209 64.4938 142.496C65.2203 141.826 65.3345 140.792 64.8379 139.922L52.0902 117.743C51.5252 116.77 50.3449 116.243 49.237 116.479C48.1283 116.716 47.3903 117.649 47.4602 118.725L48.3594 132.814L40.1913 129.59C39.288 129.233 38.2036 129.441 37.5387 130.128C36.8712 130.821 36.7598 131.857 37.259 132.727L50.005 154.904C50.569 155.88 51.7485 156.403 52.8574 156.168C53.9664 155.933 54.7036 155.002 54.634 153.922L53.7353 139.835Z" fill="black"/>
</g>
<path d="M50.2306 273C54.7306 395.5 97.2306 359.5 84.2306 463C71.2306 566.5 16.2306 547.5 33.2306 623.5C50.2306 699.5 118.231 739 84.2306 857.5" stroke="black" stroke-width="25"/>
<defs>
<clipPath id="clip0_605_418">
<rect width="30" height="36.4578" fill="white" transform="matrix(0.930172 0.367124 0.367124 -0.930172 30.4023 147.773)"/>
</clipPath>
</defs>
</svg>
