<svg width="400" height="181" viewBox="0 0 400 181" fill="none" xmlns="http://www.w3.org/2000/svg">
<g filter="url(#filter0_d_799_1347)">
<rect x="50" y="50" width="300" height="81" rx="21" fill="white"/>
<circle cx="95" cy="90.2" r="24" fill="#C4C4C4"/>
<rect x="84.1992" y="93.2" width="21.6" height="12" rx="3" fill="white"/>
<circle cx="94.6992" cy="83.3" r="7.5" fill="white"/>
<path d="M130.051 81.2H126.958V72.4727H130.077C130.955 72.4727 131.711 72.6474 132.344 72.9968C132.978 73.3434 133.465 73.842 133.806 74.4926C134.15 75.1431 134.321 75.9215 134.321 76.8278C134.321 77.7369 134.15 78.5181 133.806 79.1715C133.465 79.825 132.975 80.3264 132.336 80.6758C131.699 81.0252 130.938 81.2 130.051 81.2ZM128.803 79.619H129.975C130.52 79.619 130.979 79.5224 131.351 79.3292C131.726 79.1332 132.007 78.8306 132.195 78.4215C132.385 78.0096 132.48 77.4784 132.48 76.8278C132.48 76.1829 132.385 75.6559 132.195 75.2468C132.007 74.8377 131.728 74.5366 131.355 74.3434C130.983 74.1502 130.525 74.0536 129.979 74.0536H128.803V79.619ZM137.521 81.3235C137.103 81.3235 136.731 81.2511 136.404 81.1062C136.077 80.9585 135.819 80.7411 135.629 80.4542C135.441 80.1644 135.347 79.8036 135.347 79.3718C135.347 79.0082 135.414 78.7028 135.548 78.4556C135.681 78.2085 135.863 78.0096 136.093 77.859C136.323 77.7085 136.585 77.5948 136.877 77.5181C137.173 77.4414 137.482 77.3875 137.806 77.3562C138.187 77.3164 138.494 77.2795 138.727 77.2454C138.96 77.2085 139.129 77.1545 139.234 77.0835C139.339 77.0125 139.391 76.9073 139.391 76.7681V76.7426C139.391 76.4727 139.306 76.2639 139.136 76.1161C138.968 75.9684 138.729 75.8946 138.42 75.8946C138.093 75.8946 137.833 75.967 137.64 76.1119C137.447 76.2539 137.319 76.4329 137.256 76.6488L135.577 76.5125C135.663 76.1147 135.83 75.771 136.08 75.4812C136.33 75.1886 136.653 74.9642 137.048 74.8079C137.445 74.6488 137.906 74.5693 138.428 74.5693C138.792 74.5693 139.14 74.6119 139.472 74.6971C139.808 74.7823 140.104 74.9144 140.363 75.0934C140.624 75.2724 140.83 75.5025 140.981 75.7838C141.131 76.0622 141.207 76.396 141.207 76.7852V81.2H139.485V80.2923H139.434C139.329 80.4968 139.188 80.6772 139.012 80.8335C138.836 80.9869 138.624 81.1076 138.377 81.1957C138.13 81.2809 137.844 81.3235 137.521 81.3235ZM138.04 80.0707C138.308 80.0707 138.543 80.0181 138.748 79.913C138.952 79.8051 139.113 79.6602 139.229 79.4784C139.346 79.2965 139.404 79.0906 139.404 78.8605V78.1659C139.347 78.2028 139.269 78.2369 139.17 78.2681C139.073 78.2965 138.964 78.3235 138.842 78.3491C138.719 78.3718 138.597 78.3931 138.475 78.413C138.353 78.4301 138.242 78.4457 138.143 78.4599C137.93 78.4911 137.744 78.5409 137.585 78.609C137.425 78.6772 137.302 78.7696 137.214 78.886C137.126 78.9997 137.082 79.1417 137.082 79.3122C137.082 79.5593 137.171 79.7482 137.35 79.8789C137.532 80.0068 137.762 80.0707 138.04 80.0707ZM148.483 74.6545L146.195 81.2H144.149L141.861 74.6545H143.778L145.138 79.3377H145.206L146.561 74.6545H148.483ZM149.412 81.2V74.6545H151.227V81.2H149.412ZM150.324 73.8107C150.054 73.8107 149.822 73.7213 149.629 73.5423C149.439 73.3605 149.344 73.1431 149.344 72.8903C149.344 72.6403 149.439 72.4258 149.629 72.2468C149.822 72.065 150.054 71.9741 150.324 71.9741C150.594 71.9741 150.824 72.065 151.014 72.2468C151.207 72.4258 151.304 72.6403 151.304 72.8903C151.304 73.1431 151.207 73.3605 151.014 73.5423C150.824 73.7213 150.594 73.8107 150.324 73.8107ZM155.093 81.3065C154.596 81.3065 154.146 81.1786 153.743 80.923C153.342 80.6644 153.024 80.2852 152.788 79.7852C152.555 79.2823 152.439 78.6659 152.439 77.9357C152.439 77.1857 152.559 76.5622 152.801 76.065C153.042 75.565 153.363 75.1914 153.764 74.9443C154.167 74.6943 154.609 74.5693 155.089 74.5693C155.456 74.5693 155.761 74.6318 156.005 74.7568C156.252 74.8789 156.451 75.0323 156.602 75.217C156.755 75.3988 156.872 75.5778 156.951 75.7539H157.007V72.4727H158.818V81.2H157.028V80.1517H156.951C156.866 80.3335 156.745 80.5139 156.589 80.6928C156.436 80.869 156.235 81.0153 155.988 81.1318C155.744 81.2482 155.446 81.3065 155.093 81.3065ZM155.669 79.8619C155.961 79.8619 156.208 79.7823 156.41 79.6232C156.615 79.4613 156.771 79.2355 156.879 78.9457C156.99 78.6559 157.045 78.3164 157.045 77.9272C157.045 77.538 156.991 77.2 156.883 76.913C156.775 76.6261 156.619 76.4045 156.414 76.2482C156.21 76.092 155.961 76.0139 155.669 76.0139C155.37 76.0139 155.119 76.0948 154.914 76.2568C154.71 76.4187 154.555 76.6431 154.45 76.9301C154.345 77.217 154.292 77.5494 154.292 77.9272C154.292 78.3079 154.345 78.6446 154.45 78.9372C154.558 79.2269 154.713 79.4542 154.914 79.619C155.119 79.7809 155.37 79.8619 155.669 79.8619ZM163.122 72.4727H165.397L167.801 78.3363H167.903L170.306 72.4727H172.582V81.2H170.792V75.5196H170.72L168.461 81.1573H167.243L164.984 75.4982H164.912V81.2H163.122V72.4727ZM175.935 81.3235C175.517 81.3235 175.145 81.2511 174.818 81.1062C174.491 80.9585 174.233 80.7411 174.043 80.4542C173.855 80.1644 173.761 79.8036 173.761 79.3718C173.761 79.0082 173.828 78.7028 173.962 78.4556C174.095 78.2085 174.277 78.0096 174.507 77.859C174.737 77.7085 174.999 77.5948 175.291 77.5181C175.587 77.4414 175.896 77.3875 176.22 77.3562C176.601 77.3164 176.908 77.2795 177.141 77.2454C177.374 77.2085 177.543 77.1545 177.648 77.0835C177.753 77.0125 177.805 76.9073 177.805 76.7681V76.7426C177.805 76.4727 177.72 76.2639 177.55 76.1161C177.382 75.9684 177.143 75.8946 176.834 75.8946C176.507 75.8946 176.247 75.967 176.054 76.1119C175.861 76.2539 175.733 76.4329 175.67 76.6488L173.991 76.5125C174.077 76.1147 174.244 75.771 174.494 75.4812C174.744 75.1886 175.067 74.9642 175.462 74.8079C175.859 74.6488 176.32 74.5693 176.842 74.5693C177.206 74.5693 177.554 74.6119 177.886 74.6971C178.222 74.7823 178.518 74.9144 178.777 75.0934C179.038 75.2724 179.244 75.5025 179.395 75.7838C179.545 76.0622 179.621 76.396 179.621 76.7852V81.2H177.899V80.2923H177.848C177.743 80.4968 177.602 80.6772 177.426 80.8335C177.25 80.9869 177.038 81.1076 176.791 81.1957C176.544 81.2809 176.259 81.3235 175.935 81.3235ZM176.455 80.0707C176.722 80.0707 176.957 80.0181 177.162 79.913C177.366 79.8051 177.527 79.6602 177.643 79.4784C177.76 79.2965 177.818 79.0906 177.818 78.8605V78.1659C177.761 78.2028 177.683 78.2369 177.584 78.2681C177.487 78.2965 177.378 78.3235 177.256 78.3491C177.134 78.3718 177.011 78.3931 176.889 78.413C176.767 78.4301 176.656 78.4457 176.557 78.4599C176.344 78.4911 176.158 78.5409 175.999 78.609C175.839 78.6772 175.716 78.7696 175.628 78.886C175.54 78.9997 175.496 79.1417 175.496 79.3122C175.496 79.5593 175.585 79.7482 175.764 79.8789C175.946 80.0068 176.176 80.0707 176.455 80.0707ZM181.029 81.2V74.6545H182.789V75.7965H182.857C182.977 75.3903 183.177 75.0835 183.458 74.8761C183.739 74.6659 184.063 74.5607 184.43 74.5607C184.521 74.5607 184.619 74.5664 184.724 74.5778C184.829 74.5892 184.921 74.6048 185.001 74.6247V76.2355C184.915 76.2099 184.798 76.1872 184.647 76.1673C184.496 76.1474 184.359 76.1375 184.234 76.1375C183.967 76.1375 183.728 76.1957 183.518 76.3122C183.31 76.4258 183.146 76.5849 183.023 76.7894C182.904 76.994 182.844 77.2298 182.844 77.4968V81.2H181.029ZM189.749 74.6545V76.0181H185.807V74.6545H189.749ZM186.702 73.0863H188.517V79.1886C188.517 79.3562 188.543 79.4869 188.594 79.5806C188.645 79.6715 188.716 79.7355 188.807 79.7724C188.901 79.8093 189.009 79.8278 189.131 79.8278C189.216 79.8278 189.301 79.8207 189.387 79.8065C189.472 79.7894 189.537 79.7767 189.583 79.7681L189.868 81.119C189.777 81.1474 189.65 81.1801 189.485 81.217C189.32 81.2568 189.12 81.2809 188.884 81.2894C188.446 81.3065 188.063 81.2482 187.733 81.1147C187.407 80.9812 187.152 80.7738 186.971 80.4926C186.789 80.2113 186.699 79.8562 186.702 79.4272V73.0863ZM190.931 81.2V74.6545H192.747V81.2H190.931ZM191.843 73.8107C191.574 73.8107 191.342 73.7213 191.149 73.5423C190.958 73.3605 190.863 73.1431 190.863 72.8903C190.863 72.6403 190.958 72.4258 191.149 72.2468C191.342 72.065 191.574 71.9741 191.843 71.9741C192.113 71.9741 192.343 72.065 192.534 72.2468C192.727 72.4258 192.824 72.6403 192.824 72.8903C192.824 73.1431 192.727 73.3605 192.534 73.5423C192.343 73.7213 192.113 73.8107 191.843 73.8107ZM196.016 77.4159V81.2H194.201V74.6545H195.931V75.8093H196.008C196.153 75.4286 196.396 75.1275 196.737 74.9059C197.077 74.6815 197.491 74.5693 197.977 74.5693C198.431 74.5693 198.827 74.6687 199.165 74.8676C199.504 75.0664 199.766 75.3505 199.954 75.7198C200.141 76.0863 200.235 76.5238 200.235 77.0323V81.2H198.42V77.3562C198.423 76.9556 198.32 76.6431 198.113 76.4187C197.906 76.1914 197.62 76.0778 197.256 76.0778C197.012 76.0778 196.796 76.1303 196.609 76.2355C196.424 76.3406 196.279 76.494 196.174 76.6957C196.072 76.8946 196.019 77.1346 196.016 77.4159Z" fill="black"/>
<path d="M130.594 88.2261C130.566 87.9511 130.449 87.7375 130.242 87.5852C130.036 87.4329 129.755 87.3568 129.4 87.3568C129.159 87.3568 128.956 87.3909 128.79 87.459C128.624 87.525 128.497 87.617 128.408 87.7352C128.322 87.8534 128.279 87.9875 128.279 88.1375C128.274 88.2625 128.3 88.3715 128.357 88.4647C128.416 88.5579 128.497 88.6386 128.599 88.7068C128.701 88.7727 128.82 88.8306 128.954 88.8806C129.088 88.9284 129.231 88.9693 129.383 89.0034L130.011 89.1534C130.315 89.2215 130.595 89.3125 130.849 89.4261C131.104 89.5397 131.324 89.6795 131.511 89.8454C131.697 90.0113 131.841 90.2068 131.944 90.4318C132.048 90.6568 132.101 90.9147 132.104 91.2056C132.101 91.6329 131.992 92.0034 131.776 92.317C131.563 92.6284 131.254 92.8704 130.849 93.0431C130.447 93.2136 129.962 93.2988 129.394 93.2988C128.83 93.2988 128.339 93.2125 127.921 93.0397C127.505 92.867 127.18 92.6113 126.946 92.2727C126.714 91.9318 126.592 91.5102 126.581 91.0079H128.009C128.025 91.242 128.092 91.4375 128.211 91.5943C128.331 91.7488 128.491 91.8659 128.691 91.9454C128.894 92.0227 129.122 92.0613 129.376 92.0613C129.626 92.0613 129.844 92.025 130.028 91.9522C130.214 91.8795 130.358 91.7784 130.461 91.6488C130.563 91.5193 130.614 91.3704 130.614 91.2022C130.614 91.0454 130.567 90.9136 130.474 90.8068C130.383 90.7 130.249 90.609 130.072 90.534C129.897 90.459 129.682 90.3909 129.428 90.3295L128.667 90.1386C128.079 89.9954 127.614 89.7715 127.273 89.467C126.932 89.1625 126.763 88.7522 126.765 88.2363C126.763 87.8136 126.875 87.4443 127.103 87.1284C127.332 86.8125 127.647 86.5659 128.047 86.3886C128.447 86.2113 128.901 86.1227 129.411 86.1227C129.929 86.1227 130.381 86.2113 130.767 86.3886C131.156 86.5659 131.458 86.8125 131.674 87.1284C131.89 87.4443 132.001 87.8102 132.008 88.2261H130.594ZM135.435 93.3022C134.906 93.3022 134.448 93.1897 134.061 92.9647C133.677 92.7375 133.381 92.4215 133.172 92.017C132.963 91.6102 132.858 91.1386 132.858 90.6022C132.858 90.0613 132.963 89.5886 133.172 89.184C133.381 88.7772 133.677 88.4613 134.061 88.2363C134.448 88.009 134.906 87.8954 135.435 87.8954C135.965 87.8954 136.422 88.009 136.806 88.2363C137.192 88.4613 137.49 88.7772 137.699 89.184C137.908 89.5886 138.013 90.0613 138.013 90.6022C138.013 91.1386 137.908 91.6102 137.699 92.017C137.49 92.4215 137.192 92.7375 136.806 92.9647C136.422 93.1897 135.965 93.3022 135.435 93.3022ZM135.442 92.1772C135.683 92.1772 135.884 92.109 136.046 91.9727C136.207 91.834 136.328 91.6454 136.41 91.4068C136.494 91.1681 136.536 90.8965 136.536 90.592C136.536 90.2875 136.494 90.0159 136.41 89.7772C136.328 89.5386 136.207 89.35 136.046 89.2113C135.884 89.0727 135.683 89.0034 135.442 89.0034C135.199 89.0034 134.994 89.0727 134.828 89.2113C134.665 89.35 134.541 89.5386 134.457 89.7772C134.375 90.0159 134.334 90.2875 134.334 90.592C134.334 90.8965 134.375 91.1681 134.457 91.4068C134.541 91.6454 134.665 91.834 134.828 91.9727C134.994 92.109 135.199 92.1772 135.442 92.1772ZM141.773 87.9636V89.0545H138.541V87.9636H141.773ZM139.281 93.2V87.5852C139.281 87.2056 139.355 86.8909 139.502 86.6409C139.652 86.3909 139.857 86.2034 140.116 86.0784C140.375 85.9534 140.669 85.8909 140.999 85.8909C141.222 85.8909 141.425 85.9079 141.609 85.942C141.796 85.9761 141.934 86.0068 142.025 86.034L141.766 87.125C141.709 87.1068 141.639 87.0897 141.555 87.0738C141.473 87.0579 141.389 87.05 141.302 87.05C141.089 87.05 140.94 87.1 140.856 87.2C140.772 87.2977 140.73 87.4352 140.73 87.6125V93.2H139.281ZM145.445 87.9636V89.0545H142.292V87.9636H145.445ZM143.008 86.709H144.46V91.5909C144.46 91.725 144.48 91.8295 144.521 91.9045C144.562 91.9772 144.619 92.0284 144.692 92.0579C144.767 92.0875 144.853 92.1022 144.951 92.1022C145.019 92.1022 145.087 92.0965 145.155 92.0852C145.224 92.0715 145.276 92.0613 145.312 92.0545L145.541 93.1352C145.468 93.1579 145.366 93.184 145.234 93.2136C145.102 93.2454 144.942 93.2647 144.753 93.2715C144.403 93.2852 144.096 93.2386 143.833 93.1318C143.571 93.025 143.368 92.859 143.223 92.634C143.077 92.409 143.005 92.125 143.008 91.7818V86.709ZM147.424 93.2L145.999 87.9636H147.469L148.28 91.4818H148.328L149.173 87.9636H150.615L151.474 91.4613H151.519L152.316 87.9636H153.782L152.361 93.2H150.823L149.923 89.9068H149.858L148.958 93.2H147.424ZM156.05 93.2988C155.716 93.2988 155.418 93.2409 155.157 93.125C154.896 93.0068 154.689 92.8329 154.536 92.6034C154.386 92.3715 154.311 92.0829 154.311 91.7375C154.311 91.4465 154.365 91.2022 154.472 91.0045C154.578 90.8068 154.724 90.6477 154.908 90.5272C155.092 90.4068 155.301 90.3159 155.535 90.2545C155.772 90.1931 156.019 90.15 156.278 90.125C156.583 90.0931 156.828 90.0636 157.015 90.0363C157.201 90.0068 157.336 89.9636 157.421 89.9068C157.505 89.85 157.547 89.7659 157.547 89.6545V89.634C157.547 89.4181 157.478 89.2511 157.342 89.1329C157.208 89.0147 157.017 88.9556 156.769 88.9556C156.508 88.9556 156.3 89.0136 156.146 89.1295C155.991 89.2431 155.889 89.3863 155.839 89.559L154.496 89.45C154.564 89.1318 154.698 88.8568 154.898 88.625C155.098 88.3909 155.356 88.2113 155.672 88.0863C155.99 87.959 156.358 87.8954 156.776 87.8954C157.067 87.8954 157.346 87.9295 157.611 87.9977C157.88 88.0659 158.117 88.1715 158.324 88.3147C158.533 88.4579 158.698 88.642 158.818 88.867C158.939 89.0897 158.999 89.3568 158.999 89.6681V93.2H157.622V92.4738H157.581C157.497 92.6375 157.384 92.7818 157.243 92.9068C157.102 93.0295 156.933 93.1261 156.735 93.1965C156.538 93.2647 156.309 93.2988 156.05 93.2988ZM156.466 92.2965C156.68 92.2965 156.868 92.2545 157.032 92.1704C157.196 92.084 157.324 91.9681 157.417 91.8227C157.51 91.6772 157.557 91.5125 157.557 91.3284V90.7727C157.511 90.8022 157.449 90.8295 157.369 90.8545C157.292 90.8772 157.205 90.8988 157.107 90.9193C157.009 90.9375 156.911 90.9545 156.814 90.9704C156.716 90.984 156.627 90.9965 156.548 91.0079C156.377 91.0329 156.228 91.0727 156.101 91.1272C155.974 91.1818 155.875 91.2556 155.805 91.3488C155.734 91.4397 155.699 91.5534 155.699 91.6897C155.699 91.8875 155.771 92.0386 155.914 92.1431C156.059 92.2454 156.243 92.2965 156.466 92.2965ZM160.126 93.2V87.9636H161.534V88.8772H161.588C161.684 88.5522 161.844 88.3068 162.069 88.1409C162.294 87.9727 162.553 87.8886 162.846 87.8886C162.919 87.8886 162.997 87.8931 163.081 87.9022C163.165 87.9113 163.239 87.9238 163.303 87.9397V89.2284C163.235 89.2079 163.14 89.1897 163.02 89.1738C162.9 89.1579 162.789 89.15 162.689 89.15C162.476 89.15 162.285 89.1965 162.117 89.2897C161.951 89.3806 161.819 89.5079 161.721 89.6715C161.626 89.8352 161.578 90.0238 161.578 90.2375V93.2H160.126ZM166.196 93.3022C165.658 93.3022 165.194 93.1931 164.805 92.975C164.419 92.7545 164.121 92.4431 163.912 92.0409C163.703 91.6363 163.599 91.1579 163.599 90.6056C163.599 90.067 163.703 89.5943 163.912 89.1875C164.121 88.7806 164.416 88.4636 164.795 88.2363C165.177 88.009 165.625 87.8954 166.138 87.8954C166.484 87.8954 166.805 87.9511 167.103 88.0625C167.403 88.1715 167.665 88.3363 167.887 88.5568C168.112 88.7772 168.287 89.0545 168.412 89.3886C168.537 89.7204 168.6 90.109 168.6 90.5545V90.9534H164.178V90.0534H167.233C167.233 89.8443 167.187 89.659 167.096 89.4977C167.005 89.3363 166.879 89.2102 166.718 89.1193C166.559 89.0261 166.374 88.9795 166.162 88.9795C165.942 88.9795 165.746 89.0306 165.576 89.1329C165.408 89.2329 165.276 89.3681 165.18 89.5386C165.085 89.7068 165.036 89.8943 165.034 90.1011V90.9568C165.034 91.2159 165.082 91.4397 165.177 91.6284C165.275 91.817 165.412 91.9625 165.59 92.0647C165.767 92.167 165.977 92.2181 166.22 92.2181C166.382 92.2181 166.529 92.1954 166.663 92.15C166.798 92.1045 166.912 92.0363 167.008 91.9454C167.103 91.8545 167.176 91.7431 167.226 91.6113L168.569 91.7C168.501 92.0227 168.361 92.3045 168.15 92.5454C167.941 92.784 167.67 92.9704 167.338 93.1045C167.009 93.2363 166.628 93.3022 166.196 93.3022ZM171.797 93.2V86.2181H176.501V87.4352H173.273V89.0988H176.259V90.3159H173.273V91.9829H176.515V93.2H171.797ZM179.1 90.1727V93.2H177.648V87.9636H179.032V88.8875H179.093C179.209 88.5829 179.403 88.342 179.676 88.1647C179.949 87.9852 180.279 87.8954 180.668 87.8954C181.032 87.8954 181.349 87.975 181.619 88.134C181.89 88.2931 182.1 88.5204 182.25 88.8159C182.4 89.109 182.475 89.459 182.475 89.8659V93.2H181.023V90.125C181.025 89.8045 180.943 89.5545 180.777 89.375C180.611 89.1931 180.383 89.1022 180.092 89.1022C179.896 89.1022 179.724 89.1443 179.574 89.2284C179.426 89.3125 179.31 89.4352 179.226 89.5965C179.144 89.7556 179.102 89.9477 179.1 90.1727ZM185.978 95.2727C185.508 95.2727 185.105 95.2079 184.768 95.0784C184.434 94.9511 184.168 94.7772 183.971 94.5568C183.773 94.3363 183.644 94.0886 183.585 93.8136L184.928 93.6329C184.969 93.7375 185.034 93.8352 185.123 93.9261C185.211 94.017 185.328 94.0897 185.474 94.1443C185.622 94.2011 185.801 94.2295 186.013 94.2295C186.328 94.2295 186.589 94.1522 186.793 93.9977C187 93.8454 187.103 93.5897 187.103 93.2306V92.2727H187.042C186.978 92.4181 186.883 92.5556 186.756 92.6852C186.628 92.8147 186.465 92.9204 186.265 93.0022C186.065 93.084 185.826 93.125 185.549 93.125C185.156 93.125 184.798 93.034 184.475 92.8522C184.155 92.6681 183.899 92.3875 183.708 92.0102C183.519 91.6306 183.425 91.1511 183.425 90.5715C183.425 89.9784 183.522 89.4829 183.715 89.0852C183.908 88.6875 184.165 88.3897 184.485 88.192C184.808 87.9943 185.161 87.8954 185.546 87.8954C185.839 87.8954 186.084 87.9454 186.282 88.0454C186.48 88.1431 186.639 88.2659 186.759 88.4136C186.882 88.559 186.976 88.7022 187.042 88.8431H187.097V87.9636H188.539V93.2511C188.539 93.6965 188.43 94.0693 188.211 94.3693C187.993 94.6693 187.691 94.8943 187.305 95.0443C186.921 95.1965 186.478 95.2727 185.978 95.2727ZM186.009 92.034C186.243 92.034 186.441 91.9761 186.602 91.8602C186.766 91.742 186.891 91.5738 186.977 91.3556C187.066 91.1352 187.11 90.8715 187.11 90.5647C187.11 90.2579 187.067 89.992 186.981 89.767C186.894 89.5397 186.769 89.3636 186.606 89.2386C186.442 89.1136 186.243 89.0511 186.009 89.0511C185.771 89.0511 185.569 89.1159 185.406 89.2454C185.242 89.3727 185.118 89.55 185.034 89.7772C184.95 90.0045 184.908 90.267 184.908 90.5647C184.908 90.867 184.95 91.1284 185.034 91.3488C185.121 91.567 185.244 91.7363 185.406 91.8568C185.569 91.975 185.771 92.034 186.009 92.034ZM189.694 93.2V87.9636H191.147V93.2H189.694ZM190.424 87.2886C190.208 87.2886 190.023 87.217 189.868 87.0738C189.716 86.9284 189.64 86.7545 189.64 86.5522C189.64 86.3522 189.716 86.1806 189.868 86.0375C190.023 85.892 190.208 85.8193 190.424 85.8193C190.64 85.8193 190.824 85.892 190.976 86.0375C191.131 86.1806 191.208 86.3522 191.208 86.5522C191.208 86.7545 191.131 86.9284 190.976 87.0738C190.824 87.217 190.64 87.2886 190.424 87.2886ZM193.762 90.1727V93.2H192.31V87.9636H193.694V88.8875H193.755C193.871 88.5829 194.066 88.342 194.338 88.1647C194.611 87.9852 194.942 87.8954 195.33 87.8954C195.694 87.8954 196.011 87.975 196.282 88.134C196.552 88.2931 196.762 88.5204 196.912 88.8159C197.062 89.109 197.137 89.459 197.137 89.8659V93.2H195.685V90.125C195.687 89.8045 195.605 89.5545 195.44 89.375C195.274 89.1931 195.045 89.1022 194.754 89.1022C194.559 89.1022 194.386 89.1443 194.236 89.2284C194.088 89.3125 193.973 89.4352 193.888 89.5965C193.807 89.7556 193.765 89.9477 193.762 90.1727ZM200.668 93.3022C200.13 93.3022 199.666 93.1931 199.277 92.975C198.891 92.7545 198.593 92.4431 198.384 92.0409C198.175 91.6363 198.071 91.1579 198.071 90.6056C198.071 90.067 198.175 89.5943 198.384 89.1875C198.593 88.7806 198.888 88.4636 199.267 88.2363C199.649 88.009 200.097 87.8954 200.61 87.8954C200.956 87.8954 201.277 87.9511 201.575 88.0625C201.875 88.1715 202.136 88.3363 202.359 88.5568C202.584 88.7772 202.759 89.0545 202.884 89.3886C203.009 89.7204 203.072 90.109 203.072 90.5545V90.9534H198.65V90.0534H201.705C201.705 89.8443 201.659 89.659 201.568 89.4977C201.477 89.3363 201.351 89.2102 201.19 89.1193C201.031 89.0261 200.846 88.9795 200.634 88.9795C200.414 88.9795 200.218 89.0306 200.048 89.1329C199.88 89.2329 199.748 89.3681 199.652 89.5386C199.557 89.7068 199.508 89.8943 199.506 90.1011V90.9568C199.506 91.2159 199.553 91.4397 199.649 91.6284C199.747 91.817 199.884 91.9625 200.061 92.0647C200.239 92.167 200.449 92.2181 200.692 92.2181C200.853 92.2181 201.001 92.1954 201.135 92.15C201.269 92.1045 201.384 92.0363 201.48 91.9454C201.575 91.8545 201.648 91.7431 201.698 91.6113L203.041 91.7C202.973 92.0227 202.833 92.3045 202.622 92.5454C202.413 92.784 202.142 92.9704 201.81 93.1045C201.481 93.2363 201.1 93.3022 200.668 93.3022ZM206.406 93.3022C205.867 93.3022 205.403 93.1931 205.015 92.975C204.628 92.7545 204.331 92.4431 204.122 92.0409C203.913 91.6363 203.808 91.1579 203.808 90.6056C203.808 90.067 203.913 89.5943 204.122 89.1875C204.331 88.7806 204.625 88.4636 205.005 88.2363C205.386 88.009 205.834 87.8954 206.348 87.8954C206.693 87.8954 207.015 87.9511 207.313 88.0625C207.613 88.1715 207.874 88.3363 208.097 88.5568C208.322 88.7772 208.497 89.0545 208.622 89.3886C208.747 89.7204 208.809 90.109 208.809 90.5545V90.9534H204.388V90.0534H207.442C207.442 89.8443 207.397 89.659 207.306 89.4977C207.215 89.3363 207.089 89.2102 206.927 89.1193C206.768 89.0261 206.583 88.9795 206.372 88.9795C206.151 88.9795 205.956 89.0306 205.785 89.1329C205.617 89.2329 205.485 89.3681 205.39 89.5386C205.294 89.7068 205.246 89.8943 205.243 90.1011V90.9568C205.243 91.2159 205.291 91.4397 205.386 91.6284C205.484 91.817 205.622 91.9625 205.799 92.0647C205.976 92.167 206.186 92.2181 206.43 92.2181C206.591 92.2181 206.739 92.1954 206.873 92.15C207.007 92.1045 207.122 92.0363 207.217 91.9454C207.313 91.8545 207.385 91.7431 207.435 91.6113L208.778 91.7C208.71 92.0227 208.571 92.3045 208.359 92.5454C208.15 92.784 207.88 92.9704 207.548 93.1045C207.218 93.2363 206.838 93.3022 206.406 93.3022ZM209.757 93.2V87.9636H211.165V88.8772H211.219C211.315 88.5522 211.475 88.3068 211.7 88.1409C211.925 87.9727 212.184 87.8886 212.477 87.8886C212.55 87.8886 212.628 87.8931 212.713 87.9022C212.797 87.9113 212.871 87.9238 212.934 87.9397V89.2284C212.866 89.2079 212.772 89.1897 212.651 89.1738C212.531 89.1579 212.421 89.15 212.321 89.15C212.107 89.15 211.916 89.1965 211.748 89.2897C211.582 89.3806 211.45 89.5079 211.352 89.6715C211.257 89.8352 211.209 90.0238 211.209 90.2375V93.2H209.757Z" fill="#092AD0"/>
<rect x="126.499" y="99.5" width="35.4" height="14.4" rx="2.7" fill="#092AD0" fill-opacity="0.56" stroke="#092AD0" stroke-width="0.6"/>
<path d="M132.819 109.2L133.678 103.964H134.496L133.637 109.2H132.819ZM130.475 107.901L130.61 107.083H134.701L134.565 107.901H130.475ZM130.978 109.2L131.837 103.964H132.656L131.796 109.2H130.978ZM130.774 106.081L130.912 105.262H135.003L134.865 106.081H130.774ZM137.198 109.2V103.964H139.264C139.659 103.964 139.997 104.034 140.276 104.176C140.557 104.316 140.771 104.514 140.918 104.772C141.066 105.027 141.14 105.328 141.14 105.674C141.14 106.022 141.065 106.321 140.915 106.572C140.765 106.82 140.548 107.011 140.263 107.144C139.98 107.277 139.638 107.344 139.235 107.344H137.852V106.454H139.056C139.268 106.454 139.443 106.425 139.583 106.367C139.723 106.309 139.827 106.222 139.895 106.106C139.965 105.99 140 105.846 140 105.674C140 105.5 139.965 105.354 139.895 105.234C139.827 105.115 139.722 105.025 139.581 104.963C139.441 104.9 139.264 104.869 139.051 104.869H138.305V109.2H137.198ZM140.026 106.817L141.327 109.2H140.105L138.831 106.817H140.026ZM143.629 109.277C143.225 109.277 142.877 109.195 142.586 109.031C142.296 108.866 142.072 108.632 141.916 108.331C141.759 108.027 141.68 107.668 141.68 107.254C141.68 106.85 141.759 106.496 141.916 106.191C142.072 105.885 142.293 105.648 142.578 105.477C142.864 105.307 143.2 105.222 143.585 105.222C143.844 105.222 144.086 105.263 144.309 105.347C144.534 105.429 144.73 105.552 144.897 105.718C145.066 105.883 145.197 106.091 145.291 106.341C145.384 106.59 145.431 106.882 145.431 107.216V107.515H142.115V106.84H144.406C144.406 106.683 144.372 106.544 144.304 106.423C144.236 106.302 144.141 106.208 144.02 106.139C143.901 106.07 143.762 106.035 143.603 106.035C143.438 106.035 143.291 106.073 143.163 106.15C143.037 106.225 142.938 106.326 142.867 106.454C142.795 106.58 142.759 106.721 142.757 106.876V107.518C142.757 107.712 142.793 107.88 142.864 108.021C142.938 108.163 143.041 108.272 143.174 108.349C143.307 108.425 143.464 108.464 143.647 108.464C143.768 108.464 143.878 108.447 143.979 108.412C144.08 108.378 144.166 108.327 144.237 108.259C144.309 108.191 144.363 108.107 144.401 108.008L145.408 108.075C145.357 108.317 145.252 108.528 145.094 108.709C144.937 108.888 144.734 109.028 144.485 109.128C144.238 109.227 143.953 109.277 143.629 109.277ZM147.262 109.274C147.011 109.274 146.788 109.231 146.592 109.144C146.396 109.055 146.241 108.925 146.127 108.753C146.014 108.579 145.958 108.362 145.958 108.103C145.958 107.885 145.998 107.702 146.078 107.553C146.158 107.405 146.267 107.286 146.405 107.195C146.544 107.105 146.7 107.037 146.876 106.991C147.053 106.945 147.239 106.912 147.433 106.894C147.662 106.87 147.846 106.848 147.986 106.827C148.125 106.805 148.227 106.773 148.29 106.73C148.353 106.687 148.384 106.624 148.384 106.541V106.526C148.384 106.364 148.333 106.238 148.231 106.15C148.13 106.061 147.987 106.017 147.801 106.017C147.605 106.017 147.449 106.06 147.334 106.147C147.218 106.232 147.141 106.34 147.103 106.469L146.096 106.387C146.147 106.149 146.248 105.943 146.398 105.769C146.548 105.593 146.741 105.458 146.978 105.365C147.217 105.269 147.493 105.222 147.807 105.222C148.025 105.222 148.234 105.247 148.433 105.298C148.634 105.349 148.812 105.429 148.967 105.536C149.124 105.643 149.248 105.781 149.338 105.95C149.428 106.117 149.474 106.318 149.474 106.551V109.2H148.441V108.655H148.41C148.347 108.778 148.263 108.886 148.157 108.98C148.051 109.072 147.924 109.145 147.776 109.197C147.628 109.249 147.456 109.274 147.262 109.274ZM147.574 108.522C147.734 108.522 147.876 108.491 147.998 108.428C148.121 108.363 148.217 108.276 148.287 108.167C148.357 108.058 148.392 107.934 148.392 107.796V107.379C148.358 107.402 148.311 107.422 148.251 107.441C148.194 107.458 148.128 107.474 148.055 107.489C147.981 107.503 147.908 107.516 147.835 107.528C147.761 107.538 147.695 107.547 147.635 107.556C147.507 107.575 147.396 107.604 147.3 107.645C147.205 107.686 147.131 107.742 147.078 107.812C147.025 107.88 146.999 107.965 146.999 108.067C146.999 108.216 147.052 108.329 147.16 108.407C147.269 108.484 147.407 108.522 147.574 108.522ZM152.093 109.277C151.691 109.277 151.345 109.191 151.055 109.021C150.767 108.849 150.545 108.61 150.39 108.305C150.237 108 150.16 107.649 150.16 107.252C150.16 106.849 150.238 106.497 150.393 106.193C150.55 105.888 150.772 105.65 151.06 105.48C151.348 105.308 151.691 105.222 152.088 105.222C152.431 105.222 152.731 105.284 152.988 105.408C153.245 105.533 153.449 105.707 153.599 105.932C153.749 106.157 153.832 106.422 153.847 106.725H152.819C152.79 106.529 152.714 106.371 152.589 106.252C152.466 106.131 152.305 106.07 152.106 106.07C151.937 106.07 151.79 106.116 151.664 106.208C151.539 106.299 151.442 106.431 151.372 106.605C151.302 106.779 151.267 106.989 151.267 107.236C151.267 107.487 151.301 107.7 151.369 107.876C151.439 108.051 151.537 108.185 151.664 108.277C151.79 108.369 151.937 108.415 152.106 108.415C152.23 108.415 152.342 108.389 152.441 108.338C152.541 108.287 152.624 108.213 152.689 108.116C152.755 108.017 152.799 107.899 152.819 107.76H153.847C153.83 108.06 153.748 108.325 153.602 108.553C153.457 108.78 153.256 108.957 153.001 109.085C152.745 109.213 152.443 109.277 152.093 109.277ZM156.633 105.273V106.091H154.268V105.273H156.633ZM154.805 104.332H155.894V107.993C155.894 108.094 155.91 108.172 155.94 108.228C155.971 108.283 156.014 108.321 156.068 108.343C156.125 108.366 156.189 108.377 156.263 108.377C156.314 108.377 156.365 108.372 156.416 108.364C156.467 108.354 156.506 108.346 156.534 108.341L156.705 109.151C156.65 109.168 156.574 109.188 156.475 109.21C156.376 109.234 156.256 109.249 156.114 109.254C155.852 109.264 155.622 109.229 155.424 109.149C155.228 109.069 155.075 108.944 154.966 108.776C154.857 108.607 154.804 108.394 154.805 108.136V104.332Z" fill="white"/>
<rect x="167.9" y="99.5" width="56.4" height="14.4" rx="2.7" fill="#092AD0" fill-opacity="0.56" stroke="#092AD0" stroke-width="0.6"/>
<path d="M176.018 109.2L176.877 103.964H177.696L176.837 109.2H176.018ZM173.674 107.901L173.809 107.083H177.9L177.765 107.901H173.674ZM174.177 109.2L175.037 103.964H175.855L174.996 109.2H174.177ZM173.973 106.081L174.111 105.262H178.202L178.064 106.081H173.973ZM173.855 113.876V112.964H178.156V113.876H176.553V118.2H175.458V113.876H173.855ZM179.066 119.673C178.928 119.673 178.798 119.662 178.677 119.639C178.558 119.619 178.459 119.593 178.381 119.56L178.626 118.747C178.754 118.786 178.869 118.808 178.971 118.811C179.075 118.814 179.165 118.791 179.24 118.739C179.317 118.688 179.379 118.601 179.427 118.479L179.491 118.312L178.082 114.273H179.227L180.04 117.157H180.081L180.902 114.273H182.055L180.529 118.624C180.455 118.836 180.356 119.02 180.229 119.177C180.105 119.335 179.947 119.457 179.756 119.542C179.566 119.629 179.335 119.673 179.066 119.673ZM182.612 119.673V114.273H183.686V114.932H183.735C183.783 114.827 183.852 114.719 183.942 114.61C184.034 114.499 184.153 114.407 184.3 114.334C184.448 114.259 184.632 114.222 184.852 114.222C185.139 114.222 185.403 114.297 185.645 114.447C185.887 114.595 186.08 114.819 186.225 115.119C186.37 115.417 186.443 115.791 186.443 116.241C186.443 116.679 186.372 117.049 186.23 117.351C186.091 117.651 185.9 117.879 185.658 118.034C185.417 118.187 185.148 118.264 184.85 118.264C184.638 118.264 184.458 118.229 184.31 118.159C184.164 118.089 184.043 118.001 183.95 117.896C183.856 117.788 183.784 117.68 183.735 117.571H183.702V119.673H182.612ZM183.679 116.236C183.679 116.47 183.711 116.674 183.776 116.847C183.841 117.021 183.934 117.157 184.057 117.254C184.18 117.349 184.329 117.397 184.504 117.397C184.682 117.397 184.832 117.349 184.954 117.251C185.077 117.153 185.17 117.016 185.233 116.842C185.298 116.667 185.33 116.465 185.33 116.236C185.33 116.01 185.299 115.81 185.236 115.638C185.173 115.466 185.08 115.331 184.957 115.234C184.834 115.137 184.683 115.088 184.504 115.088C184.327 115.088 184.177 115.135 184.054 115.229C183.933 115.323 183.841 115.456 183.776 115.628C183.711 115.8 183.679 116.003 183.679 116.236ZM188.958 118.277C188.554 118.277 188.207 118.195 187.915 118.031C187.625 117.866 187.402 117.632 187.245 117.331C187.089 117.027 187.01 116.668 187.01 116.254C187.01 115.85 187.089 115.496 187.245 115.191C187.402 114.885 187.623 114.648 187.908 114.477C188.194 114.307 188.53 114.222 188.915 114.222C189.174 114.222 189.415 114.263 189.639 114.347C189.864 114.429 190.06 114.552 190.227 114.718C190.395 114.883 190.527 115.091 190.62 115.341C190.714 115.59 190.761 115.882 190.761 116.216V116.515H187.445V115.84H189.736C189.736 115.683 189.702 115.544 189.633 115.423C189.565 115.302 189.471 115.208 189.35 115.139C189.23 115.07 189.091 115.035 188.933 115.035C188.768 115.035 188.621 115.073 188.493 115.15C188.367 115.225 188.268 115.326 188.196 115.454C188.125 115.58 188.088 115.721 188.087 115.876V116.518C188.087 116.712 188.122 116.88 188.194 117.021C188.267 117.163 188.37 117.272 188.503 117.349C188.636 117.425 188.794 117.464 188.976 117.464C189.097 117.464 189.208 117.447 189.309 117.412C189.409 117.378 189.495 117.327 189.567 117.259C189.639 117.191 189.693 117.107 189.731 117.008L190.738 117.075C190.687 117.317 190.582 117.528 190.423 117.709C190.267 117.888 190.064 118.028 189.815 118.128C189.568 118.227 189.282 118.277 188.958 118.277ZM194.739 115.393L193.742 115.454C193.725 115.369 193.689 115.292 193.632 115.224C193.576 115.154 193.502 115.099 193.41 115.058C193.319 115.015 193.211 114.994 193.085 114.994C192.916 114.994 192.774 115.029 192.658 115.101C192.542 115.171 192.484 115.265 192.484 115.382C192.484 115.476 192.522 115.555 192.597 115.62C192.672 115.685 192.8 115.737 192.983 115.776L193.694 115.919C194.075 115.998 194.36 116.124 194.548 116.298C194.735 116.472 194.829 116.7 194.829 116.983C194.829 117.24 194.753 117.466 194.601 117.66C194.451 117.855 194.245 118.006 193.983 118.116C193.722 118.223 193.421 118.277 193.08 118.277C192.56 118.277 192.146 118.168 191.837 117.952C191.531 117.734 191.351 117.437 191.298 117.062L192.369 117.006C192.402 117.164 192.48 117.285 192.604 117.369C192.729 117.451 192.888 117.492 193.083 117.492C193.273 117.492 193.427 117.455 193.543 117.382C193.66 117.307 193.72 117.21 193.722 117.093C193.72 116.994 193.678 116.913 193.596 116.85C193.515 116.785 193.389 116.736 193.218 116.702L192.538 116.566C192.154 116.489 191.869 116.356 191.681 116.167C191.496 115.978 191.403 115.737 191.403 115.444C191.403 115.191 191.471 114.974 191.607 114.792C191.745 114.609 191.939 114.469 192.188 114.37C192.438 114.271 192.731 114.222 193.067 114.222C193.563 114.222 193.954 114.326 194.238 114.536C194.525 114.746 194.692 115.031 194.739 115.393ZM197.289 118.277C196.887 118.277 196.541 118.191 196.251 118.021C195.963 117.849 195.741 117.61 195.586 117.305C195.433 117 195.356 116.649 195.356 116.252C195.356 115.849 195.434 115.497 195.589 115.193C195.746 114.888 195.968 114.65 196.256 114.48C196.544 114.308 196.887 114.222 197.284 114.222C197.627 114.222 197.927 114.284 198.184 114.408C198.441 114.533 198.645 114.707 198.795 114.932C198.945 115.157 199.028 115.422 199.043 115.725H198.015C197.986 115.529 197.91 115.371 197.785 115.252C197.662 115.131 197.501 115.07 197.302 115.07C197.133 115.07 196.986 115.116 196.86 115.208C196.735 115.299 196.638 115.431 196.568 115.605C196.498 115.779 196.463 115.989 196.463 116.236C196.463 116.487 196.497 116.7 196.566 116.876C196.635 117.051 196.733 117.185 196.86 117.277C196.986 117.369 197.133 117.415 197.302 117.415C197.426 117.415 197.538 117.389 197.637 117.338C197.737 117.287 197.82 117.213 197.885 117.116C197.951 117.017 197.995 116.899 198.015 116.76H199.043C199.026 117.06 198.944 117.325 198.798 117.553C198.653 117.78 198.453 117.957 198.197 118.085C197.941 118.213 197.639 118.277 197.289 118.277ZM199.741 118.2V114.273H200.796V114.958H200.837C200.909 114.714 201.029 114.53 201.198 114.406C201.367 114.279 201.561 114.216 201.781 114.216C201.835 114.216 201.894 114.22 201.957 114.227C202.02 114.233 202.076 114.243 202.123 114.255V115.221C202.072 115.206 202.002 115.192 201.911 115.18C201.821 115.168 201.738 115.162 201.663 115.162C201.503 115.162 201.36 115.197 201.234 115.267C201.109 115.335 201.01 115.431 200.937 115.554C200.866 115.676 200.83 115.818 200.83 115.978V118.2H199.741ZM174.034 127.2V123.273H175.123V127.2H174.034ZM174.581 122.766C174.419 122.766 174.281 122.713 174.165 122.605C174.05 122.496 173.993 122.366 173.993 122.214C173.993 122.064 174.05 121.935 174.165 121.828C174.281 121.719 174.419 121.664 174.581 121.664C174.743 121.664 174.881 121.719 174.996 121.828C175.112 121.935 175.169 122.064 175.169 122.214C175.169 122.366 175.112 122.496 174.996 122.605C174.881 122.713 174.743 122.766 174.581 122.766ZM175.996 128.673V123.273H177.07V123.932H177.118C177.166 123.827 177.235 123.719 177.326 123.61C177.418 123.499 177.537 123.407 177.683 123.334C177.832 123.259 178.016 123.222 178.236 123.222C178.522 123.222 178.786 123.297 179.028 123.447C179.27 123.595 179.464 123.819 179.609 124.119C179.754 124.417 179.826 124.791 179.826 125.241C179.826 125.679 179.755 126.049 179.614 126.351C179.474 126.651 179.283 126.879 179.041 127.034C178.801 127.187 178.531 127.264 178.233 127.264C178.022 127.264 177.842 127.229 177.694 127.159C177.547 127.089 177.427 127.001 177.333 126.896C177.239 126.788 177.168 126.68 177.118 126.571H177.085V128.673H175.996ZM177.062 125.236C177.062 125.47 177.095 125.674 177.159 125.847C177.224 126.021 177.318 126.157 177.441 126.254C177.563 126.349 177.712 126.397 177.888 126.397C178.065 126.397 178.215 126.349 178.338 126.251C178.461 126.153 178.554 126.016 178.617 125.842C178.681 125.667 178.714 125.465 178.714 125.236C178.714 125.01 178.682 124.81 178.619 124.638C178.556 124.466 178.463 124.331 178.341 124.234C178.218 124.137 178.067 124.088 177.888 124.088C177.711 124.088 177.561 124.135 177.438 124.229C177.317 124.323 177.224 124.456 177.159 124.628C177.095 124.8 177.062 125.003 177.062 125.236ZM182.641 123.273V124.091H180.276V123.273H182.641ZM180.813 122.332H181.902V125.993C181.902 126.094 181.918 126.172 181.948 126.228C181.979 126.283 182.022 126.321 182.076 126.343C182.132 126.366 182.197 126.377 182.27 126.377C182.322 126.377 182.373 126.372 182.424 126.364C182.475 126.354 182.514 126.346 182.541 126.341L182.713 127.151C182.658 127.168 182.581 127.188 182.483 127.21C182.384 127.234 182.264 127.249 182.122 127.254C181.86 127.264 181.63 127.229 181.432 127.149C181.236 127.069 181.083 126.944 180.974 126.776C180.865 126.607 180.811 126.394 180.813 126.136V122.332Z" fill="white"/>
<rect x="230.3" y="99.5" width="53.4" height="14.4" rx="2.7" fill="#092AD0" fill-opacity="0.56" stroke="#092AD0" stroke-width="0.6"/>
<path d="M240.22 109.2L241.079 103.964H241.897L241.038 109.2H240.22ZM237.875 107.901L238.01 107.083H242.101L241.966 107.901H237.875ZM238.379 109.2L239.238 103.964H240.056L239.197 109.2H238.379ZM238.174 106.081L238.312 105.262H242.403L242.265 106.081H238.174ZM248.07 105.656C248.034 105.532 247.984 105.422 247.919 105.326C247.855 105.229 247.775 105.147 247.682 105.081C247.59 105.013 247.484 104.961 247.365 104.925C247.247 104.889 247.117 104.871 246.973 104.871C246.706 104.871 246.471 104.938 246.268 105.071C246.067 105.204 245.91 105.397 245.797 105.651C245.685 105.903 245.628 106.212 245.628 106.577C245.628 106.941 245.684 107.252 245.795 107.507C245.905 107.763 246.062 107.958 246.265 108.093C246.468 108.226 246.707 108.292 246.984 108.292C247.234 108.292 247.448 108.248 247.625 108.159C247.804 108.069 247.941 107.942 248.034 107.778C248.13 107.615 248.178 107.421 248.178 107.198L248.403 107.231H247.053V106.398H249.244V107.057C249.244 107.518 249.147 107.913 248.952 108.244C248.758 108.573 248.49 108.827 248.15 109.006C247.809 109.183 247.418 109.272 246.978 109.272C246.488 109.272 246.056 109.163 245.685 108.947C245.313 108.729 245.023 108.419 244.815 108.019C244.609 107.616 244.506 107.139 244.506 106.587C244.506 106.162 244.567 105.784 244.69 105.452C244.815 105.118 244.988 104.835 245.212 104.603C245.435 104.371 245.695 104.195 245.992 104.074C246.288 103.953 246.609 103.892 246.955 103.892C247.252 103.892 247.528 103.935 247.784 104.022C248.04 104.108 248.266 104.229 248.464 104.385C248.663 104.542 248.826 104.729 248.952 104.945C249.078 105.16 249.159 105.397 249.195 105.656H248.07ZM250.055 109.2V105.273H251.111V105.958H251.152C251.223 105.714 251.344 105.53 251.512 105.406C251.681 105.279 251.875 105.216 252.095 105.216C252.15 105.216 252.209 105.22 252.272 105.227C252.335 105.233 252.39 105.243 252.438 105.255V106.221C252.387 106.206 252.316 106.192 252.226 106.18C252.135 106.168 252.053 106.162 251.978 106.162C251.817 106.162 251.674 106.197 251.548 106.267C251.424 106.335 251.325 106.431 251.252 106.554C251.18 106.676 251.144 106.818 251.144 106.978V109.2H250.055ZM254.008 109.274C253.758 109.274 253.535 109.231 253.339 109.144C253.143 109.055 252.987 108.925 252.873 108.753C252.761 108.579 252.704 108.362 252.704 108.103C252.704 107.885 252.745 107.702 252.825 107.553C252.905 107.405 253.014 107.286 253.152 107.195C253.29 107.105 253.447 107.037 253.622 106.991C253.8 106.945 253.985 106.912 254.18 106.894C254.408 106.87 254.592 106.848 254.732 106.827C254.872 106.805 254.973 106.773 255.036 106.73C255.099 106.687 255.131 106.624 255.131 106.541V106.526C255.131 106.364 255.08 106.238 254.977 106.15C254.877 106.061 254.734 106.017 254.548 106.017C254.352 106.017 254.196 106.06 254.08 106.147C253.964 106.232 253.887 106.34 253.85 106.469L252.843 106.387C252.894 106.149 252.994 105.943 253.144 105.769C253.294 105.593 253.488 105.458 253.725 105.365C253.963 105.269 254.239 105.222 254.553 105.222C254.771 105.222 254.98 105.247 255.179 105.298C255.381 105.349 255.559 105.429 255.714 105.536C255.871 105.643 255.994 105.781 256.085 105.95C256.175 106.117 256.22 106.318 256.22 106.551V109.2H255.187V108.655H255.156C255.093 108.778 255.009 108.886 254.903 108.98C254.798 109.072 254.671 109.145 254.522 109.197C254.374 109.249 254.203 109.274 254.008 109.274ZM254.32 108.522C254.481 108.522 254.622 108.491 254.745 108.428C254.868 108.363 254.964 108.276 255.034 108.167C255.104 108.058 255.139 107.934 255.139 107.796V107.379C255.104 107.402 255.058 107.422 254.998 107.441C254.94 107.458 254.874 107.474 254.801 107.489C254.728 107.503 254.654 107.516 254.581 107.528C254.508 107.538 254.441 107.547 254.382 107.556C254.254 107.575 254.142 107.604 254.047 107.645C253.951 107.686 253.877 107.742 253.824 107.812C253.772 107.88 253.745 107.965 253.745 108.067C253.745 108.216 253.799 108.329 253.906 108.407C254.015 108.484 254.153 108.522 254.32 108.522ZM257.065 110.673V105.273H258.139V105.932H258.188C258.235 105.827 258.304 105.719 258.395 105.61C258.487 105.499 258.606 105.407 258.753 105.334C258.901 105.259 259.085 105.222 259.305 105.222C259.591 105.222 259.855 105.297 260.098 105.447C260.34 105.595 260.533 105.819 260.678 106.119C260.823 106.417 260.895 106.791 260.895 107.241C260.895 107.679 260.825 108.049 260.683 108.351C260.543 108.651 260.352 108.879 260.11 109.034C259.87 109.187 259.601 109.264 259.302 109.264C259.091 109.264 258.911 109.229 258.763 109.159C258.616 109.089 258.496 109.001 258.402 108.896C258.309 108.788 258.237 108.68 258.188 108.571H258.154V110.673H257.065ZM258.131 107.236C258.131 107.47 258.164 107.674 258.228 107.847C258.293 108.021 258.387 108.157 258.51 108.254C258.632 108.349 258.782 108.397 258.957 108.397C259.134 108.397 259.284 108.349 259.407 108.251C259.53 108.153 259.623 108.016 259.686 107.842C259.751 107.667 259.783 107.465 259.783 107.236C259.783 107.01 259.751 106.81 259.688 106.638C259.625 106.466 259.532 106.331 259.41 106.234C259.287 106.137 259.136 106.088 258.957 106.088C258.78 106.088 258.63 106.135 258.507 106.229C258.386 106.323 258.293 106.456 258.228 106.628C258.164 106.8 258.131 107.003 258.131 107.236ZM262.711 106.929V109.2H261.621V103.964H262.68V105.966H262.726C262.815 105.734 262.958 105.552 263.155 105.421C263.353 105.288 263.601 105.222 263.9 105.222C264.172 105.222 264.41 105.281 264.613 105.401C264.817 105.518 264.976 105.688 265.088 105.909C265.203 106.129 265.259 106.393 265.257 106.699V109.2H264.168V106.894C264.17 106.652 264.108 106.463 263.984 106.329C263.861 106.194 263.689 106.127 263.467 106.127C263.319 106.127 263.188 106.158 263.074 106.221C262.961 106.284 262.873 106.376 262.808 106.497C262.745 106.617 262.712 106.761 262.711 106.929ZM268.111 107.379H269.052L269.525 107.988L269.99 108.53L270.867 109.629H269.835L269.231 108.888L268.922 108.448L268.111 107.379ZM270.947 106.582C270.947 107.153 270.838 107.639 270.622 108.039C270.407 108.44 270.114 108.746 269.742 108.957C269.373 109.167 268.957 109.272 268.495 109.272C268.029 109.272 267.612 109.166 267.242 108.954C266.872 108.743 266.58 108.437 266.365 108.037C266.15 107.636 266.043 107.151 266.043 106.582C266.043 106.011 266.15 105.525 266.365 105.124C266.58 104.724 266.872 104.419 267.242 104.209C267.612 103.998 268.029 103.892 268.495 103.892C268.957 103.892 269.373 103.998 269.742 104.209C270.114 104.419 270.407 104.724 270.622 105.124C270.838 105.525 270.947 106.011 270.947 106.582ZM269.824 106.582C269.824 106.212 269.769 105.9 269.658 105.646C269.549 105.392 269.395 105.199 269.195 105.068C268.996 104.937 268.762 104.871 268.495 104.871C268.227 104.871 267.994 104.937 267.794 105.068C267.595 105.199 267.44 105.392 267.329 105.646C267.22 105.9 267.165 106.212 267.165 106.582C267.165 106.952 267.22 107.264 267.329 107.518C267.44 107.772 267.595 107.964 267.794 108.095C267.994 108.227 268.227 108.292 268.495 108.292C268.762 108.292 268.996 108.227 269.195 108.095C269.395 107.964 269.549 107.772 269.658 107.518C269.769 107.264 269.824 106.952 269.824 106.582ZM271.767 109.2V103.964H272.874V108.287H275.119V109.2H271.767Z" fill="white"/>
<rect x="50" y="50" width="300" height="81" rx="21" fill="white"/>
<circle cx="95" cy="90.2" r="24" fill="#C4C4C4"/>
<rect x="84.1992" y="93.2" width="21.6" height="12" rx="3" fill="white"/>
<circle cx="94.6992" cy="83.3" r="7.5" fill="white"/>
<path d="M130.452 72.4727H132.276V78.5579C132.276 79.1204 132.15 79.609 131.897 80.0238C131.647 80.4386 131.299 80.7582 130.853 80.9826C130.407 81.2071 129.888 81.3193 129.297 81.3193C128.772 81.3193 128.294 81.2269 127.865 81.0423C127.439 80.8548 127.101 80.5707 126.851 80.19C126.601 79.8065 126.478 79.325 126.48 78.7454H128.317C128.323 78.9755 128.37 79.173 128.458 79.3377C128.549 79.4997 128.672 79.6247 128.828 79.7127C128.988 79.798 129.175 79.8406 129.391 79.8406C129.618 79.8406 129.81 79.7923 129.966 79.6957C130.125 79.5963 130.246 79.4514 130.328 79.261C130.411 79.0707 130.452 78.8363 130.452 78.5579V72.4727ZM136.725 81.3278C136.063 81.3278 135.49 81.1872 135.007 80.9059C134.527 80.6218 134.157 80.2269 133.895 79.7213C133.634 79.2127 133.503 78.6232 133.503 77.9528C133.503 77.2767 133.634 76.6857 133.895 76.1801C134.157 75.6715 134.527 75.2767 135.007 74.9954C135.49 74.7113 136.063 74.5693 136.725 74.5693C137.387 74.5693 137.958 74.7113 138.438 74.9954C138.921 75.2767 139.293 75.6715 139.554 76.1801C139.816 76.6857 139.946 77.2767 139.946 77.9528C139.946 78.6232 139.816 79.2127 139.554 79.7213C139.293 80.2269 138.921 80.6218 138.438 80.9059C137.958 81.1872 137.387 81.3278 136.725 81.3278ZM136.733 79.9215C137.034 79.9215 137.286 79.8363 137.488 79.6659C137.689 79.4926 137.841 79.2568 137.944 78.9585C138.049 78.6602 138.101 78.3207 138.101 77.94C138.101 77.5593 138.049 77.2198 137.944 76.9215C137.841 76.6232 137.689 76.3875 137.488 76.2142C137.286 76.0409 137.034 75.9542 136.733 75.9542C136.429 75.9542 136.174 76.0409 135.966 76.2142C135.762 76.3875 135.607 76.6232 135.502 76.9215C135.4 77.2198 135.348 77.5593 135.348 77.94C135.348 78.3207 135.4 78.6602 135.502 78.9585C135.607 79.2568 135.762 79.4926 135.966 79.6659C136.174 79.8363 136.429 79.9215 136.733 79.9215ZM141.127 81.2V74.6545H142.887V75.7965H142.955C143.074 75.3903 143.275 75.0835 143.556 74.8761C143.837 74.6659 144.161 74.5607 144.527 74.5607C144.618 74.5607 144.716 74.5664 144.821 74.5778C144.926 74.5892 145.019 74.6048 145.098 74.6247V76.2355C145.013 76.2099 144.895 76.1872 144.745 76.1673C144.594 76.1474 144.456 76.1375 144.331 76.1375C144.064 76.1375 143.826 76.1957 143.615 76.3122C143.408 76.4258 143.243 76.5849 143.121 76.7894C143.002 76.994 142.942 77.2298 142.942 77.4968V81.2H141.127ZM148.144 81.3065C147.647 81.3065 147.197 81.1786 146.793 80.923C146.393 80.6644 146.075 80.2852 145.839 79.7852C145.606 79.2823 145.489 78.6659 145.489 77.9357C145.489 77.1857 145.61 76.5622 145.852 76.065C146.093 75.565 146.414 75.1914 146.815 74.9443C147.218 74.6943 147.66 74.5693 148.14 74.5693C148.506 74.5693 148.812 74.6318 149.056 74.7568C149.303 74.8789 149.502 75.0323 149.653 75.217C149.806 75.3988 149.923 75.5778 150.002 75.7539H150.058V72.4727H151.869V81.2H150.079V80.1517H150.002C149.917 80.3335 149.796 80.5139 149.64 80.6928C149.487 80.869 149.286 81.0153 149.039 81.1318C148.795 81.2482 148.496 81.3065 148.144 81.3065ZM148.719 79.8619C149.012 79.8619 149.259 79.7823 149.461 79.6232C149.665 79.4613 149.822 79.2355 149.93 78.9457C150.04 78.6559 150.096 78.3164 150.096 77.9272C150.096 77.538 150.042 77.2 149.934 76.913C149.826 76.6261 149.67 76.4045 149.465 76.2482C149.261 76.092 149.012 76.0139 148.719 76.0139C148.421 76.0139 148.17 76.0948 147.965 76.2568C147.761 76.4187 147.606 76.6431 147.501 76.9301C147.396 77.217 147.343 77.5494 147.343 77.9272C147.343 78.3079 147.396 78.6446 147.501 78.9372C147.609 79.2269 147.763 79.4542 147.965 79.619C148.17 79.7809 148.421 79.8619 148.719 79.8619ZM155.228 81.3235C154.81 81.3235 154.438 81.2511 154.111 81.1062C153.784 80.9585 153.526 80.7411 153.336 80.4542C153.148 80.1644 153.054 79.8036 153.054 79.3718C153.054 79.0082 153.121 78.7028 153.255 78.4556C153.388 78.2085 153.57 78.0096 153.8 77.859C154.03 77.7085 154.292 77.5948 154.584 77.5181C154.88 77.4414 155.189 77.3875 155.513 77.3562C155.894 77.3164 156.201 77.2795 156.434 77.2454C156.667 77.2085 156.836 77.1545 156.941 77.0835C157.046 77.0125 157.098 76.9073 157.098 76.7681V76.7426C157.098 76.4727 157.013 76.2639 156.843 76.1161C156.675 75.9684 156.436 75.8946 156.127 75.8946C155.8 75.8946 155.54 75.967 155.347 76.1119C155.154 76.2539 155.026 76.4329 154.963 76.6488L153.284 76.5125C153.37 76.1147 153.537 75.771 153.787 75.4812C154.037 75.1886 154.36 74.9642 154.755 74.8079C155.152 74.6488 155.613 74.5693 156.135 74.5693C156.499 74.5693 156.847 74.6119 157.179 74.6971C157.515 74.7823 157.811 74.9144 158.07 75.0934C158.331 75.2724 158.537 75.5025 158.688 75.7838C158.838 76.0622 158.914 76.396 158.914 76.7852V81.2H157.192V80.2923H157.141C157.036 80.4968 156.895 80.6772 156.719 80.8335C156.543 80.9869 156.331 81.1076 156.084 81.1957C155.837 81.2809 155.551 81.3235 155.228 81.3235ZM155.748 80.0707C156.015 80.0707 156.25 80.0181 156.455 79.913C156.659 79.8051 156.82 79.6602 156.936 79.4784C157.053 79.2965 157.111 79.0906 157.111 78.8605V78.1659C157.054 78.2028 156.976 78.2369 156.877 78.2681C156.78 78.2965 156.671 78.3235 156.549 78.3491C156.426 78.3718 156.304 78.3931 156.182 78.413C156.06 78.4301 155.949 78.4457 155.85 78.4599C155.637 78.4911 155.451 78.5409 155.292 78.609C155.132 78.6772 155.009 78.7696 154.921 78.886C154.833 78.9997 154.789 79.1417 154.789 79.3122C154.789 79.5593 154.878 79.7482 155.057 79.8789C155.239 80.0068 155.469 80.0707 155.748 80.0707ZM162.137 77.4159V81.2H160.322V74.6545H162.052V75.8093H162.129C162.274 75.4286 162.517 75.1275 162.858 74.9059C163.199 74.6815 163.612 74.5693 164.098 74.5693C164.552 74.5693 164.949 74.6687 165.287 74.8676C165.625 75.0664 165.887 75.3505 166.075 75.7198C166.262 76.0863 166.356 76.5238 166.356 77.0323V81.2H164.541V77.3562C164.544 76.9556 164.441 76.6431 164.234 76.4187C164.027 76.1914 163.741 76.0778 163.377 76.0778C163.133 76.0778 162.917 76.1303 162.73 76.2355C162.545 76.3406 162.4 76.494 162.295 76.6957C162.193 76.8946 162.14 77.1346 162.137 77.4159ZM173.692 81.2H170.598V72.4727H173.718C174.596 72.4727 175.351 72.6474 175.985 72.9968C176.618 73.3434 177.105 73.842 177.446 74.4926C177.79 75.1431 177.962 75.9215 177.962 76.8278C177.962 77.7369 177.79 78.5181 177.446 79.1715C177.105 79.825 176.615 80.3264 175.976 80.6758C175.34 81.0252 174.578 81.2 173.692 81.2ZM172.444 79.619H173.615C174.161 79.619 174.62 79.5224 174.992 79.3292C175.367 79.1332 175.648 78.8306 175.836 78.4215C176.026 78.0096 176.121 77.4784 176.121 76.8278C176.121 76.1829 176.026 75.6559 175.836 75.2468C175.648 74.8377 175.368 74.5366 174.996 74.3434C174.624 74.1502 174.165 74.0536 173.62 74.0536H172.444V79.619ZM181.161 81.3235C180.744 81.3235 180.371 81.2511 180.045 81.1062C179.718 80.9585 179.46 80.7411 179.269 80.4542C179.082 80.1644 178.988 79.8036 178.988 79.3718C178.988 79.0082 179.055 78.7028 179.188 78.4556C179.322 78.2085 179.504 78.0096 179.734 77.859C179.964 77.7085 180.225 77.5948 180.518 77.5181C180.813 77.4414 181.123 77.3875 181.447 77.3562C181.827 77.3164 182.134 77.2795 182.367 77.2454C182.6 77.2085 182.769 77.1545 182.874 77.0835C182.979 77.0125 183.032 76.9073 183.032 76.7681V76.7426C183.032 76.4727 182.947 76.2639 182.776 76.1161C182.609 75.9684 182.37 75.8946 182.06 75.8946C181.734 75.8946 181.474 75.967 181.281 76.1119C181.087 76.2539 180.96 76.4329 180.897 76.6488L179.218 76.5125C179.303 76.1147 179.471 75.771 179.721 75.4812C179.971 75.1886 180.293 74.9642 180.688 74.8079C181.086 74.6488 181.546 74.5693 182.069 74.5693C182.433 74.5693 182.781 74.6119 183.113 74.6971C183.448 74.7823 183.745 74.9144 184.004 75.0934C184.265 75.2724 184.471 75.5025 184.621 75.7838C184.772 76.0622 184.847 76.396 184.847 76.7852V81.2H183.126V80.2923H183.075C182.969 80.4968 182.829 80.6772 182.653 80.8335C182.477 80.9869 182.265 81.1076 182.018 81.1957C181.771 81.2809 181.485 81.3235 181.161 81.3235ZM181.681 80.0707C181.948 80.0707 182.184 80.0181 182.388 79.913C182.593 79.8051 182.754 79.6602 182.87 79.4784C182.987 79.2965 183.045 79.0906 183.045 78.8605V78.1659C182.988 78.2028 182.91 78.2369 182.81 78.2681C182.714 78.2965 182.604 78.3235 182.482 78.3491C182.36 78.3718 182.238 78.3931 182.116 78.413C181.994 78.4301 181.883 78.4457 181.783 78.4599C181.57 78.4911 181.384 78.5409 181.225 78.609C181.066 78.6772 180.942 78.7696 180.854 78.886C180.766 78.9997 180.722 79.1417 180.722 79.3122C180.722 79.5593 180.812 79.7482 180.991 79.8789C181.173 80.0068 181.403 80.0707 181.681 80.0707ZM192.124 74.6545L189.835 81.2H187.79L185.501 74.6545H187.419L188.778 79.3377H188.847L190.202 74.6545H192.124ZM193.053 81.2V74.6545H194.868V81.2H193.053ZM193.964 73.8107C193.695 73.8107 193.463 73.7213 193.27 73.5423C193.08 73.3605 192.984 73.1431 192.984 72.8903C192.984 72.6403 193.08 72.4258 193.27 72.2468C193.463 72.065 193.695 71.9741 193.964 71.9741C194.234 71.9741 194.464 72.065 194.655 72.2468C194.848 72.4258 194.945 72.6403 194.945 72.8903C194.945 73.1431 194.848 73.3605 194.655 73.5423C194.464 73.7213 194.234 73.8107 193.964 73.8107ZM201.768 76.521L200.106 76.6232C200.078 76.4812 200.017 76.3534 199.923 76.2397C199.829 76.1232 199.706 76.0309 199.552 75.9627C199.402 75.8917 199.221 75.8562 199.011 75.8562C198.73 75.8562 198.493 75.9159 198.299 76.0352C198.106 76.1517 198.01 76.3079 198.01 76.5039C198.01 76.6602 198.072 76.7923 198.197 76.9002C198.322 77.0082 198.537 77.0948 198.841 77.1602L200.025 77.3988C200.662 77.5295 201.136 77.7397 201.449 78.0295C201.761 78.3193 201.917 78.7 201.917 79.1715C201.917 79.6005 201.791 79.9769 201.538 80.3008C201.288 80.6247 200.944 80.8775 200.507 81.0593C200.072 81.2383 199.571 81.3278 199.002 81.3278C198.136 81.3278 197.446 81.1474 196.931 80.7866C196.42 80.423 196.12 79.9286 196.032 79.3036L197.818 79.2099C197.872 79.4741 198.002 79.6758 198.21 79.815C198.417 79.9514 198.683 80.0196 199.007 80.0196C199.325 80.0196 199.581 79.9585 199.774 79.8363C199.97 79.7113 200.069 79.5508 200.072 79.3548C200.069 79.19 200 79.0551 199.863 78.95C199.727 78.842 199.517 78.7596 199.233 78.7028L198.099 78.4769C197.46 78.3491 196.984 78.1275 196.672 77.8122C196.362 77.4968 196.207 77.0948 196.207 76.6062C196.207 76.1857 196.321 75.8235 196.548 75.5196C196.778 75.2156 197.1 74.9812 197.515 74.8164C197.933 74.6517 198.422 74.5693 198.981 74.5693C199.808 74.5693 200.458 74.744 200.933 75.0934C201.41 75.4428 201.689 75.9187 201.768 76.521Z" fill="black"/>
<path d="M129.402 86.0182H130.861V90.8864C130.861 91.3364 130.76 91.7273 130.558 92.0591C130.358 92.3909 130.08 92.6466 129.723 92.8261C129.366 93.0057 128.951 93.0955 128.478 93.0955C128.058 93.0955 127.676 93.0216 127.333 92.8739C126.992 92.7239 126.722 92.4966 126.522 92.192C126.322 91.8852 126.223 91.5 126.225 91.0364H127.694C127.699 91.2205 127.736 91.3784 127.807 91.5102C127.88 91.6398 127.978 91.7398 128.103 91.8102C128.231 91.8784 128.381 91.9125 128.553 91.9125C128.735 91.9125 128.889 91.8739 129.014 91.7966C129.141 91.717 129.238 91.6011 129.303 91.4489C129.369 91.2966 129.402 91.1091 129.402 90.8864V86.0182ZM132.055 93V87.7636H133.463V88.6773H133.517C133.613 88.3523 133.773 88.1068 133.998 87.9409C134.223 87.7727 134.482 87.6886 134.775 87.6886C134.848 87.6886 134.926 87.6932 135.01 87.7023C135.094 87.7114 135.168 87.7239 135.232 87.7398V89.0284C135.164 89.008 135.069 88.9898 134.949 88.9739C134.828 88.958 134.718 88.95 134.618 88.95C134.405 88.95 134.214 88.9966 134.045 89.0898C133.88 89.1807 133.748 89.308 133.65 89.4716C133.555 89.6352 133.507 89.8239 133.507 90.0375V93H132.055ZM138.232 93V86.0182H141.027C141.541 86.0182 141.969 86.0943 142.313 86.2466C142.656 86.3989 142.914 86.6102 143.086 86.8807C143.259 87.1489 143.345 87.458 143.345 87.808C143.345 88.0807 143.291 88.3205 143.182 88.5273C143.073 88.7318 142.923 88.9 142.732 89.0318C142.543 89.1614 142.327 89.2534 142.084 89.308V89.3761C142.35 89.3875 142.599 89.4625 142.831 89.6011C143.065 89.7398 143.255 89.9341 143.4 90.1841C143.545 90.4318 143.618 90.7273 143.618 91.0705C143.618 91.4409 143.526 91.7716 143.342 92.0625C143.16 92.3511 142.891 92.5795 142.534 92.7477C142.177 92.9159 141.738 93 141.215 93H138.232ZM139.708 91.7932H140.911C141.323 91.7932 141.623 91.7148 141.811 91.558C142 91.3989 142.094 91.1875 142.094 90.9239C142.094 90.7307 142.048 90.5602 141.955 90.4125C141.861 90.2648 141.728 90.1489 141.556 90.0648C141.385 89.9807 141.182 89.9386 140.945 89.9386H139.708V91.7932ZM139.708 88.9398H140.802C141.005 88.9398 141.184 88.9045 141.341 88.8341C141.5 88.7614 141.625 88.6591 141.716 88.5273C141.809 88.3955 141.856 88.2375 141.856 88.0534C141.856 87.8011 141.766 87.5977 141.586 87.4432C141.409 87.2886 141.157 87.2114 140.83 87.2114H139.708V88.9398ZM146.045 93.0989C145.711 93.0989 145.413 93.0409 145.151 92.925C144.89 92.8068 144.683 92.633 144.531 92.4034C144.381 92.1716 144.306 91.883 144.306 91.5375C144.306 91.2466 144.359 91.0023 144.466 90.8045C144.573 90.6068 144.718 90.4477 144.903 90.3273C145.087 90.2068 145.296 90.1159 145.53 90.0545C145.766 89.9932 146.014 89.95 146.273 89.925C146.578 89.8932 146.823 89.8636 147.009 89.8364C147.196 89.8068 147.331 89.7636 147.415 89.7068C147.499 89.65 147.541 89.5659 147.541 89.4545V89.4341C147.541 89.2182 147.473 89.0511 147.337 88.933C147.203 88.8148 147.012 88.7557 146.764 88.7557C146.503 88.7557 146.295 88.8136 146.14 88.9295C145.986 89.0432 145.883 89.1864 145.833 89.3591L144.49 89.25C144.558 88.9318 144.692 88.6568 144.892 88.425C145.092 88.1909 145.35 88.0114 145.666 87.8864C145.984 87.7591 146.353 87.6955 146.771 87.6955C147.062 87.6955 147.34 87.7295 147.606 87.7977C147.874 87.8659 148.112 87.9716 148.318 88.1148C148.528 88.258 148.692 88.442 148.813 88.667C148.933 88.8898 148.993 89.1568 148.993 89.4682V93H147.616V92.2739H147.575C147.491 92.4375 147.379 92.5818 147.238 92.7068C147.097 92.8295 146.928 92.9261 146.73 92.9966C146.532 93.0648 146.304 93.0989 146.045 93.0989ZM146.461 92.0966C146.674 92.0966 146.863 92.0545 147.026 91.9705C147.19 91.8841 147.318 91.7682 147.412 91.6227C147.505 91.4773 147.551 91.3125 147.551 91.1284V90.5727C147.506 90.6023 147.443 90.6295 147.364 90.6545C147.287 90.6773 147.199 90.6989 147.101 90.7193C147.004 90.7375 146.906 90.7545 146.808 90.7705C146.711 90.7841 146.622 90.7966 146.542 90.808C146.372 90.833 146.223 90.8727 146.096 90.9273C145.968 90.9818 145.87 91.0557 145.799 91.1489C145.729 91.2398 145.693 91.3534 145.693 91.4898C145.693 91.6875 145.765 91.8386 145.908 91.9432C146.054 92.0455 146.238 92.0966 146.461 92.0966ZM152.486 93.1023C151.95 93.1023 151.488 92.9886 151.102 92.7614C150.718 92.5318 150.422 92.2136 150.216 91.8068C150.011 91.4 149.909 90.9318 149.909 90.4023C149.909 89.8659 150.012 89.3955 150.219 88.9909C150.428 88.5841 150.725 88.267 151.109 88.0398C151.493 87.8102 151.95 87.6955 152.479 87.6955C152.936 87.6955 153.336 87.7784 153.679 87.9443C154.022 88.1102 154.294 88.3432 154.494 88.6432C154.694 88.9432 154.804 89.2955 154.825 89.7H153.454C153.416 89.4386 153.313 89.2284 153.147 89.0693C152.984 88.908 152.769 88.8273 152.503 88.8273C152.278 88.8273 152.082 88.8886 151.913 89.0114C151.747 89.1318 151.618 89.308 151.525 89.5398C151.432 89.7716 151.385 90.0523 151.385 90.3818C151.385 90.7159 151.43 91 151.521 91.2341C151.614 91.4682 151.745 91.6466 151.913 91.7693C152.082 91.892 152.278 91.9534 152.503 91.9534C152.669 91.9534 152.818 91.9193 152.95 91.8511C153.084 91.783 153.194 91.6841 153.28 91.5545C153.369 91.4227 153.427 91.2648 153.454 91.0807H154.825C154.802 91.4807 154.693 91.833 154.497 92.1375C154.304 92.4398 154.037 92.6761 153.696 92.8466C153.355 93.017 152.952 93.1023 152.486 93.1023ZM157.07 91.4932L157.074 89.7511H157.285L158.963 87.7636H160.63L158.376 90.3955H158.032L157.07 91.4932ZM155.755 93V86.0182H157.207V93H155.755ZM159.027 93L157.486 90.7193L158.455 89.6932L160.728 93H159.027ZM163.513 93.1023C162.974 93.1023 162.511 92.9932 162.122 92.775C161.736 92.5545 161.438 92.2432 161.229 91.8409C161.02 91.4364 160.915 90.958 160.915 90.4057C160.915 89.867 161.02 89.3943 161.229 88.9875C161.438 88.5807 161.732 88.2636 162.112 88.0364C162.493 87.8091 162.941 87.6955 163.455 87.6955C163.8 87.6955 164.122 87.7511 164.42 87.8625C164.72 87.9716 164.981 88.1364 165.204 88.3568C165.429 88.5773 165.604 88.8545 165.729 89.1886C165.854 89.5205 165.916 89.9091 165.916 90.3545V90.7534H161.495V89.8534H164.549C164.549 89.6443 164.504 89.4591 164.413 89.2977C164.322 89.1364 164.196 89.0102 164.034 88.9193C163.875 88.8261 163.69 88.7795 163.479 88.7795C163.258 88.7795 163.063 88.8307 162.892 88.933C162.724 89.033 162.592 89.1682 162.497 89.3386C162.401 89.5068 162.353 89.6943 162.35 89.9011V90.7568C162.35 91.0159 162.398 91.2398 162.493 91.4284C162.591 91.617 162.729 91.7625 162.906 91.8648C163.083 91.967 163.293 92.0182 163.537 92.0182C163.698 92.0182 163.846 91.9955 163.98 91.95C164.114 91.9045 164.229 91.8364 164.324 91.7455C164.42 91.6545 164.492 91.5432 164.542 91.4114L165.886 91.5C165.817 91.8227 165.678 92.1045 165.466 92.3455C165.257 92.5841 164.987 92.7705 164.655 92.9045C164.325 93.0364 163.945 93.1023 163.513 93.1023ZM168.316 89.9727V93H166.864V87.7636H168.248V88.6875H168.309C168.425 88.383 168.62 88.142 168.892 87.9648C169.165 87.7852 169.496 87.6955 169.884 87.6955C170.248 87.6955 170.565 87.775 170.836 87.9341C171.106 88.0932 171.316 88.3205 171.466 88.6159C171.616 88.9091 171.691 89.2591 171.691 89.6659V93H170.239V89.925C170.241 89.6045 170.159 89.3545 169.993 89.175C169.828 88.9932 169.599 88.9023 169.308 88.9023C169.113 88.9023 168.94 88.9443 168.79 89.0284C168.642 89.1125 168.526 89.2352 168.442 89.3966C168.361 89.5557 168.318 89.7477 168.316 89.9727ZM174.765 93.0852C174.368 93.0852 174.007 92.983 173.685 92.7784C173.364 92.5716 173.11 92.2682 172.921 91.8682C172.735 91.4659 172.641 90.9727 172.641 90.3886C172.641 89.7886 172.738 89.2898 172.931 88.892C173.124 88.492 173.381 88.1932 173.702 87.9955C174.024 87.7955 174.378 87.6955 174.762 87.6955C175.055 87.6955 175.299 87.7455 175.495 87.8455C175.693 87.9432 175.852 88.0659 175.972 88.2136C176.095 88.3591 176.188 88.5023 176.252 88.6432H176.296V86.0182H177.745V93H176.313V92.1614H176.252C176.184 92.3068 176.087 92.4511 175.962 92.5943C175.839 92.7352 175.679 92.8523 175.481 92.9455C175.286 93.0386 175.047 93.0852 174.765 93.0852ZM175.226 91.9295C175.46 91.9295 175.657 91.8659 175.819 91.7386C175.982 91.6091 176.107 91.4284 176.194 91.1966C176.282 90.9648 176.327 90.6932 176.327 90.3818C176.327 90.0705 176.284 89.8 176.197 89.5705C176.111 89.3409 175.986 89.1636 175.822 89.0386C175.659 88.9136 175.46 88.8511 175.226 88.8511C174.987 88.8511 174.786 88.9159 174.622 89.0455C174.459 89.175 174.335 89.3545 174.251 89.5841C174.166 89.8136 174.124 90.0795 174.124 90.3818C174.124 90.6864 174.166 90.9557 174.251 91.1898C174.337 91.4216 174.461 91.6034 174.622 91.7352C174.786 91.8648 174.987 91.9295 175.226 91.9295ZM181.188 93V86.0182H185.893V87.2352H182.664V88.8989H185.651V90.1159H182.664V91.783H185.906V93H181.188ZM188.491 89.9727V93H187.039V87.7636H188.423V88.6875H188.484C188.6 88.383 188.795 88.142 189.067 87.9648C189.34 87.7852 189.671 87.6955 190.059 87.6955C190.423 87.6955 190.74 87.775 191.011 87.9341C191.281 88.0932 191.491 88.3205 191.641 88.6159C191.791 88.9091 191.866 89.2591 191.866 89.6659V93H190.414V89.925C190.416 89.6045 190.334 89.3545 190.168 89.175C190.003 88.9932 189.774 88.9023 189.483 88.9023C189.288 88.9023 189.115 88.9443 188.965 89.0284C188.817 89.1125 188.701 89.2352 188.617 89.3966C188.536 89.5557 188.493 89.7477 188.491 89.9727ZM195.37 95.0727C194.899 95.0727 194.496 95.008 194.16 94.8784C193.826 94.7511 193.56 94.5773 193.362 94.3568C193.164 94.1364 193.036 93.8886 192.977 93.6136L194.32 93.433C194.361 93.5375 194.426 93.6352 194.514 93.7261C194.603 93.817 194.72 93.8898 194.865 93.9443C195.013 94.0011 195.193 94.0295 195.404 94.0295C195.72 94.0295 195.98 93.9523 196.185 93.7977C196.391 93.6455 196.495 93.3898 196.495 93.0307V92.0727H196.434C196.37 92.2182 196.274 92.3557 196.147 92.4852C196.02 92.6148 195.856 92.7205 195.656 92.8023C195.456 92.8841 195.218 92.925 194.94 92.925C194.547 92.925 194.189 92.8341 193.866 92.6523C193.546 92.4682 193.29 92.1875 193.099 91.8102C192.911 91.4307 192.816 90.9511 192.816 90.3716C192.816 89.7784 192.913 89.283 193.106 88.8852C193.299 88.4875 193.556 88.1898 193.877 87.992C194.199 87.7943 194.553 87.6955 194.937 87.6955C195.23 87.6955 195.476 87.7455 195.673 87.8455C195.871 87.9432 196.03 88.0659 196.151 88.2136C196.273 88.3591 196.368 88.5023 196.434 88.6432H196.488V87.7636H197.93V93.0511C197.93 93.4966 197.821 93.8693 197.603 94.1693C197.385 94.4693 197.082 94.6943 196.696 94.8443C196.312 94.9966 195.87 95.0727 195.37 95.0727ZM195.401 91.8341C195.635 91.8341 195.832 91.7761 195.994 91.6602C196.157 91.542 196.282 91.3739 196.369 91.1557C196.457 90.9352 196.502 90.6716 196.502 90.3648C196.502 90.058 196.459 89.792 196.372 89.567C196.286 89.3398 196.161 89.1636 195.997 89.0386C195.834 88.9136 195.635 88.8511 195.401 88.8511C195.162 88.8511 194.961 88.9159 194.797 89.0455C194.634 89.1727 194.51 89.35 194.426 89.5773C194.341 89.8045 194.299 90.067 194.299 90.3648C194.299 90.667 194.341 90.9284 194.426 91.1489C194.512 91.367 194.636 91.5364 194.797 91.6568C194.961 91.775 195.162 91.8341 195.401 91.8341ZM199.086 93V87.7636H200.538V93H199.086ZM199.815 87.0886C199.599 87.0886 199.414 87.017 199.26 86.8739C199.107 86.7284 199.031 86.5545 199.031 86.3523C199.031 86.1523 199.107 85.9807 199.26 85.8375C199.414 85.692 199.599 85.6193 199.815 85.6193C200.031 85.6193 200.215 85.692 200.368 85.8375C200.522 85.9807 200.599 86.1523 200.599 86.3523C200.599 86.5545 200.522 86.7284 200.368 86.8739C200.215 87.017 200.031 87.0886 199.815 87.0886ZM203.154 89.9727V93H201.701V87.7636H203.086V88.6875H203.147C203.263 88.383 203.457 88.142 203.73 87.9648C204.003 87.7852 204.333 87.6955 204.722 87.6955C205.086 87.6955 205.403 87.775 205.673 87.9341C205.943 88.0932 206.154 88.3205 206.304 88.6159C206.454 88.9091 206.529 89.2591 206.529 89.6659V93H205.076V89.925C205.079 89.6045 204.997 89.3545 204.831 89.175C204.665 88.9932 204.437 88.9023 204.146 88.9023C203.95 88.9023 203.778 88.9443 203.628 89.0284C203.48 89.1125 203.364 89.2352 203.28 89.3966C203.198 89.5557 203.156 89.7477 203.154 89.9727ZM210.06 93.1023C209.521 93.1023 209.057 92.9932 208.669 92.775C208.282 92.5545 207.985 92.2432 207.776 91.8409C207.566 91.4364 207.462 90.958 207.462 90.4057C207.462 89.867 207.566 89.3943 207.776 88.9875C207.985 88.5807 208.279 88.2636 208.659 88.0364C209.04 87.8091 209.488 87.6955 210.002 87.6955C210.347 87.6955 210.669 87.7511 210.966 87.8625C211.266 87.9716 211.528 88.1364 211.751 88.3568C211.976 88.5773 212.151 88.8545 212.276 89.1886C212.401 89.5205 212.463 89.9091 212.463 90.3545V90.7534H208.041V89.8534H211.096C211.096 89.6443 211.051 89.4591 210.96 89.2977C210.869 89.1364 210.743 89.0102 210.581 88.9193C210.422 88.8261 210.237 88.7795 210.026 88.7795C209.805 88.7795 209.61 88.8307 209.439 88.933C209.271 89.033 209.139 89.1682 209.044 89.3386C208.948 89.5068 208.899 89.6943 208.897 89.9011V90.7568C208.897 91.0159 208.945 91.2398 209.04 91.4284C209.138 91.617 209.276 91.7625 209.453 91.8648C209.63 91.967 209.84 92.0182 210.084 92.0182C210.245 92.0182 210.393 91.9955 210.527 91.95C210.661 91.9045 210.776 91.8364 210.871 91.7455C210.966 91.6545 211.039 91.5432 211.089 91.4114L212.432 91.5C212.364 91.8227 212.224 92.1045 212.013 92.3455C211.804 92.5841 211.534 92.7705 211.202 92.9045C210.872 93.0364 210.491 93.1023 210.06 93.1023ZM215.797 93.1023C215.259 93.1023 214.795 92.9932 214.406 92.775C214.02 92.5545 213.722 92.2432 213.513 91.8409C213.304 91.4364 213.199 90.958 213.199 90.4057C213.199 89.867 213.304 89.3943 213.513 88.9875C213.722 88.5807 214.016 88.2636 214.396 88.0364C214.778 87.8091 215.226 87.6955 215.739 87.6955C216.085 87.6955 216.406 87.7511 216.704 87.8625C217.004 87.9716 217.265 88.1364 217.488 88.3568C217.713 88.5773 217.888 88.8545 218.013 89.1886C218.138 89.5205 218.201 89.9091 218.201 90.3545V90.7534H213.779V89.8534H216.834C216.834 89.6443 216.788 89.4591 216.697 89.2977C216.606 89.1364 216.48 89.0102 216.319 88.9193C216.16 88.8261 215.974 88.7795 215.763 88.7795C215.543 88.7795 215.347 88.8307 215.177 88.933C215.009 89.033 214.877 89.1682 214.781 89.3386C214.686 89.5068 214.637 89.6943 214.635 89.9011V90.7568C214.635 91.0159 214.682 91.2398 214.778 91.4284C214.876 91.617 215.013 91.7625 215.19 91.8648C215.368 91.967 215.578 92.0182 215.821 92.0182C215.982 92.0182 216.13 91.9955 216.264 91.95C216.398 91.9045 216.513 91.8364 216.609 91.7455C216.704 91.6545 216.777 91.5432 216.827 91.4114L218.17 91.5C218.102 91.8227 217.962 92.1045 217.751 92.3455C217.541 92.5841 217.271 92.7705 216.939 92.9045C216.61 93.0364 216.229 93.1023 215.797 93.1023ZM219.148 93V87.7636H220.556V88.6773H220.611C220.706 88.3523 220.866 88.1068 221.091 87.9409C221.316 87.7727 221.576 87.6886 221.869 87.6886C221.941 87.6886 222.02 87.6932 222.104 87.7023C222.188 87.7114 222.262 87.7239 222.326 87.7398V89.0284C222.257 89.008 222.163 88.9898 222.043 88.9739C221.922 88.958 221.812 88.95 221.712 88.95C221.498 88.95 221.307 88.9966 221.139 89.0898C220.973 89.1807 220.841 89.308 220.744 89.4716C220.648 89.6352 220.601 89.8239 220.601 90.0375V93H219.148Z" fill="#092AD0"/>
<rect x="126.499" y="99.5" width="41.4" height="14.4" rx="2.7" fill="#092AD0" fill-opacity="0.56" stroke="#092AD0" stroke-width="0.6"/>
<path d="M132.819 109.2L133.678 103.964H134.496L133.637 109.2H132.819ZM130.475 107.901L130.61 107.083H134.701L134.565 107.901H130.475ZM130.978 109.2L131.837 103.964H132.656L131.796 109.2H130.978ZM130.774 106.081L130.912 105.262H135.003L134.865 106.081H130.774ZM141.578 103.964V109.2H140.621L138.343 105.904H138.305V109.2H137.198V103.964H138.169L140.43 107.257H140.476V103.964H141.578ZM144.246 109.277C143.849 109.277 143.506 109.192 143.216 109.024C142.928 108.853 142.705 108.616 142.548 108.313C142.392 108.008 142.313 107.654 142.313 107.252C142.313 106.846 142.392 106.491 142.548 106.188C142.705 105.883 142.928 105.646 143.216 105.477C143.506 105.307 143.849 105.222 144.246 105.222C144.643 105.222 144.986 105.307 145.274 105.477C145.564 105.646 145.787 105.883 145.944 106.188C146.101 106.491 146.179 106.846 146.179 107.252C146.179 107.654 146.101 108.008 145.944 108.313C145.787 108.616 145.564 108.853 145.274 109.024C144.986 109.192 144.643 109.277 144.246 109.277ZM144.251 108.433C144.432 108.433 144.583 108.382 144.704 108.279C144.825 108.176 144.916 108.034 144.977 107.855C145.041 107.676 145.072 107.472 145.072 107.244C145.072 107.016 145.041 106.812 144.977 106.633C144.916 106.454 144.825 106.312 144.704 106.208C144.583 106.104 144.432 106.053 144.251 106.053C144.069 106.053 143.916 106.104 143.791 106.208C143.668 106.312 143.575 106.454 143.512 106.633C143.451 106.812 143.42 107.016 143.42 107.244C143.42 107.472 143.451 107.676 143.512 107.855C143.575 108.034 143.668 108.176 143.791 108.279C143.916 108.382 144.069 108.433 144.251 108.433ZM148.335 109.264C148.036 109.264 147.766 109.187 147.524 109.034C147.284 108.879 147.093 108.651 146.951 108.351C146.812 108.049 146.742 107.679 146.742 107.241C146.742 106.791 146.814 106.417 146.959 106.119C147.104 105.819 147.296 105.595 147.537 105.447C147.779 105.297 148.044 105.222 148.332 105.222C148.552 105.222 148.735 105.259 148.882 105.334C149.03 105.407 149.149 105.499 149.24 105.61C149.332 105.719 149.402 105.827 149.449 105.932H149.483V103.964H150.569V109.2H149.495V108.571H149.449C149.398 108.68 149.326 108.788 149.232 108.896C149.14 109.001 149.02 109.089 148.871 109.159C148.725 109.229 148.546 109.264 148.335 109.264ZM148.68 108.397C148.855 108.397 149.004 108.349 149.125 108.254C149.247 108.157 149.341 108.021 149.406 107.847C149.472 107.674 149.506 107.47 149.506 107.236C149.506 107.003 149.473 106.8 149.408 106.628C149.344 106.456 149.25 106.323 149.127 106.229C149.004 106.135 148.855 106.088 148.68 106.088C148.501 106.088 148.35 106.137 148.227 106.234C148.104 106.331 148.012 106.466 147.948 106.638C147.885 106.81 147.854 107.01 147.854 107.236C147.854 107.465 147.885 107.667 147.948 107.842C148.013 108.016 148.106 108.153 148.227 108.251C148.35 108.349 148.501 108.397 148.68 108.397ZM153.255 109.277C152.851 109.277 152.503 109.195 152.211 109.031C151.922 108.866 151.698 108.632 151.541 108.331C151.385 108.027 151.306 107.668 151.306 107.254C151.306 106.85 151.385 106.496 151.541 106.191C151.698 105.885 151.919 105.648 152.204 105.477C152.49 105.307 152.826 105.222 153.211 105.222C153.47 105.222 153.711 105.263 153.935 105.347C154.16 105.429 154.356 105.552 154.523 105.718C154.691 105.883 154.823 106.091 154.916 106.341C155.01 106.59 155.057 106.882 155.057 107.216V107.515H151.741V106.84H154.032C154.032 106.683 153.998 106.544 153.93 106.423C153.861 106.302 153.767 106.208 153.646 106.139C153.526 106.07 153.387 106.035 153.229 106.035C153.064 106.035 152.917 106.073 152.789 106.15C152.663 106.225 152.564 106.326 152.493 106.454C152.421 106.58 152.384 106.721 152.383 106.876V107.518C152.383 107.712 152.418 107.88 152.49 108.021C152.563 108.163 152.666 108.272 152.799 108.349C152.932 108.425 153.09 108.464 153.272 108.464C153.393 108.464 153.504 108.447 153.605 108.412C153.705 108.378 153.791 108.327 153.863 108.259C153.935 108.191 153.989 108.107 154.027 108.008L155.034 108.075C154.983 108.317 154.878 108.528 154.72 108.709C154.563 108.888 154.36 109.028 154.111 109.128C153.864 109.227 153.578 109.277 153.255 109.277ZM156.405 109.266C156.236 109.266 156.091 109.207 155.97 109.087C155.851 108.966 155.791 108.822 155.791 108.653C155.791 108.486 155.851 108.343 155.97 108.223C156.091 108.104 156.236 108.044 156.405 108.044C156.568 108.044 156.711 108.104 156.834 108.223C156.957 108.343 157.018 108.486 157.018 108.653C157.018 108.765 156.989 108.868 156.931 108.962C156.875 109.054 156.801 109.128 156.709 109.185C156.617 109.239 156.515 109.266 156.405 109.266ZM157.912 105.273H159.002V109.394C159.002 109.698 158.942 109.943 158.823 110.131C158.703 110.318 158.532 110.455 158.309 110.542C158.087 110.629 157.822 110.673 157.514 110.673C157.476 110.673 157.44 110.672 157.406 110.67C157.37 110.67 157.333 110.669 157.294 110.668V109.816C157.323 109.818 157.348 109.819 157.37 109.819C157.391 109.82 157.413 109.821 157.437 109.821C157.612 109.821 157.735 109.784 157.805 109.709C157.877 109.635 157.912 109.525 157.912 109.376V105.273ZM158.454 104.766C158.294 104.766 158.156 104.713 158.04 104.605C157.924 104.496 157.866 104.366 157.866 104.214C157.866 104.064 157.924 103.935 158.04 103.828C158.156 103.719 158.294 103.664 158.454 103.664C158.618 103.664 158.757 103.719 158.871 103.828C158.987 103.935 159.045 104.064 159.045 104.214C159.045 104.366 158.987 104.496 158.871 104.605C158.757 104.713 158.618 104.766 158.454 104.766ZM163.142 106.393L162.145 106.454C162.128 106.369 162.091 106.292 162.035 106.224C161.978 106.154 161.904 106.099 161.812 106.058C161.722 106.015 161.614 105.994 161.487 105.994C161.319 105.994 161.176 106.029 161.06 106.101C160.945 106.171 160.887 106.265 160.887 106.382C160.887 106.476 160.924 106.555 160.999 106.62C161.074 106.685 161.203 106.737 161.385 106.776L162.096 106.919C162.478 106.998 162.762 107.124 162.95 107.298C163.137 107.472 163.231 107.7 163.231 107.983C163.231 108.24 163.155 108.466 163.004 108.66C162.854 108.855 162.647 109.006 162.385 109.116C162.124 109.223 161.823 109.277 161.482 109.277C160.962 109.277 160.548 109.168 160.24 108.952C159.933 108.734 159.753 108.437 159.7 108.062L160.772 108.006C160.804 108.164 160.882 108.285 161.007 108.369C161.131 108.451 161.291 108.492 161.485 108.492C161.676 108.492 161.829 108.455 161.945 108.382C162.063 108.307 162.122 108.21 162.124 108.093C162.122 107.994 162.081 107.913 161.999 107.85C161.917 107.785 161.791 107.736 161.62 107.702L160.94 107.566C160.557 107.489 160.271 107.356 160.084 107.167C159.898 106.978 159.805 106.737 159.805 106.444C159.805 106.191 159.873 105.974 160.01 105.792C160.148 105.609 160.341 105.469 160.59 105.37C160.841 105.271 161.134 105.222 161.47 105.222C161.966 105.222 162.356 105.326 162.641 105.536C162.927 105.746 163.094 106.031 163.142 106.393Z" fill="white"/>
<rect x="173.3" y="99.5" width="38.4" height="14.4" rx="2.7" fill="#092AD0" fill-opacity="0.56" stroke="#092AD0" stroke-width="0.6"/>
<path d="M179.018 109.2L179.877 103.964H180.696L179.837 109.2H179.018ZM176.674 107.901L176.809 107.083H180.9L180.765 107.901H176.674ZM177.177 109.2L178.037 103.964H178.855L177.996 109.2H177.177ZM176.973 106.081L177.111 105.262H181.202L181.064 106.081H176.973ZM183.397 109.2V103.964H185.463C185.86 103.964 186.198 104.039 186.478 104.191C186.757 104.341 186.97 104.55 187.117 104.818C187.265 105.083 187.34 105.39 187.34 105.738C187.34 106.086 187.265 106.393 187.115 106.658C186.965 106.924 186.747 107.131 186.463 107.28C186.18 107.428 185.837 107.502 185.435 107.502H184.118V106.615H185.256C185.469 106.615 185.644 106.578 185.782 106.505C185.922 106.43 186.026 106.327 186.094 106.196C186.164 106.063 186.199 105.91 186.199 105.738C186.199 105.564 186.164 105.412 186.094 105.283C186.026 105.152 185.922 105.05 185.782 104.979C185.643 104.905 185.465 104.869 185.251 104.869H184.504V109.2H183.397ZM188.711 110.673C188.573 110.673 188.443 110.662 188.322 110.639C188.203 110.619 188.104 110.593 188.025 110.56L188.271 109.747C188.399 109.786 188.514 109.808 188.616 109.811C188.72 109.814 188.809 109.791 188.884 109.739C188.961 109.688 189.023 109.601 189.071 109.479L189.135 109.312L187.726 105.273H188.872L189.685 108.157H189.726L190.546 105.273H191.7L190.173 109.624C190.1 109.836 190 110.02 189.874 110.177C189.75 110.335 189.592 110.457 189.401 110.542C189.21 110.629 188.98 110.673 188.711 110.673ZM194.346 105.273V106.091H191.981V105.273H194.346ZM192.518 104.332H193.607V107.993C193.607 108.094 193.622 108.172 193.653 108.228C193.684 108.283 193.726 108.321 193.781 108.343C193.837 108.366 193.902 108.377 193.975 108.377C194.026 108.377 194.077 108.372 194.129 108.364C194.18 108.354 194.219 108.346 194.246 108.341L194.417 109.151C194.363 109.168 194.286 109.188 194.187 109.21C194.088 109.234 193.968 109.249 193.827 109.254C193.564 109.264 193.334 109.229 193.136 109.149C192.94 109.069 192.788 108.944 192.679 108.776C192.57 108.607 192.516 108.394 192.518 108.136V104.332ZM196.229 106.929V109.2H195.14V103.964H196.198V105.966H196.244C196.333 105.734 196.476 105.552 196.674 105.421C196.872 105.288 197.12 105.222 197.418 105.222C197.691 105.222 197.928 105.281 198.131 105.401C198.336 105.518 198.494 105.688 198.607 105.909C198.721 106.129 198.777 106.393 198.776 106.699V109.2H197.686V106.894C197.688 106.652 197.627 106.463 197.502 106.329C197.38 106.194 197.207 106.127 196.986 106.127C196.837 106.127 196.706 106.158 196.592 106.221C196.48 106.284 196.391 106.376 196.326 106.497C196.263 106.617 196.231 106.761 196.229 106.929ZM201.407 109.277C201.01 109.277 200.667 109.192 200.377 109.024C200.089 108.853 199.866 108.616 199.709 108.313C199.553 108.008 199.474 107.654 199.474 107.252C199.474 106.846 199.553 106.491 199.709 106.188C199.866 105.883 200.089 105.646 200.377 105.477C200.667 105.307 201.01 105.222 201.407 105.222C201.804 105.222 202.147 105.307 202.435 105.477C202.725 105.646 202.948 105.883 203.105 106.188C203.262 106.491 203.34 106.846 203.34 107.252C203.34 107.654 203.262 108.008 203.105 108.313C202.948 108.616 202.725 108.853 202.435 109.024C202.147 109.192 201.804 109.277 201.407 109.277ZM201.412 108.433C201.593 108.433 201.744 108.382 201.865 108.279C201.986 108.176 202.077 108.034 202.138 107.855C202.201 107.676 202.233 107.472 202.233 107.244C202.233 107.016 202.201 106.812 202.138 106.633C202.077 106.454 201.986 106.312 201.865 106.208C201.744 106.104 201.593 106.053 201.412 106.053C201.23 106.053 201.076 106.104 200.952 106.208C200.829 106.312 200.736 106.454 200.673 106.633C200.612 106.812 200.581 107.016 200.581 107.244C200.581 107.472 200.612 107.676 200.673 107.855C200.736 108.034 200.829 108.176 200.952 108.279C201.076 108.382 201.23 108.433 201.412 108.433ZM205.138 106.929V109.2H204.048V105.273H205.086V105.966H205.132C205.219 105.737 205.365 105.556 205.57 105.424C205.774 105.289 206.022 105.222 206.314 105.222C206.586 105.222 206.824 105.281 207.027 105.401C207.23 105.52 207.388 105.69 207.5 105.912C207.613 106.132 207.669 106.394 207.669 106.699V109.2H206.58V106.894C206.581 106.653 206.52 106.466 206.395 106.331C206.271 106.195 206.1 106.127 205.882 106.127C205.735 106.127 205.605 106.158 205.493 106.221C205.382 106.284 205.295 106.376 205.232 106.497C205.171 106.617 205.139 106.761 205.138 106.929Z" fill="white"/>
<rect x="217.7" y="99.5" width="41.4" height="14.4" rx="2.7" fill="#092AD0" fill-opacity="0.56" stroke="#092AD0" stroke-width="0.6"/>
<path d="M224.018 109.2L224.877 103.964H225.696L224.837 109.2H224.018ZM221.674 107.901L221.809 107.083H225.9L225.765 107.901H221.674ZM222.177 109.2L223.037 103.964H223.855L222.996 109.2H222.177ZM221.973 106.081L222.111 105.262H226.202L226.064 106.081H221.973ZM228.397 103.964H229.762L231.204 107.482H231.266L232.708 103.964H234.073V109.2H232.999V105.792H232.956L231.601 109.174H230.869L229.514 105.779H229.471V109.2H228.397V103.964ZM234.678 103.964H235.918L237.112 106.219H237.164L238.358 103.964H239.598L237.688 107.349V109.2H236.588V107.349L234.678 103.964ZM243.043 105.47C243.023 105.263 242.935 105.103 242.78 104.989C242.625 104.875 242.414 104.818 242.148 104.818C241.967 104.818 241.815 104.843 241.69 104.894C241.566 104.944 241.471 105.013 241.404 105.101C241.339 105.19 241.307 105.291 241.307 105.403C241.304 105.497 241.323 105.579 241.366 105.649C241.41 105.718 241.471 105.779 241.547 105.83C241.624 105.879 241.713 105.923 241.813 105.96C241.914 105.996 242.021 106.027 242.135 106.053L242.606 106.165C242.834 106.216 243.044 106.284 243.235 106.37C243.426 106.455 243.591 106.56 243.731 106.684C243.871 106.808 243.979 106.955 244.056 107.124C244.134 107.293 244.174 107.486 244.176 107.704C244.174 108.025 244.092 108.303 243.93 108.538C243.77 108.771 243.538 108.953 243.235 109.082C242.933 109.21 242.569 109.274 242.143 109.274C241.72 109.274 241.352 109.209 241.038 109.08C240.727 108.95 240.483 108.758 240.307 108.504C240.133 108.249 240.042 107.933 240.034 107.556H241.105C241.117 107.731 241.167 107.878 241.256 107.996C241.346 108.112 241.466 108.199 241.616 108.259C241.768 108.317 241.939 108.346 242.13 108.346C242.318 108.346 242.481 108.319 242.619 108.264C242.758 108.21 242.867 108.134 242.943 108.037C243.02 107.939 243.058 107.828 243.058 107.702C243.058 107.584 243.023 107.485 242.954 107.405C242.885 107.325 242.785 107.257 242.652 107.201C242.521 107.144 242.359 107.093 242.169 107.047L241.598 106.904C241.157 106.797 240.808 106.629 240.553 106.4C240.297 106.172 240.17 105.864 240.172 105.477C240.17 105.16 240.254 104.883 240.425 104.646C240.597 104.409 240.833 104.224 241.133 104.091C241.433 103.958 241.774 103.892 242.156 103.892C242.544 103.892 242.884 103.958 243.173 104.091C243.465 104.224 243.692 104.409 243.854 104.646C244.015 104.883 244.099 105.158 244.104 105.47H243.043ZM246.897 107.379H247.838L248.311 107.988L248.776 108.53L249.653 109.629H248.62L248.017 108.888L247.707 108.448L246.897 107.379ZM249.732 106.582C249.732 107.153 249.624 107.639 249.408 108.039C249.193 108.44 248.9 108.746 248.528 108.957C248.158 109.167 247.742 109.272 247.28 109.272C246.815 109.272 246.397 109.166 246.027 108.954C245.658 108.743 245.365 108.437 245.15 108.037C244.936 107.636 244.828 107.151 244.828 106.582C244.828 106.011 244.936 105.525 245.15 105.124C245.365 104.724 245.658 104.419 246.027 104.209C246.397 103.998 246.815 103.892 247.28 103.892C247.742 103.892 248.158 103.998 248.528 104.209C248.9 104.419 249.193 104.724 249.408 105.124C249.624 105.525 249.732 106.011 249.732 106.582ZM248.61 106.582C248.61 106.212 248.554 105.9 248.444 105.646C248.335 105.392 248.18 105.199 247.981 105.068C247.781 104.937 247.548 104.871 247.28 104.871C247.013 104.871 246.779 104.937 246.58 105.068C246.38 105.199 246.225 105.392 246.114 105.646C246.005 105.9 245.951 106.212 245.951 106.582C245.951 106.952 246.005 107.264 246.114 107.518C246.225 107.772 246.38 107.964 246.58 108.095C246.779 108.227 247.013 108.292 247.28 108.292C247.548 108.292 247.781 108.227 247.981 108.095C248.18 107.964 248.335 107.772 248.444 107.518C248.554 107.264 248.61 106.952 248.61 106.582ZM250.552 109.2V103.964H251.659V108.287H253.904V109.2H250.552Z" fill="white"/>
</g>
<defs>
<filter id="filter0_d_799_1347" x="0" y="0" width="400" height="181" filterUnits="userSpaceOnUse" color-interpolation-filters="sRGB">
<feFlood flood-opacity="0" result="BackgroundImageFix"/>
<feColorMatrix in="SourceAlpha" type="matrix" values="0 0 0 0 0 0 0 0 0 0 0 0 0 0 0 0 0 0 127 0" result="hardAlpha"/>
<feOffset/>
<feGaussianBlur stdDeviation="25"/>
<feComposite in2="hardAlpha" operator="out"/>
<feColorMatrix type="matrix" values="0 0 0 0 0 0 0 0 0 0 0 0 0 0 0 0 0 0 0.09 0"/>
<feBlend mode="normal" in2="BackgroundImageFix" result="effect1_dropShadow_799_1347"/>
<feBlend mode="normal" in="SourceGraphic" in2="effect1_dropShadow_799_1347" result="shape"/>
</filter>
</defs>
</svg>
