<svg width="475" height="202" viewBox="0 0 475 202" fill="none" xmlns="http://www.w3.org/2000/svg">
<g filter="url(#filter0_d_799_1297)">
<rect x="50" y="50" width="375" height="101.25" rx="26.25" fill="white"/>
<circle cx="106.25" cy="100.25" r="30" fill="#C4C4C4"/>
<rect x="92.75" y="104" width="27" height="15" rx="3.75" fill="white"/>
<circle cx="105.875" cy="91.625" r="9.375" fill="white"/>
<path d="M150.065 88H146.198V77.0909H150.097C151.195 77.0909 152.139 77.3093 152.931 77.7461C153.723 78.1793 154.332 78.8026 154.758 79.6158C155.188 80.429 155.403 81.402 155.403 82.5348C155.403 83.6712 155.188 84.6477 154.758 85.4645C154.332 86.2812 153.719 86.908 152.92 87.3448C152.125 87.7816 151.173 88 150.065 88ZM148.505 86.0238H149.969C150.651 86.0238 151.225 85.9031 151.69 85.6616C152.159 85.4165 152.51 85.0384 152.745 84.527C152.983 84.0121 153.102 83.348 153.102 82.5348C153.102 81.7287 152.983 81.07 152.745 80.5586C152.51 80.0472 152.161 79.6708 151.695 79.4293C151.23 79.1879 150.657 79.0671 149.975 79.0671H148.505V86.0238ZM159.402 88.1545C158.88 88.1545 158.415 88.0639 158.006 87.8828C157.598 87.6982 157.275 87.4265 157.037 87.0678C156.802 86.7056 156.685 86.2546 156.685 85.7148C156.685 85.2603 156.769 84.8786 156.935 84.5696C157.102 84.2607 157.33 84.0121 157.617 83.8239C157.905 83.6357 158.232 83.4936 158.597 83.3977C158.967 83.3018 159.354 83.2344 159.759 83.1953C160.234 83.1456 160.618 83.0994 160.909 83.0568C161.2 83.0107 161.412 82.9432 161.543 82.8544C161.674 82.7656 161.74 82.6342 161.74 82.4602V82.4283C161.74 82.0909 161.634 81.8299 161.421 81.6452C161.211 81.4606 160.913 81.3683 160.526 81.3683C160.117 81.3683 159.792 81.4588 159.551 81.6399C159.309 81.8175 159.15 82.0412 159.071 82.3111L156.973 82.1406C157.079 81.6435 157.289 81.2138 157.601 80.8516C157.914 80.4858 158.317 80.2053 158.81 80.0099C159.308 79.8111 159.883 79.7116 160.536 79.7116C160.991 79.7116 161.426 79.7649 161.841 79.8714C162.26 79.978 162.631 80.1431 162.955 80.3668C163.281 80.5906 163.539 80.8782 163.727 81.2298C163.915 81.5778 164.009 81.995 164.009 82.4815V88H161.857V86.8654H161.793C161.662 87.1211 161.486 87.3466 161.266 87.5419C161.046 87.7337 160.781 87.8846 160.472 87.9947C160.163 88.1012 159.807 88.1545 159.402 88.1545ZM160.052 86.5884C160.385 86.5884 160.68 86.5227 160.936 86.3913C161.191 86.2564 161.392 86.0753 161.538 85.848C161.683 85.6207 161.756 85.3633 161.756 85.0756V84.2074C161.685 84.2536 161.587 84.2962 161.463 84.3352C161.342 84.3707 161.206 84.4045 161.053 84.4364C160.9 84.4648 160.748 84.4915 160.595 84.5163C160.442 84.5376 160.304 84.5572 160.179 84.5749C159.913 84.614 159.68 84.6761 159.482 84.7614C159.283 84.8466 159.128 84.962 159.018 85.1076C158.908 85.2496 158.853 85.4272 158.853 85.6403C158.853 85.9492 158.965 86.1854 159.189 86.3487C159.416 86.5085 159.704 86.5884 160.052 86.5884ZM173.105 79.8182L170.244 88H167.687L164.827 79.8182H167.224L168.923 85.6722H169.008L170.702 79.8182H173.105ZM174.266 88V79.8182H176.535V88H174.266ZM175.406 78.7635C175.068 78.7635 174.779 78.6516 174.538 78.4279C174.3 78.2006 174.181 77.929 174.181 77.6129C174.181 77.3004 174.3 77.0323 174.538 76.8086C174.779 76.5813 175.068 76.4677 175.406 76.4677C175.743 76.4677 176.031 76.5813 176.269 76.8086C176.51 77.0323 176.631 77.3004 176.631 77.6129C176.631 77.929 176.51 78.2006 176.269 78.4279C176.031 78.6516 175.743 78.7635 175.406 78.7635ZM181.368 88.1332C180.746 88.1332 180.183 87.9734 179.679 87.6538C179.178 87.3306 178.781 86.8565 178.486 86.2315C178.195 85.603 178.049 84.8324 178.049 83.9197C178.049 82.9822 178.2 82.2028 178.502 81.5813C178.804 80.9563 179.205 80.4893 179.706 80.1804C180.21 79.8679 180.762 79.7116 181.362 79.7116C181.82 79.7116 182.202 79.7898 182.508 79.946C182.817 80.0987 183.065 80.2905 183.253 80.5213C183.445 80.7486 183.591 80.9723 183.69 81.1925H183.759V77.0909H186.023V88H183.786V86.6896H183.69C183.584 86.9169 183.433 87.1424 183.237 87.3661C183.046 87.5863 182.795 87.7692 182.486 87.9148C182.181 88.0604 181.808 88.1332 181.368 88.1332ZM182.087 86.3274C182.453 86.3274 182.762 86.228 183.014 86.0291C183.269 85.8267 183.465 85.5444 183.6 85.1822C183.738 84.82 183.807 84.3956 183.807 83.9091C183.807 83.4226 183.74 83 183.605 82.6413C183.47 82.2827 183.275 82.0057 183.019 81.8104C182.763 81.6151 182.453 81.5174 182.087 81.5174C181.714 81.5174 181.4 81.6186 181.144 81.821C180.888 82.0234 180.695 82.304 180.563 82.6626C180.432 83.0213 180.366 83.4368 180.366 83.9091C180.366 84.3849 180.432 84.8058 180.563 85.1715C180.698 85.5337 180.892 85.8178 181.144 86.0238C181.4 86.2262 181.714 86.3274 182.087 86.3274ZM191.403 77.0909H194.248L197.252 84.4205H197.38L200.384 77.0909H203.229V88H200.991V80.8995H200.901L198.078 87.9467H196.554L193.731 80.8729H193.64V88H191.403V77.0909ZM207.419 88.1545C206.897 88.1545 206.432 88.0639 206.024 87.8828C205.615 87.6982 205.292 87.4265 205.054 87.0678C204.82 86.7056 204.703 86.2546 204.703 85.7148C204.703 85.2603 204.786 84.8786 204.953 84.5696C205.12 84.2607 205.347 84.0121 205.635 83.8239C205.922 83.6357 206.249 83.4936 206.615 83.3977C206.984 83.3018 207.371 83.2344 207.776 83.1953C208.252 83.1456 208.636 83.0994 208.927 83.0568C209.218 83.0107 209.429 82.9432 209.561 82.8544C209.692 82.7656 209.758 82.6342 209.758 82.4602V82.4283C209.758 82.0909 209.651 81.8299 209.438 81.6452C209.229 81.4606 208.93 81.3683 208.543 81.3683C208.135 81.3683 207.81 81.4588 207.568 81.6399C207.327 81.8175 207.167 82.0412 207.089 82.3111L204.99 82.1406C205.097 81.6435 205.306 81.2138 205.619 80.8516C205.931 80.4858 206.334 80.2053 206.828 80.0099C207.325 79.8111 207.9 79.7116 208.554 79.7116C209.008 79.7116 209.443 79.7649 209.859 79.8714C210.278 79.978 210.649 80.1431 210.972 80.3668C211.299 80.5906 211.556 80.8782 211.745 81.2298C211.933 81.5778 212.027 81.995 212.027 82.4815V88H209.875V86.8654H209.811C209.68 87.1211 209.504 87.3466 209.284 87.5419C209.063 87.7337 208.799 87.8846 208.49 87.9947C208.181 88.1012 207.824 88.1545 207.419 88.1545ZM208.069 86.5884C208.403 86.5884 208.698 86.5227 208.953 86.3913C209.209 86.2564 209.41 86.0753 209.555 85.848C209.701 85.6207 209.774 85.3633 209.774 85.0756V84.2074C209.703 84.2536 209.605 84.2962 209.481 84.3352C209.36 84.3707 209.223 84.4045 209.071 84.4364C208.918 84.4648 208.765 84.4915 208.612 84.5163C208.46 84.5376 208.321 84.5572 208.197 84.5749C207.931 84.614 207.698 84.6761 207.499 84.7614C207.3 84.8466 207.146 84.962 207.036 85.1076C206.926 85.2496 206.871 85.4272 206.871 85.6403C206.871 85.9492 206.983 86.1854 207.206 86.3487C207.434 86.5085 207.721 86.5884 208.069 86.5884ZM213.787 88V79.8182H215.987V81.2457H216.073C216.222 80.7379 216.472 80.3544 216.824 80.0952C217.175 79.8324 217.58 79.701 218.038 79.701C218.152 79.701 218.274 79.7081 218.406 79.7223C218.537 79.7365 218.652 79.756 218.752 79.7809V81.7944C218.645 81.7624 218.498 81.734 218.31 81.7092C218.122 81.6843 217.949 81.6719 217.793 81.6719C217.459 81.6719 217.161 81.7447 216.898 81.8903C216.639 82.0323 216.433 82.2312 216.28 82.4869C216.131 82.7425 216.057 83.0373 216.057 83.3711V88H213.787ZM224.687 79.8182V81.5227H219.76V79.8182H224.687ZM220.879 77.858H223.148V85.4858C223.148 85.6953 223.18 85.8587 223.244 85.9759C223.308 86.0895 223.396 86.1694 223.51 86.2156C223.627 86.2617 223.762 86.2848 223.915 86.2848C224.021 86.2848 224.128 86.2759 224.234 86.2582C224.341 86.2369 224.423 86.2209 224.479 86.2102L224.836 87.8988C224.723 87.9343 224.563 87.9751 224.357 88.0213C224.151 88.071 223.901 88.1012 223.606 88.1119C223.059 88.1332 222.58 88.0604 222.168 87.8935C221.759 87.7266 221.441 87.4673 221.214 87.1158C220.987 86.7642 220.875 86.3203 220.879 85.7841V77.858ZM226.165 88V79.8182H228.434V88H226.165ZM227.305 78.7635C226.968 78.7635 226.678 78.6516 226.437 78.4279C226.199 78.2006 226.08 77.929 226.08 77.6129C226.08 77.3004 226.199 77.0323 226.437 76.8086C226.678 76.5813 226.968 76.4677 227.305 76.4677C227.643 76.4677 227.93 76.5813 228.168 76.8086C228.41 77.0323 228.53 77.3004 228.53 77.6129C228.53 77.929 228.41 78.2006 228.168 78.4279C227.93 78.6516 227.643 78.7635 227.305 78.7635ZM232.521 83.2699V88H230.252V79.8182H232.415V81.2617H232.511C232.692 80.7859 232.995 80.4094 233.422 80.1325C233.848 79.8519 234.364 79.7116 234.972 79.7116C235.54 79.7116 236.035 79.8359 236.458 80.0845C236.88 80.3331 237.209 80.6882 237.443 81.1499C237.678 81.608 237.795 82.1548 237.795 82.7905V88H235.526V83.1953C235.529 82.6946 235.401 82.304 235.142 82.0234C234.883 81.7393 234.526 81.5973 234.071 81.5973C233.766 81.5973 233.496 81.663 233.262 81.7944C233.031 81.9258 232.85 82.1175 232.718 82.3697C232.591 82.6183 232.525 82.9183 232.521 83.2699Z" fill="black"/>
<path d="M150.743 98.5327C150.709 98.1889 150.563 97.9219 150.304 97.7315C150.045 97.5412 149.695 97.446 149.251 97.446C148.95 97.446 148.696 97.4886 148.489 97.5739C148.281 97.6562 148.122 97.7713 148.011 97.919C147.903 98.0668 147.849 98.2344 147.849 98.4219C147.844 98.5781 147.876 98.7145 147.947 98.831C148.021 98.9474 148.122 99.0483 148.25 99.1335C148.378 99.2159 148.526 99.2884 148.693 99.3509C148.861 99.4105 149.04 99.4616 149.23 99.5043L150.014 99.6918C150.395 99.777 150.744 99.8906 151.062 100.033C151.381 100.175 151.656 100.349 151.889 100.557C152.122 100.764 152.303 101.009 152.43 101.29C152.561 101.571 152.628 101.893 152.631 102.257C152.628 102.791 152.491 103.254 152.222 103.646C151.955 104.036 151.568 104.338 151.062 104.554C150.56 104.767 149.953 104.874 149.243 104.874C148.538 104.874 147.925 104.766 147.402 104.55C146.882 104.334 146.476 104.014 146.183 103.591C145.893 103.165 145.741 102.638 145.727 102.01H147.513C147.533 102.303 147.616 102.547 147.764 102.743C147.915 102.936 148.115 103.082 148.365 103.182C148.618 103.278 148.903 103.327 149.222 103.327C149.534 103.327 149.805 103.281 150.036 103.19C150.268 103.099 150.449 102.973 150.577 102.811C150.705 102.649 150.768 102.463 150.768 102.253C150.768 102.057 150.71 101.892 150.594 101.759C150.48 101.625 150.313 101.511 150.091 101.418C149.872 101.324 149.604 101.239 149.286 101.162L148.335 100.923C147.599 100.744 147.018 100.464 146.592 100.084C146.166 99.7031 145.955 99.1903 145.957 98.5455C145.955 98.017 146.095 97.5554 146.379 97.1605C146.666 96.7656 147.06 96.4574 147.56 96.2358C148.06 96.0142 148.628 95.9034 149.264 95.9034C149.912 95.9034 150.477 96.0142 150.96 96.2358C151.446 96.4574 151.824 96.7656 152.094 97.1605C152.364 97.5554 152.503 98.0128 152.511 98.5327H150.743ZM156.795 104.878C156.133 104.878 155.561 104.737 155.078 104.456C154.598 104.172 154.227 103.777 153.966 103.271C153.704 102.763 153.574 102.173 153.574 101.503C153.574 100.827 153.704 100.236 153.966 99.7301C154.227 99.2216 154.598 98.8267 155.078 98.5455C155.561 98.2614 156.133 98.1193 156.795 98.1193C157.457 98.1193 158.028 98.2614 158.508 98.5455C158.991 98.8267 159.363 99.2216 159.625 99.7301C159.886 100.236 160.017 100.827 160.017 101.503C160.017 102.173 159.886 102.763 159.625 103.271C159.363 103.777 158.991 104.172 158.508 104.456C158.028 104.737 157.457 104.878 156.795 104.878ZM156.804 103.472C157.105 103.472 157.356 103.386 157.558 103.216C157.76 103.043 157.912 102.807 158.014 102.509C158.119 102.21 158.172 101.871 158.172 101.49C158.172 101.109 158.119 100.77 158.014 100.472C157.912 100.173 157.76 99.9375 157.558 99.7642C157.356 99.5909 157.105 99.5043 156.804 99.5043C156.5 99.5043 156.244 99.5909 156.037 99.7642C155.832 99.9375 155.677 100.173 155.572 100.472C155.47 100.77 155.419 101.109 155.419 101.49C155.419 101.871 155.47 102.21 155.572 102.509C155.677 102.807 155.832 103.043 156.037 103.216C156.244 103.386 156.5 103.472 156.804 103.472ZM164.717 98.2045V99.5682H160.677V98.2045H164.717ZM161.602 104.75V97.7315C161.602 97.2571 161.694 96.8636 161.879 96.5511C162.066 96.2386 162.322 96.0043 162.646 95.848C162.97 95.6918 163.338 95.6136 163.75 95.6136C164.028 95.6136 164.282 95.6349 164.512 95.6776C164.745 95.7202 164.919 95.7585 165.032 95.7926L164.708 97.1562C164.637 97.1335 164.549 97.1122 164.444 97.0923C164.342 97.0724 164.237 97.0625 164.129 97.0625C163.862 97.0625 163.676 97.125 163.571 97.25C163.466 97.3722 163.413 97.544 163.413 97.7656V104.75H161.602ZM169.308 98.2045V99.5682H165.366V98.2045H169.308ZM166.261 96.6364H168.076V102.739C168.076 102.906 168.102 103.037 168.153 103.131C168.204 103.222 168.275 103.286 168.366 103.322C168.46 103.359 168.567 103.378 168.69 103.378C168.775 103.378 168.86 103.371 168.945 103.357C169.031 103.339 169.096 103.327 169.141 103.318L169.427 104.669C169.336 104.697 169.208 104.73 169.043 104.767C168.879 104.807 168.678 104.831 168.442 104.839C168.005 104.857 167.621 104.798 167.292 104.665C166.965 104.531 166.711 104.324 166.529 104.043C166.347 103.761 166.258 103.406 166.261 102.977V96.6364ZM171.781 104.75L170 98.2045H171.837L172.851 102.602H172.911L173.967 98.2045H175.77L176.844 102.577H176.899L177.896 98.2045H179.729L177.952 104.75H176.03L174.905 100.634H174.824L173.699 104.75H171.781ZM182.564 104.874C182.146 104.874 181.774 104.801 181.447 104.656C181.12 104.509 180.862 104.291 180.672 104.004C180.484 103.714 180.39 103.354 180.39 102.922C180.39 102.558 180.457 102.253 180.591 102.006C180.724 101.759 180.906 101.56 181.136 101.409C181.366 101.259 181.627 101.145 181.92 101.068C182.216 100.991 182.525 100.938 182.849 100.906C183.23 100.866 183.537 100.83 183.77 100.795C184.002 100.759 184.172 100.705 184.277 100.634C184.382 100.562 184.434 100.457 184.434 100.318V100.293C184.434 100.023 184.349 99.8139 184.179 99.6662C184.011 99.5185 183.772 99.4446 183.463 99.4446C183.136 99.4446 182.876 99.517 182.683 99.6619C182.49 99.804 182.362 99.983 182.299 100.199L180.62 100.062C180.706 99.6648 180.873 99.321 181.123 99.0312C181.373 98.7386 181.696 98.5142 182.091 98.358C182.488 98.1989 182.949 98.1193 183.471 98.1193C183.835 98.1193 184.183 98.1619 184.515 98.2472C184.85 98.3324 185.147 98.4645 185.406 98.6435C185.667 98.8224 185.873 99.0526 186.024 99.3338C186.174 99.6122 186.25 99.946 186.25 100.335V104.75H184.528V103.842H184.477C184.372 104.047 184.231 104.227 184.055 104.384C183.879 104.537 183.667 104.658 183.42 104.746C183.173 104.831 182.887 104.874 182.564 104.874ZM183.083 103.621C183.35 103.621 183.586 103.568 183.791 103.463C183.995 103.355 184.156 103.21 184.272 103.028C184.389 102.847 184.447 102.641 184.447 102.411V101.716C184.39 101.753 184.312 101.787 184.213 101.818C184.116 101.847 184.007 101.874 183.885 101.899C183.762 101.922 183.64 101.943 183.518 101.963C183.396 101.98 183.285 101.996 183.186 102.01C182.973 102.041 182.787 102.091 182.627 102.159C182.468 102.227 182.345 102.32 182.257 102.436C182.169 102.55 182.125 102.692 182.125 102.862C182.125 103.109 182.214 103.298 182.393 103.429C182.575 103.557 182.805 103.621 183.083 103.621ZM187.658 104.75V98.2045H189.418V99.3466H189.486C189.605 98.9403 189.806 98.6335 190.087 98.4261C190.368 98.2159 190.692 98.1108 191.059 98.1108C191.15 98.1108 191.248 98.1165 191.353 98.1278C191.458 98.1392 191.55 98.1548 191.63 98.1747V99.7855C191.544 99.7599 191.426 99.7372 191.276 99.7173C191.125 99.6974 190.988 99.6875 190.863 99.6875C190.596 99.6875 190.357 99.7457 190.147 99.8622C189.939 99.9759 189.775 100.135 189.652 100.339C189.533 100.544 189.473 100.78 189.473 101.047V104.75H187.658ZM195.246 104.878C194.573 104.878 193.994 104.741 193.508 104.469C193.025 104.193 192.653 103.804 192.391 103.301C192.13 102.795 191.999 102.197 191.999 101.507C191.999 100.834 192.13 100.243 192.391 99.7344C192.653 99.2259 193.021 98.8295 193.495 98.5455C193.972 98.2614 194.532 98.1193 195.174 98.1193C195.606 98.1193 196.008 98.1889 196.38 98.3281C196.755 98.4645 197.082 98.6705 197.36 98.946C197.641 99.2216 197.86 99.5682 198.016 99.9858C198.173 100.401 198.251 100.886 198.251 101.443V101.942H192.724V100.817H196.542C196.542 100.555 196.485 100.324 196.371 100.122C196.258 99.9205 196.1 99.7628 195.898 99.6491C195.7 99.5327 195.468 99.4744 195.204 99.4744C194.928 99.4744 194.684 99.5384 194.471 99.6662C194.261 99.7912 194.096 99.9602 193.977 100.173C193.857 100.384 193.796 100.618 193.793 100.876V101.946C193.793 102.27 193.853 102.55 193.972 102.786C194.094 103.021 194.266 103.203 194.488 103.331C194.71 103.459 194.972 103.523 195.276 103.523C195.478 103.523 195.663 103.494 195.83 103.438C195.998 103.381 196.141 103.295 196.261 103.182C196.38 103.068 196.471 102.929 196.533 102.764L198.212 102.875C198.127 103.278 197.952 103.631 197.688 103.932C197.427 104.23 197.089 104.463 196.674 104.631C196.262 104.795 195.786 104.878 195.246 104.878ZM202.247 104.75V96.0227H208.127V97.544H204.092V99.6236H207.825V101.145H204.092V103.229H208.145V104.75H202.247ZM211.376 100.966V104.75H209.56V98.2045H211.29V99.3594H211.367C211.512 98.9787 211.755 98.6776 212.096 98.456C212.437 98.2315 212.85 98.1193 213.336 98.1193C213.79 98.1193 214.187 98.2188 214.525 98.4176C214.863 98.6165 215.126 98.9006 215.313 99.2699C215.501 99.6364 215.594 100.074 215.594 100.582V104.75H213.779V100.906C213.782 100.506 213.68 100.193 213.472 99.9688C213.265 99.7415 212.979 99.6278 212.616 99.6278C212.371 99.6278 212.156 99.6804 211.968 99.7855C211.783 99.8906 211.638 100.044 211.533 100.246C211.431 100.445 211.379 100.685 211.376 100.966ZM219.974 107.341C219.386 107.341 218.882 107.26 218.461 107.098C218.044 106.939 217.711 106.722 217.464 106.446C217.217 106.17 217.056 105.861 216.983 105.517L218.662 105.291C218.713 105.422 218.794 105.544 218.904 105.658C219.015 105.771 219.162 105.862 219.343 105.93C219.528 106.001 219.752 106.037 220.017 106.037C220.412 106.037 220.737 105.94 220.993 105.747C221.251 105.557 221.38 105.237 221.38 104.788V103.591H221.304C221.224 103.773 221.105 103.945 220.946 104.107C220.787 104.268 220.582 104.401 220.332 104.503C220.082 104.605 219.784 104.656 219.437 104.656C218.946 104.656 218.498 104.543 218.095 104.315C217.694 104.085 217.375 103.734 217.136 103.263C216.9 102.788 216.782 102.189 216.782 101.464C216.782 100.723 216.903 100.104 217.145 99.6065C217.386 99.1094 217.707 98.7372 218.108 98.4901C218.511 98.2429 218.953 98.1193 219.433 98.1193C219.799 98.1193 220.106 98.1818 220.353 98.3068C220.6 98.429 220.799 98.5824 220.95 98.767C221.103 98.9489 221.221 99.1278 221.304 99.304H221.372V98.2045H223.174V104.814C223.174 105.371 223.038 105.837 222.765 106.212C222.493 106.587 222.115 106.868 221.632 107.055C221.152 107.246 220.599 107.341 219.974 107.341ZM220.012 103.293C220.305 103.293 220.552 103.22 220.754 103.075C220.958 102.928 221.115 102.717 221.223 102.445C221.333 102.169 221.389 101.839 221.389 101.456C221.389 101.072 221.335 100.74 221.227 100.459C221.119 100.175 220.963 99.9545 220.758 99.7983C220.554 99.642 220.305 99.5639 220.012 99.5639C219.714 99.5639 219.463 99.6449 219.258 99.8068C219.054 99.9659 218.899 100.187 218.794 100.472C218.689 100.756 218.636 101.084 218.636 101.456C218.636 101.834 218.689 102.161 218.794 102.436C218.902 102.709 219.056 102.92 219.258 103.071C219.463 103.219 219.714 103.293 220.012 103.293ZM224.619 104.75V98.2045H226.434V104.75H224.619ZM225.531 97.3608C225.261 97.3608 225.029 97.2713 224.836 97.0923C224.646 96.9105 224.551 96.6932 224.551 96.4403C224.551 96.1903 224.646 95.9759 224.836 95.7969C225.029 95.6151 225.261 95.5241 225.531 95.5241C225.801 95.5241 226.031 95.6151 226.221 95.7969C226.414 95.9759 226.511 96.1903 226.511 96.4403C226.511 96.6932 226.414 96.9105 226.221 97.0923C226.031 97.2713 225.801 97.3608 225.531 97.3608ZM229.704 100.966V104.75H227.888V98.2045H229.619V99.3594H229.695C229.84 98.9787 230.083 98.6776 230.424 98.456C230.765 98.2315 231.178 98.1193 231.664 98.1193C232.119 98.1193 232.515 98.2188 232.853 98.4176C233.191 98.6165 233.454 98.9006 233.641 99.2699C233.829 99.6364 233.923 100.074 233.923 100.582V104.75H232.107V100.906C232.11 100.506 232.008 100.193 231.8 99.9688C231.593 99.7415 231.308 99.6278 230.944 99.6278C230.7 99.6278 230.484 99.6804 230.296 99.7855C230.112 99.8906 229.967 100.044 229.862 100.246C229.759 100.445 229.707 100.685 229.704 100.966ZM238.336 104.878C237.663 104.878 237.083 104.741 236.598 104.469C236.115 104.193 235.743 103.804 235.481 103.301C235.22 102.795 235.089 102.197 235.089 101.507C235.089 100.834 235.22 100.243 235.481 99.7344C235.743 99.2259 236.11 98.8295 236.585 98.5455C237.062 98.2614 237.622 98.1193 238.264 98.1193C238.696 98.1193 239.098 98.1889 239.47 98.3281C239.845 98.4645 240.172 98.6705 240.45 98.946C240.731 99.2216 240.95 99.5682 241.106 99.9858C241.262 100.401 241.341 100.886 241.341 101.443V101.942H235.814V100.817H239.632C239.632 100.555 239.575 100.324 239.461 100.122C239.348 99.9205 239.19 99.7628 238.988 99.6491C238.789 99.5327 238.558 99.4744 238.294 99.4744C238.018 99.4744 237.774 99.5384 237.561 99.6662C237.35 99.7912 237.186 99.9602 237.066 100.173C236.947 100.384 236.886 100.618 236.883 100.876V101.946C236.883 102.27 236.943 102.55 237.062 102.786C237.184 103.021 237.356 103.203 237.578 103.331C237.799 103.459 238.062 103.523 238.366 103.523C238.568 103.523 238.752 103.494 238.92 103.438C239.088 103.381 239.231 103.295 239.35 103.182C239.47 103.068 239.561 102.929 239.623 102.764L241.302 102.875C241.217 103.278 241.042 103.631 240.778 103.932C240.517 104.23 240.179 104.463 239.764 104.631C239.352 104.795 238.876 104.878 238.336 104.878ZM245.508 104.878C244.835 104.878 244.255 104.741 243.77 104.469C243.287 104.193 242.914 103.804 242.653 103.301C242.392 102.795 242.261 102.197 242.261 101.507C242.261 100.834 242.392 100.243 242.653 99.7344C242.914 99.2259 243.282 98.8295 243.757 98.5455C244.234 98.2614 244.794 98.1193 245.436 98.1193C245.868 98.1193 246.27 98.1889 246.642 98.3281C247.017 98.4645 247.343 98.6705 247.622 98.946C247.903 99.2216 248.122 99.5682 248.278 99.9858C248.434 100.401 248.512 100.886 248.512 101.443V101.942H242.985V100.817H246.804C246.804 100.555 246.747 100.324 246.633 100.122C246.52 99.9205 246.362 99.7628 246.16 99.6491C245.961 99.5327 245.73 99.4744 245.466 99.4744C245.19 99.4744 244.946 99.5384 244.733 99.6662C244.522 99.7912 244.358 99.9602 244.238 100.173C244.119 100.384 244.058 100.618 244.055 100.876V101.946C244.055 102.27 244.115 102.55 244.234 102.786C244.356 103.021 244.528 103.203 244.75 103.331C244.971 103.459 245.234 103.523 245.538 103.523C245.74 103.523 245.924 103.494 246.092 103.438C246.26 103.381 246.403 103.295 246.522 103.182C246.642 103.068 246.733 102.929 246.795 102.764L248.474 102.875C248.389 103.278 248.214 103.631 247.95 103.932C247.689 104.23 247.35 104.463 246.936 104.631C246.524 104.795 246.048 104.878 245.508 104.878ZM249.697 104.75V98.2045H251.457V99.3466H251.525C251.645 98.9403 251.845 98.6335 252.126 98.4261C252.407 98.2159 252.731 98.1108 253.098 98.1108C253.189 98.1108 253.287 98.1165 253.392 98.1278C253.497 98.1392 253.589 98.1548 253.669 98.1747V99.7855C253.583 99.7599 253.466 99.7372 253.315 99.7173C253.164 99.6974 253.027 99.6875 252.902 99.6875C252.635 99.6875 252.396 99.7457 252.186 99.8622C251.978 99.9759 251.814 100.135 251.691 100.339C251.572 100.544 251.512 100.78 251.512 101.047V104.75H249.697Z" fill="#092AD0"/>
<rect x="145.625" y="111.875" width="44.25" height="18" rx="3.375" fill="#092AD0" fill-opacity="0.56" stroke="#092AD0" stroke-width="0.75"/>
<path d="M153.523 124.25L154.597 117.705H155.62L154.546 124.25H153.523ZM150.593 122.626L150.762 121.604H155.876L155.706 122.626H150.593ZM151.222 124.25L152.296 117.705H153.319L152.245 124.25H151.222ZM150.967 120.351L151.139 119.328H156.253L156.08 120.351H150.967ZM158.997 124.25V117.705H161.579C162.073 117.705 162.495 117.793 162.845 117.97C163.196 118.145 163.464 118.393 163.647 118.714C163.832 119.034 163.925 119.41 163.925 119.843C163.925 120.277 163.831 120.651 163.644 120.964C163.456 121.276 163.184 121.514 162.829 121.68C162.475 121.847 162.047 121.93 161.544 121.93H159.815V120.817H161.32C161.584 120.817 161.804 120.781 161.979 120.709C162.153 120.636 162.283 120.528 162.368 120.383C162.456 120.238 162.499 120.058 162.499 119.843C162.499 119.625 162.456 119.442 162.368 119.293C162.283 119.144 162.152 119.031 161.975 118.954C161.801 118.875 161.58 118.836 161.314 118.836H160.381V124.25H158.997ZM162.531 121.271L164.158 124.25H162.631L161.039 121.271H162.531ZM167.035 124.346C166.53 124.346 166.096 124.244 165.731 124.039C165.369 123.832 165.09 123.54 164.894 123.163C164.698 122.784 164.6 122.336 164.6 121.818C164.6 121.313 164.698 120.87 164.894 120.488C165.09 120.107 165.366 119.81 165.722 119.597C166.08 119.384 166.5 119.277 166.981 119.277C167.305 119.277 167.606 119.329 167.886 119.434C168.167 119.536 168.412 119.69 168.621 119.897C168.832 120.104 168.996 120.364 169.113 120.677C169.23 120.988 169.289 121.352 169.289 121.77V122.144H165.143V121.3H168.007C168.007 121.104 167.964 120.93 167.879 120.779C167.794 120.628 167.676 120.51 167.524 120.424C167.375 120.337 167.202 120.293 167.003 120.293C166.797 120.293 166.614 120.341 166.454 120.437C166.296 120.531 166.172 120.658 166.083 120.817C165.994 120.975 165.948 121.151 165.946 121.345V122.147C165.946 122.39 165.99 122.6 166.08 122.777C166.171 122.953 166.3 123.09 166.467 123.186C166.633 123.282 166.83 123.33 167.058 123.33C167.209 123.33 167.348 123.308 167.473 123.266C167.599 123.223 167.707 123.159 167.796 123.074C167.886 122.989 167.954 122.884 168.001 122.761L169.26 122.844C169.196 123.146 169.065 123.411 168.867 123.636C168.671 123.86 168.417 124.035 168.106 124.161C167.797 124.284 167.44 124.346 167.035 124.346ZM171.577 124.343C171.264 124.343 170.985 124.288 170.74 124.18C170.495 124.069 170.301 123.906 170.158 123.691C170.017 123.473 169.947 123.203 169.947 122.879C169.947 122.606 169.997 122.377 170.097 122.192C170.197 122.006 170.334 121.857 170.506 121.744C170.679 121.631 170.875 121.546 171.094 121.489C171.316 121.431 171.548 121.391 171.791 121.367C172.077 121.337 172.307 121.31 172.481 121.284C172.656 121.256 172.783 121.216 172.862 121.163C172.941 121.109 172.98 121.031 172.98 120.926V120.907C172.98 120.705 172.916 120.548 172.788 120.437C172.663 120.326 172.484 120.271 172.251 120.271C172.006 120.271 171.811 120.325 171.666 120.434C171.522 120.54 171.426 120.675 171.379 120.837L170.12 120.734C170.184 120.436 170.309 120.178 170.497 119.961C170.684 119.741 170.926 119.573 171.222 119.456C171.521 119.337 171.866 119.277 172.258 119.277C172.53 119.277 172.791 119.309 173.041 119.373C173.292 119.437 173.515 119.536 173.709 119.67C173.905 119.804 174.059 119.977 174.172 120.188C174.285 120.397 174.342 120.647 174.342 120.939V124.25H173.05V123.569H173.012C172.933 123.723 172.828 123.858 172.696 123.975C172.563 124.09 172.405 124.181 172.219 124.247C172.034 124.311 171.82 124.343 171.577 124.343ZM171.967 123.403C172.167 123.403 172.344 123.364 172.497 123.285C172.651 123.204 172.771 123.095 172.859 122.959C172.946 122.822 172.99 122.668 172.99 122.495V121.974C172.947 122.002 172.888 122.028 172.814 122.051C172.741 122.072 172.659 122.093 172.568 122.112C172.476 122.129 172.384 122.145 172.293 122.16C172.201 122.173 172.118 122.184 172.044 122.195C171.884 122.218 171.744 122.256 171.625 122.307C171.506 122.358 171.413 122.427 171.347 122.515C171.281 122.6 171.248 122.706 171.248 122.834C171.248 123.02 171.315 123.161 171.449 123.259C171.585 123.355 171.758 123.403 171.967 123.403ZM177.616 124.346C177.113 124.346 176.68 124.239 176.318 124.026C175.958 123.811 175.681 123.513 175.487 123.131C175.296 122.75 175.2 122.311 175.2 121.815C175.2 121.312 175.297 120.871 175.491 120.491C175.687 120.11 175.965 119.813 176.325 119.6C176.685 119.385 177.113 119.277 177.609 119.277C178.038 119.277 178.413 119.355 178.734 119.51C179.056 119.666 179.311 119.884 179.498 120.165C179.686 120.447 179.789 120.777 179.808 121.156H178.524C178.487 120.911 178.391 120.714 178.236 120.565C178.082 120.414 177.881 120.338 177.632 120.338C177.421 120.338 177.237 120.396 177.079 120.511C176.923 120.624 176.802 120.789 176.715 121.006C176.627 121.223 176.584 121.487 176.584 121.795C176.584 122.109 176.626 122.375 176.711 122.594C176.799 122.814 176.921 122.981 177.079 123.096C177.237 123.211 177.421 123.269 177.632 123.269C177.787 123.269 177.927 123.237 178.051 123.173C178.176 123.109 178.28 123.016 178.361 122.895C178.444 122.771 178.498 122.623 178.524 122.451H179.808C179.787 122.826 179.685 123.156 179.502 123.441C179.32 123.725 179.07 123.946 178.75 124.106C178.431 124.266 178.053 124.346 177.616 124.346ZM183.291 119.341V120.364H180.335V119.341H183.291ZM181.006 118.165H182.368V122.741C182.368 122.867 182.387 122.965 182.425 123.036C182.463 123.104 182.517 123.152 182.585 123.179C182.655 123.207 182.736 123.221 182.828 123.221C182.892 123.221 182.956 123.216 183.02 123.205C183.083 123.192 183.132 123.183 183.167 123.176L183.381 124.189C183.313 124.211 183.217 124.235 183.093 124.263C182.969 124.293 182.819 124.311 182.642 124.317C182.314 124.33 182.027 124.286 181.779 124.186C181.534 124.086 181.344 123.93 181.207 123.719C181.071 123.509 181.004 123.242 181.006 122.92V118.165Z" fill="white"/>
<rect x="197.375" y="111.875" width="70.5" height="18" rx="3.375" fill="#092AD0" fill-opacity="0.56" stroke="#092AD0" stroke-width="0.75"/>
<path d="M207.523 124.25L208.597 117.705H209.62L208.546 124.25H207.523ZM204.593 122.626L204.762 121.604H209.876L209.706 122.626H204.593ZM205.222 124.25L206.296 117.705H207.319L206.245 124.25H205.222ZM204.967 120.351L205.139 119.328H210.253L210.08 120.351H204.967ZM212.747 118.846V117.705H218.123V118.846H216.119V124.25H214.751V118.846H212.747ZM219.261 126.091C219.088 126.091 218.926 126.077 218.775 126.049C218.626 126.024 218.502 125.991 218.404 125.95L218.711 124.934C218.871 124.983 219.015 125.01 219.143 125.014C219.273 125.018 219.384 124.988 219.478 124.924C219.574 124.86 219.652 124.752 219.711 124.598L219.791 124.391L218.03 119.341H219.462L220.479 122.946H220.53L221.556 119.341H222.997L221.089 124.781C220.997 125.045 220.873 125.275 220.715 125.471C220.559 125.669 220.362 125.821 220.124 125.928C219.885 126.037 219.597 126.091 219.261 126.091ZM223.694 126.091V119.341H225.036V120.165H225.097C225.156 120.033 225.243 119.899 225.356 119.763C225.471 119.624 225.62 119.509 225.803 119.418C225.988 119.324 226.219 119.277 226.493 119.277C226.851 119.277 227.182 119.371 227.484 119.558C227.787 119.744 228.029 120.024 228.21 120.399C228.391 120.772 228.481 121.239 228.481 121.802C228.481 122.349 228.393 122.812 228.216 123.189C228.041 123.564 227.803 123.848 227.5 124.042C227.2 124.234 226.863 124.33 226.49 124.33C226.226 124.33 226.001 124.286 225.816 124.199C225.633 124.112 225.482 124.002 225.365 123.87C225.248 123.735 225.159 123.6 225.097 123.464H225.055V126.091H223.694ZM225.026 121.795C225.026 122.087 225.067 122.342 225.148 122.559C225.229 122.777 225.346 122.946 225.499 123.067C225.653 123.187 225.839 123.246 226.059 123.246C226.28 123.246 226.468 123.186 226.621 123.064C226.775 122.941 226.891 122.77 226.97 122.553C227.051 122.333 227.091 122.081 227.091 121.795C227.091 121.512 227.052 121.263 226.973 121.048C226.894 120.832 226.778 120.664 226.624 120.543C226.471 120.421 226.282 120.36 226.059 120.36C225.837 120.36 225.65 120.419 225.496 120.536C225.345 120.653 225.229 120.82 225.148 121.035C225.067 121.25 225.026 121.504 225.026 121.795ZM231.626 124.346C231.121 124.346 230.687 124.244 230.322 124.039C229.96 123.832 229.681 123.54 229.485 123.163C229.289 122.784 229.191 122.336 229.191 121.818C229.191 121.313 229.289 120.87 229.485 120.488C229.681 120.107 229.957 119.81 230.313 119.597C230.671 119.384 231.09 119.277 231.572 119.277C231.896 119.277 232.197 119.329 232.476 119.434C232.758 119.536 233.003 119.69 233.211 119.897C233.422 120.104 233.586 120.364 233.704 120.677C233.821 120.988 233.879 121.352 233.879 121.77V122.144H229.734V121.3H232.598C232.598 121.104 232.555 120.93 232.47 120.779C232.385 120.628 232.267 120.51 232.115 120.424C231.966 120.337 231.792 120.293 231.594 120.293C231.388 120.293 231.204 120.341 231.045 120.437C230.887 120.531 230.763 120.658 230.674 120.817C230.584 120.975 230.539 121.151 230.536 121.345V122.147C230.536 122.39 230.581 122.6 230.671 122.777C230.762 122.953 230.891 123.09 231.057 123.186C231.224 123.282 231.421 123.33 231.649 123.33C231.8 123.33 231.938 123.308 232.064 123.266C232.19 123.223 232.297 123.159 232.387 123.074C232.476 122.989 232.545 122.884 232.591 122.761L233.851 122.844C233.787 123.146 233.656 123.411 233.458 123.636C233.262 123.86 233.008 124.035 232.697 124.161C232.388 124.284 232.031 124.346 231.626 124.346ZM238.852 120.741L237.606 120.817C237.585 120.711 237.539 120.615 237.469 120.53C237.398 120.442 237.306 120.373 237.191 120.322C237.078 120.269 236.942 120.242 236.785 120.242C236.574 120.242 236.396 120.287 236.251 120.376C236.106 120.464 236.034 120.581 236.034 120.728C236.034 120.845 236.08 120.944 236.174 121.025C236.268 121.106 236.429 121.171 236.657 121.22L237.545 121.399C238.023 121.497 238.378 121.655 238.613 121.872C238.847 122.089 238.964 122.375 238.964 122.729C238.964 123.05 238.869 123.333 238.68 123.576C238.492 123.819 238.235 124.008 237.906 124.145C237.58 124.279 237.204 124.346 236.778 124.346C236.128 124.346 235.611 124.211 235.225 123.94C234.841 123.667 234.617 123.297 234.551 122.828L235.89 122.757C235.93 122.956 236.028 123.107 236.184 123.211C236.339 123.314 236.539 123.365 236.781 123.365C237.02 123.365 237.212 123.319 237.357 123.227C237.504 123.134 237.578 123.013 237.58 122.866C237.578 122.743 237.526 122.641 237.424 122.562C237.322 122.482 237.164 122.42 236.951 122.377L236.101 122.208C235.621 122.112 235.264 121.946 235.03 121.709C234.798 121.473 234.682 121.171 234.682 120.805C234.682 120.489 234.767 120.218 234.937 119.99C235.11 119.762 235.352 119.586 235.663 119.462C235.976 119.339 236.343 119.277 236.762 119.277C237.382 119.277 237.87 119.408 238.226 119.67C238.584 119.932 238.793 120.289 238.852 120.741ZM242.04 124.346C241.537 124.346 241.104 124.239 240.742 124.026C240.382 123.811 240.105 123.513 239.911 123.131C239.719 122.75 239.623 122.311 239.623 121.815C239.623 121.312 239.72 120.871 239.914 120.491C240.11 120.11 240.388 119.813 240.748 119.6C241.109 119.385 241.537 119.277 242.033 119.277C242.462 119.277 242.837 119.355 243.158 119.51C243.48 119.666 243.735 119.884 243.922 120.165C244.11 120.447 244.213 120.777 244.232 121.156H242.947C242.911 120.911 242.815 120.714 242.66 120.565C242.506 120.414 242.305 120.338 242.056 120.338C241.845 120.338 241.66 120.396 241.503 120.511C241.347 120.624 241.226 120.789 241.138 121.006C241.051 121.223 241.007 121.487 241.007 121.795C241.007 122.109 241.05 122.375 241.135 122.594C241.223 122.814 241.345 122.981 241.503 123.096C241.66 123.211 241.845 123.269 242.056 123.269C242.211 123.269 242.351 123.237 242.474 123.173C242.6 123.109 242.703 123.016 242.784 122.895C242.867 122.771 242.922 122.623 242.947 122.451H244.232C244.211 122.826 244.109 123.156 243.925 123.441C243.744 123.725 243.494 123.946 243.174 124.106C242.855 124.266 242.476 124.346 242.04 124.346ZM245.104 124.25V119.341H246.424V120.197H246.475C246.564 119.893 246.715 119.663 246.926 119.507C247.137 119.349 247.379 119.271 247.654 119.271C247.722 119.271 247.796 119.275 247.875 119.283C247.954 119.292 248.023 119.304 248.083 119.319V120.527C248.019 120.507 247.93 120.49 247.817 120.475C247.704 120.461 247.601 120.453 247.507 120.453C247.307 120.453 247.128 120.497 246.97 120.584C246.815 120.669 246.691 120.789 246.6 120.942C246.51 121.096 246.465 121.272 246.465 121.473V124.25H245.104ZM248.786 124.25V119.341H250.148V124.25H248.786ZM249.47 118.708C249.268 118.708 249.094 118.641 248.949 118.507C248.807 118.37 248.735 118.207 248.735 118.018C248.735 117.83 248.807 117.669 248.949 117.535C249.094 117.399 249.268 117.331 249.47 117.331C249.673 117.331 249.845 117.399 249.988 117.535C250.133 117.669 250.206 117.83 250.206 118.018C250.206 118.207 250.133 118.37 249.988 118.507C249.845 118.641 249.673 118.708 249.47 118.708ZM251.239 126.091V119.341H252.581V120.165H252.642C252.701 120.033 252.788 119.899 252.901 119.763C253.016 119.624 253.165 119.509 253.348 119.418C253.533 119.324 253.763 119.277 254.038 119.277C254.396 119.277 254.727 119.371 255.029 119.558C255.332 119.744 255.574 120.024 255.755 120.399C255.936 120.772 256.026 121.239 256.026 121.802C256.026 122.349 255.938 122.812 255.761 123.189C255.586 123.564 255.348 123.848 255.045 124.042C254.745 124.234 254.408 124.33 254.035 124.33C253.771 124.33 253.546 124.286 253.361 124.199C253.178 124.112 253.027 124.002 252.91 123.87C252.793 123.735 252.703 123.6 252.642 123.464H252.6V126.091H251.239ZM252.571 121.795C252.571 122.087 252.612 122.342 252.693 122.559C252.774 122.777 252.891 122.946 253.044 123.067C253.198 123.187 253.384 123.246 253.604 123.246C253.825 123.246 254.013 123.186 254.166 123.064C254.32 122.941 254.436 122.77 254.515 122.553C254.596 122.333 254.636 122.081 254.636 121.795C254.636 121.512 254.597 121.263 254.518 121.048C254.439 120.832 254.323 120.664 254.169 120.543C254.016 120.421 253.827 120.36 253.604 120.36C253.382 120.36 253.195 120.419 253.041 120.536C252.89 120.653 252.774 120.82 252.693 121.035C252.612 121.25 252.571 121.504 252.571 121.795ZM259.545 119.341V120.364H256.589V119.341H259.545ZM257.26 118.165H258.621V122.741C258.621 122.867 258.641 122.965 258.679 123.036C258.717 123.104 258.771 123.152 258.839 123.179C258.909 123.207 258.99 123.221 259.082 123.221C259.146 123.221 259.21 123.216 259.273 123.205C259.337 123.192 259.386 123.183 259.42 123.176L259.635 124.189C259.566 124.211 259.471 124.235 259.347 124.263C259.223 124.293 259.073 124.311 258.896 124.317C258.568 124.33 258.281 124.286 258.033 124.186C257.788 124.086 257.598 123.93 257.461 123.719C257.325 123.509 257.258 123.242 257.26 122.92V118.165Z" fill="white"/>
<rect x="275.375" y="111.875" width="66.75" height="18" rx="3.375" fill="#092AD0" fill-opacity="0.56" stroke="#092AD0" stroke-width="0.75"/>
<path d="M287.773 124.25L288.847 117.705H289.87L288.796 124.25H287.773ZM284.843 122.626L285.012 121.604H290.126L289.956 122.626H284.843ZM285.472 124.25L286.546 117.705H287.569L286.495 124.25H285.472ZM285.217 120.351L285.389 119.328H290.503L290.33 120.351H285.217ZM297.587 119.82C297.542 119.665 297.479 119.527 297.398 119.408C297.317 119.287 297.218 119.184 297.101 119.101C296.986 119.016 296.854 118.951 296.705 118.906C296.558 118.862 296.395 118.839 296.216 118.839C295.881 118.839 295.587 118.922 295.334 119.088C295.082 119.255 294.886 119.496 294.746 119.814C294.605 120.129 294.535 120.515 294.535 120.971C294.535 121.427 294.604 121.815 294.742 122.134C294.881 122.454 295.077 122.698 295.33 122.866C295.584 123.032 295.883 123.115 296.229 123.115C296.542 123.115 296.809 123.06 297.031 122.949C297.254 122.836 297.425 122.678 297.542 122.473C297.661 122.268 297.721 122.027 297.721 121.748L298.002 121.789H296.315V120.747H299.054V121.572C299.054 122.147 298.932 122.641 298.689 123.055C298.447 123.466 298.112 123.783 297.686 124.007C297.26 124.229 296.772 124.339 296.222 124.339C295.608 124.339 295.069 124.204 294.605 123.934C294.14 123.661 293.778 123.274 293.518 122.773C293.26 122.271 293.132 121.674 293.132 120.984C293.132 120.453 293.208 119.98 293.362 119.565C293.517 119.147 293.735 118.793 294.014 118.504C294.293 118.214 294.618 117.993 294.988 117.842C295.359 117.691 295.761 117.615 296.193 117.615C296.564 117.615 296.909 117.669 297.229 117.778C297.548 117.885 297.832 118.036 298.079 118.232C298.328 118.428 298.532 118.661 298.689 118.932C298.847 119.2 298.948 119.496 298.993 119.82H297.587ZM300.068 124.25V119.341H301.388V120.197H301.439C301.528 119.893 301.679 119.663 301.889 119.507C302.1 119.349 302.343 119.271 302.618 119.271C302.686 119.271 302.76 119.275 302.839 119.283C302.918 119.292 302.987 119.304 303.046 119.319V120.527C302.983 120.507 302.894 120.49 302.781 120.475C302.668 120.461 302.565 120.453 302.471 120.453C302.271 120.453 302.092 120.497 301.934 120.584C301.779 120.669 301.655 120.789 301.563 120.942C301.474 121.096 301.429 121.272 301.429 121.473V124.25H300.068ZM305.01 124.343C304.696 124.343 304.417 124.288 304.172 124.18C303.927 124.069 303.733 123.906 303.591 123.691C303.45 123.473 303.38 123.203 303.38 122.879C303.38 122.606 303.43 122.377 303.53 122.192C303.63 122.006 303.766 121.857 303.939 121.744C304.112 121.631 304.308 121.546 304.527 121.489C304.749 121.431 304.981 121.391 305.224 121.367C305.509 121.337 305.739 121.31 305.914 121.284C306.089 121.256 306.216 121.216 306.294 121.163C306.373 121.109 306.413 121.031 306.413 120.926V120.907C306.413 120.705 306.349 120.548 306.221 120.437C306.095 120.326 305.916 120.271 305.684 120.271C305.439 120.271 305.244 120.325 305.099 120.434C304.954 120.54 304.858 120.675 304.811 120.837L303.552 120.734C303.616 120.436 303.742 120.178 303.929 119.961C304.117 119.741 304.359 119.573 304.655 119.456C304.953 119.337 305.298 119.277 305.69 119.277C305.963 119.277 306.224 119.309 306.473 119.373C306.725 119.437 306.947 119.536 307.141 119.67C307.337 119.804 307.492 119.977 307.605 120.188C307.718 120.397 307.774 120.647 307.774 120.939V124.25H306.483V123.569H306.445C306.366 123.723 306.26 123.858 306.128 123.975C305.996 124.09 305.837 124.181 305.652 124.247C305.467 124.311 305.252 124.343 305.01 124.343ZM305.4 123.403C305.6 123.403 305.777 123.364 305.93 123.285C306.083 123.204 306.204 123.095 306.291 122.959C306.379 122.822 306.422 122.668 306.422 122.495V121.974C306.38 122.002 306.321 122.028 306.246 122.051C306.174 122.072 306.092 122.093 306 122.112C305.909 122.129 305.817 122.145 305.725 122.16C305.634 122.173 305.551 122.184 305.476 122.195C305.316 122.218 305.177 122.256 305.058 122.307C304.938 122.358 304.846 122.427 304.779 122.515C304.713 122.6 304.68 122.706 304.68 122.834C304.68 123.02 304.748 123.161 304.882 123.259C305.018 123.355 305.191 123.403 305.4 123.403ZM308.83 126.091V119.341H310.173V120.165H310.233C310.293 120.033 310.379 119.899 310.492 119.763C310.607 119.624 310.757 119.509 310.94 119.418C311.125 119.324 311.355 119.277 311.63 119.277C311.988 119.277 312.318 119.371 312.621 119.558C312.923 119.744 313.165 120.024 313.346 120.399C313.528 120.772 313.618 121.239 313.618 121.802C313.618 122.349 313.53 122.812 313.353 123.189C313.178 123.564 312.939 123.848 312.637 124.042C312.336 124.234 312 124.33 311.627 124.33C311.363 124.33 311.138 124.286 310.953 124.199C310.769 124.112 310.619 124.002 310.502 123.87C310.385 123.735 310.295 123.6 310.233 123.464H310.192V126.091H308.83ZM310.163 121.795C310.163 122.087 310.204 122.342 310.285 122.559C310.366 122.777 310.483 122.946 310.636 123.067C310.79 123.187 310.976 123.246 311.195 123.246C311.417 123.246 311.605 123.186 311.758 123.064C311.911 122.941 312.028 122.77 312.106 122.553C312.187 122.333 312.228 122.081 312.228 121.795C312.228 121.512 312.188 121.263 312.11 121.048C312.031 120.832 311.915 120.664 311.761 120.543C311.608 120.421 311.419 120.36 311.195 120.36C310.974 120.36 310.786 120.419 310.633 120.536C310.482 120.653 310.366 120.82 310.285 121.035C310.204 121.25 310.163 121.504 310.163 121.795ZM315.887 121.412V124.25H314.526V117.705H315.849V120.207H315.906C316.017 119.917 316.196 119.69 316.443 119.526C316.691 119.36 317.001 119.277 317.373 119.277C317.714 119.277 318.012 119.352 318.265 119.501C318.521 119.648 318.719 119.86 318.86 120.137C319.002 120.412 319.073 120.741 319.07 121.124V124.25H317.709V121.367C317.711 121.065 317.634 120.829 317.479 120.661C317.325 120.493 317.11 120.408 316.833 120.408C316.648 120.408 316.484 120.448 316.341 120.527C316.2 120.605 316.09 120.721 316.009 120.872C315.93 121.021 315.889 121.201 315.887 121.412ZM322.638 121.974H323.814L324.405 122.735L324.987 123.413L326.083 124.787H324.792L324.038 123.86L323.651 123.31L322.638 121.974ZM326.182 120.977C326.182 121.691 326.047 122.298 325.777 122.799C325.508 123.3 325.142 123.682 324.677 123.946C324.215 124.208 323.695 124.339 323.117 124.339C322.536 124.339 322.014 124.207 321.551 123.943C321.089 123.679 320.724 123.297 320.455 122.796C320.187 122.295 320.052 121.689 320.052 120.977C320.052 120.263 320.187 119.656 320.455 119.156C320.724 118.655 321.089 118.273 321.551 118.011C322.014 117.747 322.536 117.615 323.117 117.615C323.695 117.615 324.215 117.747 324.677 118.011C325.142 118.273 325.508 118.655 325.777 119.156C326.047 119.656 326.182 120.263 326.182 120.977ZM324.779 120.977C324.779 120.515 324.71 120.125 324.572 119.808C324.435 119.49 324.242 119.249 323.993 119.085C323.744 118.921 323.452 118.839 323.117 118.839C322.783 118.839 322.491 118.921 322.242 119.085C321.992 119.249 321.799 119.49 321.66 119.808C321.524 120.125 321.456 120.515 321.456 120.977C321.456 121.44 321.524 121.83 321.66 122.147C321.799 122.464 321.992 122.705 322.242 122.869C322.491 123.033 322.783 123.115 323.117 123.115C323.452 123.115 323.744 123.033 323.993 122.869C324.242 122.705 324.435 122.464 324.572 122.147C324.71 121.83 324.779 121.44 324.779 120.977ZM327.208 124.25V117.705H328.591V123.109H331.398V124.25H327.208Z" fill="white"/>
<rect x="50" y="50" width="375" height="101.25" rx="26.25" fill="white"/>
<circle cx="106.25" cy="100.25" r="30" fill="#C4C4C4"/>
<rect x="92.75" y="104" width="27" height="15" rx="3.75" fill="white"/>
<circle cx="105.875" cy="91.625" r="9.375" fill="white"/>
<path d="M150.566 77.0909H152.846V84.6974C152.846 85.4006 152.688 86.0114 152.372 86.5298C152.059 87.0483 151.624 87.4478 151.067 87.7283C150.509 88.0089 149.861 88.1491 149.123 88.1491C148.466 88.1491 147.869 88.0337 147.333 87.8029C146.8 87.5685 146.377 87.2134 146.065 86.7376C145.752 86.2582 145.598 85.6562 145.602 84.9318H147.897C147.904 85.2195 147.963 85.4663 148.073 85.6722C148.187 85.8746 148.341 86.0309 148.537 86.141C148.735 86.2475 148.97 86.3008 149.24 86.3008C149.524 86.3008 149.763 86.2404 149.959 86.1197C150.158 85.9954 150.309 85.8143 150.412 85.5763C150.515 85.3384 150.566 85.0455 150.566 84.6974V77.0909ZM158.407 88.1598C157.58 88.1598 156.864 87.984 156.26 87.6325C155.66 87.2773 155.197 86.7837 154.87 86.1516C154.543 85.516 154.38 84.7791 154.38 83.9411C154.38 83.0959 154.543 82.3572 154.87 81.7251C155.197 81.0895 155.66 80.5959 156.26 80.2443C156.864 79.8892 157.58 79.7116 158.407 79.7116C159.234 79.7116 159.948 79.8892 160.548 80.2443C161.152 80.5959 161.617 81.0895 161.944 81.7251C162.271 82.3572 162.434 83.0959 162.434 83.9411C162.434 84.7791 162.271 85.516 161.944 86.1516C161.617 86.7837 161.152 87.2773 160.548 87.6325C159.948 87.984 159.234 88.1598 158.407 88.1598ZM158.418 86.402C158.794 86.402 159.108 86.2955 159.36 86.0824C159.613 85.8658 159.803 85.571 159.93 85.1982C160.062 84.8253 160.127 84.4009 160.127 83.9251C160.127 83.4492 160.062 83.0249 159.93 82.652C159.803 82.2791 159.613 81.9844 159.36 81.7678C159.108 81.5511 158.794 81.4428 158.418 81.4428C158.038 81.4428 157.718 81.5511 157.459 81.7678C157.203 81.9844 157.01 82.2791 156.878 82.652C156.75 83.0249 156.686 83.4492 156.686 83.9251C156.686 84.4009 156.75 84.8253 156.878 85.1982C157.01 85.571 157.203 85.8658 157.459 86.0824C157.718 86.2955 158.038 86.402 158.418 86.402ZM170.717 82.1513L168.64 82.2791C168.604 82.1016 168.528 81.9418 168.411 81.7997C168.293 81.6541 168.139 81.5387 167.947 81.4535C167.759 81.3647 167.533 81.3203 167.271 81.3203C166.919 81.3203 166.623 81.3949 166.381 81.544C166.14 81.6896 166.019 81.8849 166.019 82.13C166.019 82.3253 166.097 82.4904 166.253 82.6254C166.409 82.7603 166.678 82.8686 167.058 82.9503L168.538 83.2486C169.334 83.4119 169.927 83.6747 170.317 84.0369C170.708 84.3991 170.903 84.875 170.903 85.4645C170.903 86.0007 170.745 86.4712 170.429 86.8761C170.117 87.2809 169.687 87.5969 169.14 87.8242C168.597 88.0479 167.97 88.1598 167.26 88.1598C166.177 88.1598 165.314 87.9343 164.671 87.4833C164.032 87.0288 163.657 86.4109 163.547 85.6296L165.779 85.5124C165.847 85.8427 166.01 86.0948 166.269 86.2688C166.528 86.4393 166.86 86.5245 167.265 86.5245C167.663 86.5245 167.983 86.4482 168.224 86.2955C168.469 86.1392 168.593 85.9386 168.597 85.6935C168.593 85.4876 168.506 85.3189 168.336 85.1875C168.165 85.0526 167.903 84.9496 167.548 84.8786L166.131 84.5962C165.332 84.4364 164.737 84.1594 164.346 83.7653C163.959 83.3711 163.766 82.8686 163.766 82.2578C163.766 81.7322 163.908 81.2795 164.192 80.8995C164.479 80.5195 164.882 80.2266 165.401 80.0206C165.923 79.8146 166.534 79.7116 167.233 79.7116C168.267 79.7116 169.08 79.93 169.673 80.3668C170.27 80.8036 170.618 81.3984 170.717 82.1513ZM174.601 83.2699V88H172.332V77.0909H174.538V81.2617H174.633C174.818 80.7788 175.116 80.4006 175.528 80.1271C175.94 79.8501 176.457 79.7116 177.078 79.7116C177.647 79.7116 178.142 79.8359 178.565 80.0845C178.991 80.3295 179.321 80.6829 179.555 81.1445C179.793 81.6026 179.91 82.1513 179.907 82.7905V88H177.638V83.1953C177.641 82.6911 177.513 82.2987 177.254 82.0181C176.998 81.7376 176.64 81.5973 176.178 81.5973C175.869 81.5973 175.596 81.663 175.358 81.7944C175.123 81.9258 174.939 82.1175 174.804 82.3697C174.672 82.6183 174.605 82.9183 174.601 83.2699ZM185.164 88V79.8182H187.327V81.2617H187.423C187.593 80.7823 187.877 80.4041 188.275 80.1271C188.673 79.8501 189.149 79.7116 189.703 79.7116C190.264 79.7116 190.741 79.8519 191.136 80.1325C191.53 80.4094 191.793 80.7859 191.924 81.2617H192.009C192.176 80.793 192.478 80.4183 192.915 80.1378C193.355 79.8537 193.875 79.7116 194.475 79.7116C195.239 79.7116 195.859 79.9549 196.334 80.4414C196.814 80.9244 197.054 81.6097 197.054 82.4975V88H194.79V82.945C194.79 82.4904 194.669 82.1495 194.427 81.9222C194.186 81.695 193.884 81.5813 193.522 81.5813C193.11 81.5813 192.789 81.7127 192.558 81.9755C192.327 82.2347 192.212 82.5774 192.212 83.0036V88H190.012V82.897C190.012 82.4957 189.896 82.1761 189.665 81.9382C189.438 81.7003 189.138 81.5813 188.765 81.5813C188.513 81.5813 188.286 81.6452 188.083 81.7731C187.884 81.8974 187.726 82.0732 187.609 82.3004C187.492 82.5241 187.434 82.7869 187.434 83.0888V88H185.164ZM201.179 88.1545C200.657 88.1545 200.192 88.0639 199.783 87.8828C199.375 87.6982 199.052 87.4265 198.814 87.0678C198.58 86.7056 198.462 86.2546 198.462 85.7148C198.462 85.2603 198.546 84.8786 198.713 84.5696C198.88 84.2607 199.107 84.0121 199.395 83.8239C199.682 83.6357 200.009 83.4936 200.375 83.3977C200.744 83.3018 201.131 83.2344 201.536 83.1953C202.012 83.1456 202.395 83.0994 202.687 83.0568C202.978 83.0107 203.189 82.9432 203.32 82.8544C203.452 82.7656 203.517 82.6342 203.517 82.4602V82.4283C203.517 82.0909 203.411 81.8299 203.198 81.6452C202.988 81.4606 202.69 81.3683 202.303 81.3683C201.895 81.3683 201.57 81.4588 201.328 81.6399C201.087 81.8175 200.927 82.0412 200.849 82.3111L198.75 82.1406C198.857 81.6435 199.066 81.2138 199.379 80.8516C199.691 80.4858 200.094 80.2053 200.588 80.0099C201.085 79.8111 201.66 79.7116 202.314 79.7116C202.768 79.7116 203.203 79.7649 203.619 79.8714C204.038 79.978 204.409 80.1431 204.732 80.3668C205.059 80.5906 205.316 80.8782 205.504 81.2298C205.693 81.5778 205.787 81.995 205.787 82.4815V88H203.635V86.8654H203.571C203.439 87.1211 203.264 87.3466 203.043 87.5419C202.823 87.7337 202.559 87.8846 202.25 87.9947C201.941 88.1012 201.584 88.1545 201.179 88.1545ZM201.829 86.5884C202.163 86.5884 202.457 86.5227 202.713 86.3913C202.969 86.2564 203.169 86.0753 203.315 85.848C203.461 85.6207 203.533 85.3633 203.533 85.0756V84.2074C203.462 84.2536 203.365 84.2962 203.241 84.3352C203.12 84.3707 202.983 84.4045 202.83 84.4364C202.678 84.4648 202.525 84.4915 202.372 84.5163C202.22 84.5376 202.081 84.5572 201.957 84.5749C201.69 84.614 201.458 84.6761 201.259 84.7614C201.06 84.8466 200.906 84.962 200.796 85.1076C200.685 85.2496 200.63 85.4272 200.63 85.6403C200.63 85.9492 200.742 86.1854 200.966 86.3487C201.193 86.5085 201.481 86.5884 201.829 86.5884ZM211.244 88.1598C210.406 88.1598 209.685 87.9822 209.081 87.6271C208.481 87.2685 208.019 86.7713 207.696 86.1357C207.377 85.5 207.217 84.7685 207.217 83.9411C207.217 83.103 207.378 82.3679 207.702 81.7358C208.028 81.1001 208.492 80.6048 209.092 80.2496C209.692 79.891 210.406 79.7116 211.233 79.7116C211.947 79.7116 212.572 79.8413 213.108 80.1005C213.644 80.3597 214.069 80.7237 214.381 81.1925C214.694 81.6612 214.866 82.2116 214.898 82.8438H212.757C212.696 82.4354 212.536 82.1069 212.277 81.8583C212.022 81.6062 211.686 81.4801 211.271 81.4801C210.919 81.4801 210.612 81.576 210.349 81.7678C210.09 81.956 209.887 82.2312 209.742 82.5934C209.596 82.9556 209.523 83.3942 209.523 83.9091C209.523 84.4311 209.594 84.875 209.736 85.2408C209.882 85.6065 210.086 85.8853 210.349 86.0771C210.612 86.2688 210.919 86.3647 211.271 86.3647C211.53 86.3647 211.762 86.3114 211.968 86.2049C212.178 86.0984 212.35 85.9439 212.485 85.7415C212.623 85.5355 212.714 85.2887 212.757 85.0011H214.898C214.862 85.6261 214.692 86.1765 214.387 86.6523C214.085 87.1246 213.668 87.494 213.135 87.7603C212.602 88.0266 211.972 88.1598 211.244 88.1598ZM218.407 85.6456L218.412 82.9237H218.743L221.363 79.8182H223.968L220.447 83.9304H219.909L218.407 85.6456ZM216.351 88V77.0909H218.62V88H216.351ZM221.464 88L219.057 84.4364L220.57 82.8331L224.123 88H221.464Z" fill="black"/>
<path d="M150.493 98.7827C150.459 98.4389 150.313 98.1719 150.054 97.9815C149.795 97.7912 149.445 97.696 149.001 97.696C148.7 97.696 148.446 97.7386 148.239 97.8239C148.031 97.9062 147.872 98.0213 147.761 98.169C147.653 98.3168 147.599 98.4844 147.599 98.6719C147.594 98.8281 147.626 98.9645 147.697 99.081C147.771 99.1974 147.872 99.2983 148 99.3835C148.128 99.4659 148.276 99.5384 148.443 99.6009C148.611 99.6605 148.79 99.7116 148.98 99.7543L149.764 99.9418C150.145 100.027 150.494 100.141 150.812 100.283C151.131 100.425 151.406 100.599 151.639 100.807C151.872 101.014 152.053 101.259 152.18 101.54C152.311 101.821 152.378 102.143 152.381 102.507C152.378 103.041 152.241 103.504 151.972 103.896C151.705 104.286 151.318 104.588 150.812 104.804C150.31 105.017 149.703 105.124 148.993 105.124C148.288 105.124 147.675 105.016 147.152 104.8C146.632 104.584 146.226 104.264 145.933 103.841C145.643 103.415 145.491 102.888 145.477 102.26H147.263C147.283 102.553 147.366 102.797 147.514 102.993C147.665 103.186 147.865 103.332 148.115 103.432C148.368 103.528 148.653 103.577 148.972 103.577C149.284 103.577 149.555 103.531 149.786 103.44C150.018 103.349 150.199 103.223 150.327 103.061C150.455 102.899 150.518 102.713 150.518 102.503C150.518 102.307 150.46 102.142 150.344 102.009C150.23 101.875 150.063 101.761 149.841 101.668C149.622 101.574 149.354 101.489 149.036 101.412L148.085 101.173C147.349 100.994 146.768 100.714 146.342 100.334C145.916 99.9531 145.705 99.4403 145.707 98.7955C145.705 98.267 145.845 97.8054 146.129 97.4105C146.416 97.0156 146.81 96.7074 147.31 96.4858C147.81 96.2642 148.378 96.1534 149.014 96.1534C149.662 96.1534 150.227 96.2642 150.71 96.4858C151.196 96.7074 151.574 97.0156 151.844 97.4105C152.114 97.8054 152.253 98.2628 152.261 98.7827H150.493ZM153.588 105V98.4545H155.348V99.5966H155.416C155.535 99.1903 155.735 98.8835 156.017 98.6761C156.298 98.4659 156.622 98.3608 156.988 98.3608C157.079 98.3608 157.177 98.3665 157.282 98.3778C157.387 98.3892 157.48 98.4048 157.559 98.4247V100.036C157.474 100.01 157.356 99.9872 157.206 99.9673C157.055 99.9474 156.917 99.9375 156.792 99.9375C156.525 99.9375 156.287 99.9957 156.076 100.112C155.869 100.226 155.704 100.385 155.582 100.589C155.463 100.794 155.403 101.03 155.403 101.297V105H153.588ZM161.309 105V96.2727H167.088V97.794H163.154V99.8736H166.704V101.395H163.154V105H161.309ZM172.082 102.213V98.4545H173.897V105H172.154V103.811H172.086C171.939 104.195 171.693 104.503 171.349 104.736C171.008 104.969 170.592 105.085 170.1 105.085C169.663 105.085 169.278 104.986 168.946 104.787C168.613 104.588 168.353 104.305 168.166 103.939C167.981 103.572 167.887 103.134 167.885 102.622V98.4545H169.7V102.298C169.703 102.685 169.806 102.99 170.011 103.214C170.216 103.439 170.49 103.551 170.833 103.551C171.052 103.551 171.257 103.501 171.447 103.402C171.637 103.3 171.791 103.149 171.907 102.95C172.027 102.751 172.085 102.506 172.082 102.213ZM177.165 96.2727V105H175.349V96.2727H177.165ZM180.434 96.2727V105H178.619V96.2727H180.434ZM187.335 100.321L185.673 100.423C185.644 100.281 185.583 100.153 185.489 100.04C185.396 99.9233 185.272 99.831 185.119 99.7628C184.968 99.6918 184.788 99.6562 184.577 99.6562C184.296 99.6562 184.059 99.7159 183.866 99.8352C183.673 99.9517 183.576 100.108 183.576 100.304C183.576 100.46 183.638 100.592 183.763 100.7C183.888 100.808 184.103 100.895 184.407 100.96L185.592 101.199C186.228 101.33 186.702 101.54 187.015 101.83C187.327 102.119 187.484 102.5 187.484 102.972C187.484 103.401 187.357 103.777 187.104 104.101C186.854 104.425 186.511 104.678 186.073 104.859C185.638 105.038 185.137 105.128 184.569 105.128C183.702 105.128 183.012 104.947 182.498 104.587C181.987 104.223 181.687 103.729 181.599 103.104L183.384 103.01C183.438 103.274 183.569 103.476 183.776 103.615C183.984 103.751 184.249 103.82 184.573 103.82C184.891 103.82 185.147 103.759 185.34 103.636C185.536 103.511 185.636 103.351 185.638 103.155C185.636 102.99 185.566 102.855 185.43 102.75C185.293 102.642 185.083 102.56 184.799 102.503L183.665 102.277C183.026 102.149 182.55 101.928 182.238 101.612C181.928 101.297 181.773 100.895 181.773 100.406C181.773 99.9858 181.887 99.6236 182.114 99.3196C182.344 99.0156 182.667 98.7812 183.082 98.6165C183.499 98.4517 183.988 98.3693 184.548 98.3693C185.374 98.3693 186.025 98.544 186.499 98.8935C186.977 99.2429 187.255 99.7187 187.335 100.321ZM192.108 98.4545V99.8182H188.167V98.4545H192.108ZM189.061 96.8864H190.877V102.989C190.877 103.156 190.902 103.287 190.953 103.381C191.005 103.472 191.076 103.536 191.167 103.572C191.26 103.609 191.368 103.628 191.49 103.628C191.576 103.628 191.661 103.621 191.746 103.607C191.831 103.589 191.897 103.577 191.942 103.568L192.228 104.919C192.137 104.947 192.009 104.98 191.844 105.017C191.679 105.057 191.479 105.081 191.243 105.089C190.806 105.107 190.422 105.048 190.093 104.915C189.766 104.781 189.512 104.574 189.33 104.293C189.148 104.011 189.059 103.656 189.061 103.227V96.8864ZM195.157 105.124C194.74 105.124 194.368 105.051 194.041 104.906C193.714 104.759 193.456 104.541 193.265 104.254C193.078 103.964 192.984 103.604 192.984 103.172C192.984 102.808 193.051 102.503 193.184 102.256C193.318 102.009 193.5 101.81 193.73 101.659C193.96 101.509 194.221 101.395 194.514 101.318C194.809 101.241 195.119 101.188 195.443 101.156C195.824 101.116 196.13 101.08 196.363 101.045C196.596 101.009 196.765 100.955 196.87 100.884C196.975 100.812 197.028 100.707 197.028 100.568V100.543C197.028 100.273 196.943 100.064 196.772 99.9162C196.605 99.7685 196.366 99.6946 196.056 99.6946C195.73 99.6946 195.47 99.767 195.277 99.9119C195.083 100.054 194.956 100.233 194.893 100.449L193.214 100.312C193.299 99.9148 193.467 99.571 193.717 99.2812C193.967 98.9886 194.289 98.7642 194.684 98.608C195.082 98.4489 195.542 98.3693 196.065 98.3693C196.429 98.3693 196.777 98.4119 197.109 98.4972C197.444 98.5824 197.741 98.7145 198 98.8935C198.261 99.0724 198.467 99.3026 198.618 99.5838C198.768 99.8622 198.843 100.196 198.843 100.585V105H197.122V104.092H197.071C196.966 104.297 196.825 104.477 196.649 104.634C196.473 104.787 196.261 104.908 196.014 104.996C195.767 105.081 195.481 105.124 195.157 105.124ZM195.677 103.871C195.944 103.871 196.18 103.818 196.385 103.713C196.589 103.605 196.75 103.46 196.866 103.278C196.983 103.097 197.041 102.891 197.041 102.661V101.966C196.984 102.003 196.906 102.037 196.806 102.068C196.71 102.097 196.6 102.124 196.478 102.149C196.356 102.172 196.234 102.193 196.112 102.213C195.99 102.23 195.879 102.246 195.779 102.26C195.566 102.291 195.38 102.341 195.221 102.409C195.062 102.477 194.939 102.57 194.85 102.686C194.762 102.8 194.718 102.942 194.718 103.112C194.718 103.359 194.808 103.548 194.987 103.679C195.169 103.807 195.399 103.871 195.677 103.871ZM203.209 105.128C202.539 105.128 201.962 104.986 201.479 104.702C200.999 104.415 200.63 104.017 200.371 103.509C200.115 103 199.988 102.415 199.988 101.753C199.988 101.082 200.117 100.494 200.375 99.9886C200.637 99.4801 201.007 99.0838 201.488 98.7997C201.968 98.5128 202.539 98.3693 203.201 98.3693C203.772 98.3693 204.272 98.473 204.701 98.6804C205.13 98.8878 205.469 99.179 205.719 99.554C205.969 99.929 206.107 100.369 206.132 100.875H204.419C204.371 100.548 204.243 100.286 204.036 100.087C203.831 99.8849 203.563 99.7841 203.23 99.7841C202.949 99.7841 202.703 99.8608 202.493 100.014C202.286 100.165 202.124 100.385 202.007 100.675C201.891 100.964 201.833 101.315 201.833 101.727C201.833 102.145 201.89 102.5 202.003 102.793C202.12 103.085 202.283 103.308 202.493 103.462C202.703 103.615 202.949 103.692 203.23 103.692C203.438 103.692 203.624 103.649 203.789 103.564C203.956 103.479 204.094 103.355 204.202 103.193C204.313 103.028 204.385 102.831 204.419 102.601H206.132C206.104 103.101 205.968 103.541 205.723 103.922C205.482 104.3 205.148 104.595 204.722 104.808C204.296 105.021 203.792 105.128 203.209 105.128ZM208.94 103.116L208.944 100.939H209.208L211.305 98.4545H213.388L210.572 101.744H210.141L208.94 103.116ZM207.295 105V96.2727H209.11V105H207.295ZM211.386 105L209.46 102.149L210.67 100.866L213.512 105H211.386ZM217.091 105V96.2727H222.971V97.794H218.936V99.8736H222.669V101.395H218.936V103.479H222.988V105H217.091ZM226.219 101.216V105H224.404V98.4545H226.134V99.6094H226.211C226.356 99.2287 226.599 98.9276 226.94 98.706C227.281 98.4815 227.694 98.3693 228.18 98.3693C228.634 98.3693 229.031 98.4688 229.369 98.6676C229.707 98.8665 229.969 99.1506 230.157 99.5199C230.344 99.8864 230.438 100.324 230.438 100.832V105H228.623V101.156C228.626 100.756 228.523 100.443 228.316 100.219C228.109 99.9915 227.823 99.8778 227.46 99.8778C227.215 99.8778 226.999 99.9304 226.812 100.036C226.627 100.141 226.482 100.294 226.377 100.496C226.275 100.695 226.222 100.935 226.219 101.216ZM234.818 107.591C234.23 107.591 233.725 107.51 233.305 107.348C232.887 107.189 232.555 106.972 232.308 106.696C232.061 106.42 231.9 106.111 231.826 105.767L233.505 105.541C233.556 105.672 233.637 105.794 233.748 105.908C233.859 106.021 234.005 106.112 234.187 106.18C234.372 106.251 234.596 106.287 234.86 106.287C235.255 106.287 235.581 106.19 235.836 105.997C236.095 105.807 236.224 105.487 236.224 105.038V103.841H236.147C236.068 104.023 235.949 104.195 235.789 104.357C235.63 104.518 235.426 104.651 235.176 104.753C234.926 104.855 234.627 104.906 234.281 104.906C233.789 104.906 233.342 104.793 232.939 104.565C232.538 104.335 232.218 103.984 231.98 103.513C231.744 103.038 231.626 102.439 231.626 101.714C231.626 100.973 231.747 100.354 231.988 99.8565C232.23 99.3594 232.551 98.9872 232.951 98.7401C233.355 98.4929 233.797 98.3693 234.277 98.3693C234.643 98.3693 234.95 98.4318 235.197 98.5568C235.444 98.679 235.643 98.8324 235.794 99.017C235.947 99.1989 236.065 99.3778 236.147 99.554H236.216V98.4545H238.018V105.064C238.018 105.621 237.882 106.087 237.609 106.462C237.336 106.837 236.958 107.118 236.475 107.305C235.995 107.496 235.443 107.591 234.818 107.591ZM234.856 103.543C235.149 103.543 235.396 103.47 235.598 103.325C235.802 103.178 235.958 102.967 236.066 102.695C236.177 102.419 236.233 102.089 236.233 101.706C236.233 101.322 236.179 100.99 236.071 100.709C235.963 100.425 235.806 100.205 235.602 100.048C235.397 99.892 235.149 99.8139 234.856 99.8139C234.558 99.8139 234.306 99.8949 234.102 100.057C233.897 100.216 233.743 100.437 233.637 100.722C233.532 101.006 233.48 101.334 233.48 101.706C233.48 102.084 233.532 102.411 233.637 102.686C233.745 102.959 233.9 103.17 234.102 103.321C234.306 103.469 234.558 103.543 234.856 103.543ZM239.463 105V98.4545H241.278V105H239.463ZM240.375 97.6108C240.105 97.6108 239.873 97.5213 239.68 97.3423C239.49 97.1605 239.395 96.9432 239.395 96.6903C239.395 96.4403 239.49 96.2259 239.68 96.0469C239.873 95.8651 240.105 95.7741 240.375 95.7741C240.645 95.7741 240.875 95.8651 241.065 96.0469C241.258 96.2259 241.355 96.4403 241.355 96.6903C241.355 96.9432 241.258 97.1605 241.065 97.3423C240.875 97.5213 240.645 97.6108 240.375 97.6108ZM244.548 101.216V105H242.732V98.4545H244.462V99.6094H244.539C244.684 99.2287 244.927 98.9276 245.268 98.706C245.609 98.4815 246.022 98.3693 246.508 98.3693C246.962 98.3693 247.359 98.4688 247.697 98.6676C248.035 98.8665 248.298 99.1506 248.485 99.5199C248.673 99.8864 248.766 100.324 248.766 100.832V105H246.951V101.156C246.954 100.756 246.852 100.443 246.644 100.219C246.437 99.9915 246.151 99.8778 245.788 99.8778C245.543 99.8778 245.327 99.9304 245.14 100.036C244.955 100.141 244.81 100.294 244.705 100.496C244.603 100.695 244.55 100.935 244.548 101.216ZM253.18 105.128C252.507 105.128 251.927 104.991 251.441 104.719C250.958 104.443 250.586 104.054 250.325 103.551C250.064 103.045 249.933 102.447 249.933 101.757C249.933 101.084 250.064 100.493 250.325 99.9844C250.586 99.4759 250.954 99.0795 251.429 98.7955C251.906 98.5114 252.466 98.3693 253.108 98.3693C253.539 98.3693 253.941 98.4389 254.314 98.5781C254.689 98.7145 255.015 98.9205 255.294 99.196C255.575 99.4716 255.794 99.8182 255.95 100.236C256.106 100.651 256.184 101.136 256.184 101.693V102.192H250.657V101.067H254.475C254.475 100.805 254.419 100.574 254.305 100.372C254.191 100.17 254.034 100.013 253.832 99.8991C253.633 99.7827 253.402 99.7244 253.137 99.7244C252.862 99.7244 252.618 99.7884 252.404 99.9162C252.194 100.041 252.029 100.21 251.91 100.423C251.791 100.634 251.73 100.868 251.727 101.126V102.196C251.727 102.52 251.787 102.8 251.906 103.036C252.028 103.271 252.2 103.453 252.422 103.581C252.643 103.709 252.906 103.773 253.21 103.773C253.412 103.773 253.596 103.744 253.764 103.688C253.931 103.631 254.075 103.545 254.194 103.432C254.314 103.318 254.404 103.179 254.467 103.014L256.146 103.125C256.061 103.528 255.886 103.881 255.622 104.182C255.36 104.48 255.022 104.713 254.608 104.881C254.196 105.045 253.72 105.128 253.18 105.128ZM260.352 105.128C259.679 105.128 259.099 104.991 258.613 104.719C258.13 104.443 257.758 104.054 257.497 103.551C257.235 103.045 257.105 102.447 257.105 101.757C257.105 101.084 257.235 100.493 257.497 99.9844C257.758 99.4759 258.126 99.0795 258.6 98.7955C259.078 98.5114 259.637 98.3693 260.279 98.3693C260.711 98.3693 261.113 98.4389 261.485 98.5781C261.86 98.7145 262.187 98.9205 262.466 99.196C262.747 99.4716 262.966 99.8182 263.122 100.236C263.278 100.651 263.356 101.136 263.356 101.693V102.192H257.829V101.067H261.647C261.647 100.805 261.591 100.574 261.477 100.372C261.363 100.17 261.206 100.013 261.004 99.8991C260.805 99.7827 260.574 99.7244 260.309 99.7244C260.034 99.7244 259.789 99.7884 259.576 99.9162C259.366 100.041 259.201 100.21 259.082 100.423C258.963 100.634 258.902 100.868 258.899 101.126V102.196C258.899 102.52 258.958 102.8 259.078 103.036C259.2 103.271 259.372 103.453 259.593 103.581C259.815 103.709 260.078 103.773 260.382 103.773C260.583 103.773 260.768 103.744 260.936 103.688C261.103 103.631 261.247 103.545 261.366 103.432C261.485 103.318 261.576 103.179 261.639 103.014L263.318 103.125C263.233 103.528 263.058 103.881 262.794 104.182C262.532 104.48 262.194 104.713 261.779 104.881C261.368 105.045 260.892 105.128 260.352 105.128ZM264.541 105V98.4545H266.301V99.5966H266.369C266.488 99.1903 266.689 98.8835 266.97 98.6761C267.251 98.4659 267.575 98.3608 267.941 98.3608C268.032 98.3608 268.13 98.3665 268.235 98.3778C268.341 98.3892 268.433 98.4048 268.512 98.4247V100.036C268.427 100.01 268.309 99.9872 268.159 99.9673C268.008 99.9474 267.87 99.9375 267.745 99.9375C267.478 99.9375 267.24 99.9957 267.029 100.112C266.822 100.226 266.657 100.385 266.535 100.589C266.416 100.794 266.356 101.03 266.356 101.297V105H264.541Z" fill="#092AD0"/>
<rect x="145.625" y="111.875" width="44.25" height="18" rx="3.375" fill="#092AD0" fill-opacity="0.56" stroke="#092AD0" stroke-width="0.75"/>
<path d="M153.523 124.25L154.597 117.705H155.62L154.546 124.25H153.523ZM150.593 122.626L150.762 121.604H155.876L155.706 122.626H150.593ZM151.222 124.25L152.296 117.705H153.319L152.245 124.25H151.222ZM150.967 120.351L151.139 119.328H156.253L156.08 120.351H150.967ZM158.997 124.25V117.705H161.579C162.073 117.705 162.495 117.793 162.845 117.97C163.196 118.145 163.464 118.393 163.647 118.714C163.832 119.034 163.925 119.41 163.925 119.843C163.925 120.277 163.831 120.651 163.644 120.964C163.456 121.276 163.184 121.514 162.829 121.68C162.475 121.847 162.047 121.93 161.544 121.93H159.815V120.817H161.32C161.584 120.817 161.804 120.781 161.979 120.709C162.153 120.636 162.283 120.528 162.368 120.383C162.456 120.238 162.499 120.058 162.499 119.843C162.499 119.625 162.456 119.442 162.368 119.293C162.283 119.144 162.152 119.031 161.975 118.954C161.801 118.875 161.58 118.836 161.314 118.836H160.381V124.25H158.997ZM162.531 121.271L164.158 124.25H162.631L161.039 121.271H162.531ZM167.035 124.346C166.53 124.346 166.096 124.244 165.731 124.039C165.369 123.832 165.09 123.54 164.894 123.163C164.698 122.784 164.6 122.336 164.6 121.818C164.6 121.313 164.698 120.87 164.894 120.488C165.09 120.107 165.366 119.81 165.722 119.597C166.08 119.384 166.5 119.277 166.981 119.277C167.305 119.277 167.606 119.329 167.886 119.434C168.167 119.536 168.412 119.69 168.621 119.897C168.832 120.104 168.996 120.364 169.113 120.677C169.23 120.988 169.289 121.352 169.289 121.77V122.144H165.143V121.3H168.007C168.007 121.104 167.964 120.93 167.879 120.779C167.794 120.628 167.676 120.51 167.524 120.424C167.375 120.337 167.202 120.293 167.003 120.293C166.797 120.293 166.614 120.341 166.454 120.437C166.296 120.531 166.172 120.658 166.083 120.817C165.994 120.975 165.948 121.151 165.946 121.345V122.147C165.946 122.39 165.99 122.6 166.08 122.777C166.171 122.953 166.3 123.09 166.467 123.186C166.633 123.282 166.83 123.33 167.058 123.33C167.209 123.33 167.348 123.308 167.473 123.266C167.599 123.223 167.707 123.159 167.796 123.074C167.886 122.989 167.954 122.884 168.001 122.761L169.26 122.844C169.196 123.146 169.065 123.411 168.867 123.636C168.671 123.86 168.417 124.035 168.106 124.161C167.797 124.284 167.44 124.346 167.035 124.346ZM171.577 124.343C171.264 124.343 170.985 124.288 170.74 124.18C170.495 124.069 170.301 123.906 170.158 123.691C170.017 123.473 169.947 123.203 169.947 122.879C169.947 122.606 169.997 122.377 170.097 122.192C170.197 122.006 170.334 121.857 170.506 121.744C170.679 121.631 170.875 121.546 171.094 121.489C171.316 121.431 171.548 121.391 171.791 121.367C172.077 121.337 172.307 121.31 172.481 121.284C172.656 121.256 172.783 121.216 172.862 121.163C172.941 121.109 172.98 121.031 172.98 120.926V120.907C172.98 120.705 172.916 120.548 172.788 120.437C172.663 120.326 172.484 120.271 172.251 120.271C172.006 120.271 171.811 120.325 171.666 120.434C171.522 120.54 171.426 120.675 171.379 120.837L170.12 120.734C170.184 120.436 170.309 120.178 170.497 119.961C170.684 119.741 170.926 119.573 171.222 119.456C171.521 119.337 171.866 119.277 172.258 119.277C172.53 119.277 172.791 119.309 173.041 119.373C173.292 119.437 173.515 119.536 173.709 119.67C173.905 119.804 174.059 119.977 174.172 120.188C174.285 120.397 174.342 120.647 174.342 120.939V124.25H173.05V123.569H173.012C172.933 123.723 172.828 123.858 172.696 123.975C172.563 124.09 172.405 124.181 172.219 124.247C172.034 124.311 171.82 124.343 171.577 124.343ZM171.967 123.403C172.167 123.403 172.344 123.364 172.497 123.285C172.651 123.204 172.771 123.095 172.859 122.959C172.946 122.822 172.99 122.668 172.99 122.495V121.974C172.947 122.002 172.888 122.028 172.814 122.051C172.741 122.072 172.659 122.093 172.568 122.112C172.476 122.129 172.384 122.145 172.293 122.16C172.201 122.173 172.118 122.184 172.044 122.195C171.884 122.218 171.744 122.256 171.625 122.307C171.506 122.358 171.413 122.427 171.347 122.515C171.281 122.6 171.248 122.706 171.248 122.834C171.248 123.02 171.315 123.161 171.449 123.259C171.585 123.355 171.758 123.403 171.967 123.403ZM177.616 124.346C177.113 124.346 176.68 124.239 176.318 124.026C175.958 123.811 175.681 123.513 175.487 123.131C175.296 122.75 175.2 122.311 175.2 121.815C175.2 121.312 175.297 120.871 175.491 120.491C175.687 120.11 175.965 119.813 176.325 119.6C176.685 119.385 177.113 119.277 177.609 119.277C178.038 119.277 178.413 119.355 178.734 119.51C179.056 119.666 179.311 119.884 179.498 120.165C179.686 120.447 179.789 120.777 179.808 121.156H178.524C178.487 120.911 178.391 120.714 178.236 120.565C178.082 120.414 177.881 120.338 177.632 120.338C177.421 120.338 177.237 120.396 177.079 120.511C176.923 120.624 176.802 120.789 176.715 121.006C176.627 121.223 176.584 121.487 176.584 121.795C176.584 122.109 176.626 122.375 176.711 122.594C176.799 122.814 176.921 122.981 177.079 123.096C177.237 123.211 177.421 123.269 177.632 123.269C177.787 123.269 177.927 123.237 178.051 123.173C178.176 123.109 178.28 123.016 178.361 122.895C178.444 122.771 178.498 122.623 178.524 122.451H179.808C179.787 122.826 179.685 123.156 179.502 123.441C179.32 123.725 179.07 123.946 178.75 124.106C178.431 124.266 178.053 124.346 177.616 124.346ZM183.291 119.341V120.364H180.335V119.341H183.291ZM181.006 118.165H182.368V122.741C182.368 122.867 182.387 122.965 182.425 123.036C182.463 123.104 182.517 123.152 182.585 123.179C182.655 123.207 182.736 123.221 182.828 123.221C182.892 123.221 182.956 123.216 183.02 123.205C183.083 123.192 183.132 123.183 183.167 123.176L183.381 124.189C183.313 124.211 183.217 124.235 183.093 124.263C182.969 124.293 182.819 124.311 182.642 124.317C182.314 124.33 182.027 124.286 181.779 124.186C181.534 124.086 181.344 123.93 181.207 123.719C181.071 123.509 181.004 123.242 181.006 122.92V118.165Z" fill="white"/>
<rect x="197.375" y="111.875" width="70.5" height="18" rx="3.375" fill="#092AD0" fill-opacity="0.56" stroke="#092AD0" stroke-width="0.75"/>
<path d="M207.523 124.25L208.597 117.705H209.62L208.546 124.25H207.523ZM204.593 122.626L204.762 121.604H209.876L209.706 122.626H204.593ZM205.222 124.25L206.296 117.705H207.319L206.245 124.25H205.222ZM204.967 120.351L205.139 119.328H210.253L210.08 120.351H204.967ZM212.747 118.846V117.705H218.123V118.846H216.119V124.25H214.751V118.846H212.747ZM219.261 126.091C219.088 126.091 218.926 126.077 218.775 126.049C218.626 126.024 218.502 125.991 218.404 125.95L218.711 124.934C218.871 124.983 219.015 125.01 219.143 125.014C219.273 125.018 219.384 124.988 219.478 124.924C219.574 124.86 219.652 124.752 219.711 124.598L219.791 124.391L218.03 119.341H219.462L220.479 122.946H220.53L221.556 119.341H222.997L221.089 124.781C220.997 125.045 220.873 125.275 220.715 125.471C220.559 125.669 220.362 125.821 220.124 125.928C219.885 126.037 219.597 126.091 219.261 126.091ZM223.694 126.091V119.341H225.036V120.165H225.097C225.156 120.033 225.243 119.899 225.356 119.763C225.471 119.624 225.62 119.509 225.803 119.418C225.988 119.324 226.219 119.277 226.493 119.277C226.851 119.277 227.182 119.371 227.484 119.558C227.787 119.744 228.029 120.024 228.21 120.399C228.391 120.772 228.481 121.239 228.481 121.802C228.481 122.349 228.393 122.812 228.216 123.189C228.041 123.564 227.803 123.848 227.5 124.042C227.2 124.234 226.863 124.33 226.49 124.33C226.226 124.33 226.001 124.286 225.816 124.199C225.633 124.112 225.482 124.002 225.365 123.87C225.248 123.735 225.159 123.6 225.097 123.464H225.055V126.091H223.694ZM225.026 121.795C225.026 122.087 225.067 122.342 225.148 122.559C225.229 122.777 225.346 122.946 225.499 123.067C225.653 123.187 225.839 123.246 226.059 123.246C226.28 123.246 226.468 123.186 226.621 123.064C226.775 122.941 226.891 122.77 226.97 122.553C227.051 122.333 227.091 122.081 227.091 121.795C227.091 121.512 227.052 121.263 226.973 121.048C226.894 120.832 226.778 120.664 226.624 120.543C226.471 120.421 226.282 120.36 226.059 120.36C225.837 120.36 225.65 120.419 225.496 120.536C225.345 120.653 225.229 120.82 225.148 121.035C225.067 121.25 225.026 121.504 225.026 121.795ZM231.626 124.346C231.121 124.346 230.687 124.244 230.322 124.039C229.96 123.832 229.681 123.54 229.485 123.163C229.289 122.784 229.191 122.336 229.191 121.818C229.191 121.313 229.289 120.87 229.485 120.488C229.681 120.107 229.957 119.81 230.313 119.597C230.671 119.384 231.09 119.277 231.572 119.277C231.896 119.277 232.197 119.329 232.476 119.434C232.758 119.536 233.003 119.69 233.211 119.897C233.422 120.104 233.586 120.364 233.704 120.677C233.821 120.988 233.879 121.352 233.879 121.77V122.144H229.734V121.3H232.598C232.598 121.104 232.555 120.93 232.47 120.779C232.385 120.628 232.267 120.51 232.115 120.424C231.966 120.337 231.792 120.293 231.594 120.293C231.388 120.293 231.204 120.341 231.045 120.437C230.887 120.531 230.763 120.658 230.674 120.817C230.584 120.975 230.539 121.151 230.536 121.345V122.147C230.536 122.39 230.581 122.6 230.671 122.777C230.762 122.953 230.891 123.09 231.057 123.186C231.224 123.282 231.421 123.33 231.649 123.33C231.8 123.33 231.938 123.308 232.064 123.266C232.19 123.223 232.297 123.159 232.387 123.074C232.476 122.989 232.545 122.884 232.591 122.761L233.851 122.844C233.787 123.146 233.656 123.411 233.458 123.636C233.262 123.86 233.008 124.035 232.697 124.161C232.388 124.284 232.031 124.346 231.626 124.346ZM238.852 120.741L237.606 120.817C237.585 120.711 237.539 120.615 237.469 120.53C237.398 120.442 237.306 120.373 237.191 120.322C237.078 120.269 236.942 120.242 236.785 120.242C236.574 120.242 236.396 120.287 236.251 120.376C236.106 120.464 236.034 120.581 236.034 120.728C236.034 120.845 236.08 120.944 236.174 121.025C236.268 121.106 236.429 121.171 236.657 121.22L237.545 121.399C238.023 121.497 238.378 121.655 238.613 121.872C238.847 122.089 238.964 122.375 238.964 122.729C238.964 123.05 238.869 123.333 238.68 123.576C238.492 123.819 238.235 124.008 237.906 124.145C237.58 124.279 237.204 124.346 236.778 124.346C236.128 124.346 235.611 124.211 235.225 123.94C234.841 123.667 234.617 123.297 234.551 122.828L235.89 122.757C235.93 122.956 236.028 123.107 236.184 123.211C236.339 123.314 236.539 123.365 236.781 123.365C237.02 123.365 237.212 123.319 237.357 123.227C237.504 123.134 237.578 123.013 237.58 122.866C237.578 122.743 237.526 122.641 237.424 122.562C237.322 122.482 237.164 122.42 236.951 122.377L236.101 122.208C235.621 122.112 235.264 121.946 235.03 121.709C234.798 121.473 234.682 121.171 234.682 120.805C234.682 120.489 234.767 120.218 234.937 119.99C235.11 119.762 235.352 119.586 235.663 119.462C235.976 119.339 236.343 119.277 236.762 119.277C237.382 119.277 237.87 119.408 238.226 119.67C238.584 119.932 238.793 120.289 238.852 120.741ZM242.04 124.346C241.537 124.346 241.104 124.239 240.742 124.026C240.382 123.811 240.105 123.513 239.911 123.131C239.719 122.75 239.623 122.311 239.623 121.815C239.623 121.312 239.72 120.871 239.914 120.491C240.11 120.11 240.388 119.813 240.748 119.6C241.109 119.385 241.537 119.277 242.033 119.277C242.462 119.277 242.837 119.355 243.158 119.51C243.48 119.666 243.735 119.884 243.922 120.165C244.11 120.447 244.213 120.777 244.232 121.156H242.947C242.911 120.911 242.815 120.714 242.66 120.565C242.506 120.414 242.305 120.338 242.056 120.338C241.845 120.338 241.66 120.396 241.503 120.511C241.347 120.624 241.226 120.789 241.138 121.006C241.051 121.223 241.007 121.487 241.007 121.795C241.007 122.109 241.05 122.375 241.135 122.594C241.223 122.814 241.345 122.981 241.503 123.096C241.66 123.211 241.845 123.269 242.056 123.269C242.211 123.269 242.351 123.237 242.474 123.173C242.6 123.109 242.703 123.016 242.784 122.895C242.867 122.771 242.922 122.623 242.947 122.451H244.232C244.211 122.826 244.109 123.156 243.925 123.441C243.744 123.725 243.494 123.946 243.174 124.106C242.855 124.266 242.476 124.346 242.04 124.346ZM245.104 124.25V119.341H246.424V120.197H246.475C246.564 119.893 246.715 119.663 246.926 119.507C247.137 119.349 247.379 119.271 247.654 119.271C247.722 119.271 247.796 119.275 247.875 119.283C247.954 119.292 248.023 119.304 248.083 119.319V120.527C248.019 120.507 247.93 120.49 247.817 120.475C247.704 120.461 247.601 120.453 247.507 120.453C247.307 120.453 247.128 120.497 246.97 120.584C246.815 120.669 246.691 120.789 246.6 120.942C246.51 121.096 246.465 121.272 246.465 121.473V124.25H245.104ZM248.786 124.25V119.341H250.148V124.25H248.786ZM249.47 118.708C249.268 118.708 249.094 118.641 248.949 118.507C248.807 118.37 248.735 118.207 248.735 118.018C248.735 117.83 248.807 117.669 248.949 117.535C249.094 117.399 249.268 117.331 249.47 117.331C249.673 117.331 249.845 117.399 249.988 117.535C250.133 117.669 250.206 117.83 250.206 118.018C250.206 118.207 250.133 118.37 249.988 118.507C249.845 118.641 249.673 118.708 249.47 118.708ZM251.239 126.091V119.341H252.581V120.165H252.642C252.701 120.033 252.788 119.899 252.901 119.763C253.016 119.624 253.165 119.509 253.348 119.418C253.533 119.324 253.763 119.277 254.038 119.277C254.396 119.277 254.727 119.371 255.029 119.558C255.332 119.744 255.574 120.024 255.755 120.399C255.936 120.772 256.026 121.239 256.026 121.802C256.026 122.349 255.938 122.812 255.761 123.189C255.586 123.564 255.348 123.848 255.045 124.042C254.745 124.234 254.408 124.33 254.035 124.33C253.771 124.33 253.546 124.286 253.361 124.199C253.178 124.112 253.027 124.002 252.91 123.87C252.793 123.735 252.703 123.6 252.642 123.464H252.6V126.091H251.239ZM252.571 121.795C252.571 122.087 252.612 122.342 252.693 122.559C252.774 122.777 252.891 122.946 253.044 123.067C253.198 123.187 253.384 123.246 253.604 123.246C253.825 123.246 254.013 123.186 254.166 123.064C254.32 122.941 254.436 122.77 254.515 122.553C254.596 122.333 254.636 122.081 254.636 121.795C254.636 121.512 254.597 121.263 254.518 121.048C254.439 120.832 254.323 120.664 254.169 120.543C254.016 120.421 253.827 120.36 253.604 120.36C253.382 120.36 253.195 120.419 253.041 120.536C252.89 120.653 252.774 120.82 252.693 121.035C252.612 121.25 252.571 121.504 252.571 121.795ZM259.545 119.341V120.364H256.589V119.341H259.545ZM257.26 118.165H258.621V122.741C258.621 122.867 258.641 122.965 258.679 123.036C258.717 123.104 258.771 123.152 258.839 123.179C258.909 123.207 258.99 123.221 259.082 123.221C259.146 123.221 259.21 123.216 259.273 123.205C259.337 123.192 259.386 123.183 259.42 123.176L259.635 124.189C259.566 124.211 259.471 124.235 259.347 124.263C259.223 124.293 259.073 124.311 258.896 124.317C258.568 124.33 258.281 124.286 258.033 124.186C257.788 124.086 257.598 123.93 257.461 123.719C257.325 123.509 257.258 123.242 257.26 122.92V118.165Z" fill="white"/>
<rect x="275.375" y="111.875" width="66.75" height="18" rx="3.375" fill="#092AD0" fill-opacity="0.56" stroke="#092AD0" stroke-width="0.75"/>
<path d="M287.773 124.25L288.847 117.705H289.87L288.796 124.25H287.773ZM284.843 122.626L285.012 121.604H290.126L289.956 122.626H284.843ZM285.472 124.25L286.546 117.705H287.569L286.495 124.25H285.472ZM285.217 120.351L285.389 119.328H290.503L290.33 120.351H285.217ZM297.587 119.82C297.542 119.665 297.479 119.527 297.398 119.408C297.317 119.287 297.218 119.184 297.101 119.101C296.986 119.016 296.854 118.951 296.705 118.906C296.558 118.862 296.395 118.839 296.216 118.839C295.881 118.839 295.587 118.922 295.334 119.088C295.082 119.255 294.886 119.496 294.746 119.814C294.605 120.129 294.535 120.515 294.535 120.971C294.535 121.427 294.604 121.815 294.742 122.134C294.881 122.454 295.077 122.698 295.33 122.866C295.584 123.032 295.883 123.115 296.229 123.115C296.542 123.115 296.809 123.06 297.031 122.949C297.254 122.836 297.425 122.678 297.542 122.473C297.661 122.268 297.721 122.027 297.721 121.748L298.002 121.789H296.315V120.747H299.054V121.572C299.054 122.147 298.932 122.641 298.689 123.055C298.447 123.466 298.112 123.783 297.686 124.007C297.26 124.229 296.772 124.339 296.222 124.339C295.608 124.339 295.069 124.204 294.605 123.934C294.14 123.661 293.778 123.274 293.518 122.773C293.26 122.271 293.132 121.674 293.132 120.984C293.132 120.453 293.208 119.98 293.362 119.565C293.517 119.147 293.735 118.793 294.014 118.504C294.293 118.214 294.618 117.993 294.988 117.842C295.359 117.691 295.761 117.615 296.193 117.615C296.564 117.615 296.909 117.669 297.229 117.778C297.548 117.885 297.832 118.036 298.079 118.232C298.328 118.428 298.532 118.661 298.689 118.932C298.847 119.2 298.948 119.496 298.993 119.82H297.587ZM300.068 124.25V119.341H301.388V120.197H301.439C301.528 119.893 301.679 119.663 301.889 119.507C302.1 119.349 302.343 119.271 302.618 119.271C302.686 119.271 302.76 119.275 302.839 119.283C302.918 119.292 302.987 119.304 303.046 119.319V120.527C302.983 120.507 302.894 120.49 302.781 120.475C302.668 120.461 302.565 120.453 302.471 120.453C302.271 120.453 302.092 120.497 301.934 120.584C301.779 120.669 301.655 120.789 301.563 120.942C301.474 121.096 301.429 121.272 301.429 121.473V124.25H300.068ZM305.01 124.343C304.696 124.343 304.417 124.288 304.172 124.18C303.927 124.069 303.733 123.906 303.591 123.691C303.45 123.473 303.38 123.203 303.38 122.879C303.38 122.606 303.43 122.377 303.53 122.192C303.63 122.006 303.766 121.857 303.939 121.744C304.112 121.631 304.308 121.546 304.527 121.489C304.749 121.431 304.981 121.391 305.224 121.367C305.509 121.337 305.739 121.31 305.914 121.284C306.089 121.256 306.216 121.216 306.294 121.163C306.373 121.109 306.413 121.031 306.413 120.926V120.907C306.413 120.705 306.349 120.548 306.221 120.437C306.095 120.326 305.916 120.271 305.684 120.271C305.439 120.271 305.244 120.325 305.099 120.434C304.954 120.54 304.858 120.675 304.811 120.837L303.552 120.734C303.616 120.436 303.742 120.178 303.929 119.961C304.117 119.741 304.359 119.573 304.655 119.456C304.953 119.337 305.298 119.277 305.69 119.277C305.963 119.277 306.224 119.309 306.473 119.373C306.725 119.437 306.947 119.536 307.141 119.67C307.337 119.804 307.492 119.977 307.605 120.188C307.718 120.397 307.774 120.647 307.774 120.939V124.25H306.483V123.569H306.445C306.366 123.723 306.26 123.858 306.128 123.975C305.996 124.09 305.837 124.181 305.652 124.247C305.467 124.311 305.252 124.343 305.01 124.343ZM305.4 123.403C305.6 123.403 305.777 123.364 305.93 123.285C306.083 123.204 306.204 123.095 306.291 122.959C306.379 122.822 306.422 122.668 306.422 122.495V121.974C306.38 122.002 306.321 122.028 306.246 122.051C306.174 122.072 306.092 122.093 306 122.112C305.909 122.129 305.817 122.145 305.725 122.16C305.634 122.173 305.551 122.184 305.476 122.195C305.316 122.218 305.177 122.256 305.058 122.307C304.938 122.358 304.846 122.427 304.779 122.515C304.713 122.6 304.68 122.706 304.68 122.834C304.68 123.02 304.748 123.161 304.882 123.259C305.018 123.355 305.191 123.403 305.4 123.403ZM308.83 126.091V119.341H310.173V120.165H310.233C310.293 120.033 310.379 119.899 310.492 119.763C310.607 119.624 310.757 119.509 310.94 119.418C311.125 119.324 311.355 119.277 311.63 119.277C311.988 119.277 312.318 119.371 312.621 119.558C312.923 119.744 313.165 120.024 313.346 120.399C313.528 120.772 313.618 121.239 313.618 121.802C313.618 122.349 313.53 122.812 313.353 123.189C313.178 123.564 312.939 123.848 312.637 124.042C312.336 124.234 312 124.33 311.627 124.33C311.363 124.33 311.138 124.286 310.953 124.199C310.769 124.112 310.619 124.002 310.502 123.87C310.385 123.735 310.295 123.6 310.233 123.464H310.192V126.091H308.83ZM310.163 121.795C310.163 122.087 310.204 122.342 310.285 122.559C310.366 122.777 310.483 122.946 310.636 123.067C310.79 123.187 310.976 123.246 311.195 123.246C311.417 123.246 311.605 123.186 311.758 123.064C311.911 122.941 312.028 122.77 312.106 122.553C312.187 122.333 312.228 122.081 312.228 121.795C312.228 121.512 312.188 121.263 312.11 121.048C312.031 120.832 311.915 120.664 311.761 120.543C311.608 120.421 311.419 120.36 311.195 120.36C310.974 120.36 310.786 120.419 310.633 120.536C310.482 120.653 310.366 120.82 310.285 121.035C310.204 121.25 310.163 121.504 310.163 121.795ZM315.887 121.412V124.25H314.526V117.705H315.849V120.207H315.906C316.017 119.917 316.196 119.69 316.443 119.526C316.691 119.36 317.001 119.277 317.373 119.277C317.714 119.277 318.012 119.352 318.265 119.501C318.521 119.648 318.719 119.86 318.86 120.137C319.002 120.412 319.073 120.741 319.07 121.124V124.25H317.709V121.367C317.711 121.065 317.634 120.829 317.479 120.661C317.325 120.493 317.11 120.408 316.833 120.408C316.648 120.408 316.484 120.448 316.341 120.527C316.2 120.605 316.09 120.721 316.009 120.872C315.93 121.021 315.889 121.201 315.887 121.412ZM322.638 121.974H323.814L324.405 122.735L324.987 123.413L326.083 124.787H324.792L324.038 123.86L323.651 123.31L322.638 121.974ZM326.182 120.977C326.182 121.691 326.047 122.298 325.777 122.799C325.508 123.3 325.142 123.682 324.677 123.946C324.215 124.208 323.695 124.339 323.117 124.339C322.536 124.339 322.014 124.207 321.551 123.943C321.089 123.679 320.724 123.297 320.455 122.796C320.187 122.295 320.052 121.689 320.052 120.977C320.052 120.263 320.187 119.656 320.455 119.156C320.724 118.655 321.089 118.273 321.551 118.011C322.014 117.747 322.536 117.615 323.117 117.615C323.695 117.615 324.215 117.747 324.677 118.011C325.142 118.273 325.508 118.655 325.777 119.156C326.047 119.656 326.182 120.263 326.182 120.977ZM324.779 120.977C324.779 120.515 324.71 120.125 324.572 119.808C324.435 119.49 324.242 119.249 323.993 119.085C323.744 118.921 323.452 118.839 323.117 118.839C322.783 118.839 322.491 118.921 322.242 119.085C321.992 119.249 321.799 119.49 321.66 119.808C321.524 120.125 321.456 120.515 321.456 120.977C321.456 121.44 321.524 121.83 321.66 122.147C321.799 122.464 321.992 122.705 322.242 122.869C322.491 123.033 322.783 123.115 323.117 123.115C323.452 123.115 323.744 123.033 323.993 122.869C324.242 122.705 324.435 122.464 324.572 122.147C324.71 121.83 324.779 121.44 324.779 120.977ZM327.208 124.25V117.705H328.591V123.109H331.398V124.25H327.208Z" fill="white"/>
</g>
<defs>
<filter id="filter0_d_799_1297" x="0" y="0" width="475" height="201.25" filterUnits="userSpaceOnUse" color-interpolation-filters="sRGB">
<feFlood flood-opacity="0" result="BackgroundImageFix"/>
<feColorMatrix in="SourceAlpha" type="matrix" values="0 0 0 0 0 0 0 0 0 0 0 0 0 0 0 0 0 0 127 0" result="hardAlpha"/>
<feOffset/>
<feGaussianBlur stdDeviation="25"/>
<feComposite in2="hardAlpha" operator="out"/>
<feColorMatrix type="matrix" values="0 0 0 0 0 0 0 0 0 0 0 0 0 0 0 0 0 0 0.09 0"/>
<feBlend mode="normal" in2="BackgroundImageFix" result="effect1_dropShadow_799_1297"/>
<feBlend mode="normal" in="SourceGraphic" in2="effect1_dropShadow_799_1297" result="shape"/>
</filter>
</defs>
</svg>
