<svg width="350" height="168" viewBox="0 0 350 168" fill="none" xmlns="http://www.w3.org/2000/svg">
<g filter="url(#filter0_d_799_1372)">
<rect x="50" y="50" width="250" height="67.5" rx="17.5" fill="white"/>
<circle cx="87.5" cy="83.5" r="20" fill="#C4C4C4"/>
<rect x="78.5" y="86" width="18" height="10" rx="2.5" fill="white"/>
<circle cx="87.25" cy="77.75" r="6.25" fill="white"/>
<path d="M116.71 76H114.132V68.7273H116.732C117.463 68.7273 118.093 68.8729 118.621 69.1641C119.149 69.4529 119.555 69.8684 119.839 70.4105C120.125 70.9527 120.268 71.6013 120.268 72.3565C120.268 73.1141 120.125 73.7652 119.839 74.3097C119.555 74.8542 119.146 75.272 118.614 75.5632C118.083 75.8544 117.449 76 116.71 76ZM115.67 74.6825H116.646C117.101 74.6825 117.483 74.602 117.793 74.4411C118.106 74.2777 118.34 74.0256 118.496 73.6847C118.655 73.3414 118.734 72.8987 118.734 72.3565C118.734 71.8191 118.655 71.38 118.496 71.0391C118.34 70.6982 118.107 70.4472 117.797 70.2862C117.487 70.1252 117.104 70.0447 116.65 70.0447H115.67V74.6825ZM122.934 76.103C122.586 76.103 122.276 76.0426 122.004 75.9219C121.732 75.7988 121.516 75.6177 121.358 75.3786C121.202 75.1371 121.123 74.8364 121.123 74.4766C121.123 74.1735 121.179 73.919 121.29 73.7131C121.402 73.5071 121.553 73.3414 121.745 73.2159C121.937 73.0904 122.154 72.9957 122.398 72.9318C122.644 72.8679 122.903 72.8229 123.172 72.7969C123.49 72.7637 123.745 72.733 123.939 72.7045C124.134 72.6738 124.274 72.6288 124.362 72.5696C124.45 72.5104 124.493 72.4228 124.493 72.3068V72.2855C124.493 72.0606 124.422 71.8866 124.28 71.7635C124.141 71.6404 123.942 71.5788 123.684 71.5788C123.412 71.5788 123.195 71.6392 123.034 71.7599C122.873 71.8783 122.766 72.0275 122.714 72.2074L121.315 72.0938C121.386 71.7623 121.526 71.4759 121.734 71.2344C121.943 70.9905 122.211 70.8035 122.54 70.6733C122.872 70.5407 123.255 70.4744 123.691 70.4744C123.994 70.4744 124.284 70.5099 124.561 70.581C124.84 70.652 125.088 70.7621 125.303 70.9112C125.521 71.0604 125.693 71.2521 125.818 71.4865C125.943 71.7185 126.006 71.9967 126.006 72.321V76H124.572V75.2436H124.529C124.441 75.4141 124.324 75.5644 124.177 75.6946C124.031 75.8224 123.854 75.9231 123.648 75.9964C123.442 76.0675 123.204 76.103 122.934 76.103ZM123.368 75.0589C123.59 75.0589 123.787 75.0152 123.957 74.9276C124.128 74.8376 124.261 74.7169 124.358 74.5653C124.456 74.4138 124.504 74.2422 124.504 74.0504V73.4716C124.457 73.5024 124.392 73.5308 124.309 73.5568C124.228 73.5805 124.137 73.603 124.035 73.6243C123.934 73.6432 123.832 73.661 123.73 73.6776C123.628 73.6918 123.536 73.7048 123.453 73.7166C123.275 73.7427 123.12 73.7841 122.988 73.8409C122.855 73.8977 122.752 73.9747 122.679 74.0717C122.605 74.1664 122.569 74.2848 122.569 74.4268C122.569 74.6328 122.643 74.7902 122.792 74.8991C122.944 75.0057 123.136 75.0589 123.368 75.0589ZM132.07 70.5455L130.163 76H128.458L126.551 70.5455H128.149L129.282 74.4482H129.339L130.468 70.5455H132.07ZM132.844 76V70.5455H134.357V76H132.844ZM133.604 69.8423C133.379 69.8423 133.186 69.7678 133.025 69.6186C132.866 69.4671 132.787 69.286 132.787 69.0753C132.787 68.867 132.866 68.6882 133.025 68.5391C133.186 68.3875 133.379 68.3118 133.604 68.3118C133.829 68.3118 134.021 68.3875 134.179 68.5391C134.34 68.6882 134.421 68.867 134.421 69.0753C134.421 69.286 134.34 69.4671 134.179 69.6186C134.021 69.7678 133.829 69.8423 133.604 69.8423ZM137.578 76.0888C137.164 76.0888 136.789 75.9822 136.453 75.7692C136.119 75.5537 135.854 75.2377 135.657 74.821C135.463 74.402 135.366 73.8883 135.366 73.2798C135.366 72.6548 135.467 72.1352 135.668 71.7209C135.869 71.3042 136.137 70.9929 136.471 70.7869C136.807 70.5786 137.175 70.4744 137.575 70.4744C137.88 70.4744 138.135 70.5265 138.338 70.6307C138.544 70.7325 138.71 70.8603 138.836 71.0142C138.963 71.1657 139.06 71.3149 139.127 71.4616H139.173V68.7273H140.682V76H139.191V75.1264H139.127C139.056 75.2779 138.955 75.4283 138.825 75.5774C138.697 75.7242 138.53 75.8461 138.324 75.9432C138.121 76.0402 137.872 76.0888 137.578 76.0888ZM138.058 74.8849C138.302 74.8849 138.508 74.8187 138.676 74.6861C138.846 74.5511 138.976 74.3629 139.066 74.1214C139.159 73.88 139.205 73.5971 139.205 73.2727C139.205 72.9484 139.16 72.6667 139.07 72.4276C138.98 72.1884 138.85 72.0038 138.679 71.8736C138.509 71.7434 138.302 71.6783 138.058 71.6783C137.809 71.6783 137.6 71.7457 137.429 71.8807C137.259 72.0156 137.13 72.2027 137.042 72.4418C136.955 72.6809 136.911 72.9579 136.911 73.2727C136.911 73.59 136.955 73.8705 137.042 74.1143C137.132 74.3558 137.261 74.5452 137.429 74.6825C137.6 74.8175 137.809 74.8849 138.058 74.8849ZM144.269 68.7273H146.165L148.168 73.6136H148.253L150.256 68.7273H152.152V76H150.661V71.2663H150.6L148.718 75.9645H147.703L145.821 71.2486H145.76V76H144.269V68.7273ZM154.946 76.103C154.598 76.103 154.288 76.0426 154.016 75.9219C153.744 75.7988 153.528 75.6177 153.369 75.3786C153.213 75.1371 153.135 74.8364 153.135 74.4766C153.135 74.1735 153.191 73.919 153.302 73.7131C153.413 73.5071 153.565 73.3414 153.757 73.2159C153.948 73.0904 154.166 72.9957 154.41 72.9318C154.656 72.8679 154.914 72.8229 155.184 72.7969C155.501 72.7637 155.757 72.733 155.951 72.7045C156.145 72.6738 156.286 72.6288 156.374 72.5696C156.461 72.5104 156.505 72.4228 156.505 72.3068V72.2855C156.505 72.0606 156.434 71.8866 156.292 71.7635C156.152 71.6404 155.954 71.5788 155.695 71.5788C155.423 71.5788 155.207 71.6392 155.046 71.7599C154.885 71.8783 154.778 72.0275 154.726 72.2074L153.327 72.0938C153.398 71.7623 153.538 71.4759 153.746 71.2344C153.954 70.9905 154.223 70.8035 154.552 70.6733C154.883 70.5407 155.267 70.4744 155.703 70.4744C156.006 70.4744 156.296 70.5099 156.573 70.581C156.852 70.652 157.099 70.7621 157.315 70.9112C157.533 71.0604 157.704 71.2521 157.83 71.4865C157.955 71.7185 158.018 71.9967 158.018 72.321V76H156.583V75.2436H156.541C156.453 75.4141 156.336 75.5644 156.189 75.6946C156.042 75.8224 155.866 75.9231 155.66 75.9964C155.454 76.0675 155.216 76.103 154.946 76.103ZM155.379 75.0589C155.602 75.0589 155.798 75.0152 155.969 74.9276C156.139 74.8376 156.273 74.7169 156.37 74.5653C156.467 74.4138 156.516 74.2422 156.516 74.0504V73.4716C156.468 73.5024 156.403 73.5308 156.32 73.5568C156.24 73.5805 156.149 73.603 156.047 73.6243C155.945 73.6432 155.843 73.661 155.742 73.6776C155.64 73.6918 155.548 73.7048 155.465 73.7166C155.287 73.7427 155.132 73.7841 154.999 73.8409C154.867 73.8977 154.764 73.9747 154.691 74.0717C154.617 74.1664 154.58 74.2848 154.58 74.4268C154.58 74.6328 154.655 74.7902 154.804 74.8991C154.956 75.0057 155.147 75.0589 155.379 75.0589ZM159.192 76V70.5455H160.658V71.4972H160.715C160.814 71.1586 160.981 70.9029 161.216 70.7301C161.45 70.5549 161.72 70.4673 162.025 70.4673C162.101 70.4673 162.183 70.4721 162.27 70.4815C162.358 70.491 162.435 70.504 162.501 70.5206V71.8629C162.43 71.8416 162.332 71.8227 162.206 71.8061C162.081 71.7895 161.966 71.7812 161.862 71.7812C161.64 71.7812 161.441 71.8298 161.265 71.9268C161.093 72.0215 160.955 72.1541 160.854 72.3246C160.754 72.495 160.704 72.6915 160.704 72.9141V76H159.192ZM166.458 70.5455V71.6818H163.173V70.5455H166.458ZM163.919 69.2386H165.432V74.3239C165.432 74.4635 165.453 74.5724 165.496 74.6506C165.538 74.7263 165.598 74.7796 165.673 74.8104C165.751 74.8411 165.841 74.8565 165.943 74.8565C166.014 74.8565 166.085 74.8506 166.156 74.8388C166.227 74.8246 166.282 74.8139 166.32 74.8068L166.558 75.9325C166.482 75.9562 166.375 75.9834 166.238 76.0142C166.101 76.0473 165.934 76.0675 165.737 76.0746C165.373 76.0888 165.053 76.0402 164.778 75.929C164.506 75.8177 164.294 75.6449 164.143 75.4105C163.991 75.1761 163.917 74.8802 163.919 74.5227V69.2386ZM167.444 76V70.5455H168.956V76H167.444ZM168.203 69.8423C167.979 69.8423 167.786 69.7678 167.625 69.6186C167.466 69.4671 167.387 69.286 167.387 69.0753C167.387 68.867 167.466 68.6882 167.625 68.5391C167.786 68.3875 167.979 68.3118 168.203 68.3118C168.428 68.3118 168.62 68.3875 168.779 68.5391C168.94 68.6882 169.02 68.867 169.02 69.0753C169.02 69.286 168.94 69.4671 168.779 69.6186C168.62 69.7678 168.428 69.8423 168.203 69.8423ZM171.681 72.8466V76H170.168V70.5455H171.61V71.5078H171.674C171.795 71.1906 171.997 70.9396 172.281 70.755C172.565 70.5679 172.91 70.4744 173.314 70.4744C173.693 70.4744 174.023 70.5573 174.305 70.723C174.587 70.8887 174.806 71.1255 174.962 71.4332C175.118 71.7386 175.197 72.1032 175.197 72.527V76H173.684V72.7969C173.686 72.4631 173.601 72.2027 173.428 72.0156C173.255 71.8262 173.017 71.7315 172.714 71.7315C172.511 71.7315 172.331 71.7753 172.175 71.8629C172.021 71.9505 171.9 72.0784 171.812 72.2464C171.727 72.4122 171.683 72.6122 171.681 72.8466Z" fill="black"/>
<path d="M117.162 82.3551C117.139 82.1259 117.042 81.9479 116.869 81.821C116.697 81.6941 116.463 81.6307 116.168 81.6307C115.967 81.6307 115.797 81.6591 115.659 81.7159C115.521 81.7708 115.415 81.8475 115.341 81.946C115.269 82.0445 115.233 82.1562 115.233 82.2812C115.229 82.3854 115.251 82.4763 115.298 82.554C115.348 82.6316 115.415 82.6989 115.5 82.7557C115.585 82.8106 115.684 82.8589 115.795 82.9006C115.907 82.9403 116.027 82.9744 116.153 83.0028L116.676 83.1278C116.93 83.1847 117.163 83.2604 117.375 83.3551C117.587 83.4498 117.771 83.5663 117.926 83.7045C118.081 83.8428 118.202 84.0057 118.287 84.1932C118.374 84.3807 118.419 84.5956 118.42 84.8381C118.419 85.1941 118.328 85.5028 118.148 85.7642C117.97 86.0237 117.712 86.2254 117.375 86.3693C117.04 86.5114 116.635 86.5824 116.162 86.5824C115.692 86.5824 115.283 86.5104 114.935 86.3665C114.588 86.2225 114.317 86.0095 114.122 85.7273C113.929 85.4432 113.828 85.0919 113.818 84.6733H115.009C115.022 84.8684 115.078 85.0312 115.176 85.1619C115.277 85.2907 115.41 85.3883 115.577 85.4545C115.745 85.5189 115.936 85.5511 116.148 85.5511C116.356 85.5511 116.537 85.5208 116.69 85.4602C116.846 85.3996 116.966 85.3153 117.051 85.2074C117.136 85.0994 117.179 84.9754 117.179 84.8352C117.179 84.7045 117.14 84.5947 117.062 84.5057C116.987 84.4167 116.875 84.3409 116.727 84.2784C116.581 84.2159 116.402 84.1591 116.19 84.108L115.557 83.9489C115.066 83.8295 114.679 83.643 114.395 83.3892C114.111 83.1354 113.97 82.7936 113.972 82.3636C113.97 82.0114 114.063 81.7036 114.253 81.4403C114.444 81.1771 114.706 80.9716 115.04 80.8239C115.373 80.6761 115.752 80.6023 116.176 80.6023C116.608 80.6023 116.985 80.6761 117.307 80.8239C117.631 80.9716 117.883 81.1771 118.062 81.4403C118.242 81.7036 118.335 82.0085 118.341 82.3551H117.162ZM121.197 86.5852C120.755 86.5852 120.374 86.4915 120.052 86.304C119.732 86.1146 119.485 85.8513 119.31 85.5142C119.136 85.1752 119.049 84.7822 119.049 84.3352C119.049 83.8845 119.136 83.4905 119.31 83.1534C119.485 82.8144 119.732 82.5511 120.052 82.3636C120.374 82.1742 120.755 82.0795 121.197 82.0795C121.638 82.0795 122.019 82.1742 122.339 82.3636C122.661 82.5511 122.909 82.8144 123.083 83.1534C123.257 83.4905 123.344 83.8845 123.344 84.3352C123.344 84.7822 123.257 85.1752 123.083 85.5142C122.909 85.8513 122.661 86.1146 122.339 86.304C122.019 86.4915 121.638 86.5852 121.197 86.5852ZM121.202 85.6477C121.403 85.6477 121.571 85.5909 121.705 85.4773C121.84 85.3617 121.941 85.2045 122.009 85.0057C122.079 84.8068 122.114 84.5805 122.114 84.3267C122.114 84.0729 122.079 83.8466 122.009 83.6477C121.941 83.4489 121.84 83.2917 121.705 83.1761C121.571 83.0606 121.403 83.0028 121.202 83.0028C121 83.0028 120.829 83.0606 120.691 83.1761C120.555 83.2917 120.451 83.4489 120.381 83.6477C120.313 83.8466 120.279 84.0729 120.279 84.3267C120.279 84.5805 120.313 84.8068 120.381 85.0057C120.451 85.2045 120.555 85.3617 120.691 85.4773C120.829 85.5909 121 85.6477 121.202 85.6477ZM126.478 82.1364V83.0455H123.785V82.1364H126.478ZM124.401 86.5V81.821C124.401 81.5047 124.463 81.2424 124.586 81.0341C124.711 80.8258 124.881 80.6695 125.097 80.5653C125.313 80.4612 125.558 80.4091 125.833 80.4091C126.019 80.4091 126.188 80.4233 126.342 80.4517C126.497 80.4801 126.612 80.5057 126.688 80.5284L126.472 81.4375C126.425 81.4223 126.366 81.4081 126.296 81.3949C126.228 81.3816 126.158 81.375 126.086 81.375C125.908 81.375 125.784 81.4167 125.714 81.5C125.644 81.5814 125.609 81.696 125.609 81.8438V86.5H124.401ZM129.538 82.1364V83.0455H126.911V82.1364H129.538ZM127.507 81.0909H128.717V85.1591C128.717 85.2708 128.734 85.358 128.768 85.4205C128.803 85.4811 128.85 85.5237 128.911 85.5483C128.973 85.5729 129.045 85.5852 129.126 85.5852C129.183 85.5852 129.24 85.5805 129.297 85.571C129.354 85.5597 129.397 85.5511 129.428 85.5455L129.618 86.446C129.557 86.465 129.472 86.4867 129.362 86.5114C129.252 86.5379 129.119 86.554 128.962 86.5597C128.67 86.571 128.414 86.5322 128.195 86.4432C127.977 86.3542 127.807 86.2159 127.686 86.0284C127.565 85.8409 127.505 85.6042 127.507 85.3182V81.0909ZM131.188 86.5L130 82.1364H131.224L131.901 85.0682H131.94L132.645 82.1364H133.847L134.562 85.0511H134.599L135.264 82.1364H136.486L135.301 86.5H134.02L133.27 83.7557H133.216L132.466 86.5H131.188ZM138.376 86.5824C138.097 86.5824 137.849 86.5341 137.631 86.4375C137.414 86.339 137.241 86.1941 137.114 86.0028C136.989 85.8097 136.927 85.5691 136.927 85.2812C136.927 85.0388 136.971 84.8352 137.06 84.6705C137.149 84.5057 137.271 84.3731 137.424 84.2727C137.577 84.1723 137.752 84.0966 137.947 84.0455C138.144 83.9943 138.35 83.9583 138.566 83.9375C138.82 83.911 139.024 83.8864 139.18 83.8636C139.335 83.839 139.448 83.803 139.518 83.7557C139.588 83.7083 139.623 83.6383 139.623 83.5455V83.5284C139.623 83.3485 139.566 83.2093 139.452 83.1108C139.341 83.0123 139.182 82.9631 138.975 82.9631C138.757 82.9631 138.584 83.0114 138.455 83.108C138.326 83.2027 138.241 83.322 138.2 83.4659L137.08 83.375C137.137 83.1098 137.249 82.8807 137.415 82.6875C137.582 82.4924 137.797 82.3428 138.06 82.2386C138.326 82.1326 138.632 82.0795 138.981 82.0795C139.223 82.0795 139.455 82.108 139.677 82.1648C139.9 82.2216 140.098 82.3097 140.271 82.429C140.445 82.5483 140.582 82.7017 140.683 82.8892C140.783 83.0748 140.833 83.2973 140.833 83.5568V86.5H139.685V85.8949H139.651C139.581 86.0312 139.487 86.1515 139.37 86.2557C139.253 86.358 139.112 86.4384 138.947 86.4972C138.782 86.554 138.592 86.5824 138.376 86.5824ZM138.722 85.7472C138.9 85.7472 139.058 85.7121 139.194 85.642C139.33 85.5701 139.437 85.4735 139.515 85.3523C139.593 85.2311 139.631 85.0937 139.631 84.9403V84.4773C139.594 84.5019 139.541 84.5246 139.475 84.5455C139.411 84.5644 139.338 84.5824 139.256 84.5994C139.175 84.6146 139.094 84.6288 139.012 84.642C138.931 84.6534 138.857 84.6638 138.79 84.6733C138.648 84.6941 138.524 84.7273 138.418 84.7727C138.312 84.8182 138.23 84.8797 138.171 84.9574C138.112 85.0331 138.083 85.1278 138.083 85.2415C138.083 85.4062 138.143 85.5322 138.262 85.6193C138.383 85.7045 138.537 85.7472 138.722 85.7472ZM141.772 86.5V82.1364H142.945V82.8977H142.991C143.07 82.6269 143.204 82.4223 143.391 82.2841C143.579 82.1439 143.795 82.0739 144.039 82.0739C144.1 82.0739 144.165 82.0777 144.235 82.0852C144.305 82.0928 144.367 82.1032 144.42 82.1165V83.1903C144.363 83.1733 144.284 83.1581 144.184 83.1449C144.084 83.1316 143.992 83.125 143.908 83.125C143.73 83.125 143.571 83.1638 143.431 83.2415C143.293 83.3172 143.183 83.4233 143.102 83.5597C143.022 83.696 142.982 83.8532 142.982 84.0312V86.5H141.772ZM146.831 86.5852C146.382 86.5852 145.996 86.4943 145.672 86.3125C145.35 86.1288 145.102 85.8693 144.928 85.5341C144.753 85.197 144.666 84.7983 144.666 84.3381C144.666 83.8892 144.753 83.4953 144.928 83.1562C145.102 82.8172 145.347 82.553 145.663 82.3636C145.982 82.1742 146.355 82.0795 146.783 82.0795C147.071 82.0795 147.339 82.1259 147.587 82.2188C147.837 82.3097 148.054 82.447 148.24 82.6307C148.428 82.8144 148.573 83.0455 148.678 83.3239C148.782 83.6004 148.834 83.9242 148.834 84.2955V84.6278H145.149V83.8778H147.695C147.695 83.7036 147.657 83.5492 147.581 83.4148C147.505 83.2803 147.4 83.1752 147.266 83.0994C147.133 83.0218 146.979 82.983 146.803 82.983C146.619 82.983 146.456 83.0256 146.314 83.1108C146.174 83.1941 146.064 83.3068 145.984 83.4489C145.905 83.589 145.864 83.7453 145.862 83.9176V84.6307C145.862 84.8466 145.902 85.0331 145.982 85.1903C146.063 85.3475 146.178 85.4688 146.325 85.554C146.473 85.6392 146.648 85.6818 146.851 85.6818C146.985 85.6818 147.108 85.6629 147.22 85.625C147.332 85.5871 147.428 85.5303 147.507 85.4545C147.587 85.3788 147.647 85.286 147.689 85.1761L148.808 85.25C148.751 85.5189 148.635 85.7538 148.459 85.9545C148.285 86.1534 148.059 86.3087 147.783 86.4205C147.508 86.5303 147.191 86.5852 146.831 86.5852ZM151.498 86.5V80.6818H155.418V81.696H152.728V83.0824H155.217V84.0966H152.728V85.4858H155.43V86.5H151.498ZM157.584 83.9773V86.5H156.374V82.1364H157.527V82.9062H157.578C157.675 82.6525 157.837 82.4517 158.064 82.304C158.291 82.1544 158.567 82.0795 158.891 82.0795C159.194 82.0795 159.458 82.1458 159.683 82.2784C159.909 82.411 160.084 82.6004 160.209 82.8466C160.334 83.0909 160.396 83.3826 160.396 83.7216V86.5H159.186V83.9375C159.188 83.6705 159.12 83.4621 158.982 83.3125C158.843 83.161 158.653 83.0852 158.411 83.0852C158.248 83.0852 158.104 83.1203 157.979 83.1903C157.856 83.2604 157.759 83.3627 157.689 83.4972C157.621 83.6297 157.586 83.7898 157.584 83.9773ZM163.316 88.2273C162.924 88.2273 162.588 88.1733 162.308 88.0653C162.029 87.9593 161.808 87.8144 161.643 87.6307C161.478 87.447 161.371 87.2405 161.322 87.0114L162.441 86.8608C162.475 86.9479 162.529 87.0294 162.603 87.1051C162.677 87.1809 162.774 87.2415 162.896 87.2869C163.019 87.3343 163.168 87.358 163.344 87.358C163.608 87.358 163.825 87.2936 163.995 87.1648C164.167 87.0379 164.254 86.8248 164.254 86.5256V85.7273H164.202C164.149 85.8485 164.07 85.9631 163.964 86.071C163.858 86.179 163.721 86.267 163.555 86.3352C163.388 86.4034 163.189 86.4375 162.958 86.4375C162.63 86.4375 162.332 86.3617 162.063 86.2102C161.796 86.0568 161.583 85.8229 161.424 85.5085C161.267 85.1922 161.188 84.7926 161.188 84.3097C161.188 83.8153 161.269 83.4025 161.43 83.071C161.591 82.7396 161.805 82.4915 162.072 82.3267C162.341 82.1619 162.635 82.0795 162.955 82.0795C163.2 82.0795 163.404 82.1212 163.569 82.2045C163.734 82.286 163.866 82.3883 163.967 82.5114C164.069 82.6326 164.147 82.7519 164.202 82.8693H164.248V82.1364H165.45V86.5426C165.45 86.9138 165.359 87.2244 165.177 87.4744C164.995 87.7244 164.743 87.9119 164.421 88.0369C164.101 88.1638 163.733 88.2273 163.316 88.2273ZM163.342 85.5284C163.537 85.5284 163.701 85.4801 163.836 85.3835C163.972 85.285 164.076 85.1449 164.148 84.9631C164.222 84.7794 164.259 84.5597 164.259 84.304C164.259 84.0483 164.223 83.8267 164.151 83.6392C164.079 83.4498 163.975 83.303 163.839 83.1989C163.702 83.0947 163.537 83.0426 163.342 83.0426C163.143 83.0426 162.975 83.0966 162.839 83.2045C162.702 83.3106 162.599 83.4583 162.529 83.6477C162.459 83.8371 162.424 84.0559 162.424 84.304C162.424 84.5559 162.459 84.7737 162.529 84.9574C162.601 85.1392 162.704 85.2803 162.839 85.3807C162.975 85.4792 163.143 85.5284 163.342 85.5284ZM166.413 86.5V82.1364H167.623V86.5H166.413ZM167.021 81.5739C166.841 81.5739 166.686 81.5142 166.558 81.3949C166.431 81.2737 166.367 81.1288 166.367 80.9602C166.367 80.7936 166.431 80.6506 166.558 80.5312C166.686 80.41 166.841 80.3494 167.021 80.3494C167.201 80.3494 167.354 80.41 167.481 80.5312C167.61 80.6506 167.674 80.7936 167.674 80.9602C167.674 81.1288 167.61 81.2737 167.481 81.3949C167.354 81.5142 167.201 81.5739 167.021 81.5739ZM169.803 83.9773V86.5H168.592V82.1364H169.746V82.9062H169.797C169.893 82.6525 170.055 82.4517 170.283 82.304C170.51 82.1544 170.786 82.0795 171.109 82.0795C171.412 82.0795 171.677 82.1458 171.902 82.2784C172.127 82.411 172.303 82.6004 172.428 82.8466C172.553 83.0909 172.615 83.3826 172.615 83.7216V86.5H171.405V83.9375C171.407 83.6705 171.339 83.4621 171.2 83.3125C171.062 83.161 170.872 83.0852 170.629 83.0852C170.466 83.0852 170.322 83.1203 170.197 83.1903C170.074 83.2604 169.978 83.3627 169.908 83.4972C169.839 83.6297 169.804 83.7898 169.803 83.9773ZM175.558 86.5852C175.109 86.5852 174.722 86.4943 174.398 86.3125C174.076 86.1288 173.828 85.8693 173.654 85.5341C173.48 85.197 173.393 84.7983 173.393 84.3381C173.393 83.8892 173.48 83.4953 173.654 83.1562C173.828 82.8172 174.074 82.553 174.39 82.3636C174.708 82.1742 175.081 82.0795 175.509 82.0795C175.797 82.0795 176.065 82.1259 176.313 82.2188C176.563 82.3097 176.781 82.447 176.967 82.6307C177.154 82.8144 177.3 83.0455 177.404 83.3239C177.508 83.6004 177.56 83.9242 177.56 84.2955V84.6278H173.876V83.8778H176.421C176.421 83.7036 176.383 83.5492 176.308 83.4148C176.232 83.2803 176.127 83.1752 175.992 83.0994C175.86 83.0218 175.705 82.983 175.529 82.983C175.345 82.983 175.183 83.0256 175.04 83.1108C174.9 83.1941 174.79 83.3068 174.711 83.4489C174.631 83.589 174.591 83.7453 174.589 83.9176V84.6307C174.589 84.8466 174.629 85.0331 174.708 85.1903C174.79 85.3475 174.904 85.4688 175.052 85.554C175.2 85.6392 175.375 85.6818 175.577 85.6818C175.712 85.6818 175.835 85.6629 175.947 85.625C176.058 85.5871 176.154 85.5303 176.234 85.4545C176.313 85.3788 176.374 85.286 176.415 85.1761L177.535 85.25C177.478 85.5189 177.362 85.7538 177.185 85.9545C177.011 86.1534 176.786 86.3087 176.509 86.4205C176.235 86.5303 175.917 86.5852 175.558 86.5852ZM180.339 86.5852C179.89 86.5852 179.504 86.4943 179.18 86.3125C178.858 86.1288 178.61 85.8693 178.435 85.5341C178.261 85.197 178.174 84.7983 178.174 84.3381C178.174 83.8892 178.261 83.4953 178.435 83.1562C178.61 82.8172 178.855 82.553 179.171 82.3636C179.489 82.1742 179.862 82.0795 180.29 82.0795C180.578 82.0795 180.846 82.1259 181.094 82.2188C181.344 82.3097 181.562 82.447 181.748 82.6307C181.935 82.8144 182.081 83.0455 182.185 83.3239C182.29 83.6004 182.342 83.9242 182.342 84.2955V84.6278H178.657V83.8778H181.202C181.202 83.7036 181.165 83.5492 181.089 83.4148C181.013 83.2803 180.908 83.1752 180.773 83.0994C180.641 83.0218 180.487 82.983 180.31 82.983C180.127 82.983 179.964 83.0256 179.822 83.1108C179.682 83.1941 179.572 83.3068 179.492 83.4489C179.413 83.589 179.372 83.7453 179.37 83.9176V84.6307C179.37 84.8466 179.41 85.0331 179.489 85.1903C179.571 85.3475 179.685 85.4688 179.833 85.554C179.981 85.6392 180.156 85.6818 180.359 85.6818C180.493 85.6818 180.616 85.6629 180.728 85.625C180.84 85.5871 180.935 85.5303 181.015 85.4545C181.094 85.3788 181.155 85.286 181.197 85.1761L182.316 85.25C182.259 85.5189 182.143 85.7538 181.967 85.9545C181.792 86.1534 181.567 86.3087 181.29 86.4205C181.016 86.5303 180.699 86.5852 180.339 86.5852ZM183.131 86.5V82.1364H184.305V82.8977H184.35C184.43 82.6269 184.563 82.4223 184.751 82.2841C184.938 82.1439 185.154 82.0739 185.398 82.0739C185.459 82.0739 185.524 82.0777 185.594 82.0852C185.665 82.0928 185.726 82.1032 185.779 82.1165V83.1903C185.722 83.1733 185.644 83.1581 185.543 83.1449C185.443 83.1316 185.351 83.125 185.268 83.125C185.09 83.125 184.931 83.1638 184.79 83.2415C184.652 83.3172 184.542 83.4233 184.461 83.5597C184.381 83.696 184.342 83.8532 184.342 84.0312V86.5H183.131Z" fill="#092AD0"/>
<rect x="113.75" y="91.25" width="29.5" height="12" rx="2.25" fill="#092AD0" fill-opacity="0.56" stroke="#092AD0" stroke-width="0.5"/>
<path d="M119.016 99.5L119.732 95.1364H120.413L119.697 99.5H119.016ZM117.062 98.4176L117.175 97.7358H120.584L120.471 98.4176H117.062ZM117.482 99.5L118.197 95.1364H118.879L118.163 99.5H117.482ZM117.311 96.9006L117.426 96.2188H120.835L120.72 96.9006H117.311ZM122.664 99.5V95.1364H124.386C124.716 95.1364 124.997 95.1953 125.23 95.3132C125.464 95.4297 125.642 95.5952 125.765 95.8097C125.888 96.0227 125.95 96.2734 125.95 96.5618C125.95 96.8516 125.887 97.1009 125.762 97.3097C125.637 97.517 125.456 97.6761 125.219 97.7869C124.983 97.8977 124.698 97.9531 124.363 97.9531H123.21V97.2116H124.213C124.39 97.2116 124.536 97.1875 124.652 97.1392C124.769 97.0909 124.855 97.0185 124.912 96.9219C124.971 96.8253 125 96.7053 125 96.5618C125 96.4169 124.971 96.2947 124.912 96.1953C124.855 96.0959 124.768 96.0206 124.65 95.9695C124.534 95.9169 124.387 95.8906 124.209 95.8906H123.587V99.5H122.664ZM125.021 97.5142L126.105 99.5H125.087L124.026 97.5142H125.021ZM128.024 99.5639C127.687 99.5639 127.397 99.4957 127.154 99.3594C126.913 99.2216 126.727 99.027 126.596 98.7756C126.465 98.5227 126.4 98.2237 126.4 97.8786C126.4 97.5419 126.465 97.2464 126.596 96.9922C126.727 96.7379 126.911 96.5398 127.148 96.3977C127.387 96.2557 127.666 96.1847 127.987 96.1847C128.203 96.1847 128.404 96.2195 128.59 96.2891C128.778 96.3572 128.941 96.4602 129.08 96.598C129.221 96.7358 129.33 96.9091 129.409 97.1179C129.487 97.3253 129.526 97.5682 129.526 97.8466V98.0959H126.762V97.5334H128.671C128.671 97.4027 128.643 97.2869 128.586 97.1861C128.529 97.0852 128.45 97.0064 128.35 96.9496C128.25 96.8913 128.134 96.8622 128.002 96.8622C127.865 96.8622 127.742 96.8942 127.636 96.9581C127.531 97.0206 127.448 97.1051 127.389 97.2116C127.329 97.3168 127.298 97.4339 127.297 97.5632V98.098C127.297 98.2599 127.327 98.3999 127.387 98.5178C127.448 98.6357 127.534 98.7266 127.644 98.7905C127.755 98.8544 127.887 98.8864 128.039 98.8864C128.139 98.8864 128.232 98.8722 128.316 98.8438C128.399 98.8153 128.471 98.7727 128.531 98.7159C128.59 98.6591 128.636 98.5895 128.667 98.5071L129.507 98.5625C129.464 98.7642 129.377 98.9403 129.244 99.0909C129.114 99.2401 128.945 99.3565 128.737 99.4403C128.531 99.5227 128.294 99.5639 128.024 99.5639ZM131.051 99.5618C130.843 99.5618 130.656 99.5256 130.493 99.4531C130.33 99.3793 130.2 99.2706 130.105 99.1271C130.012 98.9822 129.965 98.8018 129.965 98.5859C129.965 98.4041 129.998 98.2514 130.065 98.1278C130.132 98.0043 130.222 97.9048 130.338 97.8295C130.453 97.7543 130.583 97.6974 130.73 97.6591C130.877 97.6207 131.032 97.5938 131.194 97.5781C131.384 97.5582 131.538 97.5398 131.654 97.5227C131.771 97.5043 131.855 97.4773 131.908 97.4418C131.96 97.4062 131.987 97.3537 131.987 97.2841V97.2713C131.987 97.1364 131.944 97.032 131.859 96.9581C131.775 96.8842 131.656 96.8473 131.501 96.8473C131.338 96.8473 131.208 96.8835 131.111 96.956C131.014 97.027 130.95 97.1165 130.919 97.2244L130.08 97.1562C130.122 96.9574 130.206 96.7855 130.331 96.6406C130.456 96.4943 130.617 96.3821 130.815 96.304C131.014 96.2244 131.244 96.1847 131.505 96.1847C131.687 96.1847 131.861 96.206 132.027 96.2486C132.195 96.2912 132.343 96.3572 132.472 96.4467C132.603 96.5362 132.706 96.6513 132.781 96.7919C132.857 96.9311 132.894 97.098 132.894 97.2926V99.5H132.034V99.0462H132.008C131.955 99.1484 131.885 99.2386 131.797 99.3168C131.709 99.3935 131.603 99.4538 131.48 99.4979C131.356 99.5405 131.213 99.5618 131.051 99.5618ZM131.311 98.9354C131.445 98.9354 131.563 98.9091 131.665 98.8565C131.767 98.8026 131.847 98.7301 131.906 98.6392C131.964 98.5483 131.993 98.4453 131.993 98.3303V97.983C131.965 98.0014 131.926 98.0185 131.876 98.0341C131.828 98.0483 131.773 98.0618 131.712 98.0746C131.651 98.0859 131.59 98.0966 131.529 98.1065C131.468 98.1151 131.412 98.1229 131.362 98.13C131.256 98.1456 131.163 98.1705 131.083 98.2045C131.004 98.2386 130.942 98.2848 130.898 98.343C130.854 98.3999 130.832 98.4709 130.832 98.5561C130.832 98.6797 130.877 98.7741 130.966 98.8395C131.057 98.9034 131.172 98.9354 131.311 98.9354ZM135.077 99.5639C134.742 99.5639 134.454 99.4929 134.212 99.3509C133.972 99.2074 133.787 99.0085 133.658 98.7543C133.53 98.5 133.466 98.2074 133.466 97.8764C133.466 97.5412 133.531 97.2472 133.66 96.9943C133.791 96.7401 133.976 96.5419 134.216 96.3999C134.456 96.2564 134.742 96.1847 135.073 96.1847C135.358 96.1847 135.608 96.2365 135.823 96.3402C136.037 96.4439 136.207 96.5895 136.332 96.777C136.457 96.9645 136.526 97.1847 136.539 97.4375H135.682C135.658 97.2741 135.594 97.1428 135.491 97.0433C135.388 96.9425 135.254 96.892 135.088 96.892C134.947 96.892 134.824 96.9304 134.719 97.0071C134.616 97.0824 134.535 97.1925 134.476 97.3374C134.418 97.4822 134.389 97.6577 134.389 97.8636C134.389 98.0724 134.417 98.25 134.474 98.3963C134.532 98.5426 134.614 98.6541 134.719 98.7308C134.824 98.8075 134.947 98.8459 135.088 98.8459C135.192 98.8459 135.285 98.8246 135.367 98.782C135.451 98.7393 135.52 98.6776 135.574 98.5966C135.629 98.5142 135.665 98.4155 135.682 98.3004H136.539C136.525 98.5504 136.456 98.7706 136.334 98.9609C136.214 99.1499 136.047 99.2976 135.834 99.4041C135.621 99.5107 135.368 99.5639 135.077 99.5639ZM138.861 96.2273V96.9091H136.89V96.2273H138.861ZM137.337 95.4432H138.245V98.4943C138.245 98.5781 138.258 98.6435 138.283 98.6903C138.309 98.7358 138.344 98.7678 138.39 98.7862C138.437 98.8047 138.491 98.8139 138.552 98.8139C138.594 98.8139 138.637 98.8104 138.68 98.8033C138.722 98.7947 138.755 98.7884 138.778 98.7841L138.92 99.4595C138.875 99.4737 138.811 99.4901 138.729 99.5085C138.646 99.5284 138.546 99.5405 138.428 99.5447C138.21 99.5533 138.018 99.5241 137.853 99.4574C137.69 99.3906 137.563 99.2869 137.472 99.1463C137.381 99.0057 137.336 98.8281 137.337 98.6136V95.4432Z" fill="white"/>
<rect x="148.25" y="91.25" width="47" height="12" rx="2.25" fill="#092AD0" fill-opacity="0.56" stroke="#092AD0" stroke-width="0.5"/>
<path d="M155.016 99.5L155.732 95.1364H156.413L155.697 99.5H155.016ZM153.062 98.4176L153.175 97.7358H156.584L156.471 98.4176H153.062ZM153.482 99.5L154.197 95.1364H154.879L154.163 99.5H153.482ZM153.311 96.9006L153.426 96.2188H156.835L156.72 96.9006H153.311ZM153.213 102.897V102.136H156.797V102.897H155.461V106.5H154.549V102.897H153.213ZM157.555 107.727C157.44 107.727 157.332 107.718 157.232 107.7C157.132 107.683 157.05 107.661 156.984 107.634L157.189 106.956C157.295 106.989 157.391 107.006 157.477 107.009C157.563 107.012 157.638 106.992 157.7 106.95C157.764 106.907 157.816 106.835 157.856 106.732L157.909 106.594L156.735 103.227H157.69L158.367 105.631H158.401L159.085 103.227H160.046L158.774 106.854C158.713 107.03 158.63 107.183 158.525 107.314C158.421 107.446 158.29 107.548 158.131 107.619C157.972 107.691 157.78 107.727 157.555 107.727ZM160.511 107.727V103.227H161.406V103.777H161.446C161.486 103.689 161.543 103.599 161.619 103.509C161.695 103.416 161.795 103.339 161.917 103.278C162.04 103.216 162.194 103.185 162.377 103.185C162.616 103.185 162.836 103.247 163.038 103.372C163.239 103.496 163.401 103.683 163.521 103.933C163.642 104.181 163.702 104.493 163.702 104.868C163.702 105.233 163.643 105.541 163.526 105.793C163.409 106.043 163.25 106.232 163.048 106.362C162.848 106.489 162.624 106.553 162.375 106.553C162.199 106.553 162.049 106.524 161.925 106.466C161.803 106.408 161.703 106.335 161.625 106.246C161.547 106.157 161.487 106.067 161.446 105.976H161.418V107.727H160.511ZM161.399 104.864C161.399 105.058 161.426 105.228 161.48 105.373C161.534 105.518 161.612 105.631 161.714 105.712C161.817 105.791 161.941 105.831 162.087 105.831C162.235 105.831 162.36 105.79 162.462 105.71C162.565 105.627 162.642 105.513 162.695 105.369C162.749 105.222 162.776 105.054 162.776 104.864C162.776 104.675 162.749 104.509 162.697 104.365C162.644 104.222 162.567 104.109 162.464 104.028C162.362 103.947 162.237 103.907 162.087 103.907C161.94 103.907 161.815 103.946 161.712 104.024C161.612 104.102 161.534 104.213 161.48 104.357C161.426 104.5 161.399 104.669 161.399 104.864ZM165.799 106.564C165.462 106.564 165.173 106.496 164.93 106.359C164.688 106.222 164.502 106.027 164.371 105.776C164.241 105.523 164.175 105.224 164.175 104.879C164.175 104.542 164.241 104.246 164.371 103.992C164.502 103.738 164.686 103.54 164.923 103.398C165.162 103.256 165.442 103.185 165.763 103.185C165.979 103.185 166.18 103.219 166.366 103.289C166.553 103.357 166.717 103.46 166.856 103.598C166.996 103.736 167.106 103.909 167.184 104.118C167.262 104.325 167.301 104.568 167.301 104.847V105.096H164.538V104.533H166.447C166.447 104.403 166.418 104.287 166.362 104.186C166.305 104.085 166.226 104.006 166.125 103.95C166.026 103.891 165.91 103.862 165.778 103.862C165.64 103.862 165.518 103.894 165.411 103.958C165.306 104.021 165.224 104.105 165.164 104.212C165.104 104.317 165.074 104.434 165.072 104.563V105.098C165.072 105.26 165.102 105.4 165.162 105.518C165.223 105.636 165.309 105.727 165.42 105.79C165.531 105.854 165.662 105.886 165.814 105.886C165.915 105.886 166.007 105.872 166.091 105.844C166.175 105.815 166.246 105.773 166.306 105.716C166.366 105.659 166.411 105.589 166.442 105.507L167.282 105.562C167.239 105.764 167.152 105.94 167.02 106.091C166.889 106.24 166.72 106.357 166.513 106.44C166.307 106.523 166.069 106.564 165.799 106.564ZM170.616 104.161L169.786 104.212C169.771 104.141 169.741 104.077 169.694 104.02C169.647 103.962 169.585 103.915 169.509 103.881C169.433 103.846 169.343 103.828 169.238 103.828C169.097 103.828 168.979 103.858 168.882 103.918C168.786 103.976 168.737 104.054 168.737 104.152C168.737 104.23 168.768 104.296 168.831 104.35C168.893 104.404 169.001 104.447 169.153 104.48L169.745 104.599C170.063 104.665 170.3 104.77 170.457 104.915C170.613 105.06 170.691 105.25 170.691 105.486C170.691 105.7 170.628 105.888 170.501 106.05C170.376 106.212 170.205 106.339 169.986 106.43C169.768 106.519 169.518 106.564 169.234 106.564C168.8 106.564 168.455 106.474 168.198 106.293C167.942 106.112 167.793 105.864 167.749 105.552L168.641 105.505C168.668 105.637 168.734 105.738 168.837 105.808C168.941 105.876 169.074 105.91 169.236 105.91C169.395 105.91 169.523 105.879 169.619 105.818C169.717 105.756 169.767 105.675 169.768 105.577C169.767 105.495 169.732 105.428 169.664 105.375C169.596 105.321 169.491 105.28 169.349 105.251L168.782 105.138C168.462 105.075 168.224 104.964 168.068 104.806C167.913 104.648 167.836 104.447 167.836 104.203C167.836 103.993 167.893 103.812 168.006 103.66C168.121 103.508 168.283 103.391 168.49 103.308C168.699 103.226 168.943 103.185 169.223 103.185C169.636 103.185 169.962 103.272 170.199 103.447C170.438 103.621 170.577 103.859 170.616 104.161ZM172.741 106.564C172.406 106.564 172.118 106.493 171.876 106.351C171.636 106.207 171.452 106.009 171.322 105.754C171.194 105.5 171.131 105.207 171.131 104.876C171.131 104.541 171.195 104.247 171.324 103.994C171.455 103.74 171.64 103.542 171.881 103.4C172.121 103.256 172.406 103.185 172.737 103.185C173.023 103.185 173.273 103.237 173.487 103.34C173.702 103.444 173.871 103.589 173.996 103.777C174.121 103.964 174.19 104.185 174.203 104.438H173.346C173.322 104.274 173.258 104.143 173.155 104.043C173.052 103.942 172.918 103.892 172.752 103.892C172.611 103.892 172.488 103.93 172.383 104.007C172.28 104.082 172.199 104.192 172.14 104.337C172.082 104.482 172.053 104.658 172.053 104.864C172.053 105.072 172.081 105.25 172.138 105.396C172.197 105.543 172.278 105.654 172.383 105.731C172.488 105.808 172.611 105.846 172.752 105.846C172.856 105.846 172.949 105.825 173.031 105.782C173.115 105.739 173.184 105.678 173.238 105.597C173.293 105.514 173.329 105.415 173.346 105.3H174.203C174.189 105.55 174.121 105.771 173.998 105.961C173.878 106.15 173.711 106.298 173.498 106.404C173.285 106.511 173.032 106.564 172.741 106.564ZM174.784 106.5V103.227H175.664V103.798H175.698C175.758 103.595 175.858 103.442 175.999 103.338C176.139 103.233 176.301 103.18 176.484 103.18C176.53 103.18 176.579 103.183 176.631 103.189C176.684 103.195 176.73 103.202 176.77 103.212V104.018C176.727 104.005 176.668 103.994 176.593 103.984C176.518 103.974 176.449 103.969 176.386 103.969C176.253 103.969 176.134 103.998 176.028 104.056C175.925 104.113 175.842 104.192 175.781 104.295C175.722 104.397 175.692 104.515 175.692 104.648V106.5H174.784ZM153.362 113.5V110.227H154.27V113.5H153.362ZM153.818 109.805C153.683 109.805 153.567 109.761 153.471 109.671C153.376 109.58 153.328 109.472 153.328 109.345C153.328 109.22 153.376 109.113 153.471 109.023C153.567 108.933 153.683 108.887 153.818 108.887C153.953 108.887 154.068 108.933 154.163 109.023C154.26 109.113 154.308 109.22 154.308 109.345C154.308 109.472 154.26 109.58 154.163 109.671C154.068 109.761 153.953 109.805 153.818 109.805ZM154.997 114.727V110.227H155.892V110.777H155.932C155.972 110.689 156.03 110.599 156.105 110.509C156.182 110.416 156.281 110.339 156.403 110.278C156.527 110.216 156.68 110.185 156.863 110.185C157.102 110.185 157.322 110.247 157.524 110.372C157.726 110.496 157.887 110.683 158.008 110.933C158.128 111.181 158.189 111.493 158.189 111.868C158.189 112.233 158.13 112.541 158.012 112.793C157.895 113.043 157.736 113.232 157.535 113.362C157.334 113.489 157.11 113.553 156.861 113.553C156.685 113.553 156.535 113.524 156.412 113.466C156.29 113.408 156.189 113.335 156.111 113.246C156.033 113.157 155.974 113.067 155.932 112.976H155.905V114.727H154.997ZM155.885 111.864C155.885 112.058 155.912 112.228 155.966 112.373C156.02 112.518 156.099 112.631 156.201 112.712C156.303 112.791 156.427 112.831 156.574 112.831C156.721 112.831 156.846 112.79 156.949 112.71C157.051 112.627 157.128 112.513 157.181 112.369C157.235 112.222 157.262 112.054 157.262 111.864C157.262 111.675 157.236 111.509 157.183 111.365C157.131 111.222 157.053 111.109 156.951 111.028C156.849 110.947 156.723 110.907 156.574 110.907C156.426 110.907 156.301 110.946 156.199 111.024C156.098 111.102 156.02 111.213 155.966 111.357C155.912 111.5 155.885 111.669 155.885 111.864ZM160.535 110.227V110.909H158.564V110.227H160.535ZM159.011 109.443H159.919V112.494C159.919 112.578 159.932 112.643 159.957 112.69C159.983 112.736 160.018 112.768 160.064 112.786C160.111 112.805 160.165 112.814 160.226 112.814C160.268 112.814 160.311 112.81 160.354 112.803C160.396 112.795 160.429 112.788 160.452 112.784L160.594 113.46C160.549 113.474 160.485 113.49 160.403 113.509C160.32 113.528 160.22 113.54 160.102 113.545C159.883 113.553 159.692 113.524 159.527 113.457C159.363 113.391 159.236 113.287 159.145 113.146C159.055 113.006 159.01 112.828 159.011 112.614V109.443Z" fill="white"/>
<rect x="200.25" y="91.25" width="44.5" height="12" rx="2.25" fill="#092AD0" fill-opacity="0.56" stroke="#092AD0" stroke-width="0.5"/>
<path d="M208.516 99.5L209.232 95.1364H209.913L209.197 99.5H208.516ZM206.562 98.4176L206.675 97.7358H210.084L209.971 98.4176H206.562ZM206.982 99.5L207.697 95.1364H208.379L207.663 99.5H206.982ZM206.811 96.9006L206.926 96.2188H210.335L210.22 96.9006H206.811ZM215.058 96.5469C215.028 96.4432 214.986 96.3516 214.932 96.272C214.878 96.1911 214.812 96.1229 214.734 96.0675C214.657 96.0107 214.569 95.9673 214.47 95.9375C214.372 95.9077 214.263 95.8928 214.144 95.8928C213.921 95.8928 213.725 95.9482 213.556 96.0589C213.388 96.1697 213.257 96.331 213.164 96.5426C213.07 96.7528 213.023 97.0099 213.023 97.3139C213.023 97.6179 213.069 97.8764 213.162 98.0895C213.254 98.3026 213.385 98.4652 213.554 98.5774C213.723 98.6882 213.922 98.7436 214.152 98.7436C214.361 98.7436 214.539 98.7067 214.687 98.6328C214.836 98.5575 214.95 98.4517 215.028 98.3153C215.108 98.179 215.147 98.0178 215.147 97.8317L215.335 97.8594H214.21V97.1648H216.036V97.7145C216.036 98.098 215.955 98.4276 215.793 98.7031C215.631 98.9773 215.408 99.1889 215.124 99.3381C214.84 99.4858 214.515 99.5597 214.148 99.5597C213.739 99.5597 213.38 99.4695 213.07 99.2891C212.76 99.1072 212.519 98.8494 212.346 98.5156C212.174 98.1804 212.088 97.7827 212.088 97.3224C212.088 96.9687 212.139 96.6534 212.241 96.3764C212.345 96.098 212.49 95.8622 212.676 95.669C212.862 95.4759 213.078 95.3288 213.326 95.228C213.573 95.1271 213.841 95.0767 214.129 95.0767C214.376 95.0767 214.606 95.1129 214.819 95.1854C215.032 95.2564 215.221 95.3572 215.386 95.4879C215.552 95.6186 215.688 95.7741 215.793 95.9545C215.898 96.1335 215.966 96.331 215.995 96.5469H215.058ZM216.712 99.5V96.2273H217.592V96.7983H217.626C217.686 96.5952 217.786 96.4418 217.926 96.3381C218.067 96.233 218.229 96.1804 218.412 96.1804C218.458 96.1804 218.507 96.1832 218.559 96.1889C218.612 96.1946 218.658 96.2024 218.698 96.2124V97.0178C218.655 97.005 218.596 96.9936 218.521 96.9837C218.445 96.9737 218.377 96.9688 218.314 96.9688C218.181 96.9688 218.061 96.9979 217.956 97.0561C217.852 97.1129 217.77 97.1925 217.709 97.2947C217.649 97.397 217.619 97.5149 217.619 97.6484V99.5H216.712ZM220.006 99.5618C219.798 99.5618 219.612 99.5256 219.448 99.4531C219.285 99.3793 219.156 99.2706 219.06 99.1271C218.967 98.9822 218.92 98.8018 218.92 98.5859C218.92 98.4041 218.953 98.2514 219.02 98.1278C219.087 98.0043 219.178 97.9048 219.293 97.8295C219.408 97.7543 219.538 97.6974 219.685 97.6591C219.832 97.6207 219.987 97.5938 220.149 97.5781C220.339 97.5582 220.493 97.5398 220.609 97.5227C220.726 97.5043 220.81 97.4773 220.863 97.4418C220.915 97.4062 220.942 97.3537 220.942 97.2841V97.2713C220.942 97.1364 220.899 97.032 220.814 96.9581C220.73 96.8842 220.611 96.8473 220.456 96.8473C220.293 96.8473 220.163 96.8835 220.066 96.956C219.969 97.027 219.906 97.1165 219.874 97.2244L219.035 97.1562C219.077 96.9574 219.161 96.7855 219.286 96.6406C219.411 96.4943 219.572 96.3821 219.77 96.304C219.969 96.2244 220.199 96.1847 220.46 96.1847C220.642 96.1847 220.816 96.206 220.982 96.2486C221.15 96.2912 221.298 96.3572 221.428 96.4467C221.558 96.5362 221.661 96.6513 221.737 96.7919C221.812 96.9311 221.849 97.098 221.849 97.2926V99.5H220.989V99.0462H220.963C220.911 99.1484 220.84 99.2386 220.752 99.3168C220.664 99.3935 220.558 99.4538 220.435 99.4979C220.311 99.5405 220.168 99.5618 220.006 99.5618ZM220.266 98.9354C220.4 98.9354 220.518 98.9091 220.62 98.8565C220.722 98.8026 220.803 98.7301 220.861 98.6392C220.919 98.5483 220.948 98.4453 220.948 98.3303V97.983C220.92 98.0014 220.881 98.0185 220.831 98.0341C220.783 98.0483 220.728 98.0618 220.667 98.0746C220.606 98.0859 220.545 98.0966 220.484 98.1065C220.423 98.1151 220.367 98.1229 220.317 98.13C220.211 98.1456 220.118 98.1705 220.038 98.2045C219.959 98.2386 219.897 98.2848 219.853 98.343C219.809 98.3999 219.787 98.4709 219.787 98.5561C219.787 98.6797 219.832 98.7741 219.921 98.8395C220.012 98.9034 220.127 98.9354 220.266 98.9354ZM222.554 100.727V96.2273H223.449V96.777H223.489C223.529 96.6889 223.586 96.5994 223.662 96.5085C223.738 96.4162 223.838 96.3395 223.96 96.2784C224.083 96.2159 224.237 96.1847 224.42 96.1847C224.659 96.1847 224.879 96.2472 225.081 96.3722C225.282 96.4957 225.444 96.6825 225.564 96.9325C225.685 97.1811 225.745 97.4929 225.745 97.8679C225.745 98.233 225.686 98.5412 225.569 98.7926C225.452 99.0426 225.293 99.2322 225.091 99.3615C224.891 99.4893 224.667 99.5533 224.418 99.5533C224.242 99.5533 224.092 99.5241 223.968 99.4659C223.846 99.4077 223.746 99.3345 223.668 99.2464C223.59 99.157 223.53 99.0668 223.489 98.9759H223.461V100.727H222.554ZM223.442 97.8636C223.442 98.0582 223.469 98.228 223.523 98.3729C223.577 98.5178 223.655 98.6307 223.757 98.7116C223.86 98.7912 223.984 98.831 224.13 98.831C224.278 98.831 224.403 98.7905 224.505 98.7095C224.608 98.6271 224.685 98.5135 224.738 98.3686C224.792 98.2223 224.819 98.054 224.819 97.8636C224.819 97.6747 224.792 97.5085 224.74 97.3651C224.687 97.2216 224.61 97.1094 224.507 97.0284C224.405 96.9474 224.279 96.907 224.13 96.907C223.983 96.907 223.858 96.946 223.755 97.0241C223.654 97.1023 223.577 97.2131 223.523 97.3565C223.469 97.5 223.442 97.669 223.442 97.8636ZM227.258 97.608V99.5H226.35V95.1364H227.233V96.8047H227.271C227.345 96.6115 227.464 96.4602 227.629 96.3509C227.794 96.2401 228 96.1847 228.249 96.1847C228.476 96.1847 228.674 96.2344 228.843 96.3338C229.014 96.4318 229.146 96.5732 229.24 96.7578C229.335 96.9411 229.382 97.1605 229.38 97.4162V99.5H228.473V97.5781C228.474 97.3764 228.423 97.2195 228.319 97.1072C228.217 96.995 228.074 96.9389 227.889 96.9389C227.765 96.9389 227.656 96.9652 227.561 97.0178C227.467 97.0703 227.393 97.147 227.339 97.2479C227.287 97.3473 227.26 97.4673 227.258 97.608ZM231.759 97.983H232.543L232.937 98.4901L233.325 98.9418L234.056 99.858H233.195L232.692 99.2401L232.434 98.8736L231.759 97.983ZM234.122 97.3182C234.122 97.794 234.031 98.1989 233.851 98.5327C233.672 98.8665 233.428 99.1214 233.118 99.2976C232.81 99.4723 232.463 99.5597 232.078 99.5597C231.691 99.5597 231.343 99.4716 231.034 99.2955C230.726 99.1193 230.482 98.8643 230.303 98.5305C230.124 98.1967 230.035 97.7926 230.035 97.3182C230.035 96.8423 230.124 96.4375 230.303 96.1037C230.482 95.7699 230.726 95.5156 231.034 95.3409C231.343 95.1648 231.691 95.0767 232.078 95.0767C232.463 95.0767 232.81 95.1648 233.118 95.3409C233.428 95.5156 233.672 95.7699 233.851 96.1037C234.031 96.4375 234.122 96.8423 234.122 97.3182ZM233.186 97.3182C233.186 97.0099 233.14 96.75 233.048 96.5384C232.957 96.3267 232.828 96.1662 232.662 96.0568C232.496 95.9474 232.301 95.8928 232.078 95.8928C231.855 95.8928 231.661 95.9474 231.494 96.0568C231.328 96.1662 231.199 96.3267 231.107 96.5384C231.016 96.75 230.97 97.0099 230.97 97.3182C230.97 97.6264 231.016 97.8864 231.107 98.098C231.199 98.3097 231.328 98.4702 231.494 98.5795C231.661 98.6889 231.855 98.7436 232.078 98.7436C232.301 98.7436 232.496 98.6889 232.662 98.5795C232.828 98.4702 232.957 98.3097 233.048 98.098C233.14 97.8864 233.186 97.6264 233.186 97.3182ZM234.805 99.5V95.1364H235.728V98.7393H237.598V99.5H234.805Z" fill="white"/>
<rect x="50" y="50" width="250" height="67.5" rx="17.5" fill="white"/>
<circle cx="87.5" cy="83.5" r="20" fill="#C4C4C4"/>
<rect x="78.5" y="86" width="18" height="10" rx="2.5" fill="white"/>
<circle cx="87.25" cy="77.75" r="6.25" fill="white"/>
<path d="M114.132 76V68.7273H115.67V74.7322H118.788V76H114.132ZM123.275 73.6776V70.5455H124.788V76H123.336V75.0092H123.279C123.156 75.3288 122.951 75.5857 122.665 75.7798C122.381 75.974 122.034 76.071 121.624 76.071C121.26 76.071 120.939 75.9882 120.662 75.8224C120.385 75.6567 120.168 75.4212 120.012 75.1158C119.858 74.8104 119.78 74.4446 119.778 74.0185V70.5455H121.29V73.7486C121.293 74.0705 121.379 74.325 121.55 74.5121C121.72 74.6991 121.948 74.7926 122.235 74.7926C122.417 74.7926 122.588 74.7512 122.746 74.6683C122.905 74.5831 123.033 74.4576 123.13 74.2919C123.229 74.1262 123.278 73.9214 123.275 73.6776ZM127.369 74.4304L127.373 72.6158H127.593L129.34 70.5455H131.076L128.729 73.2869H128.37L127.369 74.4304ZM125.998 76V68.7273H127.511V76H125.998ZM129.407 76L127.802 73.6243L128.811 72.5554L131.179 76H129.407ZM134.08 76.1065C133.519 76.1065 133.036 75.9929 132.631 75.7656C132.228 75.536 131.918 75.2116 131.7 74.7926C131.483 74.3712 131.374 73.8729 131.374 73.2976C131.374 72.7365 131.483 72.2441 131.7 71.8203C131.918 71.3965 132.225 71.0663 132.62 70.8295C133.018 70.5928 133.484 70.4744 134.019 70.4744C134.379 70.4744 134.714 70.5324 135.024 70.6484C135.337 70.7621 135.609 70.9337 135.841 71.1634C136.075 71.393 136.258 71.6818 136.388 72.0298C136.518 72.3755 136.583 72.7803 136.583 73.2443V73.6598H131.977V72.7223H135.159C135.159 72.5045 135.112 72.3116 135.017 72.1435C134.923 71.9754 134.791 71.844 134.623 71.7493C134.457 71.6522 134.264 71.6037 134.044 71.6037C133.815 71.6037 133.611 71.657 133.433 71.7635C133.258 71.8677 133.121 72.0085 133.021 72.1861C132.922 72.3613 132.871 72.5566 132.869 72.772V73.6634C132.869 73.9332 132.919 74.1664 133.018 74.3629C133.12 74.5594 133.263 74.7109 133.448 74.8175C133.632 74.924 133.851 74.9773 134.105 74.9773C134.273 74.9773 134.427 74.9536 134.566 74.9062C134.706 74.8589 134.825 74.7879 134.925 74.6932C135.024 74.5985 135.1 74.4825 135.152 74.3452L136.551 74.4375C136.48 74.7737 136.335 75.0672 136.115 75.3182C135.897 75.5668 135.615 75.7609 135.269 75.9006C134.926 76.0379 134.53 76.1065 134.08 76.1065ZM143.859 70.8189C143.83 70.5324 143.708 70.3099 143.493 70.1513C143.277 69.9927 142.985 69.9134 142.616 69.9134C142.365 69.9134 142.153 69.9489 141.98 70.0199C141.807 70.0885 141.675 70.1844 141.582 70.3075C141.492 70.4306 141.447 70.5703 141.447 70.7266C141.443 70.8568 141.47 70.9704 141.529 71.0675C141.591 71.1645 141.675 71.2486 141.781 71.3196C141.888 71.3883 142.011 71.4486 142.151 71.5007C142.29 71.5504 142.439 71.593 142.598 71.6286L143.251 71.7848C143.569 71.8558 143.86 71.9505 144.125 72.0689C144.39 72.1873 144.62 72.3329 144.814 72.5057C145.008 72.6785 145.158 72.8821 145.265 73.1165C145.374 73.3509 145.429 73.6196 145.432 73.9226C145.429 74.3677 145.316 74.7536 145.091 75.0803C144.868 75.4046 144.546 75.6567 144.125 75.8366C143.706 76.0142 143.201 76.103 142.609 76.103C142.022 76.103 141.51 76.013 141.075 75.8331C140.641 75.6532 140.303 75.3868 140.059 75.0341C139.817 74.679 139.691 74.2398 139.679 73.7166H141.167C141.183 73.9605 141.253 74.1641 141.376 74.3274C141.502 74.4884 141.669 74.6103 141.877 74.6932C142.088 74.7737 142.326 74.8139 142.591 74.8139C142.851 74.8139 143.077 74.776 143.269 74.7003C143.463 74.6245 143.614 74.5192 143.72 74.3842C143.827 74.2493 143.88 74.0942 143.88 73.919C143.88 73.7557 143.831 73.6184 143.734 73.5071C143.64 73.3958 143.5 73.3011 143.315 73.223C143.133 73.1449 142.909 73.0739 142.644 73.0099L141.852 72.8111C141.239 72.6619 140.755 72.4287 140.4 72.1115C140.045 71.7943 139.868 71.367 139.871 70.8295C139.868 70.3892 139.986 70.0045 140.222 69.6754C140.461 69.3464 140.789 69.0895 141.206 68.9048C141.623 68.7202 142.096 68.6278 142.626 68.6278C143.166 68.6278 143.637 68.7202 144.04 68.9048C144.445 69.0895 144.759 69.3464 144.984 69.6754C145.209 70.0045 145.325 70.3857 145.332 70.8189H143.859ZM147.993 76.103C147.645 76.103 147.335 76.0426 147.063 75.9219C146.79 75.7988 146.575 75.6177 146.416 75.3786C146.26 75.1371 146.182 74.8364 146.182 74.4766C146.182 74.1735 146.238 73.919 146.349 73.7131C146.46 73.5071 146.612 73.3414 146.803 73.2159C146.995 73.0904 147.213 72.9957 147.457 72.9318C147.703 72.8679 147.961 72.8229 148.231 72.7969C148.548 72.7637 148.804 72.733 148.998 72.7045C149.192 72.6738 149.333 72.6288 149.421 72.5696C149.508 72.5104 149.552 72.4228 149.552 72.3068V72.2855C149.552 72.0606 149.481 71.8866 149.339 71.7635C149.199 71.6404 149 71.5788 148.742 71.5788C148.47 71.5788 148.253 71.6392 148.093 71.7599C147.932 71.8783 147.825 72.0275 147.773 72.2074L146.374 72.0938C146.445 71.7623 146.584 71.4759 146.793 71.2344C147.001 70.9905 147.27 70.8035 147.599 70.6733C147.93 70.5407 148.314 70.4744 148.749 70.4744C149.052 70.4744 149.343 70.5099 149.619 70.581C149.899 70.652 150.146 70.7621 150.362 70.9112C150.579 71.0604 150.751 71.2521 150.877 71.4865C151.002 71.7185 151.065 71.9967 151.065 72.321V76H149.63V75.2436H149.588C149.5 75.4141 149.383 75.5644 149.236 75.6946C149.089 75.8224 148.913 75.9231 148.707 75.9964C148.501 76.0675 148.263 76.103 147.993 76.103ZM148.426 75.0589C148.649 75.0589 148.845 75.0152 149.016 74.9276C149.186 74.8376 149.32 74.7169 149.417 74.5653C149.514 74.4138 149.563 74.2422 149.563 74.0504V73.4716C149.515 73.5024 149.45 73.5308 149.367 73.5568C149.287 73.5805 149.196 73.603 149.094 73.6243C148.992 73.6432 148.89 73.661 148.789 73.6776C148.687 73.6918 148.594 73.7048 148.512 73.7166C148.334 73.7427 148.179 73.7841 148.046 73.8409C147.914 73.8977 147.811 73.9747 147.737 74.0717C147.664 74.1664 147.627 74.2848 147.627 74.4268C147.627 74.6328 147.702 74.7902 147.851 74.8991C148.003 75.0057 148.194 75.0589 148.426 75.0589ZM153.751 72.8466V76H152.238V70.5455H153.68V71.5078H153.744C153.865 71.1906 154.067 70.9396 154.351 70.755C154.635 70.5679 154.98 70.4744 155.385 70.4744C155.764 70.4744 156.094 70.5573 156.376 70.723C156.657 70.8887 156.876 71.1255 157.032 71.4332C157.189 71.7386 157.267 72.1032 157.267 72.527V76H155.754V72.7969C155.756 72.4631 155.671 72.2027 155.498 72.0156C155.326 71.8262 155.088 71.7315 154.785 71.7315C154.581 71.7315 154.401 71.7753 154.245 71.8629C154.091 71.9505 153.97 72.0784 153.883 72.2464C153.797 72.4122 153.754 72.6122 153.751 72.8466ZM160.924 76.1065C160.365 76.1065 159.884 75.9882 159.482 75.7514C159.082 75.5123 158.774 75.1809 158.559 74.7571C158.346 74.3333 158.239 73.8456 158.239 73.294C158.239 72.7353 158.347 72.2453 158.562 71.8239C158.78 71.4001 159.089 71.0698 159.489 70.8331C159.889 70.594 160.365 70.4744 160.917 70.4744C161.392 70.4744 161.809 70.5608 162.167 70.7337C162.524 70.9065 162.807 71.1491 163.015 71.4616C163.224 71.7741 163.338 72.1411 163.36 72.5625H161.932C161.892 72.2902 161.785 72.0713 161.613 71.9055C161.442 71.7375 161.218 71.6534 160.941 71.6534C160.707 71.6534 160.502 71.7173 160.327 71.8452C160.154 71.9706 160.019 72.1541 159.922 72.3956C159.825 72.6371 159.777 72.9295 159.777 73.2727C159.777 73.6207 159.824 73.9167 159.919 74.1605C160.016 74.4044 160.152 74.5902 160.327 74.718C160.502 74.8459 160.707 74.9098 160.941 74.9098C161.114 74.9098 161.269 74.8743 161.407 74.8033C161.546 74.7322 161.661 74.6293 161.751 74.4943C161.843 74.357 161.904 74.1925 161.932 74.0007H163.36C163.336 74.4174 163.222 74.7843 163.019 75.1016C162.818 75.4164 162.539 75.6626 162.184 75.8402C161.829 76.0178 161.409 76.1065 160.924 76.1065ZM165.841 72.8466V76H164.328V68.7273H165.798V71.5078H165.862C165.985 71.1858 166.184 70.9337 166.459 70.7514C166.734 70.5668 167.078 70.4744 167.492 70.4744C167.871 70.4744 168.201 70.5573 168.483 70.723C168.767 70.8864 168.987 71.1219 169.144 71.4297C169.302 71.7351 169.38 72.1009 169.378 72.527V76H167.865V72.7969C167.868 72.4607 167.782 72.1991 167.61 72.0121C167.439 71.825 167.2 71.7315 166.892 71.7315C166.686 71.7315 166.504 71.7753 166.345 71.8629C166.189 71.9505 166.066 72.0784 165.976 72.2464C165.888 72.4122 165.843 72.6122 165.841 72.8466ZM173.054 76.1065C172.493 76.1065 172.01 75.9929 171.605 75.7656C171.203 75.536 170.893 75.2116 170.675 74.7926C170.457 74.3712 170.348 73.8729 170.348 73.2976C170.348 72.7365 170.457 72.2441 170.675 71.8203C170.893 71.3965 171.199 71.0663 171.595 70.8295C171.993 70.5928 172.459 70.4744 172.994 70.4744C173.354 70.4744 173.689 70.5324 173.999 70.6484C174.311 70.7621 174.584 70.9337 174.816 71.1634C175.05 71.393 175.232 71.6818 175.363 72.0298C175.493 72.3755 175.558 72.7803 175.558 73.2443V73.6598H170.952V72.7223H174.134C174.134 72.5045 174.087 72.3116 173.992 72.1435C173.897 71.9754 173.766 71.844 173.598 71.7493C173.432 71.6522 173.239 71.6037 173.019 71.6037C172.789 71.6037 172.586 71.657 172.408 71.7635C172.233 71.8677 172.096 72.0085 171.996 72.1861C171.897 72.3613 171.846 72.5566 171.843 72.772V73.6634C171.843 73.9332 171.893 74.1664 171.993 74.3629C172.094 74.5594 172.238 74.7109 172.422 74.8175C172.607 74.924 172.826 74.9773 173.079 74.9773C173.247 74.9773 173.401 74.9536 173.541 74.9062C173.681 74.8589 173.8 74.7879 173.9 74.6932C173.999 74.5985 174.075 74.4825 174.127 74.3452L175.526 74.4375C175.455 74.7737 175.309 75.0672 175.089 75.3182C174.871 75.5668 174.59 75.7609 174.244 75.9006C173.901 76.0379 173.504 76.1065 173.054 76.1065ZM176.517 76V75.098L179.187 71.7919V71.7528H176.609V70.5455H181.009V71.5291L178.502 74.7536V74.7926H181.101V76H176.517Z" fill="black"/>
<path d="M114.006 86.5V80.6818H117.858V81.696H115.236V83.0824H117.602V84.0966H115.236V86.5H114.006ZM118.592 86.5V82.1364H119.766V82.8977H119.811C119.891 82.6269 120.024 82.4223 120.212 82.2841C120.399 82.1439 120.615 82.0739 120.859 82.0739C120.92 82.0739 120.985 82.0777 121.055 82.0852C121.125 82.0928 121.187 82.1032 121.24 82.1165V83.1903C121.183 83.1733 121.105 83.1581 121.004 83.1449C120.904 83.1316 120.812 83.125 120.729 83.125C120.551 83.125 120.392 83.1638 120.251 83.2415C120.113 83.3172 120.003 83.4233 119.922 83.5597C119.842 83.696 119.803 83.8532 119.803 84.0312V86.5H118.592ZM123.634 86.5852C123.193 86.5852 122.811 86.4915 122.489 86.304C122.169 86.1146 121.922 85.8513 121.748 85.5142C121.574 85.1752 121.487 84.7822 121.487 84.3352C121.487 83.8845 121.574 83.4905 121.748 83.1534C121.922 82.8144 122.169 82.5511 122.489 82.3636C122.811 82.1742 123.193 82.0795 123.634 82.0795C124.076 82.0795 124.456 82.1742 124.776 82.3636C125.098 82.5511 125.346 82.8144 125.521 83.1534C125.695 83.4905 125.782 83.8845 125.782 84.3352C125.782 84.7822 125.695 85.1752 125.521 85.5142C125.346 85.8513 125.098 86.1146 124.776 86.304C124.456 86.4915 124.076 86.5852 123.634 86.5852ZM123.64 85.6477C123.841 85.6477 124.008 85.5909 124.143 85.4773C124.277 85.3617 124.379 85.2045 124.447 85.0057C124.517 84.8068 124.552 84.5805 124.552 84.3267C124.552 84.0729 124.517 83.8466 124.447 83.6477C124.379 83.4489 124.277 83.2917 124.143 83.1761C124.008 83.0606 123.841 83.0028 123.64 83.0028C123.437 83.0028 123.267 83.0606 123.129 83.1761C122.992 83.2917 122.889 83.4489 122.819 83.6477C122.751 83.8466 122.717 84.0729 122.717 84.3267C122.717 84.5805 122.751 84.8068 122.819 85.0057C122.889 85.2045 122.992 85.3617 123.129 85.4773C123.267 85.5909 123.437 85.6477 123.64 85.6477ZM127.779 83.9773V86.5H126.569V82.1364H127.722V82.9062H127.773C127.87 82.6525 128.032 82.4517 128.259 82.304C128.487 82.1544 128.762 82.0795 129.086 82.0795C129.389 82.0795 129.653 82.1458 129.879 82.2784C130.104 82.411 130.279 82.6004 130.404 82.8466C130.529 83.0909 130.592 83.3826 130.592 83.7216V86.5H129.381V83.9375C129.383 83.6705 129.315 83.4621 129.177 83.3125C129.039 83.161 128.848 83.0852 128.606 83.0852C128.443 83.0852 128.299 83.1203 128.174 83.1903C128.051 83.2604 127.954 83.3627 127.884 83.4972C127.816 83.6297 127.781 83.7898 127.779 83.9773ZM133.866 82.1364V83.0455H131.239V82.1364H133.866ZM131.835 81.0909H133.045V85.1591C133.045 85.2708 133.063 85.358 133.097 85.4205C133.131 85.4811 133.178 85.5237 133.239 85.5483C133.301 85.5729 133.373 85.5852 133.455 85.5852C133.511 85.5852 133.568 85.5805 133.625 85.571C133.682 85.5597 133.725 85.5511 133.756 85.5455L133.946 86.446C133.885 86.465 133.8 86.4867 133.69 86.5114C133.58 86.5379 133.447 86.554 133.29 86.5597C132.998 86.571 132.742 86.5322 132.523 86.4432C132.305 86.3542 132.135 86.2159 132.014 86.0284C131.893 85.8409 131.833 85.6042 131.835 85.3182V81.0909ZM136.597 86.5852C136.148 86.5852 135.761 86.4943 135.438 86.3125C135.116 86.1288 134.867 85.8693 134.693 85.5341C134.519 85.197 134.432 84.7983 134.432 84.3381C134.432 83.8892 134.519 83.4953 134.693 83.1562C134.867 82.8172 135.113 82.553 135.429 82.3636C135.747 82.1742 136.12 82.0795 136.548 82.0795C136.836 82.0795 137.104 82.1259 137.352 82.2188C137.602 82.3097 137.82 82.447 138.006 82.6307C138.193 82.8144 138.339 83.0455 138.443 83.3239C138.547 83.6004 138.599 83.9242 138.599 84.2955V84.6278H134.915V83.8778H137.46C137.46 83.7036 137.422 83.5492 137.347 83.4148C137.271 83.2803 137.166 83.1752 137.031 83.0994C136.899 83.0218 136.744 82.983 136.568 82.983C136.384 82.983 136.222 83.0256 136.08 83.1108C135.939 83.1941 135.83 83.3068 135.75 83.4489C135.67 83.589 135.63 83.7453 135.628 83.9176V84.6307C135.628 84.8466 135.668 85.0331 135.747 85.1903C135.829 85.3475 135.943 85.4688 136.091 85.554C136.239 85.6392 136.414 85.6818 136.616 85.6818C136.751 85.6818 136.874 85.6629 136.986 85.625C137.098 85.5871 137.193 85.5303 137.273 85.4545C137.352 85.3788 137.413 85.286 137.455 85.1761L138.574 85.25C138.517 85.5189 138.401 85.7538 138.224 85.9545C138.05 86.1534 137.825 86.3087 137.548 86.4205C137.274 86.5303 136.956 86.5852 136.597 86.5852ZM140.599 83.9773V86.5H139.389V82.1364H140.543V82.9062H140.594C140.69 82.6525 140.852 82.4517 141.08 82.304C141.307 82.1544 141.582 82.0795 141.906 82.0795C142.209 82.0795 142.473 82.1458 142.699 82.2784C142.924 82.411 143.099 82.6004 143.224 82.8466C143.349 83.0909 143.412 83.3826 143.412 83.7216V86.5H142.202V83.9375C142.204 83.6705 142.135 83.4621 141.997 83.3125C141.859 83.161 141.669 83.0852 141.426 83.0852C141.263 83.0852 141.119 83.1203 140.994 83.1903C140.871 83.2604 140.775 83.3627 140.705 83.4972C140.636 83.6297 140.601 83.7898 140.599 83.9773ZM145.974 86.571C145.642 86.571 145.342 86.4858 145.073 86.3153C144.806 86.143 144.594 85.8902 144.437 85.5568C144.281 85.2216 144.204 84.8106 144.204 84.3239C144.204 83.8239 144.284 83.4081 144.445 83.0767C144.606 82.7434 144.82 82.4943 145.087 82.3295C145.356 82.1629 145.651 82.0795 145.971 82.0795C146.215 82.0795 146.419 82.1212 146.582 82.2045C146.746 82.286 146.879 82.3883 146.979 82.5114C147.082 82.6326 147.159 82.7519 147.212 82.8693H147.249V80.6818H148.457V86.5H147.263V85.8011H147.212C147.156 85.9223 147.075 86.0426 146.971 86.1619C146.869 86.2794 146.735 86.3769 146.57 86.4545C146.407 86.5322 146.209 86.571 145.974 86.571ZM146.357 85.608C146.552 85.608 146.717 85.5549 146.852 85.4489C146.988 85.3409 147.092 85.1903 147.164 84.9972C147.238 84.804 147.275 84.5777 147.275 84.3182C147.275 84.0587 147.239 83.8333 147.167 83.642C147.095 83.4508 146.991 83.303 146.854 83.1989C146.718 83.0947 146.552 83.0426 146.357 83.0426C146.158 83.0426 145.991 83.0966 145.854 83.2045C145.718 83.3125 145.615 83.4621 145.545 83.6534C145.475 83.8447 145.44 84.0663 145.44 84.3182C145.44 84.572 145.475 84.7964 145.545 84.9915C145.617 85.1847 145.72 85.3362 145.854 85.446C145.991 85.554 146.158 85.608 146.357 85.608ZM151.326 86.5V80.6818H155.246V81.696H152.556V83.0824H155.045V84.0966H152.556V85.4858H155.258V86.5H151.326ZM157.412 83.9773V86.5H156.202V82.1364H157.355V82.9062H157.406C157.503 82.6525 157.665 82.4517 157.892 82.304C158.119 82.1544 158.395 82.0795 158.719 82.0795C159.022 82.0795 159.286 82.1458 159.511 82.2784C159.737 82.411 159.912 82.6004 160.037 82.8466C160.162 83.0909 160.224 83.3826 160.224 83.7216V86.5H159.014V83.9375C159.016 83.6705 158.948 83.4621 158.81 83.3125C158.671 83.161 158.481 83.0852 158.239 83.0852C158.076 83.0852 157.932 83.1203 157.807 83.1903C157.684 83.2604 157.587 83.3627 157.517 83.4972C157.449 83.6297 157.414 83.7898 157.412 83.9773ZM163.144 88.2273C162.752 88.2273 162.416 88.1733 162.136 88.0653C161.857 87.9593 161.636 87.8144 161.471 87.6307C161.306 87.447 161.199 87.2405 161.15 87.0114L162.269 86.8608C162.303 86.9479 162.357 87.0294 162.431 87.1051C162.505 87.1809 162.603 87.2415 162.724 87.2869C162.847 87.3343 162.996 87.358 163.173 87.358C163.436 87.358 163.653 87.2936 163.823 87.1648C163.996 87.0379 164.082 86.8248 164.082 86.5256V85.7273H164.031C163.978 85.8485 163.898 85.9631 163.792 86.071C163.686 86.179 163.549 86.267 163.383 86.3352C163.216 86.4034 163.017 86.4375 162.786 86.4375C162.459 86.4375 162.16 86.3617 161.891 86.2102C161.624 86.0568 161.411 85.8229 161.252 85.5085C161.095 85.1922 161.016 84.7926 161.016 84.3097C161.016 83.8153 161.097 83.4025 161.258 83.071C161.419 82.7396 161.633 82.4915 161.9 82.3267C162.169 82.1619 162.463 82.0795 162.783 82.0795C163.028 82.0795 163.232 82.1212 163.397 82.2045C163.562 82.286 163.694 82.3883 163.795 82.5114C163.897 82.6326 163.976 82.7519 164.031 82.8693H164.076V82.1364H165.278V86.5426C165.278 86.9138 165.187 87.2244 165.005 87.4744C164.823 87.7244 164.571 87.9119 164.249 88.0369C163.929 88.1638 163.561 88.2273 163.144 88.2273ZM163.17 85.5284C163.365 85.5284 163.53 85.4801 163.664 85.3835C163.8 85.285 163.905 85.1449 163.977 84.9631C164.05 84.7794 164.087 84.5597 164.087 84.304C164.087 84.0483 164.051 83.8267 163.979 83.6392C163.907 83.4498 163.803 83.303 163.667 83.1989C163.531 83.0947 163.365 83.0426 163.17 83.0426C162.971 83.0426 162.803 83.0966 162.667 83.2045C162.531 83.3106 162.427 83.4583 162.357 83.6477C162.287 83.8371 162.252 84.0559 162.252 84.304C162.252 84.5559 162.287 84.7737 162.357 84.9574C162.429 85.1392 162.532 85.2803 162.667 85.3807C162.803 85.4792 162.971 85.5284 163.17 85.5284ZM166.241 86.5V82.1364H167.451V86.5H166.241ZM166.849 81.5739C166.669 81.5739 166.514 81.5142 166.386 81.3949C166.259 81.2737 166.195 81.1288 166.195 80.9602C166.195 80.7936 166.259 80.6506 166.386 80.5312C166.514 80.41 166.669 80.3494 166.849 80.3494C167.029 80.3494 167.182 80.41 167.309 80.5312C167.438 80.6506 167.502 80.7936 167.502 80.9602C167.502 81.1288 167.438 81.2737 167.309 81.3949C167.182 81.5142 167.029 81.5739 166.849 81.5739ZM169.631 83.9773V86.5H168.42V82.1364H169.574V82.9062H169.625C169.722 82.6525 169.884 82.4517 170.111 82.304C170.338 82.1544 170.614 82.0795 170.938 82.0795C171.241 82.0795 171.505 82.1458 171.73 82.2784C171.955 82.411 172.131 82.6004 172.256 82.8466C172.381 83.0909 172.443 83.3826 172.443 83.7216V86.5H171.233V83.9375C171.235 83.6705 171.167 83.4621 171.028 83.3125C170.89 83.161 170.7 83.0852 170.457 83.0852C170.295 83.0852 170.151 83.1203 170.026 83.1903C169.902 83.2604 169.806 83.3627 169.736 83.4972C169.668 83.6297 169.633 83.7898 169.631 83.9773ZM175.386 86.5852C174.937 86.5852 174.55 86.4943 174.227 86.3125C173.905 86.1288 173.656 85.8693 173.482 85.5341C173.308 85.197 173.221 84.7983 173.221 84.3381C173.221 83.8892 173.308 83.4953 173.482 83.1562C173.656 82.8172 173.902 82.553 174.218 82.3636C174.536 82.1742 174.909 82.0795 175.337 82.0795C175.625 82.0795 175.893 82.1259 176.141 82.2188C176.391 82.3097 176.609 82.447 176.795 82.6307C176.982 82.8144 177.128 83.0455 177.232 83.3239C177.336 83.6004 177.388 83.9242 177.388 84.2955V84.6278H173.704V83.8778H176.249C176.249 83.7036 176.211 83.5492 176.136 83.4148C176.06 83.2803 175.955 83.1752 175.82 83.0994C175.688 83.0218 175.533 82.983 175.357 82.983C175.174 82.983 175.011 83.0256 174.869 83.1108C174.728 83.1941 174.619 83.3068 174.539 83.4489C174.46 83.589 174.419 83.7453 174.417 83.9176V84.6307C174.417 84.8466 174.457 85.0331 174.536 85.1903C174.618 85.3475 174.732 85.4688 174.88 85.554C175.028 85.6392 175.203 85.6818 175.406 85.6818C175.54 85.6818 175.663 85.6629 175.775 85.625C175.887 85.5871 175.982 85.5303 176.062 85.4545C176.141 85.3788 176.202 85.286 176.244 85.1761L177.363 85.25C177.306 85.5189 177.19 85.7538 177.013 85.9545C176.839 86.1534 176.614 86.3087 176.337 86.4205C176.063 86.5303 175.746 86.5852 175.386 86.5852ZM180.167 86.5852C179.718 86.5852 179.332 86.4943 179.008 86.3125C178.686 86.1288 178.438 85.8693 178.263 85.5341C178.089 85.197 178.002 84.7983 178.002 84.3381C178.002 83.8892 178.089 83.4953 178.263 83.1562C178.438 82.8172 178.683 82.553 178.999 82.3636C179.317 82.1742 179.691 82.0795 180.119 82.0795C180.406 82.0795 180.674 82.1259 180.923 82.2188C181.173 82.3097 181.39 82.447 181.576 82.6307C181.763 82.8144 181.909 83.0455 182.013 83.3239C182.118 83.6004 182.17 83.9242 182.17 84.2955V84.6278H178.485V83.8778H181.031C181.031 83.7036 180.993 83.5492 180.917 83.4148C180.841 83.2803 180.736 83.1752 180.602 83.0994C180.469 83.0218 180.315 82.983 180.138 82.983C179.955 82.983 179.792 83.0256 179.65 83.1108C179.51 83.1941 179.4 83.3068 179.32 83.4489C179.241 83.589 179.2 83.7453 179.198 83.9176V84.6307C179.198 84.8466 179.238 85.0331 179.317 85.1903C179.399 85.3475 179.513 85.4688 179.661 85.554C179.809 85.6392 179.984 85.6818 180.187 85.6818C180.321 85.6818 180.444 85.6629 180.556 85.625C180.668 85.5871 180.763 85.5303 180.843 85.4545C180.923 85.3788 180.983 85.286 181.025 85.1761L182.144 85.25C182.087 85.5189 181.971 85.7538 181.795 85.9545C181.621 86.1534 181.395 86.3087 181.119 86.4205C180.844 86.5303 180.527 86.5852 180.167 86.5852ZM182.96 86.5V82.1364H184.133V82.8977H184.178C184.258 82.6269 184.391 82.4223 184.579 82.2841C184.766 82.1439 184.982 82.0739 185.227 82.0739C185.287 82.0739 185.353 82.0777 185.423 82.0852C185.493 82.0928 185.554 82.1032 185.607 82.1165V83.1903C185.55 83.1733 185.472 83.1581 185.371 83.1449C185.271 83.1316 185.179 83.125 185.096 83.125C184.918 83.125 184.759 83.1638 184.619 83.2415C184.48 83.3172 184.371 83.4233 184.289 83.5597C184.21 83.696 184.17 83.8532 184.17 84.0312V86.5H182.96Z" fill="#092AD0"/>
<rect x="113.75" y="91.25" width="34.5" height="12" rx="2.25" fill="#092AD0" fill-opacity="0.56" stroke="#092AD0" stroke-width="0.5"/>
<path d="M120.016 99.5L120.732 95.1364H121.413L120.697 99.5H120.016ZM118.062 98.4176L118.175 97.7358H121.584L121.471 98.4176H118.062ZM118.482 99.5L119.197 95.1364H119.879L119.163 99.5H118.482ZM118.311 96.9006L118.426 96.2188H121.835L121.72 96.9006H118.311ZM127.314 95.1364V99.5H126.517L124.619 96.7536H124.587V99.5H123.664V95.1364H124.474L126.358 97.8807H126.396V95.1364H127.314ZM129.551 99.5639C129.214 99.5639 128.925 99.4957 128.682 99.3594C128.44 99.2216 128.254 99.027 128.123 98.7756C127.993 98.5227 127.927 98.2237 127.927 97.8786C127.927 97.5419 127.993 97.2464 128.123 96.9922C128.254 96.7379 128.438 96.5398 128.675 96.3977C128.914 96.2557 129.194 96.1847 129.515 96.1847C129.731 96.1847 129.932 96.2195 130.118 96.2891C130.305 96.3572 130.469 96.4602 130.608 96.598C130.748 96.7358 130.858 96.9091 130.936 97.1179C131.014 97.3253 131.053 97.5682 131.053 97.8466V98.0959H128.29V97.5334H130.199C130.199 97.4027 130.17 97.2869 130.113 97.1861C130.057 97.0852 129.978 97.0064 129.877 96.9496C129.778 96.8913 129.662 96.8622 129.53 96.8622C129.392 96.8622 129.27 96.8942 129.163 96.9581C129.058 97.0206 128.976 97.1051 128.916 97.2116C128.856 97.3168 128.826 97.4339 128.824 97.5632V98.098C128.824 98.2599 128.854 98.3999 128.914 98.5178C128.975 98.6357 129.061 98.7266 129.172 98.7905C129.282 98.8544 129.414 98.8864 129.566 98.8864C129.667 98.8864 129.759 98.8722 129.843 98.8438C129.927 98.8153 129.998 98.7727 130.058 98.7159C130.118 98.6591 130.163 98.5895 130.194 98.5071L131.034 98.5625C130.991 98.7642 130.904 98.9403 130.772 99.0909C130.641 99.2401 130.472 99.3565 130.265 99.4403C130.059 99.5227 129.821 99.5639 129.551 99.5639ZM132.345 96.2273L132.946 97.3714L133.562 96.2273H134.493L133.545 97.8636L134.519 99.5H133.592L132.946 98.3686L132.311 99.5H131.374L132.345 97.8636L131.408 96.2273H132.345ZM136.773 96.2273V96.9091H134.802V96.2273H136.773ZM135.249 95.4432H136.157V98.4943C136.157 98.5781 136.17 98.6435 136.195 98.6903C136.221 98.7358 136.257 98.7678 136.302 98.7862C136.349 98.8047 136.403 98.8139 136.464 98.8139C136.507 98.8139 136.549 98.8104 136.592 98.8033C136.634 98.7947 136.667 98.7884 136.69 98.7841L136.833 99.4595C136.787 99.4737 136.723 99.4901 136.641 99.5085C136.558 99.5284 136.458 99.5405 136.34 99.5447C136.122 99.5533 135.93 99.5241 135.765 99.4574C135.602 99.3906 135.475 99.2869 135.384 99.1463C135.293 99.0057 135.248 98.8281 135.249 98.6136V95.4432ZM137.895 99.5554C137.754 99.5554 137.633 99.5057 137.532 99.4062C137.433 99.3054 137.383 99.1847 137.383 99.044C137.383 98.9048 137.433 98.7855 137.532 98.6861C137.633 98.5866 137.754 98.5369 137.895 98.5369C138.031 98.5369 138.15 98.5866 138.253 98.6861C138.355 98.7855 138.406 98.9048 138.406 99.044C138.406 99.1378 138.382 99.2237 138.334 99.3018C138.287 99.3786 138.225 99.4403 138.148 99.4872C138.072 99.5327 137.987 99.5554 137.895 99.5554ZM139.151 96.2273H140.059V99.6619C140.059 99.9148 140.009 100.119 139.91 100.276C139.81 100.432 139.668 100.546 139.482 100.619C139.297 100.691 139.076 100.727 138.819 100.727C138.788 100.727 138.758 100.727 138.729 100.725C138.7 100.725 138.668 100.724 138.636 100.723V100.013C138.66 100.015 138.681 100.016 138.7 100.016C138.717 100.017 138.735 100.018 138.755 100.018C138.901 100.018 139.004 99.9865 139.062 99.924C139.121 99.8629 139.151 99.7706 139.151 99.647V96.2273ZM139.603 95.8054C139.469 95.8054 139.354 95.7607 139.258 95.6712C139.161 95.5803 139.113 95.4716 139.113 95.3452C139.113 95.2202 139.161 95.1129 139.258 95.0234C139.354 94.9325 139.469 94.8871 139.603 94.8871C139.739 94.8871 139.855 94.9325 139.95 95.0234C140.047 95.1129 140.095 95.2202 140.095 95.3452C140.095 95.4716 140.047 95.5803 139.95 95.6712C139.855 95.7607 139.739 95.8054 139.603 95.8054ZM143.509 97.1605L142.678 97.2116C142.664 97.1406 142.633 97.0767 142.586 97.0199C142.54 96.9616 142.478 96.9155 142.401 96.8814C142.326 96.8459 142.236 96.8281 142.131 96.8281C141.99 96.8281 141.871 96.858 141.775 96.9176C141.678 96.9759 141.63 97.054 141.63 97.152C141.63 97.2301 141.661 97.2962 141.724 97.3501C141.786 97.4041 141.893 97.4474 142.045 97.4801L142.638 97.5994C142.956 97.6648 143.193 97.7699 143.349 97.9148C143.506 98.0597 143.584 98.25 143.584 98.4858C143.584 98.7003 143.52 98.8885 143.394 99.0504C143.269 99.2124 143.097 99.3388 142.878 99.4297C142.661 99.5192 142.41 99.5639 142.126 99.5639C141.693 99.5639 141.348 99.4737 141.091 99.2933C140.835 99.1115 140.685 98.8643 140.641 98.5518L141.534 98.505C141.561 98.6371 141.626 98.7379 141.73 98.8075C141.834 98.8757 141.966 98.9098 142.128 98.9098C142.287 98.9098 142.415 98.8793 142.512 98.8182C142.61 98.7557 142.66 98.6754 142.661 98.5774C142.66 98.495 142.625 98.4276 142.557 98.375C142.488 98.321 142.383 98.2798 142.241 98.2514L141.675 98.1385C141.355 98.0746 141.117 97.9638 140.961 97.8061C140.806 97.6484 140.729 97.4474 140.729 97.2031C140.729 96.9929 140.785 96.8118 140.899 96.6598C141.014 96.5078 141.175 96.3906 141.383 96.3082C141.591 96.2259 141.836 96.1847 142.116 96.1847C142.529 96.1847 142.854 96.272 143.091 96.4467C143.33 96.6214 143.469 96.8594 143.509 97.1605Z" fill="white"/>
<path d="M157.516 99.5L158.232 95.1364H158.913L158.197 99.5H157.516ZM155.562 98.4176L155.675 97.7358H159.084L158.971 98.4176H155.562ZM155.982 99.5L156.697 95.1364H157.379L156.663 99.5H155.982ZM155.811 96.9006L155.926 96.2188H159.335L159.22 96.9006H155.811ZM155.713 102.897V102.136H159.297V102.897H157.961V106.5H157.049V102.897H155.713ZM160.055 107.727C159.94 107.727 159.832 107.718 159.732 107.7C159.632 107.683 159.55 107.661 159.484 107.634L159.689 106.956C159.795 106.989 159.891 107.006 159.977 107.009C160.063 107.012 160.138 106.992 160.2 106.95C160.264 106.907 160.316 106.835 160.356 106.732L160.409 106.594L159.235 103.227H160.19L160.867 105.631H160.901L161.585 103.227H162.546L161.274 106.854C161.213 107.03 161.13 107.183 161.025 107.314C160.921 107.446 160.79 107.548 160.631 107.619C160.472 107.691 160.28 107.727 160.055 107.727ZM163.011 107.727V103.227H163.906V103.777H163.946C163.986 103.689 164.043 103.599 164.119 103.509C164.195 103.416 164.295 103.339 164.417 103.278C164.54 103.216 164.694 103.185 164.877 103.185C165.116 103.185 165.336 103.247 165.538 103.372C165.739 103.496 165.901 103.683 166.021 103.933C166.142 104.181 166.202 104.493 166.202 104.868C166.202 105.233 166.143 105.541 166.026 105.793C165.909 106.043 165.75 106.232 165.548 106.362C165.348 106.489 165.124 106.553 164.875 106.553C164.699 106.553 164.549 106.524 164.425 106.466C164.303 106.408 164.203 106.335 164.125 106.246C164.047 106.157 163.987 106.067 163.946 105.976H163.918V107.727H163.011ZM163.899 104.864C163.899 105.058 163.926 105.228 163.98 105.373C164.034 105.518 164.112 105.631 164.214 105.712C164.317 105.791 164.441 105.831 164.587 105.831C164.735 105.831 164.86 105.79 164.962 105.71C165.065 105.627 165.142 105.513 165.195 105.369C165.249 105.222 165.276 105.054 165.276 104.864C165.276 104.675 165.249 104.509 165.197 104.365C165.144 104.222 165.067 104.109 164.964 104.028C164.862 103.947 164.737 103.907 164.587 103.907C164.44 103.907 164.315 103.946 164.212 104.024C164.112 104.102 164.034 104.213 163.98 104.357C163.926 104.5 163.899 104.669 163.899 104.864ZM168.299 106.564C167.962 106.564 167.673 106.496 167.43 106.359C167.188 106.222 167.002 106.027 166.871 105.776C166.741 105.523 166.675 105.224 166.675 104.879C166.675 104.542 166.741 104.246 166.871 103.992C167.002 103.738 167.186 103.54 167.423 103.398C167.662 103.256 167.942 103.185 168.263 103.185C168.479 103.185 168.68 103.219 168.866 103.289C169.053 103.357 169.217 103.46 169.356 103.598C169.496 103.736 169.606 103.909 169.684 104.118C169.762 104.325 169.801 104.568 169.801 104.847V105.096H167.038V104.533H168.947C168.947 104.403 168.918 104.287 168.862 104.186C168.805 104.085 168.726 104.006 168.625 103.95C168.526 103.891 168.41 103.862 168.278 103.862C168.14 103.862 168.018 103.894 167.911 103.958C167.806 104.021 167.724 104.105 167.664 104.212C167.604 104.317 167.574 104.434 167.572 104.563V105.098C167.572 105.26 167.602 105.4 167.662 105.518C167.723 105.636 167.809 105.727 167.92 105.79C168.031 105.854 168.162 105.886 168.314 105.886C168.415 105.886 168.507 105.872 168.591 105.844C168.675 105.815 168.746 105.773 168.806 105.716C168.866 105.659 168.911 105.589 168.942 105.507L169.782 105.562C169.739 105.764 169.652 105.94 169.52 106.091C169.389 106.24 169.22 106.357 169.013 106.44C168.807 106.523 168.569 106.564 168.299 106.564ZM173.116 104.161L172.286 104.212C172.271 104.141 172.241 104.077 172.194 104.02C172.147 103.962 172.085 103.915 172.009 103.881C171.933 103.846 171.843 103.828 171.738 103.828C171.597 103.828 171.479 103.858 171.382 103.918C171.286 103.976 171.237 104.054 171.237 104.152C171.237 104.23 171.268 104.296 171.331 104.35C171.393 104.404 171.501 104.447 171.653 104.48L172.245 104.599C172.563 104.665 172.8 104.77 172.957 104.915C173.113 105.06 173.191 105.25 173.191 105.486C173.191 105.7 173.128 105.888 173.001 106.05C172.876 106.212 172.705 106.339 172.486 106.43C172.268 106.519 172.018 106.564 171.734 106.564C171.3 106.564 170.955 106.474 170.698 106.293C170.442 106.112 170.293 105.864 170.249 105.552L171.141 105.505C171.168 105.637 171.234 105.738 171.337 105.808C171.441 105.876 171.574 105.91 171.736 105.91C171.895 105.91 172.023 105.879 172.119 105.818C172.217 105.756 172.267 105.675 172.268 105.577C172.267 105.495 172.232 105.428 172.164 105.375C172.096 105.321 171.991 105.28 171.849 105.251L171.282 105.138C170.962 105.075 170.724 104.964 170.568 104.806C170.413 104.648 170.336 104.447 170.336 104.203C170.336 103.993 170.393 103.812 170.506 103.66C170.621 103.508 170.783 103.391 170.99 103.308C171.199 103.226 171.443 103.185 171.723 103.185C172.136 103.185 172.462 103.272 172.699 103.447C172.938 103.621 173.077 103.859 173.116 104.161ZM175.241 106.564C174.906 106.564 174.618 106.493 174.376 106.351C174.136 106.207 173.952 106.009 173.822 105.754C173.694 105.5 173.631 105.207 173.631 104.876C173.631 104.541 173.695 104.247 173.824 103.994C173.955 103.74 174.14 103.542 174.381 103.4C174.621 103.256 174.906 103.185 175.237 103.185C175.523 103.185 175.773 103.237 175.987 103.34C176.202 103.444 176.371 103.589 176.496 103.777C176.621 103.964 176.69 104.185 176.703 104.438H175.846C175.822 104.274 175.758 104.143 175.655 104.043C175.552 103.942 175.418 103.892 175.252 103.892C175.111 103.892 174.988 103.93 174.883 104.007C174.78 104.082 174.699 104.192 174.64 104.337C174.582 104.482 174.553 104.658 174.553 104.864C174.553 105.072 174.581 105.25 174.638 105.396C174.697 105.543 174.778 105.654 174.883 105.731C174.988 105.808 175.111 105.846 175.252 105.846C175.356 105.846 175.449 105.825 175.531 105.782C175.615 105.739 175.684 105.678 175.738 105.597C175.793 105.514 175.829 105.415 175.846 105.3H176.703C176.689 105.55 176.621 105.771 176.498 105.961C176.378 106.15 176.211 106.298 175.998 106.404C175.785 106.511 175.532 106.564 175.241 106.564ZM177.284 106.5V103.227H178.164V103.798H178.198C178.258 103.595 178.358 103.442 178.499 103.338C178.639 103.233 178.801 103.18 178.984 103.18C179.03 103.18 179.079 103.183 179.131 103.189C179.184 103.195 179.23 103.202 179.27 103.212V104.018C179.227 104.005 179.168 103.994 179.093 103.984C179.018 103.974 178.949 103.969 178.886 103.969C178.753 103.969 178.634 103.998 178.528 104.056C178.425 104.113 178.342 104.192 178.281 104.295C178.222 104.397 178.192 104.515 178.192 104.648V106.5H177.284ZM179.739 106.5V103.227H180.647V106.5H179.739ZM180.195 102.805C180.06 102.805 179.944 102.761 179.848 102.671C179.753 102.58 179.705 102.472 179.705 102.345C179.705 102.22 179.753 102.113 179.848 102.023C179.944 101.933 180.06 101.887 180.195 101.887C180.33 101.887 180.445 101.933 180.54 102.023C180.637 102.113 180.685 102.22 180.685 102.345C180.685 102.472 180.637 102.58 180.54 102.671C180.445 102.761 180.33 102.805 180.195 102.805ZM181.374 107.727V103.227H182.269V103.777H182.309C182.349 103.689 182.407 103.599 182.482 103.509C182.559 103.416 182.658 103.339 182.78 103.278C182.904 103.216 183.057 103.185 183.24 103.185C183.479 103.185 183.699 103.247 183.901 103.372C184.103 103.496 184.264 103.683 184.385 103.933C184.505 104.181 184.566 104.493 184.566 104.868C184.566 105.233 184.507 105.541 184.389 105.793C184.272 106.043 184.113 106.232 183.912 106.362C183.711 106.489 183.487 106.553 183.238 106.553C183.062 106.553 182.912 106.524 182.789 106.466C182.667 106.408 182.566 106.335 182.488 106.246C182.41 106.157 182.35 106.067 182.309 105.976H182.282V107.727H181.374ZM182.262 104.864C182.262 105.058 182.289 105.228 182.343 105.373C182.397 105.518 182.475 105.631 182.578 105.712C182.68 105.791 182.804 105.831 182.951 105.831C183.098 105.831 183.223 105.79 183.326 105.71C183.428 105.627 183.505 105.513 183.558 105.369C183.612 105.222 183.639 105.054 183.639 104.864C183.639 104.675 183.613 104.509 183.56 104.365C183.507 104.222 183.43 104.109 183.328 104.028C183.225 103.947 183.1 103.907 182.951 103.907C182.803 103.907 182.678 103.946 182.576 104.024C182.475 104.102 182.397 104.213 182.343 104.357C182.289 104.5 182.262 104.669 182.262 104.864ZM186.912 103.227V103.909H184.941V103.227H186.912ZM185.388 102.443H186.296V105.494C186.296 105.578 186.309 105.643 186.334 105.69C186.36 105.736 186.395 105.768 186.441 105.786C186.488 105.805 186.542 105.814 186.603 105.814C186.645 105.814 186.688 105.81 186.73 105.803C186.773 105.795 186.806 105.788 186.828 105.784L186.971 106.46C186.926 106.474 186.862 106.49 186.779 106.509C186.697 106.528 186.597 106.54 186.479 106.545C186.26 106.553 186.069 106.524 185.904 106.457C185.74 106.391 185.613 106.287 185.522 106.146C185.431 106.006 185.387 105.828 185.388 105.614V102.443Z" fill="white"/>
<rect x="204.75" y="91.25" width="39.5" height="12" rx="2.25" fill="#092AD0" fill-opacity="0.56" stroke="#092AD0" stroke-width="0.5"/>
<rect x="152.75" y="91.25" width="47" height="12" rx="2.25" fill="#092AD0" fill-opacity="0.56" stroke="#092AD0" stroke-width="0.5"/>
<path d="M159.516 99.5L160.232 95.1364H160.913L160.197 99.5H159.516ZM157.562 98.4176L157.675 97.7358H161.084L160.971 98.4176H157.562ZM157.982 99.5L158.697 95.1364H159.379L158.663 99.5H157.982ZM157.811 96.9006L157.926 96.2188H161.335L161.22 96.9006H157.811ZM162.998 95.897V95.1364H166.582V95.897H165.246V99.5H164.334V95.897H162.998ZM167.341 100.727C167.225 100.727 167.118 100.718 167.017 100.7C166.917 100.683 166.835 100.661 166.77 100.634L166.974 99.956C167.081 99.9886 167.176 100.006 167.262 100.009C167.348 100.012 167.423 99.9922 167.485 99.9496C167.549 99.907 167.601 99.8345 167.641 99.7322L167.694 99.5938L166.52 96.2273H167.475L168.152 98.6307H168.186L168.87 96.2273H169.831L168.559 99.8537C168.498 100.03 168.415 100.183 168.31 100.314C168.206 100.446 168.075 100.548 167.916 100.619C167.757 100.691 167.565 100.727 167.341 100.727ZM170.296 100.727V96.2273H171.191V96.777H171.231C171.271 96.6889 171.328 96.5994 171.404 96.5085C171.48 96.4162 171.58 96.3395 171.702 96.2784C171.826 96.2159 171.979 96.1847 172.162 96.1847C172.401 96.1847 172.621 96.2472 172.823 96.3722C173.025 96.4957 173.186 96.6825 173.306 96.9325C173.427 97.1811 173.488 97.4929 173.488 97.8679C173.488 98.233 173.429 98.5412 173.311 98.7926C173.194 99.0426 173.035 99.2322 172.833 99.3615C172.633 99.4893 172.409 99.5533 172.16 99.5533C171.984 99.5533 171.834 99.5241 171.711 99.4659C171.588 99.4077 171.488 99.3345 171.41 99.2464C171.332 99.157 171.272 99.0668 171.231 98.9759H171.203V100.727H170.296ZM171.184 97.8636C171.184 98.0582 171.211 98.228 171.265 98.3729C171.319 98.5178 171.397 98.6307 171.5 98.7116C171.602 98.7912 171.726 98.831 171.873 98.831C172.02 98.831 172.145 98.7905 172.248 98.7095C172.35 98.6271 172.427 98.5135 172.48 98.3686C172.534 98.2223 172.561 98.054 172.561 97.8636C172.561 97.6747 172.534 97.5085 172.482 97.3651C172.429 97.2216 172.352 97.1094 172.25 97.0284C172.147 96.9474 172.022 96.907 171.873 96.907C171.725 96.907 171.6 96.946 171.498 97.0241C171.397 97.1023 171.319 97.2131 171.265 97.3565C171.211 97.5 171.184 97.669 171.184 97.8636ZM175.584 99.5639C175.248 99.5639 174.958 99.4957 174.715 99.3594C174.473 99.2216 174.287 99.027 174.157 98.7756C174.026 98.5227 173.961 98.2237 173.961 97.8786C173.961 97.5419 174.026 97.2464 174.157 96.9922C174.287 96.7379 174.471 96.5398 174.708 96.3977C174.947 96.2557 175.227 96.1847 175.548 96.1847C175.764 96.1847 175.965 96.2195 176.151 96.2891C176.338 96.3572 176.502 96.4602 176.641 96.598C176.782 96.7358 176.891 96.9091 176.969 97.1179C177.047 97.3253 177.086 97.5682 177.086 97.8466V98.0959H174.323V97.5334H176.232C176.232 97.4027 176.203 97.2869 176.147 97.1861C176.09 97.0852 176.011 97.0064 175.91 96.9496C175.811 96.8913 175.695 96.8622 175.563 96.8622C175.425 96.8622 175.303 96.8942 175.196 96.9581C175.091 97.0206 175.009 97.1051 174.949 97.2116C174.89 97.3168 174.859 97.4339 174.858 97.5632V98.098C174.858 98.2599 174.887 98.3999 174.947 98.5178C175.008 98.6357 175.094 98.7266 175.205 98.7905C175.316 98.8544 175.447 98.8864 175.599 98.8864C175.7 98.8864 175.792 98.8722 175.876 98.8438C175.96 98.8153 176.032 98.7727 176.091 98.7159C176.151 98.6591 176.196 98.5895 176.228 98.5071L177.067 98.5625C177.025 98.7642 176.937 98.9403 176.805 99.0909C176.674 99.2401 176.505 99.3565 176.298 99.4403C176.092 99.5227 175.854 99.5639 175.584 99.5639ZM180.402 97.1605L179.571 97.2116C179.556 97.1406 179.526 97.0767 179.479 97.0199C179.432 96.9616 179.37 96.9155 179.294 96.8814C179.218 96.8459 179.128 96.8281 179.023 96.8281C178.882 96.8281 178.764 96.858 178.667 96.9176C178.571 96.9759 178.522 97.054 178.522 97.152C178.522 97.2301 178.554 97.2962 178.616 97.3501C178.679 97.4041 178.786 97.4474 178.938 97.4801L179.53 97.5994C179.848 97.6648 180.086 97.7699 180.242 97.9148C180.398 98.0597 180.476 98.25 180.476 98.4858C180.476 98.7003 180.413 98.8885 180.287 99.0504C180.162 99.2124 179.99 99.3388 179.771 99.4297C179.554 99.5192 179.303 99.5639 179.019 99.5639C178.586 99.5639 178.24 99.4737 177.983 99.2933C177.728 99.1115 177.578 98.8643 177.534 98.5518L178.426 98.505C178.453 98.6371 178.519 98.7379 178.623 98.8075C178.726 98.8757 178.859 98.9098 179.021 98.9098C179.18 98.9098 179.308 98.8793 179.404 98.8182C179.502 98.7557 179.552 98.6754 179.554 98.5774C179.552 98.495 179.517 98.4276 179.449 98.375C179.381 98.321 179.276 98.2798 179.134 98.2514L178.567 98.1385C178.248 98.0746 178.01 97.9638 177.853 97.8061C177.699 97.6484 177.621 97.4474 177.621 97.2031C177.621 96.9929 177.678 96.8118 177.792 96.6598C177.907 96.5078 178.068 96.3906 178.275 96.3082C178.484 96.2259 178.728 96.1847 179.008 96.1847C179.422 96.1847 179.747 96.272 179.984 96.4467C180.223 96.6214 180.362 96.8594 180.402 97.1605ZM182.526 99.5639C182.191 99.5639 181.903 99.4929 181.661 99.3509C181.421 99.2074 181.237 99.0085 181.107 98.7543C180.98 98.5 180.916 98.2074 180.916 97.8764C180.916 97.5412 180.98 97.2472 181.11 96.9943C181.24 96.7401 181.426 96.5419 181.666 96.3999C181.906 96.2564 182.191 96.1847 182.522 96.1847C182.808 96.1847 183.058 96.2365 183.272 96.3402C183.487 96.4439 183.656 96.5895 183.781 96.777C183.906 96.9645 183.975 97.1847 183.988 97.4375H183.132C183.107 97.2741 183.044 97.1428 182.94 97.0433C182.838 96.9425 182.703 96.892 182.537 96.892C182.396 96.892 182.274 96.9304 182.169 97.0071C182.065 97.0824 181.984 97.1925 181.926 97.3374C181.867 97.4822 181.838 97.6577 181.838 97.8636C181.838 98.0724 181.867 98.25 181.923 98.3963C181.982 98.5426 182.063 98.6541 182.169 98.7308C182.274 98.8075 182.396 98.8459 182.537 98.8459C182.641 98.8459 182.734 98.8246 182.816 98.782C182.9 98.7393 182.969 98.6776 183.023 98.5966C183.078 98.5142 183.115 98.4155 183.132 98.3004H183.988C183.974 98.5504 183.906 98.7706 183.784 98.9609C183.663 99.1499 183.496 99.2976 183.283 99.4041C183.07 99.5107 182.818 99.5639 182.526 99.5639ZM184.569 99.5V96.2273H185.449V96.7983H185.483C185.543 96.5952 185.643 96.4418 185.784 96.3381C185.924 96.233 186.086 96.1804 186.27 96.1804C186.315 96.1804 186.364 96.1832 186.417 96.1889C186.469 96.1946 186.515 96.2024 186.555 96.2124V97.0178C186.512 97.005 186.453 96.9936 186.378 96.9837C186.303 96.9737 186.234 96.9688 186.172 96.9688C186.038 96.9688 185.919 96.9979 185.814 97.0561C185.71 97.1129 185.627 97.1925 185.566 97.2947C185.507 97.397 185.477 97.5149 185.477 97.6484V99.5H184.569ZM187.024 99.5V96.2273H187.932V99.5H187.024ZM187.48 95.8054C187.345 95.8054 187.23 95.7607 187.133 95.6712C187.038 95.5803 186.99 95.4716 186.99 95.3452C186.99 95.2202 187.038 95.1129 187.133 95.0234C187.23 94.9325 187.345 94.8871 187.48 94.8871C187.615 94.8871 187.73 94.9325 187.825 95.0234C187.922 95.1129 187.97 95.2202 187.97 95.3452C187.97 95.4716 187.922 95.5803 187.825 95.6712C187.73 95.7607 187.615 95.8054 187.48 95.8054ZM188.659 100.727V96.2273H189.554V96.777H189.594C189.634 96.6889 189.692 96.5994 189.767 96.5085C189.844 96.4162 189.943 96.3395 190.065 96.2784C190.189 96.2159 190.342 96.1847 190.526 96.1847C190.764 96.1847 190.984 96.2472 191.186 96.3722C191.388 96.4957 191.549 96.6825 191.67 96.9325C191.79 97.1811 191.851 97.4929 191.851 97.8679C191.851 98.233 191.792 98.5412 191.674 98.7926C191.558 99.0426 191.398 99.2322 191.197 99.3615C190.996 99.4893 190.772 99.5533 190.523 99.5533C190.347 99.5533 190.197 99.5241 190.074 99.4659C189.952 99.4077 189.852 99.3345 189.773 99.2464C189.695 99.157 189.636 99.0668 189.594 98.9759H189.567V100.727H188.659ZM189.548 97.8636C189.548 98.0582 189.575 98.228 189.629 98.3729C189.683 98.5178 189.761 98.6307 189.863 98.7116C189.965 98.7912 190.089 98.831 190.236 98.831C190.384 98.831 190.509 98.7905 190.611 98.7095C190.713 98.6271 190.79 98.5135 190.843 98.3686C190.897 98.2223 190.924 98.054 190.924 97.8636C190.924 97.6747 190.898 97.5085 190.845 97.3651C190.793 97.2216 190.715 97.1094 190.613 97.0284C190.511 96.9474 190.385 96.907 190.236 96.907C190.088 96.907 189.963 96.946 189.861 97.0241C189.76 97.1023 189.683 97.2131 189.629 97.3565C189.575 97.5 189.548 97.669 189.548 97.8636ZM194.197 96.2273V96.9091H192.226V96.2273H194.197ZM192.673 95.4432H193.581V98.4943C193.581 98.5781 193.594 98.6435 193.619 98.6903C193.645 98.7358 193.68 98.7678 193.726 98.7862C193.773 98.8047 193.827 98.8139 193.888 98.8139C193.93 98.8139 193.973 98.8104 194.016 98.8033C194.058 98.7947 194.091 98.7884 194.114 98.7841L194.256 99.4595C194.211 99.4737 194.147 99.4901 194.065 99.5085C193.982 99.5284 193.882 99.5405 193.764 99.5447C193.545 99.5533 193.354 99.5241 193.189 99.4574C193.026 99.3906 192.898 99.2869 192.808 99.1463C192.717 99.0057 192.672 98.8281 192.673 98.6136V95.4432Z" fill="white"/>
<path d="M210.016 100L210.732 95.6364H211.413L210.697 100H210.016ZM208.062 98.9176L208.175 98.2358H211.584L211.471 98.9176H208.062ZM208.482 100L209.197 95.6364H209.879L209.163 100H208.482ZM208.311 97.4006L208.426 96.7188H211.835L211.72 97.4006H208.311ZM217.515 97.1641H216.581C216.564 97.0433 216.529 96.9361 216.477 96.8423C216.424 96.7472 216.357 96.6662 216.275 96.5994C216.192 96.5327 216.097 96.4815 215.989 96.446C215.882 96.4105 215.767 96.3928 215.642 96.3928C215.416 96.3928 215.219 96.4489 215.051 96.5611C214.884 96.6719 214.754 96.8338 214.662 97.0469C214.569 97.2585 214.523 97.5156 214.523 97.8182C214.523 98.1293 214.569 98.3906 214.662 98.6023C214.755 98.8139 214.886 98.9737 215.054 99.0817C215.221 99.1896 215.415 99.2436 215.635 99.2436C215.759 99.2436 215.873 99.2273 215.978 99.1946C216.085 99.1619 216.179 99.1143 216.262 99.0518C216.344 98.9879 216.412 98.9105 216.466 98.8196C216.522 98.7287 216.56 98.625 216.581 98.5085L217.515 98.5128C217.49 98.7131 217.43 98.9062 217.333 99.0923C217.238 99.277 217.11 99.4425 216.948 99.5888C216.787 99.7337 216.596 99.8487 216.373 99.9339C216.151 100.018 215.9 100.06 215.62 100.06C215.231 100.06 214.883 99.9716 214.576 99.7955C214.271 99.6193 214.029 99.3643 213.852 99.0305C213.676 98.6967 213.588 98.2926 213.588 97.8182C213.588 97.3423 213.677 96.9375 213.856 96.6037C214.035 96.2699 214.278 96.0156 214.585 95.8409C214.892 95.6648 215.237 95.5767 215.62 95.5767C215.873 95.5767 216.108 95.6122 216.324 95.6832C216.541 95.7543 216.733 95.858 216.901 95.9943C217.069 96.1293 217.205 96.2947 217.31 96.4908C217.417 96.6868 217.485 96.9112 217.515 97.1641ZM219.067 98.108V100H218.159V95.6364H219.041V97.3047H219.08C219.153 97.1115 219.273 96.9602 219.438 96.8509C219.602 96.7401 219.809 96.6847 220.058 96.6847C220.285 96.6847 220.483 96.7344 220.652 96.8338C220.822 96.9318 220.955 97.0732 221.048 97.2578C221.143 97.4411 221.19 97.6605 221.189 97.9162V100H220.281V98.0781C220.283 97.8764 220.232 97.7195 220.128 97.6072C220.026 97.495 219.882 97.4389 219.697 97.4389C219.574 97.4389 219.464 97.4652 219.369 97.5178C219.276 97.5703 219.202 97.647 219.148 97.7479C219.095 97.8473 219.068 97.9673 219.067 98.108ZM222.836 100.062C222.628 100.062 222.442 100.026 222.278 99.9531C222.115 99.8793 221.986 99.7706 221.89 99.6271C221.797 99.4822 221.75 99.3018 221.75 99.0859C221.75 98.9041 221.783 98.7514 221.85 98.6278C221.917 98.5043 222.008 98.4048 222.123 98.3295C222.238 98.2543 222.368 98.1974 222.515 98.1591C222.662 98.1207 222.817 98.0938 222.979 98.0781C223.17 98.0582 223.323 98.0398 223.439 98.0227C223.556 98.0043 223.64 97.9773 223.693 97.9418C223.746 97.9062 223.772 97.8537 223.772 97.7841V97.7713C223.772 97.6364 223.729 97.532 223.644 97.4581C223.56 97.3842 223.441 97.3473 223.286 97.3473C223.123 97.3473 222.993 97.3835 222.896 97.456C222.8 97.527 222.736 97.6165 222.704 97.7244L221.865 97.6562C221.907 97.4574 221.991 97.2855 222.116 97.1406C222.241 96.9943 222.403 96.8821 222.6 96.804C222.799 96.7244 223.029 96.6847 223.29 96.6847C223.472 96.6847 223.646 96.706 223.812 96.7486C223.98 96.7912 224.128 96.8572 224.258 96.9467C224.388 97.0362 224.491 97.1513 224.567 97.2919C224.642 97.4311 224.68 97.598 224.68 97.7926V100H223.819V99.5462H223.793C223.741 99.6484 223.67 99.7386 223.582 99.8168C223.494 99.8935 223.388 99.9538 223.265 99.9979C223.141 100.04 222.998 100.062 222.836 100.062ZM223.096 99.4354C223.23 99.4354 223.348 99.4091 223.45 99.3565C223.552 99.3026 223.633 99.2301 223.691 99.1392C223.749 99.0483 223.778 98.9453 223.778 98.8303V98.483C223.75 98.5014 223.711 98.5185 223.661 98.5341C223.613 98.5483 223.558 98.5618 223.497 98.5746C223.436 98.5859 223.375 98.5966 223.314 98.6065C223.253 98.6151 223.197 98.6229 223.148 98.63C223.041 98.6456 222.948 98.6705 222.868 98.7045C222.789 98.7386 222.727 98.7848 222.683 98.843C222.639 98.8999 222.617 98.9709 222.617 99.0561C222.617 99.1797 222.662 99.2741 222.751 99.3395C222.842 99.4034 222.957 99.4354 223.096 99.4354ZM226.206 99.0582L226.208 97.9695H226.34L227.389 96.7273H228.431L227.022 98.3722H226.807L226.206 99.0582ZM225.384 100V95.6364H226.291V100H225.384ZM227.429 100L226.466 98.5746L227.071 97.9332L228.492 100H227.429ZM228.876 100V96.7273H229.756V97.2983H229.79C229.85 97.0952 229.95 96.9418 230.09 96.8381C230.231 96.733 230.393 96.6804 230.576 96.6804C230.622 96.6804 230.671 96.6832 230.723 96.6889C230.776 96.6946 230.822 96.7024 230.862 96.7124V97.5178C230.819 97.505 230.76 97.4936 230.685 97.4837C230.61 97.4737 230.541 97.4688 230.478 97.4688C230.345 97.4688 230.225 97.4979 230.12 97.5561C230.017 97.6129 229.934 97.6925 229.873 97.7947C229.813 97.897 229.784 98.0149 229.784 98.1484V100H228.876ZM232.17 100.062C231.962 100.062 231.776 100.026 231.612 99.9531C231.449 99.8793 231.32 99.7706 231.224 99.6271C231.131 99.4822 231.084 99.3018 231.084 99.0859C231.084 98.9041 231.117 98.7514 231.184 98.6278C231.251 98.5043 231.342 98.4048 231.457 98.3295C231.572 98.2543 231.702 98.1974 231.849 98.1591C231.996 98.1207 232.151 98.0938 232.313 98.0781C232.504 98.0582 232.657 98.0398 232.773 98.0227C232.89 98.0043 232.974 97.9773 233.027 97.9418C233.08 97.9062 233.106 97.8537 233.106 97.7841V97.7713C233.106 97.6364 233.063 97.532 232.978 97.4581C232.894 97.3842 232.775 97.3473 232.62 97.3473C232.457 97.3473 232.327 97.3835 232.23 97.456C232.134 97.527 232.07 97.6165 232.038 97.7244L231.199 97.6562C231.241 97.4574 231.325 97.2855 231.45 97.1406C231.575 96.9943 231.737 96.8821 231.934 96.804C232.133 96.7244 232.363 96.6847 232.624 96.6847C232.806 96.6847 232.98 96.706 233.146 96.7486C233.314 96.7912 233.462 96.8572 233.592 96.9467C233.722 97.0362 233.825 97.1513 233.901 97.2919C233.976 97.4311 234.013 97.598 234.013 97.7926V100H233.153V99.5462H233.127C233.075 99.6484 233.004 99.7386 232.916 99.8168C232.828 99.8935 232.722 99.9538 232.599 99.9979C232.475 100.04 232.332 100.062 232.17 100.062ZM232.43 99.4354C232.564 99.4354 232.682 99.4091 232.784 99.3565C232.886 99.3026 232.967 99.2301 233.025 99.1392C233.083 99.0483 233.112 98.9453 233.112 98.8303V98.483C233.084 98.5014 233.045 98.5185 232.995 98.5341C232.947 98.5483 232.892 98.5618 232.831 98.5746C232.77 98.5859 232.709 98.5966 232.648 98.6065C232.587 98.6151 232.531 98.6229 232.482 98.63C232.375 98.6456 232.282 98.6705 232.202 98.7045C232.123 98.7386 232.061 98.7848 232.017 98.843C231.973 98.8999 231.951 98.9709 231.951 99.0561C231.951 99.1797 231.996 99.2741 232.085 99.3395C232.176 99.4034 232.291 99.4354 232.43 99.4354ZM237.43 95.6364H238.353V98.4702C238.353 98.7884 238.277 99.0668 238.125 99.3054C237.974 99.544 237.763 99.7301 237.492 99.8636C237.221 99.9957 236.904 100.062 236.544 100.062C236.181 100.062 235.865 99.9957 235.593 99.8636C235.322 99.7301 235.111 99.544 234.961 99.3054C234.81 99.0668 234.735 98.7884 234.735 98.4702V95.6364H235.657V98.3913C235.657 98.5575 235.694 98.7053 235.766 98.8345C235.84 98.9638 235.944 99.0653 236.077 99.1392C236.211 99.2131 236.366 99.25 236.544 99.25C236.723 99.25 236.878 99.2131 237.01 99.1392C237.144 99.0653 237.247 98.9638 237.319 98.8345C237.393 98.7053 237.43 98.5575 237.43 98.3913V95.6364ZM240.034 95.6364V100H239.112V95.6364H240.034Z" fill="white"/>
</g>
<defs>
<filter id="filter0_d_799_1372" x="0" y="0" width="350" height="167.5" filterUnits="userSpaceOnUse" color-interpolation-filters="sRGB">
<feFlood flood-opacity="0" result="BackgroundImageFix"/>
<feColorMatrix in="SourceAlpha" type="matrix" values="0 0 0 0 0 0 0 0 0 0 0 0 0 0 0 0 0 0 127 0" result="hardAlpha"/>
<feOffset/>
<feGaussianBlur stdDeviation="25"/>
<feComposite in2="hardAlpha" operator="out"/>
<feColorMatrix type="matrix" values="0 0 0 0 0 0 0 0 0 0 0 0 0 0 0 0 0 0 0.09 0"/>
<feBlend mode="normal" in2="BackgroundImageFix" result="effect1_dropShadow_799_1372"/>
<feBlend mode="normal" in="SourceGraphic" in2="effect1_dropShadow_799_1372" result="shape"/>
</filter>
</defs>
</svg>
