<svg width="250" height="68" viewBox="0 0 250 68" fill="none" xmlns="http://www.w3.org/2000/svg">
<rect width="250" height="67.5" rx="17.5" fill="white"/>
<circle cx="37.5" cy="33.5" r="20" fill="#C4C4C4"/>
<rect x="28.5" y="36" width="18" height="10" rx="2.5" fill="white"/>
<circle cx="37.25" cy="27.75" r="6.25" fill="white"/>
<path d="M66.7102 26H64.1321V18.7273H66.7315C67.4631 18.7273 68.0928 18.8729 68.6207 19.1641C69.1487 19.4529 69.5547 19.8684 69.8388 20.4105C70.1252 20.9527 70.2685 21.6013 70.2685 22.3565C70.2685 23.1141 70.1252 23.7652 69.8388 24.3097C69.5547 24.8542 69.1463 25.272 68.6136 25.5632C68.0833 25.8544 67.4489 26 66.7102 26ZM65.6697 24.6825H66.6463C67.1009 24.6825 67.4832 24.602 67.7933 24.4411C68.1058 24.2777 68.3402 24.0256 68.4964 23.6847C68.6551 23.3414 68.7344 22.8987 68.7344 22.3565C68.7344 21.8191 68.6551 21.38 68.4964 21.0391C68.3402 20.6982 68.107 20.4472 67.7969 20.2862C67.4867 20.1252 67.1044 20.0447 66.6499 20.0447H65.6697V24.6825ZM72.9345 26.103C72.5865 26.103 72.2763 26.0426 72.0041 25.9219C71.7318 25.7988 71.5164 25.6177 71.3578 25.3786C71.2015 25.1371 71.1234 24.8364 71.1234 24.4766C71.1234 24.1735 71.179 23.919 71.2903 23.7131C71.4016 23.5071 71.5531 23.3414 71.7449 23.2159C71.9366 23.0904 72.1544 22.9957 72.3983 22.9318C72.6445 22.8679 72.9025 22.8229 73.1724 22.7969C73.4896 22.7637 73.7453 22.733 73.9395 22.7045C74.1336 22.6738 74.2744 22.6288 74.362 22.5696C74.4496 22.5104 74.4934 22.4228 74.4934 22.3068V22.2855C74.4934 22.0606 74.4224 21.8866 74.2804 21.7635C74.1407 21.6404 73.9418 21.5788 73.6838 21.5788C73.4115 21.5788 73.1949 21.6392 73.0339 21.7599C72.8729 21.8783 72.7664 22.0275 72.7143 22.2074L71.3152 22.0938C71.3862 21.7623 71.5259 21.4759 71.7342 21.2344C71.9425 20.9905 72.2112 20.8035 72.5403 20.6733C72.8717 20.5407 73.2553 20.4744 73.6909 20.4744C73.9939 20.4744 74.2839 20.5099 74.5609 20.581C74.8403 20.652 75.0877 20.7621 75.3031 20.9112C75.5209 21.0604 75.6925 21.2521 75.818 21.4865C75.9435 21.7185 76.0062 21.9967 76.0062 22.321V26H74.5716V25.2436H74.5289C74.4413 25.4141 74.3242 25.5644 74.1774 25.6946C74.0306 25.8224 73.8542 25.9231 73.6483 25.9964C73.4423 26.0675 73.2044 26.103 72.9345 26.103ZM73.3677 25.0589C73.5903 25.0589 73.7868 25.0152 73.9572 24.9276C74.1277 24.8376 74.2614 24.7169 74.3585 24.5653C74.4556 24.4138 74.5041 24.2422 74.5041 24.0504V23.4716C74.4567 23.5024 74.3916 23.5308 74.3088 23.5568C74.2283 23.5805 74.1371 23.603 74.0353 23.6243C73.9335 23.6432 73.8317 23.661 73.7299 23.6776C73.6281 23.6918 73.5358 23.7048 73.4529 23.7166C73.2754 23.7427 73.1203 23.7841 72.9877 23.8409C72.8552 23.8977 72.7522 23.9747 72.6788 24.0717C72.6054 24.1664 72.5687 24.2848 72.5687 24.4268C72.5687 24.6328 72.6433 24.7902 72.7924 24.8991C72.944 25.0057 73.1357 25.0589 73.3677 25.0589ZM82.0698 20.5455L80.1628 26H78.4583L76.5513 20.5455H78.1493L79.2821 24.4482H79.339L80.4682 20.5455H82.0698ZM82.8439 26V20.5455H84.3567V26H82.8439ZM83.6039 19.8423C83.379 19.8423 83.186 19.7678 83.025 19.6186C82.8664 19.4671 82.7871 19.286 82.7871 19.0753C82.7871 18.867 82.8664 18.6882 83.025 18.5391C83.186 18.3875 83.379 18.3118 83.6039 18.3118C83.8288 18.3118 84.0205 18.3875 84.1792 18.5391C84.3401 18.6882 84.4206 18.867 84.4206 19.0753C84.4206 19.286 84.3401 19.4671 84.1792 19.6186C84.0205 19.7678 83.8288 19.8423 83.6039 19.8423ZM87.5785 26.0888C87.1642 26.0888 86.7889 25.9822 86.4528 25.7692C86.119 25.5537 85.8538 25.2377 85.6573 24.821C85.4632 24.402 85.3661 23.8883 85.3661 23.2798C85.3661 22.6548 85.4667 22.1352 85.668 21.7209C85.8692 21.3042 86.1367 20.9929 86.4705 20.7869C86.8067 20.5786 87.1748 20.4744 87.5749 20.4744C87.8803 20.4744 88.1348 20.5265 88.3384 20.6307C88.5444 20.7325 88.7101 20.8603 88.8356 21.0142C88.9634 21.1657 89.0605 21.3149 89.1268 21.4616H89.1729V18.7273H90.6822V26H89.1907V25.1264H89.1268C89.0558 25.2779 88.9551 25.4283 88.8249 25.5774C88.6971 25.7242 88.5302 25.8461 88.3242 25.9432C88.1206 26.0402 87.872 26.0888 87.5785 26.0888ZM88.0579 24.8849C88.3017 24.8849 88.5077 24.8187 88.6758 24.6861C88.8462 24.5511 88.9764 24.3629 89.0664 24.1214C89.1587 23.88 89.2049 23.5971 89.2049 23.2727C89.2049 22.9484 89.1599 22.6667 89.07 22.4276C88.98 22.1884 88.8498 22.0038 88.6793 21.8736C88.5089 21.7434 88.3017 21.6783 88.0579 21.6783C87.8093 21.6783 87.5998 21.7457 87.4293 21.8807C87.2589 22.0156 87.1299 22.2027 87.0423 22.4418C86.9547 22.6809 86.9109 22.9579 86.9109 23.2727C86.9109 23.59 86.9547 23.8705 87.0423 24.1143C87.1322 24.3558 87.2612 24.5452 87.4293 24.6825C87.5998 24.8175 87.8093 24.8849 88.0579 24.8849ZM94.2688 18.7273H96.1651L98.168 23.6136H98.2532L100.256 18.7273H102.152V26H100.661V21.2663H100.6L98.7184 25.9645H97.7028L95.8207 21.2486H95.7603V26H94.2688V18.7273ZM104.946 26.103C104.598 26.103 104.288 26.0426 104.016 25.9219C103.744 25.7988 103.528 25.6177 103.369 25.3786C103.213 25.1371 103.135 24.8364 103.135 24.4766C103.135 24.1735 103.191 23.919 103.302 23.7131C103.413 23.5071 103.565 23.3414 103.757 23.2159C103.948 23.0904 104.166 22.9957 104.41 22.9318C104.656 22.8679 104.914 22.8229 105.184 22.7969C105.501 22.7637 105.757 22.733 105.951 22.7045C106.145 22.6738 106.286 22.6288 106.374 22.5696C106.461 22.5104 106.505 22.4228 106.505 22.3068V22.2855C106.505 22.0606 106.434 21.8866 106.292 21.7635C106.152 21.6404 105.954 21.5788 105.695 21.5788C105.423 21.5788 105.207 21.6392 105.046 21.7599C104.885 21.8783 104.778 22.0275 104.726 22.2074L103.327 22.0938C103.398 21.7623 103.538 21.4759 103.746 21.2344C103.954 20.9905 104.223 20.8035 104.552 20.6733C104.883 20.5407 105.267 20.4744 105.703 20.4744C106.006 20.4744 106.296 20.5099 106.573 20.581C106.852 20.652 107.099 20.7621 107.315 20.9112C107.533 21.0604 107.704 21.2521 107.83 21.4865C107.955 21.7185 108.018 21.9967 108.018 22.321V26H106.583V25.2436H106.541C106.453 25.4141 106.336 25.5644 106.189 25.6946C106.042 25.8224 105.866 25.9231 105.66 25.9964C105.454 26.0675 105.216 26.103 104.946 26.103ZM105.379 25.0589C105.602 25.0589 105.798 25.0152 105.969 24.9276C106.139 24.8376 106.273 24.7169 106.37 24.5653C106.467 24.4138 106.516 24.2422 106.516 24.0504V23.4716C106.468 23.5024 106.403 23.5308 106.32 23.5568C106.24 23.5805 106.149 23.603 106.047 23.6243C105.945 23.6432 105.843 23.661 105.742 23.6776C105.64 23.6918 105.548 23.7048 105.465 23.7166C105.287 23.7427 105.132 23.7841 104.999 23.8409C104.867 23.8977 104.764 23.9747 104.691 24.0717C104.617 24.1664 104.58 24.2848 104.58 24.4268C104.58 24.6328 104.655 24.7902 104.804 24.8991C104.956 25.0057 105.147 25.0589 105.379 25.0589ZM109.192 26V20.5455H110.658V21.4972H110.715C110.814 21.1586 110.981 20.9029 111.216 20.7301C111.45 20.5549 111.72 20.4673 112.025 20.4673C112.101 20.4673 112.183 20.4721 112.27 20.4815C112.358 20.491 112.435 20.504 112.501 20.5206V21.8629C112.43 21.8416 112.332 21.8227 112.206 21.8061C112.081 21.7895 111.966 21.7812 111.862 21.7812C111.64 21.7812 111.441 21.8298 111.265 21.9268C111.093 22.0215 110.955 22.1541 110.854 22.3246C110.754 22.495 110.704 22.6915 110.704 22.9141V26H109.192ZM116.458 20.5455V21.6818H113.173V20.5455H116.458ZM113.919 19.2386H115.432V24.3239C115.432 24.4635 115.453 24.5724 115.496 24.6506C115.538 24.7263 115.598 24.7796 115.673 24.8104C115.751 24.8411 115.841 24.8565 115.943 24.8565C116.014 24.8565 116.085 24.8506 116.156 24.8388C116.227 24.8246 116.282 24.8139 116.32 24.8068L116.558 25.9325C116.482 25.9562 116.375 25.9834 116.238 26.0142C116.101 26.0473 115.934 26.0675 115.737 26.0746C115.373 26.0888 115.053 26.0402 114.778 25.929C114.506 25.8177 114.294 25.6449 114.143 25.4105C113.991 25.1761 113.917 24.8802 113.919 24.5227V19.2386ZM117.444 26V20.5455H118.956V26H117.444ZM118.203 19.8423C117.979 19.8423 117.786 19.7678 117.625 19.6186C117.466 19.4671 117.387 19.286 117.387 19.0753C117.387 18.867 117.466 18.6882 117.625 18.5391C117.786 18.3875 117.979 18.3118 118.203 18.3118C118.428 18.3118 118.62 18.3875 118.779 18.5391C118.94 18.6882 119.02 18.867 119.02 19.0753C119.02 19.286 118.94 19.4671 118.779 19.6186C118.62 19.7678 118.428 19.8423 118.203 19.8423ZM121.681 22.8466V26H120.168V20.5455H121.61V21.5078H121.674C121.795 21.1906 121.997 20.9396 122.281 20.755C122.565 20.5679 122.91 20.4744 123.314 20.4744C123.693 20.4744 124.023 20.5573 124.305 20.723C124.587 20.8887 124.806 21.1255 124.962 21.4332C125.118 21.7386 125.197 22.1032 125.197 22.527V26H123.684V22.7969C123.686 22.4631 123.601 22.2027 123.428 22.0156C123.255 21.8262 123.017 21.7315 122.714 21.7315C122.511 21.7315 122.331 21.7753 122.175 21.8629C122.021 21.9505 121.9 22.0784 121.812 22.2464C121.727 22.4122 121.683 22.6122 121.681 22.8466Z" fill="black"/>
<path d="M67.1619 32.3551C67.1392 32.1259 67.0417 31.9479 66.8693 31.821C66.697 31.6941 66.4631 31.6307 66.1676 31.6307C65.9669 31.6307 65.7973 31.6591 65.6591 31.7159C65.5208 31.7708 65.4148 31.8475 65.3409 31.946C65.2689 32.0445 65.233 32.1562 65.233 32.2812C65.2292 32.3854 65.2509 32.4763 65.2983 32.554C65.3475 32.6316 65.4148 32.6989 65.5 32.7557C65.5852 32.8106 65.6837 32.8589 65.7955 32.9006C65.9072 32.9403 66.0265 32.9744 66.1534 33.0028L66.6761 33.1278C66.9299 33.1847 67.1629 33.2604 67.375 33.3551C67.5871 33.4498 67.7708 33.5663 67.9261 33.7045C68.0814 33.8428 68.2017 34.0057 68.2869 34.1932C68.3741 34.3807 68.4186 34.5956 68.4205 34.8381C68.4186 35.1941 68.3277 35.5028 68.1477 35.7642C67.9697 36.0237 67.7121 36.2254 67.375 36.3693C67.0398 36.5114 66.6354 36.5824 66.1619 36.5824C65.6922 36.5824 65.2831 36.5104 64.9347 36.3665C64.5881 36.2225 64.3172 36.0095 64.1222 35.7273C63.929 35.4432 63.8277 35.0919 63.8182 34.6733H65.0085C65.0218 34.8684 65.0777 35.0312 65.1761 35.1619C65.2765 35.2907 65.41 35.3883 65.5767 35.4545C65.7453 35.5189 65.9356 35.5511 66.1477 35.5511C66.3561 35.5511 66.5369 35.5208 66.6903 35.4602C66.8456 35.3996 66.9659 35.3153 67.0511 35.2074C67.1364 35.0994 67.179 34.9754 67.179 34.8352C67.179 34.7045 67.1402 34.5947 67.0625 34.5057C66.9867 34.4167 66.875 34.3409 66.7273 34.2784C66.5814 34.2159 66.4025 34.1591 66.1903 34.108L65.5568 33.9489C65.0663 33.8295 64.679 33.643 64.3949 33.3892C64.1108 33.1354 63.9697 32.7936 63.9716 32.3636C63.9697 32.0114 64.0634 31.7036 64.2528 31.4403C64.4441 31.1771 64.7064 30.9716 65.0398 30.8239C65.3731 30.6761 65.7519 30.6023 66.1761 30.6023C66.608 30.6023 66.9848 30.6761 67.3068 30.8239C67.6307 30.9716 67.8826 31.1771 68.0625 31.4403C68.2424 31.7036 68.3352 32.0085 68.3409 32.3551H67.1619ZM71.1967 36.5852C70.7554 36.5852 70.3738 36.4915 70.0518 36.304C69.7318 36.1146 69.4846 35.8513 69.3104 35.5142C69.1361 35.1752 69.049 34.7822 69.049 34.3352C69.049 33.8845 69.1361 33.4905 69.3104 33.1534C69.4846 32.8144 69.7318 32.5511 70.0518 32.3636C70.3738 32.1742 70.7554 32.0795 71.1967 32.0795C71.638 32.0795 72.0187 32.1742 72.3388 32.3636C72.6607 32.5511 72.9089 32.8144 73.0831 33.1534C73.2573 33.4905 73.3445 33.8845 73.3445 34.3352C73.3445 34.7822 73.2573 35.1752 73.0831 35.5142C72.9089 35.8513 72.6607 36.1146 72.3388 36.304C72.0187 36.4915 71.638 36.5852 71.1967 36.5852ZM71.2024 35.6477C71.4032 35.6477 71.5708 35.5909 71.7053 35.4773C71.8397 35.3617 71.9411 35.2045 72.0092 35.0057C72.0793 34.8068 72.1143 34.5805 72.1143 34.3267C72.1143 34.0729 72.0793 33.8466 72.0092 33.6477C71.9411 33.4489 71.8397 33.2917 71.7053 33.1761C71.5708 33.0606 71.4032 33.0028 71.2024 33.0028C70.9998 33.0028 70.8293 33.0606 70.6911 33.1761C70.5547 33.2917 70.4515 33.4489 70.3814 33.6477C70.3132 33.8466 70.2791 34.0729 70.2791 34.3267C70.2791 34.5805 70.3132 34.8068 70.3814 35.0057C70.4515 35.2045 70.5547 35.3617 70.6911 35.4773C70.8293 35.5909 70.9998 35.6477 71.2024 35.6477ZM76.478 32.1364V33.0455H73.7848V32.1364H76.478ZM74.4013 36.5V31.821C74.4013 31.5047 74.4628 31.2424 74.5859 31.0341C74.7109 30.8258 74.8814 30.6695 75.0973 30.5653C75.3132 30.4612 75.5585 30.4091 75.8331 30.4091C76.0187 30.4091 76.1882 30.4233 76.3416 30.4517C76.4969 30.4801 76.6125 30.5057 76.6882 30.5284L76.4723 31.4375C76.425 31.4223 76.3662 31.4081 76.2962 31.3949C76.228 31.3816 76.1579 31.375 76.0859 31.375C75.9079 31.375 75.7839 31.4167 75.7138 31.5C75.6437 31.5814 75.6087 31.696 75.6087 31.8438V36.5H74.4013ZM79.5384 32.1364V33.0455H76.9105V32.1364H79.5384ZM77.5071 31.0909H78.7173V35.1591C78.7173 35.2708 78.7344 35.358 78.7685 35.4205C78.8026 35.4811 78.8499 35.5237 78.9105 35.5483C78.973 35.5729 79.045 35.5852 79.1264 35.5852C79.1832 35.5852 79.2401 35.5805 79.2969 35.571C79.3537 35.5597 79.3973 35.5511 79.4276 35.5455L79.6179 36.446C79.5573 36.465 79.4721 36.4867 79.3622 36.5114C79.2524 36.5379 79.1188 36.554 78.9616 36.5597C78.67 36.571 78.4143 36.5322 78.1946 36.4432C77.9768 36.3542 77.8073 36.2159 77.6861 36.0284C77.5649 35.8409 77.5052 35.6042 77.5071 35.3182V31.0909ZM81.1875 36.5L80 32.1364H81.2244L81.9006 35.0682H81.9403L82.6449 32.1364H83.8466L84.5625 35.0511H84.5994L85.2642 32.1364H86.4858L85.3011 36.5H84.0199L83.2699 33.7557H83.2159L82.4659 36.5H81.1875ZM88.3757 36.5824C88.0973 36.5824 87.8492 36.5341 87.6314 36.4375C87.4136 36.339 87.2412 36.1941 87.1143 36.0028C86.9893 35.8097 86.9268 35.5691 86.9268 35.2812C86.9268 35.0388 86.9714 34.8352 87.0604 34.6705C87.1494 34.5057 87.2706 34.3731 87.424 34.2727C87.5774 34.1723 87.7517 34.0966 87.9467 34.0455C88.1437 33.9943 88.3501 33.9583 88.5661 33.9375C88.8198 33.911 89.0244 33.8864 89.1797 33.8636C89.335 33.839 89.4477 33.803 89.5178 33.7557C89.5878 33.7083 89.6229 33.6383 89.6229 33.5455V33.5284C89.6229 33.3485 89.5661 33.2093 89.4524 33.1108C89.3407 33.0123 89.1816 32.9631 88.9751 32.9631C88.7573 32.9631 88.584 33.0114 88.4553 33.108C88.3265 33.2027 88.2412 33.322 88.1996 33.4659L87.0803 33.375C87.1371 33.1098 87.2488 32.8807 87.4155 32.6875C87.5821 32.4924 87.7971 32.3428 88.0604 32.2386C88.3255 32.1326 88.6323 32.0795 88.9808 32.0795C89.2232 32.0795 89.4553 32.108 89.6768 32.1648C89.9003 32.2216 90.0982 32.3097 90.2706 32.429C90.4448 32.5483 90.5821 32.7017 90.6825 32.8892C90.7829 33.0748 90.8331 33.2973 90.8331 33.5568V36.5H89.6854V35.8949H89.6513C89.5812 36.0312 89.4875 36.1515 89.37 36.2557C89.2526 36.358 89.1115 36.4384 88.9467 36.4972C88.782 36.554 88.5916 36.5824 88.3757 36.5824ZM88.7223 35.7472C88.9003 35.7472 89.0575 35.7121 89.1939 35.642C89.3303 35.5701 89.4373 35.4735 89.5149 35.3523C89.5926 35.2311 89.6314 35.0937 89.6314 34.9403V34.4773C89.5935 34.5019 89.5414 34.5246 89.4751 34.5455C89.4107 34.5644 89.3378 34.5824 89.2564 34.5994C89.175 34.6146 89.0935 34.6288 89.0121 34.642C88.9306 34.6534 88.8568 34.6638 88.7905 34.6733C88.6484 34.6941 88.5244 34.7273 88.4183 34.7727C88.3123 34.8182 88.2299 34.8797 88.1712 34.9574C88.1125 35.0331 88.0831 35.1278 88.0831 35.2415C88.0831 35.4062 88.1428 35.5322 88.2621 35.6193C88.3833 35.7045 88.5367 35.7472 88.7223 35.7472ZM91.772 36.5V32.1364H92.9453V32.8977H92.9908C93.0703 32.6269 93.2038 32.4223 93.3913 32.2841C93.5788 32.1439 93.7947 32.0739 94.0391 32.0739C94.0997 32.0739 94.165 32.0777 94.2351 32.0852C94.3052 32.0928 94.3667 32.1032 94.4197 32.1165V33.1903C94.3629 33.1733 94.2843 33.1581 94.1839 33.1449C94.0836 33.1316 93.9917 33.125 93.9084 33.125C93.7304 33.125 93.5713 33.1638 93.4311 33.2415C93.2929 33.3172 93.183 33.4233 93.1016 33.5597C93.022 33.696 92.9822 33.8532 92.9822 34.0312V36.5H91.772ZM96.831 36.5852C96.3821 36.5852 95.9957 36.4943 95.6719 36.3125C95.3499 36.1288 95.1018 35.8693 94.9276 35.5341C94.7533 35.197 94.6662 34.7983 94.6662 34.3381C94.6662 33.8892 94.7533 33.4953 94.9276 33.1562C95.1018 32.8172 95.3471 32.553 95.6634 32.3636C95.9815 32.1742 96.3546 32.0795 96.7827 32.0795C97.0705 32.0795 97.3385 32.1259 97.5866 32.2188C97.8366 32.3097 98.0545 32.447 98.2401 32.6307C98.4276 32.8144 98.5734 33.0455 98.6776 33.3239C98.7817 33.6004 98.8338 33.9242 98.8338 34.2955V34.6278H95.1491V33.8778H97.6946C97.6946 33.7036 97.6567 33.5492 97.581 33.4148C97.5052 33.2803 97.4001 33.1752 97.2656 33.0994C97.133 33.0218 96.9787 32.983 96.8026 32.983C96.6188 32.983 96.456 33.0256 96.3139 33.1108C96.1738 33.1941 96.0639 33.3068 95.9844 33.4489C95.9048 33.589 95.8641 33.7453 95.8622 33.9176V34.6307C95.8622 34.8466 95.902 35.0331 95.9815 35.1903C96.063 35.3475 96.1776 35.4688 96.3253 35.554C96.473 35.6392 96.6482 35.6818 96.8509 35.6818C96.9853 35.6818 97.1084 35.6629 97.2202 35.625C97.3319 35.5871 97.4276 35.5303 97.5071 35.4545C97.5866 35.3788 97.6473 35.286 97.6889 35.1761L98.8082 35.25C98.7514 35.5189 98.6349 35.7538 98.4588 35.9545C98.2846 36.1534 98.0592 36.3087 97.7827 36.4205C97.508 36.5303 97.1908 36.5852 96.831 36.5852ZM101.498 36.5V30.6818H105.418V31.696H102.728V33.0824H105.217V34.0966H102.728V35.4858H105.43V36.5H101.498ZM107.584 33.9773V36.5H106.374V32.1364H107.527V32.9062H107.578C107.675 32.6525 107.837 32.4517 108.064 32.304C108.291 32.1544 108.567 32.0795 108.891 32.0795C109.194 32.0795 109.458 32.1458 109.683 32.2784C109.909 32.411 110.084 32.6004 110.209 32.8466C110.334 33.0909 110.396 33.3826 110.396 33.7216V36.5H109.186V33.9375C109.188 33.6705 109.12 33.4621 108.982 33.3125C108.843 33.161 108.653 33.0852 108.411 33.0852C108.248 33.0852 108.104 33.1203 107.979 33.1903C107.856 33.2604 107.759 33.3627 107.689 33.4972C107.621 33.6297 107.586 33.7898 107.584 33.9773ZM113.316 38.2273C112.924 38.2273 112.588 38.1733 112.308 38.0653C112.029 37.9593 111.808 37.8144 111.643 37.6307C111.478 37.447 111.371 37.2405 111.322 37.0114L112.441 36.8608C112.475 36.9479 112.529 37.0294 112.603 37.1051C112.677 37.1809 112.774 37.2415 112.896 37.2869C113.019 37.3343 113.168 37.358 113.344 37.358C113.608 37.358 113.825 37.2936 113.995 37.1648C114.167 37.0379 114.254 36.8248 114.254 36.5256V35.7273H114.202C114.149 35.8485 114.07 35.9631 113.964 36.071C113.858 36.179 113.721 36.267 113.555 36.3352C113.388 36.4034 113.189 36.4375 112.958 36.4375C112.63 36.4375 112.332 36.3617 112.063 36.2102C111.796 36.0568 111.583 35.8229 111.424 35.5085C111.267 35.1922 111.188 34.7926 111.188 34.3097C111.188 33.8153 111.269 33.4025 111.43 33.071C111.591 32.7396 111.805 32.4915 112.072 32.3267C112.341 32.1619 112.635 32.0795 112.955 32.0795C113.2 32.0795 113.404 32.1212 113.569 32.2045C113.734 32.286 113.866 32.3883 113.967 32.5114C114.069 32.6326 114.147 32.7519 114.202 32.8693H114.248V32.1364H115.45V36.5426C115.45 36.9138 115.359 37.2244 115.177 37.4744C114.995 37.7244 114.743 37.9119 114.421 38.0369C114.101 38.1638 113.733 38.2273 113.316 38.2273ZM113.342 35.5284C113.537 35.5284 113.701 35.4801 113.836 35.3835C113.972 35.285 114.076 35.1449 114.148 34.9631C114.222 34.7794 114.259 34.5597 114.259 34.304C114.259 34.0483 114.223 33.8267 114.151 33.6392C114.079 33.4498 113.975 33.303 113.839 33.1989C113.702 33.0947 113.537 33.0426 113.342 33.0426C113.143 33.0426 112.975 33.0966 112.839 33.2045C112.702 33.3106 112.599 33.4583 112.529 33.6477C112.459 33.8371 112.424 34.0559 112.424 34.304C112.424 34.5559 112.459 34.7737 112.529 34.9574C112.601 35.1392 112.704 35.2803 112.839 35.3807C112.975 35.4792 113.143 35.5284 113.342 35.5284ZM116.413 36.5V32.1364H117.623V36.5H116.413ZM117.021 31.5739C116.841 31.5739 116.686 31.5142 116.558 31.3949C116.431 31.2737 116.367 31.1288 116.367 30.9602C116.367 30.7936 116.431 30.6506 116.558 30.5312C116.686 30.41 116.841 30.3494 117.021 30.3494C117.201 30.3494 117.354 30.41 117.481 30.5312C117.61 30.6506 117.674 30.7936 117.674 30.9602C117.674 31.1288 117.61 31.2737 117.481 31.3949C117.354 31.5142 117.201 31.5739 117.021 31.5739ZM119.803 33.9773V36.5H118.592V32.1364H119.746V32.9062H119.797C119.893 32.6525 120.055 32.4517 120.283 32.304C120.51 32.1544 120.786 32.0795 121.109 32.0795C121.412 32.0795 121.677 32.1458 121.902 32.2784C122.127 32.411 122.303 32.6004 122.428 32.8466C122.553 33.0909 122.615 33.3826 122.615 33.7216V36.5H121.405V33.9375C121.407 33.6705 121.339 33.4621 121.2 33.3125C121.062 33.161 120.872 33.0852 120.629 33.0852C120.466 33.0852 120.322 33.1203 120.197 33.1903C120.074 33.2604 119.978 33.3627 119.908 33.4972C119.839 33.6297 119.804 33.7898 119.803 33.9773ZM125.558 36.5852C125.109 36.5852 124.722 36.4943 124.398 36.3125C124.076 36.1288 123.828 35.8693 123.654 35.5341C123.48 35.197 123.393 34.7983 123.393 34.3381C123.393 33.8892 123.48 33.4953 123.654 33.1562C123.828 32.8172 124.074 32.553 124.39 32.3636C124.708 32.1742 125.081 32.0795 125.509 32.0795C125.797 32.0795 126.065 32.1259 126.313 32.2188C126.563 32.3097 126.781 32.447 126.967 32.6307C127.154 32.8144 127.3 33.0455 127.404 33.3239C127.508 33.6004 127.56 33.9242 127.56 34.2955V34.6278H123.876V33.8778H126.421C126.421 33.7036 126.383 33.5492 126.308 33.4148C126.232 33.2803 126.127 33.1752 125.992 33.0994C125.86 33.0218 125.705 32.983 125.529 32.983C125.345 32.983 125.183 33.0256 125.04 33.1108C124.9 33.1941 124.79 33.3068 124.711 33.4489C124.631 33.589 124.591 33.7453 124.589 33.9176V34.6307C124.589 34.8466 124.629 35.0331 124.708 35.1903C124.79 35.3475 124.904 35.4688 125.052 35.554C125.2 35.6392 125.375 35.6818 125.577 35.6818C125.712 35.6818 125.835 35.6629 125.947 35.625C126.058 35.5871 126.154 35.5303 126.234 35.4545C126.313 35.3788 126.374 35.286 126.415 35.1761L127.535 35.25C127.478 35.5189 127.362 35.7538 127.185 35.9545C127.011 36.1534 126.786 36.3087 126.509 36.4205C126.235 36.5303 125.917 36.5852 125.558 36.5852ZM130.339 36.5852C129.89 36.5852 129.504 36.4943 129.18 36.3125C128.858 36.1288 128.61 35.8693 128.435 35.5341C128.261 35.197 128.174 34.7983 128.174 34.3381C128.174 33.8892 128.261 33.4953 128.435 33.1562C128.61 32.8172 128.855 32.553 129.171 32.3636C129.489 32.1742 129.862 32.0795 130.29 32.0795C130.578 32.0795 130.846 32.1259 131.094 32.2188C131.344 32.3097 131.562 32.447 131.748 32.6307C131.935 32.8144 132.081 33.0455 132.185 33.3239C132.29 33.6004 132.342 33.9242 132.342 34.2955V34.6278H128.657V33.8778H131.202C131.202 33.7036 131.165 33.5492 131.089 33.4148C131.013 33.2803 130.908 33.1752 130.773 33.0994C130.641 33.0218 130.487 32.983 130.31 32.983C130.127 32.983 129.964 33.0256 129.822 33.1108C129.682 33.1941 129.572 33.3068 129.492 33.4489C129.413 33.589 129.372 33.7453 129.37 33.9176V34.6307C129.37 34.8466 129.41 35.0331 129.489 35.1903C129.571 35.3475 129.685 35.4688 129.833 35.554C129.981 35.6392 130.156 35.6818 130.359 35.6818C130.493 35.6818 130.616 35.6629 130.728 35.625C130.84 35.5871 130.935 35.5303 131.015 35.4545C131.094 35.3788 131.155 35.286 131.197 35.1761L132.316 35.25C132.259 35.5189 132.143 35.7538 131.967 35.9545C131.792 36.1534 131.567 36.3087 131.29 36.4205C131.016 36.5303 130.699 36.5852 130.339 36.5852ZM133.131 36.5V32.1364H134.305V32.8977H134.35C134.43 32.6269 134.563 32.4223 134.751 32.2841C134.938 32.1439 135.154 32.0739 135.398 32.0739C135.459 32.0739 135.524 32.0777 135.594 32.0852C135.665 32.0928 135.726 32.1032 135.779 32.1165V33.1903C135.722 33.1733 135.644 33.1581 135.543 33.1449C135.443 33.1316 135.351 33.125 135.268 33.125C135.09 33.125 134.931 33.1638 134.79 33.2415C134.652 33.3172 134.542 33.4233 134.461 33.5597C134.381 33.696 134.342 33.8532 134.342 34.0312V36.5H133.131Z" fill="#092AD0"/>
<rect x="63.75" y="41.25" width="29.5" height="12" rx="2.25" fill="#092AD0" fill-opacity="0.56" stroke="#092AD0" stroke-width="0.5"/>
<path d="M69.0156 49.5L69.7315 45.1364H70.4134L69.6974 49.5H69.0156ZM67.0618 48.4176L67.1747 47.7358H70.5838L70.4709 48.4176H67.0618ZM67.4815 49.5L68.1974 45.1364H68.8793L68.1634 49.5H67.4815ZM67.3111 46.9006L67.4261 46.2188H70.8352L70.7202 46.9006H67.3111ZM72.6644 49.5V45.1364H74.386C74.7156 45.1364 74.9968 45.1953 75.2298 45.3132C75.4641 45.4297 75.6424 45.5952 75.7646 45.8097C75.8881 46.0227 75.9499 46.2734 75.9499 46.5618C75.9499 46.8516 75.8874 47.1009 75.7624 47.3097C75.6374 47.517 75.4563 47.6761 75.2191 47.7869C74.9833 47.8977 74.6978 47.9531 74.3626 47.9531H73.2099V47.2116H74.2134C74.3896 47.2116 74.5359 47.1875 74.6523 47.1392C74.7688 47.0909 74.8555 47.0185 74.9123 46.9219C74.9705 46.8253 74.9996 46.7053 74.9996 46.5618C74.9996 46.4169 74.9705 46.2947 74.9123 46.1953C74.8555 46.0959 74.7681 46.0206 74.6502 45.9695C74.5337 45.9169 74.3867 45.8906 74.2092 45.8906H73.587V49.5H72.6644ZM75.021 47.5142L76.1055 49.5H75.087L74.0259 47.5142H75.021ZM78.0236 49.5639C77.687 49.5639 77.3972 49.4957 77.1543 49.3594C76.9128 49.2216 76.7267 49.027 76.5961 48.7756C76.4654 48.5227 76.4 48.2237 76.4 47.8786C76.4 47.5419 76.4654 47.2464 76.5961 46.9922C76.7267 46.7379 76.9107 46.5398 77.1479 46.3977C77.3865 46.2557 77.6664 46.1847 77.9874 46.1847C78.2033 46.1847 78.4043 46.2195 78.5904 46.2891C78.7779 46.3572 78.9412 46.4602 79.0804 46.598C79.2211 46.7358 79.3304 46.9091 79.4086 47.1179C79.4867 47.3253 79.5257 47.5682 79.5257 47.8466V48.0959H76.7623V47.5334H78.6713C78.6713 47.4027 78.6429 47.2869 78.5861 47.1861C78.5293 47.0852 78.4505 47.0064 78.3496 46.9496C78.2502 46.8913 78.1344 46.8622 78.0023 46.8622C77.8645 46.8622 77.7424 46.8942 77.6358 46.9581C77.5307 47.0206 77.4483 47.1051 77.3887 47.2116C77.329 47.3168 77.2985 47.4339 77.2971 47.5632V48.098C77.2971 48.2599 77.3269 48.3999 77.3865 48.5178C77.4476 48.6357 77.5336 48.7266 77.6444 48.7905C77.7551 48.8544 77.8865 48.8864 78.0385 48.8864C78.1394 48.8864 78.2317 48.8722 78.3155 48.8438C78.3993 48.8153 78.4711 48.7727 78.5307 48.7159C78.5904 48.6591 78.6358 48.5895 78.6671 48.5071L79.5066 48.5625C79.464 48.7642 79.3766 48.9403 79.2445 49.0909C79.1138 49.2401 78.9448 49.3565 78.7374 49.4403C78.5314 49.5227 78.2935 49.5639 78.0236 49.5639ZM81.0513 49.5618C80.8425 49.5618 80.6564 49.5256 80.4931 49.4531C80.3297 49.3793 80.2005 49.2706 80.1053 49.1271C80.0115 48.9822 79.9647 48.8018 79.9647 48.5859C79.9647 48.4041 79.998 48.2514 80.0648 48.1278C80.1316 48.0043 80.2225 47.9048 80.3375 47.8295C80.4526 47.7543 80.5833 47.6974 80.7296 47.6591C80.8773 47.6207 81.0321 47.5938 81.1941 47.5781C81.3844 47.5582 81.5378 47.5398 81.6543 47.5227C81.7708 47.5043 81.8553 47.4773 81.9078 47.4418C81.9604 47.4062 81.9867 47.3537 81.9867 47.2841V47.2713C81.9867 47.1364 81.9441 47.032 81.8588 46.9581C81.775 46.8842 81.6557 46.8473 81.5009 46.8473C81.3375 46.8473 81.2076 46.8835 81.111 46.956C81.0144 47.027 80.9505 47.1165 80.9192 47.2244L80.0797 47.1562C80.1223 46.9574 80.2061 46.7855 80.3311 46.6406C80.4561 46.4943 80.6174 46.3821 80.8148 46.304C81.0137 46.2244 81.2438 46.1847 81.5051 46.1847C81.687 46.1847 81.861 46.206 82.0272 46.2486C82.1948 46.2912 82.3432 46.3572 82.4725 46.4467C82.6032 46.5362 82.7061 46.6513 82.7814 46.7919C82.8567 46.9311 82.8944 47.098 82.8944 47.2926V49.5H82.0336V49.0462H82.008C81.9554 49.1484 81.8851 49.2386 81.7971 49.3168C81.709 49.3935 81.6032 49.4538 81.4796 49.4979C81.356 49.5405 81.2132 49.5618 81.0513 49.5618ZM81.3113 48.9354C81.4448 48.9354 81.5627 48.9091 81.665 48.8565C81.7672 48.8026 81.8475 48.7301 81.9057 48.6392C81.964 48.5483 81.9931 48.4453 81.9931 48.3303V47.983C81.9647 48.0014 81.9256 48.0185 81.8759 48.0341C81.8276 48.0483 81.7729 48.0618 81.7118 48.0746C81.6507 48.0859 81.5897 48.0966 81.5286 48.1065C81.4675 48.1151 81.4121 48.1229 81.3624 48.13C81.2559 48.1456 81.1628 48.1705 81.0833 48.2045C81.0037 48.2386 80.9419 48.2848 80.8979 48.343C80.8539 48.3999 80.8319 48.4709 80.8319 48.5561C80.8319 48.6797 80.8766 48.7741 80.9661 48.8395C81.057 48.9034 81.1721 48.9354 81.3113 48.9354ZM85.0772 49.5639C84.742 49.5639 84.4537 49.4929 84.2122 49.3509C83.9721 49.2074 83.7875 49.0085 83.6582 48.7543C83.5304 48.5 83.4664 48.2074 83.4664 47.8764C83.4664 47.5412 83.5311 47.2472 83.6603 46.9943C83.791 46.7401 83.9764 46.5419 84.2164 46.3999C84.4565 46.2564 84.742 46.1847 85.073 46.1847C85.3585 46.1847 85.6085 46.2365 85.823 46.3402C86.0375 46.4439 86.2072 46.5895 86.3322 46.777C86.4572 46.9645 86.5261 47.1847 86.5389 47.4375H85.6824C85.6582 47.2741 85.5943 47.1428 85.4906 47.0433C85.3883 46.9425 85.2541 46.892 85.0879 46.892C84.9473 46.892 84.8244 46.9304 84.7193 47.0071C84.6156 47.0824 84.5346 47.1925 84.4764 47.3374C84.4181 47.4822 84.389 47.6577 84.389 47.8636C84.389 48.0724 84.4174 48.25 84.4743 48.3963C84.5325 48.5426 84.6142 48.6541 84.7193 48.7308C84.8244 48.8075 84.9473 48.8459 85.0879 48.8459C85.1916 48.8459 85.2846 48.8246 85.367 48.782C85.4508 48.7393 85.5197 48.6776 85.5737 48.5966C85.6291 48.5142 85.6653 48.4155 85.6824 48.3004H86.5389C86.5247 48.5504 86.4565 48.7706 86.3343 48.9609C86.2136 49.1499 86.0467 49.2976 85.8336 49.4041C85.6206 49.5107 85.3684 49.5639 85.0772 49.5639ZM88.8608 46.2273V46.9091H86.8899V46.2273H88.8608ZM87.3374 45.4432H88.245V48.4943C88.245 48.5781 88.2578 48.6435 88.2834 48.6903C88.3089 48.7358 88.3445 48.7678 88.3899 48.7862C88.4368 48.8047 88.4908 48.8139 88.5518 48.8139C88.5945 48.8139 88.6371 48.8104 88.6797 48.8033C88.7223 48.7947 88.755 48.7884 88.7777 48.7841L88.9205 49.4595C88.875 49.4737 88.8111 49.4901 88.7287 49.5085C88.6463 49.5284 88.5462 49.5405 88.4283 49.5447C88.2095 49.5533 88.0178 49.5241 87.853 49.4574C87.6896 49.3906 87.5625 49.2869 87.4716 49.1463C87.3807 49.0057 87.3359 48.8281 87.3374 48.6136V45.4432Z" fill="white"/>
<rect x="98.25" y="41.25" width="47" height="12" rx="2.25" fill="#092AD0" fill-opacity="0.56" stroke="#092AD0" stroke-width="0.5"/>
<path d="M105.016 49.5L105.732 45.1364H106.413L105.697 49.5H105.016ZM103.062 48.4176L103.175 47.7358H106.584L106.471 48.4176H103.062ZM103.482 49.5L104.197 45.1364H104.879L104.163 49.5H103.482ZM103.311 46.9006L103.426 46.2188H106.835L106.72 46.9006H103.311ZM103.213 52.897V52.1364H106.797V52.897H105.461V56.5H104.549V52.897H103.213ZM107.555 57.7273C107.44 57.7273 107.332 57.718 107.232 57.6996C107.132 57.6825 107.05 57.6605 106.984 57.6335L107.189 56.956C107.295 56.9886 107.391 57.0064 107.477 57.0092C107.563 57.0121 107.638 56.9922 107.7 56.9496C107.764 56.907 107.816 56.8345 107.856 56.7322L107.909 56.5938L106.735 53.2273H107.69L108.367 55.6307H108.401L109.085 53.2273H110.046L108.774 56.8537C108.713 57.0298 108.63 57.1832 108.525 57.3139C108.421 57.446 108.29 57.5476 108.131 57.6186C107.972 57.6911 107.78 57.7273 107.555 57.7273ZM110.511 57.7273V53.2273H111.406V53.777H111.446C111.486 53.6889 111.543 53.5994 111.619 53.5085C111.695 53.4162 111.795 53.3395 111.917 53.2784C112.04 53.2159 112.194 53.1847 112.377 53.1847C112.616 53.1847 112.836 53.2472 113.038 53.3722C113.239 53.4957 113.401 53.6825 113.521 53.9325C113.642 54.1811 113.702 54.4929 113.702 54.8679C113.702 55.233 113.643 55.5412 113.526 55.7926C113.409 56.0426 113.25 56.2322 113.048 56.3615C112.848 56.4893 112.624 56.5533 112.375 56.5533C112.199 56.5533 112.049 56.5241 111.925 56.4659C111.803 56.4077 111.703 56.3345 111.625 56.2464C111.547 56.157 111.487 56.0668 111.446 55.9759H111.418V57.7273H110.511ZM111.399 54.8636C111.399 55.0582 111.426 55.228 111.48 55.3729C111.534 55.5178 111.612 55.6307 111.714 55.7116C111.817 55.7912 111.941 55.831 112.087 55.831C112.235 55.831 112.36 55.7905 112.462 55.7095C112.565 55.6271 112.642 55.5135 112.695 55.3686C112.749 55.2223 112.776 55.054 112.776 54.8636C112.776 54.6747 112.749 54.5085 112.697 54.3651C112.644 54.2216 112.567 54.1094 112.464 54.0284C112.362 53.9474 112.237 53.907 112.087 53.907C111.94 53.907 111.815 53.946 111.712 54.0241C111.612 54.1023 111.534 54.2131 111.48 54.3565C111.426 54.5 111.399 54.669 111.399 54.8636ZM115.799 56.5639C115.462 56.5639 115.173 56.4957 114.93 56.3594C114.688 56.2216 114.502 56.027 114.371 55.7756C114.241 55.5227 114.175 55.2237 114.175 54.8786C114.175 54.5419 114.241 54.2464 114.371 53.9922C114.502 53.7379 114.686 53.5398 114.923 53.3977C115.162 53.2557 115.442 53.1847 115.763 53.1847C115.979 53.1847 116.18 53.2195 116.366 53.2891C116.553 53.3572 116.717 53.4602 116.856 53.598C116.996 53.7358 117.106 53.9091 117.184 54.1179C117.262 54.3253 117.301 54.5682 117.301 54.8466V55.0959H114.538V54.5334H116.447C116.447 54.4027 116.418 54.2869 116.362 54.1861C116.305 54.0852 116.226 54.0064 116.125 53.9496C116.026 53.8913 115.91 53.8622 115.778 53.8622C115.64 53.8622 115.518 53.8942 115.411 53.9581C115.306 54.0206 115.224 54.1051 115.164 54.2116C115.104 54.3168 115.074 54.4339 115.072 54.5632V55.098C115.072 55.2599 115.102 55.3999 115.162 55.5178C115.223 55.6357 115.309 55.7266 115.42 55.7905C115.531 55.8544 115.662 55.8864 115.814 55.8864C115.915 55.8864 116.007 55.8722 116.091 55.8438C116.175 55.8153 116.246 55.7727 116.306 55.7159C116.366 55.6591 116.411 55.5895 116.442 55.5071L117.282 55.5625C117.239 55.7642 117.152 55.9403 117.02 56.0909C116.889 56.2401 116.72 56.3565 116.513 56.4403C116.307 56.5227 116.069 56.5639 115.799 56.5639ZM120.616 54.1605L119.786 54.2116C119.771 54.1406 119.741 54.0767 119.694 54.0199C119.647 53.9616 119.585 53.9155 119.509 53.8814C119.433 53.8459 119.343 53.8281 119.238 53.8281C119.097 53.8281 118.979 53.858 118.882 53.9176C118.786 53.9759 118.737 54.054 118.737 54.152C118.737 54.2301 118.768 54.2962 118.831 54.3501C118.893 54.4041 119.001 54.4474 119.153 54.4801L119.745 54.5994C120.063 54.6648 120.3 54.7699 120.457 54.9148C120.613 55.0597 120.691 55.25 120.691 55.4858C120.691 55.7003 120.628 55.8885 120.501 56.0504C120.376 56.2124 120.205 56.3388 119.986 56.4297C119.768 56.5192 119.518 56.5639 119.234 56.5639C118.8 56.5639 118.455 56.4737 118.198 56.2933C117.942 56.1115 117.793 55.8643 117.749 55.5518L118.641 55.505C118.668 55.6371 118.734 55.7379 118.837 55.8075C118.941 55.8757 119.074 55.9098 119.236 55.9098C119.395 55.9098 119.523 55.8793 119.619 55.8182C119.717 55.7557 119.767 55.6754 119.768 55.5774C119.767 55.495 119.732 55.4276 119.664 55.375C119.596 55.321 119.491 55.2798 119.349 55.2514L118.782 55.1385C118.462 55.0746 118.224 54.9638 118.068 54.8061C117.913 54.6484 117.836 54.4474 117.836 54.2031C117.836 53.9929 117.893 53.8118 118.006 53.6598C118.121 53.5078 118.283 53.3906 118.49 53.3082C118.699 53.2259 118.943 53.1847 119.223 53.1847C119.636 53.1847 119.962 53.272 120.199 53.4467C120.438 53.6214 120.577 53.8594 120.616 54.1605ZM122.741 56.5639C122.406 56.5639 122.118 56.4929 121.876 56.3509C121.636 56.2074 121.452 56.0085 121.322 55.7543C121.194 55.5 121.131 55.2074 121.131 54.8764C121.131 54.5412 121.195 54.2472 121.324 53.9943C121.455 53.7401 121.64 53.5419 121.881 53.3999C122.121 53.2564 122.406 53.1847 122.737 53.1847C123.023 53.1847 123.273 53.2365 123.487 53.3402C123.702 53.4439 123.871 53.5895 123.996 53.777C124.121 53.9645 124.19 54.1847 124.203 54.4375H123.346C123.322 54.2741 123.258 54.1428 123.155 54.0433C123.052 53.9425 122.918 53.892 122.752 53.892C122.611 53.892 122.488 53.9304 122.383 54.0071C122.28 54.0824 122.199 54.1925 122.14 54.3374C122.082 54.4822 122.053 54.6577 122.053 54.8636C122.053 55.0724 122.081 55.25 122.138 55.3963C122.197 55.5426 122.278 55.6541 122.383 55.7308C122.488 55.8075 122.611 55.8459 122.752 55.8459C122.856 55.8459 122.949 55.8246 123.031 55.782C123.115 55.7393 123.184 55.6776 123.238 55.5966C123.293 55.5142 123.329 55.4155 123.346 55.3004H124.203C124.189 55.5504 124.121 55.7706 123.998 55.9609C123.878 56.1499 123.711 56.2976 123.498 56.4041C123.285 56.5107 123.032 56.5639 122.741 56.5639ZM124.784 56.5V53.2273H125.664V53.7983H125.698C125.758 53.5952 125.858 53.4418 125.999 53.3381C126.139 53.233 126.301 53.1804 126.484 53.1804C126.53 53.1804 126.579 53.1832 126.631 53.1889C126.684 53.1946 126.73 53.2024 126.77 53.2124V54.0178C126.727 54.005 126.668 53.9936 126.593 53.9837C126.518 53.9737 126.449 53.9688 126.386 53.9688C126.253 53.9688 126.134 53.9979 126.028 54.0561C125.925 54.1129 125.842 54.1925 125.781 54.2947C125.722 54.397 125.692 54.5149 125.692 54.6484V56.5H124.784ZM103.362 63.5V60.2273H104.27V63.5H103.362ZM103.818 59.8054C103.683 59.8054 103.567 59.7607 103.471 59.6712C103.376 59.5803 103.328 59.4716 103.328 59.3452C103.328 59.2202 103.376 59.1129 103.471 59.0234C103.567 58.9325 103.683 58.8871 103.818 58.8871C103.953 58.8871 104.068 58.9325 104.163 59.0234C104.26 59.1129 104.308 59.2202 104.308 59.3452C104.308 59.4716 104.26 59.5803 104.163 59.6712C104.068 59.7607 103.953 59.8054 103.818 59.8054ZM104.997 64.7273V60.2273H105.892V60.777H105.932C105.972 60.6889 106.03 60.5994 106.105 60.5085C106.182 60.4162 106.281 60.3395 106.403 60.2784C106.527 60.2159 106.68 60.1847 106.863 60.1847C107.102 60.1847 107.322 60.2472 107.524 60.3722C107.726 60.4957 107.887 60.6825 108.008 60.9325C108.128 61.1811 108.189 61.4929 108.189 61.8679C108.189 62.233 108.13 62.5412 108.012 62.7926C107.895 63.0426 107.736 63.2322 107.535 63.3615C107.334 63.4893 107.11 63.5533 106.861 63.5533C106.685 63.5533 106.535 63.5241 106.412 63.4659C106.29 63.4077 106.189 63.3345 106.111 63.2464C106.033 63.157 105.974 63.0668 105.932 62.9759H105.905V64.7273H104.997ZM105.885 61.8636C105.885 62.0582 105.912 62.228 105.966 62.3729C106.02 62.5178 106.099 62.6307 106.201 62.7116C106.303 62.7912 106.427 62.831 106.574 62.831C106.721 62.831 106.846 62.7905 106.949 62.7095C107.051 62.6271 107.128 62.5135 107.181 62.3686C107.235 62.2223 107.262 62.054 107.262 61.8636C107.262 61.6747 107.236 61.5085 107.183 61.3651C107.131 61.2216 107.053 61.1094 106.951 61.0284C106.849 60.9474 106.723 60.907 106.574 60.907C106.426 60.907 106.301 60.946 106.199 61.0241C106.098 61.1023 106.02 61.2131 105.966 61.3565C105.912 61.5 105.885 61.669 105.885 61.8636ZM110.535 60.2273V60.9091H108.564V60.2273H110.535ZM109.011 59.4432H109.919V62.4943C109.919 62.5781 109.932 62.6435 109.957 62.6903C109.983 62.7358 110.018 62.7678 110.064 62.7862C110.111 62.8047 110.165 62.8139 110.226 62.8139C110.268 62.8139 110.311 62.8104 110.354 62.8033C110.396 62.7947 110.429 62.7884 110.452 62.7841L110.594 63.4595C110.549 63.4737 110.485 63.4901 110.403 63.5085C110.32 63.5284 110.22 63.5405 110.102 63.5447C109.883 63.5533 109.692 63.5241 109.527 63.4574C109.363 63.3906 109.236 63.2869 109.145 63.1463C109.055 63.0057 109.01 62.8281 109.011 62.6136V59.4432Z" fill="white"/>
<rect x="150.25" y="41.25" width="44.5" height="12" rx="2.25" fill="#092AD0" fill-opacity="0.56" stroke="#092AD0" stroke-width="0.5"/>
<path d="M158.516 49.5L159.232 45.1364H159.913L159.197 49.5H158.516ZM156.562 48.4176L156.675 47.7358H160.084L159.971 48.4176H156.562ZM156.982 49.5L157.697 45.1364H158.379L157.663 49.5H156.982ZM156.811 46.9006L156.926 46.2188H160.335L160.22 46.9006H156.811ZM165.058 46.5469C165.028 46.4432 164.986 46.3516 164.932 46.272C164.878 46.1911 164.812 46.1229 164.734 46.0675C164.657 46.0107 164.569 45.9673 164.47 45.9375C164.372 45.9077 164.263 45.8928 164.144 45.8928C163.921 45.8928 163.725 45.9482 163.556 46.0589C163.388 46.1697 163.257 46.331 163.164 46.5426C163.07 46.7528 163.023 47.0099 163.023 47.3139C163.023 47.6179 163.069 47.8764 163.162 48.0895C163.254 48.3026 163.385 48.4652 163.554 48.5774C163.723 48.6882 163.922 48.7436 164.152 48.7436C164.361 48.7436 164.539 48.7067 164.687 48.6328C164.836 48.5575 164.95 48.4517 165.028 48.3153C165.108 48.179 165.147 48.0178 165.147 47.8317L165.335 47.8594H164.21V47.1648H166.036V47.7145C166.036 48.098 165.955 48.4276 165.793 48.7031C165.631 48.9773 165.408 49.1889 165.124 49.3381C164.84 49.4858 164.515 49.5597 164.148 49.5597C163.739 49.5597 163.38 49.4695 163.07 49.2891C162.76 49.1072 162.519 48.8494 162.346 48.5156C162.174 48.1804 162.088 47.7827 162.088 47.3224C162.088 46.9687 162.139 46.6534 162.241 46.3764C162.345 46.098 162.49 45.8622 162.676 45.669C162.862 45.4759 163.078 45.3288 163.326 45.228C163.573 45.1271 163.841 45.0767 164.129 45.0767C164.376 45.0767 164.606 45.1129 164.819 45.1854C165.032 45.2564 165.221 45.3572 165.386 45.4879C165.552 45.6186 165.688 45.7741 165.793 45.9545C165.898 46.1335 165.966 46.331 165.995 46.5469H165.058ZM166.712 49.5V46.2273H167.592V46.7983H167.626C167.686 46.5952 167.786 46.4418 167.926 46.3381C168.067 46.233 168.229 46.1804 168.412 46.1804C168.458 46.1804 168.507 46.1832 168.559 46.1889C168.612 46.1946 168.658 46.2024 168.698 46.2124V47.0178C168.655 47.005 168.596 46.9936 168.521 46.9837C168.445 46.9737 168.377 46.9688 168.314 46.9688C168.181 46.9688 168.061 46.9979 167.956 47.0561C167.852 47.1129 167.77 47.1925 167.709 47.2947C167.649 47.397 167.619 47.5149 167.619 47.6484V49.5H166.712ZM170.006 49.5618C169.798 49.5618 169.612 49.5256 169.448 49.4531C169.285 49.3793 169.156 49.2706 169.06 49.1271C168.967 48.9822 168.92 48.8018 168.92 48.5859C168.92 48.4041 168.953 48.2514 169.02 48.1278C169.087 48.0043 169.178 47.9048 169.293 47.8295C169.408 47.7543 169.538 47.6974 169.685 47.6591C169.832 47.6207 169.987 47.5938 170.149 47.5781C170.339 47.5582 170.493 47.5398 170.609 47.5227C170.726 47.5043 170.81 47.4773 170.863 47.4418C170.915 47.4062 170.942 47.3537 170.942 47.2841V47.2713C170.942 47.1364 170.899 47.032 170.814 46.9581C170.73 46.8842 170.611 46.8473 170.456 46.8473C170.293 46.8473 170.163 46.8835 170.066 46.956C169.969 47.027 169.906 47.1165 169.874 47.2244L169.035 47.1562C169.077 46.9574 169.161 46.7855 169.286 46.6406C169.411 46.4943 169.572 46.3821 169.77 46.304C169.969 46.2244 170.199 46.1847 170.46 46.1847C170.642 46.1847 170.816 46.206 170.982 46.2486C171.15 46.2912 171.298 46.3572 171.428 46.4467C171.558 46.5362 171.661 46.6513 171.737 46.7919C171.812 46.9311 171.849 47.098 171.849 47.2926V49.5H170.989V49.0462H170.963C170.911 49.1484 170.84 49.2386 170.752 49.3168C170.664 49.3935 170.558 49.4538 170.435 49.4979C170.311 49.5405 170.168 49.5618 170.006 49.5618ZM170.266 48.9354C170.4 48.9354 170.518 48.9091 170.62 48.8565C170.722 48.8026 170.803 48.7301 170.861 48.6392C170.919 48.5483 170.948 48.4453 170.948 48.3303V47.983C170.92 48.0014 170.881 48.0185 170.831 48.0341C170.783 48.0483 170.728 48.0618 170.667 48.0746C170.606 48.0859 170.545 48.0966 170.484 48.1065C170.423 48.1151 170.367 48.1229 170.317 48.13C170.211 48.1456 170.118 48.1705 170.038 48.2045C169.959 48.2386 169.897 48.2848 169.853 48.343C169.809 48.3999 169.787 48.4709 169.787 48.5561C169.787 48.6797 169.832 48.7741 169.921 48.8395C170.012 48.9034 170.127 48.9354 170.266 48.9354ZM172.554 50.7273V46.2273H173.449V46.777H173.489C173.529 46.6889 173.586 46.5994 173.662 46.5085C173.738 46.4162 173.838 46.3395 173.96 46.2784C174.083 46.2159 174.237 46.1847 174.42 46.1847C174.659 46.1847 174.879 46.2472 175.081 46.3722C175.282 46.4957 175.444 46.6825 175.564 46.9325C175.685 47.1811 175.745 47.4929 175.745 47.8679C175.745 48.233 175.686 48.5412 175.569 48.7926C175.452 49.0426 175.293 49.2322 175.091 49.3615C174.891 49.4893 174.667 49.5533 174.418 49.5533C174.242 49.5533 174.092 49.5241 173.968 49.4659C173.846 49.4077 173.746 49.3345 173.668 49.2464C173.59 49.157 173.53 49.0668 173.489 48.9759H173.461V50.7273H172.554ZM173.442 47.8636C173.442 48.0582 173.469 48.228 173.523 48.3729C173.577 48.5178 173.655 48.6307 173.757 48.7116C173.86 48.7912 173.984 48.831 174.13 48.831C174.278 48.831 174.403 48.7905 174.505 48.7095C174.608 48.6271 174.685 48.5135 174.738 48.3686C174.792 48.2223 174.819 48.054 174.819 47.8636C174.819 47.6747 174.792 47.5085 174.74 47.3651C174.687 47.2216 174.61 47.1094 174.507 47.0284C174.405 46.9474 174.279 46.907 174.13 46.907C173.983 46.907 173.858 46.946 173.755 47.0241C173.654 47.1023 173.577 47.2131 173.523 47.3565C173.469 47.5 173.442 47.669 173.442 47.8636ZM177.258 47.608V49.5H176.35V45.1364H177.233V46.8047H177.271C177.345 46.6115 177.464 46.4602 177.629 46.3509C177.794 46.2401 178 46.1847 178.249 46.1847C178.476 46.1847 178.674 46.2344 178.843 46.3338C179.014 46.4318 179.146 46.5732 179.24 46.7578C179.335 46.9411 179.382 47.1605 179.38 47.4162V49.5H178.473V47.5781C178.474 47.3764 178.423 47.2195 178.319 47.1072C178.217 46.995 178.074 46.9389 177.889 46.9389C177.765 46.9389 177.656 46.9652 177.561 47.0178C177.467 47.0703 177.393 47.147 177.339 47.2479C177.287 47.3473 177.26 47.4673 177.258 47.608ZM181.759 47.983H182.543L182.937 48.4901L183.325 48.9418L184.056 49.858H183.195L182.692 49.2401L182.434 48.8736L181.759 47.983ZM184.122 47.3182C184.122 47.794 184.031 48.1989 183.851 48.5327C183.672 48.8665 183.428 49.1214 183.118 49.2976C182.81 49.4723 182.463 49.5597 182.078 49.5597C181.691 49.5597 181.343 49.4716 181.034 49.2955C180.726 49.1193 180.482 48.8643 180.303 48.5305C180.124 48.1967 180.035 47.7926 180.035 47.3182C180.035 46.8423 180.124 46.4375 180.303 46.1037C180.482 45.7699 180.726 45.5156 181.034 45.3409C181.343 45.1648 181.691 45.0767 182.078 45.0767C182.463 45.0767 182.81 45.1648 183.118 45.3409C183.428 45.5156 183.672 45.7699 183.851 46.1037C184.031 46.4375 184.122 46.8423 184.122 47.3182ZM183.186 47.3182C183.186 47.0099 183.14 46.75 183.048 46.5384C182.957 46.3267 182.828 46.1662 182.662 46.0568C182.496 45.9474 182.301 45.8928 182.078 45.8928C181.855 45.8928 181.661 45.9474 181.494 46.0568C181.328 46.1662 181.199 46.3267 181.107 46.5384C181.016 46.75 180.97 47.0099 180.97 47.3182C180.97 47.6264 181.016 47.8864 181.107 48.098C181.199 48.3097 181.328 48.4702 181.494 48.5795C181.661 48.6889 181.855 48.7436 182.078 48.7436C182.301 48.7436 182.496 48.6889 182.662 48.5795C182.828 48.4702 182.957 48.3097 183.048 48.098C183.14 47.8864 183.186 47.6264 183.186 47.3182ZM184.805 49.5V45.1364H185.728V48.7393H187.598V49.5H184.805Z" fill="white"/>
<rect width="250" height="67.5" rx="17.5" fill="white"/>
<circle cx="37.5" cy="33.5" r="20" fill="#C4C4C4"/>
<rect x="28.5" y="36" width="18" height="10" rx="2.5" fill="white"/>
<circle cx="37.25" cy="27.75" r="6.25" fill="white"/>
<path d="M64.1321 26V18.7273H65.6697V24.7322H68.7876V26H64.1321ZM73.2754 23.6776V20.5455H74.7882V26H73.3358V25.0092H73.2789C73.1558 25.3288 72.9511 25.5857 72.6646 25.7798C72.3805 25.974 72.0337 26.071 71.6241 26.071C71.2595 26.071 70.9387 25.9882 70.6618 25.8224C70.3848 25.6567 70.1681 25.4212 70.0119 25.1158C69.858 24.8104 69.7799 24.4446 69.7775 24.0185V20.5455H71.2903V23.7486C71.2927 24.0705 71.3791 24.325 71.5495 24.5121C71.72 24.6991 71.9484 24.7926 72.2349 24.7926C72.4172 24.7926 72.5877 24.7512 72.7463 24.6683C72.9049 24.5831 73.0327 24.4576 73.1298 24.2919C73.2292 24.1262 73.2778 23.9214 73.2754 23.6776ZM77.369 24.4304L77.3725 22.6158H77.5927L79.3398 20.5455H81.0763L78.729 23.2869H78.3704L77.369 24.4304ZM75.9982 26V18.7273H77.511V26H75.9982ZM79.4073 26L77.8022 23.6243L78.8107 22.5554L81.1793 26H79.4073ZM84.0797 26.1065C83.5186 26.1065 83.0357 25.9929 82.6309 25.7656C82.2284 25.536 81.9183 25.2116 81.7005 24.7926C81.4827 24.3712 81.3738 23.8729 81.3738 23.2976C81.3738 22.7365 81.4827 22.2441 81.7005 21.8203C81.9183 21.3965 82.2248 21.0663 82.6202 20.8295C83.0179 20.5928 83.4843 20.4744 84.0194 20.4744C84.3792 20.4744 84.7142 20.5324 85.0243 20.6484C85.3368 20.7621 85.6091 20.9337 85.8411 21.1634C86.0755 21.393 86.2578 21.6818 86.388 22.0298C86.5182 22.3755 86.5833 22.7803 86.5833 23.2443V23.6598H81.9775V22.7223H85.1593C85.1593 22.5045 85.1119 22.3116 85.0172 22.1435C84.9225 21.9754 84.7911 21.844 84.623 21.7493C84.4573 21.6522 84.2644 21.6037 84.0442 21.6037C83.8146 21.6037 83.611 21.657 83.4334 21.7635C83.2582 21.8677 83.1209 22.0085 83.0215 22.1861C82.9221 22.3613 82.8712 22.5566 82.8688 22.772V23.6634C82.8688 23.9332 82.9185 24.1664 83.0179 24.3629C83.1197 24.5594 83.263 24.7109 83.4476 24.8175C83.6323 24.924 83.8513 24.9773 84.1046 24.9773C84.2727 24.9773 84.4266 24.9536 84.5662 24.9062C84.7059 24.8589 84.8255 24.7879 84.9249 24.6932C85.0243 24.5985 85.1001 24.4825 85.1522 24.3452L86.5513 24.4375C86.4803 24.7737 86.3347 25.0672 86.1145 25.3182C85.8967 25.5668 85.615 25.7609 85.2694 25.9006C84.9261 26.0379 84.5295 26.1065 84.0797 26.1065ZM93.8587 20.8189C93.8303 20.5324 93.7083 20.3099 93.4929 20.1513C93.2775 19.9927 92.9851 19.9134 92.6158 19.9134C92.3648 19.9134 92.1529 19.9489 91.9801 20.0199C91.8073 20.0885 91.6747 20.1844 91.5824 20.3075C91.4924 20.4306 91.4474 20.5703 91.4474 20.7266C91.4427 20.8568 91.4699 20.9704 91.5291 21.0675C91.5907 21.1645 91.6747 21.2486 91.7812 21.3196C91.8878 21.3883 92.0109 21.4486 92.1506 21.5007C92.2902 21.5504 92.4394 21.593 92.598 21.6286L93.2514 21.7848C93.5687 21.8558 93.8598 21.9505 94.125 22.0689C94.3902 22.1873 94.6198 22.3329 94.8139 22.5057C95.008 22.6785 95.1584 22.8821 95.2649 23.1165C95.3738 23.3509 95.4295 23.6196 95.4318 23.9226C95.4295 24.3677 95.3158 24.7536 95.0909 25.0803C94.8684 25.4046 94.5464 25.6567 94.125 25.8366C93.706 26.0142 93.2005 26.103 92.6087 26.103C92.0215 26.103 91.5102 26.013 91.0746 25.8331C90.6413 25.6532 90.3028 25.3868 90.0589 25.0341C89.8175 24.679 89.6908 24.2398 89.679 23.7166H91.1669C91.1835 23.9605 91.2533 24.1641 91.3764 24.3274C91.5019 24.4884 91.6688 24.6103 91.8771 24.6932C92.0878 24.7737 92.3258 24.8139 92.5909 24.8139C92.8513 24.8139 93.0774 24.776 93.2692 24.7003C93.4633 24.6245 93.6136 24.5192 93.7202 24.3842C93.8267 24.2493 93.88 24.0942 93.88 23.919C93.88 23.7557 93.8314 23.6184 93.7344 23.5071C93.6397 23.3958 93.5 23.3011 93.3153 23.223C93.133 23.1449 92.9093 23.0739 92.6442 23.0099L91.8523 22.8111C91.2391 22.6619 90.755 22.4287 90.3999 22.1115C90.0447 21.7943 89.8684 21.367 89.8707 20.8295C89.8684 20.3892 89.9856 20.0045 90.2223 19.6754C90.4614 19.3464 90.7893 19.0895 91.206 18.9048C91.6226 18.7202 92.0961 18.6278 92.6264 18.6278C93.1662 18.6278 93.6373 18.7202 94.0398 18.9048C94.4446 19.0895 94.7595 19.3464 94.9844 19.6754C95.2093 20.0045 95.3253 20.3857 95.3324 20.8189H93.8587ZM97.9931 26.103C97.6451 26.103 97.3349 26.0426 97.0627 25.9219C96.7904 25.7988 96.575 25.6177 96.4164 25.3786C96.2601 25.1371 96.182 24.8364 96.182 24.4766C96.182 24.1735 96.2376 23.919 96.3489 23.7131C96.4602 23.5071 96.6117 23.3414 96.8034 23.2159C96.9952 23.0904 97.213 22.9957 97.4569 22.9318C97.7031 22.8679 97.9611 22.8229 98.231 22.7969C98.5482 22.7637 98.8039 22.733 98.998 22.7045C99.1922 22.6738 99.333 22.6288 99.4206 22.5696C99.5082 22.5104 99.552 22.4228 99.552 22.3068V22.2855C99.552 22.0606 99.481 21.8866 99.339 21.7635C99.1993 21.6404 99.0004 21.5788 98.7424 21.5788C98.4701 21.5788 98.2535 21.6392 98.0925 21.7599C97.9315 21.8783 97.825 22.0275 97.7729 22.2074L96.3738 22.0938C96.4448 21.7623 96.5845 21.4759 96.7928 21.2344C97.0011 20.9905 97.2698 20.8035 97.5989 20.6733C97.9303 20.5407 98.3139 20.4744 98.7495 20.4744C99.0525 20.4744 99.3425 20.5099 99.6195 20.581C99.8989 20.652 100.146 20.7621 100.362 20.9112C100.579 21.0604 100.751 21.2521 100.877 21.4865C101.002 21.7185 101.065 21.9967 101.065 22.321V26H99.6301V25.2436H99.5875C99.4999 25.4141 99.3828 25.5644 99.236 25.6946C99.0892 25.8224 98.9128 25.9231 98.7069 25.9964C98.5009 26.0675 98.263 26.103 97.9931 26.103ZM98.4263 25.0589C98.6489 25.0589 98.8453 25.0152 99.0158 24.9276C99.1863 24.8376 99.32 24.7169 99.4171 24.5653C99.5141 24.4138 99.5627 24.2422 99.5627 24.0504V23.4716C99.5153 23.5024 99.4502 23.5308 99.3674 23.5568C99.2869 23.5805 99.1957 23.603 99.0939 23.6243C98.9921 23.6432 98.8903 23.661 98.7885 23.6776C98.6867 23.6918 98.5944 23.7048 98.5115 23.7166C98.334 23.7427 98.1789 23.7841 98.0463 23.8409C97.9138 23.8977 97.8108 23.9747 97.7374 24.0717C97.664 24.1664 97.6273 24.2848 97.6273 24.4268C97.6273 24.6328 97.7019 24.7902 97.851 24.8991C98.0025 25.0057 98.1943 25.0589 98.4263 25.0589ZM103.751 22.8466V26H102.238V20.5455H103.68V21.5078H103.744C103.865 21.1906 104.067 20.9396 104.351 20.755C104.635 20.5679 104.98 20.4744 105.385 20.4744C105.764 20.4744 106.094 20.5573 106.376 20.723C106.657 20.8887 106.876 21.1255 107.032 21.4332C107.189 21.7386 107.267 22.1032 107.267 22.527V26H105.754V22.7969C105.756 22.4631 105.671 22.2027 105.498 22.0156C105.326 21.8262 105.088 21.7315 104.785 21.7315C104.581 21.7315 104.401 21.7753 104.245 21.8629C104.091 21.9505 103.97 22.0784 103.883 22.2464C103.797 22.4122 103.754 22.6122 103.751 22.8466ZM110.924 26.1065C110.365 26.1065 109.884 25.9882 109.482 25.7514C109.082 25.5123 108.774 25.1809 108.559 24.7571C108.346 24.3333 108.239 23.8456 108.239 23.294C108.239 22.7353 108.347 22.2453 108.562 21.8239C108.78 21.4001 109.089 21.0698 109.489 20.8331C109.889 20.594 110.365 20.4744 110.917 20.4744C111.392 20.4744 111.809 20.5608 112.167 20.7337C112.524 20.9065 112.807 21.1491 113.015 21.4616C113.224 21.7741 113.338 22.1411 113.36 22.5625H111.932C111.892 22.2902 111.785 22.0713 111.613 21.9055C111.442 21.7375 111.218 21.6534 110.941 21.6534C110.707 21.6534 110.502 21.7173 110.327 21.8452C110.154 21.9706 110.019 22.1541 109.922 22.3956C109.825 22.6371 109.777 22.9295 109.777 23.2727C109.777 23.6207 109.824 23.9167 109.919 24.1605C110.016 24.4044 110.152 24.5902 110.327 24.718C110.502 24.8459 110.707 24.9098 110.941 24.9098C111.114 24.9098 111.269 24.8743 111.407 24.8033C111.546 24.7322 111.661 24.6293 111.751 24.4943C111.843 24.357 111.904 24.1925 111.932 24.0007H113.36C113.336 24.4174 113.222 24.7843 113.019 25.1016C112.818 25.4164 112.539 25.6626 112.184 25.8402C111.829 26.0178 111.409 26.1065 110.924 26.1065ZM115.841 22.8466V26H114.328V18.7273H115.798V21.5078H115.862C115.985 21.1858 116.184 20.9337 116.459 20.7514C116.734 20.5668 117.078 20.4744 117.492 20.4744C117.871 20.4744 118.201 20.5573 118.483 20.723C118.767 20.8864 118.987 21.1219 119.144 21.4297C119.302 21.7351 119.38 22.1009 119.378 22.527V26H117.865V22.7969C117.868 22.4607 117.782 22.1991 117.61 22.0121C117.439 21.825 117.2 21.7315 116.892 21.7315C116.686 21.7315 116.504 21.7753 116.345 21.8629C116.189 21.9505 116.066 22.0784 115.976 22.2464C115.888 22.4122 115.843 22.6122 115.841 22.8466ZM123.054 26.1065C122.493 26.1065 122.01 25.9929 121.605 25.7656C121.203 25.536 120.893 25.2116 120.675 24.7926C120.457 24.3712 120.348 23.8729 120.348 23.2976C120.348 22.7365 120.457 22.2441 120.675 21.8203C120.893 21.3965 121.199 21.0663 121.595 20.8295C121.993 20.5928 122.459 20.4744 122.994 20.4744C123.354 20.4744 123.689 20.5324 123.999 20.6484C124.311 20.7621 124.584 20.9337 124.816 21.1634C125.05 21.393 125.232 21.6818 125.363 22.0298C125.493 22.3755 125.558 22.7803 125.558 23.2443V23.6598H120.952V22.7223H124.134C124.134 22.5045 124.087 22.3116 123.992 22.1435C123.897 21.9754 123.766 21.844 123.598 21.7493C123.432 21.6522 123.239 21.6037 123.019 21.6037C122.789 21.6037 122.586 21.657 122.408 21.7635C122.233 21.8677 122.096 22.0085 121.996 22.1861C121.897 22.3613 121.846 22.5566 121.843 22.772V23.6634C121.843 23.9332 121.893 24.1664 121.993 24.3629C122.094 24.5594 122.238 24.7109 122.422 24.8175C122.607 24.924 122.826 24.9773 123.079 24.9773C123.247 24.9773 123.401 24.9536 123.541 24.9062C123.681 24.8589 123.8 24.7879 123.9 24.6932C123.999 24.5985 124.075 24.4825 124.127 24.3452L125.526 24.4375C125.455 24.7737 125.309 25.0672 125.089 25.3182C124.871 25.5668 124.59 25.7609 124.244 25.9006C123.901 26.0379 123.504 26.1065 123.054 26.1065ZM126.517 26V25.098L129.187 21.7919V21.7528H126.609V20.5455H131.009V21.5291L128.502 24.7536V24.7926H131.101V26H126.517Z" fill="black"/>
<path d="M64.0057 36.5V30.6818H67.858V31.696H65.2358V33.0824H67.6023V34.0966H65.2358V36.5H64.0057ZM68.5923 36.5V32.1364H69.7656V32.8977H69.8111C69.8906 32.6269 70.0241 32.4223 70.2116 32.2841C70.3991 32.1439 70.6151 32.0739 70.8594 32.0739C70.92 32.0739 70.9853 32.0777 71.0554 32.0852C71.1255 32.0928 71.187 32.1032 71.2401 32.1165V33.1903C71.1832 33.1733 71.1046 33.1581 71.0043 33.1449C70.9039 33.1316 70.812 33.125 70.7287 33.125C70.5507 33.125 70.3916 33.1638 70.2514 33.2415C70.1132 33.3172 70.0033 33.4233 69.9219 33.5597C69.8423 33.696 69.8026 33.8532 69.8026 34.0312V36.5H68.5923ZM73.6342 36.5852C73.1929 36.5852 72.8113 36.4915 72.4893 36.304C72.1693 36.1146 71.9221 35.8513 71.7479 35.5142C71.5736 35.1752 71.4865 34.7822 71.4865 34.3352C71.4865 33.8845 71.5736 33.4905 71.7479 33.1534C71.9221 32.8144 72.1693 32.5511 72.4893 32.3636C72.8113 32.1742 73.1929 32.0795 73.6342 32.0795C74.0755 32.0795 74.4562 32.1742 74.7763 32.3636C75.0982 32.5511 75.3464 32.8144 75.5206 33.1534C75.6948 33.4905 75.782 33.8845 75.782 34.3352C75.782 34.7822 75.6948 35.1752 75.5206 35.5142C75.3464 35.8513 75.0982 36.1146 74.7763 36.304C74.4562 36.4915 74.0755 36.5852 73.6342 36.5852ZM73.6399 35.6477C73.8407 35.6477 74.0083 35.5909 74.1428 35.4773C74.2772 35.3617 74.3786 35.2045 74.4467 35.0057C74.5168 34.8068 74.5518 34.5805 74.5518 34.3267C74.5518 34.0729 74.5168 33.8466 74.4467 33.6477C74.3786 33.4489 74.2772 33.2917 74.1428 33.1761C74.0083 33.0606 73.8407 33.0028 73.6399 33.0028C73.4373 33.0028 73.2668 33.0606 73.1286 33.1761C72.9922 33.2917 72.889 33.4489 72.8189 33.6477C72.7507 33.8466 72.7166 34.0729 72.7166 34.3267C72.7166 34.5805 72.7507 34.8068 72.8189 35.0057C72.889 35.2045 72.9922 35.3617 73.1286 35.4773C73.2668 35.5909 73.4373 35.6477 73.6399 35.6477ZM77.7791 33.9773V36.5H76.5689V32.1364H77.7223V32.9062H77.7734C77.87 32.6525 78.032 32.4517 78.2592 32.304C78.4865 32.1544 78.7621 32.0795 79.0859 32.0795C79.389 32.0795 79.6532 32.1458 79.8786 32.2784C80.1039 32.411 80.2791 32.6004 80.4041 32.8466C80.5291 33.0909 80.5916 33.3826 80.5916 33.7216V36.5H79.3814V33.9375C79.3833 33.6705 79.3151 33.4621 79.1768 33.3125C79.0386 33.161 78.8482 33.0852 78.6058 33.0852C78.4429 33.0852 78.299 33.1203 78.174 33.1903C78.0509 33.2604 77.9543 33.3627 77.8842 33.4972C77.8161 33.6297 77.781 33.7898 77.7791 33.9773ZM83.8665 32.1364V33.0455H81.2386V32.1364H83.8665ZM81.8352 31.0909H83.0455V35.1591C83.0455 35.2708 83.0625 35.358 83.0966 35.4205C83.1307 35.4811 83.178 35.5237 83.2386 35.5483C83.3011 35.5729 83.3731 35.5852 83.4545 35.5852C83.5114 35.5852 83.5682 35.5805 83.625 35.571C83.6818 35.5597 83.7254 35.5511 83.7557 35.5455L83.946 36.446C83.8854 36.465 83.8002 36.4867 83.6903 36.5114C83.5805 36.5379 83.447 36.554 83.2898 36.5597C82.9981 36.571 82.7424 36.5322 82.5227 36.4432C82.3049 36.3542 82.1354 36.2159 82.0142 36.0284C81.893 35.8409 81.8333 35.6042 81.8352 35.3182V31.0909ZM86.5966 36.5852C86.1477 36.5852 85.7614 36.4943 85.4375 36.3125C85.1155 36.1288 84.8674 35.8693 84.6932 35.5341C84.5189 35.197 84.4318 34.7983 84.4318 34.3381C84.4318 33.8892 84.5189 33.4953 84.6932 33.1562C84.8674 32.8172 85.1127 32.553 85.429 32.3636C85.7472 32.1742 86.1203 32.0795 86.5483 32.0795C86.8362 32.0795 87.1042 32.1259 87.3523 32.2188C87.6023 32.3097 87.8201 32.447 88.0057 32.6307C88.1932 32.8144 88.339 33.0455 88.4432 33.3239C88.5473 33.6004 88.5994 33.9242 88.5994 34.2955V34.6278H84.9148V33.8778H87.4602C87.4602 33.7036 87.4223 33.5492 87.3466 33.4148C87.2708 33.2803 87.1657 33.1752 87.0312 33.0994C86.8987 33.0218 86.7443 32.983 86.5682 32.983C86.3845 32.983 86.2216 33.0256 86.0795 33.1108C85.9394 33.1941 85.8295 33.3068 85.75 33.4489C85.6705 33.589 85.6297 33.7453 85.6278 33.9176V34.6307C85.6278 34.8466 85.6676 35.0331 85.7472 35.1903C85.8286 35.3475 85.9432 35.4688 86.0909 35.554C86.2386 35.6392 86.4138 35.6818 86.6165 35.6818C86.7509 35.6818 86.8741 35.6629 86.9858 35.625C87.0975 35.5871 87.1932 35.5303 87.2727 35.4545C87.3523 35.3788 87.4129 35.286 87.4545 35.1761L88.5739 35.25C88.517 35.5189 88.4006 35.7538 88.2244 35.9545C88.0502 36.1534 87.8248 36.3087 87.5483 36.4205C87.2737 36.5303 86.9564 36.5852 86.5966 36.5852ZM90.5994 33.9773V36.5H89.3892V32.1364H90.5426V32.9062H90.5938C90.6903 32.6525 90.8523 32.4517 91.0795 32.304C91.3068 32.1544 91.5824 32.0795 91.9062 32.0795C92.2093 32.0795 92.4735 32.1458 92.6989 32.2784C92.9242 32.411 93.0994 32.6004 93.2244 32.8466C93.3494 33.0909 93.4119 33.3826 93.4119 33.7216V36.5H92.2017V33.9375C92.2036 33.6705 92.1354 33.4621 91.9972 33.3125C91.8589 33.161 91.6686 33.0852 91.4261 33.0852C91.2633 33.0852 91.1193 33.1203 90.9943 33.1903C90.8712 33.2604 90.7746 33.3627 90.7045 33.4972C90.6364 33.6297 90.6013 33.7898 90.5994 33.9773ZM95.9737 36.571C95.6423 36.571 95.3421 36.4858 95.0732 36.3153C94.8061 36.143 94.594 35.8902 94.4368 35.5568C94.2815 35.2216 94.2038 34.8106 94.2038 34.3239C94.2038 33.8239 94.2843 33.4081 94.4453 33.0767C94.6063 32.7434 94.8203 32.4943 95.0874 32.3295C95.3563 32.1629 95.6508 32.0795 95.9709 32.0795C96.2152 32.0795 96.4188 32.1212 96.5817 32.2045C96.7464 32.286 96.879 32.3883 96.9794 32.5114C97.0817 32.6326 97.1593 32.7519 97.2124 32.8693H97.2493V30.6818H98.4567V36.5H97.2635V35.8011H97.2124C97.1555 35.9223 97.075 36.0426 96.9709 36.1619C96.8686 36.2794 96.7351 36.3769 96.5703 36.4545C96.4074 36.5322 96.2086 36.571 95.9737 36.571ZM96.3572 35.608C96.5523 35.608 96.7171 35.5549 96.8516 35.4489C96.9879 35.3409 97.0921 35.1903 97.1641 34.9972C97.2379 34.804 97.2749 34.5777 97.2749 34.3182C97.2749 34.0587 97.2389 33.8333 97.1669 33.642C97.0949 33.4508 96.9908 33.303 96.8544 33.1989C96.718 33.0947 96.5523 33.0426 96.3572 33.0426C96.1584 33.0426 95.9908 33.0966 95.8544 33.2045C95.718 33.3125 95.6148 33.4621 95.5447 33.6534C95.4747 33.8447 95.4396 34.0663 95.4396 34.3182C95.4396 34.572 95.4747 34.7964 95.5447 34.9915C95.6167 35.1847 95.7199 35.3362 95.8544 35.446C95.9908 35.554 96.1584 35.608 96.3572 35.608ZM101.326 36.5V30.6818H105.246V31.696H102.556V33.0824H105.045V34.0966H102.556V35.4858H105.258V36.5H101.326ZM107.412 33.9773V36.5H106.202V32.1364H107.355V32.9062H107.406C107.503 32.6525 107.665 32.4517 107.892 32.304C108.119 32.1544 108.395 32.0795 108.719 32.0795C109.022 32.0795 109.286 32.1458 109.511 32.2784C109.737 32.411 109.912 32.6004 110.037 32.8466C110.162 33.0909 110.224 33.3826 110.224 33.7216V36.5H109.014V33.9375C109.016 33.6705 108.948 33.4621 108.81 33.3125C108.671 33.161 108.481 33.0852 108.239 33.0852C108.076 33.0852 107.932 33.1203 107.807 33.1903C107.684 33.2604 107.587 33.3627 107.517 33.4972C107.449 33.6297 107.414 33.7898 107.412 33.9773ZM113.144 38.2273C112.752 38.2273 112.416 38.1733 112.136 38.0653C111.857 37.9593 111.636 37.8144 111.471 37.6307C111.306 37.447 111.199 37.2405 111.15 37.0114L112.269 36.8608C112.303 36.9479 112.357 37.0294 112.431 37.1051C112.505 37.1809 112.603 37.2415 112.724 37.2869C112.847 37.3343 112.996 37.358 113.173 37.358C113.436 37.358 113.653 37.2936 113.823 37.1648C113.996 37.0379 114.082 36.8248 114.082 36.5256V35.7273H114.031C113.978 35.8485 113.898 35.9631 113.792 36.071C113.686 36.179 113.549 36.267 113.383 36.3352C113.216 36.4034 113.017 36.4375 112.786 36.4375C112.459 36.4375 112.16 36.3617 111.891 36.2102C111.624 36.0568 111.411 35.8229 111.252 35.5085C111.095 35.1922 111.016 34.7926 111.016 34.3097C111.016 33.8153 111.097 33.4025 111.258 33.071C111.419 32.7396 111.633 32.4915 111.9 32.3267C112.169 32.1619 112.463 32.0795 112.783 32.0795C113.028 32.0795 113.232 32.1212 113.397 32.2045C113.562 32.286 113.694 32.3883 113.795 32.5114C113.897 32.6326 113.976 32.7519 114.031 32.8693H114.076V32.1364H115.278V36.5426C115.278 36.9138 115.187 37.2244 115.005 37.4744C114.823 37.7244 114.571 37.9119 114.249 38.0369C113.929 38.1638 113.561 38.2273 113.144 38.2273ZM113.17 35.5284C113.365 35.5284 113.53 35.4801 113.664 35.3835C113.8 35.285 113.905 35.1449 113.977 34.9631C114.05 34.7794 114.087 34.5597 114.087 34.304C114.087 34.0483 114.051 33.8267 113.979 33.6392C113.907 33.4498 113.803 33.303 113.667 33.1989C113.531 33.0947 113.365 33.0426 113.17 33.0426C112.971 33.0426 112.803 33.0966 112.667 33.2045C112.531 33.3106 112.427 33.4583 112.357 33.6477C112.287 33.8371 112.252 34.0559 112.252 34.304C112.252 34.5559 112.287 34.7737 112.357 34.9574C112.429 35.1392 112.532 35.2803 112.667 35.3807C112.803 35.4792 112.971 35.5284 113.17 35.5284ZM116.241 36.5V32.1364H117.451V36.5H116.241ZM116.849 31.5739C116.669 31.5739 116.514 31.5142 116.386 31.3949C116.259 31.2737 116.195 31.1288 116.195 30.9602C116.195 30.7936 116.259 30.6506 116.386 30.5312C116.514 30.41 116.669 30.3494 116.849 30.3494C117.029 30.3494 117.182 30.41 117.309 30.5312C117.438 30.6506 117.502 30.7936 117.502 30.9602C117.502 31.1288 117.438 31.2737 117.309 31.3949C117.182 31.5142 117.029 31.5739 116.849 31.5739ZM119.631 33.9773V36.5H118.42V32.1364H119.574V32.9062H119.625C119.722 32.6525 119.884 32.4517 120.111 32.304C120.338 32.1544 120.614 32.0795 120.938 32.0795C121.241 32.0795 121.505 32.1458 121.73 32.2784C121.955 32.411 122.131 32.6004 122.256 32.8466C122.381 33.0909 122.443 33.3826 122.443 33.7216V36.5H121.233V33.9375C121.235 33.6705 121.167 33.4621 121.028 33.3125C120.89 33.161 120.7 33.0852 120.457 33.0852C120.295 33.0852 120.151 33.1203 120.026 33.1903C119.902 33.2604 119.806 33.3627 119.736 33.4972C119.668 33.6297 119.633 33.7898 119.631 33.9773ZM125.386 36.5852C124.937 36.5852 124.55 36.4943 124.227 36.3125C123.905 36.1288 123.656 35.8693 123.482 35.5341C123.308 35.197 123.221 34.7983 123.221 34.3381C123.221 33.8892 123.308 33.4953 123.482 33.1562C123.656 32.8172 123.902 32.553 124.218 32.3636C124.536 32.1742 124.909 32.0795 125.337 32.0795C125.625 32.0795 125.893 32.1259 126.141 32.2188C126.391 32.3097 126.609 32.447 126.795 32.6307C126.982 32.8144 127.128 33.0455 127.232 33.3239C127.336 33.6004 127.388 33.9242 127.388 34.2955V34.6278H123.704V33.8778H126.249C126.249 33.7036 126.211 33.5492 126.136 33.4148C126.06 33.2803 125.955 33.1752 125.82 33.0994C125.688 33.0218 125.533 32.983 125.357 32.983C125.174 32.983 125.011 33.0256 124.869 33.1108C124.728 33.1941 124.619 33.3068 124.539 33.4489C124.46 33.589 124.419 33.7453 124.417 33.9176V34.6307C124.417 34.8466 124.457 35.0331 124.536 35.1903C124.618 35.3475 124.732 35.4688 124.88 35.554C125.028 35.6392 125.203 35.6818 125.406 35.6818C125.54 35.6818 125.663 35.6629 125.775 35.625C125.887 35.5871 125.982 35.5303 126.062 35.4545C126.141 35.3788 126.202 35.286 126.244 35.1761L127.363 35.25C127.306 35.5189 127.19 35.7538 127.013 35.9545C126.839 36.1534 126.614 36.3087 126.337 36.4205C126.063 36.5303 125.746 36.5852 125.386 36.5852ZM130.167 36.5852C129.718 36.5852 129.332 36.4943 129.008 36.3125C128.686 36.1288 128.438 35.8693 128.263 35.5341C128.089 35.197 128.002 34.7983 128.002 34.3381C128.002 33.8892 128.089 33.4953 128.263 33.1562C128.438 32.8172 128.683 32.553 128.999 32.3636C129.317 32.1742 129.691 32.0795 130.119 32.0795C130.406 32.0795 130.674 32.1259 130.923 32.2188C131.173 32.3097 131.39 32.447 131.576 32.6307C131.763 32.8144 131.909 33.0455 132.013 33.3239C132.118 33.6004 132.17 33.9242 132.17 34.2955V34.6278H128.485V33.8778H131.031C131.031 33.7036 130.993 33.5492 130.917 33.4148C130.841 33.2803 130.736 33.1752 130.602 33.0994C130.469 33.0218 130.315 32.983 130.138 32.983C129.955 32.983 129.792 33.0256 129.65 33.1108C129.51 33.1941 129.4 33.3068 129.32 33.4489C129.241 33.589 129.2 33.7453 129.198 33.9176V34.6307C129.198 34.8466 129.238 35.0331 129.317 35.1903C129.399 35.3475 129.513 35.4688 129.661 35.554C129.809 35.6392 129.984 35.6818 130.187 35.6818C130.321 35.6818 130.444 35.6629 130.556 35.625C130.668 35.5871 130.763 35.5303 130.843 35.4545C130.923 35.3788 130.983 35.286 131.025 35.1761L132.144 35.25C132.087 35.5189 131.971 35.7538 131.795 35.9545C131.621 36.1534 131.395 36.3087 131.119 36.4205C130.844 36.5303 130.527 36.5852 130.167 36.5852ZM132.96 36.5V32.1364H134.133V32.8977H134.178C134.258 32.6269 134.391 32.4223 134.579 32.2841C134.766 32.1439 134.982 32.0739 135.227 32.0739C135.287 32.0739 135.353 32.0777 135.423 32.0852C135.493 32.0928 135.554 32.1032 135.607 32.1165V33.1903C135.55 33.1733 135.472 33.1581 135.371 33.1449C135.271 33.1316 135.179 33.125 135.096 33.125C134.918 33.125 134.759 33.1638 134.619 33.2415C134.48 33.3172 134.371 33.4233 134.289 33.5597C134.21 33.696 134.17 33.8532 134.17 34.0312V36.5H132.96Z" fill="#092AD0"/>
<rect x="63.75" y="41.25" width="34.5" height="12" rx="2.25" fill="#092AD0" fill-opacity="0.56" stroke="#092AD0" stroke-width="0.5"/>
<path d="M70.0156 49.5L70.7315 45.1364H71.4134L70.6974 49.5H70.0156ZM68.0618 48.4176L68.1747 47.7358H71.5838L71.4709 48.4176H68.0618ZM68.4815 49.5L69.1974 45.1364H69.8793L69.1634 49.5H68.4815ZM68.3111 46.9006L68.4261 46.2188H71.8352L71.7202 46.9006H68.3111ZM77.3143 45.1364V49.5H76.5174L74.619 46.7536H74.587V49.5H73.6644V45.1364H74.4741L76.3576 47.8807H76.396V45.1364H77.3143ZM79.551 49.5639C79.2143 49.5639 78.9245 49.4957 78.6816 49.3594C78.4402 49.2216 78.2541 49.027 78.1234 48.7756C77.9927 48.5227 77.9274 48.2237 77.9274 47.8786C77.9274 47.5419 77.9927 47.2464 78.1234 46.9922C78.2541 46.7379 78.438 46.5398 78.6752 46.3977C78.9139 46.2557 79.1937 46.1847 79.5147 46.1847C79.7306 46.1847 79.9316 46.2195 80.1177 46.2891C80.3052 46.3572 80.4686 46.4602 80.6078 46.598C80.7484 46.7358 80.8578 46.9091 80.9359 47.1179C81.014 47.3253 81.0531 47.5682 81.0531 47.8466V48.0959H78.2896V47.5334H80.1987C80.1987 47.4027 80.1703 47.2869 80.1135 47.1861C80.0566 47.0852 79.9778 47.0064 79.877 46.9496C79.7775 46.8913 79.6618 46.8622 79.5297 46.8622C79.3919 46.8622 79.2697 46.8942 79.1632 46.9581C79.0581 47.0206 78.9757 47.1051 78.916 47.2116C78.8564 47.3168 78.8258 47.4339 78.8244 47.5632V48.098C78.8244 48.2599 78.8542 48.3999 78.9139 48.5178C78.975 48.6357 79.0609 48.7266 79.1717 48.7905C79.2825 48.8544 79.4139 48.8864 79.5659 48.8864C79.6667 48.8864 79.7591 48.8722 79.8429 48.8438C79.9267 48.8153 79.9984 48.7727 80.0581 48.7159C80.1177 48.6591 80.1632 48.5895 80.1944 48.5071L81.0339 48.5625C80.9913 48.7642 80.9039 48.9403 80.7718 49.0909C80.6412 49.2401 80.4721 49.3565 80.2647 49.4403C80.0588 49.5227 79.8208 49.5639 79.551 49.5639ZM82.3453 46.2273L82.9462 47.3714L83.562 46.2273H84.4931L83.5449 47.8636L84.5186 49.5H83.5918L82.9462 48.3686L82.3113 49.5H81.3738L82.3453 47.8636L81.4078 46.2273H82.3453ZM86.7729 46.2273V46.9091H84.802V46.2273H86.7729ZM85.2495 45.4432H86.1571V48.4943C86.1571 48.5781 86.1699 48.6435 86.1955 48.6903C86.2211 48.7358 86.2566 48.7678 86.302 48.7862C86.3489 48.8047 86.4029 48.8139 86.464 48.8139C86.5066 48.8139 86.5492 48.8104 86.5918 48.8033C86.6344 48.7947 86.6671 48.7884 86.6898 48.7841L86.8326 49.4595C86.7871 49.4737 86.7232 49.4901 86.6408 49.5085C86.5584 49.5284 86.4583 49.5405 86.3404 49.5447C86.1216 49.5533 85.9299 49.5241 85.7651 49.4574C85.6017 49.3906 85.4746 49.2869 85.3837 49.1463C85.2928 49.0057 85.248 48.8281 85.2495 48.6136V45.4432ZM87.8947 49.5554C87.7541 49.5554 87.6333 49.5057 87.5325 49.4062C87.4331 49.3054 87.3833 49.1847 87.3833 49.044C87.3833 48.9048 87.4331 48.7855 87.5325 48.6861C87.6333 48.5866 87.7541 48.5369 87.8947 48.5369C88.0311 48.5369 88.1504 48.5866 88.2527 48.6861C88.3549 48.7855 88.4061 48.9048 88.4061 49.044C88.4061 49.1378 88.3819 49.2237 88.3336 49.3018C88.2868 49.3786 88.225 49.4403 88.1483 49.4872C88.0716 49.5327 87.987 49.5554 87.8947 49.5554ZM89.1513 46.2273H90.0589V49.6619C90.0589 49.9148 90.0092 50.1193 89.9098 50.2756C89.8104 50.4318 89.6676 50.5462 89.4815 50.6186C89.2969 50.6911 89.076 50.7273 88.8189 50.7273C88.7876 50.7273 88.7578 50.7266 88.7294 50.7251C88.6996 50.7251 88.6683 50.7244 88.6357 50.723V50.0135C88.6598 50.0149 88.6811 50.0156 88.6996 50.0156C88.7166 50.017 88.7351 50.0178 88.755 50.0178C88.9013 50.0178 89.0036 49.9865 89.0618 49.924C89.1214 49.8629 89.1513 49.7706 89.1513 49.647V46.2273ZM89.603 45.8054C89.4695 45.8054 89.3544 45.7607 89.2578 45.6712C89.1612 45.5803 89.1129 45.4716 89.1129 45.3452C89.1129 45.2202 89.1612 45.1129 89.2578 45.0234C89.3544 44.9325 89.4695 44.8871 89.603 44.8871C89.7393 44.8871 89.8551 44.9325 89.9503 45.0234C90.0469 45.1129 90.0952 45.2202 90.0952 45.3452C90.0952 45.4716 90.0469 45.5803 89.9503 45.6712C89.8551 45.7607 89.7393 45.8054 89.603 45.8054ZM93.5091 47.1605L92.6781 47.2116C92.6639 47.1406 92.6333 47.0767 92.5865 47.0199C92.5396 46.9616 92.4778 46.9155 92.4011 46.8814C92.3258 46.8459 92.2356 46.8281 92.1305 46.8281C91.9899 46.8281 91.8713 46.858 91.7747 46.9176C91.6781 46.9759 91.6298 47.054 91.6298 47.152C91.6298 47.2301 91.661 47.2962 91.7235 47.3501C91.786 47.4041 91.8933 47.4474 92.0453 47.4801L92.6376 47.5994C92.9558 47.6648 93.193 47.7699 93.3493 47.9148C93.5055 48.0597 93.5836 48.25 93.5836 48.4858C93.5836 48.7003 93.5204 48.8885 93.394 49.0504C93.269 49.2124 93.0971 49.3388 92.8784 49.4297C92.661 49.5192 92.4103 49.5639 92.1262 49.5639C91.693 49.5639 91.3478 49.4737 91.0907 49.2933C90.835 49.1115 90.6852 48.8643 90.6412 48.5518L91.5339 48.505C91.5609 48.6371 91.6262 48.7379 91.7299 48.8075C91.8336 48.8757 91.9664 48.9098 92.1284 48.9098C92.2875 48.9098 92.4153 48.8793 92.5119 48.8182C92.6099 48.7557 92.6596 48.6754 92.661 48.5774C92.6596 48.495 92.6248 48.4276 92.5566 48.375C92.4885 48.321 92.3833 48.2798 92.2413 48.2514L91.6745 48.1385C91.3549 48.0746 91.117 47.9638 90.9608 47.8061C90.8059 47.6484 90.7285 47.4474 90.7285 47.2031C90.7285 46.9929 90.7853 46.8118 90.899 46.6598C91.014 46.5078 91.1752 46.3906 91.3826 46.3082C91.5914 46.2259 91.8358 46.1847 92.1156 46.1847C92.5289 46.1847 92.8542 46.272 93.0914 46.4467C93.3301 46.6214 93.4693 46.8594 93.5091 47.1605Z" fill="white"/>
<path d="M107.516 49.5L108.232 45.1364H108.913L108.197 49.5H107.516ZM105.562 48.4176L105.675 47.7358H109.084L108.971 48.4176H105.562ZM105.982 49.5L106.697 45.1364H107.379L106.663 49.5H105.982ZM105.811 46.9006L105.926 46.2188H109.335L109.22 46.9006H105.811ZM105.713 52.897V52.1364H109.297V52.897H107.961V56.5H107.049V52.897H105.713ZM110.055 57.7273C109.94 57.7273 109.832 57.718 109.732 57.6996C109.632 57.6825 109.55 57.6605 109.484 57.6335L109.689 56.956C109.795 56.9886 109.891 57.0064 109.977 57.0092C110.063 57.0121 110.138 56.9922 110.2 56.9496C110.264 56.907 110.316 56.8345 110.356 56.7322L110.409 56.5938L109.235 53.2273H110.19L110.867 55.6307H110.901L111.585 53.2273H112.546L111.274 56.8537C111.213 57.0298 111.13 57.1832 111.025 57.3139C110.921 57.446 110.79 57.5476 110.631 57.6186C110.472 57.6911 110.28 57.7273 110.055 57.7273ZM113.011 57.7273V53.2273H113.906V53.777H113.946C113.986 53.6889 114.043 53.5994 114.119 53.5085C114.195 53.4162 114.295 53.3395 114.417 53.2784C114.54 53.2159 114.694 53.1847 114.877 53.1847C115.116 53.1847 115.336 53.2472 115.538 53.3722C115.739 53.4957 115.901 53.6825 116.021 53.9325C116.142 54.1811 116.202 54.4929 116.202 54.8679C116.202 55.233 116.143 55.5412 116.026 55.7926C115.909 56.0426 115.75 56.2322 115.548 56.3615C115.348 56.4893 115.124 56.5533 114.875 56.5533C114.699 56.5533 114.549 56.5241 114.425 56.4659C114.303 56.4077 114.203 56.3345 114.125 56.2464C114.047 56.157 113.987 56.0668 113.946 55.9759H113.918V57.7273H113.011ZM113.899 54.8636C113.899 55.0582 113.926 55.228 113.98 55.3729C114.034 55.5178 114.112 55.6307 114.214 55.7116C114.317 55.7912 114.441 55.831 114.587 55.831C114.735 55.831 114.86 55.7905 114.962 55.7095C115.065 55.6271 115.142 55.5135 115.195 55.3686C115.249 55.2223 115.276 55.054 115.276 54.8636C115.276 54.6747 115.249 54.5085 115.197 54.3651C115.144 54.2216 115.067 54.1094 114.964 54.0284C114.862 53.9474 114.737 53.907 114.587 53.907C114.44 53.907 114.315 53.946 114.212 54.0241C114.112 54.1023 114.034 54.2131 113.98 54.3565C113.926 54.5 113.899 54.669 113.899 54.8636ZM118.299 56.5639C117.962 56.5639 117.673 56.4957 117.43 56.3594C117.188 56.2216 117.002 56.027 116.871 55.7756C116.741 55.5227 116.675 55.2237 116.675 54.8786C116.675 54.5419 116.741 54.2464 116.871 53.9922C117.002 53.7379 117.186 53.5398 117.423 53.3977C117.662 53.2557 117.942 53.1847 118.263 53.1847C118.479 53.1847 118.68 53.2195 118.866 53.2891C119.053 53.3572 119.217 53.4602 119.356 53.598C119.496 53.7358 119.606 53.9091 119.684 54.1179C119.762 54.3253 119.801 54.5682 119.801 54.8466V55.0959H117.038V54.5334H118.947C118.947 54.4027 118.918 54.2869 118.862 54.1861C118.805 54.0852 118.726 54.0064 118.625 53.9496C118.526 53.8913 118.41 53.8622 118.278 53.8622C118.14 53.8622 118.018 53.8942 117.911 53.9581C117.806 54.0206 117.724 54.1051 117.664 54.2116C117.604 54.3168 117.574 54.4339 117.572 54.5632V55.098C117.572 55.2599 117.602 55.3999 117.662 55.5178C117.723 55.6357 117.809 55.7266 117.92 55.7905C118.031 55.8544 118.162 55.8864 118.314 55.8864C118.415 55.8864 118.507 55.8722 118.591 55.8438C118.675 55.8153 118.746 55.7727 118.806 55.7159C118.866 55.6591 118.911 55.5895 118.942 55.5071L119.782 55.5625C119.739 55.7642 119.652 55.9403 119.52 56.0909C119.389 56.2401 119.22 56.3565 119.013 56.4403C118.807 56.5227 118.569 56.5639 118.299 56.5639ZM123.116 54.1605L122.286 54.2116C122.271 54.1406 122.241 54.0767 122.194 54.0199C122.147 53.9616 122.085 53.9155 122.009 53.8814C121.933 53.8459 121.843 53.8281 121.738 53.8281C121.597 53.8281 121.479 53.858 121.382 53.9176C121.286 53.9759 121.237 54.054 121.237 54.152C121.237 54.2301 121.268 54.2962 121.331 54.3501C121.393 54.4041 121.501 54.4474 121.653 54.4801L122.245 54.5994C122.563 54.6648 122.8 54.7699 122.957 54.9148C123.113 55.0597 123.191 55.25 123.191 55.4858C123.191 55.7003 123.128 55.8885 123.001 56.0504C122.876 56.2124 122.705 56.3388 122.486 56.4297C122.268 56.5192 122.018 56.5639 121.734 56.5639C121.3 56.5639 120.955 56.4737 120.698 56.2933C120.442 56.1115 120.293 55.8643 120.249 55.5518L121.141 55.505C121.168 55.6371 121.234 55.7379 121.337 55.8075C121.441 55.8757 121.574 55.9098 121.736 55.9098C121.895 55.9098 122.023 55.8793 122.119 55.8182C122.217 55.7557 122.267 55.6754 122.268 55.5774C122.267 55.495 122.232 55.4276 122.164 55.375C122.096 55.321 121.991 55.2798 121.849 55.2514L121.282 55.1385C120.962 55.0746 120.724 54.9638 120.568 54.8061C120.413 54.6484 120.336 54.4474 120.336 54.2031C120.336 53.9929 120.393 53.8118 120.506 53.6598C120.621 53.5078 120.783 53.3906 120.99 53.3082C121.199 53.2259 121.443 53.1847 121.723 53.1847C122.136 53.1847 122.462 53.272 122.699 53.4467C122.938 53.6214 123.077 53.8594 123.116 54.1605ZM125.241 56.5639C124.906 56.5639 124.618 56.4929 124.376 56.3509C124.136 56.2074 123.952 56.0085 123.822 55.7543C123.694 55.5 123.631 55.2074 123.631 54.8764C123.631 54.5412 123.695 54.2472 123.824 53.9943C123.955 53.7401 124.14 53.5419 124.381 53.3999C124.621 53.2564 124.906 53.1847 125.237 53.1847C125.523 53.1847 125.773 53.2365 125.987 53.3402C126.202 53.4439 126.371 53.5895 126.496 53.777C126.621 53.9645 126.69 54.1847 126.703 54.4375H125.846C125.822 54.2741 125.758 54.1428 125.655 54.0433C125.552 53.9425 125.418 53.892 125.252 53.892C125.111 53.892 124.988 53.9304 124.883 54.0071C124.78 54.0824 124.699 54.1925 124.64 54.3374C124.582 54.4822 124.553 54.6577 124.553 54.8636C124.553 55.0724 124.581 55.25 124.638 55.3963C124.697 55.5426 124.778 55.6541 124.883 55.7308C124.988 55.8075 125.111 55.8459 125.252 55.8459C125.356 55.8459 125.449 55.8246 125.531 55.782C125.615 55.7393 125.684 55.6776 125.738 55.5966C125.793 55.5142 125.829 55.4155 125.846 55.3004H126.703C126.689 55.5504 126.621 55.7706 126.498 55.9609C126.378 56.1499 126.211 56.2976 125.998 56.4041C125.785 56.5107 125.532 56.5639 125.241 56.5639ZM127.284 56.5V53.2273H128.164V53.7983H128.198C128.258 53.5952 128.358 53.4418 128.499 53.3381C128.639 53.233 128.801 53.1804 128.984 53.1804C129.03 53.1804 129.079 53.1832 129.131 53.1889C129.184 53.1946 129.23 53.2024 129.27 53.2124V54.0178C129.227 54.005 129.168 53.9936 129.093 53.9837C129.018 53.9737 128.949 53.9688 128.886 53.9688C128.753 53.9688 128.634 53.9979 128.528 54.0561C128.425 54.1129 128.342 54.1925 128.281 54.2947C128.222 54.397 128.192 54.5149 128.192 54.6484V56.5H127.284ZM129.739 56.5V53.2273H130.647V56.5H129.739ZM130.195 52.8054C130.06 52.8054 129.944 52.7607 129.848 52.6712C129.753 52.5803 129.705 52.4716 129.705 52.3452C129.705 52.2202 129.753 52.1129 129.848 52.0234C129.944 51.9325 130.06 51.8871 130.195 51.8871C130.33 51.8871 130.445 51.9325 130.54 52.0234C130.637 52.1129 130.685 52.2202 130.685 52.3452C130.685 52.4716 130.637 52.5803 130.54 52.6712C130.445 52.7607 130.33 52.8054 130.195 52.8054ZM131.374 57.7273V53.2273H132.269V53.777H132.309C132.349 53.6889 132.407 53.5994 132.482 53.5085C132.559 53.4162 132.658 53.3395 132.78 53.2784C132.904 53.2159 133.057 53.1847 133.24 53.1847C133.479 53.1847 133.699 53.2472 133.901 53.3722C134.103 53.4957 134.264 53.6825 134.385 53.9325C134.505 54.1811 134.566 54.4929 134.566 54.8679C134.566 55.233 134.507 55.5412 134.389 55.7926C134.272 56.0426 134.113 56.2322 133.912 56.3615C133.711 56.4893 133.487 56.5533 133.238 56.5533C133.062 56.5533 132.912 56.5241 132.789 56.4659C132.667 56.4077 132.566 56.3345 132.488 56.2464C132.41 56.157 132.35 56.0668 132.309 55.9759H132.282V57.7273H131.374ZM132.262 54.8636C132.262 55.0582 132.289 55.228 132.343 55.3729C132.397 55.5178 132.475 55.6307 132.578 55.7116C132.68 55.7912 132.804 55.831 132.951 55.831C133.098 55.831 133.223 55.7905 133.326 55.7095C133.428 55.6271 133.505 55.5135 133.558 55.3686C133.612 55.2223 133.639 55.054 133.639 54.8636C133.639 54.6747 133.613 54.5085 133.56 54.3651C133.507 54.2216 133.43 54.1094 133.328 54.0284C133.225 53.9474 133.1 53.907 132.951 53.907C132.803 53.907 132.678 53.946 132.576 54.0241C132.475 54.1023 132.397 54.2131 132.343 54.3565C132.289 54.5 132.262 54.669 132.262 54.8636ZM136.912 53.2273V53.9091H134.941V53.2273H136.912ZM135.388 52.4432H136.296V55.4943C136.296 55.5781 136.309 55.6435 136.334 55.6903C136.36 55.7358 136.395 55.7678 136.441 55.7862C136.488 55.8047 136.542 55.8139 136.603 55.8139C136.645 55.8139 136.688 55.8104 136.73 55.8033C136.773 55.7947 136.806 55.7884 136.828 55.7841L136.971 56.4595C136.926 56.4737 136.862 56.4901 136.779 56.5085C136.697 56.5284 136.597 56.5405 136.479 56.5447C136.26 56.5533 136.069 56.5241 135.904 56.4574C135.74 56.3906 135.613 56.2869 135.522 56.1463C135.431 56.0057 135.387 55.8281 135.388 55.6136V52.4432Z" fill="white"/>
<rect x="154.75" y="41.25" width="39.5" height="12" rx="2.25" fill="#092AD0" fill-opacity="0.56" stroke="#092AD0" stroke-width="0.5"/>
<rect x="102.75" y="41.25" width="47" height="12" rx="2.25" fill="#092AD0" fill-opacity="0.56" stroke="#092AD0" stroke-width="0.5"/>
<path d="M109.516 49.5L110.232 45.1364H110.913L110.197 49.5H109.516ZM107.562 48.4176L107.675 47.7358H111.084L110.971 48.4176H107.562ZM107.982 49.5L108.697 45.1364H109.379L108.663 49.5H107.982ZM107.811 46.9006L107.926 46.2188H111.335L111.22 46.9006H107.811ZM112.998 45.897V45.1364H116.582V45.897H115.246V49.5H114.334V45.897H112.998ZM117.341 50.7273C117.225 50.7273 117.118 50.718 117.017 50.6996C116.917 50.6825 116.835 50.6605 116.77 50.6335L116.974 49.956C117.081 49.9886 117.176 50.0064 117.262 50.0092C117.348 50.0121 117.423 49.9922 117.485 49.9496C117.549 49.907 117.601 49.8345 117.641 49.7322L117.694 49.5938L116.52 46.2273H117.475L118.152 48.6307H118.186L118.87 46.2273H119.831L118.559 49.8537C118.498 50.0298 118.415 50.1832 118.31 50.3139C118.206 50.446 118.075 50.5476 117.916 50.6186C117.757 50.6911 117.565 50.7273 117.341 50.7273ZM120.296 50.7273V46.2273H121.191V46.777H121.231C121.271 46.6889 121.328 46.5994 121.404 46.5085C121.48 46.4162 121.58 46.3395 121.702 46.2784C121.826 46.2159 121.979 46.1847 122.162 46.1847C122.401 46.1847 122.621 46.2472 122.823 46.3722C123.025 46.4957 123.186 46.6825 123.306 46.9325C123.427 47.1811 123.488 47.4929 123.488 47.8679C123.488 48.233 123.429 48.5412 123.311 48.7926C123.194 49.0426 123.035 49.2322 122.833 49.3615C122.633 49.4893 122.409 49.5533 122.16 49.5533C121.984 49.5533 121.834 49.5241 121.711 49.4659C121.588 49.4077 121.488 49.3345 121.41 49.2464C121.332 49.157 121.272 49.0668 121.231 48.9759H121.203V50.7273H120.296ZM121.184 47.8636C121.184 48.0582 121.211 48.228 121.265 48.3729C121.319 48.5178 121.397 48.6307 121.5 48.7116C121.602 48.7912 121.726 48.831 121.873 48.831C122.02 48.831 122.145 48.7905 122.248 48.7095C122.35 48.6271 122.427 48.5135 122.48 48.3686C122.534 48.2223 122.561 48.054 122.561 47.8636C122.561 47.6747 122.534 47.5085 122.482 47.3651C122.429 47.2216 122.352 47.1094 122.25 47.0284C122.147 46.9474 122.022 46.907 121.873 46.907C121.725 46.907 121.6 46.946 121.498 47.0241C121.397 47.1023 121.319 47.2131 121.265 47.3565C121.211 47.5 121.184 47.669 121.184 47.8636ZM125.584 49.5639C125.248 49.5639 124.958 49.4957 124.715 49.3594C124.473 49.2216 124.287 49.027 124.157 48.7756C124.026 48.5227 123.961 48.2237 123.961 47.8786C123.961 47.5419 124.026 47.2464 124.157 46.9922C124.287 46.7379 124.471 46.5398 124.708 46.3977C124.947 46.2557 125.227 46.1847 125.548 46.1847C125.764 46.1847 125.965 46.2195 126.151 46.2891C126.338 46.3572 126.502 46.4602 126.641 46.598C126.782 46.7358 126.891 46.9091 126.969 47.1179C127.047 47.3253 127.086 47.5682 127.086 47.8466V48.0959H124.323V47.5334H126.232C126.232 47.4027 126.203 47.2869 126.147 47.1861C126.09 47.0852 126.011 47.0064 125.91 46.9496C125.811 46.8913 125.695 46.8622 125.563 46.8622C125.425 46.8622 125.303 46.8942 125.196 46.9581C125.091 47.0206 125.009 47.1051 124.949 47.2116C124.89 47.3168 124.859 47.4339 124.858 47.5632V48.098C124.858 48.2599 124.887 48.3999 124.947 48.5178C125.008 48.6357 125.094 48.7266 125.205 48.7905C125.316 48.8544 125.447 48.8864 125.599 48.8864C125.7 48.8864 125.792 48.8722 125.876 48.8438C125.96 48.8153 126.032 48.7727 126.091 48.7159C126.151 48.6591 126.196 48.5895 126.228 48.5071L127.067 48.5625C127.025 48.7642 126.937 48.9403 126.805 49.0909C126.674 49.2401 126.505 49.3565 126.298 49.4403C126.092 49.5227 125.854 49.5639 125.584 49.5639ZM130.402 47.1605L129.571 47.2116C129.556 47.1406 129.526 47.0767 129.479 47.0199C129.432 46.9616 129.37 46.9155 129.294 46.8814C129.218 46.8459 129.128 46.8281 129.023 46.8281C128.882 46.8281 128.764 46.858 128.667 46.9176C128.571 46.9759 128.522 47.054 128.522 47.152C128.522 47.2301 128.554 47.2962 128.616 47.3501C128.679 47.4041 128.786 47.4474 128.938 47.4801L129.53 47.5994C129.848 47.6648 130.086 47.7699 130.242 47.9148C130.398 48.0597 130.476 48.25 130.476 48.4858C130.476 48.7003 130.413 48.8885 130.287 49.0504C130.162 49.2124 129.99 49.3388 129.771 49.4297C129.554 49.5192 129.303 49.5639 129.019 49.5639C128.586 49.5639 128.24 49.4737 127.983 49.2933C127.728 49.1115 127.578 48.8643 127.534 48.5518L128.426 48.505C128.453 48.6371 128.519 48.7379 128.623 48.8075C128.726 48.8757 128.859 48.9098 129.021 48.9098C129.18 48.9098 129.308 48.8793 129.404 48.8182C129.502 48.7557 129.552 48.6754 129.554 48.5774C129.552 48.495 129.517 48.4276 129.449 48.375C129.381 48.321 129.276 48.2798 129.134 48.2514L128.567 48.1385C128.248 48.0746 128.01 47.9638 127.853 47.8061C127.699 47.6484 127.621 47.4474 127.621 47.2031C127.621 46.9929 127.678 46.8118 127.792 46.6598C127.907 46.5078 128.068 46.3906 128.275 46.3082C128.484 46.2259 128.728 46.1847 129.008 46.1847C129.422 46.1847 129.747 46.272 129.984 46.4467C130.223 46.6214 130.362 46.8594 130.402 47.1605ZM132.526 49.5639C132.191 49.5639 131.903 49.4929 131.661 49.3509C131.421 49.2074 131.237 49.0085 131.107 48.7543C130.98 48.5 130.916 48.2074 130.916 47.8764C130.916 47.5412 130.98 47.2472 131.11 46.9943C131.24 46.7401 131.426 46.5419 131.666 46.3999C131.906 46.2564 132.191 46.1847 132.522 46.1847C132.808 46.1847 133.058 46.2365 133.272 46.3402C133.487 46.4439 133.656 46.5895 133.781 46.777C133.906 46.9645 133.975 47.1847 133.988 47.4375H133.132C133.107 47.2741 133.044 47.1428 132.94 47.0433C132.838 46.9425 132.703 46.892 132.537 46.892C132.396 46.892 132.274 46.9304 132.169 47.0071C132.065 47.0824 131.984 47.1925 131.926 47.3374C131.867 47.4822 131.838 47.6577 131.838 47.8636C131.838 48.0724 131.867 48.25 131.923 48.3963C131.982 48.5426 132.063 48.6541 132.169 48.7308C132.274 48.8075 132.396 48.8459 132.537 48.8459C132.641 48.8459 132.734 48.8246 132.816 48.782C132.9 48.7393 132.969 48.6776 133.023 48.5966C133.078 48.5142 133.115 48.4155 133.132 48.3004H133.988C133.974 48.5504 133.906 48.7706 133.784 48.9609C133.663 49.1499 133.496 49.2976 133.283 49.4041C133.07 49.5107 132.818 49.5639 132.526 49.5639ZM134.569 49.5V46.2273H135.449V46.7983H135.483C135.543 46.5952 135.643 46.4418 135.784 46.3381C135.924 46.233 136.086 46.1804 136.27 46.1804C136.315 46.1804 136.364 46.1832 136.417 46.1889C136.469 46.1946 136.515 46.2024 136.555 46.2124V47.0178C136.512 47.005 136.453 46.9936 136.378 46.9837C136.303 46.9737 136.234 46.9688 136.172 46.9688C136.038 46.9688 135.919 46.9979 135.814 47.0561C135.71 47.1129 135.627 47.1925 135.566 47.2947C135.507 47.397 135.477 47.5149 135.477 47.6484V49.5H134.569ZM137.024 49.5V46.2273H137.932V49.5H137.024ZM137.48 45.8054C137.345 45.8054 137.23 45.7607 137.133 45.6712C137.038 45.5803 136.99 45.4716 136.99 45.3452C136.99 45.2202 137.038 45.1129 137.133 45.0234C137.23 44.9325 137.345 44.8871 137.48 44.8871C137.615 44.8871 137.73 44.9325 137.825 45.0234C137.922 45.1129 137.97 45.2202 137.97 45.3452C137.97 45.4716 137.922 45.5803 137.825 45.6712C137.73 45.7607 137.615 45.8054 137.48 45.8054ZM138.659 50.7273V46.2273H139.554V46.777H139.594C139.634 46.6889 139.692 46.5994 139.767 46.5085C139.844 46.4162 139.943 46.3395 140.065 46.2784C140.189 46.2159 140.342 46.1847 140.526 46.1847C140.764 46.1847 140.984 46.2472 141.186 46.3722C141.388 46.4957 141.549 46.6825 141.67 46.9325C141.79 47.1811 141.851 47.4929 141.851 47.8679C141.851 48.233 141.792 48.5412 141.674 48.7926C141.558 49.0426 141.398 49.2322 141.197 49.3615C140.996 49.4893 140.772 49.5533 140.523 49.5533C140.347 49.5533 140.197 49.5241 140.074 49.4659C139.952 49.4077 139.852 49.3345 139.773 49.2464C139.695 49.157 139.636 49.0668 139.594 48.9759H139.567V50.7273H138.659ZM139.548 47.8636C139.548 48.0582 139.575 48.228 139.629 48.3729C139.683 48.5178 139.761 48.6307 139.863 48.7116C139.965 48.7912 140.089 48.831 140.236 48.831C140.384 48.831 140.509 48.7905 140.611 48.7095C140.713 48.6271 140.79 48.5135 140.843 48.3686C140.897 48.2223 140.924 48.054 140.924 47.8636C140.924 47.6747 140.898 47.5085 140.845 47.3651C140.793 47.2216 140.715 47.1094 140.613 47.0284C140.511 46.9474 140.385 46.907 140.236 46.907C140.088 46.907 139.963 46.946 139.861 47.0241C139.76 47.1023 139.683 47.2131 139.629 47.3565C139.575 47.5 139.548 47.669 139.548 47.8636ZM144.197 46.2273V46.9091H142.226V46.2273H144.197ZM142.673 45.4432H143.581V48.4943C143.581 48.5781 143.594 48.6435 143.619 48.6903C143.645 48.7358 143.68 48.7678 143.726 48.7862C143.773 48.8047 143.827 48.8139 143.888 48.8139C143.93 48.8139 143.973 48.8104 144.016 48.8033C144.058 48.7947 144.091 48.7884 144.114 48.7841L144.256 49.4595C144.211 49.4737 144.147 49.4901 144.065 49.5085C143.982 49.5284 143.882 49.5405 143.764 49.5447C143.545 49.5533 143.354 49.5241 143.189 49.4574C143.026 49.3906 142.898 49.2869 142.808 49.1463C142.717 49.0057 142.672 48.8281 142.673 48.6136V45.4432Z" fill="white"/>
<path d="M160.016 50L160.732 45.6364H161.413L160.697 50H160.016ZM158.062 48.9176L158.175 48.2358H161.584L161.471 48.9176H158.062ZM158.482 50L159.197 45.6364H159.879L159.163 50H158.482ZM158.311 47.4006L158.426 46.7188H161.835L161.72 47.4006H158.311ZM167.515 47.1641H166.581C166.564 47.0433 166.529 46.9361 166.477 46.8423C166.424 46.7472 166.357 46.6662 166.275 46.5994C166.192 46.5327 166.097 46.4815 165.989 46.446C165.882 46.4105 165.767 46.3928 165.642 46.3928C165.416 46.3928 165.219 46.4489 165.051 46.5611C164.884 46.6719 164.754 46.8338 164.662 47.0469C164.569 47.2585 164.523 47.5156 164.523 47.8182C164.523 48.1293 164.569 48.3906 164.662 48.6023C164.755 48.8139 164.886 48.9737 165.054 49.0817C165.221 49.1896 165.415 49.2436 165.635 49.2436C165.759 49.2436 165.873 49.2273 165.978 49.1946C166.085 49.1619 166.179 49.1143 166.262 49.0518C166.344 48.9879 166.412 48.9105 166.466 48.8196C166.522 48.7287 166.56 48.625 166.581 48.5085L167.515 48.5128C167.49 48.7131 167.43 48.9062 167.333 49.0923C167.238 49.277 167.11 49.4425 166.948 49.5888C166.787 49.7337 166.596 49.8487 166.373 49.9339C166.151 50.0178 165.9 50.0597 165.62 50.0597C165.231 50.0597 164.883 49.9716 164.576 49.7955C164.271 49.6193 164.029 49.3643 163.852 49.0305C163.676 48.6967 163.588 48.2926 163.588 47.8182C163.588 47.3423 163.677 46.9375 163.856 46.6037C164.035 46.2699 164.278 46.0156 164.585 45.8409C164.892 45.6648 165.237 45.5767 165.62 45.5767C165.873 45.5767 166.108 45.6122 166.324 45.6832C166.541 45.7543 166.733 45.858 166.901 45.9943C167.069 46.1293 167.205 46.2947 167.31 46.4908C167.417 46.6868 167.485 46.9112 167.515 47.1641ZM169.067 48.108V50H168.159V45.6364H169.041V47.3047H169.08C169.153 47.1115 169.273 46.9602 169.438 46.8509C169.602 46.7401 169.809 46.6847 170.058 46.6847C170.285 46.6847 170.483 46.7344 170.652 46.8338C170.822 46.9318 170.955 47.0732 171.048 47.2578C171.143 47.4411 171.19 47.6605 171.189 47.9162V50H170.281V48.0781C170.283 47.8764 170.232 47.7195 170.128 47.6072C170.026 47.495 169.882 47.4389 169.697 47.4389C169.574 47.4389 169.464 47.4652 169.369 47.5178C169.276 47.5703 169.202 47.647 169.148 47.7479C169.095 47.8473 169.068 47.9673 169.067 48.108ZM172.836 50.0618C172.628 50.0618 172.442 50.0256 172.278 49.9531C172.115 49.8793 171.986 49.7706 171.89 49.6271C171.797 49.4822 171.75 49.3018 171.75 49.0859C171.75 48.9041 171.783 48.7514 171.85 48.6278C171.917 48.5043 172.008 48.4048 172.123 48.3295C172.238 48.2543 172.368 48.1974 172.515 48.1591C172.662 48.1207 172.817 48.0938 172.979 48.0781C173.17 48.0582 173.323 48.0398 173.439 48.0227C173.556 48.0043 173.64 47.9773 173.693 47.9418C173.746 47.9062 173.772 47.8537 173.772 47.7841V47.7713C173.772 47.6364 173.729 47.532 173.644 47.4581C173.56 47.3842 173.441 47.3473 173.286 47.3473C173.123 47.3473 172.993 47.3835 172.896 47.456C172.8 47.527 172.736 47.6165 172.704 47.7244L171.865 47.6562C171.907 47.4574 171.991 47.2855 172.116 47.1406C172.241 46.9943 172.403 46.8821 172.6 46.804C172.799 46.7244 173.029 46.6847 173.29 46.6847C173.472 46.6847 173.646 46.706 173.812 46.7486C173.98 46.7912 174.128 46.8572 174.258 46.9467C174.388 47.0362 174.491 47.1513 174.567 47.2919C174.642 47.4311 174.68 47.598 174.68 47.7926V50H173.819V49.5462H173.793C173.741 49.6484 173.67 49.7386 173.582 49.8168C173.494 49.8935 173.388 49.9538 173.265 49.9979C173.141 50.0405 172.998 50.0618 172.836 50.0618ZM173.096 49.4354C173.23 49.4354 173.348 49.4091 173.45 49.3565C173.552 49.3026 173.633 49.2301 173.691 49.1392C173.749 49.0483 173.778 48.9453 173.778 48.8303V48.483C173.75 48.5014 173.711 48.5185 173.661 48.5341C173.613 48.5483 173.558 48.5618 173.497 48.5746C173.436 48.5859 173.375 48.5966 173.314 48.6065C173.253 48.6151 173.197 48.6229 173.148 48.63C173.041 48.6456 172.948 48.6705 172.868 48.7045C172.789 48.7386 172.727 48.7848 172.683 48.843C172.639 48.8999 172.617 48.9709 172.617 49.0561C172.617 49.1797 172.662 49.2741 172.751 49.3395C172.842 49.4034 172.957 49.4354 173.096 49.4354ZM176.206 49.0582L176.208 47.9695H176.34L177.389 46.7273H178.431L177.022 48.3722H176.807L176.206 49.0582ZM175.384 50V45.6364H176.291V50H175.384ZM177.429 50L176.466 48.5746L177.071 47.9332L178.492 50H177.429ZM178.876 50V46.7273H179.756V47.2983H179.79C179.85 47.0952 179.95 46.9418 180.09 46.8381C180.231 46.733 180.393 46.6804 180.576 46.6804C180.622 46.6804 180.671 46.6832 180.723 46.6889C180.776 46.6946 180.822 46.7024 180.862 46.7124V47.5178C180.819 47.505 180.76 47.4936 180.685 47.4837C180.61 47.4737 180.541 47.4688 180.478 47.4688C180.345 47.4688 180.225 47.4979 180.12 47.5561C180.017 47.6129 179.934 47.6925 179.873 47.7947C179.813 47.897 179.784 48.0149 179.784 48.1484V50H178.876ZM182.17 50.0618C181.962 50.0618 181.776 50.0256 181.612 49.9531C181.449 49.8793 181.32 49.7706 181.224 49.6271C181.131 49.4822 181.084 49.3018 181.084 49.0859C181.084 48.9041 181.117 48.7514 181.184 48.6278C181.251 48.5043 181.342 48.4048 181.457 48.3295C181.572 48.2543 181.702 48.1974 181.849 48.1591C181.996 48.1207 182.151 48.0938 182.313 48.0781C182.504 48.0582 182.657 48.0398 182.773 48.0227C182.89 48.0043 182.974 47.9773 183.027 47.9418C183.08 47.9062 183.106 47.8537 183.106 47.7841V47.7713C183.106 47.6364 183.063 47.532 182.978 47.4581C182.894 47.3842 182.775 47.3473 182.62 47.3473C182.457 47.3473 182.327 47.3835 182.23 47.456C182.134 47.527 182.07 47.6165 182.038 47.7244L181.199 47.6562C181.241 47.4574 181.325 47.2855 181.45 47.1406C181.575 46.9943 181.737 46.8821 181.934 46.804C182.133 46.7244 182.363 46.6847 182.624 46.6847C182.806 46.6847 182.98 46.706 183.146 46.7486C183.314 46.7912 183.462 46.8572 183.592 46.9467C183.722 47.0362 183.825 47.1513 183.901 47.2919C183.976 47.4311 184.013 47.598 184.013 47.7926V50H183.153V49.5462H183.127C183.075 49.6484 183.004 49.7386 182.916 49.8168C182.828 49.8935 182.722 49.9538 182.599 49.9979C182.475 50.0405 182.332 50.0618 182.17 50.0618ZM182.43 49.4354C182.564 49.4354 182.682 49.4091 182.784 49.3565C182.886 49.3026 182.967 49.2301 183.025 49.1392C183.083 49.0483 183.112 48.9453 183.112 48.8303V48.483C183.084 48.5014 183.045 48.5185 182.995 48.5341C182.947 48.5483 182.892 48.5618 182.831 48.5746C182.77 48.5859 182.709 48.5966 182.648 48.6065C182.587 48.6151 182.531 48.6229 182.482 48.63C182.375 48.6456 182.282 48.6705 182.202 48.7045C182.123 48.7386 182.061 48.7848 182.017 48.843C181.973 48.8999 181.951 48.9709 181.951 49.0561C181.951 49.1797 181.996 49.2741 182.085 49.3395C182.176 49.4034 182.291 49.4354 182.43 49.4354ZM187.43 45.6364H188.353V48.4702C188.353 48.7884 188.277 49.0668 188.125 49.3054C187.974 49.544 187.763 49.7301 187.492 49.8636C187.221 49.9957 186.904 50.0618 186.544 50.0618C186.181 50.0618 185.865 49.9957 185.593 49.8636C185.322 49.7301 185.111 49.544 184.961 49.3054C184.81 49.0668 184.735 48.7884 184.735 48.4702V45.6364H185.657V48.3913C185.657 48.5575 185.694 48.7053 185.766 48.8345C185.84 48.9638 185.944 49.0653 186.077 49.1392C186.211 49.2131 186.366 49.25 186.544 49.25C186.723 49.25 186.878 49.2131 187.01 49.1392C187.144 49.0653 187.247 48.9638 187.319 48.8345C187.393 48.7053 187.43 48.5575 187.43 48.3913V45.6364ZM190.034 45.6364V50H189.112V45.6364H190.034Z" fill="white"/>
</svg>
