<svg width="37" height="30" viewBox="0 0 37 30" fill="none" xmlns="http://www.w3.org/2000/svg">
<path d="M33.1968 7.47654C33.2203 7.80464 33.2203 8.13283 33.2203 8.46093C33.2203 18.4687 25.5902 30 11.6447 30C7.34836 30 3.35726 28.7578 0 26.6016C0.61043 26.6719 1.1973 26.6953 1.83122 26.6953C5.37622 26.6953 8.63961 25.5 11.2456 23.461C7.91182 23.3906 5.11802 21.211 4.15543 18.2109C4.62502 18.2812 5.09453 18.3281 5.5876 18.3281C6.26842 18.3281 6.94931 18.2343 7.58315 18.0703C4.10853 17.3671 1.50248 14.3203 1.50248 10.6406V10.5469C2.51196 11.1094 3.68592 11.461 4.93012 11.5078C2.8876 10.1484 1.54945 7.82809 1.54945 5.20307C1.54945 3.79685 1.92502 2.50779 2.58242 1.38278C6.31532 5.97652 11.9264 8.97647 18.2182 9.30466C18.1009 8.74215 18.0304 8.15627 18.0304 7.57032C18.0304 3.3984 21.4112 0 25.6136 0C27.7969 0 29.769 0.91406 31.1542 2.39062C32.868 2.06252 34.5114 1.42967 35.967 0.562504C35.4035 2.32036 34.2062 3.79692 32.6333 4.73435C34.1593 4.57037 35.6384 4.1484 37 3.56253C35.9672 5.06246 34.6759 6.39835 33.1968 7.47654Z" fill="black"/>
</svg>
