<svg width="145" height="26" viewBox="0 0 145 26" fill="none" xmlns="http://www.w3.org/2000/svg">
<path d="M68.66 25V0.989998H80.7C82.4733 0.989998 83.9317 1.305 85.075 1.935C86.2417 2.565 87.1167 3.45167 87.7 4.595C88.2833 5.73833 88.575 7.10333 88.575 8.69C88.575 10.2533 88.2717 11.6183 87.665 12.785C87.0583 13.9517 86.1483 14.8617 84.935 15.515C83.745 16.145 82.2517 16.46 80.455 16.46H73.21V25H68.66ZM73.21 12.575H80.315C81.4817 12.575 82.38 12.2367 83.01 11.56C83.6633 10.86 83.99 9.90333 83.99 8.69C83.99 7.87333 83.85 7.185 83.57 6.625C83.29 6.065 82.8817 5.63333 82.345 5.33C81.8083 5.02667 81.1317 4.875 80.315 4.875H73.21V12.575ZM99.5705 25.42C97.5638 25.42 95.8838 25.0817 94.5305 24.405C93.1771 23.705 92.1621 22.6433 91.4855 21.22C90.8088 19.7967 90.4705 17.9883 90.4705 15.795C90.4705 13.5783 90.8088 11.77 91.4855 10.37C92.1621 8.94667 93.1771 7.89667 94.5305 7.22C95.8838 6.52 97.5638 6.17 99.5705 6.17C101.6 6.17 103.28 6.52 104.61 7.22C105.964 7.89667 106.979 8.94667 107.655 10.37C108.332 11.77 108.67 13.5783 108.67 15.795C108.67 17.9883 108.332 19.7967 107.655 21.22C106.979 22.6433 105.964 23.705 104.61 24.405C103.28 25.0817 101.6 25.42 99.5705 25.42ZM99.5705 21.92C100.69 21.92 101.589 21.71 102.265 21.29C102.965 20.8467 103.467 20.1933 103.77 19.33C104.097 18.4433 104.26 17.3467 104.26 16.04V15.55C104.26 14.2433 104.097 13.1583 103.77 12.295C103.467 11.4083 102.965 10.755 102.265 10.335C101.589 9.89167 100.69 9.67 99.5705 9.67C98.4505 9.67 97.5405 9.89167 96.8405 10.335C96.1638 10.755 95.6621 11.4083 95.3355 12.295C95.0321 13.1583 94.8805 14.2433 94.8805 15.55V16.04C94.8805 17.3467 95.0321 18.4433 95.3355 19.33C95.6621 20.1933 96.1638 20.8467 96.8405 21.29C97.5405 21.71 98.4505 21.92 99.5705 21.92ZM112.298 25V6.59H115.868L116.218 9.495H116.463C116.697 8.91167 116.977 8.375 117.303 7.885C117.653 7.37167 118.097 6.96333 118.633 6.66C119.17 6.33333 119.823 6.17 120.593 6.17C120.967 6.17 121.305 6.205 121.608 6.275C121.935 6.345 122.18 6.415 122.343 6.485V10.51H121.048C120.325 10.51 119.683 10.615 119.123 10.825C118.563 11.0117 118.085 11.315 117.688 11.735C117.315 12.155 117.035 12.68 116.848 13.31C116.662 13.94 116.568 14.675 116.568 15.515V25H112.298ZM129.844 25.42C128.701 25.42 127.802 25.1983 127.149 24.755C126.496 24.2883 126.029 23.705 125.749 23.005C125.492 22.2817 125.364 21.5467 125.364 20.8V10.09H123.159V6.59H125.469L126.239 1.445H129.634V6.59H132.819V10.09H129.634V20.38C129.634 20.87 129.762 21.255 130.019 21.535C130.276 21.7917 130.661 21.92 131.174 21.92H132.819V24.86C132.586 24.9533 132.294 25.035 131.944 25.105C131.617 25.1983 131.267 25.2683 130.894 25.315C130.521 25.385 130.171 25.42 129.844 25.42ZM140.85 25.42C139.707 25.42 138.808 25.1983 138.155 24.755C137.502 24.2883 137.035 23.705 136.755 23.005C136.498 22.2817 136.37 21.5467 136.37 20.8V10.09H134.165V6.59H136.475L137.245 1.445H140.64V6.59H143.825V10.09H140.64V20.38C140.64 20.87 140.768 21.255 141.025 21.535C141.282 21.7917 141.667 21.92 142.18 21.92H143.825V24.86C143.592 24.9533 143.3 25.035 142.95 25.105C142.623 25.1983 142.273 25.2683 141.9 25.315C141.527 25.385 141.177 25.42 140.85 25.42Z" fill="black"/>
<rect x="2" y="3" width="57.6667" height="21" rx="10.5" stroke="black" stroke-width="4"/>
<rect x="16.1284" y="11" width="28.4615" height="5" rx="2.5" fill="black"/>
</svg>
