<svg width="1005" height="522" viewBox="0 0 1005 522" fill="none" xmlns="http://www.w3.org/2000/svg">
<g filter="url(#filter0_d_572_100)">
<g clip-path="url(#clip0_572_100)">
<rect width="166.025" height="166.025" rx="10.1829" transform="matrix(0.866025 -0.500001 0.866025 0.500001 578.111 147.556)" fill="white"/>
<rect opacity="0.2" width="32.7625" height="32.7625" rx="16.3812" transform="matrix(0.866025 -0.500001 0.866025 0.500001 620.191 149.426)" fill="#C4C4C4"/>
<path d="M662.751 141.236C660.128 139.721 656.828 138.656 653.219 138.159C649.611 137.662 645.834 137.753 642.309 138.42C638.784 139.088 635.648 140.307 633.251 141.942C630.854 143.577 629.289 145.564 628.731 147.681C628.172 149.799 628.641 151.964 630.086 153.937C631.531 155.91 633.895 157.613 636.915 158.857C639.936 160.101 643.494 160.836 647.196 160.983C650.897 161.129 654.596 160.679 657.882 159.685L648.565 149.426L662.751 141.236Z" fill="#0EC5FF"/>
<rect opacity="0.2" width="32.7625" height="32.7625" rx="16.3812" transform="matrix(0.866025 -0.500001 0.866025 0.500001 660.068 172.448)" fill="#C4C4C4"/>
<path d="M685.23 183.882C689.614 184.293 694.11 183.852 698.013 182.628C701.916 181.405 705.006 179.469 706.798 177.123C708.59 174.777 708.984 172.154 707.916 169.665C706.849 167.176 704.382 164.962 700.901 163.369C697.42 161.777 693.122 160.896 688.681 160.866C684.24 160.835 679.907 161.656 676.362 163.2C672.816 164.744 670.257 166.923 669.087 169.397C667.917 171.87 668.202 174.498 669.897 176.868L688.441 172.448L685.23 183.882Z" fill="#0EC5FF"/>
<rect opacity="0.2" width="32.7625" height="32.7625" rx="16.3812" transform="matrix(0.866025 -0.500001 0.866025 0.500001 660.068 126.403)" fill="#C4C4C4"/>
<path d="M702.628 118.213C700.765 117.137 698.553 116.284 696.119 115.702C693.685 115.12 691.076 114.82 688.441 114.82C685.807 114.82 683.198 115.12 680.764 115.702C678.33 116.284 676.118 117.137 674.255 118.213L688.441 126.403L702.628 118.213Z" fill="#0EC5FF"/>
<rect opacity="0.2" width="32.7625" height="32.7625" rx="16.3812" transform="matrix(0.866025 -0.500001 0.866025 0.500001 699.943 149.426)" fill="#C4C4C4"/>
<path d="M747.475 145.988C746.137 143.503 743.388 141.35 739.672 139.877C735.955 138.404 731.488 137.696 726.99 137.868C722.492 138.04 718.225 139.082 714.878 140.826C711.53 142.569 709.298 144.912 708.539 147.478L728.316 149.426L747.475 145.988Z" fill="#0EC5FF"/>
<rect opacity="0.2" width="32.7625" height="32.7625" rx="16.3812" transform="matrix(0.866025 -0.500001 0.866025 0.500001 699.943 103.381)" fill="#C4C4C4"/>
<path d="M742.503 111.572C745.309 109.952 747.22 107.888 747.994 105.641C748.768 103.394 748.371 101.065 746.852 98.9486C745.334 96.832 742.762 95.023 739.463 93.7502C736.163 92.4774 732.285 91.798 728.316 91.798C724.348 91.798 720.469 92.4774 717.17 93.7502C713.871 95.023 711.299 96.832 709.781 98.9486C708.262 101.065 707.865 103.394 708.639 105.641C709.413 107.888 711.324 109.952 714.13 111.572L728.316 103.381L742.503 111.572Z" fill="#0EC5FF"/>
<rect opacity="0.2" width="32.7625" height="32.7625" rx="16.3812" transform="matrix(0.866025 -0.500001 0.866025 0.500001 739.818 126.403)" fill="#C4C4C4"/>
<path d="M754.005 134.594C757.166 136.419 761.293 137.582 765.73 137.899C770.167 138.216 774.66 137.668 778.496 136.342L768.191 126.403L754.005 134.594Z" fill="#0EC5FF"/>
<path d="M743.983 183.153C740.188 182.782 739.104 177.76 742.407 175.856L778.271 155.188C778.952 154.796 779.738 154.624 780.52 154.695V154.695C784.211 155.033 785.293 159.909 782.092 161.777L746.34 182.637C745.628 183.053 744.803 183.233 743.983 183.153V183.153Z" fill="#0EC5FF"/>
<path d="M759.135 183.704C757.932 182.877 757.999 181.079 759.261 180.346L763.744 177.74C764.392 177.363 765.198 177.392 765.817 177.813V177.813C766.992 178.611 766.945 180.358 765.728 181.092L761.287 183.768C760.619 184.17 759.777 184.145 759.135 183.704V183.704Z" fill="#0EC5FF"/>
<path d="M769.385 178.481C767.556 178.149 767.134 175.717 768.744 174.788L783.836 166.083C784.23 165.856 784.692 165.774 785.14 165.853V165.853C786.92 166.164 787.345 168.526 785.786 169.439L770.749 178.239C770.338 178.48 769.854 178.566 769.385 178.481V178.481Z" fill="#0EC5FF"/>
</g>
<g clip-path="url(#clip1_572_100)">
<rect width="209.925" height="209.925" rx="12.8754" transform="matrix(0.866025 -0.500001 0.866025 0.500001 604.299 339.292)" fill="white"/>
<path d="M750.321 272.91C752.573 271.598 755.375 271.465 757.304 272.578L777.118 284.013C780.252 285.821 779.763 289.918 776.152 292.108V292.108C773.83 293.516 770.888 293.673 768.887 292.494L749.218 280.911C746.135 279.095 746.697 275.022 750.321 272.91V272.91Z" fill="#356DEE" fill-opacity="0.43"/>
<path d="M777.419 270.411C779.719 268.754 782.876 268.443 785.016 269.662L793.815 274.675C796.747 276.345 796.574 280.071 793.457 282.373V282.373C791.102 284.113 787.819 284.438 785.629 283.149L776.934 278.029C774.071 276.343 774.306 272.654 777.419 270.411V270.411Z" fill="#356DEE" fill-opacity="0.43"/>
<path d="M799.076 264.054C801.373 262.226 804.702 261.812 806.95 263.075L810.582 265.116C813.428 266.715 813.395 270.27 810.512 272.605V272.605C808.166 274.505 804.721 274.922 802.443 273.581L798.872 271.478C796.109 269.851 796.205 266.338 799.076 264.054V264.054Z" fill="#356DEE" fill-opacity="0.43"/>
<path d="M809.693 310.126C811.98 308.578 815.022 308.326 817.093 309.512L829.159 316.422C832.145 318.131 831.883 321.962 828.625 324.233V324.233C826.279 325.868 823.106 326.139 820.977 324.886L809.031 317.851C806.108 316.13 806.434 312.333 809.693 310.126V310.126Z" fill="#356DEE" fill-opacity="0.43"/>
<path d="M812.089 291.483C814.288 290.337 816.908 290.279 818.732 291.335L844.301 306.142C847.537 308.016 846.874 312.299 843.024 314.404V314.404C840.747 315.65 837.982 315.732 836.081 314.612L810.666 299.646C807.475 297.766 808.219 293.499 812.089 291.483V291.483Z" fill="#356DEE" fill-opacity="0.43"/>
<path d="M842.776 291.053C845.064 289.485 848.127 289.222 850.21 290.414L861.663 296.967C864.638 298.669 864.393 302.479 861.163 304.756V304.756C858.816 306.41 855.624 306.691 853.484 305.431L842.148 298.756C839.237 297.042 839.545 293.266 842.776 291.053V291.053Z" fill="#356DEE" fill-opacity="0.43"/>
<path d="M855.72 336.665C857.938 335.446 860.634 335.354 862.502 336.434L885.342 349.641C888.523 351.48 887.947 355.669 884.218 357.811V357.811C881.925 359.129 879.087 359.244 877.144 358.1L854.454 344.738C851.32 342.893 851.974 338.724 855.72 336.665V336.665Z" fill="#356DEE" fill-opacity="0.43"/>
<path d="M886.22 336.459C888.51 334.795 891.668 334.477 893.808 335.695L902.203 340.473C905.119 342.133 904.96 345.836 901.875 348.135V348.135C899.53 349.881 896.248 350.213 894.059 348.924L885.765 344.041C882.919 342.365 883.139 338.7 886.22 336.459V336.459Z" fill="#356DEE" fill-opacity="0.43"/>
<path d="M893.528 320.739C895.784 319.363 898.646 319.197 900.61 320.328L918.107 330.407C921.189 332.182 920.773 336.191 917.277 338.403V338.403C914.953 339.873 911.955 340.061 909.922 338.864L892.564 328.643C889.536 326.86 890.022 322.876 893.528 320.739V320.739Z" fill="#356DEE" fill-opacity="0.43"/>
<path d="M661.7 346.553C657.905 346.182 656.82 341.16 660.124 339.256L695.988 318.588C696.669 318.196 697.455 318.023 698.237 318.095V318.095C701.928 318.433 703.01 323.309 699.809 325.177L664.056 346.037C663.345 346.453 662.52 346.633 661.7 346.553V346.553Z" fill="#356DEE" fill-opacity="0.43"/>
<path d="M669.616 351.583C668.164 350.897 668.079 348.862 669.469 348.057L677.288 343.531C677.836 343.213 678.506 343.183 679.081 343.45V343.45C680.498 344.109 680.597 346.086 679.253 346.884L671.484 351.495C670.915 351.833 670.215 351.866 669.616 351.583V351.583Z" fill="#356DEE" fill-opacity="0.43"/>
<path d="M684.891 343.455C682.786 343.58 681.948 340.781 683.776 339.73L710.668 324.254C710.925 324.105 711.213 324.018 711.51 323.999V323.999C713.554 323.867 714.38 326.583 712.608 327.611L685.775 343.188C685.505 343.345 685.202 343.436 684.891 343.455V343.455Z" fill="#356DEE" fill-opacity="0.43"/>
<path d="M714.054 379.663C710.452 379.025 709.61 374.237 712.779 372.41L742.71 355.148C743.478 354.704 744.378 354.543 745.253 354.693V354.693C748.758 355.29 749.606 359.939 746.537 361.735L716.716 379.186C715.913 379.656 714.969 379.825 714.054 379.663V379.663Z" fill="#356DEE" fill-opacity="0.43"/>
<path d="M729.952 381.152C727.788 381.423 726.817 378.526 728.708 377.438L760.936 358.901C761.156 358.774 761.4 358.691 761.653 358.659V358.659C763.753 358.386 764.707 361.197 762.874 362.259L730.705 380.898C730.474 381.033 730.217 381.119 729.952 381.152V381.152Z" fill="#356DEE" fill-opacity="0.43"/>
<path d="M764.99 413.955C762.101 412.634 761.908 408.603 764.657 407.011L780.566 397.804C781.628 397.189 782.922 397.123 784.042 397.626V397.626C786.86 398.894 787.08 402.811 784.423 404.387L768.613 413.762C767.51 414.416 766.156 414.488 764.99 413.955V413.955Z" fill="#356DEE" fill-opacity="0.43"/>
<path d="M791.896 398.858C788.204 398.339 787.255 393.444 790.484 391.582L822.984 372.846C823.712 372.426 824.559 372.259 825.393 372.371V372.371C828.985 372.853 829.937 377.605 826.808 379.434L794.419 398.361C793.658 398.806 792.769 398.981 791.896 398.858V398.858Z" fill="#356DEE" fill-opacity="0.43"/>
<path d="M782.948 415.04C780.858 415.133 780.049 412.357 781.863 411.313L807.721 396.43C807.987 396.277 808.285 396.19 808.592 396.174V396.174C810.622 396.073 811.42 398.767 809.662 399.788L783.862 414.772C783.583 414.933 783.27 415.025 782.948 415.04V415.04Z" fill="#356DEE" fill-opacity="0.43"/>
<path d="M813.798 396.082C812.475 395.315 812.475 393.405 813.798 392.638L819.805 389.154C820.405 388.806 821.145 388.804 821.747 389.148V389.148C823.038 389.887 823.056 391.743 821.779 392.506L815.818 396.069C815.197 396.44 814.424 396.445 813.798 396.082V396.082Z" fill="#356DEE" fill-opacity="0.43"/>
<g filter="url(#filter1_f_572_100)">
<path d="M748.634 277.25C750.886 275.938 753.687 275.805 755.617 276.919L775.431 288.353C778.564 290.161 778.075 294.259 774.465 296.448V296.448C772.142 297.857 769.201 298.013 767.2 296.835L747.53 285.251C744.448 283.436 745.01 279.362 748.634 277.25V277.25Z" fill="#356DEE" fill-opacity="0.43"/>
<path d="M775.732 274.751C778.031 273.095 781.189 272.784 783.329 274.003L792.128 279.015C795.06 280.685 794.887 284.411 791.77 286.713V286.713C789.414 288.453 786.131 288.778 783.942 287.489L775.247 282.369C772.384 280.683 772.618 276.994 775.732 274.751V274.751Z" fill="#356DEE" fill-opacity="0.43"/>
<path d="M797.389 268.394C799.685 266.566 803.015 266.152 805.263 267.415L808.894 269.456C811.74 271.055 811.707 274.61 808.825 276.945V276.945C806.479 278.846 803.034 279.263 800.756 277.921L797.184 275.819C794.421 274.192 794.518 270.679 797.389 268.394V268.394Z" fill="#356DEE" fill-opacity="0.43"/>
<path d="M808.006 314.467C810.292 312.919 813.335 312.666 815.406 313.852L827.472 320.762C830.457 322.472 830.196 326.302 826.938 328.573V328.573C824.591 330.209 821.419 330.48 819.29 329.226L807.344 322.192C804.421 320.47 804.746 316.673 808.006 314.467V314.467Z" fill="#356DEE" fill-opacity="0.43"/>
<path d="M810.402 295.823C812.6 294.678 815.22 294.62 817.044 295.676L842.614 310.482C845.849 312.356 845.187 316.639 841.336 318.745V318.745C839.059 319.99 836.295 320.073 834.393 318.953L808.979 303.986C805.787 302.107 806.531 297.84 810.402 295.823V295.823Z" fill="#356DEE" fill-opacity="0.43"/>
<path d="M841.088 295.393C843.377 293.826 846.439 293.562 848.522 294.754L859.976 301.308C862.95 303.009 862.706 306.819 859.476 309.096V309.096C857.128 310.75 853.936 311.031 851.797 309.771L840.461 303.096C837.55 301.382 837.858 297.606 841.088 295.393V295.393Z" fill="#356DEE" fill-opacity="0.43"/>
<path d="M854.032 341.005C856.25 339.786 858.946 339.695 860.814 340.775L883.655 353.981C886.836 355.82 886.259 360.009 882.531 362.151V362.151C880.238 363.469 877.4 363.585 875.456 362.44L852.767 349.079C849.633 347.233 850.286 343.064 854.032 341.005V341.005Z" fill="#356DEE" fill-opacity="0.43"/>
<path d="M884.533 340.8C886.822 339.135 889.98 338.817 892.121 340.035L900.515 344.814C903.431 346.474 903.273 350.176 900.187 352.475V352.475C897.843 354.222 894.56 354.553 892.371 353.264L884.078 348.381C881.231 346.705 881.451 343.04 884.533 340.8V340.8Z" fill="#356DEE" fill-opacity="0.43"/>
<path d="M891.84 325.079C894.097 323.703 896.958 323.537 898.923 324.669L916.42 334.747C919.501 336.522 919.085 340.532 915.59 342.743V342.743C913.266 344.213 910.267 344.401 908.235 343.205L890.876 332.983C887.849 331.2 888.334 327.217 891.84 325.079V325.079Z" fill="#356DEE" fill-opacity="0.43"/>
<path d="M660.012 350.893C656.217 350.522 655.133 345.5 658.437 343.596L694.301 322.928C694.982 322.536 695.767 322.364 696.55 322.435V322.435C700.24 322.774 701.322 327.649 698.121 329.517L662.369 350.378C661.657 350.793 660.832 350.973 660.012 350.893V350.893Z" fill="#356DEE" fill-opacity="0.43"/>
<path d="M667.929 355.924C666.476 355.237 666.391 353.202 667.781 352.398L675.6 347.871C676.149 347.553 676.818 347.523 677.393 347.791V347.791C678.81 348.45 678.91 350.427 677.566 351.224L669.797 355.835C669.227 356.173 668.527 356.206 667.929 355.924V355.924Z" fill="#356DEE" fill-opacity="0.43"/>
<path d="M683.203 347.795C681.098 347.92 680.261 345.122 682.088 344.07L708.98 328.594C709.238 328.446 709.526 328.359 709.822 328.339V328.339C711.867 328.207 712.692 330.923 710.921 331.951L684.087 347.529C683.818 347.685 683.515 347.777 683.203 347.795V347.795Z" fill="#356DEE" fill-opacity="0.43"/>
<path d="M712.366 384.003C708.764 383.366 707.923 378.578 711.091 376.75L741.022 359.488C741.791 359.045 742.69 358.884 743.565 359.033V359.033C747.071 359.63 747.918 364.28 744.849 366.076L715.028 383.526C714.226 383.996 713.282 384.165 712.366 384.003V384.003Z" fill="#356DEE" fill-opacity="0.43"/>
<path d="M728.264 385.493C726.101 385.763 725.13 382.866 727.02 381.779L759.248 363.241C759.469 363.114 759.712 363.032 759.965 362.999V362.999C762.065 362.726 763.019 365.537 761.187 366.599L729.018 385.239C728.786 385.373 728.53 385.459 728.264 385.493V385.493Z" fill="#356DEE" fill-opacity="0.43"/>
<path d="M763.303 418.296C760.414 416.974 760.22 412.943 762.97 411.352L778.878 402.144C779.941 401.529 781.235 401.463 782.354 401.967V401.967C785.172 403.234 785.393 407.151 782.735 408.727L766.925 418.103C765.822 418.757 764.469 418.829 763.303 418.296V418.296Z" fill="#356DEE" fill-opacity="0.43"/>
<path d="M790.208 403.199C786.517 402.679 785.567 397.785 788.797 395.923L821.296 377.186C822.025 376.766 822.872 376.599 823.705 376.711V376.711C827.297 377.193 828.249 381.946 825.12 383.774L792.732 402.701C791.97 403.146 791.081 403.321 790.208 403.199V403.199Z" fill="#356DEE" fill-opacity="0.43"/>
<path d="M781.26 419.38C779.17 419.473 778.362 416.697 780.175 415.654L806.033 400.771C806.299 400.618 806.598 400.53 806.904 400.515V400.515C808.934 400.414 809.732 403.107 807.974 404.128L782.175 419.112C781.896 419.274 781.582 419.366 781.26 419.38V419.38Z" fill="#356DEE" fill-opacity="0.43"/>
<path d="M812.11 400.422C810.788 399.656 810.787 397.745 812.11 396.978L818.117 393.494C818.717 393.146 819.457 393.144 820.059 393.488V393.488C821.351 394.227 821.368 396.083 820.091 396.847L814.13 400.409C813.509 400.78 812.736 400.785 812.11 400.422V400.422Z" fill="#356DEE" fill-opacity="0.43"/>
</g>
<path d="M749.634 269.25C751.886 267.938 754.687 267.805 756.617 268.919L776.431 280.353C779.564 282.161 779.075 286.259 775.465 288.448V288.448C773.142 289.857 770.201 290.013 768.2 288.835L748.53 277.251C745.448 275.436 746.01 271.362 749.634 269.25V269.25Z" fill="#356DEE" fill-opacity="0.76"/>
<path d="M776.732 266.751C779.031 265.095 782.189 264.784 784.329 266.003L793.128 271.015C796.06 272.685 795.887 276.411 792.77 278.713V278.713C790.414 280.453 787.131 280.778 784.942 279.489L776.247 274.369C773.384 272.683 773.618 268.994 776.732 266.751V266.751Z" fill="#356DEE" fill-opacity="0.76"/>
<path d="M798.389 260.394C800.685 258.566 804.015 258.152 806.263 259.415L809.894 261.456C812.74 263.055 812.707 266.61 809.825 268.945V268.945C807.479 270.846 804.034 271.263 801.756 269.921L798.184 267.819C795.421 266.192 795.518 262.679 798.389 260.394V260.394Z" fill="#356DEE" fill-opacity="0.76"/>
<path d="M809.006 306.467C811.292 304.919 814.335 304.666 816.406 305.852L828.472 312.762C831.457 314.472 831.196 318.302 827.938 320.573V320.573C825.591 322.209 822.419 322.48 820.29 321.226L808.344 314.192C805.421 312.47 805.746 308.673 809.006 306.467V306.467Z" fill="#356DEE" fill-opacity="0.76"/>
<path d="M811.402 287.823C813.6 286.678 816.22 286.62 818.044 287.676L843.614 302.482C846.849 304.356 846.187 308.639 842.336 310.745V310.745C840.059 311.99 837.295 312.073 835.393 310.953L809.979 295.986C806.787 294.107 807.531 289.84 811.402 287.823V287.823Z" fill="#356DEE" fill-opacity="0.76"/>
<path d="M842.088 287.393C844.377 285.826 847.439 285.562 849.522 286.754L860.976 293.308C863.95 295.009 863.706 298.819 860.476 301.096V301.096C858.128 302.75 854.936 303.031 852.797 301.771L841.461 295.096C838.55 293.382 838.858 289.606 842.088 287.393V287.393Z" fill="#356DEE" fill-opacity="0.76"/>
<path d="M855.032 333.005C857.25 331.786 859.946 331.695 861.814 332.775L884.655 345.981C887.836 347.82 887.259 352.009 883.531 354.151V354.151C881.238 355.469 878.4 355.585 876.456 354.44L853.767 341.079C850.633 339.233 851.286 335.064 855.032 333.005V333.005Z" fill="#356DEE" fill-opacity="0.76"/>
<path d="M885.533 332.8C887.822 331.135 890.98 330.817 893.121 332.035L901.515 336.814C904.431 338.474 904.273 342.176 901.187 344.475V344.475C898.843 346.222 895.56 346.553 893.371 345.264L885.078 340.381C882.231 338.705 882.451 335.04 885.533 332.8V332.8Z" fill="#356DEE" fill-opacity="0.76"/>
<path d="M892.84 317.079C895.097 315.703 897.958 315.537 899.923 316.669L917.42 326.747C920.501 328.522 920.085 332.532 916.59 334.743V334.743C914.266 336.213 911.267 336.401 909.235 335.205L891.876 324.983C888.849 323.2 889.334 319.217 892.84 317.079V317.079Z" fill="#356DEE" fill-opacity="0.76"/>
<path d="M661.012 342.893C657.217 342.522 656.133 337.5 659.437 335.596L695.301 314.928C695.982 314.536 696.767 314.364 697.55 314.435V314.435C701.24 314.774 702.322 319.649 699.121 321.517L663.369 342.378C662.657 342.793 661.832 342.973 661.012 342.893V342.893Z" fill="#356DEE" fill-opacity="0.76"/>
<path d="M668.929 347.924C667.476 347.237 667.391 345.202 668.781 344.398L676.6 339.871C677.149 339.553 677.818 339.523 678.393 339.791V339.791C679.81 340.45 679.91 342.427 678.566 343.224L670.797 347.835C670.227 348.173 669.527 348.206 668.929 347.924V347.924Z" fill="#356DEE" fill-opacity="0.76"/>
<path d="M684.203 339.795C682.098 339.92 681.261 337.122 683.088 336.07L709.98 320.594C710.238 320.446 710.526 320.359 710.822 320.339V320.339C712.867 320.207 713.692 322.923 711.921 323.951L685.087 339.529C684.818 339.685 684.515 339.777 684.203 339.795V339.795Z" fill="#356DEE" fill-opacity="0.76"/>
<path d="M713.366 376.003C709.764 375.366 708.923 370.578 712.091 368.75L742.022 351.488C742.791 351.045 743.69 350.884 744.565 351.033V351.033C748.071 351.63 748.918 356.28 745.849 358.076L716.028 375.526C715.226 375.996 714.282 376.165 713.366 376.003V376.003Z" fill="#356DEE" fill-opacity="0.76"/>
<path d="M729.264 377.493C727.101 377.763 726.13 374.866 728.02 373.779L760.248 355.241C760.469 355.114 760.712 355.032 760.965 354.999V354.999C763.065 354.726 764.019 357.537 762.187 358.599L730.018 377.239C729.786 377.373 729.53 377.459 729.264 377.493V377.493Z" fill="#356DEE" fill-opacity="0.76"/>
<path d="M764.303 410.296C761.414 408.974 761.22 404.943 763.97 403.352L779.878 394.144C780.941 393.529 782.235 393.463 783.354 393.967V393.967C786.172 395.234 786.393 399.151 783.735 400.727L767.925 410.103C766.822 410.757 765.469 410.829 764.303 410.296V410.296Z" fill="#356DEE" fill-opacity="0.76"/>
<path d="M791.208 395.199C787.517 394.679 786.567 389.785 789.797 387.923L822.296 369.186C823.025 368.766 823.872 368.599 824.705 368.711V368.711C828.297 369.193 829.249 373.946 826.12 375.774L793.732 394.701C792.97 395.146 792.081 395.321 791.208 395.199V395.199Z" fill="#356DEE" fill-opacity="0.76"/>
<path d="M782.26 411.38C780.17 411.473 779.362 408.697 781.175 407.654L807.033 392.771C807.299 392.618 807.598 392.53 807.904 392.515V392.515C809.934 392.414 810.732 395.107 808.974 396.128L783.175 411.112C782.896 411.274 782.582 411.366 782.26 411.38V411.38Z" fill="#356DEE" fill-opacity="0.76"/>
<path d="M813.11 392.422C811.788 391.656 811.787 389.745 813.11 388.978L819.117 385.494C819.717 385.146 820.457 385.144 821.059 385.488V385.488C822.351 386.227 822.368 388.083 821.091 388.847L815.13 392.409C814.509 392.78 813.736 392.785 813.11 392.422V392.422Z" fill="#356DEE" fill-opacity="0.76"/>
</g>
<g clip-path="url(#clip2_572_100)">
<rect width="128.838" height="128.838" rx="7.90209" transform="matrix(0.866025 -0.500001 0.866025 0.500001 426.246 77.4189)" fill="white"/>
<rect opacity="0.3" width="108.978" height="3.43569" rx="1.71785" transform="matrix(0.866025 -0.500001 0.866025 0.500001 474.24 95.5762)" fill="#C4C4C4"/>
<rect width="94.561" height="3.43569" rx="1.71785" transform="matrix(0.866025 -0.500001 0.866025 0.500001 474.24 95.5762)" fill="#356DEE"/>
<rect opacity="0.3" width="105.718" height="3.43569" rx="1.71785" transform="matrix(0.866025 -0.500001 0.866025 0.500001 491.346 102.191)" fill="#C4C4C4"/>
<rect width="91.7316" height="3.43569" rx="1.71785" transform="matrix(0.866025 -0.500001 0.866025 0.500001 491.346 102.191)" fill="#0EC5FF"/>
<rect opacity="0.3" width="104.867" height="3.43569" rx="1.71785" transform="matrix(0.866025 -0.500001 0.866025 0.500001 506.365 110.011)" fill="#C4C4C4"/>
<rect width="61.6143" height="3.43569" rx="1.71785" transform="matrix(0.866025 -0.500001 0.866025 0.500001 506.365 110.011)" fill="#A4BAED"/>
<rect opacity="0.3" width="105.309" height="3.43569" rx="1.71785" transform="matrix(0.866025 -0.500001 0.866025 0.500001 520.264 118.479)" fill="#C4C4C4"/>
<rect width="41.3861" height="3.43569" rx="1.71785" transform="matrix(0.866025 -0.500001 0.866025 0.500001 520.264 118.479)" fill="#356DEE"/>
<rect opacity="0.3" width="105.325" height="3.43569" rx="1.71785" transform="matrix(0.866025 -0.500001 0.866025 0.500001 534.533 126.731)" fill="#C4C4C4"/>
<rect width="65.5717" height="3.43569" rx="1.71785" transform="matrix(0.866025 -0.500001 0.866025 0.500001 534.533 126.731)" fill="#092AD0"/>
</g>
<g clip-path="url(#clip3_572_100)">
<rect width="146.424" height="146.424" rx="8.98069" transform="matrix(0.866025 -0.500001 0.866025 0.500001 219.352 388.206)" fill="white"/>
<line opacity="0.2" y1="-0.117212" x2="130.805" y2="-0.117212" transform="matrix(0.866025 -0.500001 0.866025 0.500001 273.965 411.926)" stroke="#1D2125" stroke-width="0.234424" stroke-dasharray="0.94 1.41"/>
<line opacity="0.2" y1="-0.117212" x2="130.805" y2="-0.117212" transform="matrix(0.866025 -0.500001 0.866025 0.500001 284.277 417.881)" stroke="#1D2125" stroke-width="0.234424" stroke-dasharray="0.94 1.41"/>
<line opacity="0.2" y1="-0.117212" x2="130.805" y2="-0.117212" transform="matrix(0.866025 -0.500001 0.866025 0.500001 294.59 423.836)" stroke="#1D2125" stroke-width="0.234424" stroke-dasharray="0.94 1.41"/>
<line opacity="0.2" y1="-0.117212" x2="130.805" y2="-0.117212" transform="matrix(0.866025 -0.500001 0.866025 0.500001 304.904 429.79)" stroke="#1D2125" stroke-width="0.234424" stroke-dasharray="0.94 1.41"/>
<line opacity="0.2" y1="-0.117212" x2="130.805" y2="-0.117212" transform="matrix(0.866025 -0.500001 0.866025 0.500001 315.217 435.745)" stroke="#1D2125" stroke-width="0.234424" stroke-dasharray="0.94 1.41"/>
<line opacity="0.2" y1="-0.117212" x2="130.805" y2="-0.117212" transform="matrix(0.866025 -0.500001 0.866025 0.500001 325.531 441.7)" stroke="#1D2125" stroke-width="0.234424" stroke-dasharray="0.94 1.41"/>
<line opacity="0.2" y1="-0.117212" x2="130.805" y2="-0.117212" transform="matrix(0.866025 -0.500001 0.866025 0.500001 335.844 447.654)" stroke="#1D2125" stroke-width="0.234424" stroke-dasharray="0.94 1.41"/>
<line opacity="0.2" y1="-0.117212" x2="130.805" y2="-0.117212" transform="matrix(0.866025 -0.500001 0.866025 0.500001 346.158 453.608)" stroke="#1D2125" stroke-width="0.234424" stroke-dasharray="0.94 1.41"/>
<path opacity="0.5" d="M423.781 367.619C419.369 368.327 415.138 369.056 412.238 370.73C409.976 372.036 408.709 373.811 407.435 375.596C406.482 376.93 405.525 378.271 404.144 379.427C401.199 381.965 395.794 383.41 390.09 384.356C384.104 385.465 377.392 386.155 369.655 385.927C367.876 385.913 366.045 385.853 364.231 385.795C357.873 385.588 351.716 385.388 348.64 387.164C346.416 388.448 346.06 390.93 345.698 393.456C345.462 395.099 345.224 396.761 344.466 398.123C343.448 400.171 341.029 401.536 338.637 402.886C337.182 403.707 335.736 404.523 334.622 405.483C331.509 407.899 330.492 411.248 329.414 414.797C329.324 415.093 329.234 415.39 329.142 415.688C328.084 419.317 326.889 423.192 324.388 426.313C322.023 429.187 318.07 431.469 310.914 431.577C310.007 431.621 309.052 431.632 308.062 431.615" stroke="#0EC5FF" stroke-opacity="0.42" stroke-width="4.2" stroke-linecap="round"/>
<path opacity="0.5" d="M423.69 367.097C423.409 367.219 423.122 367.335 422.828 367.447C420.183 368.485 417.098 369.19 414.026 369.893C409.918 370.832 405.835 371.766 402.863 373.481C398.879 375.781 397.33 379.235 395.733 382.795C395.248 383.876 394.759 384.967 394.195 386.038C392.148 390.424 388.937 394.567 382.133 396.206C375.766 398.003 366.572 397.81 356.848 397.606C355.917 397.587 354.981 397.567 354.042 397.549C353.242 397.534 352.445 397.517 351.651 397.501C341.779 397.296 332.467 397.104 326.743 399.349C324.064 400.369 322.317 402.017 320.565 403.669C318.515 405.603 316.458 407.542 312.897 408.488C309.192 409.445 304.06 409.579 299.027 409.71C294.311 409.832 289.682 409.953 286.391 410.746C283.497 411.563 281.622 412.894 280.302 414.533" stroke="#0EC5FF" stroke-opacity="0.83" stroke-width="4.2" stroke-linecap="round"/>
<path d="M240.6 391.818C237.452 392.013 236.194 387.826 238.927 386.253L279.378 362.974C279.761 362.754 280.189 362.624 280.629 362.595V362.595C283.686 362.389 284.927 366.452 282.277 367.99L241.914 391.42C241.513 391.653 241.063 391.789 240.6 391.818V391.818Z" fill="#0EC5FF" fill-opacity="0.3"/>
<path d="M246.233 396.155C244.954 395.788 244.743 394.064 245.895 393.399L254.911 388.193C255.253 387.995 255.66 387.944 256.041 388.05V388.05C257.287 388.399 257.504 390.073 256.389 390.729L247.414 396.005C247.058 396.215 246.631 396.269 246.233 396.155V396.155Z" fill="#0EC5FF" fill-opacity="0.3"/>
<path d="M264.267 399.814C262.628 399.327 262.367 397.115 263.847 396.26L275.231 389.686C275.678 389.427 276.211 389.363 276.707 389.507V389.507C278.304 389.97 278.573 392.118 277.14 392.961L265.809 399.625C265.343 399.899 264.785 399.967 264.267 399.814V399.814Z" fill="#0EC5FF" fill-opacity="0.3"/>
<path d="M257.575 402.337C256.791 401.452 257.008 400.071 258.026 399.469L258.118 399.415C258.892 398.957 259.881 399.111 260.479 399.782V399.782C261.248 400.645 261.063 401.991 260.091 402.615L260.001 402.673C259.22 403.174 258.191 403.031 257.575 402.337V402.337Z" fill="#0EC5FF" fill-opacity="0.3"/>
<path d="M293.492 382.274C292.039 381.629 291.93 379.608 293.307 378.811L301.478 374.082C302 373.781 302.634 373.745 303.187 373.985V373.985C304.605 374.604 304.726 376.568 303.395 377.356L295.273 382.169C294.731 382.49 294.068 382.529 293.492 382.274V382.274Z" fill="#0EC5FF" fill-opacity="0.3"/>
<path d="M287.646 384.538C286.862 383.653 287.078 382.272 288.096 381.67L288.188 381.616C288.962 381.158 289.951 381.312 290.549 381.984V381.984C291.318 382.847 291.133 384.192 290.161 384.816L290.071 384.874C289.29 385.375 288.261 385.232 287.646 384.538V384.538Z" fill="#0EC5FF" fill-opacity="0.3"/>
<path d="M321.817 366.489C320.075 366.113 319.711 363.788 321.255 362.897L334.894 355.028C335.297 354.795 335.772 354.719 336.228 354.814V354.814C337.925 355.169 338.294 357.427 336.798 358.303L323.214 366.265C322.793 366.512 322.294 366.592 321.817 366.489V366.489Z" fill="#0EC5FF" fill-opacity="0.3"/>
<path d="M314.527 369.235C313.742 368.35 313.959 366.969 314.977 366.367L315.069 366.313C315.843 365.855 316.832 366.009 317.43 366.681V366.681C318.199 367.544 318.014 368.889 317.042 369.514L316.952 369.571C316.171 370.072 315.142 369.93 314.527 369.235V369.235Z" fill="#0EC5FF" fill-opacity="0.3"/>
<path d="M259.563 388.647C258.167 388.413 257.833 386.559 259.059 385.852L270.822 379.068C271.114 378.9 271.455 378.837 271.788 378.891V378.891C273.147 379.11 273.483 380.911 272.295 381.605L260.575 388.462C260.27 388.64 259.912 388.706 259.563 388.647V388.647Z" fill="#0EC5FF" fill-opacity="0.3"/>
<path d="M240.786 389.402C237.638 389.597 236.379 385.411 239.113 383.838L279.564 360.559C279.946 360.339 280.374 360.209 280.814 360.179V360.179C283.872 359.974 285.113 364.036 282.463 365.575L242.099 389.005C241.698 389.237 241.249 389.373 240.786 389.402V389.402Z" fill="#0EC5FF" fill-opacity="0.76"/>
<path d="M246.419 393.739C245.14 393.372 244.928 391.649 246.081 390.983L255.097 385.777C255.439 385.58 255.846 385.528 256.226 385.635V385.635C257.473 385.984 257.69 387.658 256.574 388.314L247.599 393.59C247.243 393.799 246.816 393.853 246.419 393.739V393.739Z" fill="#0EC5FF" fill-opacity="0.76"/>
<path d="M264.452 397.398C262.813 396.911 262.552 394.7 264.033 393.845L275.417 387.27C275.864 387.012 276.397 386.947 276.893 387.091V387.091C278.49 387.554 278.759 389.702 277.326 390.545L265.994 397.21C265.529 397.484 264.97 397.552 264.452 397.398V397.398Z" fill="#0EC5FF" fill-opacity="0.76"/>
<path d="M257.761 399.921C256.977 399.036 257.194 397.655 258.212 397.053L258.303 396.999C259.077 396.541 260.067 396.695 260.665 397.367V397.367C261.433 398.23 261.249 399.575 260.276 400.2L260.186 400.257C259.406 400.758 258.376 400.616 257.761 399.921V399.921Z" fill="#0EC5FF" fill-opacity="0.76"/>
<path d="M293.678 379.858C292.224 379.214 292.116 377.192 293.492 376.396L301.664 371.667C302.185 371.365 302.82 371.329 303.372 371.57V371.57C304.79 372.188 304.912 374.152 303.581 374.941L295.459 379.754C294.917 380.075 294.253 380.114 293.678 379.858V379.858Z" fill="#0EC5FF" fill-opacity="0.76"/>
<path d="M287.831 382.123C287.047 381.237 287.264 379.857 288.282 379.254L288.374 379.2C289.147 378.742 290.137 378.897 290.735 379.568V379.568C291.504 380.431 291.319 381.777 290.346 382.401L290.257 382.458C289.476 382.96 288.447 382.817 287.831 382.123V382.123Z" fill="#0EC5FF" fill-opacity="0.76"/>
<path d="M322.003 364.073C320.26 363.697 319.896 361.372 321.44 360.481L335.079 352.612C335.483 352.379 335.958 352.303 336.414 352.399V352.399C338.11 352.754 338.479 355.012 336.984 355.888L323.399 363.85C322.978 364.097 322.48 364.176 322.003 364.073V364.073Z" fill="#0EC5FF" fill-opacity="0.76"/>
<path d="M314.712 366.82C313.928 365.935 314.145 364.554 315.163 363.952L315.255 363.897C316.028 363.44 317.018 363.594 317.616 364.265V364.265C318.384 365.128 318.2 366.474 317.227 367.098L317.138 367.156C316.357 367.657 315.327 367.514 314.712 366.82V366.82Z" fill="#0EC5FF" fill-opacity="0.76"/>
<path d="M259.749 386.232C258.353 385.997 258.019 384.143 259.245 383.436L271.007 376.653C271.3 376.484 271.641 376.422 271.974 376.475V376.475C273.332 376.695 273.669 378.495 272.481 379.19L260.761 386.046C260.456 386.225 260.097 386.29 259.749 386.232V386.232Z" fill="#0EC5FF" fill-opacity="0.76"/>
</g>
<g clip-path="url(#clip4_572_100)">
<rect width="158.943" height="158.943" rx="9.74854" transform="matrix(0.866025 -0.500001 0.866025 0.500001 37 293.564)" fill="white"/>
<g filter="url(#filter2_f_572_100)">
<path d="M109.238 313.827C110.834 312.89 112.81 312.883 114.413 313.809L152.16 335.595C155.584 337.572 155.679 342.481 152.334 344.589V344.589C150.677 345.633 148.577 345.669 146.885 344.681L109.247 322.708C105.851 320.725 105.845 315.818 109.238 313.827V313.827Z" fill="#356DEE" fill-opacity="0.43"/>
<path d="M141.819 316.31C143.474 314.888 145.845 314.662 147.738 315.747L167.774 327.228C170.873 329.004 171.33 333.29 168.675 335.679V335.679C166.979 337.204 164.492 337.459 162.522 336.309L142.579 324.667C139.522 322.883 139.134 318.617 141.819 316.31V316.31Z" fill="#356DEE" fill-opacity="0.22"/>
<path d="M165.275 312.777C166.912 311.084 169.487 310.715 171.534 311.879L183.257 318.544C186.2 320.218 186.806 324.201 184.494 326.674V326.674C182.824 328.459 180.14 328.852 178.029 327.619L166.382 320.821C163.491 319.134 162.947 315.183 165.275 312.777V312.777Z" fill="#092AD0" fill-opacity="0.43"/>
<path d="M160.869 292.161C162.496 291.081 164.593 291.015 166.285 291.99L198.291 310.433C201.612 312.347 201.83 317.059 198.699 319.271V319.271C197.018 320.459 194.799 320.555 193.021 319.517L161.12 300.893C157.83 298.973 157.695 294.267 160.869 292.161V292.161Z" fill="#356DEE" fill-opacity="0.43"/>
<path d="M166.777 277.059C168.351 276.203 170.257 276.227 171.809 277.123L213.055 300.95C216.541 302.963 216.559 307.989 213.088 310.029V310.029C211.45 310.991 209.419 310.994 207.778 310.036L166.642 286.02C163.182 284 163.258 278.975 166.777 277.059V277.059Z" fill="#092AD0" fill-opacity="0.43"/>
<path d="M186.498 272.573C188.107 271.583 190.129 271.554 191.765 272.498L227.294 292.993C230.679 294.946 230.822 299.78 227.558 301.929V301.929C225.891 303.027 223.745 303.085 222.021 302.079L186.6 281.399C183.244 279.44 183.188 274.61 186.498 272.573V272.573Z" fill="#356DEE" fill-opacity="0.43"/>
<path d="M219.236 276.878C220.885 275.299 223.376 274.991 225.359 276.123L240.475 284.751C243.481 286.467 244.028 290.575 241.575 293.017V293.017C239.891 294.694 237.288 295.028 235.235 293.829L220.203 285.055C217.244 283.327 216.762 279.248 219.236 276.878V276.878Z" fill="#356DEE" fill-opacity="0.2"/>
<path d="M237.365 271.567C238.997 269.839 241.599 269.449 243.666 270.623L254.349 276.689C257.272 278.349 257.896 282.294 255.627 284.775V284.775C253.962 286.594 251.254 287.006 249.124 285.763L238.515 279.57C235.645 277.894 235.083 273.983 237.365 271.567V271.567Z" fill="#356DEE" fill-opacity="0.43"/>
<path d="M241.702 318.418C236.945 316.042 236.737 309.33 241.339 306.665L265.916 292.43C267.8 291.339 270.105 291.261 272.058 292.222V292.222C276.7 294.505 276.958 301.027 272.512 303.67L248.098 318.184C246.144 319.345 243.735 319.433 241.702 318.418V318.418Z" fill="#356DEE" fill-opacity="0.43"/>
<path d="M81.8682 306.984C76.4255 305.138 75.6943 297.739 80.6705 294.864L116.253 274.303C117.863 273.373 119.795 273.176 121.56 273.762V273.762C126.865 275.522 127.63 282.709 122.814 285.547L87.4094 306.412C85.7335 307.4 83.7105 307.608 81.8682 306.984V306.984Z" fill="#356DEE" fill-opacity="0.43"/>
<path d="M168.696 354.727C164.901 354.356 163.817 349.334 167.12 347.43L202.984 326.762C203.665 326.37 204.451 326.198 205.233 326.269V326.269C208.924 326.608 210.006 331.483 206.805 333.351L171.053 354.212C170.341 354.627 169.516 354.807 168.696 354.727V354.727Z" fill="#356DEE" fill-opacity="0.17"/>
<path d="M174.571 359.366C173.119 358.68 173.034 356.645 174.424 355.84L182.243 351.313C182.792 350.996 183.461 350.966 184.036 351.233V351.233C185.453 351.892 185.552 353.869 184.208 354.667L176.439 359.278C175.87 359.616 175.17 359.649 174.571 359.366V359.366Z" fill="#356DEE" fill-opacity="0.17"/>
<path d="M188.713 351.526C186.972 351.093 186.643 348.759 188.198 347.862L201.177 340.371C201.609 340.122 202.12 340.048 202.604 340.165V340.165C204.3 340.576 204.635 342.842 203.13 343.726L190.205 351.311C189.755 351.575 189.22 351.652 188.713 351.526V351.526Z" fill="#356DEE" fill-opacity="0.17"/>
</g>
<path d="M107.161 308.852C108.758 307.915 110.734 307.908 112.337 308.833L150.083 330.62C153.508 332.597 153.603 337.506 150.258 339.614V339.614C148.601 340.658 146.5 340.693 144.809 339.706L107.171 317.732C103.774 315.749 103.769 310.842 107.161 308.852V308.852Z" fill="#356DEE" fill-opacity="0.43"/>
<path d="M139.742 311.335C141.397 309.912 143.769 309.687 145.662 310.772L165.698 322.253C168.797 324.029 169.254 328.315 166.598 330.704V330.704C164.903 332.229 162.416 332.484 160.446 331.334L140.503 319.692C137.446 317.907 137.058 313.642 139.742 311.335V311.335Z" fill="#356DEE" fill-opacity="0.22"/>
<path d="M163.199 307.801C164.836 306.108 167.411 305.739 169.458 306.903L181.181 313.569C184.124 315.242 184.73 319.226 182.418 321.698V321.698C180.748 323.484 178.064 323.876 175.952 322.644L164.306 315.846C161.415 314.158 160.871 310.207 163.199 307.801V307.801Z" fill="#092AD0" fill-opacity="0.43"/>
<path d="M158.793 287.185C160.42 286.106 162.517 286.039 164.209 287.014L196.214 305.457C199.536 307.371 199.754 312.084 196.623 314.296V314.296C194.942 315.483 192.722 315.579 190.945 314.542L159.044 295.918C155.754 293.997 155.619 289.292 158.793 287.185V287.185Z" fill="#356DEE" fill-opacity="0.43"/>
<path d="M164.701 272.084C166.275 271.227 168.181 271.251 169.733 272.148L210.979 295.974C214.465 297.988 214.483 303.013 211.012 305.053V305.053C209.374 306.016 207.343 306.019 205.702 305.06L164.566 281.044C161.106 279.024 161.181 273.999 164.701 272.084V272.084Z" fill="#092AD0" fill-opacity="0.43"/>
<path d="M184.421 267.598C186.03 266.608 188.053 266.579 189.689 267.523L225.217 288.018C228.603 289.97 228.746 294.804 225.482 296.954V296.954C223.815 298.052 221.669 298.11 219.945 297.103L184.524 276.424C181.168 274.464 181.112 269.634 184.421 267.598V267.598Z" fill="#356DEE" fill-opacity="0.43"/>
<path d="M217.16 271.902C218.808 270.323 221.3 270.016 223.283 271.148L238.399 279.776C241.405 281.492 241.952 285.599 239.499 288.041V288.041C237.815 289.719 235.212 290.052 233.159 288.854L218.127 280.079C215.168 278.352 214.686 274.273 217.16 271.902V271.902Z" fill="#356DEE" fill-opacity="0.2"/>
<path d="M235.289 266.591C236.921 264.863 239.522 264.474 241.59 265.647L252.272 271.713C255.196 273.373 255.819 277.319 253.55 279.799V279.799C251.886 281.619 249.178 282.03 247.048 280.787L236.439 274.594C233.568 272.919 233.006 269.007 235.289 266.591V266.591Z" fill="#356DEE" fill-opacity="0.43"/>
<path d="M239.626 313.442C234.869 311.067 234.661 304.355 239.262 301.69L263.84 287.455C265.724 286.363 268.028 286.285 269.982 287.246V287.246C274.624 289.53 274.882 296.051 270.435 298.695L246.022 313.208C244.068 314.37 241.659 314.458 239.626 313.442V313.442Z" fill="#356DEE" fill-opacity="0.43"/>
<path d="M79.7921 302.008C74.3494 300.162 73.6182 292.764 78.5943 289.888L114.177 269.328C115.787 268.397 117.719 268.2 119.484 268.786V268.786C124.788 270.547 125.553 277.734 120.738 280.572L85.3333 301.436C83.6573 302.424 81.6343 302.633 79.7921 302.008V302.008Z" fill="#356DEE" fill-opacity="0.43"/>
<path d="M166.619 349.751C162.825 349.38 161.74 344.358 165.044 342.455L200.908 321.787C201.589 321.394 202.375 321.222 203.157 321.294V321.294C206.848 321.632 207.93 326.508 204.729 328.375L168.976 349.236C168.264 349.651 167.44 349.832 166.619 349.751V349.751Z" fill="#356DEE" fill-opacity="0.19"/>
<path d="M172.495 354.39C171.042 353.704 170.958 351.669 172.348 350.864L180.166 346.338C180.715 346.02 181.385 345.99 181.96 346.258V346.258C183.377 346.917 183.476 348.894 182.132 349.691L174.363 354.302C173.794 354.64 173.094 354.673 172.495 354.39V354.39Z" fill="#356DEE" fill-opacity="0.17"/>
<path d="M186.637 346.551C184.895 346.117 184.567 343.784 186.122 342.887L199.101 335.395C199.533 335.146 200.043 335.072 200.528 335.19V335.19C202.224 335.6 202.559 337.867 201.054 338.75L188.129 346.335C187.679 346.6 187.144 346.677 186.637 346.551V346.551Z" fill="#356DEE" fill-opacity="0.17"/>
<path d="M107.238 304.827C108.834 303.89 110.81 303.883 112.413 304.809L150.16 326.595C153.584 328.572 153.679 333.481 150.334 335.589V335.589C148.677 336.633 146.577 336.669 144.885 335.681L107.247 313.708C103.851 311.725 103.845 306.818 107.238 304.827V304.827Z" fill="#356DEE" fill-opacity="0.76"/>
<path d="M139.819 307.31C141.474 305.888 143.845 305.662 145.738 306.747L165.774 318.228C168.873 320.004 169.33 324.29 166.675 326.679V326.679C164.979 328.204 162.492 328.459 160.522 327.309L140.579 315.667C137.522 313.883 137.134 309.617 139.819 307.31V307.31Z" fill="#356DEE" fill-opacity="0.4"/>
<path d="M163.275 303.777C164.912 302.084 167.487 301.715 169.534 302.879L181.257 309.544C184.2 311.218 184.806 315.201 182.494 317.674V317.674C180.824 319.459 178.14 319.852 176.029 318.619L164.382 311.821C161.491 310.134 160.947 306.183 163.275 303.777V303.777Z" fill="#092AD0" fill-opacity="0.76"/>
<path d="M158.869 283.161C160.496 282.081 162.593 282.015 164.285 282.99L196.291 301.433C199.612 303.347 199.83 308.059 196.699 310.271V310.271C195.018 311.459 192.799 311.555 191.021 310.517L159.12 291.893C155.83 289.973 155.695 285.267 158.869 283.161V283.161Z" fill="#356DEE" fill-opacity="0.76"/>
<path d="M164.777 268.059C166.351 267.203 168.257 267.227 169.809 268.123L211.055 291.95C214.541 293.963 214.559 298.989 211.088 301.029V301.029C209.45 301.991 207.419 301.994 205.778 301.036L164.642 277.02C161.182 275 161.258 269.975 164.777 268.059V268.059Z" fill="#092AD0" fill-opacity="0.76"/>
<path d="M184.498 263.573C186.107 262.583 188.129 262.554 189.765 263.498L225.294 283.993C228.679 285.946 228.822 290.78 225.558 292.929V292.929C223.891 294.027 221.745 294.085 220.021 293.079L184.6 272.399C181.244 270.44 181.188 265.61 184.498 263.573V263.573Z" fill="#356DEE" fill-opacity="0.76"/>
<path d="M217.236 267.878C218.885 266.299 221.376 265.991 223.359 267.123L238.475 275.751C241.481 277.467 242.028 281.575 239.575 284.017V284.017C237.891 285.694 235.288 286.028 233.235 284.829L218.203 276.055C215.244 274.327 214.762 270.248 217.236 267.878V267.878Z" fill="#356DEE" fill-opacity="0.37"/>
<path d="M235.365 262.567C236.997 260.839 239.599 260.449 241.666 261.623L252.349 267.689C255.272 269.349 255.896 273.294 253.627 275.775V275.775C251.962 277.594 249.254 278.006 247.124 276.763L236.515 270.57C233.645 268.894 233.083 264.983 235.365 262.567V262.567Z" fill="#356DEE" fill-opacity="0.76"/>
<path d="M239.702 309.418C234.945 307.042 234.737 300.33 239.339 297.665L263.916 283.43C265.8 282.339 268.105 282.261 270.058 283.222V283.222C274.7 285.505 274.958 292.027 270.512 294.67L246.098 309.184C244.144 310.345 241.735 310.433 239.702 309.418V309.418Z" fill="#356DEE" fill-opacity="0.76"/>
<path d="M79.8682 297.984C74.4255 296.138 73.6943 288.739 78.6705 285.864L114.253 265.303C115.863 264.373 117.795 264.176 119.56 264.762V264.762C124.865 266.522 125.63 273.709 120.814 276.547L85.4094 297.412C83.7335 298.4 81.7105 298.608 79.8682 297.984V297.984Z" fill="#356DEE" fill-opacity="0.76"/>
<path d="M166.209 347.008C162.414 346.637 161.33 341.615 164.634 339.711L200.498 319.044C201.179 318.651 201.964 318.479 202.747 318.551V318.551C206.438 318.889 207.52 323.765 204.319 325.632L168.566 346.493C167.854 346.908 167.03 347.089 166.209 347.008V347.008Z" fill="#356DEE" fill-opacity="0.42"/>
<path d="M172.085 351.647C170.632 350.96 170.547 348.926 171.938 348.121L179.756 343.594C180.305 343.277 180.975 343.247 181.55 343.514V343.514C182.967 344.173 183.066 346.15 181.722 346.948L173.953 351.559C173.384 351.897 172.684 351.93 172.085 351.647V351.647Z" fill="#356DEE" fill-opacity="0.43"/>
<path d="M186.227 343.808C184.485 343.374 184.157 341.041 185.712 340.143L198.691 332.652C199.122 332.403 199.633 332.329 200.118 332.446V332.446C201.814 332.857 202.149 335.123 200.643 336.007L187.719 343.592C187.269 343.856 186.733 343.934 186.227 343.808V343.808Z" fill="#356DEE" fill-opacity="0.43"/>
</g>
<g clip-path="url(#clip5_572_100)">
<rect width="193.774" height="193.774" transform="matrix(0.866025 -0.500001 0.866025 0.500001 103.863 128.368)" fill="white"/>
<path d="M240.064 118.704C243.704 116.736 248.066 116.679 251.317 118.558L311.759 153.493C318.101 157.159 317.36 165.896 310.365 169.908V169.908C306.587 172.075 301.965 172.183 298.554 170.185L238.375 134.918C232.099 131.24 233.008 122.52 240.064 118.704V118.704Z" fill="#092AD0" fill-opacity="0.43"/>
<path d="M304.863 123.668C308.674 120.677 313.995 120.135 317.861 122.343L343.251 136.846C348.943 140.098 349.098 147.624 343.566 152.109V152.109C339.66 155.276 334.107 155.861 330.12 153.524L304.931 138.765C299.345 135.492 299.311 128.024 304.863 123.668V123.668Z" fill="#092AD0" fill-opacity="0.43"/>
<path d="M312.616 91.1663C316.349 88.8494 321.048 88.6408 324.514 90.6381L371.995 118.004C378.099 121.522 377.704 129.818 371.231 134.038V134.038C367.376 136.55 362.424 136.811 358.808 134.692L311.575 107.013C305.549 103.482 306.093 95.2159 312.616 91.1663V91.1663Z" fill="#092AD0" fill-opacity="0.43"/>
<g filter="url(#filter3_f_572_100)">
<path d="M238.709 127.708C242.348 125.74 246.711 125.683 249.962 127.562L310.403 162.497C316.746 166.163 316.004 174.9 309.01 178.913V178.913C305.232 181.08 300.61 181.188 297.199 179.189L237.019 143.922C230.744 140.245 231.652 131.525 238.709 127.708V127.708Z" fill="#092AD0" fill-opacity="0.43"/>
</g>
<g filter="url(#filter4_f_572_100)">
<path d="M303.505 132.672C307.317 129.681 312.637 129.139 316.503 131.347L341.893 145.85C347.586 149.102 347.741 156.628 342.209 161.113V161.113C338.302 164.28 332.749 164.864 328.762 162.528L303.574 147.769C297.987 144.495 297.953 137.028 303.505 132.672V132.672Z" fill="#092AD0" fill-opacity="0.43"/>
</g>
<g filter="url(#filter5_f_572_100)">
<path d="M311.257 100.171C314.99 97.8543 319.689 97.6456 323.154 99.643L370.636 127.008C376.74 130.527 376.344 138.823 369.871 143.043V143.043C366.017 145.555 361.065 145.816 357.449 143.697L310.215 116.018C304.19 112.487 304.733 104.221 311.257 100.171V100.171Z" fill="#092AD0" fill-opacity="0.43"/>
</g>
<path d="M236.687 110.746C240.327 108.777 244.689 108.721 247.94 110.599L308.382 145.534C314.724 149.2 313.983 157.937 306.988 161.95V161.95C303.21 164.117 298.588 164.225 295.177 162.226L234.998 126.959C228.722 123.282 229.631 114.562 236.687 110.746V110.746Z" fill="#092AD0" fill-opacity="0.76"/>
<path d="M301.488 115.71C305.299 112.719 310.62 112.177 314.486 114.385L339.876 128.888C345.568 132.139 345.723 139.666 340.191 144.151V144.151C336.285 147.318 330.732 147.902 326.745 145.566L301.556 130.806C295.97 127.533 295.936 120.066 301.488 115.71V115.71Z" fill="#092AD0" fill-opacity="0.76"/>
<path d="M243.521 159.925C247.332 156.934 252.653 156.392 256.519 158.6L281.909 173.103C287.601 176.355 287.757 183.881 282.224 188.366V188.366C278.318 191.533 272.765 192.117 268.778 189.781L243.59 175.022C238.003 171.748 237.969 164.281 243.521 159.925V159.925Z" fill="#092AD0" fill-opacity="0.43"/>
<g filter="url(#filter6_f_572_100)">
<path d="M242.161 168.93C245.973 165.939 251.293 165.397 255.159 167.605L280.55 182.108C286.242 185.36 286.397 192.886 280.865 197.371V197.371C276.959 200.538 271.406 201.122 267.418 198.786L242.23 184.027C236.644 180.753 236.61 173.286 242.161 168.93V168.93Z" fill="#092AD0" fill-opacity="0.43"/>
</g>
<path d="M240.144 151.967C243.955 148.977 249.276 148.435 253.142 150.643L278.532 165.146C284.224 168.397 284.38 175.923 278.847 180.409V180.409C274.941 183.576 269.388 184.16 265.401 181.824L240.213 167.064C234.626 163.791 234.592 156.324 240.144 151.967V151.967Z" fill="#092AD0" fill-opacity="0.76"/>
<path d="M309.237 83.2088C312.97 80.8919 317.669 80.6832 321.135 82.6806L368.616 110.046C374.72 113.564 374.325 121.861 367.852 126.08V126.08C363.997 128.593 359.045 128.854 355.429 126.735L308.196 99.0553C302.17 95.5243 302.714 87.2584 309.237 83.2088V83.2088Z" fill="#092AD0" fill-opacity="0.76"/>
<path d="M137.209 132.008C133.414 131.637 132.33 126.615 135.634 124.711L171.498 104.044C172.179 103.651 172.964 103.479 173.747 103.551V103.551C177.437 103.889 178.519 108.765 175.318 110.632L139.566 131.493C138.854 131.908 138.03 132.089 137.209 132.008V132.008Z" fill="#62D9FF"/>
<path d="M145.126 137.038C143.673 136.352 143.588 134.317 144.979 133.512L152.797 128.986C153.346 128.668 154.016 128.638 154.591 128.906V128.906C156.008 129.565 156.107 131.542 154.763 132.339L146.994 136.95C146.425 137.288 145.725 137.321 145.126 137.038V137.038Z" fill="#62D9FF"/>
<path d="M160.4 128.91C158.296 129.035 157.458 126.237 159.286 125.185L186.177 109.709C186.435 109.561 186.723 109.474 187.02 109.455V109.455C189.064 109.323 189.89 112.038 188.118 113.067L161.285 128.644C161.015 128.801 160.712 128.892 160.4 128.91V128.91Z" fill="#62D9FF"/>
<path d="M167.358 114.892C163.426 114.892 163.164 108.825 167.001 106.613L218.595 76.8646C219.201 76.5151 219.844 76.3298 220.466 76.3259V76.3259C224.291 76.3015 224.571 82.1896 220.848 84.3552L169.322 114.328C168.686 114.697 168.01 114.892 167.358 114.892V114.892Z" fill="#62D9FF"/>
<path d="M174.854 120.112C173.389 119.475 173.652 116.972 175.284 116.028L187.129 109.175C187.65 108.874 188.215 108.816 188.684 109.016V109.016C190.115 109.624 189.875 112.056 188.292 112.988L176.478 119.944C175.935 120.264 175.343 120.325 174.854 120.112V120.112Z" fill="#62D9FF"/>
<path d="M196.102 108.398C193.912 108.736 193.557 105.408 195.654 104.2L233.929 82.1522C234.154 82.0228 234.389 81.9373 234.624 81.8999V81.8999C236.751 81.5607 237.107 84.7898 235.073 85.9691L196.832 108.133C196.596 108.27 196.349 108.36 196.102 108.398V108.398Z" fill="#62D9FF"/>
</g>
<g clip-path="url(#clip6_572_100)">
<rect width="215.542" height="215.542" rx="13.2199" transform="matrix(0.866025 -0.500001 0.866025 0.500001 312.277 259.72)" fill="white"/>
<rect width="66.6724" height="66.6724" rx="33.3362" transform="matrix(0.866025 -0.500001 0.866025 0.500001 452.186 289.511)" fill="#356DEE" fill-opacity="0.22"/>
<g filter="url(#filter7_f_572_100)">
<rect width="66.6724" height="66.6724" rx="33.3362" transform="matrix(0.866025 -0.500001 0.866025 0.500001 452.189 303.801)" fill="#356DEE" fill-opacity="0.22"/>
</g>
<rect width="66.6724" height="66.6724" rx="33.3362" transform="matrix(0.866025 -0.500001 0.866025 0.500001 452.186 279.336)" fill="#356DEE" fill-opacity="0.4"/>
<path d="M496.879 285.732C494.288 285.331 493.382 282.205 495.503 280.983L515.348 269.551C515.869 269.251 516.503 269.139 517.139 269.234V269.234C519.66 269.609 520.561 272.644 518.508 273.845L498.753 285.399C498.21 285.717 497.545 285.835 496.879 285.732V285.732Z" fill="#092AD0" fill-opacity="0.64"/>
<path d="M502.56 289.185C501.563 288.696 501.43 287.436 502.321 286.92L506.438 284.535C506.838 284.303 507.36 284.294 507.809 284.512V284.512C508.781 284.983 508.923 286.207 508.064 286.72L503.985 289.156C503.572 289.403 503.027 289.414 502.56 289.185V289.185Z" fill="#092AD0" fill-opacity="0.64"/>
<path d="M511.274 284.685C509.83 284.685 509.153 282.926 510.335 282.246L525.37 273.6C525.57 273.484 525.805 273.423 526.049 273.422V273.422C527.452 273.415 528.119 275.122 526.974 275.788L511.987 284.499C511.778 284.621 511.531 284.685 511.274 284.685V284.685Z" fill="#092AD0" fill-opacity="0.64"/>
<rect width="39.7245" height="39.7245" rx="19.8622" transform="matrix(0.866025 -0.500001 0.866025 0.500001 499.623 225.862)" fill="#092AD0" fill-opacity="0.63"/>
<rect width="39.7245" height="39.7245" rx="19.8622" transform="matrix(0.866025 -0.500001 0.866025 0.500001 499.623 231.924)" fill="#092AD0" fill-opacity="0.33"/>
<g filter="url(#filter8_f_572_100)">
<rect width="39.7245" height="39.7245" rx="19.8622" transform="matrix(0.866025 -0.500001 0.866025 0.500001 499.625 240.439)" fill="#092AD0" fill-opacity="0.33"/>
</g>
<path d="M525.611 229.799C523.757 229.45 523.072 227.332 524.539 226.486L536.962 219.332C537.364 219.101 537.87 219.024 538.378 219.117V219.117C540.182 219.447 540.864 221.504 539.445 222.335L527.091 229.574C526.673 229.819 526.142 229.9 525.611 229.799V229.799Z" fill="white" fill-opacity="0.88"/>
<path d="M529.808 232.293C529.093 231.936 528.977 231.082 529.594 230.724L532.066 229.291C532.366 229.118 532.771 229.117 533.119 229.289V229.289C533.816 229.634 533.938 230.463 533.344 230.819L530.9 232.286C530.592 232.471 530.169 232.474 529.808 232.293V232.293Z" fill="white" fill-opacity="0.88"/>
<path d="M535.396 229.47C534.358 229.432 533.848 228.233 534.669 227.761L544.161 222.305C544.318 222.215 544.507 222.17 544.705 222.177V222.177C545.713 222.209 546.216 223.373 545.422 223.835L535.966 229.336C535.803 229.431 535.604 229.478 535.396 229.47V229.47Z" fill="white" fill-opacity="0.88"/>
<rect width="26.6537" height="26.6537" rx="13.3268" transform="matrix(0.866025 -0.500001 0.866025 0.500001 544.471 260.395)" fill="#356DEE" fill-opacity="0.4"/>
<g filter="url(#filter9_f_572_100)">
<rect width="26.6537" height="26.6537" rx="13.3268" transform="matrix(0.866025 -0.500001 0.866025 0.500001 544.473 266.107)" fill="#356DEE" fill-opacity="0.4"/>
</g>
<rect width="26.6537" height="26.6537" rx="13.3268" transform="matrix(0.866025 -0.500001 0.866025 0.500001 544.471 256.327)" fill="#356DEE" fill-opacity="0.76"/>
<path d="M562.317 259.419C561.124 259.203 560.687 257.823 561.638 257.275L569.879 252.529C570.133 252.383 570.451 252.333 570.77 252.389V252.389C571.931 252.592 572.366 253.932 571.446 254.471L563.249 259.272C562.985 259.427 562.651 259.479 562.317 259.419V259.419Z" fill="white" fill-opacity="0.63"/>
<path d="M565 261.02C564.54 260.791 564.468 260.235 564.868 260.003L566.525 259.043C566.716 258.933 566.972 258.931 567.192 259.039V259.039C567.64 259.26 567.716 259.8 567.331 260.031L565.693 261.013C565.496 261.131 565.229 261.134 565 261.02V261.02Z" fill="white" fill-opacity="0.63"/>
<path d="M568.687 259.149C568.019 259.129 567.693 258.349 568.225 258.044L574.509 254.432C574.607 254.375 574.726 254.346 574.85 254.349V254.349C575.498 254.365 575.819 255.122 575.304 255.421L569.044 259.063C568.941 259.123 568.817 259.153 568.687 259.149V259.149Z" fill="white" fill-opacity="0.63"/>
</g>
<path opacity="0.6" d="M594.555 282.219C593.886 282.605 593.599 283.022 593.693 283.482C593.769 283.892 594.121 284.271 594.742 284.629C595.375 284.995 596.026 285.201 596.706 285.242C597.486 285.293 598.225 285.124 598.91 284.728C599.362 284.467 599.62 284.169 599.684 283.834C599.755 283.475 599.591 283.13 599.198 282.795L598.576 283.154C598.823 283.391 598.922 283.617 598.875 283.834C598.828 284.037 598.647 284.23 598.342 284.406C597.873 284.677 597.38 284.792 596.864 284.751C596.378 284.714 595.885 284.552 595.381 284.261C594.895 283.98 594.613 283.695 594.549 283.408C594.467 283.096 594.654 282.812 595.106 282.551C595.41 282.375 595.721 282.27 596.055 282.233C596.39 282.196 596.735 282.24 597.087 282.362L597.709 282.003C597.222 281.796 596.694 281.708 596.143 281.742C595.569 281.776 595.041 281.939 594.555 282.219ZM598.204 281.541L600.091 282.631C600.906 283.101 601.68 283.128 602.413 282.705C602.794 282.485 602.947 282.208 602.876 281.869L603.287 282.106L603.908 281.747L600.877 279.998L600.256 280.356L602.108 281.426C602.278 281.585 602.36 281.747 602.354 281.907C602.343 282.062 602.266 282.188 602.102 282.282C601.862 282.421 601.622 282.485 601.399 282.479C601.17 282.475 600.93 282.397 600.672 282.248L598.825 281.182L598.204 281.541ZM602.912 278.728C602.725 278.836 602.613 278.961 602.59 279.11C602.555 279.225 602.578 279.354 602.666 279.493L602.209 279.229L601.587 279.587L604.618 281.337L605.24 280.979L603.633 280.051C603.37 279.899 603.229 279.73 603.223 279.543C603.217 279.371 603.311 279.229 603.499 279.12C603.639 279.039 603.803 278.965 604.003 278.904L603.381 278.545C603.223 278.575 603.065 278.64 602.912 278.728ZM604.818 277.627C604.455 277.837 604.232 278.054 604.161 278.277C604.085 278.497 604.191 278.687 604.466 278.846C604.724 278.995 605.047 279.046 605.428 278.995C605.662 278.968 606.002 278.873 606.442 278.714C606.823 278.575 607.087 278.491 607.228 278.464C607.485 278.409 607.697 278.423 607.843 278.508C608.113 278.663 608.007 278.887 607.527 279.164C607.292 279.3 607.087 279.371 606.905 279.388C606.717 279.401 606.495 279.36 606.254 279.262L605.645 279.614C606.419 279.98 607.222 279.929 608.054 279.448C608.951 278.931 609.08 278.484 608.441 278.115C608.171 277.959 607.837 277.908 607.444 277.959C607.175 277.993 606.817 278.084 606.389 278.237C606.008 278.369 605.75 278.45 605.598 278.484C605.357 278.535 605.187 278.531 605.082 278.47C604.965 278.403 604.924 278.318 604.976 278.22C605.011 278.132 605.129 278.037 605.316 277.929C605.527 277.807 605.727 277.732 605.903 277.712C606.067 277.692 606.248 277.715 606.46 277.783L607.063 277.435C606.354 277.106 605.604 277.174 604.818 277.627ZM606.814 276.57L608.702 277.66C609.517 278.13 610.291 278.157 611.024 277.734C611.405 277.514 611.557 277.236 611.487 276.898L611.897 277.135L612.519 276.776L609.488 275.026L608.866 275.385L610.719 276.455C610.889 276.614 610.971 276.776 610.965 276.935C610.953 277.091 610.877 277.216 610.713 277.311C610.473 277.45 610.232 277.514 610.01 277.507C609.781 277.504 609.541 277.426 609.283 277.277L607.436 276.211L606.814 276.57ZM611.247 273.915C610.884 274.125 610.661 274.342 610.591 274.565C610.515 274.785 610.62 274.975 610.896 275.134C611.154 275.283 611.476 275.334 611.857 275.283C612.092 275.256 612.432 275.161 612.871 275.002C613.252 274.863 613.516 274.779 613.657 274.751C613.915 274.697 614.126 274.711 614.273 274.795C614.542 274.951 614.437 275.175 613.956 275.452C613.721 275.588 613.516 275.659 613.334 275.676C613.147 275.689 612.924 275.648 612.684 275.55L612.074 275.902C612.848 276.268 613.651 276.217 614.484 275.736C615.381 275.219 615.51 274.772 614.871 274.403C614.601 274.247 614.267 274.196 613.874 274.247C613.604 274.281 613.247 274.372 612.819 274.525C612.438 274.657 612.18 274.738 612.027 274.772C611.787 274.823 611.617 274.819 611.511 274.758C611.394 274.691 611.353 274.606 611.406 274.508C611.441 274.42 611.558 274.325 611.746 274.217C611.957 274.095 612.156 274.02 612.332 274C612.496 273.98 612.678 274.003 612.889 274.071L613.493 273.722C612.783 273.394 612.033 273.462 611.247 273.915Z" fill="white"/>
</g>
<g filter="url(#filter10_f_572_100)">
<path d="M366.301 273.682C360.82 272.647 359.466 265.419 364.201 262.472L412.388 232.477C413.791 231.604 415.472 231.292 417.094 231.603C423.01 232.738 424.401 240.574 419.239 243.677L370.588 272.913C369.302 273.687 367.776 273.96 366.301 273.682Z" fill="#356DEE" fill-opacity="0.43"/>
</g>
<path d="M383.052 281.012C380.688 280.035 380.428 276.706 382.606 275.293L397.689 265.506C398.61 264.909 399.749 264.801 400.748 265.217C403.295 266.278 403.53 269.887 401.147 271.354L385.849 280.777C384.998 281.301 383.963 281.388 383.052 281.012Z" fill="#356DEE" fill-opacity="0.43"/>
<path d="M406.725 266.189C403.739 265.923 402.844 261.908 405.404 260.265L436.143 240.543C436.772 240.139 437.51 239.957 438.244 240.025C441.468 240.322 442.403 244.675 439.615 246.413L408.636 265.728C408.061 266.087 407.391 266.249 406.725 266.189Z" fill="#356DEE" fill-opacity="0.43"/>
<path d="M392.746 286.735C390.541 286.81 389.696 283.844 391.58 282.639L419.787 264.597C420.141 264.371 420.545 264.246 420.958 264.233C423.34 264.158 424.234 267.373 422.187 268.653L393.81 286.408C393.487 286.609 393.121 286.722 392.746 286.735Z" fill="#356DEE" fill-opacity="0.43"/>
<path d="M383.714 277.869C381.332 276.907 381.059 273.561 383.246 272.142L398.645 262.154C399.558 261.562 400.687 261.451 401.68 261.856C404.246 262.901 404.496 266.529 402.104 268.003L386.489 277.625C385.645 278.145 384.619 278.235 383.714 277.869Z" fill="#356DEE" fill-opacity="0.76"/>
<path d="M407.551 262.952C404.538 262.727 403.607 258.679 406.187 257.024L437.951 236.652C438.566 236.257 439.286 236.074 440.004 236.13C443.257 236.382 444.232 240.771 441.424 242.522L409.418 262.487C408.856 262.838 408.203 263 407.551 262.952Z" fill="#356DEE" fill-opacity="0.76"/>
<path d="M393.422 283.569C391.211 283.656 390.356 280.682 392.244 279.474L420.822 261.198C421.171 260.975 421.571 260.849 421.98 260.834C424.368 260.747 425.274 263.97 423.221 265.254L394.474 283.243C394.155 283.442 393.793 283.555 393.422 283.569Z" fill="#356DEE" fill-opacity="0.76"/>
<g filter="url(#filter11_f_572_100)">
<path d="M411.637 266.117C408.752 265.986 407.805 262.111 410.271 260.531L442.222 240.054C442.775 239.7 443.419 239.526 444.066 239.558C447.182 239.709 448.177 243.909 445.493 245.584L413.314 265.674C412.809 265.99 412.225 266.144 411.637 266.117Z" fill="#356DEE" fill-opacity="0.43"/>
</g>
<g filter="url(#filter12_f_572_100)">
<path d="M391.612 289.799C388.8 289.548 387.958 285.767 390.369 284.22L419.298 265.658C419.891 265.278 420.587 265.106 421.278 265.17C424.314 265.451 425.193 269.55 422.569 271.186L393.413 289.365C392.87 289.703 392.239 289.855 391.612 289.799Z" fill="#356DEE" fill-opacity="0.43"/>
</g>
<g filter="url(#filter13_f_572_100)">
<path d="M380.913 284.422C378.583 283.592 378.255 280.352 380.363 278.987L396.506 268.537C397.328 268.005 398.337 267.885 399.245 268.211C401.757 269.114 402.07 272.627 399.766 274.05L383.414 284.148C382.657 284.616 381.74 284.716 380.913 284.422Z" fill="#356DEE" fill-opacity="0.43"/>
</g>
<path d="M365.19 267.108C358.179 264.373 357.278 254.818 363.653 250.82L409.275 222.203C411.903 220.554 415.158 220.252 418.045 221.389C425.599 224.362 426.442 234.717 419.468 238.873L402.966 248.708L373.206 266.443C370.78 267.89 367.821 268.135 365.19 267.108Z" fill="#356DEE" fill-opacity="0.43"/>
<path d="M365.698 260.954C358.609 258.285 357.643 248.653 364.061 244.629L411.151 215.11C413.745 213.484 416.951 213.167 419.812 214.254C427.452 217.157 428.366 227.598 421.347 231.784L404.265 241.97L373.613 260.25C371.219 261.677 368.306 261.936 365.698 260.954Z" fill="#356DEE" fill-opacity="0.76"/>
<path d="M446.828 80.7769C443.034 80.4057 441.949 75.3838 445.253 73.4799L481.117 52.8121C481.798 52.4198 482.583 52.2477 483.366 52.3194C487.057 52.6576 488.139 57.5332 484.938 59.4009L449.185 80.2614C448.473 80.6767 447.649 80.8571 446.828 80.7769Z" fill="#092AD0"/>
<path d="M454.745 85.8069C453.292 85.1206 453.208 83.0858 454.598 82.2809L462.416 77.7544C462.965 77.4367 463.635 77.4067 464.21 77.6741C465.627 78.3331 465.726 80.3101 464.382 81.1077L456.613 85.7188C456.044 86.0568 455.344 86.0898 454.745 85.8069Z" fill="#092AD0"/>
<path d="M470.02 77.6789C467.915 77.804 467.077 75.0056 468.905 73.9539L495.797 58.4777C496.054 58.3295 496.342 58.2425 496.639 58.2233C498.683 58.0913 499.509 60.8068 497.737 61.8352L470.904 77.4124C470.634 77.5691 470.331 77.6604 470.02 77.6789Z" fill="#092AD0"/>
<defs>
<filter id="filter0_d_572_100" x="0.702702" y="0.513241" width="1003.49" height="521.013" filterUnits="userSpaceOnUse" color-interpolation-filters="sRGB">
<feFlood flood-opacity="0" result="BackgroundImageFix"/>
<feColorMatrix in="SourceAlpha" type="matrix" values="0 0 0 0 0 0 0 0 0 0 0 0 0 0 0 0 0 0 127 0" result="hardAlpha"/>
<feOffset dy="23.811"/>
<feGaussianBlur stdDeviation="18.1486"/>
<feColorMatrix type="matrix" values="0 0 0 0 0 0 0 0 0 0 0 0 0 0 0 0 0 0 0.09 0"/>
<feBlend mode="normal" in2="BackgroundImageFix" result="effect1_dropShadow_572_100"/>
<feBlend mode="normal" in="SourceGraphic" in2="effect1_dropShadow_572_100" result="shape"/>
</filter>
<filter id="filter1_f_572_100" x="649.471" y="259.687" width="276.023" height="166.695" filterUnits="userSpaceOnUse" color-interpolation-filters="sRGB">
<feFlood flood-opacity="0" result="BackgroundImageFix"/>
<feBlend mode="normal" in="SourceGraphic" in2="BackgroundImageFix" result="shape"/>
<feGaussianBlur stdDeviation="3.5" result="effect1_foregroundBlur_572_100"/>
</filter>
<filter id="filter2_f_572_100" x="70.3281" y="262.95" width="212.369" height="103.607" filterUnits="userSpaceOnUse" color-interpolation-filters="sRGB">
<feFlood flood-opacity="0" result="BackgroundImageFix"/>
<feBlend mode="normal" in="SourceGraphic" in2="BackgroundImageFix" result="shape"/>
<feGaussianBlur stdDeviation="3.5" result="effect1_foregroundBlur_572_100"/>
</filter>
<filter id="filter3_f_572_100" x="224.816" y="118.192" width="97.9238" height="70.4243" filterUnits="userSpaceOnUse" color-interpolation-filters="sRGB">
<feFlood flood-opacity="0" result="BackgroundImageFix"/>
<feBlend mode="normal" in="SourceGraphic" in2="BackgroundImageFix" result="shape"/>
<feGaussianBlur stdDeviation="4" result="effect1_foregroundBlur_572_100"/>
</filter>
<filter id="filter4_f_572_100" x="291.363" y="121.998" width="62.8984" height="49.9546" filterUnits="userSpaceOnUse" color-interpolation-filters="sRGB">
<feFlood flood-opacity="0" result="BackgroundImageFix"/>
<feBlend mode="normal" in="SourceGraphic" in2="BackgroundImageFix" result="shape"/>
<feGaussianBlur stdDeviation="4" result="effect1_foregroundBlur_572_100"/>
</filter>
<filter id="filter5_f_572_100" x="298.012" y="90.2773" width="84.9688" height="62.8462" filterUnits="userSpaceOnUse" color-interpolation-filters="sRGB">
<feFlood flood-opacity="0" result="BackgroundImageFix"/>
<feBlend mode="normal" in="SourceGraphic" in2="BackgroundImageFix" result="shape"/>
<feGaussianBlur stdDeviation="4" result="effect1_foregroundBlur_572_100"/>
</filter>
<filter id="filter6_f_572_100" x="230.02" y="158.255" width="62.8984" height="49.9546" filterUnits="userSpaceOnUse" color-interpolation-filters="sRGB">
<feFlood flood-opacity="0" result="BackgroundImageFix"/>
<feBlend mode="normal" in="SourceGraphic" in2="BackgroundImageFix" result="shape"/>
<feGaussianBlur stdDeviation="4" result="effect1_foregroundBlur_572_100"/>
</filter>
<filter id="filter7_f_572_100" x="451.102" y="262.229" width="117.656" height="83.1445" filterUnits="userSpaceOnUse" color-interpolation-filters="sRGB">
<feFlood flood-opacity="0" result="BackgroundImageFix"/>
<feBlend mode="normal" in="SourceGraphic" in2="BackgroundImageFix" result="shape"/>
<feGaussianBlur stdDeviation="9" result="effect1_foregroundBlur_572_100"/>
</filter>
<filter id="filter8_f_572_100" x="501.701" y="218.394" width="64.6523" height="44.0898" filterUnits="userSpaceOnUse" color-interpolation-filters="sRGB">
<feFlood flood-opacity="0" result="BackgroundImageFix"/>
<feBlend mode="normal" in="SourceGraphic" in2="BackgroundImageFix" result="shape"/>
<feGaussianBlur stdDeviation="4" result="effect1_foregroundBlur_572_100"/>
</filter>
<filter id="filter9_f_572_100" x="543.234" y="248.684" width="48.6426" height="34.8467" filterUnits="userSpaceOnUse" color-interpolation-filters="sRGB">
<feFlood flood-opacity="0" result="BackgroundImageFix"/>
<feBlend mode="normal" in="SourceGraphic" in2="BackgroundImageFix" result="shape"/>
<feGaussianBlur stdDeviation="4" result="effect1_foregroundBlur_572_100"/>
</filter>
<filter id="filter10_f_572_100" x="354.593" y="224.765" width="74.5533" height="55.7427" filterUnits="userSpaceOnUse" color-interpolation-filters="sRGB">
<feFlood flood-opacity="0" result="BackgroundImageFix"/>
<feBlend mode="normal" in="SourceGraphic" in2="BackgroundImageFix" result="shape"/>
<feGaussianBlur stdDeviation="3.36" result="effect1_foregroundBlur_572_100"/>
</filter>
<filter id="filter11_f_572_100" x="402.135" y="232.834" width="51.6314" height="40.0064" filterUnits="userSpaceOnUse" color-interpolation-filters="sRGB">
<feFlood flood-opacity="0" result="BackgroundImageFix"/>
<feBlend mode="normal" in="SourceGraphic" in2="BackgroundImageFix" result="shape"/>
<feGaussianBlur stdDeviation="3.36" result="effect1_foregroundBlur_572_100"/>
</filter>
<filter id="filter12_f_572_100" x="382.235" y="258.437" width="48.608" height="38.0933" filterUnits="userSpaceOnUse" color-interpolation-filters="sRGB">
<feFlood flood-opacity="0" result="BackgroundImageFix"/>
<feBlend mode="normal" in="SourceGraphic" in2="BackgroundImageFix" result="shape"/>
<feGaussianBlur stdDeviation="3.36" result="effect1_foregroundBlur_572_100"/>
</filter>
<filter id="filter13_f_572_100" x="372.237" y="261.311" width="35.8072" height="29.9971" filterUnits="userSpaceOnUse" color-interpolation-filters="sRGB">
<feFlood flood-opacity="0" result="BackgroundImageFix"/>
<feBlend mode="normal" in="SourceGraphic" in2="BackgroundImageFix" result="shape"/>
<feGaussianBlur stdDeviation="3.36" result="effect1_foregroundBlur_572_100"/>
</filter>
<clipPath id="clip0_572_100">
<rect width="166.025" height="166.025" rx="10.1829" transform="matrix(0.866025 -0.500001 0.866025 0.500001 578.111 147.556)" fill="white"/>
</clipPath>
<clipPath id="clip1_572_100">
<rect width="209.925" height="209.925" rx="12.8754" transform="matrix(0.866025 -0.500001 0.866025 0.500001 604.299 339.292)" fill="white"/>
</clipPath>
<clipPath id="clip2_572_100">
<rect width="128.838" height="128.838" rx="7.90209" transform="matrix(0.866025 -0.500001 0.866025 0.500001 426.246 77.4189)" fill="white"/>
</clipPath>
<clipPath id="clip3_572_100">
<rect width="146.424" height="146.424" rx="8.98069" transform="matrix(0.866025 -0.500001 0.866025 0.500001 219.352 388.206)" fill="white"/>
</clipPath>
<clipPath id="clip4_572_100">
<rect width="158.943" height="158.943" rx="9.74854" transform="matrix(0.866025 -0.500001 0.866025 0.500001 37 293.564)" fill="white"/>
</clipPath>
<clipPath id="clip5_572_100">
<rect width="193.774" height="193.774" rx="11.8848" transform="matrix(0.866025 -0.500001 0.866025 0.500001 103.863 128.368)" fill="white"/>
</clipPath>
<clipPath id="clip6_572_100">
<rect width="215.542" height="215.542" rx="13.2199" transform="matrix(0.866025 -0.500001 0.866025 0.500001 312.277 259.72)" fill="white"/>
</clipPath>
</defs>
</svg>
