<svg width="29" height="30" viewBox="0 0 29 30" fill="none" xmlns="http://www.w3.org/2000/svg">
<path d="M26.9286 0H2.06496C0.92567 0 0 0.970982 0 2.16295V27.8371C0 29.029 0.92567 30 2.06496 30H26.9286C28.0679 30 29 29.029 29 27.8371V2.16295C29 0.970982 28.0679 0 26.9286 0ZM8.76473 25.7143H4.46652V11.3973H8.7712V25.7143H8.76473ZM6.61562 9.44196C5.23683 9.44196 4.12344 8.28348 4.12344 6.86384C4.12344 5.4442 5.23683 4.28571 6.61562 4.28571C7.98795 4.28571 9.10781 5.4442 9.10781 6.86384C9.10781 8.29018 7.99442 9.44196 6.61562 9.44196ZM24.8766 25.7143H20.5783V18.75C20.5783 17.0893 20.546 14.9531 18.3451 14.9531C16.1054 14.9531 15.7623 16.7612 15.7623 18.6295V25.7143H11.4641V11.3973H15.5875V13.3527H15.6458C16.2219 12.2277 17.6266 11.0424 19.7174 11.0424C24.0674 11.0424 24.8766 14.0089 24.8766 17.8661V25.7143Z" fill="black"/>
</svg>
