<svg width="300" height="81" viewBox="0 0 300 81" fill="none" xmlns="http://www.w3.org/2000/svg">
<rect width="300" height="81" rx="21" fill="white"/>
<circle cx="45" cy="40.2" r="24" fill="#C4C4C4"/>
<rect x="34.1992" y="43.2" width="21.6" height="12" rx="3" fill="white"/>
<circle cx="44.6992" cy="33.3" r="7.5" fill="white"/>
<path d="M80.0515 31.2H76.9577V22.4727H80.0771C80.9549 22.4727 81.7106 22.6474 82.3441 22.9968C82.9776 23.3434 83.4648 23.842 83.8058 24.4926C84.1495 25.1431 84.3214 25.9215 84.3214 26.8278C84.3214 27.7369 84.1495 28.5181 83.8058 29.1715C83.4648 29.825 82.9748 30.3264 82.3356 30.6758C81.6992 31.0252 80.9379 31.2 80.0515 31.2ZM78.8029 29.619H79.9748C80.5202 29.619 80.979 29.5224 81.3512 29.3292C81.7262 29.1332 82.0075 28.8306 82.195 28.4215C82.3853 28.0096 82.4805 27.4784 82.4805 26.8278C82.4805 26.1829 82.3853 25.6559 82.195 25.2468C82.0075 24.8377 81.7276 24.5366 81.3555 24.3434C80.9833 24.1502 80.5245 24.0536 79.979 24.0536H78.8029V29.619ZM87.5206 31.3235C87.103 31.3235 86.7308 31.2511 86.4041 31.1062C86.0774 30.9585 85.8189 30.7411 85.6286 30.4542C85.4411 30.1644 85.3473 29.8036 85.3473 29.3718C85.3473 29.0082 85.4141 28.7028 85.5476 28.4556C85.6811 28.2085 85.8629 28.0096 86.093 27.859C86.3232 27.7085 86.5845 27.5948 86.8771 27.5181C87.1726 27.4414 87.4822 27.3875 87.8061 27.3562C88.1868 27.3164 88.4936 27.2795 88.7266 27.2454C88.9595 27.2085 89.1286 27.1545 89.2337 27.0835C89.3388 27.0125 89.3913 26.9073 89.3913 26.7681V26.7426C89.3913 26.4727 89.3061 26.2639 89.1357 26.1161C88.968 25.9684 88.7294 25.8946 88.4197 25.8946C88.093 25.8946 87.8331 25.967 87.6399 26.1119C87.4467 26.2539 87.3189 26.4329 87.2564 26.6488L85.5774 26.5125C85.6626 26.1147 85.8303 25.771 86.0803 25.4812C86.3303 25.1886 86.6527 24.9642 87.0476 24.8079C87.4453 24.6488 87.9055 24.5693 88.4283 24.5693C88.7919 24.5693 89.1399 24.6119 89.4723 24.6971C89.8075 24.7823 90.1044 24.9144 90.3629 25.0934C90.6243 25.2724 90.8303 25.5025 90.9808 25.7838C91.1314 26.0622 91.2067 26.396 91.2067 26.7852V31.2H89.4851V30.2923H89.4339C89.3288 30.4968 89.1882 30.6772 89.0121 30.8335C88.8359 30.9869 88.6243 31.1076 88.3771 31.1957C88.13 31.2809 87.8445 31.3235 87.5206 31.3235ZM88.0405 30.0707C88.3075 30.0707 88.5433 30.0181 88.7479 29.913C88.9524 29.8051 89.1129 29.6602 89.2294 29.4784C89.3459 29.2965 89.4041 29.0906 89.4041 28.8605V28.1659C89.3473 28.2028 89.2692 28.2369 89.1697 28.2681C89.0732 28.2965 88.9638 28.3235 88.8416 28.3491C88.7195 28.3718 88.5973 28.3931 88.4751 28.413C88.353 28.4301 88.2422 28.4457 88.1428 28.4599C87.9297 28.4911 87.7436 28.5409 87.5845 28.609C87.4254 28.6772 87.3018 28.7696 87.2138 28.886C87.1257 28.9997 87.0817 29.1417 87.0817 29.3122C87.0817 29.5593 87.1712 29.7482 87.3501 29.8789C87.532 30.0068 87.7621 30.0707 88.0405 30.0707ZM98.483 24.6545L96.1946 31.2H94.1491L91.8608 24.6545H93.7784L95.1378 29.3377H95.206L96.5611 24.6545H98.483ZM99.4119 31.2V24.6545H101.227V31.2H99.4119ZM100.324 23.8107C100.054 23.8107 99.8224 23.7213 99.6293 23.5423C99.4389 23.3605 99.3438 23.1431 99.3438 22.8903C99.3438 22.6403 99.4389 22.4258 99.6293 22.2468C99.8224 22.065 100.054 21.9741 100.324 21.9741C100.594 21.9741 100.824 22.065 101.014 22.2468C101.207 22.4258 101.304 22.6403 101.304 22.8903C101.304 23.1431 101.207 23.3605 101.014 23.5423C100.824 23.7213 100.594 23.8107 100.324 23.8107ZM105.093 31.3065C104.596 31.3065 104.146 31.1786 103.743 30.923C103.342 30.6644 103.024 30.2852 102.788 29.7852C102.555 29.2823 102.439 28.6659 102.439 27.9357C102.439 27.1857 102.559 26.5622 102.801 26.065C103.042 25.565 103.363 25.1914 103.764 24.9443C104.167 24.6943 104.609 24.5693 105.089 24.5693C105.456 24.5693 105.761 24.6318 106.005 24.7568C106.252 24.8789 106.451 25.0323 106.602 25.217C106.755 25.3988 106.872 25.5778 106.951 25.7539H107.007V22.4727H108.818V31.2H107.028V30.1517H106.951C106.866 30.3335 106.745 30.5139 106.589 30.6928C106.436 30.869 106.235 31.0153 105.988 31.1318C105.744 31.2482 105.446 31.3065 105.093 31.3065ZM105.669 29.8619C105.961 29.8619 106.208 29.7823 106.41 29.6232C106.615 29.4613 106.771 29.2355 106.879 28.9457C106.99 28.6559 107.045 28.3164 107.045 27.9272C107.045 27.538 106.991 27.2 106.883 26.913C106.775 26.6261 106.619 26.4045 106.414 26.2482C106.21 26.092 105.961 26.0139 105.669 26.0139C105.37 26.0139 105.119 26.0948 104.914 26.2568C104.71 26.4187 104.555 26.6431 104.45 26.9301C104.345 27.217 104.292 27.5494 104.292 27.9272C104.292 28.3079 104.345 28.6446 104.45 28.9372C104.558 29.2269 104.713 29.4542 104.914 29.619C105.119 29.7809 105.37 29.8619 105.669 29.8619ZM113.122 22.4727H115.397L117.801 28.3363H117.903L120.306 22.4727H122.582V31.2H120.792V25.5196H120.72L118.461 31.1573H117.243L114.984 25.4982H114.912V31.2H113.122V22.4727ZM125.935 31.3235C125.517 31.3235 125.145 31.2511 124.818 31.1062C124.491 30.9585 124.233 30.7411 124.043 30.4542C123.855 30.1644 123.761 29.8036 123.761 29.3718C123.761 29.0082 123.828 28.7028 123.962 28.4556C124.095 28.2085 124.277 28.0096 124.507 27.859C124.737 27.7085 124.999 27.5948 125.291 27.5181C125.587 27.4414 125.896 27.3875 126.22 27.3562C126.601 27.3164 126.908 27.2795 127.141 27.2454C127.374 27.2085 127.543 27.1545 127.648 27.0835C127.753 27.0125 127.805 26.9073 127.805 26.7681V26.7426C127.805 26.4727 127.72 26.2639 127.55 26.1161C127.382 25.9684 127.143 25.8946 126.834 25.8946C126.507 25.8946 126.247 25.967 126.054 26.1119C125.861 26.2539 125.733 26.4329 125.67 26.6488L123.991 26.5125C124.077 26.1147 124.244 25.771 124.494 25.4812C124.744 25.1886 125.067 24.9642 125.462 24.8079C125.859 24.6488 126.32 24.5693 126.842 24.5693C127.206 24.5693 127.554 24.6119 127.886 24.6971C128.222 24.7823 128.518 24.9144 128.777 25.0934C129.038 25.2724 129.244 25.5025 129.395 25.7838C129.545 26.0622 129.621 26.396 129.621 26.7852V31.2H127.899V30.2923H127.848C127.743 30.4968 127.602 30.6772 127.426 30.8335C127.25 30.9869 127.038 31.1076 126.791 31.1957C126.544 31.2809 126.259 31.3235 125.935 31.3235ZM126.455 30.0707C126.722 30.0707 126.957 30.0181 127.162 29.913C127.366 29.8051 127.527 29.6602 127.643 29.4784C127.76 29.2965 127.818 29.0906 127.818 28.8605V28.1659C127.761 28.2028 127.683 28.2369 127.584 28.2681C127.487 28.2965 127.378 28.3235 127.256 28.3491C127.134 28.3718 127.011 28.3931 126.889 28.413C126.767 28.4301 126.656 28.4457 126.557 28.4599C126.344 28.4911 126.158 28.5409 125.999 28.609C125.839 28.6772 125.716 28.7696 125.628 28.886C125.54 28.9997 125.496 29.1417 125.496 29.3122C125.496 29.5593 125.585 29.7482 125.764 29.8789C125.946 30.0068 126.176 30.0707 126.455 30.0707ZM131.029 31.2V24.6545H132.789V25.7965H132.857C132.977 25.3903 133.177 25.0835 133.458 24.8761C133.739 24.6659 134.063 24.5607 134.43 24.5607C134.521 24.5607 134.619 24.5664 134.724 24.5778C134.829 24.5892 134.921 24.6048 135.001 24.6247V26.2355C134.915 26.2099 134.798 26.1872 134.647 26.1673C134.496 26.1474 134.359 26.1375 134.234 26.1375C133.967 26.1375 133.728 26.1957 133.518 26.3122C133.31 26.4258 133.146 26.5849 133.023 26.7894C132.904 26.994 132.844 27.2298 132.844 27.4968V31.2H131.029ZM139.749 24.6545V26.0181H135.807V24.6545H139.749ZM136.702 23.0863H138.517V29.1886C138.517 29.3562 138.543 29.4869 138.594 29.5806C138.645 29.6715 138.716 29.7355 138.807 29.7724C138.901 29.8093 139.009 29.8278 139.131 29.8278C139.216 29.8278 139.301 29.8207 139.387 29.8065C139.472 29.7894 139.537 29.7767 139.583 29.7681L139.868 31.119C139.777 31.1474 139.65 31.1801 139.485 31.217C139.32 31.2568 139.12 31.2809 138.884 31.2894C138.446 31.3065 138.063 31.2482 137.733 31.1147C137.407 30.9812 137.152 30.7738 136.971 30.4926C136.789 30.2113 136.699 29.8562 136.702 29.4272V23.0863ZM140.931 31.2V24.6545H142.747V31.2H140.931ZM141.843 23.8107C141.574 23.8107 141.342 23.7213 141.149 23.5423C140.958 23.3605 140.863 23.1431 140.863 22.8903C140.863 22.6403 140.958 22.4258 141.149 22.2468C141.342 22.065 141.574 21.9741 141.843 21.9741C142.113 21.9741 142.343 22.065 142.534 22.2468C142.727 22.4258 142.824 22.6403 142.824 22.8903C142.824 23.1431 142.727 23.3605 142.534 23.5423C142.343 23.7213 142.113 23.8107 141.843 23.8107ZM146.016 27.4159V31.2H144.201V24.6545H145.931V25.8093H146.008C146.153 25.4286 146.396 25.1275 146.737 24.9059C147.077 24.6815 147.491 24.5693 147.977 24.5693C148.431 24.5693 148.827 24.6687 149.165 24.8676C149.504 25.0664 149.766 25.3505 149.954 25.7198C150.141 26.0863 150.235 26.5238 150.235 27.0323V31.2H148.42V27.3562C148.423 26.9556 148.32 26.6431 148.113 26.4187C147.906 26.1914 147.62 26.0778 147.256 26.0778C147.012 26.0778 146.796 26.1303 146.609 26.2355C146.424 26.3406 146.279 26.494 146.174 26.6957C146.072 26.8946 146.019 27.1346 146.016 27.4159Z" fill="black"/>
<path d="M80.5935 38.2261C80.5663 37.9511 80.4492 37.7375 80.2424 37.5852C80.0356 37.4329 79.7549 37.3568 79.4004 37.3568C79.1594 37.3568 78.956 37.3909 78.7901 37.459C78.6242 37.525 78.4969 37.617 78.4083 37.7352C78.3219 37.8534 78.2788 37.9875 78.2788 38.1375C78.2742 38.2625 78.3004 38.3715 78.3572 38.4647C78.4163 38.5579 78.4969 38.6386 78.5992 38.7068C78.7015 38.7727 78.8197 38.8306 78.9538 38.8806C79.0879 38.9284 79.231 38.9693 79.3833 39.0034L80.0106 39.1534C80.3151 39.2215 80.5947 39.3125 80.8492 39.4261C81.1038 39.5397 81.3242 39.6795 81.5106 39.8454C81.6969 40.0113 81.8413 40.2068 81.9435 40.4318C82.0481 40.6568 82.1015 40.9147 82.1038 41.2056C82.1015 41.6329 81.9924 42.0034 81.7765 42.317C81.5629 42.6284 81.2538 42.8704 80.8492 43.0431C80.4469 43.2136 79.9617 43.2988 79.3935 43.2988C78.8299 43.2988 78.339 43.2125 77.9208 43.0397C77.5049 42.867 77.1799 42.6113 76.9458 42.2727C76.714 41.9318 76.5924 41.5102 76.581 41.0079H78.0094C78.0254 41.242 78.0924 41.4375 78.2106 41.5943C78.331 41.7488 78.4913 41.8659 78.6913 41.9454C78.8935 42.0227 79.1219 42.0613 79.3765 42.0613C79.6265 42.0613 79.8435 42.025 80.0276 41.9522C80.214 41.8795 80.3583 41.7784 80.4606 41.6488C80.5629 41.5193 80.614 41.3704 80.614 41.2022C80.614 41.0454 80.5674 40.9136 80.4742 40.8068C80.3833 40.7 80.2492 40.609 80.0719 40.534C79.8969 40.459 79.6822 40.3909 79.4276 40.3295L78.6674 40.1386C78.0788 39.9954 77.614 39.7715 77.2731 39.467C76.9322 39.1625 76.7629 38.7522 76.7651 38.2363C76.7629 37.8136 76.8754 37.4443 77.1026 37.1284C77.3322 36.8125 77.6469 36.5659 78.0469 36.3886C78.4469 36.2113 78.9015 36.1227 79.4106 36.1227C79.9288 36.1227 80.381 36.2113 80.7674 36.3886C81.156 36.5659 81.4583 36.8125 81.6742 37.1284C81.8901 37.4443 82.0015 37.8102 82.0083 38.2261H80.5935ZM85.4353 43.3022C84.9058 43.3022 84.4478 43.1897 84.0614 42.9647C83.6773 42.7375 83.3808 42.4215 83.1717 42.017C82.9626 41.6102 82.858 41.1386 82.858 40.6022C82.858 40.0613 82.9626 39.5886 83.1717 39.184C83.3808 38.7772 83.6773 38.4613 84.0614 38.2363C84.4478 38.009 84.9058 37.8954 85.4353 37.8954C85.9648 37.8954 86.4217 38.009 86.8058 38.2363C87.1921 38.4613 87.4898 38.7772 87.6989 39.184C87.908 39.5886 88.0126 40.0613 88.0126 40.6022C88.0126 41.1386 87.908 41.6102 87.6989 42.017C87.4898 42.4215 87.1921 42.7375 86.8058 42.9647C86.4217 43.1897 85.9648 43.3022 85.4353 43.3022ZM85.4421 42.1772C85.683 42.1772 85.8842 42.109 86.0455 41.9727C86.2069 41.834 86.3285 41.6454 86.4103 41.4068C86.4944 41.1681 86.5364 40.8965 86.5364 40.592C86.5364 40.2875 86.4944 40.0159 86.4103 39.7772C86.3285 39.5386 86.2069 39.35 86.0455 39.2113C85.8842 39.0727 85.683 39.0034 85.4421 39.0034C85.1989 39.0034 84.9944 39.0727 84.8285 39.2113C84.6648 39.35 84.541 39.5386 84.4569 39.7772C84.3751 40.0159 84.3342 40.2875 84.3342 40.592C84.3342 40.8965 84.3751 41.1681 84.4569 41.4068C84.541 41.6454 84.6648 41.834 84.8285 41.9727C84.9944 42.109 85.1989 42.1772 85.4421 42.1772ZM91.7728 37.9636V39.0545H88.541V37.9636H91.7728ZM89.2808 43.2V37.5852C89.2808 37.2056 89.3546 36.8909 89.5023 36.6409C89.6523 36.3909 89.8569 36.2034 90.116 36.0784C90.3751 35.9534 90.6694 35.8909 90.9989 35.8909C91.2217 35.8909 91.4251 35.9079 91.6092 35.942C91.7955 35.9761 91.9342 36.0068 92.0251 36.034L91.766 37.125C91.7092 37.1068 91.6387 37.0897 91.5546 37.0738C91.4728 37.0579 91.3887 37.05 91.3023 37.05C91.0887 37.05 90.9398 37.1 90.8558 37.2C90.7717 37.2977 90.7296 37.4352 90.7296 37.6125V43.2H89.2808ZM95.4452 37.9636V39.0545H92.2918V37.9636H95.4452ZM93.0077 36.709H94.46V41.5909C94.46 41.725 94.4805 41.8295 94.5214 41.9045C94.5623 41.9772 94.6191 42.0284 94.6918 42.0579C94.7668 42.0875 94.8532 42.1022 94.9509 42.1022C95.0191 42.1022 95.0873 42.0965 95.1555 42.0852C95.2237 42.0715 95.2759 42.0613 95.3123 42.0545L95.5407 43.1352C95.468 43.1579 95.3657 43.184 95.2339 43.2136C95.1021 43.2454 94.9418 43.2647 94.7532 43.2715C94.4032 43.2852 94.0964 43.2386 93.8327 43.1318C93.5714 43.025 93.368 42.859 93.2225 42.634C93.0771 42.409 93.0055 42.125 93.0077 41.7818V36.709ZM97.4242 43.2L95.9992 37.9636H97.4685L98.2799 41.4818H98.3276L99.1731 37.9636H100.615L101.474 41.4613H101.519L102.316 37.9636H103.782L102.361 43.2H100.823L99.9231 39.9068H99.8583L98.9583 43.2H97.4242ZM106.05 43.2988C105.716 43.2988 105.418 43.2409 105.157 43.125C104.896 43.0068 104.689 42.8329 104.536 42.6034C104.386 42.3715 104.311 42.0829 104.311 41.7375C104.311 41.4465 104.365 41.2022 104.472 41.0045C104.578 40.8068 104.724 40.6477 104.908 40.5272C105.092 40.4068 105.301 40.3159 105.535 40.2545C105.772 40.1931 106.019 40.15 106.278 40.125C106.583 40.0931 106.828 40.0636 107.015 40.0363C107.201 40.0068 107.336 39.9636 107.421 39.9068C107.505 39.85 107.547 39.7659 107.547 39.6545V39.634C107.547 39.4181 107.478 39.2511 107.342 39.1329C107.208 39.0147 107.017 38.9556 106.769 38.9556C106.508 38.9556 106.3 39.0136 106.146 39.1295C105.991 39.2431 105.889 39.3863 105.839 39.559L104.496 39.45C104.564 39.1318 104.698 38.8568 104.898 38.625C105.098 38.3909 105.356 38.2113 105.672 38.0863C105.99 37.959 106.358 37.8954 106.776 37.8954C107.067 37.8954 107.346 37.9295 107.611 37.9977C107.88 38.0659 108.117 38.1715 108.324 38.3147C108.533 38.4579 108.698 38.642 108.818 38.867C108.939 39.0897 108.999 39.3568 108.999 39.6681V43.2H107.622V42.4738H107.581C107.497 42.6375 107.384 42.7818 107.243 42.9068C107.102 43.0295 106.933 43.1261 106.735 43.1965C106.538 43.2647 106.309 43.2988 106.05 43.2988ZM106.466 42.2965C106.68 42.2965 106.868 42.2545 107.032 42.1704C107.196 42.084 107.324 41.9681 107.417 41.8227C107.51 41.6772 107.557 41.5125 107.557 41.3284V40.7727C107.511 40.8022 107.449 40.8295 107.369 40.8545C107.292 40.8772 107.205 40.8988 107.107 40.9193C107.009 40.9375 106.911 40.9545 106.814 40.9704C106.716 40.984 106.627 40.9965 106.548 41.0079C106.377 41.0329 106.228 41.0727 106.101 41.1272C105.974 41.1818 105.875 41.2556 105.805 41.3488C105.734 41.4397 105.699 41.5534 105.699 41.6897C105.699 41.8875 105.771 42.0386 105.914 42.1431C106.059 42.2454 106.243 42.2965 106.466 42.2965ZM110.126 43.2V37.9636H111.534V38.8772H111.588C111.684 38.5522 111.844 38.3068 112.069 38.1409C112.294 37.9727 112.553 37.8886 112.846 37.8886C112.919 37.8886 112.997 37.8931 113.081 37.9022C113.165 37.9113 113.239 37.9238 113.303 37.9397V39.2284C113.235 39.2079 113.14 39.1897 113.02 39.1738C112.9 39.1579 112.789 39.15 112.689 39.15C112.476 39.15 112.285 39.1965 112.117 39.2897C111.951 39.3806 111.819 39.5079 111.721 39.6715C111.626 39.8352 111.578 40.0238 111.578 40.2375V43.2H110.126ZM116.196 43.3022C115.658 43.3022 115.194 43.1931 114.805 42.975C114.419 42.7545 114.121 42.4431 113.912 42.0409C113.703 41.6363 113.599 41.1579 113.599 40.6056C113.599 40.067 113.703 39.5943 113.912 39.1875C114.121 38.7806 114.416 38.4636 114.795 38.2363C115.177 38.009 115.625 37.8954 116.138 37.8954C116.484 37.8954 116.805 37.9511 117.103 38.0625C117.403 38.1715 117.665 38.3363 117.887 38.5568C118.112 38.7772 118.287 39.0545 118.412 39.3886C118.537 39.7204 118.6 40.109 118.6 40.5545V40.9534H114.178V40.0534H117.233C117.233 39.8443 117.187 39.659 117.096 39.4977C117.005 39.3363 116.879 39.2102 116.718 39.1193C116.559 39.0261 116.374 38.9795 116.162 38.9795C115.942 38.9795 115.746 39.0306 115.576 39.1329C115.408 39.2329 115.276 39.3681 115.18 39.5386C115.085 39.7068 115.036 39.8943 115.034 40.1011V40.9568C115.034 41.2159 115.082 41.4397 115.177 41.6284C115.275 41.817 115.412 41.9625 115.59 42.0647C115.767 42.167 115.977 42.2181 116.22 42.2181C116.382 42.2181 116.529 42.1954 116.663 42.15C116.798 42.1045 116.912 42.0363 117.008 41.9454C117.103 41.8545 117.176 41.7431 117.226 41.6113L118.569 41.7C118.501 42.0227 118.361 42.3045 118.15 42.5454C117.941 42.784 117.67 42.9704 117.338 43.1045C117.009 43.2363 116.628 43.3022 116.196 43.3022ZM121.797 43.2V36.2181H126.501V37.4352H123.273V39.0988H126.259V40.3159H123.273V41.9829H126.515V43.2H121.797ZM129.1 40.1727V43.2H127.648V37.9636H129.032V38.8875H129.093C129.209 38.5829 129.403 38.342 129.676 38.1647C129.949 37.9852 130.279 37.8954 130.668 37.8954C131.032 37.8954 131.349 37.975 131.619 38.134C131.89 38.2931 132.1 38.5204 132.25 38.8159C132.4 39.109 132.475 39.459 132.475 39.8659V43.2H131.023V40.125C131.025 39.8045 130.943 39.5545 130.777 39.375C130.611 39.1931 130.383 39.1022 130.092 39.1022C129.896 39.1022 129.724 39.1443 129.574 39.2284C129.426 39.3125 129.31 39.4352 129.226 39.5965C129.144 39.7556 129.102 39.9477 129.1 40.1727ZM135.978 45.2727C135.508 45.2727 135.105 45.2079 134.768 45.0784C134.434 44.9511 134.168 44.7772 133.971 44.5568C133.773 44.3363 133.644 44.0886 133.585 43.8136L134.928 43.6329C134.969 43.7375 135.034 43.8352 135.123 43.9261C135.211 44.017 135.328 44.0897 135.474 44.1443C135.622 44.2011 135.801 44.2295 136.013 44.2295C136.328 44.2295 136.589 44.1522 136.793 43.9977C137 43.8454 137.103 43.5897 137.103 43.2306V42.2727H137.042C136.978 42.4181 136.883 42.5556 136.756 42.6852C136.628 42.8147 136.465 42.9204 136.265 43.0022C136.065 43.084 135.826 43.125 135.549 43.125C135.156 43.125 134.798 43.034 134.475 42.8522C134.155 42.6681 133.899 42.3875 133.708 42.0102C133.519 41.6306 133.425 41.1511 133.425 40.5715C133.425 39.9784 133.522 39.4829 133.715 39.0852C133.908 38.6875 134.165 38.3897 134.485 38.192C134.808 37.9943 135.161 37.8954 135.546 37.8954C135.839 37.8954 136.084 37.9454 136.282 38.0454C136.48 38.1431 136.639 38.2659 136.759 38.4136C136.882 38.559 136.976 38.7022 137.042 38.8431H137.097V37.9636H138.539V43.2511C138.539 43.6965 138.43 44.0693 138.211 44.3693C137.993 44.6693 137.691 44.8943 137.305 45.0443C136.921 45.1965 136.478 45.2727 135.978 45.2727ZM136.009 42.034C136.243 42.034 136.441 41.9761 136.602 41.8602C136.766 41.742 136.891 41.5738 136.977 41.3556C137.066 41.1352 137.11 40.8715 137.11 40.5647C137.11 40.2579 137.067 39.992 136.981 39.767C136.894 39.5397 136.769 39.3636 136.606 39.2386C136.442 39.1136 136.243 39.0511 136.009 39.0511C135.771 39.0511 135.569 39.1159 135.406 39.2454C135.242 39.3727 135.118 39.55 135.034 39.7772C134.95 40.0045 134.908 40.267 134.908 40.5647C134.908 40.867 134.95 41.1284 135.034 41.3488C135.121 41.567 135.244 41.7363 135.406 41.8568C135.569 41.975 135.771 42.034 136.009 42.034ZM139.694 43.2V37.9636H141.147V43.2H139.694ZM140.424 37.2886C140.208 37.2886 140.023 37.217 139.868 37.0738C139.716 36.9284 139.64 36.7545 139.64 36.5522C139.64 36.3522 139.716 36.1806 139.868 36.0375C140.023 35.892 140.208 35.8193 140.424 35.8193C140.64 35.8193 140.824 35.892 140.976 36.0375C141.131 36.1806 141.208 36.3522 141.208 36.5522C141.208 36.7545 141.131 36.9284 140.976 37.0738C140.824 37.217 140.64 37.2886 140.424 37.2886ZM143.762 40.1727V43.2H142.31V37.9636H143.694V38.8875H143.755C143.871 38.5829 144.066 38.342 144.338 38.1647C144.611 37.9852 144.942 37.8954 145.33 37.8954C145.694 37.8954 146.011 37.975 146.282 38.134C146.552 38.2931 146.762 38.5204 146.912 38.8159C147.062 39.109 147.137 39.459 147.137 39.8659V43.2H145.685V40.125C145.687 39.8045 145.605 39.5545 145.44 39.375C145.274 39.1931 145.045 39.1022 144.754 39.1022C144.559 39.1022 144.386 39.1443 144.236 39.2284C144.088 39.3125 143.973 39.4352 143.888 39.5965C143.807 39.7556 143.765 39.9477 143.762 40.1727ZM150.668 43.3022C150.13 43.3022 149.666 43.1931 149.277 42.975C148.891 42.7545 148.593 42.4431 148.384 42.0409C148.175 41.6363 148.071 41.1579 148.071 40.6056C148.071 40.067 148.175 39.5943 148.384 39.1875C148.593 38.7806 148.888 38.4636 149.267 38.2363C149.649 38.009 150.097 37.8954 150.61 37.8954C150.956 37.8954 151.277 37.9511 151.575 38.0625C151.875 38.1715 152.136 38.3363 152.359 38.5568C152.584 38.7772 152.759 39.0545 152.884 39.3886C153.009 39.7204 153.072 40.109 153.072 40.5545V40.9534H148.65V40.0534H151.705C151.705 39.8443 151.659 39.659 151.568 39.4977C151.477 39.3363 151.351 39.2102 151.19 39.1193C151.031 39.0261 150.846 38.9795 150.634 38.9795C150.414 38.9795 150.218 39.0306 150.048 39.1329C149.88 39.2329 149.748 39.3681 149.652 39.5386C149.557 39.7068 149.508 39.8943 149.506 40.1011V40.9568C149.506 41.2159 149.553 41.4397 149.649 41.6284C149.747 41.817 149.884 41.9625 150.061 42.0647C150.239 42.167 150.449 42.2181 150.692 42.2181C150.853 42.2181 151.001 42.1954 151.135 42.15C151.269 42.1045 151.384 42.0363 151.48 41.9454C151.575 41.8545 151.648 41.7431 151.698 41.6113L153.041 41.7C152.973 42.0227 152.833 42.3045 152.622 42.5454C152.413 42.784 152.142 42.9704 151.81 43.1045C151.481 43.2363 151.1 43.3022 150.668 43.3022ZM156.406 43.3022C155.867 43.3022 155.403 43.1931 155.015 42.975C154.628 42.7545 154.331 42.4431 154.122 42.0409C153.913 41.6363 153.808 41.1579 153.808 40.6056C153.808 40.067 153.913 39.5943 154.122 39.1875C154.331 38.7806 154.625 38.4636 155.005 38.2363C155.386 38.009 155.834 37.8954 156.348 37.8954C156.693 37.8954 157.015 37.9511 157.313 38.0625C157.613 38.1715 157.874 38.3363 158.097 38.5568C158.322 38.7772 158.497 39.0545 158.622 39.3886C158.747 39.7204 158.809 40.109 158.809 40.5545V40.9534H154.388V40.0534H157.442C157.442 39.8443 157.397 39.659 157.306 39.4977C157.215 39.3363 157.089 39.2102 156.927 39.1193C156.768 39.0261 156.583 38.9795 156.372 38.9795C156.151 38.9795 155.956 39.0306 155.785 39.1329C155.617 39.2329 155.485 39.3681 155.39 39.5386C155.294 39.7068 155.246 39.8943 155.243 40.1011V40.9568C155.243 41.2159 155.291 41.4397 155.386 41.6284C155.484 41.817 155.622 41.9625 155.799 42.0647C155.976 42.167 156.186 42.2181 156.43 42.2181C156.591 42.2181 156.739 42.1954 156.873 42.15C157.007 42.1045 157.122 42.0363 157.217 41.9454C157.313 41.8545 157.385 41.7431 157.435 41.6113L158.778 41.7C158.71 42.0227 158.571 42.3045 158.359 42.5454C158.15 42.784 157.88 42.9704 157.548 43.1045C157.218 43.2363 156.838 43.3022 156.406 43.3022ZM159.757 43.2V37.9636H161.165V38.8772H161.219C161.315 38.5522 161.475 38.3068 161.7 38.1409C161.925 37.9727 162.184 37.8886 162.477 37.8886C162.55 37.8886 162.628 37.8931 162.713 37.9022C162.797 37.9113 162.871 37.9238 162.934 37.9397V39.2284C162.866 39.2079 162.772 39.1897 162.651 39.1738C162.531 39.1579 162.421 39.15 162.321 39.15C162.107 39.15 161.916 39.1965 161.748 39.2897C161.582 39.3806 161.45 39.5079 161.352 39.6715C161.257 39.8352 161.209 40.0238 161.209 40.2375V43.2H159.757Z" fill="#092AD0"/>
<rect x="76.4992" y="49.5" width="35.4" height="14.4" rx="2.7" fill="#092AD0" fill-opacity="0.56" stroke="#092AD0" stroke-width="0.6"/>
<path d="M82.8191 59.2L83.6782 53.9636H84.4964L83.6373 59.2H82.8191ZM80.4745 57.9011L80.61 57.0829H84.701L84.5654 57.9011H80.4745ZM80.9782 59.2L81.8373 53.9636H82.6555L81.7964 59.2H80.9782ZM80.7737 56.0806L80.9118 55.2625H85.0027L84.8646 56.0806H80.7737ZM87.1977 59.2V53.9636H89.2636C89.6591 53.9636 89.9966 54.0343 90.2761 54.1758C90.5574 54.3156 90.7713 54.5142 90.9179 54.7715C91.0662 55.0272 91.1403 55.3281 91.1403 55.6741C91.1403 56.0218 91.0653 56.321 90.9153 56.5715C90.7653 56.8204 90.548 57.0113 90.2633 57.1443C89.9804 57.2772 89.6377 57.3437 89.2355 57.3437H87.8522V56.4539H89.0565C89.2679 56.4539 89.4434 56.425 89.5832 56.367C89.723 56.309 89.827 56.2221 89.8951 56.1062C89.965 55.9903 90 55.8463 90 55.6741C90 55.5002 89.965 55.3536 89.8951 55.2343C89.827 55.115 89.7221 55.0247 89.5806 54.9633C89.4409 54.9002 89.2645 54.8687 89.0514 54.8687H88.3048V59.2H87.1977ZM90.0255 56.817L91.327 59.2H90.1048L88.8315 56.817H90.0255ZM93.6287 59.2767C93.2248 59.2767 92.877 59.1948 92.5855 59.0312C92.2958 58.8659 92.0725 58.6323 91.9157 58.3306C91.7588 58.0272 91.6804 57.6684 91.6804 57.2542C91.6804 56.8502 91.7588 56.4957 91.9157 56.1906C92.0725 55.8855 92.2932 55.6477 92.5779 55.4772C92.8642 55.3068 93.2 55.2215 93.5853 55.2215C93.8444 55.2215 94.0855 55.2633 94.3088 55.3468C94.5338 55.4286 94.7299 55.5522 94.8969 55.7176C95.0657 55.8829 95.1969 56.0909 95.2907 56.3414C95.3844 56.5903 95.4313 56.8818 95.4313 57.2159V57.515H92.1151V56.84H94.406C94.406 56.6832 94.3719 56.5443 94.3037 56.4232C94.2355 56.3022 94.1409 56.2076 94.0199 56.1394C93.9006 56.0696 93.7617 56.0346 93.6032 56.0346C93.4378 56.0346 93.2912 56.073 93.1634 56.1497C93.0373 56.2247 92.9384 56.3261 92.8668 56.4539C92.7952 56.5801 92.7586 56.7207 92.7569 56.8758V57.5176C92.7569 57.7119 92.7926 57.8798 92.8642 58.0213C92.9375 58.1627 93.0407 58.2718 93.1736 58.3485C93.3066 58.4252 93.4642 58.4636 93.6466 58.4636C93.7676 58.4636 93.8784 58.4465 93.979 58.4125C94.0796 58.3784 94.1657 58.3272 94.2373 58.259C94.3088 58.1909 94.3634 58.1073 94.4009 58.0085L95.4083 58.075C95.3571 58.317 95.2523 58.5284 95.0938 58.709C94.937 58.888 94.7341 59.0278 94.4853 59.1284C94.2381 59.2272 93.9526 59.2767 93.6287 59.2767ZM97.262 59.2741C97.0114 59.2741 96.7881 59.2306 96.5921 59.1437C96.3961 59.0551 96.2409 58.9247 96.1267 58.7525C96.0142 58.5786 95.958 58.3622 95.958 58.1031C95.958 57.8849 95.998 57.7017 96.0782 57.5534C96.1583 57.4051 96.2674 57.2857 96.4054 57.1954C96.5435 57.1051 96.7003 57.0369 96.8759 56.9909C97.0532 56.9448 97.239 56.9125 97.4333 56.8937C97.6617 56.8698 97.8458 56.8477 97.9855 56.8272C98.1253 56.8051 98.2267 56.7727 98.2898 56.7301C98.3529 56.6875 98.3844 56.6244 98.3844 56.5409V56.5255C98.3844 56.3636 98.3333 56.2383 98.231 56.1497C98.1304 56.061 97.9873 56.0167 97.8015 56.0167C97.6054 56.0167 97.4495 56.0602 97.3336 56.1471C97.2176 56.2323 97.1409 56.3397 97.1034 56.4693L96.0961 56.3875C96.1472 56.1488 96.2478 55.9426 96.3978 55.7687C96.5478 55.5931 96.7412 55.4585 96.9782 55.3647C97.2168 55.2693 97.4929 55.2215 97.8066 55.2215C98.0248 55.2215 98.2336 55.2471 98.433 55.2982C98.6341 55.3494 98.8123 55.4286 98.9674 55.536C99.1242 55.6434 99.2478 55.7815 99.3381 55.9502C99.4284 56.1173 99.4736 56.3176 99.4736 56.5511V59.2H98.4407V58.6553H98.41C98.3469 58.7781 98.2625 58.8863 98.1569 58.9801C98.0512 59.0721 97.9242 59.1446 97.7759 59.1974C97.6276 59.2485 97.4563 59.2741 97.262 59.2741ZM97.5739 58.5224C97.7341 58.5224 97.8756 58.4909 97.9983 58.4278C98.1211 58.363 98.2174 58.2761 98.2873 58.167C98.3571 58.0579 98.3921 57.9343 98.3921 57.7963V57.3795C98.358 57.4017 98.3111 57.4221 98.2515 57.4409C98.1935 57.4579 98.1279 57.4741 98.0546 57.4894C97.9813 57.5031 97.908 57.5159 97.8347 57.5278C97.7614 57.538 97.6949 57.5474 97.6353 57.5559C97.5074 57.5747 97.3958 57.6045 97.3003 57.6454C97.2049 57.6863 97.1307 57.7417 97.0779 57.8116C97.025 57.8798 96.9986 57.965 96.9986 58.0673C96.9986 58.2156 97.0523 58.3289 97.1597 58.4073C97.2688 58.484 97.4069 58.5224 97.5739 58.5224ZM102.093 59.2767C101.691 59.2767 101.345 59.1914 101.055 59.021C100.767 58.8488 100.545 58.6102 100.39 58.3051C100.237 58 100.16 57.6488 100.16 57.2517C100.16 56.8494 100.238 56.4965 100.393 56.1931C100.55 55.888 100.772 55.6502 101.06 55.4798C101.348 55.3076 101.691 55.2215 102.088 55.2215C102.431 55.2215 102.731 55.2838 102.988 55.4082C103.245 55.5326 103.449 55.7073 103.599 55.9323C103.749 56.1573 103.832 56.4215 103.847 56.725H102.819C102.79 56.5289 102.714 56.3713 102.589 56.2519C102.466 56.1309 102.305 56.0704 102.106 56.0704C101.937 56.0704 101.79 56.1164 101.664 56.2085C101.539 56.2988 101.442 56.4309 101.372 56.6048C101.302 56.7786 101.267 56.9892 101.267 57.2363C101.267 57.4869 101.301 57.7 101.369 57.8755C101.439 58.0511 101.537 58.1849 101.664 58.2769C101.79 58.369 101.937 58.415 102.106 58.415C102.23 58.415 102.342 58.3894 102.441 58.3383C102.541 58.2872 102.624 58.213 102.689 58.1159C102.755 58.017 102.799 57.8985 102.819 57.7605H103.847C103.83 58.0605 103.748 58.3247 103.602 58.5531C103.457 58.7798 103.256 58.9571 103.001 59.0849C102.745 59.2127 102.443 59.2767 102.093 59.2767ZM106.633 55.2727V56.0909H104.268V55.2727H106.633ZM104.805 54.3318H105.894V57.9931C105.894 58.0937 105.91 58.1721 105.94 58.2284C105.971 58.2829 106.014 58.3213 106.068 58.3434C106.125 58.3656 106.189 58.3767 106.263 58.3767C106.314 58.3767 106.365 58.3724 106.416 58.3639C106.467 58.3536 106.506 58.346 106.534 58.3409L106.705 59.1514C106.65 59.1684 106.574 59.188 106.475 59.2102C106.376 59.234 106.256 59.2485 106.114 59.2536C105.852 59.2639 105.622 59.2289 105.424 59.1488C105.228 59.0687 105.075 58.9443 104.966 58.7755C104.857 58.6068 104.804 58.3937 104.805 58.1363V54.3318Z" fill="white"/>
<rect x="117.9" y="49.5" width="56.4" height="14.4" rx="2.7" fill="#092AD0" fill-opacity="0.56" stroke="#092AD0" stroke-width="0.6"/>
<path d="M126.018 59.2L126.877 53.9636H127.696L126.837 59.2H126.018ZM123.674 57.9011L123.809 57.0829H127.9L127.765 57.9011H123.674ZM124.177 59.2L125.037 53.9636H125.855L124.996 59.2H124.177ZM123.973 56.0806L124.111 55.2625H128.202L128.064 56.0806H123.973ZM123.855 63.8764V62.9636H128.156V63.8764H126.553V68.2H125.458V63.8764H123.855ZM129.066 69.6727C128.928 69.6727 128.798 69.6616 128.677 69.6394C128.558 69.619 128.459 69.5926 128.381 69.5602L128.626 68.7471C128.754 68.7863 128.869 68.8076 128.971 68.811C129.075 68.8144 129.165 68.7906 129.24 68.7394C129.317 68.6883 129.379 68.6014 129.427 68.4786L129.491 68.3125L128.082 64.2727H129.227L130.04 67.1568H130.081L130.902 64.2727H132.055L130.529 68.6244C130.455 68.8357 130.356 69.0198 130.229 69.1767C130.105 69.3352 129.947 69.4571 129.756 69.5423C129.566 69.6292 129.335 69.6727 129.066 69.6727ZM132.612 69.6727V64.2727H133.686V64.9323H133.735C133.783 64.8267 133.852 64.7193 133.942 64.6102C134.034 64.4994 134.153 64.4073 134.3 64.334C134.448 64.259 134.632 64.2215 134.852 64.2215C135.139 64.2215 135.403 64.2965 135.645 64.4465C135.887 64.5948 136.08 64.819 136.225 65.119C136.37 65.4173 136.443 65.7914 136.443 66.2414C136.443 66.6795 136.372 67.0494 136.23 67.3511C136.091 67.6511 135.9 67.8786 135.658 68.0338C135.417 68.1872 135.148 68.2639 134.85 68.2639C134.638 68.2639 134.458 68.2289 134.31 68.159C134.164 68.0892 134.043 68.0014 133.95 67.8957C133.856 67.7883 133.784 67.6801 133.735 67.571H133.702V69.6727H132.612ZM133.679 66.2363C133.679 66.4698 133.711 66.6735 133.776 66.8474C133.841 67.0213 133.934 67.1568 134.057 67.2539C134.18 67.3494 134.329 67.3971 134.504 67.3971C134.682 67.3971 134.832 67.3485 134.954 67.2514C135.077 67.1525 135.17 67.0161 135.233 66.8423C135.298 66.6667 135.33 66.4647 135.33 66.2363C135.33 66.0096 135.299 65.8102 135.236 65.638C135.173 65.4659 135.08 65.3312 134.957 65.234C134.834 65.1369 134.683 65.0883 134.504 65.0883C134.327 65.0883 134.177 65.1352 134.054 65.2289C133.933 65.3227 133.841 65.4556 133.776 65.6278C133.711 65.8 133.679 66.0028 133.679 66.2363ZM138.958 68.2767C138.554 68.2767 138.207 68.1948 137.915 68.0312C137.625 67.8659 137.402 67.6323 137.245 67.3306C137.089 67.0272 137.01 66.6684 137.01 66.2542C137.01 65.8502 137.089 65.4957 137.245 65.1906C137.402 64.8855 137.623 64.6477 137.908 64.4772C138.194 64.3068 138.53 64.2215 138.915 64.2215C139.174 64.2215 139.415 64.2633 139.639 64.3468C139.864 64.4286 140.06 64.5522 140.227 64.7176C140.395 64.8829 140.527 65.0909 140.62 65.3414C140.714 65.5903 140.761 65.8818 140.761 66.2159V66.515H137.445V65.84H139.736C139.736 65.6832 139.702 65.5443 139.633 65.4232C139.565 65.3022 139.471 65.2076 139.35 65.1394C139.23 65.0696 139.091 65.0346 138.933 65.0346C138.768 65.0346 138.621 65.073 138.493 65.1497C138.367 65.2247 138.268 65.3261 138.196 65.4539C138.125 65.5801 138.088 65.7207 138.087 65.8758V66.5176C138.087 66.7119 138.122 66.8798 138.194 67.0213C138.267 67.1627 138.37 67.2718 138.503 67.3485C138.636 67.4252 138.794 67.4636 138.976 67.4636C139.097 67.4636 139.208 67.4465 139.309 67.4125C139.409 67.3784 139.495 67.3272 139.567 67.259C139.639 67.1909 139.693 67.1073 139.731 67.0085L140.738 67.075C140.687 67.317 140.582 67.5284 140.423 67.709C140.267 67.888 140.064 68.0278 139.815 68.1284C139.568 68.2272 139.282 68.2767 138.958 68.2767ZM144.739 65.3926L143.742 65.4539C143.725 65.3687 143.689 65.292 143.632 65.2238C143.576 65.1539 143.502 65.0985 143.41 65.0576C143.319 65.015 143.211 64.9937 143.085 64.9937C142.916 64.9937 142.774 65.0295 142.658 65.1011C142.542 65.171 142.484 65.2647 142.484 65.3823C142.484 65.4761 142.522 65.5553 142.597 65.6201C142.672 65.6849 142.8 65.7369 142.983 65.7761L143.694 65.9193C144.075 65.9977 144.36 66.1238 144.548 66.2977C144.735 66.4715 144.829 66.7 144.829 66.9829C144.829 67.2403 144.753 67.4661 144.601 67.6605C144.451 67.8548 144.245 68.0065 143.983 68.1156C143.722 68.223 143.421 68.2767 143.08 68.2767C142.56 68.2767 142.146 68.1684 141.837 67.9519C141.531 67.7338 141.351 67.4372 141.298 67.0622L142.369 67.0059C142.402 67.1644 142.48 67.2855 142.604 67.369C142.729 67.4508 142.888 67.4917 143.083 67.4917C143.273 67.4917 143.427 67.4551 143.543 67.3818C143.66 67.3068 143.72 67.2105 143.722 67.0928C143.72 66.994 143.678 66.913 143.596 66.85C143.515 66.7852 143.389 66.7357 143.218 66.7017L142.538 66.5661C142.154 66.4894 141.869 66.3565 141.681 66.1673C141.496 65.9781 141.403 65.7369 141.403 65.4437C141.403 65.1914 141.471 64.9741 141.607 64.7917C141.745 64.6093 141.939 64.4687 142.188 64.3698C142.438 64.271 142.731 64.2215 143.067 64.2215C143.563 64.2215 143.954 64.3264 144.238 64.536C144.525 64.7457 144.692 65.0312 144.739 65.3926ZM147.289 68.2767C146.887 68.2767 146.541 68.1914 146.251 68.021C145.963 67.8488 145.741 67.6102 145.586 67.3051C145.433 67 145.356 66.6488 145.356 66.2517C145.356 65.8494 145.434 65.4965 145.589 65.1931C145.746 64.888 145.968 64.6502 146.256 64.4798C146.544 64.3076 146.887 64.2215 147.284 64.2215C147.627 64.2215 147.927 64.2838 148.184 64.4082C148.441 64.5326 148.645 64.7073 148.795 64.9323C148.945 65.1573 149.028 65.4215 149.043 65.725H148.015C147.986 65.5289 147.91 65.3713 147.785 65.2519C147.662 65.1309 147.501 65.0704 147.302 65.0704C147.133 65.0704 146.986 65.1164 146.86 65.2085C146.735 65.2988 146.638 65.4309 146.568 65.6048C146.498 65.7786 146.463 65.9892 146.463 66.2363C146.463 66.4869 146.497 66.7 146.566 66.8755C146.635 67.0511 146.733 67.1849 146.86 67.2769C146.986 67.369 147.133 67.415 147.302 67.415C147.426 67.415 147.538 67.3894 147.637 67.3383C147.737 67.2872 147.82 67.213 147.885 67.1159C147.951 67.017 147.995 66.8985 148.015 66.7605H149.043C149.026 67.0605 148.944 67.3247 148.798 67.5531C148.653 67.7798 148.453 67.9571 148.197 68.0849C147.941 68.2127 147.639 68.2767 147.289 68.2767ZM149.741 68.2V64.2727H150.796V64.9579H150.837C150.909 64.7142 151.029 64.5301 151.198 64.4056C151.367 64.2795 151.561 64.2164 151.781 64.2164C151.835 64.2164 151.894 64.2198 151.957 64.2267C152.02 64.2335 152.076 64.2428 152.123 64.2548V65.2213C152.072 65.2059 152.002 65.1923 151.911 65.1803C151.821 65.1684 151.738 65.1625 151.663 65.1625C151.503 65.1625 151.36 65.1974 151.234 65.2673C151.109 65.3355 151.01 65.4309 150.937 65.5536C150.866 65.6764 150.83 65.8178 150.83 65.9781V68.2H149.741ZM124.034 77.2V73.2727H125.123V77.2H124.034ZM124.581 72.7664C124.419 72.7664 124.281 72.7127 124.165 72.6053C124.05 72.4963 123.993 72.3659 123.993 72.2142C123.993 72.0642 124.05 71.9355 124.165 71.8281C124.281 71.719 124.419 71.6644 124.581 71.6644C124.743 71.6644 124.881 71.719 124.996 71.8281C125.112 71.9355 125.169 72.0642 125.169 72.2142C125.169 72.3659 125.112 72.4963 124.996 72.6053C124.881 72.7127 124.743 72.7664 124.581 72.7664ZM125.996 78.6727V73.2727H127.07V73.9323H127.118C127.166 73.8267 127.235 73.7193 127.326 73.6102C127.418 73.4994 127.537 73.4073 127.683 73.334C127.832 73.259 128.016 73.2215 128.236 73.2215C128.522 73.2215 128.786 73.2965 129.028 73.4465C129.27 73.5948 129.464 73.819 129.609 74.119C129.754 74.4173 129.826 74.7914 129.826 75.2414C129.826 75.6795 129.755 76.0494 129.614 76.3511C129.474 76.6511 129.283 76.8786 129.041 77.0338C128.801 77.1872 128.531 77.2639 128.233 77.2639C128.022 77.2639 127.842 77.2289 127.694 77.159C127.547 77.0892 127.427 77.0014 127.333 76.8957C127.239 76.7883 127.168 76.6801 127.118 76.571H127.085V78.6727H125.996ZM127.062 75.2363C127.062 75.4698 127.095 75.6735 127.159 75.8474C127.224 76.0213 127.318 76.1568 127.441 76.2539C127.563 76.3494 127.712 76.3971 127.888 76.3971C128.065 76.3971 128.215 76.3485 128.338 76.2514C128.461 76.1525 128.554 76.0161 128.617 75.8423C128.681 75.6667 128.714 75.4647 128.714 75.2363C128.714 75.0096 128.682 74.8102 128.619 74.638C128.556 74.4659 128.463 74.3312 128.341 74.234C128.218 74.1369 128.067 74.0883 127.888 74.0883C127.711 74.0883 127.561 74.1352 127.438 74.2289C127.317 74.3227 127.224 74.4556 127.159 74.6278C127.095 74.8 127.062 75.0028 127.062 75.2363ZM132.641 73.2727V74.0909H130.276V73.2727H132.641ZM130.813 72.3318H131.902V75.9931C131.902 76.0937 131.918 76.1721 131.948 76.2284C131.979 76.2829 132.022 76.3213 132.076 76.3434C132.132 76.3656 132.197 76.3767 132.27 76.3767C132.322 76.3767 132.373 76.3724 132.424 76.3639C132.475 76.3536 132.514 76.346 132.541 76.3409L132.713 77.1514C132.658 77.1684 132.581 77.188 132.483 77.2102C132.384 77.234 132.264 77.2485 132.122 77.2536C131.86 77.2639 131.63 77.2289 131.432 77.1488C131.236 77.0687 131.083 76.9443 130.974 76.7755C130.865 76.6068 130.811 76.3937 130.813 76.1363V72.3318Z" fill="white"/>
<rect x="180.3" y="49.5" width="53.4" height="14.4" rx="2.7" fill="#092AD0" fill-opacity="0.56" stroke="#092AD0" stroke-width="0.6"/>
<path d="M190.22 59.2L191.079 53.9636H191.897L191.038 59.2H190.22ZM187.875 57.9011L188.01 57.0829H192.101L191.966 57.9011H187.875ZM188.379 59.2L189.238 53.9636H190.056L189.197 59.2H188.379ZM188.174 56.0806L188.312 55.2625H192.403L192.265 56.0806H188.174ZM198.07 55.6562C198.034 55.5318 197.984 55.4218 197.919 55.3264C197.855 55.2292 197.775 55.1474 197.682 55.0809C197.59 55.0127 197.484 54.9607 197.365 54.925C197.247 54.8892 197.117 54.8713 196.973 54.8713C196.706 54.8713 196.471 54.9377 196.268 55.0707C196.067 55.2036 195.91 55.3971 195.797 55.6511C195.685 55.9034 195.628 56.2119 195.628 56.5767C195.628 56.9414 195.684 57.2517 195.795 57.5073C195.905 57.763 196.062 57.9582 196.265 58.0928C196.468 58.2258 196.707 58.2923 196.984 58.2923C197.234 58.2923 197.448 58.248 197.625 58.1593C197.804 58.069 197.941 57.942 198.034 57.7784C198.13 57.6147 198.178 57.4213 198.178 57.198L198.403 57.2312H197.053V56.3977H199.244V57.0573C199.244 57.5176 199.147 57.913 198.952 58.2437C198.758 58.5727 198.49 58.8267 198.15 59.0056C197.809 59.1829 197.418 59.2715 196.978 59.2715C196.488 59.2715 196.056 59.1633 195.685 58.9468C195.313 58.7286 195.023 58.4193 194.815 58.0187C194.609 57.6164 194.506 57.1392 194.506 56.5869C194.506 56.1625 194.567 55.784 194.69 55.4517C194.815 55.1176 194.988 54.8346 195.212 54.6028C195.435 54.371 195.695 54.1946 195.992 54.0735C196.288 53.9525 196.609 53.892 196.955 53.892C197.252 53.892 197.528 53.9355 197.784 54.0224C198.04 54.1076 198.266 54.2286 198.464 54.3855C198.663 54.5423 198.826 54.7289 198.952 54.9454C199.078 55.1602 199.159 55.3971 199.195 55.6562H198.07ZM200.055 59.2V55.2727H201.111V55.9579H201.152C201.223 55.7142 201.344 55.5301 201.512 55.4056C201.681 55.2795 201.875 55.2164 202.095 55.2164C202.15 55.2164 202.209 55.2198 202.272 55.2267C202.335 55.2335 202.39 55.2428 202.438 55.2548V56.2213C202.387 56.2059 202.316 56.1923 202.226 56.1803C202.135 56.1684 202.053 56.1625 201.978 56.1625C201.817 56.1625 201.674 56.1974 201.548 56.2673C201.424 56.3355 201.325 56.4309 201.252 56.5536C201.18 56.6764 201.144 56.8178 201.144 56.9781V59.2H200.055ZM204.008 59.2741C203.758 59.2741 203.535 59.2306 203.339 59.1437C203.143 59.0551 202.987 58.9247 202.873 58.7525C202.761 58.5786 202.704 58.3622 202.704 58.1031C202.704 57.8849 202.745 57.7017 202.825 57.5534C202.905 57.4051 203.014 57.2857 203.152 57.1954C203.29 57.1051 203.447 57.0369 203.622 56.9909C203.8 56.9448 203.985 56.9125 204.18 56.8937C204.408 56.8698 204.592 56.8477 204.732 56.8272C204.872 56.8051 204.973 56.7727 205.036 56.7301C205.099 56.6875 205.131 56.6244 205.131 56.5409V56.5255C205.131 56.3636 205.08 56.2383 204.977 56.1497C204.877 56.061 204.734 56.0167 204.548 56.0167C204.352 56.0167 204.196 56.0602 204.08 56.1471C203.964 56.2323 203.887 56.3397 203.85 56.4693L202.843 56.3875C202.894 56.1488 202.994 55.9426 203.144 55.7687C203.294 55.5931 203.488 55.4585 203.725 55.3647C203.963 55.2693 204.239 55.2215 204.553 55.2215C204.771 55.2215 204.98 55.2471 205.179 55.2982C205.381 55.3494 205.559 55.4286 205.714 55.536C205.871 55.6434 205.994 55.7815 206.085 55.9502C206.175 56.1173 206.22 56.3176 206.22 56.5511V59.2H205.187V58.6553H205.156C205.093 58.7781 205.009 58.8863 204.903 58.9801C204.798 59.0721 204.671 59.1446 204.522 59.1974C204.374 59.2485 204.203 59.2741 204.008 59.2741ZM204.32 58.5224C204.481 58.5224 204.622 58.4909 204.745 58.4278C204.868 58.363 204.964 58.2761 205.034 58.167C205.104 58.0579 205.139 57.9343 205.139 57.7963V57.3795C205.104 57.4017 205.058 57.4221 204.998 57.4409C204.94 57.4579 204.874 57.4741 204.801 57.4894C204.728 57.5031 204.654 57.5159 204.581 57.5278C204.508 57.538 204.441 57.5474 204.382 57.5559C204.254 57.5747 204.142 57.6045 204.047 57.6454C203.951 57.6863 203.877 57.7417 203.824 57.8116C203.772 57.8798 203.745 57.965 203.745 58.0673C203.745 58.2156 203.799 58.3289 203.906 58.4073C204.015 58.484 204.153 58.5224 204.32 58.5224ZM207.065 60.6727V55.2727H208.139V55.9323H208.188C208.235 55.8267 208.304 55.7193 208.395 55.6102C208.487 55.4994 208.606 55.4073 208.753 55.334C208.901 55.259 209.085 55.2215 209.305 55.2215C209.591 55.2215 209.855 55.2965 210.098 55.4465C210.34 55.5948 210.533 55.819 210.678 56.119C210.823 56.4173 210.895 56.7914 210.895 57.2414C210.895 57.6795 210.825 58.0494 210.683 58.3511C210.543 58.6511 210.352 58.8786 210.11 59.0338C209.87 59.1872 209.601 59.2639 209.302 59.2639C209.091 59.2639 208.911 59.2289 208.763 59.159C208.616 59.0892 208.496 59.0014 208.402 58.8957C208.309 58.7883 208.237 58.6801 208.188 58.571H208.154V60.6727H207.065ZM208.131 57.2363C208.131 57.4698 208.164 57.6735 208.228 57.8474C208.293 58.0213 208.387 58.1568 208.51 58.2539C208.632 58.3494 208.782 58.3971 208.957 58.3971C209.134 58.3971 209.284 58.3485 209.407 58.2514C209.53 58.1525 209.623 58.0161 209.686 57.8423C209.751 57.6667 209.783 57.4647 209.783 57.2363C209.783 57.0096 209.751 56.8102 209.688 56.638C209.625 56.4659 209.532 56.3312 209.41 56.234C209.287 56.1369 209.136 56.0883 208.957 56.0883C208.78 56.0883 208.63 56.1352 208.507 56.2289C208.386 56.3227 208.293 56.4556 208.228 56.6278C208.164 56.8 208.131 57.0028 208.131 57.2363ZM212.711 56.9295V59.2H211.621V53.9636H212.68V55.9656H212.726C212.815 55.7338 212.958 55.5522 213.155 55.421C213.353 55.288 213.601 55.2215 213.9 55.2215C214.172 55.2215 214.41 55.2812 214.613 55.4005C214.817 55.5181 214.976 55.6877 215.088 55.9093C215.203 56.1292 215.259 56.3926 215.257 56.6994V59.2H214.168V56.8937C214.17 56.6517 214.108 56.4633 213.984 56.3286C213.861 56.194 213.689 56.1267 213.467 56.1267C213.319 56.1267 213.188 56.1582 213.074 56.2213C212.961 56.2843 212.873 56.3764 212.808 56.4974C212.745 56.6167 212.712 56.7607 212.711 56.9295ZM218.111 57.3795H219.052L219.525 57.988L219.99 58.5301L220.867 59.6295H219.835L219.231 58.888L218.922 58.4482L218.111 57.3795ZM220.947 56.5818C220.947 57.1528 220.838 57.6386 220.622 58.0392C220.407 58.4397 220.114 58.7457 219.742 58.9571C219.373 59.1667 218.957 59.2715 218.495 59.2715C218.029 59.2715 217.612 59.1659 217.242 58.9545C216.872 58.7431 216.58 58.4372 216.365 58.0366C216.15 57.636 216.043 57.1511 216.043 56.5818C216.043 56.0107 216.15 55.525 216.365 55.1244C216.58 54.7238 216.872 54.4187 217.242 54.209C217.612 53.9977 218.029 53.892 218.495 53.892C218.957 53.892 219.373 53.9977 219.742 54.209C220.114 54.4187 220.407 54.7238 220.622 55.1244C220.838 55.525 220.947 56.0107 220.947 56.5818ZM219.824 56.5818C219.824 56.2119 219.769 55.9 219.658 55.646C219.549 55.392 219.395 55.1994 219.195 55.0681C218.996 54.9369 218.762 54.8713 218.495 54.8713C218.227 54.8713 217.994 54.9369 217.794 55.0681C217.595 55.1994 217.44 55.392 217.329 55.646C217.22 55.9 217.165 56.2119 217.165 56.5818C217.165 56.9517 217.22 57.2636 217.329 57.5176C217.44 57.7715 217.595 57.9642 217.794 58.0954C217.994 58.2267 218.227 58.2923 218.495 58.2923C218.762 58.2923 218.996 58.2267 219.195 58.0954C219.395 57.9642 219.549 57.7715 219.658 57.5176C219.769 57.2636 219.824 56.9517 219.824 56.5818ZM221.767 59.2V53.9636H222.874V58.2872H225.119V59.2H221.767Z" fill="white"/>
<rect width="300" height="81" rx="21" fill="white"/>
<circle cx="45" cy="40.2" r="24" fill="#C4C4C4"/>
<rect x="34.1992" y="43.2" width="21.6" height="12" rx="3" fill="white"/>
<circle cx="44.6992" cy="33.3" r="7.5" fill="white"/>
<path d="M80.4521 22.4727H82.2759V28.5579C82.2759 29.1204 82.1495 29.609 81.8967 30.0238C81.6467 30.4386 81.2987 30.7582 80.8526 30.9826C80.4066 31.2071 79.8881 31.3193 79.2972 31.3193C78.7717 31.3193 78.2944 31.2269 77.8654 31.0423C77.4393 30.8548 77.1012 30.5707 76.8512 30.19C76.6012 29.8065 76.4776 29.325 76.4805 28.7454H78.3171C78.3228 28.9755 78.3697 29.173 78.4577 29.3377C78.5487 29.4997 78.6722 29.6247 78.8285 29.7127C78.9876 29.798 79.1751 29.8406 79.391 29.8406C79.6183 29.8406 79.81 29.7923 79.9663 29.6957C80.1254 29.5963 80.2461 29.4514 80.3285 29.261C80.4109 29.0707 80.4521 28.8363 80.4521 28.5579V22.4727ZM86.7248 31.3278C86.0629 31.3278 85.4904 31.1872 85.0075 30.9059C84.5273 30.6218 84.1566 30.2269 83.8952 29.7213C83.6339 29.2127 83.5032 28.6232 83.5032 27.9528C83.5032 27.2767 83.6339 26.6857 83.8952 26.1801C84.1566 25.6715 84.5273 25.2767 85.0075 24.9954C85.4904 24.7113 86.0629 24.5693 86.7248 24.5693C87.3867 24.5693 87.9577 24.7113 88.4379 24.9954C88.9208 25.2767 89.293 25.6715 89.5543 26.1801C89.8157 26.6857 89.9464 27.2767 89.9464 27.9528C89.9464 28.6232 89.8157 29.2127 89.5543 29.7213C89.293 30.2269 88.9208 30.6218 88.4379 30.9059C87.9577 31.1872 87.3867 31.3278 86.7248 31.3278ZM86.7333 29.9215C87.0344 29.9215 87.2859 29.8363 87.4876 29.6659C87.6893 29.4926 87.8413 29.2568 87.9435 28.9585C88.0487 28.6602 88.1012 28.3207 88.1012 27.94C88.1012 27.5593 88.0487 27.2198 87.9435 26.9215C87.8413 26.6232 87.6893 26.3875 87.4876 26.2142C87.2859 26.0409 87.0344 25.9542 86.7333 25.9542C86.4293 25.9542 86.1737 26.0409 85.9663 26.2142C85.7617 26.3875 85.6069 26.6232 85.5018 26.9215C85.3995 27.2198 85.3484 27.5593 85.3484 27.94C85.3484 28.3207 85.3995 28.6602 85.5018 28.9585C85.6069 29.2568 85.7617 29.4926 85.9663 29.6659C86.1737 29.8363 86.4293 29.9215 86.7333 29.9215ZM91.1268 31.2V24.6545H92.8867V25.7965H92.9549C93.0742 25.3903 93.2745 25.0835 93.5558 24.8761C93.837 24.6659 94.1609 24.5607 94.5273 24.5607C94.6183 24.5607 94.7163 24.5664 94.8214 24.5778C94.9265 24.5892 95.0188 24.6048 95.0984 24.6247V26.2355C95.0131 26.2099 94.8952 26.1872 94.7447 26.1673C94.5941 26.1474 94.4563 26.1375 94.3313 26.1375C94.0643 26.1375 93.8256 26.1957 93.6154 26.3122C93.408 26.4258 93.2433 26.5849 93.1211 26.7894C93.0018 26.994 92.9421 27.2298 92.9421 27.4968V31.2H91.1268ZM98.1442 31.3065C97.647 31.3065 97.1967 31.1786 96.7933 30.923C96.3928 30.6644 96.0746 30.2852 95.8388 29.7852C95.6058 29.2823 95.4893 28.6659 95.4893 27.9357C95.4893 27.1857 95.6101 26.5622 95.8516 26.065C96.093 25.565 96.4141 25.1914 96.8146 24.9443C97.218 24.6943 97.6598 24.5693 98.1399 24.5693C98.5064 24.5693 98.8118 24.6318 99.0561 24.7568C99.3033 24.8789 99.5021 25.0323 99.6527 25.217C99.8061 25.3988 99.9226 25.5778 100.002 25.7539H100.058V22.4727H101.869V31.2H100.079V30.1517H100.002C99.9169 30.3335 99.7962 30.5139 99.6399 30.6928C99.4865 30.869 99.2862 31.0153 99.0391 31.1318C98.7947 31.2482 98.4964 31.3065 98.1442 31.3065ZM98.7195 29.8619C99.0121 29.8619 99.2592 29.7823 99.4609 29.6232C99.6655 29.4613 99.8217 29.2355 99.9297 28.9457C100.04 28.6559 100.096 28.3164 100.096 27.9272C100.096 27.538 100.042 27.2 99.9339 26.913C99.826 26.6261 99.6697 26.4045 99.4652 26.2482C99.2607 26.092 99.0121 26.0139 98.7195 26.0139C98.4212 26.0139 98.1697 26.0948 97.9652 26.2568C97.7607 26.4187 97.6058 26.6431 97.5007 26.9301C97.3956 27.217 97.343 27.5494 97.343 27.9272C97.343 28.3079 97.3956 28.6446 97.5007 28.9372C97.6087 29.2269 97.7635 29.4542 97.9652 29.619C98.1697 29.7809 98.4212 29.8619 98.7195 29.8619ZM105.228 31.3235C104.81 31.3235 104.438 31.2511 104.111 31.1062C103.784 30.9585 103.526 30.7411 103.336 30.4542C103.148 30.1644 103.054 29.8036 103.054 29.3718C103.054 29.0082 103.121 28.7028 103.255 28.4556C103.388 28.2085 103.57 28.0096 103.8 27.859C104.03 27.7085 104.292 27.5948 104.584 27.5181C104.88 27.4414 105.189 27.3875 105.513 27.3562C105.894 27.3164 106.201 27.2795 106.434 27.2454C106.667 27.2085 106.836 27.1545 106.941 27.0835C107.046 27.0125 107.098 26.9073 107.098 26.7681V26.7426C107.098 26.4727 107.013 26.2639 106.843 26.1161C106.675 25.9684 106.436 25.8946 106.127 25.8946C105.8 25.8946 105.54 25.967 105.347 26.1119C105.154 26.2539 105.026 26.4329 104.963 26.6488L103.284 26.5125C103.37 26.1147 103.537 25.771 103.787 25.4812C104.037 25.1886 104.36 24.9642 104.755 24.8079C105.152 24.6488 105.613 24.5693 106.135 24.5693C106.499 24.5693 106.847 24.6119 107.179 24.6971C107.515 24.7823 107.811 24.9144 108.07 25.0934C108.331 25.2724 108.537 25.5025 108.688 25.7838C108.838 26.0622 108.914 26.396 108.914 26.7852V31.2H107.192V30.2923H107.141C107.036 30.4968 106.895 30.6772 106.719 30.8335C106.543 30.9869 106.331 31.1076 106.084 31.1957C105.837 31.2809 105.551 31.3235 105.228 31.3235ZM105.748 30.0707C106.015 30.0707 106.25 30.0181 106.455 29.913C106.659 29.8051 106.82 29.6602 106.936 29.4784C107.053 29.2965 107.111 29.0906 107.111 28.8605V28.1659C107.054 28.2028 106.976 28.2369 106.877 28.2681C106.78 28.2965 106.671 28.3235 106.549 28.3491C106.426 28.3718 106.304 28.3931 106.182 28.413C106.06 28.4301 105.949 28.4457 105.85 28.4599C105.637 28.4911 105.451 28.5409 105.292 28.609C105.132 28.6772 105.009 28.7696 104.921 28.886C104.833 28.9997 104.789 29.1417 104.789 29.3122C104.789 29.5593 104.878 29.7482 105.057 29.8789C105.239 30.0068 105.469 30.0707 105.748 30.0707ZM112.137 27.4159V31.2H110.322V24.6545H112.052V25.8093H112.129C112.274 25.4286 112.517 25.1275 112.858 24.9059C113.199 24.6815 113.612 24.5693 114.098 24.5693C114.552 24.5693 114.949 24.6687 115.287 24.8676C115.625 25.0664 115.887 25.3505 116.075 25.7198C116.262 26.0863 116.356 26.5238 116.356 27.0323V31.2H114.541V27.3562C114.544 26.9556 114.441 26.6431 114.234 26.4187C114.027 26.1914 113.741 26.0778 113.377 26.0778C113.133 26.0778 112.917 26.1303 112.73 26.2355C112.545 26.3406 112.4 26.494 112.295 26.6957C112.193 26.8946 112.14 27.1346 112.137 27.4159ZM123.692 31.2H120.598V22.4727H123.718C124.596 22.4727 125.351 22.6474 125.985 22.9968C126.618 23.3434 127.105 23.842 127.446 24.4926C127.79 25.1431 127.962 25.9215 127.962 26.8278C127.962 27.7369 127.79 28.5181 127.446 29.1715C127.105 29.825 126.615 30.3264 125.976 30.6758C125.34 31.0252 124.578 31.2 123.692 31.2ZM122.444 29.619H123.615C124.161 29.619 124.62 29.5224 124.992 29.3292C125.367 29.1332 125.648 28.8306 125.836 28.4215C126.026 28.0096 126.121 27.4784 126.121 26.8278C126.121 26.1829 126.026 25.6559 125.836 25.2468C125.648 24.8377 125.368 24.5366 124.996 24.3434C124.624 24.1502 124.165 24.0536 123.62 24.0536H122.444V29.619ZM131.161 31.3235C130.744 31.3235 130.371 31.2511 130.045 31.1062C129.718 30.9585 129.46 30.7411 129.269 30.4542C129.082 30.1644 128.988 29.8036 128.988 29.3718C128.988 29.0082 129.055 28.7028 129.188 28.4556C129.322 28.2085 129.504 28.0096 129.734 27.859C129.964 27.7085 130.225 27.5948 130.518 27.5181C130.813 27.4414 131.123 27.3875 131.447 27.3562C131.827 27.3164 132.134 27.2795 132.367 27.2454C132.6 27.2085 132.769 27.1545 132.874 27.0835C132.979 27.0125 133.032 26.9073 133.032 26.7681V26.7426C133.032 26.4727 132.947 26.2639 132.776 26.1161C132.609 25.9684 132.37 25.8946 132.06 25.8946C131.734 25.8946 131.474 25.967 131.281 26.1119C131.087 26.2539 130.96 26.4329 130.897 26.6488L129.218 26.5125C129.303 26.1147 129.471 25.771 129.721 25.4812C129.971 25.1886 130.293 24.9642 130.688 24.8079C131.086 24.6488 131.546 24.5693 132.069 24.5693C132.433 24.5693 132.781 24.6119 133.113 24.6971C133.448 24.7823 133.745 24.9144 134.004 25.0934C134.265 25.2724 134.471 25.5025 134.621 25.7838C134.772 26.0622 134.847 26.396 134.847 26.7852V31.2H133.126V30.2923H133.075C132.969 30.4968 132.829 30.6772 132.653 30.8335C132.477 30.9869 132.265 31.1076 132.018 31.1957C131.771 31.2809 131.485 31.3235 131.161 31.3235ZM131.681 30.0707C131.948 30.0707 132.184 30.0181 132.388 29.913C132.593 29.8051 132.754 29.6602 132.87 29.4784C132.987 29.2965 133.045 29.0906 133.045 28.8605V28.1659C132.988 28.2028 132.91 28.2369 132.81 28.2681C132.714 28.2965 132.604 28.3235 132.482 28.3491C132.36 28.3718 132.238 28.3931 132.116 28.413C131.994 28.4301 131.883 28.4457 131.783 28.4599C131.57 28.4911 131.384 28.5409 131.225 28.609C131.066 28.6772 130.942 28.7696 130.854 28.886C130.766 28.9997 130.722 29.1417 130.722 29.3122C130.722 29.5593 130.812 29.7482 130.991 29.8789C131.173 30.0068 131.403 30.0707 131.681 30.0707ZM142.124 24.6545L139.835 31.2H137.79L135.501 24.6545H137.419L138.778 29.3377H138.847L140.202 24.6545H142.124ZM143.053 31.2V24.6545H144.868V31.2H143.053ZM143.964 23.8107C143.695 23.8107 143.463 23.7213 143.27 23.5423C143.08 23.3605 142.984 23.1431 142.984 22.8903C142.984 22.6403 143.08 22.4258 143.27 22.2468C143.463 22.065 143.695 21.9741 143.964 21.9741C144.234 21.9741 144.464 22.065 144.655 22.2468C144.848 22.4258 144.945 22.6403 144.945 22.8903C144.945 23.1431 144.848 23.3605 144.655 23.5423C144.464 23.7213 144.234 23.8107 143.964 23.8107ZM151.768 26.521L150.106 26.6232C150.078 26.4812 150.017 26.3534 149.923 26.2397C149.829 26.1232 149.706 26.0309 149.552 25.9627C149.402 25.8917 149.221 25.8562 149.011 25.8562C148.73 25.8562 148.493 25.9159 148.299 26.0352C148.106 26.1517 148.01 26.3079 148.01 26.5039C148.01 26.6602 148.072 26.7923 148.197 26.9002C148.322 27.0082 148.537 27.0948 148.841 27.1602L150.025 27.3988C150.662 27.5295 151.136 27.7397 151.449 28.0295C151.761 28.3193 151.917 28.7 151.917 29.1715C151.917 29.6005 151.791 29.9769 151.538 30.3008C151.288 30.6247 150.944 30.8775 150.507 31.0593C150.072 31.2383 149.571 31.3278 149.002 31.3278C148.136 31.3278 147.446 31.1474 146.931 30.7866C146.42 30.423 146.12 29.9286 146.032 29.3036L147.818 29.2099C147.872 29.4741 148.002 29.6758 148.21 29.815C148.417 29.9514 148.683 30.0196 149.007 30.0196C149.325 30.0196 149.581 29.9585 149.774 29.8363C149.97 29.7113 150.069 29.5508 150.072 29.3548C150.069 29.19 150 29.0551 149.863 28.95C149.727 28.842 149.517 28.7596 149.233 28.7028L148.099 28.4769C147.46 28.3491 146.984 28.1275 146.672 27.8122C146.362 27.4968 146.207 27.0948 146.207 26.6062C146.207 26.1857 146.321 25.8235 146.548 25.5196C146.778 25.2156 147.1 24.9812 147.515 24.8164C147.933 24.6517 148.422 24.5693 148.981 24.5693C149.808 24.5693 150.458 24.744 150.933 25.0934C151.41 25.4428 151.689 25.9187 151.768 26.521Z" fill="black"/>
<path d="M79.4023 36.0182H80.8614V40.8864C80.8614 41.3364 80.7602 41.7273 80.558 42.0591C80.358 42.3909 80.0795 42.6466 79.7227 42.8261C79.3659 43.0057 78.9511 43.0955 78.4784 43.0955C78.058 43.0955 77.6761 43.0216 77.333 42.8739C76.992 42.7239 76.7216 42.4966 76.5216 42.192C76.3216 41.8852 76.2227 41.5 76.225 41.0364H77.6943C77.6989 41.2205 77.7364 41.3784 77.8068 41.5102C77.8795 41.6398 77.9784 41.7398 78.1034 41.8102C78.2307 41.8784 78.3807 41.9125 78.5534 41.9125C78.7352 41.9125 78.8886 41.8739 79.0136 41.7966C79.1409 41.717 79.2375 41.6011 79.3034 41.4489C79.3693 41.2966 79.4023 41.1091 79.4023 40.8864V36.0182ZM82.0545 43V37.7636H83.4625V38.6773H83.517C83.6125 38.3523 83.7727 38.1068 83.9977 37.9409C84.2227 37.7727 84.4818 37.6886 84.775 37.6886C84.8477 37.6886 84.9261 37.6932 85.0102 37.7023C85.0943 37.7114 85.1682 37.7239 85.2318 37.7398V39.0284C85.1636 39.008 85.0693 38.9898 84.9489 38.9739C84.8284 38.958 84.7182 38.95 84.6182 38.95C84.4045 38.95 84.2136 38.9966 84.0455 39.0898C83.8795 39.1807 83.7477 39.308 83.65 39.4716C83.5545 39.6352 83.5068 39.8239 83.5068 40.0375V43H82.0545ZM88.2318 43V36.0182H91.0273C91.5409 36.0182 91.9693 36.0943 92.3125 36.2466C92.6557 36.3989 92.9136 36.6102 93.0864 36.8807C93.2591 37.1489 93.3455 37.458 93.3455 37.808C93.3455 38.0807 93.2909 38.3205 93.1818 38.5273C93.0727 38.7318 92.9227 38.9 92.7318 39.0318C92.5432 39.1614 92.3273 39.2534 92.0841 39.308V39.3761C92.35 39.3875 92.5989 39.4625 92.8307 39.6011C93.0648 39.7398 93.2545 39.9341 93.4 40.1841C93.5455 40.4318 93.6182 40.7273 93.6182 41.0705C93.6182 41.4409 93.5261 41.7716 93.342 42.0625C93.1602 42.3511 92.8909 42.5795 92.5341 42.7477C92.1773 42.9159 91.7375 43 91.2148 43H88.2318ZM89.708 41.7932H90.9114C91.3227 41.7932 91.6227 41.7148 91.8114 41.558C92 41.3989 92.0943 41.1875 92.0943 40.9239C92.0943 40.7307 92.0477 40.5602 91.9545 40.4125C91.8614 40.2648 91.7284 40.1489 91.5557 40.0648C91.3852 39.9807 91.1818 39.9386 90.9455 39.9386H89.708V41.7932ZM89.708 38.9398H90.8023C91.0045 38.9398 91.1841 38.9045 91.3409 38.8341C91.5 38.7614 91.625 38.6591 91.7159 38.5273C91.8091 38.3955 91.8557 38.2375 91.8557 38.0534C91.8557 37.8011 91.7659 37.5977 91.5864 37.4432C91.4091 37.2886 91.1568 37.2114 90.8295 37.2114H89.708V38.9398ZM96.0446 43.0989C95.7105 43.0989 95.4128 43.0409 95.1514 42.925C94.8901 42.8068 94.6832 42.633 94.531 42.4034C94.381 42.1716 94.306 41.883 94.306 41.5375C94.306 41.2466 94.3594 41.0023 94.4662 40.8045C94.573 40.6068 94.7185 40.4477 94.9026 40.3273C95.0866 40.2068 95.2957 40.1159 95.5298 40.0545C95.7662 39.9932 96.0139 39.95 96.273 39.925C96.5776 39.8932 96.823 39.8636 97.0094 39.8364C97.1957 39.8068 97.331 39.7636 97.4151 39.7068C97.4991 39.65 97.5412 39.5659 97.5412 39.4545V39.4341C97.5412 39.2182 97.473 39.0511 97.3366 38.933C97.2026 38.8148 97.0116 38.7557 96.7639 38.7557C96.5026 38.7557 96.2946 38.8136 96.1401 38.9295C95.9855 39.0432 95.8832 39.1864 95.8332 39.3591L94.4901 39.25C94.5582 38.9318 94.6923 38.6568 94.8923 38.425C95.0923 38.1909 95.3503 38.0114 95.6662 37.8864C95.9844 37.7591 96.3526 37.6955 96.7707 37.6955C97.0616 37.6955 97.3401 37.7295 97.606 37.7977C97.8741 37.8659 98.1116 37.9716 98.3185 38.1148C98.5276 38.258 98.6923 38.442 98.8128 38.667C98.9332 38.8898 98.9935 39.1568 98.9935 39.4682V43H97.6162V42.2739H97.5753C97.4912 42.4375 97.3787 42.5818 97.2378 42.7068C97.0969 42.8295 96.9276 42.9261 96.7298 42.9966C96.5321 43.0648 96.3037 43.0989 96.0446 43.0989ZM96.4605 42.0966C96.6741 42.0966 96.8628 42.0545 97.0264 41.9705C97.1901 41.8841 97.3185 41.7682 97.4116 41.6227C97.5048 41.4773 97.5514 41.3125 97.5514 41.1284V40.5727C97.506 40.6023 97.4435 40.6295 97.3639 40.6545C97.2866 40.6773 97.1991 40.6989 97.1014 40.7193C97.0037 40.7375 96.906 40.7545 96.8082 40.7705C96.7105 40.7841 96.6219 40.7966 96.5423 40.808C96.3719 40.833 96.223 40.8727 96.0957 40.9273C95.9685 40.9818 95.8696 41.0557 95.7991 41.1489C95.7287 41.2398 95.6935 41.3534 95.6935 41.4898C95.6935 41.6875 95.7651 41.8386 95.9082 41.9432C96.0537 42.0455 96.2378 42.0966 96.4605 42.0966ZM102.486 43.1023C101.95 43.1023 101.488 42.9886 101.102 42.7614C100.718 42.5318 100.422 42.2136 100.216 41.8068C100.011 41.4 99.9088 40.9318 99.9088 40.4023C99.9088 39.8659 100.012 39.3955 100.219 38.9909C100.428 38.5841 100.725 38.267 101.109 38.0398C101.493 37.8102 101.95 37.6955 102.479 37.6955C102.936 37.6955 103.336 37.7784 103.679 37.9443C104.022 38.1102 104.294 38.3432 104.494 38.6432C104.694 38.9432 104.804 39.2955 104.825 39.7H103.454C103.416 39.4386 103.313 39.2284 103.147 39.0693C102.984 38.908 102.769 38.8273 102.503 38.8273C102.278 38.8273 102.082 38.8886 101.913 39.0114C101.747 39.1318 101.618 39.308 101.525 39.5398C101.432 39.7716 101.385 40.0523 101.385 40.3818C101.385 40.7159 101.43 41 101.521 41.2341C101.614 41.4682 101.745 41.6466 101.913 41.7693C102.082 41.892 102.278 41.9534 102.503 41.9534C102.669 41.9534 102.818 41.9193 102.95 41.8511C103.084 41.783 103.194 41.6841 103.28 41.5545C103.369 41.4227 103.427 41.2648 103.454 41.0807H104.825C104.802 41.4807 104.693 41.833 104.497 42.1375C104.304 42.4398 104.037 42.6761 103.696 42.8466C103.355 43.017 102.952 43.1023 102.486 43.1023ZM107.07 41.4932L107.074 39.7511H107.285L108.963 37.7636H110.63L108.376 40.3955H108.032L107.07 41.4932ZM105.755 43V36.0182H107.207V43H105.755ZM109.027 43L107.486 40.7193L108.455 39.6932L110.728 43H109.027ZM113.513 43.1023C112.974 43.1023 112.511 42.9932 112.122 42.775C111.736 42.5545 111.438 42.2432 111.229 41.8409C111.02 41.4364 110.915 40.958 110.915 40.4057C110.915 39.867 111.02 39.3943 111.229 38.9875C111.438 38.5807 111.732 38.2636 112.112 38.0364C112.493 37.8091 112.941 37.6955 113.455 37.6955C113.8 37.6955 114.122 37.7511 114.42 37.8625C114.72 37.9716 114.981 38.1364 115.204 38.3568C115.429 38.5773 115.604 38.8545 115.729 39.1886C115.854 39.5205 115.916 39.9091 115.916 40.3545V40.7534H111.495V39.8534H114.549C114.549 39.6443 114.504 39.4591 114.413 39.2977C114.322 39.1364 114.196 39.0102 114.034 38.9193C113.875 38.8261 113.69 38.7795 113.479 38.7795C113.258 38.7795 113.063 38.8307 112.892 38.933C112.724 39.033 112.592 39.1682 112.497 39.3386C112.401 39.5068 112.353 39.6943 112.35 39.9011V40.7568C112.35 41.0159 112.398 41.2398 112.493 41.4284C112.591 41.617 112.729 41.7625 112.906 41.8648C113.083 41.967 113.293 42.0182 113.537 42.0182C113.698 42.0182 113.846 41.9955 113.98 41.95C114.114 41.9045 114.229 41.8364 114.324 41.7455C114.42 41.6545 114.492 41.5432 114.542 41.4114L115.886 41.5C115.817 41.8227 115.678 42.1045 115.466 42.3455C115.257 42.5841 114.987 42.7705 114.655 42.9045C114.325 43.0364 113.945 43.1023 113.513 43.1023ZM118.316 39.9727V43H116.864V37.7636H118.248V38.6875H118.309C118.425 38.383 118.62 38.142 118.892 37.9648C119.165 37.7852 119.496 37.6955 119.884 37.6955C120.248 37.6955 120.565 37.775 120.836 37.9341C121.106 38.0932 121.316 38.3205 121.466 38.6159C121.616 38.9091 121.691 39.2591 121.691 39.6659V43H120.239V39.925C120.241 39.6045 120.159 39.3545 119.993 39.175C119.828 38.9932 119.599 38.9023 119.308 38.9023C119.113 38.9023 118.94 38.9443 118.79 39.0284C118.642 39.1125 118.526 39.2352 118.442 39.3966C118.361 39.5557 118.318 39.7477 118.316 39.9727ZM124.765 43.0852C124.368 43.0852 124.007 42.983 123.685 42.7784C123.364 42.5716 123.11 42.2682 122.921 41.8682C122.735 41.4659 122.641 40.9727 122.641 40.3886C122.641 39.7886 122.738 39.2898 122.931 38.892C123.124 38.492 123.381 38.1932 123.702 37.9955C124.024 37.7955 124.378 37.6955 124.762 37.6955C125.055 37.6955 125.299 37.7455 125.495 37.8455C125.693 37.9432 125.852 38.0659 125.972 38.2136C126.095 38.3591 126.188 38.5023 126.252 38.6432H126.296V36.0182H127.745V43H126.313V42.1614H126.252C126.184 42.3068 126.087 42.4511 125.962 42.5943C125.839 42.7352 125.679 42.8523 125.481 42.9455C125.286 43.0386 125.047 43.0852 124.765 43.0852ZM125.226 41.9295C125.46 41.9295 125.657 41.8659 125.819 41.7386C125.982 41.6091 126.107 41.4284 126.194 41.1966C126.282 40.9648 126.327 40.6932 126.327 40.3818C126.327 40.0705 126.284 39.8 126.197 39.5705C126.111 39.3409 125.986 39.1636 125.822 39.0386C125.659 38.9136 125.46 38.8511 125.226 38.8511C124.987 38.8511 124.786 38.9159 124.622 39.0455C124.459 39.175 124.335 39.3545 124.251 39.5841C124.166 39.8136 124.124 40.0795 124.124 40.3818C124.124 40.6864 124.166 40.9557 124.251 41.1898C124.337 41.4216 124.461 41.6034 124.622 41.7352C124.786 41.8648 124.987 41.9295 125.226 41.9295ZM131.188 43V36.0182H135.893V37.2352H132.664V38.8989H135.651V40.1159H132.664V41.783H135.906V43H131.188ZM138.491 39.9727V43H137.039V37.7636H138.423V38.6875H138.484C138.6 38.383 138.795 38.142 139.067 37.9648C139.34 37.7852 139.671 37.6955 140.059 37.6955C140.423 37.6955 140.74 37.775 141.011 37.9341C141.281 38.0932 141.491 38.3205 141.641 38.6159C141.791 38.9091 141.866 39.2591 141.866 39.6659V43H140.414V39.925C140.416 39.6045 140.334 39.3545 140.168 39.175C140.003 38.9932 139.774 38.9023 139.483 38.9023C139.288 38.9023 139.115 38.9443 138.965 39.0284C138.817 39.1125 138.701 39.2352 138.617 39.3966C138.536 39.5557 138.493 39.7477 138.491 39.9727ZM145.37 45.0727C144.899 45.0727 144.496 45.008 144.16 44.8784C143.826 44.7511 143.56 44.5773 143.362 44.3568C143.164 44.1364 143.036 43.8886 142.977 43.6136L144.32 43.433C144.361 43.5375 144.426 43.6352 144.514 43.7261C144.603 43.817 144.72 43.8898 144.865 43.9443C145.013 44.0011 145.193 44.0295 145.404 44.0295C145.72 44.0295 145.98 43.9523 146.185 43.7977C146.391 43.6455 146.495 43.3898 146.495 43.0307V42.0727H146.434C146.37 42.2182 146.274 42.3557 146.147 42.4852C146.02 42.6148 145.856 42.7205 145.656 42.8023C145.456 42.8841 145.218 42.925 144.94 42.925C144.547 42.925 144.189 42.8341 143.866 42.6523C143.546 42.4682 143.29 42.1875 143.099 41.8102C142.911 41.4307 142.816 40.9511 142.816 40.3716C142.816 39.7784 142.913 39.283 143.106 38.8852C143.299 38.4875 143.556 38.1898 143.877 37.992C144.199 37.7943 144.553 37.6955 144.937 37.6955C145.23 37.6955 145.476 37.7455 145.673 37.8455C145.871 37.9432 146.03 38.0659 146.151 38.2136C146.273 38.3591 146.368 38.5023 146.434 38.6432H146.488V37.7636H147.93V43.0511C147.93 43.4966 147.821 43.8693 147.603 44.1693C147.385 44.4693 147.082 44.6943 146.696 44.8443C146.312 44.9966 145.87 45.0727 145.37 45.0727ZM145.401 41.8341C145.635 41.8341 145.832 41.7761 145.994 41.6602C146.157 41.542 146.282 41.3739 146.369 41.1557C146.457 40.9352 146.502 40.6716 146.502 40.3648C146.502 40.058 146.459 39.792 146.372 39.567C146.286 39.3398 146.161 39.1636 145.997 39.0386C145.834 38.9136 145.635 38.8511 145.401 38.8511C145.162 38.8511 144.961 38.9159 144.797 39.0455C144.634 39.1727 144.51 39.35 144.426 39.5773C144.341 39.8045 144.299 40.067 144.299 40.3648C144.299 40.667 144.341 40.9284 144.426 41.1489C144.512 41.367 144.636 41.5364 144.797 41.6568C144.961 41.775 145.162 41.8341 145.401 41.8341ZM149.086 43V37.7636H150.538V43H149.086ZM149.815 37.0886C149.599 37.0886 149.414 37.017 149.26 36.8739C149.107 36.7284 149.031 36.5545 149.031 36.3523C149.031 36.1523 149.107 35.9807 149.26 35.8375C149.414 35.692 149.599 35.6193 149.815 35.6193C150.031 35.6193 150.215 35.692 150.368 35.8375C150.522 35.9807 150.599 36.1523 150.599 36.3523C150.599 36.5545 150.522 36.7284 150.368 36.8739C150.215 37.017 150.031 37.0886 149.815 37.0886ZM153.154 39.9727V43H151.701V37.7636H153.086V38.6875H153.147C153.263 38.383 153.457 38.142 153.73 37.9648C154.003 37.7852 154.333 37.6955 154.722 37.6955C155.086 37.6955 155.403 37.775 155.673 37.9341C155.943 38.0932 156.154 38.3205 156.304 38.6159C156.454 38.9091 156.529 39.2591 156.529 39.6659V43H155.076V39.925C155.079 39.6045 154.997 39.3545 154.831 39.175C154.665 38.9932 154.437 38.9023 154.146 38.9023C153.95 38.9023 153.778 38.9443 153.628 39.0284C153.48 39.1125 153.364 39.2352 153.28 39.3966C153.198 39.5557 153.156 39.7477 153.154 39.9727ZM160.06 43.1023C159.521 43.1023 159.057 42.9932 158.669 42.775C158.282 42.5545 157.985 42.2432 157.776 41.8409C157.566 41.4364 157.462 40.958 157.462 40.4057C157.462 39.867 157.566 39.3943 157.776 38.9875C157.985 38.5807 158.279 38.2636 158.659 38.0364C159.04 37.8091 159.488 37.6955 160.002 37.6955C160.347 37.6955 160.669 37.7511 160.966 37.8625C161.266 37.9716 161.528 38.1364 161.751 38.3568C161.976 38.5773 162.151 38.8545 162.276 39.1886C162.401 39.5205 162.463 39.9091 162.463 40.3545V40.7534H158.041V39.8534H161.096C161.096 39.6443 161.051 39.4591 160.96 39.2977C160.869 39.1364 160.743 39.0102 160.581 38.9193C160.422 38.8261 160.237 38.7795 160.026 38.7795C159.805 38.7795 159.61 38.8307 159.439 38.933C159.271 39.033 159.139 39.1682 159.044 39.3386C158.948 39.5068 158.899 39.6943 158.897 39.9011V40.7568C158.897 41.0159 158.945 41.2398 159.04 41.4284C159.138 41.617 159.276 41.7625 159.453 41.8648C159.63 41.967 159.84 42.0182 160.084 42.0182C160.245 42.0182 160.393 41.9955 160.527 41.95C160.661 41.9045 160.776 41.8364 160.871 41.7455C160.966 41.6545 161.039 41.5432 161.089 41.4114L162.432 41.5C162.364 41.8227 162.224 42.1045 162.013 42.3455C161.804 42.5841 161.534 42.7705 161.202 42.9045C160.872 43.0364 160.491 43.1023 160.06 43.1023ZM165.797 43.1023C165.259 43.1023 164.795 42.9932 164.406 42.775C164.02 42.5545 163.722 42.2432 163.513 41.8409C163.304 41.4364 163.199 40.958 163.199 40.4057C163.199 39.867 163.304 39.3943 163.513 38.9875C163.722 38.5807 164.016 38.2636 164.396 38.0364C164.778 37.8091 165.226 37.6955 165.739 37.6955C166.085 37.6955 166.406 37.7511 166.704 37.8625C167.004 37.9716 167.265 38.1364 167.488 38.3568C167.713 38.5773 167.888 38.8545 168.013 39.1886C168.138 39.5205 168.201 39.9091 168.201 40.3545V40.7534H163.779V39.8534H166.834C166.834 39.6443 166.788 39.4591 166.697 39.2977C166.606 39.1364 166.48 39.0102 166.319 38.9193C166.16 38.8261 165.974 38.7795 165.763 38.7795C165.543 38.7795 165.347 38.8307 165.177 38.933C165.009 39.033 164.877 39.1682 164.781 39.3386C164.686 39.5068 164.637 39.6943 164.635 39.9011V40.7568C164.635 41.0159 164.682 41.2398 164.778 41.4284C164.876 41.617 165.013 41.7625 165.19 41.8648C165.368 41.967 165.578 42.0182 165.821 42.0182C165.982 42.0182 166.13 41.9955 166.264 41.95C166.398 41.9045 166.513 41.8364 166.609 41.7455C166.704 41.6545 166.777 41.5432 166.827 41.4114L168.17 41.5C168.102 41.8227 167.962 42.1045 167.751 42.3455C167.541 42.5841 167.271 42.7705 166.939 42.9045C166.61 43.0364 166.229 43.1023 165.797 43.1023ZM169.148 43V37.7636H170.556V38.6773H170.611C170.706 38.3523 170.866 38.1068 171.091 37.9409C171.316 37.7727 171.576 37.6886 171.869 37.6886C171.941 37.6886 172.02 37.6932 172.104 37.7023C172.188 37.7114 172.262 37.7239 172.326 37.7398V39.0284C172.257 39.008 172.163 38.9898 172.043 38.9739C171.922 38.958 171.812 38.95 171.712 38.95C171.498 38.95 171.307 38.9966 171.139 39.0898C170.973 39.1807 170.841 39.308 170.744 39.4716C170.648 39.6352 170.601 39.8239 170.601 40.0375V43H169.148Z" fill="#092AD0"/>
<rect x="76.4992" y="49.5" width="41.4" height="14.4" rx="2.7" fill="#092AD0" fill-opacity="0.56" stroke="#092AD0" stroke-width="0.6"/>
<path d="M82.8191 59.2L83.6782 53.9636H84.4964L83.6373 59.2H82.8191ZM80.4745 57.9011L80.61 57.0829H84.701L84.5654 57.9011H80.4745ZM80.9782 59.2L81.8373 53.9636H82.6555L81.7964 59.2H80.9782ZM80.7737 56.0806L80.9118 55.2625H85.0027L84.8646 56.0806H80.7737ZM91.5775 53.9636V59.2H90.6213L88.3431 55.9042H88.3048V59.2H87.1977V53.9636H88.1693L90.4295 57.2568H90.4755V53.9636H91.5775ZM94.2462 59.2767C93.849 59.2767 93.5056 59.1923 93.2158 59.0235C92.9277 58.8531 92.7053 58.6161 92.5485 58.3127C92.3917 58.0076 92.3132 57.6539 92.3132 57.2517C92.3132 56.846 92.3917 56.4914 92.5485 56.188C92.7053 55.8829 92.9277 55.646 93.2158 55.4772C93.5056 55.3068 93.849 55.2215 94.2462 55.2215C94.6434 55.2215 94.986 55.3068 95.274 55.4772C95.5638 55.646 95.7871 55.8829 95.9439 56.188C96.1007 56.4914 96.1792 56.846 96.1792 57.2517C96.1792 57.6539 96.1007 58.0076 95.9439 58.3127C95.7871 58.6161 95.5638 58.8531 95.274 59.0235C94.986 59.1923 94.6434 59.2767 94.2462 59.2767ZM94.2513 58.4329C94.432 58.4329 94.5828 58.3818 94.7039 58.2795C94.8249 58.1755 94.9161 58.034 94.9775 57.8551C95.0405 57.6761 95.0721 57.4724 95.0721 57.244C95.0721 57.0156 95.0405 56.8119 94.9775 56.6329C94.9161 56.4539 94.8249 56.3125 94.7039 56.2085C94.5828 56.1045 94.432 56.0525 94.2513 56.0525C94.0689 56.0525 93.9155 56.1045 93.7911 56.2085C93.6684 56.3125 93.5755 56.4539 93.5124 56.6329C93.451 56.8119 93.4203 57.0156 93.4203 57.244C93.4203 57.4724 93.451 57.6761 93.5124 57.8551C93.5755 58.034 93.6684 58.1755 93.7911 58.2795C93.9155 58.3818 94.0689 58.4329 94.2513 58.4329ZM98.3346 59.2639C98.0363 59.2639 97.7661 59.1872 97.524 59.0338C97.2837 58.8786 97.0928 58.6511 96.9513 58.3511C96.8115 58.0494 96.7417 57.6795 96.7417 57.2414C96.7417 56.7914 96.8141 56.4173 96.959 56.119C97.1039 55.819 97.2965 55.5948 97.5368 55.4465C97.7789 55.2965 98.0439 55.2215 98.332 55.2215C98.5519 55.2215 98.7351 55.259 98.8817 55.334C99.03 55.4073 99.1493 55.4994 99.2397 55.6102C99.3317 55.7193 99.4016 55.8267 99.4493 55.9323H99.4826V53.9636H100.569V59.2H99.4953V58.571H99.4493C99.3982 58.6801 99.3257 58.7883 99.232 58.8957C99.14 59.0014 99.0198 59.0892 98.8715 59.159C98.7249 59.2289 98.5459 59.2639 98.3346 59.2639ZM98.6797 58.3971C98.8553 58.3971 99.0036 58.3494 99.1246 58.2539C99.2473 58.1568 99.3411 58.0213 99.4059 57.8474C99.4723 57.6735 99.5056 57.4698 99.5056 57.2363C99.5056 57.0028 99.4732 56.8 99.4084 56.6278C99.3436 56.4556 99.2499 56.3227 99.1272 56.2289C99.0044 56.1352 98.8553 56.0883 98.6797 56.0883C98.5007 56.0883 98.3499 56.1369 98.2272 56.234C98.1044 56.3312 98.0115 56.4659 97.9485 56.638C97.8854 56.8102 97.8539 57.0096 97.8539 57.2363C97.8539 57.4647 97.8854 57.6667 97.9485 57.8423C98.0132 58.0161 98.1061 58.1525 98.2272 58.2514C98.3499 58.3485 98.5007 58.3971 98.6797 58.3971ZM103.255 59.2767C102.851 59.2767 102.503 59.1948 102.211 59.0312C101.922 58.8659 101.698 58.6323 101.541 58.3306C101.385 58.0272 101.306 57.6684 101.306 57.2542C101.306 56.8502 101.385 56.4957 101.541 56.1906C101.698 55.8855 101.919 55.6477 102.204 55.4772C102.49 55.3068 102.826 55.2215 103.211 55.2215C103.47 55.2215 103.711 55.2633 103.935 55.3468C104.16 55.4286 104.356 55.5522 104.523 55.7176C104.691 55.8829 104.823 56.0909 104.916 56.3414C105.01 56.5903 105.057 56.8818 105.057 57.2159V57.515H101.741V56.84H104.032C104.032 56.6832 103.998 56.5443 103.93 56.4232C103.861 56.3022 103.767 56.2076 103.646 56.1394C103.526 56.0696 103.387 56.0346 103.229 56.0346C103.064 56.0346 102.917 56.073 102.789 56.1497C102.663 56.2247 102.564 56.3261 102.493 56.4539C102.421 56.5801 102.384 56.7207 102.383 56.8758V57.5176C102.383 57.7119 102.418 57.8798 102.49 58.0213C102.563 58.1627 102.666 58.2718 102.799 58.3485C102.932 58.4252 103.09 58.4636 103.272 58.4636C103.393 58.4636 103.504 58.4465 103.605 58.4125C103.705 58.3784 103.791 58.3272 103.863 58.259C103.935 58.1909 103.989 58.1073 104.027 58.0085L105.034 58.075C104.983 58.317 104.878 58.5284 104.72 58.709C104.563 58.888 104.36 59.0278 104.111 59.1284C103.864 59.2272 103.578 59.2767 103.255 59.2767ZM106.405 59.2664C106.236 59.2664 106.091 59.2068 105.97 59.0875C105.851 58.9664 105.791 58.8215 105.791 58.6528C105.791 58.4857 105.851 58.3426 105.97 58.2232C106.091 58.1039 106.236 58.0443 106.405 58.0443C106.568 58.0443 106.711 58.1039 106.834 58.2232C106.957 58.3426 107.018 58.4857 107.018 58.6528C107.018 58.7653 106.989 58.8684 106.931 58.9622C106.875 59.0542 106.801 59.1284 106.709 59.1846C106.617 59.2392 106.515 59.2664 106.405 59.2664ZM107.912 55.2727H109.002V59.3943C109.002 59.6977 108.942 59.9431 108.823 60.1306C108.703 60.3181 108.532 60.4553 108.309 60.5423C108.087 60.6292 107.822 60.6727 107.514 60.6727C107.476 60.6727 107.44 60.6718 107.406 60.6701C107.37 60.6701 107.333 60.6693 107.294 60.6676V59.8161C107.323 59.8178 107.348 59.8187 107.37 59.8187C107.391 59.8204 107.413 59.8213 107.437 59.8213C107.612 59.8213 107.735 59.7838 107.805 59.7088C107.877 59.6355 107.912 59.5247 107.912 59.3764V55.2727ZM108.454 54.7664C108.294 54.7664 108.156 54.7127 108.04 54.6053C107.924 54.4963 107.866 54.3659 107.866 54.2142C107.866 54.0642 107.924 53.9355 108.04 53.8281C108.156 53.719 108.294 53.6644 108.454 53.6644C108.618 53.6644 108.757 53.719 108.871 53.8281C108.987 53.9355 109.045 54.0642 109.045 54.2142C109.045 54.3659 108.987 54.4963 108.871 54.6053C108.757 54.7127 108.618 54.7664 108.454 54.7664ZM113.142 56.3926L112.145 56.4539C112.128 56.3687 112.091 56.292 112.035 56.2238C111.978 56.1539 111.904 56.0985 111.812 56.0576C111.722 56.015 111.614 55.9937 111.487 55.9937C111.319 55.9937 111.176 56.0295 111.06 56.1011C110.945 56.171 110.887 56.2647 110.887 56.3823C110.887 56.4761 110.924 56.5553 110.999 56.6201C111.074 56.6849 111.203 56.7369 111.385 56.7761L112.096 56.9193C112.478 56.9977 112.762 57.1238 112.95 57.2977C113.137 57.4715 113.231 57.7 113.231 57.9829C113.231 58.2403 113.155 58.4661 113.004 58.6605C112.854 58.8548 112.647 59.0065 112.385 59.1156C112.124 59.223 111.823 59.2767 111.482 59.2767C110.962 59.2767 110.548 59.1684 110.24 58.9519C109.933 58.7338 109.753 58.4372 109.7 58.0622L110.772 58.0059C110.804 58.1644 110.882 58.2855 111.007 58.369C111.131 58.4508 111.291 58.4917 111.485 58.4917C111.676 58.4917 111.829 58.4551 111.945 58.3818C112.063 58.3068 112.122 58.2105 112.124 58.0928C112.122 57.994 112.081 57.913 111.999 57.85C111.917 57.7852 111.791 57.7357 111.62 57.7017L110.94 57.5661C110.557 57.4894 110.271 57.3565 110.084 57.1673C109.898 56.9781 109.805 56.7369 109.805 56.4437C109.805 56.1914 109.873 55.9741 110.01 55.7917C110.148 55.6093 110.341 55.4687 110.59 55.3698C110.841 55.271 111.134 55.2215 111.47 55.2215C111.966 55.2215 112.356 55.3264 112.641 55.536C112.927 55.7457 113.094 56.0312 113.142 56.3926Z" fill="white"/>
<rect x="123.3" y="49.5" width="38.4" height="14.4" rx="2.7" fill="#092AD0" fill-opacity="0.56" stroke="#092AD0" stroke-width="0.6"/>
<path d="M129.018 59.2L129.877 53.9636H130.696L129.837 59.2H129.018ZM126.674 57.9011L126.809 57.0829H130.9L130.765 57.9011H126.674ZM127.177 59.2L128.037 53.9636H128.855L127.996 59.2H127.177ZM126.973 56.0806L127.111 55.2625H131.202L131.064 56.0806H126.973ZM133.397 59.2V53.9636H135.463C135.86 53.9636 136.198 54.0394 136.478 54.1911C136.757 54.3411 136.97 54.55 137.117 54.8176C137.265 55.0835 137.34 55.3903 137.34 55.738C137.34 56.0857 137.265 56.3926 137.115 56.6585C136.965 56.9244 136.747 57.1315 136.463 57.2798C136.18 57.4281 135.837 57.5022 135.435 57.5022H134.118V56.615H135.256C135.469 56.615 135.644 56.5784 135.782 56.5051C135.922 56.4301 136.026 56.3269 136.094 56.1957C136.164 56.0627 136.199 55.9102 136.199 55.738C136.199 55.5642 136.164 55.4125 136.094 55.2829C136.026 55.1517 135.922 55.0502 135.782 54.9786C135.643 54.9053 135.465 54.8687 135.251 54.8687H134.504V59.2H133.397ZM138.711 60.6727C138.573 60.6727 138.443 60.6616 138.322 60.6394C138.203 60.619 138.104 60.5926 138.025 60.5602L138.271 59.7471C138.399 59.7863 138.514 59.8076 138.616 59.811C138.72 59.8144 138.809 59.7906 138.884 59.7394C138.961 59.6883 139.023 59.6014 139.071 59.4786L139.135 59.3125L137.726 55.2727H138.872L139.685 58.1568H139.726L140.546 55.2727H141.7L140.173 59.6244C140.1 59.8357 140 60.0198 139.874 60.1767C139.75 60.3352 139.592 60.4571 139.401 60.5423C139.21 60.6292 138.98 60.6727 138.711 60.6727ZM144.346 55.2727V56.0909H141.981V55.2727H144.346ZM142.518 54.3318H143.607V57.9931C143.607 58.0937 143.622 58.1721 143.653 58.2284C143.684 58.2829 143.726 58.3213 143.781 58.3434C143.837 58.3656 143.902 58.3767 143.975 58.3767C144.026 58.3767 144.077 58.3724 144.129 58.3639C144.18 58.3536 144.219 58.346 144.246 58.3409L144.417 59.1514C144.363 59.1684 144.286 59.188 144.187 59.2102C144.088 59.234 143.968 59.2485 143.827 59.2536C143.564 59.2639 143.334 59.2289 143.136 59.1488C142.94 59.0687 142.788 58.9443 142.679 58.7755C142.57 58.6068 142.516 58.3937 142.518 58.1363V54.3318ZM146.229 56.9295V59.2H145.14V53.9636H146.198V55.9656H146.244C146.333 55.7338 146.476 55.5522 146.674 55.421C146.872 55.288 147.12 55.2215 147.418 55.2215C147.691 55.2215 147.928 55.2812 148.131 55.4005C148.336 55.5181 148.494 55.6877 148.607 55.9093C148.721 56.1292 148.777 56.3926 148.776 56.6994V59.2H147.686V56.8937C147.688 56.6517 147.627 56.4633 147.502 56.3286C147.38 56.194 147.207 56.1267 146.986 56.1267C146.837 56.1267 146.706 56.1582 146.592 56.2213C146.48 56.2843 146.391 56.3764 146.326 56.4974C146.263 56.6167 146.231 56.7607 146.229 56.9295ZM151.407 59.2767C151.01 59.2767 150.667 59.1923 150.377 59.0235C150.089 58.8531 149.866 58.6161 149.709 58.3127C149.553 58.0076 149.474 57.6539 149.474 57.2517C149.474 56.846 149.553 56.4914 149.709 56.188C149.866 55.8829 150.089 55.646 150.377 55.4772C150.667 55.3068 151.01 55.2215 151.407 55.2215C151.804 55.2215 152.147 55.3068 152.435 55.4772C152.725 55.646 152.948 55.8829 153.105 56.188C153.262 56.4914 153.34 56.846 153.34 57.2517C153.34 57.6539 153.262 58.0076 153.105 58.3127C152.948 58.6161 152.725 58.8531 152.435 59.0235C152.147 59.1923 151.804 59.2767 151.407 59.2767ZM151.412 58.4329C151.593 58.4329 151.744 58.3818 151.865 58.2795C151.986 58.1755 152.077 58.034 152.138 57.8551C152.201 57.6761 152.233 57.4724 152.233 57.244C152.233 57.0156 152.201 56.8119 152.138 56.6329C152.077 56.4539 151.986 56.3125 151.865 56.2085C151.744 56.1045 151.593 56.0525 151.412 56.0525C151.23 56.0525 151.076 56.1045 150.952 56.2085C150.829 56.3125 150.736 56.4539 150.673 56.6329C150.612 56.8119 150.581 57.0156 150.581 57.244C150.581 57.4724 150.612 57.6761 150.673 57.8551C150.736 58.034 150.829 58.1755 150.952 58.2795C151.076 58.3818 151.23 58.4329 151.412 58.4329ZM155.138 56.9295V59.2H154.048V55.2727H155.086V55.9656H155.132C155.219 55.7372 155.365 55.5565 155.57 55.4235C155.774 55.2889 156.022 55.2215 156.314 55.2215C156.586 55.2215 156.824 55.2812 157.027 55.4005C157.23 55.5198 157.388 55.6903 157.5 55.9119C157.613 56.1318 157.669 56.3943 157.669 56.6994V59.2H156.58V56.8937C156.581 56.6534 156.52 56.4659 156.395 56.3312C156.271 56.1948 156.1 56.1267 155.882 56.1267C155.735 56.1267 155.605 56.1582 155.493 56.2213C155.382 56.2843 155.295 56.3764 155.232 56.4974C155.171 56.6167 155.139 56.7607 155.138 56.9295Z" fill="white"/>
<rect x="167.7" y="49.5" width="41.4" height="14.4" rx="2.7" fill="#092AD0" fill-opacity="0.56" stroke="#092AD0" stroke-width="0.6"/>
<path d="M174.018 59.2L174.877 53.9636H175.696L174.837 59.2H174.018ZM171.674 57.9011L171.809 57.0829H175.9L175.765 57.9011H171.674ZM172.177 59.2L173.037 53.9636H173.855L172.996 59.2H172.177ZM171.973 56.0806L172.111 55.2625H176.202L176.064 56.0806H171.973ZM178.397 53.9636H179.762L181.204 57.4818H181.266L182.708 53.9636H184.073V59.2H182.999V55.7917H182.956L181.601 59.1744H180.869L179.514 55.7789H179.471V59.2H178.397V53.9636ZM184.678 53.9636H185.918L187.112 56.2187H187.164L188.358 53.9636H189.598L187.688 57.3488V59.2H186.588V57.3488L184.678 53.9636ZM193.043 55.4696C193.023 55.2633 192.935 55.1031 192.78 54.9889C192.625 54.8747 192.414 54.8176 192.148 54.8176C191.967 54.8176 191.815 54.8431 191.69 54.8943C191.566 54.9437 191.471 55.0127 191.404 55.1014C191.339 55.19 191.307 55.2906 191.307 55.4031C191.304 55.4968 191.323 55.5786 191.366 55.6485C191.41 55.7184 191.471 55.7789 191.547 55.8301C191.624 55.8795 191.713 55.923 191.813 55.9605C191.914 55.9963 192.021 56.0269 192.135 56.0525L192.606 56.165C192.834 56.2161 193.044 56.2843 193.235 56.3696C193.426 56.4548 193.591 56.5596 193.731 56.684C193.871 56.8085 193.979 56.9551 194.056 57.1238C194.134 57.2926 194.174 57.486 194.176 57.7042C194.174 58.0247 194.092 58.3025 193.93 58.5377C193.77 58.7713 193.538 58.9528 193.235 59.0823C192.933 59.2102 192.569 59.2741 192.143 59.2741C191.72 59.2741 191.352 59.2093 191.038 59.0798C190.727 58.9502 190.483 58.7585 190.307 58.5045C190.133 58.2488 190.042 57.9326 190.034 57.5559H191.105C191.117 57.7315 191.167 57.8781 191.256 57.9957C191.346 58.1116 191.466 58.1994 191.616 58.259C191.768 58.317 191.939 58.346 192.13 58.346C192.318 58.346 192.481 58.3187 192.619 58.2642C192.758 58.2096 192.867 58.1338 192.943 58.0366C193.02 57.9394 193.058 57.8278 193.058 57.7017C193.058 57.584 193.023 57.4852 192.954 57.4051C192.885 57.325 192.785 57.2568 192.652 57.2005C192.521 57.1443 192.359 57.0931 192.169 57.0471L191.598 56.9039C191.157 56.7965 190.808 56.6286 190.553 56.4002C190.297 56.1718 190.17 55.8642 190.172 55.4772C190.17 55.1602 190.254 54.8832 190.425 54.6463C190.597 54.4093 190.833 54.2244 191.133 54.0914C191.433 53.9585 191.774 53.892 192.156 53.892C192.544 53.892 192.884 53.9585 193.173 54.0914C193.465 54.2244 193.692 54.4093 193.854 54.6463C194.015 54.8832 194.099 55.1576 194.104 55.4696H193.043ZM196.897 57.3795H197.838L198.311 57.988L198.776 58.5301L199.653 59.6295H198.62L198.017 58.888L197.707 58.4482L196.897 57.3795ZM199.732 56.5818C199.732 57.1528 199.624 57.6386 199.408 58.0392C199.193 58.4397 198.9 58.7457 198.528 58.9571C198.158 59.1667 197.742 59.2715 197.28 59.2715C196.815 59.2715 196.397 59.1659 196.027 58.9545C195.658 58.7431 195.365 58.4372 195.15 58.0366C194.936 57.636 194.828 57.1511 194.828 56.5818C194.828 56.0107 194.936 55.525 195.15 55.1244C195.365 54.7238 195.658 54.4187 196.027 54.209C196.397 53.9977 196.815 53.892 197.28 53.892C197.742 53.892 198.158 53.9977 198.528 54.209C198.9 54.4187 199.193 54.7238 199.408 55.1244C199.624 55.525 199.732 56.0107 199.732 56.5818ZM198.61 56.5818C198.61 56.2119 198.554 55.9 198.444 55.646C198.335 55.392 198.18 55.1994 197.981 55.0681C197.781 54.9369 197.548 54.8713 197.28 54.8713C197.013 54.8713 196.779 54.9369 196.58 55.0681C196.38 55.1994 196.225 55.392 196.114 55.646C196.005 55.9 195.951 56.2119 195.951 56.5818C195.951 56.9517 196.005 57.2636 196.114 57.5176C196.225 57.7715 196.38 57.9642 196.58 58.0954C196.779 58.2267 197.013 58.2923 197.28 58.2923C197.548 58.2923 197.781 58.2267 197.981 58.0954C198.18 57.9642 198.335 57.7715 198.444 57.5176C198.554 57.2636 198.61 56.9517 198.61 56.5818ZM200.552 59.2V53.9636H201.659V58.2872H203.904V59.2H200.552Z" fill="white"/>
</svg>
