<svg width="600" height="235" viewBox="0 0 600 235" fill="none" xmlns="http://www.w3.org/2000/svg">
<g filter="url(#filter0_d_813_1618)">
<rect x="50" y="50" width="500" height="135" rx="35" fill="white"/>
<circle cx="125" cy="117" r="40" fill="#C4C4C4"/>
<rect x="107" y="122" width="36" height="20" rx="5" fill="white"/>
<circle cx="124.5" cy="105.5" r="12.5" fill="white"/>
<path d="M183.42 101H178.264V86.4545H183.463C184.926 86.4545 186.186 86.7457 187.241 87.3281C188.297 87.9058 189.109 88.7367 189.678 89.821C190.25 90.9053 190.537 92.2027 190.537 93.7131C190.537 95.2282 190.25 96.5303 189.678 97.6193C189.109 98.7083 188.293 99.544 187.227 100.126C186.167 100.709 184.898 101 183.42 101ZM181.339 98.3651H183.293C184.202 98.3651 184.966 98.2041 185.587 97.8821C186.212 97.5554 186.68 97.0511 186.993 96.3693C187.31 95.6828 187.469 94.7973 187.469 93.7131C187.469 92.6383 187.31 91.7599 186.993 91.0781C186.68 90.3963 186.214 89.8944 185.594 89.5724C184.973 89.2505 184.209 89.0895 183.3 89.0895H181.339V98.3651ZM195.869 101.206C195.173 101.206 194.553 101.085 194.008 100.844C193.464 100.598 193.033 100.235 192.716 99.7571C192.403 99.2741 192.247 98.6728 192.247 97.9531C192.247 97.3471 192.358 96.8381 192.581 96.4261C192.803 96.0142 193.106 95.6828 193.49 95.4318C193.873 95.1809 194.309 94.9915 194.797 94.8636C195.289 94.7358 195.805 94.6458 196.345 94.5938C196.979 94.5275 197.491 94.4659 197.879 94.4091C198.267 94.3475 198.549 94.2576 198.724 94.1392C198.899 94.0208 198.987 93.8456 198.987 93.6136V93.571C198.987 93.1212 198.845 92.7732 198.561 92.527C198.281 92.2808 197.884 92.1577 197.368 92.1577C196.823 92.1577 196.39 92.2784 196.068 92.5199C195.746 92.7566 195.533 93.0549 195.429 93.4148L192.63 93.1875C192.772 92.5246 193.052 91.9517 193.468 91.4688C193.885 90.9811 194.422 90.607 195.081 90.3466C195.743 90.0814 196.511 89.9489 197.382 89.9489C197.988 89.9489 198.568 90.0199 199.122 90.1619C199.681 90.304 200.175 90.5241 200.606 90.8224C201.042 91.1207 201.385 91.5043 201.636 91.973C201.887 92.437 202.012 92.9934 202.012 93.642V101H199.143V99.4872H199.058C198.883 99.8281 198.648 100.129 198.355 100.389C198.061 100.645 197.708 100.846 197.297 100.993C196.885 101.135 196.409 101.206 195.869 101.206ZM196.735 99.1179C197.181 99.1179 197.574 99.0303 197.914 98.8551C198.255 98.6752 198.523 98.4337 198.717 98.1307C198.911 97.8277 199.008 97.4844 199.008 97.1009V95.9432C198.913 96.0047 198.783 96.0616 198.618 96.1136C198.457 96.161 198.274 96.206 198.071 96.2486C197.867 96.2865 197.663 96.322 197.46 96.3551C197.256 96.3835 197.072 96.4096 196.906 96.4332C196.551 96.4853 196.241 96.5682 195.975 96.6818C195.71 96.7955 195.504 96.9493 195.358 97.1435C195.211 97.3329 195.137 97.5696 195.137 97.8537C195.137 98.2656 195.287 98.5805 195.585 98.7983C195.888 99.0114 196.271 99.1179 196.735 99.1179ZM214.14 90.0909L210.326 101H206.917L203.103 90.0909H206.299L208.564 97.8963H208.678L210.936 90.0909H214.14ZM215.688 101V90.0909H218.713V101H215.688ZM217.208 88.6847C216.758 88.6847 216.372 88.5355 216.05 88.2372C215.733 87.9342 215.574 87.572 215.574 87.1506C215.574 86.7339 215.733 86.3764 216.05 86.0781C216.372 85.7751 216.758 85.6236 217.208 85.6236C217.658 85.6236 218.041 85.7751 218.358 86.0781C218.68 86.3764 218.841 86.7339 218.841 87.1506C218.841 87.572 218.68 87.9342 218.358 88.2372C218.041 88.5355 217.658 88.6847 217.208 88.6847ZM225.157 101.178C224.328 101.178 223.578 100.964 222.906 100.538C222.238 100.107 221.708 99.4754 221.315 98.642C220.926 97.804 220.732 96.7765 220.732 95.5597C220.732 94.3097 220.933 93.2704 221.336 92.4418C221.738 91.6084 222.273 90.9858 222.941 90.5739C223.613 90.1572 224.35 89.9489 225.15 89.9489C225.761 89.9489 226.27 90.053 226.677 90.2614C227.089 90.465 227.42 90.7206 227.671 91.0284C227.927 91.3314 228.121 91.6297 228.254 91.9233H228.346V86.4545H231.364V101H228.381V99.2528H228.254C228.112 99.5559 227.91 99.8565 227.65 100.155C227.394 100.448 227.06 100.692 226.648 100.886C226.241 101.08 225.744 101.178 225.157 101.178ZM226.116 98.7699C226.603 98.7699 227.015 98.6373 227.352 98.3722C227.692 98.1023 227.953 97.7259 228.133 97.2429C228.317 96.7599 228.41 96.1941 228.41 95.5455C228.41 94.8968 228.32 94.3333 228.14 93.8551C227.96 93.3769 227.7 93.0076 227.359 92.7472C227.018 92.4867 226.603 92.3565 226.116 92.3565C225.619 92.3565 225.2 92.4915 224.859 92.7614C224.518 93.0312 224.26 93.4053 224.085 93.8835C223.909 94.3617 223.822 94.9157 223.822 95.5455C223.822 96.1799 223.909 96.741 224.085 97.2287C224.264 97.7116 224.522 98.0904 224.859 98.3651C225.2 98.6349 225.619 98.7699 226.116 98.7699ZM238.538 86.4545H242.33L246.336 96.2273H246.506L250.512 86.4545H254.305V101H251.322V91.5327H251.201L247.437 100.929H245.406L241.641 91.4972H241.521V101H238.538V86.4545ZM259.892 101.206C259.196 101.206 258.576 101.085 258.032 100.844C257.487 100.598 257.056 100.235 256.739 99.7571C256.426 99.2741 256.27 98.6728 256.27 97.9531C256.27 97.3471 256.382 96.8381 256.604 96.4261C256.827 96.0142 257.13 95.6828 257.513 95.4318C257.897 95.1809 258.332 94.9915 258.82 94.8636C259.312 94.7358 259.828 94.6458 260.368 94.5938C261.003 94.5275 261.514 94.4659 261.902 94.4091C262.291 94.3475 262.572 94.2576 262.748 94.1392C262.923 94.0208 263.01 93.8456 263.01 93.6136V93.571C263.01 93.1212 262.868 92.7732 262.584 92.527C262.305 92.2808 261.907 92.1577 261.391 92.1577C260.846 92.1577 260.413 92.2784 260.091 92.5199C259.769 92.7566 259.556 93.0549 259.452 93.4148L256.654 93.1875C256.796 92.5246 257.075 91.9517 257.492 91.4688C257.908 90.9811 258.446 90.607 259.104 90.3466C259.767 90.0814 260.534 89.9489 261.405 89.9489C262.011 89.9489 262.591 90.0199 263.145 90.1619C263.704 90.304 264.199 90.5241 264.63 90.8224C265.065 91.1207 265.408 91.5043 265.659 91.973C265.91 92.437 266.036 92.9934 266.036 93.642V101H263.167V99.4872H263.081C262.906 99.8281 262.672 100.129 262.378 100.389C262.085 100.645 261.732 100.846 261.32 100.993C260.908 101.135 260.432 101.206 259.892 101.206ZM260.759 99.1179C261.204 99.1179 261.597 99.0303 261.938 98.8551C262.279 98.6752 262.546 98.4337 262.74 98.1307C262.935 97.8277 263.032 97.4844 263.032 97.1009V95.9432C262.937 96.0047 262.807 96.0616 262.641 96.1136C262.48 96.161 262.298 96.206 262.094 96.2486C261.891 96.2865 261.687 96.322 261.483 96.3551C261.28 96.3835 261.095 96.4096 260.929 96.4332C260.574 96.4853 260.264 96.5682 259.999 96.6818C259.734 96.7955 259.528 96.9493 259.381 97.1435C259.234 97.3329 259.161 97.5696 259.161 97.8537C259.161 98.2656 259.31 98.5805 259.608 98.7983C259.911 99.0114 260.295 99.1179 260.759 99.1179ZM268.383 101V90.0909H271.316V91.9943H271.43C271.629 91.3172 271.963 90.8059 272.431 90.4602C272.9 90.1098 273.44 89.9347 274.051 89.9347C274.202 89.9347 274.366 89.9441 274.541 89.9631C274.716 89.982 274.87 90.008 275.002 90.0412V92.7259C274.86 92.6832 274.664 92.6454 274.413 92.6122C274.162 92.5791 273.932 92.5625 273.724 92.5625C273.279 92.5625 272.881 92.6596 272.531 92.8537C272.185 93.0431 271.911 93.3082 271.707 93.6491C271.508 93.9901 271.409 94.383 271.409 94.8281V101H268.383ZM282.916 90.0909V92.3636H276.347V90.0909H282.916ZM277.838 87.4773H280.864V97.6477C280.864 97.9271 280.906 98.1449 280.991 98.3011C281.077 98.4527 281.195 98.5592 281.347 98.6207C281.503 98.6823 281.683 98.7131 281.886 98.7131C282.028 98.7131 282.17 98.7012 282.312 98.6776C282.455 98.6491 282.563 98.6278 282.639 98.6136L283.115 100.865C282.964 100.912 282.75 100.967 282.476 101.028C282.201 101.095 281.867 101.135 281.474 101.149C280.745 101.178 280.106 101.08 279.557 100.858C279.012 100.635 278.589 100.29 278.286 99.821C277.982 99.3523 277.833 98.7604 277.838 98.0455V87.4773ZM284.887 101V90.0909H287.913V101H284.887ZM286.407 88.6847C285.957 88.6847 285.571 88.5355 285.249 88.2372C284.932 87.9342 284.773 87.572 284.773 87.1506C284.773 86.7339 284.932 86.3764 285.249 86.0781C285.571 85.7751 285.957 85.6236 286.407 85.6236C286.857 85.6236 287.24 85.7751 287.558 86.0781C287.879 86.3764 288.04 86.7339 288.04 87.1506C288.04 87.572 287.879 87.9342 287.558 88.2372C287.24 88.5355 286.857 88.6847 286.407 88.6847ZM293.362 94.6932V101H290.336V90.0909H293.22V92.0156H293.348C293.589 91.3812 293.994 90.8793 294.562 90.5099C295.13 90.1359 295.819 89.9489 296.629 89.9489C297.386 89.9489 298.047 90.1146 298.61 90.446C299.174 90.7775 299.612 91.2509 299.924 91.8665C300.237 92.4773 300.393 93.2064 300.393 94.054V101H297.368V94.5938C297.372 93.9261 297.202 93.4053 296.856 93.0312C296.511 92.6525 296.035 92.4631 295.429 92.4631C295.021 92.4631 294.662 92.5507 294.349 92.7259C294.041 92.901 293.8 93.1567 293.625 93.4929C293.454 93.8243 293.367 94.2244 293.362 94.6932Z" fill="black"/>
<path d="M184.324 113.71C184.278 113.252 184.083 112.896 183.739 112.642C183.394 112.388 182.926 112.261 182.335 112.261C181.934 112.261 181.595 112.318 181.318 112.432C181.042 112.542 180.83 112.695 180.682 112.892C180.538 113.089 180.466 113.312 180.466 113.562C180.458 113.771 180.502 113.953 180.597 114.108C180.695 114.263 180.83 114.398 181 114.511C181.17 114.621 181.367 114.718 181.591 114.801C181.814 114.881 182.053 114.949 182.307 115.006L183.352 115.256C183.86 115.369 184.326 115.521 184.75 115.71C185.174 115.9 185.542 116.133 185.852 116.409C186.163 116.686 186.403 117.011 186.574 117.386C186.748 117.761 186.837 118.191 186.841 118.676C186.837 119.388 186.655 120.006 186.295 120.528C185.939 121.047 185.424 121.451 184.75 121.739C184.08 122.023 183.271 122.165 182.324 122.165C181.384 122.165 180.566 122.021 179.869 121.733C179.176 121.445 178.634 121.019 178.244 120.455C177.858 119.886 177.655 119.184 177.636 118.347H180.017C180.044 118.737 180.155 119.062 180.352 119.324C180.553 119.581 180.82 119.777 181.153 119.909C181.491 120.038 181.871 120.102 182.295 120.102C182.712 120.102 183.074 120.042 183.381 119.92C183.691 119.799 183.932 119.631 184.102 119.415C184.273 119.199 184.358 118.951 184.358 118.67C184.358 118.409 184.28 118.189 184.125 118.011C183.973 117.833 183.75 117.682 183.455 117.557C183.163 117.432 182.805 117.318 182.381 117.216L181.114 116.898C180.133 116.659 179.358 116.286 178.79 115.778C178.222 115.271 177.939 114.587 177.943 113.727C177.939 113.023 178.127 112.407 178.506 111.881C178.888 111.354 179.413 110.943 180.08 110.648C180.746 110.352 181.504 110.205 182.352 110.205C183.216 110.205 183.97 110.352 184.614 110.648C185.261 110.943 185.765 111.354 186.125 111.881C186.485 112.407 186.67 113.017 186.682 113.71H184.324ZM192.393 122.17C191.511 122.17 190.748 121.983 190.104 121.608C189.464 121.229 188.969 120.703 188.621 120.028C188.272 119.35 188.098 118.564 188.098 117.67C188.098 116.769 188.272 115.981 188.621 115.307C188.969 114.629 189.464 114.102 190.104 113.727C190.748 113.348 191.511 113.159 192.393 113.159C193.276 113.159 194.037 113.348 194.678 113.727C195.321 114.102 195.818 114.629 196.166 115.307C196.515 115.981 196.689 116.769 196.689 117.67C196.689 118.564 196.515 119.35 196.166 120.028C195.818 120.703 195.321 121.229 194.678 121.608C194.037 121.983 193.276 122.17 192.393 122.17ZM192.405 120.295C192.806 120.295 193.142 120.182 193.411 119.955C193.679 119.723 193.882 119.409 194.018 119.011C194.159 118.614 194.229 118.161 194.229 117.653C194.229 117.146 194.159 116.693 194.018 116.295C193.882 115.898 193.679 115.583 193.411 115.352C193.142 115.121 192.806 115.006 192.405 115.006C192 115.006 191.659 115.121 191.382 115.352C191.109 115.583 190.903 115.898 190.763 116.295C190.626 116.693 190.558 117.146 190.558 117.653C190.558 118.161 190.626 118.614 190.763 119.011C190.903 119.409 191.109 119.723 191.382 119.955C191.659 120.182 192 120.295 192.405 120.295ZM202.956 113.273V115.091H197.57V113.273H202.956ZM198.803 122V112.642C198.803 112.009 198.926 111.485 199.172 111.068C199.422 110.652 199.763 110.339 200.195 110.131C200.626 109.922 201.117 109.818 201.666 109.818C202.037 109.818 202.376 109.847 202.683 109.903C202.994 109.96 203.225 110.011 203.376 110.057L202.945 111.875C202.85 111.845 202.732 111.816 202.592 111.79C202.456 111.763 202.316 111.75 202.172 111.75C201.816 111.75 201.568 111.833 201.428 112C201.287 112.163 201.217 112.392 201.217 112.688V122H198.803ZM209.077 113.273V115.091H203.821V113.273H209.077ZM205.014 111.182H207.435V119.318C207.435 119.542 207.469 119.716 207.537 119.841C207.605 119.962 207.7 120.047 207.821 120.097C207.946 120.146 208.09 120.17 208.253 120.17C208.366 120.17 208.48 120.161 208.594 120.142C208.707 120.119 208.795 120.102 208.855 120.091L209.236 121.892C209.115 121.93 208.944 121.973 208.724 122.023C208.505 122.076 208.238 122.108 207.923 122.119C207.34 122.142 206.829 122.064 206.389 121.886C205.954 121.708 205.615 121.432 205.372 121.057C205.13 120.682 205.01 120.208 205.014 119.636V111.182ZM212.375 122L210 113.273H212.449L213.801 119.136H213.881L215.29 113.273H217.693L219.125 119.102H219.199L220.528 113.273H222.972L220.602 122H218.04L216.54 116.511H216.432L214.932 122H212.375ZM226.751 122.165C226.195 122.165 225.698 122.068 225.263 121.875C224.827 121.678 224.482 121.388 224.229 121.006C223.979 120.619 223.854 120.138 223.854 119.562C223.854 119.078 223.943 118.67 224.121 118.341C224.299 118.011 224.541 117.746 224.848 117.545C225.155 117.345 225.503 117.193 225.893 117.091C226.287 116.989 226.7 116.917 227.132 116.875C227.64 116.822 228.049 116.773 228.359 116.727C228.67 116.678 228.895 116.606 229.036 116.511C229.176 116.417 229.246 116.277 229.246 116.091V116.057C229.246 115.697 229.132 115.419 228.905 115.222C228.681 115.025 228.363 114.926 227.95 114.926C227.515 114.926 227.168 115.023 226.911 115.216C226.653 115.405 226.482 115.644 226.399 115.932L224.161 115.75C224.274 115.22 224.498 114.761 224.831 114.375C225.164 113.985 225.594 113.686 226.121 113.477C226.651 113.265 227.265 113.159 227.962 113.159C228.446 113.159 228.911 113.216 229.354 113.33C229.801 113.443 230.196 113.619 230.541 113.858C230.89 114.097 231.164 114.403 231.365 114.778C231.566 115.15 231.666 115.595 231.666 116.114V122H229.371V120.79H229.303C229.162 121.062 228.975 121.303 228.74 121.511C228.505 121.716 228.223 121.877 227.893 121.994C227.564 122.108 227.183 122.165 226.751 122.165ZM227.445 120.494C227.801 120.494 228.115 120.424 228.388 120.284C228.661 120.14 228.875 119.947 229.03 119.705C229.185 119.462 229.263 119.187 229.263 118.881V117.955C229.187 118.004 229.083 118.049 228.95 118.091C228.821 118.129 228.676 118.165 228.513 118.199C228.35 118.229 228.187 118.258 228.024 118.284C227.861 118.307 227.714 118.328 227.581 118.347C227.297 118.388 227.049 118.455 226.837 118.545C226.625 118.636 226.46 118.759 226.342 118.915C226.225 119.066 226.166 119.256 226.166 119.483C226.166 119.812 226.286 120.064 226.524 120.239C226.767 120.409 227.073 120.494 227.445 120.494ZM233.544 122V113.273H235.891V114.795H235.982C236.141 114.254 236.408 113.845 236.783 113.568C237.158 113.288 237.589 113.148 238.078 113.148C238.199 113.148 238.33 113.155 238.47 113.17C238.61 113.186 238.733 113.206 238.839 113.233V115.381C238.726 115.347 238.569 115.316 238.368 115.29C238.167 115.263 237.983 115.25 237.817 115.25C237.461 115.25 237.143 115.328 236.862 115.483C236.586 115.634 236.366 115.847 236.203 116.119C236.044 116.392 235.964 116.706 235.964 117.062V122H233.544ZM243.662 122.17C242.764 122.17 241.991 121.989 241.344 121.625C240.7 121.258 240.204 120.739 239.855 120.068C239.507 119.394 239.332 118.597 239.332 117.676C239.332 116.778 239.507 115.991 239.855 115.312C240.204 114.634 240.694 114.106 241.327 113.727C241.963 113.348 242.709 113.159 243.565 113.159C244.141 113.159 244.677 113.252 245.173 113.438C245.673 113.619 246.109 113.894 246.48 114.261C246.855 114.629 247.147 115.091 247.355 115.648C247.563 116.201 247.668 116.848 247.668 117.591V118.256H240.298V116.756H245.389C245.389 116.407 245.313 116.098 245.162 115.83C245.01 115.561 244.8 115.35 244.531 115.199C244.266 115.044 243.957 114.966 243.605 114.966C243.238 114.966 242.912 115.051 242.628 115.222C242.348 115.388 242.128 115.614 241.969 115.898C241.81 116.178 241.728 116.491 241.724 116.835V118.261C241.724 118.693 241.804 119.066 241.963 119.381C242.126 119.695 242.355 119.938 242.651 120.108C242.946 120.278 243.296 120.364 243.702 120.364C243.971 120.364 244.217 120.326 244.44 120.25C244.664 120.174 244.855 120.061 245.014 119.909C245.173 119.758 245.295 119.572 245.378 119.352L247.616 119.5C247.503 120.038 247.27 120.508 246.918 120.909C246.569 121.307 246.118 121.617 245.565 121.841C245.016 122.061 244.382 122.17 243.662 122.17ZM252.996 122V110.364H260.837V112.392H255.456V115.165H260.433V117.193H255.456V119.972H260.859V122H252.996ZM265.168 116.955V122H262.747V113.273H265.054V114.812H265.156C265.349 114.305 265.673 113.903 266.128 113.608C266.582 113.309 267.134 113.159 267.781 113.159C268.387 113.159 268.916 113.292 269.366 113.557C269.817 113.822 270.168 114.201 270.418 114.693C270.668 115.182 270.793 115.765 270.793 116.443V122H268.372V116.875C268.376 116.341 268.24 115.924 267.963 115.625C267.687 115.322 267.306 115.17 266.821 115.17C266.495 115.17 266.207 115.241 265.957 115.381C265.711 115.521 265.518 115.725 265.378 115.994C265.241 116.259 265.171 116.58 265.168 116.955ZM276.632 125.455C275.848 125.455 275.176 125.347 274.615 125.131C274.058 124.919 273.615 124.629 273.286 124.261C272.956 123.894 272.742 123.481 272.643 123.023L274.882 122.722C274.95 122.896 275.058 123.059 275.206 123.21C275.354 123.362 275.549 123.483 275.791 123.574C276.037 123.669 276.337 123.716 276.689 123.716C277.215 123.716 277.649 123.587 277.99 123.33C278.335 123.076 278.507 122.65 278.507 122.051V120.455H278.405C278.299 120.697 278.14 120.926 277.928 121.142C277.715 121.358 277.443 121.534 277.109 121.67C276.776 121.807 276.378 121.875 275.916 121.875C275.261 121.875 274.664 121.723 274.126 121.42C273.592 121.114 273.166 120.646 272.848 120.017C272.534 119.384 272.376 118.585 272.376 117.619C272.376 116.631 272.537 115.805 272.859 115.142C273.181 114.479 273.609 113.983 274.143 113.653C274.681 113.324 275.27 113.159 275.911 113.159C276.399 113.159 276.808 113.242 277.138 113.409C277.467 113.572 277.732 113.777 277.933 114.023C278.138 114.265 278.295 114.504 278.405 114.739H278.496V113.273H280.899V122.085C280.899 122.828 280.717 123.449 280.354 123.949C279.99 124.449 279.486 124.824 278.842 125.074C278.202 125.328 277.465 125.455 276.632 125.455ZM276.683 120.057C277.073 120.057 277.403 119.96 277.672 119.767C277.945 119.57 278.153 119.29 278.297 118.926C278.445 118.559 278.518 118.119 278.518 117.608C278.518 117.097 278.446 116.653 278.303 116.278C278.159 115.9 277.95 115.606 277.678 115.398C277.405 115.189 277.073 115.085 276.683 115.085C276.286 115.085 275.95 115.193 275.678 115.409C275.405 115.621 275.198 115.917 275.058 116.295C274.918 116.674 274.848 117.112 274.848 117.608C274.848 118.112 274.918 118.547 275.058 118.915C275.202 119.278 275.409 119.561 275.678 119.761C275.95 119.958 276.286 120.057 276.683 120.057ZM282.825 122V113.273H285.246V122H282.825ZM284.041 112.148C283.681 112.148 283.373 112.028 283.115 111.79C282.861 111.547 282.734 111.258 282.734 110.92C282.734 110.587 282.861 110.301 283.115 110.062C283.373 109.82 283.681 109.699 284.041 109.699C284.401 109.699 284.708 109.82 284.962 110.062C285.219 110.301 285.348 110.587 285.348 110.92C285.348 111.258 285.219 111.547 284.962 111.79C284.708 112.028 284.401 112.148 284.041 112.148ZM289.605 116.955V122H287.185V113.273H289.491V114.812H289.594C289.787 114.305 290.111 113.903 290.565 113.608C291.02 113.309 291.571 113.159 292.219 113.159C292.825 113.159 293.353 113.292 293.804 113.557C294.255 113.822 294.605 114.201 294.855 114.693C295.105 115.182 295.23 115.765 295.23 116.443V122H292.81V116.875C292.813 116.341 292.677 115.924 292.401 115.625C292.124 115.322 291.743 115.17 291.259 115.17C290.933 115.17 290.645 115.241 290.395 115.381C290.149 115.521 289.955 115.725 289.815 115.994C289.679 116.259 289.609 116.58 289.605 116.955ZM301.115 122.17C300.217 122.17 299.445 121.989 298.797 121.625C298.153 121.258 297.657 120.739 297.308 120.068C296.96 119.394 296.786 118.597 296.786 117.676C296.786 116.778 296.96 115.991 297.308 115.312C297.657 114.634 298.147 114.106 298.78 113.727C299.416 113.348 300.162 113.159 301.018 113.159C301.594 113.159 302.13 113.252 302.626 113.438C303.126 113.619 303.562 113.894 303.933 114.261C304.308 114.629 304.6 115.091 304.808 115.648C305.017 116.201 305.121 116.848 305.121 117.591V118.256H297.751V116.756H302.842C302.842 116.407 302.767 116.098 302.615 115.83C302.464 115.561 302.253 115.35 301.984 115.199C301.719 115.044 301.411 114.966 301.058 114.966C300.691 114.966 300.365 115.051 300.081 115.222C299.801 115.388 299.581 115.614 299.422 115.898C299.263 116.178 299.181 116.491 299.178 116.835V118.261C299.178 118.693 299.257 119.066 299.416 119.381C299.579 119.695 299.808 119.938 300.104 120.108C300.399 120.278 300.75 120.364 301.155 120.364C301.424 120.364 301.67 120.326 301.893 120.25C302.117 120.174 302.308 120.061 302.467 119.909C302.626 119.758 302.748 119.572 302.831 119.352L305.07 119.5C304.956 120.038 304.723 120.508 304.371 120.909C304.022 121.307 303.571 121.617 303.018 121.841C302.469 122.061 301.835 122.17 301.115 122.17ZM310.678 122.17C309.78 122.17 309.007 121.989 308.359 121.625C307.715 121.258 307.219 120.739 306.871 120.068C306.522 119.394 306.348 118.597 306.348 117.676C306.348 116.778 306.522 115.991 306.871 115.312C307.219 114.634 307.71 114.106 308.342 113.727C308.979 113.348 309.725 113.159 310.581 113.159C311.157 113.159 311.693 113.252 312.189 113.438C312.689 113.619 313.125 113.894 313.496 114.261C313.871 114.629 314.162 115.091 314.371 115.648C314.579 116.201 314.683 116.848 314.683 117.591V118.256H307.314V116.756H312.405C312.405 116.407 312.329 116.098 312.178 115.83C312.026 115.561 311.816 115.35 311.547 115.199C311.282 115.044 310.973 114.966 310.621 114.966C310.253 114.966 309.928 115.051 309.643 115.222C309.363 115.388 309.143 115.614 308.984 115.898C308.825 116.178 308.744 116.491 308.74 116.835V118.261C308.74 118.693 308.82 119.066 308.979 119.381C309.142 119.695 309.371 119.938 309.666 120.108C309.962 120.278 310.312 120.364 310.717 120.364C310.986 120.364 311.232 120.326 311.456 120.25C311.679 120.174 311.871 120.061 312.03 119.909C312.189 119.758 312.31 119.572 312.393 119.352L314.632 119.5C314.518 120.038 314.286 120.508 313.933 120.909C313.585 121.307 313.134 121.617 312.581 121.841C312.032 122.061 311.397 122.17 310.678 122.17ZM316.263 122V113.273H318.609V114.795H318.7C318.859 114.254 319.126 113.845 319.501 113.568C319.876 113.288 320.308 113.148 320.797 113.148C320.918 113.148 321.049 113.155 321.189 113.17C321.329 113.186 321.452 113.206 321.558 113.233V115.381C321.445 115.347 321.287 115.316 321.087 115.29C320.886 115.263 320.702 115.25 320.536 115.25C320.179 115.25 319.861 115.328 319.581 115.483C319.304 115.634 319.085 115.847 318.922 116.119C318.763 116.392 318.683 116.706 318.683 117.062V122H316.263Z" fill="#092AD0"/>
<rect x="177.5" y="132.5" width="59" height="24" rx="4.5" fill="#092AD0" fill-opacity="0.56" stroke="#092AD0"/>
<path d="M188.031 149L189.463 140.273H190.827L189.395 149H188.031ZM184.124 146.835L184.349 145.472H191.168L190.942 146.835H184.124ZM184.963 149L186.395 140.273H187.759L186.327 149H184.963ZM184.622 143.801L184.852 142.438H191.67L191.44 143.801H184.622ZM195.329 149V140.273H198.772C199.431 140.273 199.994 140.391 200.46 140.626C200.928 140.859 201.285 141.19 201.529 141.619C201.776 142.045 201.9 142.547 201.9 143.124C201.9 143.703 201.775 144.202 201.525 144.619C201.275 145.034 200.913 145.352 200.438 145.574C199.967 145.795 199.396 145.906 198.725 145.906H196.42V144.423H198.427C198.779 144.423 199.072 144.375 199.305 144.278C199.538 144.182 199.711 144.037 199.825 143.844C199.941 143.651 199.999 143.411 199.999 143.124C199.999 142.834 199.941 142.589 199.825 142.391C199.711 142.192 199.536 142.041 199.3 141.939C199.067 141.834 198.773 141.781 198.418 141.781H197.174V149H195.329ZM200.042 145.028L202.211 149H200.174L198.052 145.028H200.042ZM206.047 149.128C205.374 149.128 204.794 148.991 204.309 148.719C203.826 148.443 203.453 148.054 203.192 147.551C202.931 147.045 202.8 146.447 202.8 145.757C202.8 145.084 202.931 144.493 203.192 143.984C203.453 143.476 203.821 143.08 204.296 142.795C204.773 142.511 205.333 142.369 205.975 142.369C206.407 142.369 206.809 142.439 207.181 142.578C207.556 142.714 207.882 142.92 208.161 143.196C208.442 143.472 208.661 143.818 208.817 144.236C208.973 144.651 209.051 145.136 209.051 145.693V146.192H203.525V145.067H207.343C207.343 144.805 207.286 144.574 207.172 144.372C207.059 144.17 206.901 144.013 206.699 143.899C206.5 143.783 206.269 143.724 206.005 143.724C205.729 143.724 205.485 143.788 205.272 143.916C205.061 144.041 204.897 144.21 204.777 144.423C204.658 144.634 204.597 144.868 204.594 145.126V146.196C204.594 146.52 204.654 146.8 204.773 147.036C204.895 147.271 205.067 147.453 205.289 147.581C205.51 147.709 205.773 147.773 206.077 147.773C206.279 147.773 206.463 147.744 206.631 147.688C206.799 147.631 206.942 147.545 207.061 147.432C207.181 147.318 207.272 147.179 207.334 147.014L209.013 147.125C208.928 147.528 208.753 147.881 208.489 148.182C208.228 148.48 207.89 148.713 207.475 148.881C207.063 149.045 206.587 149.128 206.047 149.128ZM212.103 149.124C211.685 149.124 211.313 149.051 210.986 148.906C210.659 148.759 210.401 148.541 210.211 148.254C210.023 147.964 209.929 147.604 209.929 147.172C209.929 146.808 209.996 146.503 210.13 146.256C210.263 146.009 210.445 145.81 210.675 145.659C210.905 145.509 211.167 145.395 211.459 145.318C211.755 145.241 212.064 145.188 212.388 145.156C212.769 145.116 213.076 145.08 213.309 145.045C213.542 145.009 213.711 144.955 213.816 144.884C213.921 144.812 213.973 144.707 213.973 144.568V144.543C213.973 144.273 213.888 144.064 213.718 143.916C213.55 143.768 213.311 143.695 213.002 143.695C212.675 143.695 212.415 143.767 212.222 143.912C212.029 144.054 211.901 144.233 211.838 144.449L210.159 144.312C210.245 143.915 210.412 143.571 210.662 143.281C210.912 142.989 211.235 142.764 211.63 142.608C212.027 142.449 212.488 142.369 213.01 142.369C213.374 142.369 213.722 142.412 214.054 142.497C214.39 142.582 214.686 142.714 214.945 142.893C215.206 143.072 215.412 143.303 215.563 143.584C215.713 143.862 215.789 144.196 215.789 144.585V149H214.067V148.092H214.016C213.911 148.297 213.77 148.477 213.594 148.634C213.418 148.787 213.206 148.908 212.959 148.996C212.712 149.081 212.426 149.124 212.103 149.124ZM212.623 147.871C212.89 147.871 213.125 147.818 213.33 147.713C213.534 147.605 213.695 147.46 213.811 147.278C213.928 147.097 213.986 146.891 213.986 146.661V145.966C213.929 146.003 213.851 146.037 213.752 146.068C213.655 146.097 213.546 146.124 213.424 146.149C213.301 146.172 213.179 146.193 213.057 146.213C212.935 146.23 212.824 146.246 212.725 146.26C212.512 146.291 212.326 146.341 212.167 146.409C212.007 146.477 211.884 146.57 211.796 146.686C211.708 146.8 211.664 146.942 211.664 147.112C211.664 147.359 211.753 147.548 211.932 147.679C212.114 147.807 212.344 147.871 212.623 147.871ZM220.154 149.128C219.484 149.128 218.907 148.986 218.424 148.702C217.944 148.415 217.575 148.017 217.316 147.509C217.061 147 216.933 146.415 216.933 145.753C216.933 145.082 217.062 144.494 217.321 143.989C217.582 143.48 217.953 143.084 218.433 142.8C218.913 142.513 219.484 142.369 220.146 142.369C220.717 142.369 221.217 142.473 221.646 142.68C222.075 142.888 222.414 143.179 222.664 143.554C222.914 143.929 223.052 144.369 223.078 144.875H221.365C221.316 144.548 221.189 144.286 220.981 144.087C220.777 143.885 220.508 143.784 220.176 143.784C219.895 143.784 219.649 143.861 219.439 144.014C219.231 144.165 219.069 144.385 218.953 144.675C218.836 144.964 218.778 145.315 218.778 145.727C218.778 146.145 218.835 146.5 218.949 146.793C219.065 147.085 219.228 147.308 219.439 147.462C219.649 147.615 219.895 147.692 220.176 147.692C220.383 147.692 220.569 147.649 220.734 147.564C220.902 147.479 221.039 147.355 221.147 147.193C221.258 147.028 221.331 146.831 221.365 146.601H223.078C223.049 147.101 222.913 147.541 222.669 147.922C222.427 148.3 222.093 148.595 221.667 148.808C221.241 149.021 220.737 149.128 220.154 149.128ZM227.722 142.455V143.818H223.78V142.455H227.722ZM224.675 140.886H226.49V146.989C226.49 147.156 226.516 147.287 226.567 147.381C226.618 147.472 226.689 147.536 226.78 147.572C226.874 147.609 226.982 147.628 227.104 147.628C227.189 147.628 227.274 147.621 227.359 147.607C227.445 147.589 227.51 147.577 227.555 147.568L227.841 148.919C227.75 148.947 227.622 148.98 227.457 149.017C227.293 149.057 227.092 149.081 226.857 149.089C226.419 149.107 226.036 149.048 225.706 148.915C225.379 148.781 225.125 148.574 224.943 148.293C224.761 148.011 224.672 147.656 224.675 147.227V140.886Z" fill="white"/>
<rect x="246.5" y="132.5" width="94" height="24" rx="4.5" fill="#092AD0" fill-opacity="0.56" stroke="#092AD0"/>
<path d="M260.031 149L261.463 140.273H262.827L261.395 149H260.031ZM256.124 146.835L256.349 145.472H263.168L262.942 146.835H256.124ZM256.963 149L258.395 140.273H259.759L258.327 149H256.963ZM256.622 143.801L256.852 142.438H263.67L263.44 143.801H256.622ZM266.996 141.794V140.273H274.164V141.794H271.492V149H269.668V141.794H266.996ZM275.681 151.455C275.451 151.455 275.235 151.436 275.033 151.399C274.835 151.365 274.67 151.321 274.539 151.267L274.948 149.912C275.161 149.977 275.353 150.013 275.523 150.018C275.697 150.024 275.846 149.984 275.971 149.899C276.099 149.814 276.202 149.669 276.282 149.464L276.388 149.188L274.04 142.455H275.95L277.305 147.261H277.373L278.741 142.455H280.663L278.119 149.707C277.996 150.06 277.83 150.366 277.62 150.628C277.413 150.892 277.15 151.095 276.832 151.237C276.513 151.382 276.13 151.455 275.681 151.455ZM281.592 151.455V142.455H283.381V143.554H283.462C283.542 143.378 283.657 143.199 283.808 143.017C283.961 142.832 284.16 142.679 284.404 142.557C284.651 142.432 284.958 142.369 285.325 142.369C285.802 142.369 286.242 142.494 286.646 142.744C287.049 142.991 287.371 143.365 287.613 143.865C287.854 144.362 287.975 144.986 287.975 145.736C287.975 146.466 287.857 147.082 287.621 147.585C287.388 148.085 287.07 148.464 286.667 148.723C286.266 148.979 285.817 149.107 285.32 149.107C284.968 149.107 284.668 149.048 284.421 148.932C284.177 148.815 283.977 148.669 283.82 148.493C283.664 148.314 283.545 148.134 283.462 147.952H283.407V151.455H281.592ZM283.369 145.727C283.369 146.116 283.423 146.456 283.531 146.746C283.638 147.036 283.795 147.261 283.999 147.423C284.204 147.582 284.452 147.662 284.745 147.662C285.04 147.662 285.29 147.581 285.495 147.419C285.7 147.254 285.854 147.027 285.96 146.737C286.067 146.445 286.121 146.108 286.121 145.727C286.121 145.349 286.069 145.017 285.964 144.73C285.859 144.443 285.704 144.219 285.499 144.057C285.295 143.895 285.043 143.814 284.745 143.814C284.45 143.814 284.2 143.892 283.995 144.048C283.793 144.205 283.638 144.426 283.531 144.713C283.423 145 283.369 145.338 283.369 145.727ZM292.168 149.128C291.495 149.128 290.915 148.991 290.43 148.719C289.947 148.443 289.575 148.054 289.313 147.551C289.052 147.045 288.921 146.447 288.921 145.757C288.921 145.084 289.052 144.493 289.313 143.984C289.575 143.476 289.942 143.08 290.417 142.795C290.894 142.511 291.454 142.369 292.096 142.369C292.528 142.369 292.93 142.439 293.302 142.578C293.677 142.714 294.004 142.92 294.282 143.196C294.563 143.472 294.782 143.818 294.938 144.236C295.094 144.651 295.173 145.136 295.173 145.693V146.192H289.646V145.067H293.464C293.464 144.805 293.407 144.574 293.293 144.372C293.18 144.17 293.022 144.013 292.82 143.899C292.621 143.783 292.39 143.724 292.126 143.724C291.85 143.724 291.606 143.788 291.393 143.916C291.183 144.041 291.018 144.21 290.898 144.423C290.779 144.634 290.718 144.868 290.715 145.126V146.196C290.715 146.52 290.775 146.8 290.894 147.036C291.016 147.271 291.188 147.453 291.41 147.581C291.631 147.709 291.894 147.773 292.198 147.773C292.4 147.773 292.585 147.744 292.752 147.688C292.92 147.631 293.063 147.545 293.183 147.432C293.302 147.318 293.393 147.179 293.455 147.014L295.134 147.125C295.049 147.528 294.874 147.881 294.61 148.182C294.349 148.48 294.011 148.713 293.596 148.881C293.184 149.045 292.708 149.128 292.168 149.128ZM301.803 144.321L300.141 144.423C300.113 144.281 300.052 144.153 299.958 144.04C299.864 143.923 299.741 143.831 299.587 143.763C299.437 143.692 299.256 143.656 299.046 143.656C298.765 143.656 298.528 143.716 298.335 143.835C298.141 143.952 298.045 144.108 298.045 144.304C298.045 144.46 298.107 144.592 298.232 144.7C298.357 144.808 298.572 144.895 298.876 144.96L300.06 145.199C300.697 145.33 301.171 145.54 301.484 145.83C301.796 146.119 301.952 146.5 301.952 146.972C301.952 147.401 301.826 147.777 301.573 148.101C301.323 148.425 300.979 148.678 300.542 148.859C300.107 149.038 299.606 149.128 299.038 149.128C298.171 149.128 297.481 148.947 296.967 148.587C296.455 148.223 296.156 147.729 296.067 147.104L297.853 147.01C297.907 147.274 298.038 147.476 298.245 147.615C298.452 147.751 298.718 147.82 299.042 147.82C299.36 147.82 299.616 147.759 299.809 147.636C300.005 147.511 300.104 147.351 300.107 147.155C300.104 146.99 300.035 146.855 299.898 146.75C299.762 146.642 299.552 146.56 299.268 146.503L298.134 146.277C297.495 146.149 297.019 145.928 296.707 145.612C296.397 145.297 296.242 144.895 296.242 144.406C296.242 143.986 296.356 143.624 296.583 143.32C296.813 143.016 297.136 142.781 297.55 142.616C297.968 142.452 298.457 142.369 299.016 142.369C299.843 142.369 300.494 142.544 300.968 142.893C301.445 143.243 301.724 143.719 301.803 144.321ZM306.053 149.128C305.382 149.128 304.806 148.986 304.323 148.702C303.843 148.415 303.473 148.017 303.215 147.509C302.959 147 302.831 146.415 302.831 145.753C302.831 145.082 302.961 144.494 303.219 143.989C303.48 143.48 303.851 143.084 304.331 142.8C304.811 142.513 305.382 142.369 306.044 142.369C306.615 142.369 307.115 142.473 307.544 142.68C307.973 142.888 308.313 143.179 308.563 143.554C308.813 143.929 308.951 144.369 308.976 144.875H307.263C307.215 144.548 307.087 144.286 306.88 144.087C306.675 143.885 306.407 143.784 306.074 143.784C305.793 143.784 305.547 143.861 305.337 144.014C305.13 144.165 304.968 144.385 304.851 144.675C304.735 144.964 304.676 145.315 304.676 145.727C304.676 146.145 304.733 146.5 304.847 146.793C304.963 147.085 305.127 147.308 305.337 147.462C305.547 147.615 305.793 147.692 306.074 147.692C306.282 147.692 306.468 147.649 306.632 147.564C306.8 147.479 306.938 147.355 307.046 147.193C307.157 147.028 307.229 146.831 307.263 146.601H308.976C308.948 147.101 308.811 147.541 308.567 147.922C308.326 148.3 307.992 148.595 307.566 148.808C307.14 149.021 306.635 149.128 306.053 149.128ZM310.138 149V142.455H311.898V143.597H311.967C312.086 143.19 312.286 142.884 312.567 142.676C312.849 142.466 313.173 142.361 313.539 142.361C313.63 142.361 313.728 142.366 313.833 142.378C313.938 142.389 314.031 142.405 314.11 142.425V144.036C314.025 144.01 313.907 143.987 313.756 143.967C313.606 143.947 313.468 143.938 313.343 143.938C313.076 143.938 312.837 143.996 312.627 144.112C312.42 144.226 312.255 144.385 312.133 144.589C312.013 144.794 311.954 145.03 311.954 145.297V149H310.138ZM315.049 149V142.455H316.864V149H315.049ZM315.961 141.611C315.691 141.611 315.459 141.521 315.266 141.342C315.076 141.161 314.98 140.943 314.98 140.69C314.98 140.44 315.076 140.226 315.266 140.047C315.459 139.865 315.691 139.774 315.961 139.774C316.23 139.774 316.461 139.865 316.651 140.047C316.844 140.226 316.941 140.44 316.941 140.69C316.941 140.943 316.844 141.161 316.651 141.342C316.461 141.521 316.23 141.611 315.961 141.611ZM318.318 151.455V142.455H320.108V143.554H320.189C320.268 143.378 320.384 143.199 320.534 143.017C320.688 142.832 320.886 142.679 321.131 142.557C321.378 142.432 321.685 142.369 322.051 142.369C322.528 142.369 322.969 142.494 323.372 142.744C323.776 142.991 324.098 143.365 324.339 143.865C324.581 144.362 324.702 144.986 324.702 145.736C324.702 146.466 324.584 147.082 324.348 147.585C324.115 148.085 323.797 148.464 323.393 148.723C322.993 148.979 322.544 149.107 322.047 149.107C321.695 149.107 321.395 149.048 321.148 148.932C320.903 148.815 320.703 148.669 320.547 148.493C320.391 148.314 320.271 148.134 320.189 147.952H320.134V151.455H318.318ZM320.095 145.727C320.095 146.116 320.149 146.456 320.257 146.746C320.365 147.036 320.521 147.261 320.726 147.423C320.93 147.582 321.179 147.662 321.472 147.662C321.767 147.662 322.017 147.581 322.222 147.419C322.426 147.254 322.581 147.027 322.686 146.737C322.794 146.445 322.848 146.108 322.848 145.727C322.848 145.349 322.795 145.017 322.69 144.73C322.585 144.443 322.43 144.219 322.226 144.057C322.021 143.895 321.77 143.814 321.472 143.814C321.176 143.814 320.926 143.892 320.722 144.048C320.52 144.205 320.365 144.426 320.257 144.713C320.149 145 320.095 145.338 320.095 145.727ZM329.393 142.455V143.818H325.452V142.455H329.393ZM326.347 140.886H328.162V146.989C328.162 147.156 328.188 147.287 328.239 147.381C328.29 147.472 328.361 147.536 328.452 147.572C328.545 147.609 328.653 147.628 328.776 147.628C328.861 147.628 328.946 147.621 329.031 147.607C329.116 147.589 329.182 147.577 329.227 147.568L329.513 148.919C329.422 148.947 329.294 148.98 329.129 149.017C328.964 149.057 328.764 149.081 328.528 149.089C328.091 149.107 327.707 149.048 327.378 148.915C327.051 148.781 326.797 148.574 326.615 148.293C326.433 148.011 326.344 147.656 326.347 147.227V140.886Z" fill="white"/>
<rect x="350.5" y="132.5" width="89" height="24" rx="4.5" fill="#092AD0" fill-opacity="0.56" stroke="#092AD0"/>
<path d="M367.031 149L368.463 140.273H369.827L368.395 149H367.031ZM363.124 146.835L363.349 145.472H370.168L369.942 146.835H363.124ZM363.963 149L365.395 140.273H366.759L365.327 149H363.963ZM363.622 143.801L363.852 142.438H370.67L370.44 143.801H363.622ZM380.116 143.094C380.056 142.886 379.972 142.703 379.864 142.544C379.756 142.382 379.624 142.246 379.468 142.135C379.315 142.021 379.138 141.935 378.94 141.875C378.744 141.815 378.526 141.786 378.288 141.786C377.842 141.786 377.45 141.896 377.112 142.118C376.776 142.339 376.515 142.662 376.327 143.085C376.14 143.506 376.046 144.02 376.046 144.628C376.046 145.236 376.138 145.753 376.323 146.179C376.508 146.605 376.769 146.93 377.107 147.155C377.445 147.376 377.844 147.487 378.305 147.487C378.722 147.487 379.079 147.413 379.374 147.266C379.673 147.115 379.9 146.903 380.056 146.631C380.215 146.358 380.295 146.036 380.295 145.663L380.67 145.719H378.42V144.33H382.072V145.429C382.072 146.196 381.91 146.855 381.586 147.406C381.262 147.955 380.816 148.378 380.248 148.676C379.68 148.972 379.029 149.119 378.296 149.119C377.478 149.119 376.759 148.939 376.14 148.578C375.521 148.214 375.038 147.699 374.691 147.031C374.347 146.361 374.175 145.565 374.175 144.645C374.175 143.937 374.278 143.307 374.482 142.753C374.69 142.196 374.979 141.724 375.352 141.338C375.724 140.952 376.157 140.658 376.651 140.456C377.146 140.254 377.681 140.153 378.258 140.153C378.752 140.153 379.212 140.226 379.638 140.371C380.065 140.513 380.442 140.714 380.772 140.976C381.104 141.237 381.376 141.548 381.586 141.909C381.796 142.267 381.931 142.662 381.991 143.094H380.116ZM383.424 149V142.455H385.184V143.597H385.252C385.371 143.19 385.571 142.884 385.853 142.676C386.134 142.466 386.458 142.361 386.824 142.361C386.915 142.361 387.013 142.366 387.118 142.378C387.223 142.389 387.316 142.405 387.395 142.425V144.036C387.31 144.01 387.192 143.987 387.042 143.967C386.891 143.947 386.753 143.938 386.628 143.938C386.361 143.938 386.123 143.996 385.912 144.112C385.705 144.226 385.54 144.385 385.418 144.589C385.299 144.794 385.239 145.03 385.239 145.297V149H383.424ZM390.013 149.124C389.595 149.124 389.223 149.051 388.896 148.906C388.57 148.759 388.311 148.541 388.121 148.254C387.933 147.964 387.839 147.604 387.839 147.172C387.839 146.808 387.906 146.503 388.04 146.256C388.173 146.009 388.355 145.81 388.585 145.659C388.815 145.509 389.077 145.395 389.369 145.318C389.665 145.241 389.974 145.188 390.298 145.156C390.679 145.116 390.986 145.08 391.219 145.045C391.452 145.009 391.621 144.955 391.726 144.884C391.831 144.812 391.884 144.707 391.884 144.568V144.543C391.884 144.273 391.798 144.064 391.628 143.916C391.46 143.768 391.222 143.695 390.912 143.695C390.585 143.695 390.325 143.767 390.132 143.912C389.939 144.054 389.811 144.233 389.749 144.449L388.07 144.312C388.155 143.915 388.322 143.571 388.572 143.281C388.822 142.989 389.145 142.764 389.54 142.608C389.938 142.449 390.398 142.369 390.92 142.369C391.284 142.369 391.632 142.412 391.964 142.497C392.3 142.582 392.597 142.714 392.855 142.893C393.116 143.072 393.322 143.303 393.473 143.584C393.624 143.862 393.699 144.196 393.699 144.585V149H391.977V148.092H391.926C391.821 148.297 391.68 148.477 391.504 148.634C391.328 148.787 391.116 148.908 390.869 148.996C390.622 149.081 390.337 149.124 390.013 149.124ZM390.533 147.871C390.8 147.871 391.036 147.818 391.24 147.713C391.445 147.605 391.605 147.46 391.722 147.278C391.838 147.097 391.896 146.891 391.896 146.661V145.966C391.839 146.003 391.761 146.037 391.662 146.068C391.565 146.097 391.456 146.124 391.334 146.149C391.212 146.172 391.089 146.193 390.967 146.213C390.845 146.23 390.734 146.246 390.635 146.26C390.422 146.291 390.236 146.341 390.077 146.409C389.918 146.477 389.794 146.57 389.706 146.686C389.618 146.8 389.574 146.942 389.574 147.112C389.574 147.359 389.663 147.548 389.842 147.679C390.024 147.807 390.254 147.871 390.533 147.871ZM395.107 151.455V142.455H396.897V143.554H396.978C397.058 143.378 397.173 143.199 397.323 143.017C397.477 142.832 397.675 142.679 397.92 142.557C398.167 142.432 398.474 142.369 398.84 142.369C399.317 142.369 399.758 142.494 400.161 142.744C400.565 142.991 400.887 143.365 401.129 143.865C401.37 144.362 401.491 144.986 401.491 145.736C401.491 146.466 401.373 147.082 401.137 147.585C400.904 148.085 400.586 148.464 400.183 148.723C399.782 148.979 399.333 149.107 398.836 149.107C398.484 149.107 398.184 149.048 397.937 148.932C397.692 148.815 397.492 148.669 397.336 148.493C397.18 148.314 397.06 148.134 396.978 147.952H396.923V151.455H395.107ZM396.884 145.727C396.884 146.116 396.938 146.456 397.046 146.746C397.154 147.036 397.31 147.261 397.515 147.423C397.719 147.582 397.968 147.662 398.261 147.662C398.556 147.662 398.806 147.581 399.011 147.419C399.215 147.254 399.37 147.027 399.475 146.737C399.583 146.445 399.637 146.108 399.637 145.727C399.637 145.349 399.585 145.017 399.479 144.73C399.374 144.443 399.219 144.219 399.015 144.057C398.81 143.895 398.559 143.814 398.261 143.814C397.965 143.814 397.715 143.892 397.511 144.048C397.309 144.205 397.154 144.426 397.046 144.713C396.938 145 396.884 145.338 396.884 145.727ZM404.516 145.216V149H402.701V140.273H404.465V143.609H404.542C404.69 143.223 404.928 142.92 405.258 142.702C405.587 142.48 406.001 142.369 406.498 142.369C406.952 142.369 407.349 142.469 407.687 142.668C408.028 142.864 408.292 143.146 408.479 143.516C408.67 143.882 408.763 144.321 408.761 144.832V149H406.945V145.156C406.948 144.753 406.846 144.439 406.638 144.214C406.434 143.99 406.147 143.878 405.778 143.878C405.531 143.878 405.312 143.93 405.121 144.036C404.934 144.141 404.786 144.294 404.678 144.496C404.573 144.695 404.519 144.935 404.516 145.216ZM413.517 145.966H415.086L415.874 146.98L416.65 147.884L418.111 149.716H416.39L415.384 148.48L414.868 147.747L413.517 145.966ZM418.243 144.636C418.243 145.588 418.063 146.398 417.702 147.065C417.344 147.733 416.855 148.243 416.236 148.595C415.62 148.945 414.926 149.119 414.157 149.119C413.381 149.119 412.685 148.943 412.069 148.591C411.452 148.239 410.965 147.729 410.607 147.061C410.249 146.393 410.07 145.585 410.07 144.636C410.07 143.685 410.249 142.875 410.607 142.207C410.965 141.54 411.452 141.031 412.069 140.682C412.685 140.33 413.381 140.153 414.157 140.153C414.926 140.153 415.62 140.33 416.236 140.682C416.855 141.031 417.344 141.54 417.702 142.207C418.063 142.875 418.243 143.685 418.243 144.636ZM416.373 144.636C416.373 144.02 416.28 143.5 416.096 143.077C415.914 142.653 415.657 142.332 415.324 142.114C414.992 141.895 414.603 141.786 414.157 141.786C413.711 141.786 413.321 141.895 412.989 142.114C412.657 142.332 412.398 142.653 412.213 143.077C412.032 143.5 411.941 144.02 411.941 144.636C411.941 145.253 412.032 145.773 412.213 146.196C412.398 146.619 412.657 146.94 412.989 147.159C413.321 147.378 413.711 147.487 414.157 147.487C414.603 147.487 414.992 147.378 415.324 147.159C415.657 146.94 415.914 146.619 416.096 146.196C416.28 145.773 416.373 145.253 416.373 144.636ZM419.61 149V140.273H421.455V147.479H425.197V149H419.61Z" fill="white"/>
<rect x="50" y="50" width="500" height="135" rx="35" fill="white"/>
<circle cx="125" cy="117" r="40" fill="#C4C4C4"/>
<circle cx="125" cy="117" r="40" fill="#C4C4C4"/>
<rect x="107" y="122" width="36" height="20" rx="5" fill="white"/>
<circle cx="124.5" cy="105.5" r="12.5" fill="white"/>
<path d="M186.155 90.6378C186.098 90.0649 185.854 89.6198 185.423 89.3026C184.992 88.9853 184.408 88.8267 183.669 88.8267C183.167 88.8267 182.743 88.8977 182.398 89.0398C182.052 89.1771 181.787 89.3688 181.602 89.6151C181.422 89.8613 181.332 90.1406 181.332 90.4531C181.323 90.7135 181.377 90.9408 181.496 91.1349C181.619 91.3291 181.787 91.4972 182 91.6392C182.213 91.7765 182.459 91.8973 182.739 92.0014C183.018 92.1009 183.316 92.1861 183.634 92.2571L184.94 92.5696C185.575 92.7116 186.157 92.901 186.688 93.1378C187.218 93.3745 187.677 93.6657 188.065 94.0114C188.454 94.357 188.754 94.7642 188.967 95.233C189.185 95.7017 189.296 96.2391 189.301 96.8452C189.296 97.7353 189.069 98.5071 188.619 99.1605C188.174 99.8092 187.53 100.313 186.688 100.673C185.849 101.028 184.839 101.206 183.655 101.206C182.481 101.206 181.458 101.026 180.587 100.666C179.72 100.306 179.043 99.7737 178.555 99.0682C178.072 98.358 177.819 97.4796 177.795 96.4332H180.771C180.804 96.9209 180.944 97.3281 181.19 97.6548C181.441 97.9768 181.775 98.2206 182.192 98.3864C182.613 98.5473 183.089 98.6278 183.619 98.6278C184.14 98.6278 184.592 98.5521 184.976 98.4006C185.364 98.2491 185.665 98.0384 185.878 97.7685C186.091 97.4986 186.197 97.1884 186.197 96.8381C186.197 96.5114 186.1 96.2367 185.906 96.0142C185.717 95.7917 185.438 95.6023 185.068 95.446C184.704 95.2898 184.256 95.1477 183.726 95.0199L182.142 94.6222C180.916 94.3239 179.947 93.8575 179.237 93.223C178.527 92.5885 178.174 91.7339 178.179 90.6591C178.174 89.7784 178.409 89.009 178.882 88.3509C179.36 87.6927 180.016 87.179 180.849 86.8097C181.683 86.4403 182.63 86.2557 183.69 86.2557C184.77 86.2557 185.712 86.4403 186.517 86.8097C187.327 87.179 187.956 87.6927 188.406 88.3509C188.856 89.009 189.088 89.7713 189.102 90.6378H186.155ZM197.115 90.0909V92.3636H190.546V90.0909H197.115ZM192.037 87.4773H195.063V97.6477C195.063 97.9271 195.105 98.1449 195.191 98.3011C195.276 98.4527 195.394 98.5592 195.546 98.6207C195.702 98.6823 195.882 98.7131 196.086 98.7131C196.228 98.7131 196.37 98.7012 196.512 98.6776C196.654 98.6491 196.763 98.6278 196.838 98.6136L197.314 100.865C197.163 100.912 196.95 100.967 196.675 101.028C196.4 101.095 196.067 101.135 195.674 101.149C194.944 101.178 194.305 101.08 193.756 100.858C193.212 100.635 192.788 100.29 192.485 99.821C192.182 99.3523 192.033 98.7604 192.037 98.0455V87.4773ZM203.941 101.213C202.819 101.213 201.853 100.986 201.043 100.531C200.238 100.072 199.618 99.4233 199.182 98.5852C198.747 97.7424 198.529 96.7457 198.529 95.5952C198.529 94.473 198.747 93.4882 199.182 92.6406C199.618 91.7931 200.231 91.1326 201.022 90.6591C201.817 90.1856 202.75 89.9489 203.82 89.9489C204.54 89.9489 205.21 90.0649 205.83 90.2969C206.455 90.5241 206.999 90.8674 207.463 91.3267C207.932 91.786 208.297 92.3636 208.557 93.0597C208.818 93.7509 208.948 94.5606 208.948 95.4886V96.3196H199.736V94.4446H206.1C206.1 94.009 206.005 93.6231 205.816 93.2869C205.626 92.9508 205.364 92.688 205.027 92.4986C204.696 92.3045 204.31 92.2074 203.87 92.2074C203.41 92.2074 203.003 92.3139 202.648 92.527C202.298 92.7353 202.023 93.017 201.824 93.3722C201.625 93.7225 201.524 94.1132 201.519 94.544V96.3267C201.519 96.8665 201.618 97.3329 201.817 97.7259C202.021 98.1188 202.307 98.4219 202.676 98.6349C203.046 98.848 203.484 98.9545 203.99 98.9545C204.327 98.9545 204.634 98.9072 204.914 98.8125C205.193 98.7178 205.432 98.5758 205.631 98.3864C205.83 98.197 205.981 97.965 206.086 97.6903L208.884 97.875C208.742 98.5473 208.451 99.1345 208.01 99.6364C207.575 100.134 207.011 100.522 206.32 100.801C205.633 101.076 204.84 101.213 203.941 101.213ZM220.8 90.0909L216.986 101H213.577L209.763 90.0909H212.959L215.224 97.8963H215.338L217.597 90.0909H220.8ZM226.968 101.213C225.846 101.213 224.88 100.986 224.07 100.531C223.265 100.072 222.645 99.4233 222.21 98.5852C221.774 97.7424 221.556 96.7457 221.556 95.5952C221.556 94.473 221.774 93.4882 222.21 92.6406C222.645 91.7931 223.258 91.1326 224.049 90.6591C224.844 90.1856 225.777 89.9489 226.847 89.9489C227.567 89.9489 228.237 90.0649 228.857 90.2969C229.482 90.5241 230.027 90.8674 230.491 91.3267C230.96 91.786 231.324 92.3636 231.585 93.0597C231.845 93.7509 231.975 94.5606 231.975 95.4886V96.3196H222.763V94.4446H229.127C229.127 94.009 229.032 93.6231 228.843 93.2869C228.654 92.9508 228.391 92.688 228.055 92.4986C227.723 92.3045 227.337 92.2074 226.897 92.2074C226.438 92.2074 226.031 92.3139 225.675 92.527C225.325 92.7353 225.05 93.017 224.852 93.3722C224.653 93.7225 224.551 94.1132 224.546 94.544V96.3267C224.546 96.8665 224.646 97.3329 224.844 97.7259C225.048 98.1188 225.335 98.4219 225.704 98.6349C226.073 98.848 226.511 98.9545 227.018 98.9545C227.354 98.9545 227.662 98.9072 227.941 98.8125C228.22 98.7178 228.46 98.5758 228.658 98.3864C228.857 98.197 229.009 97.965 229.113 97.6903L231.911 97.875C231.769 98.5473 231.478 99.1345 231.038 99.6364C230.602 100.134 230.039 100.522 229.347 100.801C228.661 101.076 227.868 101.213 226.968 101.213ZM246.526 90.6378C246.469 90.0649 246.225 89.6198 245.794 89.3026C245.364 88.9853 244.779 88.8267 244.04 88.8267C243.538 88.8267 243.114 88.8977 242.769 89.0398C242.423 89.1771 242.158 89.3688 241.973 89.6151C241.793 89.8613 241.703 90.1406 241.703 90.4531C241.694 90.7135 241.748 90.9408 241.867 91.1349C241.99 91.3291 242.158 91.4972 242.371 91.6392C242.584 91.7765 242.83 91.8973 243.11 92.0014C243.389 92.1009 243.687 92.1861 244.005 92.2571L245.311 92.5696C245.946 92.7116 246.528 92.901 247.059 93.1378C247.589 93.3745 248.048 93.6657 248.436 94.0114C248.825 94.357 249.125 94.7642 249.338 95.233C249.556 95.7017 249.667 96.2391 249.672 96.8452C249.667 97.7353 249.44 98.5071 248.99 99.1605C248.545 99.8092 247.901 100.313 247.059 100.673C246.221 101.028 245.21 101.206 244.026 101.206C242.852 101.206 241.829 101.026 240.958 100.666C240.091 100.306 239.414 99.7737 238.926 99.0682C238.444 98.358 238.19 97.4796 238.167 96.4332H241.142C241.176 96.9209 241.315 97.3281 241.561 97.6548C241.812 97.9768 242.146 98.2206 242.563 98.3864C242.984 98.5473 243.46 98.6278 243.99 98.6278C244.511 98.6278 244.963 98.5521 245.347 98.4006C245.735 98.2491 246.036 98.0384 246.249 97.7685C246.462 97.4986 246.569 97.1884 246.569 96.8381C246.569 96.5114 246.471 96.2367 246.277 96.0142C246.088 95.7917 245.809 95.6023 245.439 95.446C245.075 95.2898 244.627 95.1477 244.097 95.0199L242.513 94.6222C241.287 94.3239 240.319 93.8575 239.608 93.223C238.898 92.5885 238.545 91.7339 238.55 90.6591C238.545 89.7784 238.78 89.009 239.253 88.3509C239.731 87.6927 240.387 87.179 241.221 86.8097C242.054 86.4403 243.001 86.2557 244.061 86.2557C245.141 86.2557 246.083 86.4403 246.888 86.8097C247.698 87.179 248.328 87.6927 248.777 88.3509C249.227 89.009 249.459 89.7713 249.473 90.6378H246.526ZM251.684 101V90.0909H254.567V92.0156H254.695C254.923 91.3764 255.301 90.8722 255.832 90.5028C256.362 90.1335 256.996 89.9489 257.735 89.9489C258.483 89.9489 259.12 90.1359 259.646 90.5099C260.171 90.8793 260.522 91.3812 260.697 92.0156H260.81C261.033 91.3906 261.435 90.8911 262.018 90.517C262.605 90.1383 263.299 89.9489 264.099 89.9489C265.117 89.9489 265.943 90.2732 266.577 90.9219C267.217 91.5658 267.536 92.4796 267.536 93.6634V101H264.518V94.2599C264.518 93.6539 264.357 93.1993 264.035 92.8963C263.713 92.5933 263.31 92.4418 262.827 92.4418C262.278 92.4418 261.85 92.617 261.542 92.9673C261.234 93.313 261.08 93.7699 261.08 94.3381V101H258.147V94.196C258.147 93.661 257.993 93.2348 257.685 92.9176C257.382 92.6004 256.982 92.4418 256.485 92.4418C256.149 92.4418 255.846 92.527 255.576 92.6974C255.311 92.8632 255.1 93.0975 254.944 93.4006C254.788 93.6989 254.71 94.0492 254.71 94.4517V101H251.684ZM269.926 101V90.0909H272.952V101H269.926ZM271.446 88.6847C270.996 88.6847 270.61 88.5355 270.288 88.2372C269.971 87.9342 269.812 87.572 269.812 87.1506C269.812 86.7339 269.971 86.3764 270.288 86.0781C270.61 85.7751 270.996 85.6236 271.446 85.6236C271.896 85.6236 272.279 85.7751 272.597 86.0781C272.919 86.3764 273.08 86.7339 273.08 87.1506C273.08 87.572 272.919 87.9342 272.597 88.2372C272.279 88.5355 271.896 88.6847 271.446 88.6847ZM281.178 90.0909V92.3636H274.608V90.0909H281.178ZM276.1 87.4773H279.125V97.6477C279.125 97.9271 279.168 98.1449 279.253 98.3011C279.338 98.4527 279.457 98.5592 279.608 98.6207C279.765 98.6823 279.944 98.7131 280.148 98.7131C280.29 98.7131 280.432 98.7012 280.574 98.6776C280.716 98.6491 280.825 98.6278 280.901 98.6136L281.377 100.865C281.225 100.912 281.012 100.967 280.738 101.028C280.463 101.095 280.129 101.135 279.736 101.149C279.007 101.178 278.368 101.08 277.819 100.858C277.274 100.635 276.85 100.29 276.547 99.821C276.244 99.3523 276.095 98.7604 276.1 98.0455V87.4773ZM286.409 94.6932V101H283.383V86.4545H286.324V92.0156H286.451C286.698 91.3717 287.095 90.8674 287.645 90.5028C288.194 90.1335 288.883 89.9489 289.711 89.9489C290.469 89.9489 291.129 90.1146 291.693 90.446C292.261 90.7727 292.701 91.2438 293.014 91.8594C293.331 92.4702 293.487 93.2017 293.483 94.054V101H290.457V94.5938C290.462 93.9214 290.291 93.3982 289.946 93.0241C289.605 92.6501 289.127 92.4631 288.511 92.4631C288.099 92.4631 287.734 92.5507 287.417 92.7259C287.105 92.901 286.859 93.1567 286.679 93.4929C286.503 93.8243 286.413 94.2244 286.409 94.6932Z" fill="black"/>
<path d="M180.114 110.364L182.926 119.205H183.034L185.852 110.364H188.58L184.568 122H181.398L177.381 110.364H180.114ZM189.98 122V110.364H194.571C195.454 110.364 196.205 110.532 196.827 110.869C197.448 111.203 197.921 111.667 198.247 112.261C198.577 112.852 198.741 113.534 198.741 114.307C198.741 115.08 198.575 115.761 198.241 116.352C197.908 116.943 197.425 117.403 196.793 117.733C196.164 118.062 195.402 118.227 194.509 118.227H191.582V116.256H194.111C194.584 116.256 194.974 116.174 195.281 116.011C195.592 115.845 195.823 115.616 195.974 115.324C196.13 115.028 196.207 114.689 196.207 114.307C196.207 113.92 196.13 113.583 195.974 113.295C195.823 113.004 195.592 112.778 195.281 112.619C194.971 112.456 194.577 112.375 194.099 112.375H192.44V122H189.98ZM204.043 122V110.364H211.884V112.392H206.503V115.165H211.48V117.193H206.503V119.972H211.906V122H204.043ZM216.214 116.955V122H213.794V113.273H216.101V114.812H216.203C216.396 114.305 216.72 113.903 217.175 113.608C217.629 113.309 218.18 113.159 218.828 113.159C219.434 113.159 219.963 113.292 220.413 113.557C220.864 113.822 221.214 114.201 221.464 114.693C221.714 115.182 221.839 115.765 221.839 116.443V122H219.419V116.875C219.423 116.341 219.286 115.924 219.01 115.625C218.733 115.322 218.353 115.17 217.868 115.17C217.542 115.17 217.254 115.241 217.004 115.381C216.758 115.521 216.565 115.725 216.425 115.994C216.288 116.259 216.218 116.58 216.214 116.955ZM227.679 125.455C226.895 125.455 226.223 125.347 225.662 125.131C225.105 124.919 224.662 124.629 224.332 124.261C224.003 123.894 223.789 123.481 223.69 123.023L225.929 122.722C225.997 122.896 226.105 123.059 226.253 123.21C226.401 123.362 226.596 123.483 226.838 123.574C227.084 123.669 227.384 123.716 227.736 123.716C228.262 123.716 228.696 123.587 229.037 123.33C229.382 123.076 229.554 122.65 229.554 122.051V120.455H229.452C229.346 120.697 229.187 120.926 228.974 121.142C228.762 121.358 228.49 121.534 228.156 121.67C227.823 121.807 227.425 121.875 226.963 121.875C226.308 121.875 225.711 121.723 225.173 121.42C224.639 121.114 224.213 120.646 223.895 120.017C223.58 119.384 223.423 118.585 223.423 117.619C223.423 116.631 223.584 115.805 223.906 115.142C224.228 114.479 224.656 113.983 225.19 113.653C225.728 113.324 226.317 113.159 226.957 113.159C227.446 113.159 227.855 113.242 228.185 113.409C228.514 113.572 228.779 113.777 228.98 114.023C229.185 114.265 229.342 114.504 229.452 114.739H229.543V113.273H231.946V122.085C231.946 122.828 231.764 123.449 231.401 123.949C231.037 124.449 230.533 124.824 229.889 125.074C229.249 125.328 228.512 125.455 227.679 125.455ZM227.73 120.057C228.12 120.057 228.45 119.96 228.719 119.767C228.991 119.57 229.2 119.29 229.344 118.926C229.491 118.559 229.565 118.119 229.565 117.608C229.565 117.097 229.493 116.653 229.349 116.278C229.205 115.9 228.997 115.606 228.724 115.398C228.452 115.189 228.12 115.085 227.73 115.085C227.332 115.085 226.997 115.193 226.724 115.409C226.452 115.621 226.245 115.917 226.105 116.295C225.965 116.674 225.895 117.112 225.895 117.608C225.895 118.112 225.965 118.547 226.105 118.915C226.249 119.278 226.455 119.561 226.724 119.761C226.997 119.958 227.332 120.057 227.73 120.057ZM233.872 122V113.273H236.293V122H233.872ZM235.088 112.148C234.728 112.148 234.42 112.028 234.162 111.79C233.908 111.547 233.781 111.258 233.781 110.92C233.781 110.587 233.908 110.301 234.162 110.062C234.42 109.82 234.728 109.699 235.088 109.699C235.448 109.699 235.755 109.82 236.009 110.062C236.266 110.301 236.395 110.587 236.395 110.92C236.395 111.258 236.266 111.547 236.009 111.79C235.755 112.028 235.448 112.148 235.088 112.148ZM240.652 116.955V122H238.232V113.273H240.538V114.812H240.641C240.834 114.305 241.158 113.903 241.612 113.608C242.067 113.309 242.618 113.159 243.266 113.159C243.872 113.159 244.4 113.292 244.851 113.557C245.302 113.822 245.652 114.201 245.902 114.693C246.152 115.182 246.277 115.765 246.277 116.443V122H243.857V116.875C243.86 116.341 243.724 115.924 243.447 115.625C243.171 115.322 242.79 115.17 242.305 115.17C241.98 115.17 241.692 115.241 241.442 115.381C241.196 115.521 241.002 115.725 240.862 115.994C240.726 116.259 240.656 116.58 240.652 116.955ZM252.162 122.17C251.264 122.17 250.491 121.989 249.844 121.625C249.2 121.258 248.704 120.739 248.355 120.068C248.007 119.394 247.832 118.597 247.832 117.676C247.832 116.778 248.007 115.991 248.355 115.312C248.704 114.634 249.194 114.106 249.827 113.727C250.463 113.348 251.209 113.159 252.065 113.159C252.641 113.159 253.177 113.252 253.673 113.438C254.173 113.619 254.609 113.894 254.98 114.261C255.355 114.629 255.647 115.091 255.855 115.648C256.063 116.201 256.168 116.848 256.168 117.591V118.256H248.798V116.756H253.889C253.889 116.407 253.813 116.098 253.662 115.83C253.51 115.561 253.3 115.35 253.031 115.199C252.766 115.044 252.457 114.966 252.105 114.966C251.738 114.966 251.412 115.051 251.128 115.222C250.848 115.388 250.628 115.614 250.469 115.898C250.31 116.178 250.228 116.491 250.224 116.835V118.261C250.224 118.693 250.304 119.066 250.463 119.381C250.626 119.695 250.855 119.938 251.151 120.108C251.446 120.278 251.796 120.364 252.202 120.364C252.471 120.364 252.717 120.326 252.94 120.25C253.164 120.174 253.355 120.061 253.514 119.909C253.673 119.758 253.795 119.572 253.878 119.352L256.116 119.5C256.003 120.038 255.77 120.508 255.418 120.909C255.069 121.307 254.618 121.617 254.065 121.841C253.516 122.061 252.882 122.17 252.162 122.17ZM261.724 122.17C260.827 122.17 260.054 121.989 259.406 121.625C258.762 121.258 258.266 120.739 257.918 120.068C257.569 119.394 257.395 118.597 257.395 117.676C257.395 116.778 257.569 115.991 257.918 115.312C258.266 114.634 258.757 114.106 259.389 113.727C260.026 113.348 260.772 113.159 261.628 113.159C262.204 113.159 262.74 113.252 263.236 113.438C263.736 113.619 264.171 113.894 264.543 114.261C264.918 114.629 265.209 115.091 265.418 115.648C265.626 116.201 265.73 116.848 265.73 117.591V118.256H258.361V116.756H263.452C263.452 116.407 263.376 116.098 263.224 115.83C263.073 115.561 262.863 115.35 262.594 115.199C262.329 115.044 262.02 114.966 261.668 114.966C261.3 114.966 260.974 115.051 260.69 115.222C260.41 115.388 260.19 115.614 260.031 115.898C259.872 116.178 259.791 116.491 259.787 116.835V118.261C259.787 118.693 259.866 119.066 260.026 119.381C260.188 119.695 260.418 119.938 260.713 120.108C261.009 120.278 261.359 120.364 261.764 120.364C262.033 120.364 262.279 120.326 262.503 120.25C262.726 120.174 262.918 120.061 263.077 119.909C263.236 119.758 263.357 119.572 263.44 119.352L265.679 119.5C265.565 120.038 265.332 120.508 264.98 120.909C264.632 121.307 264.181 121.617 263.628 121.841C263.079 122.061 262.444 122.17 261.724 122.17ZM267.31 122V113.273H269.656V114.795H269.747C269.906 114.254 270.173 113.845 270.548 113.568C270.923 113.288 271.355 113.148 271.844 113.148C271.965 113.148 272.096 113.155 272.236 113.17C272.376 113.186 272.499 113.206 272.605 113.233V115.381C272.491 115.347 272.334 115.316 272.134 115.29C271.933 115.263 271.749 115.25 271.582 115.25C271.226 115.25 270.908 115.328 270.628 115.483C270.351 115.634 270.132 115.847 269.969 116.119C269.81 116.392 269.73 116.706 269.73 117.062V122H267.31ZM273.857 122V113.273H276.277V122H273.857ZM275.072 112.148C274.713 112.148 274.404 112.028 274.146 111.79C273.893 111.547 273.766 111.258 273.766 110.92C273.766 110.587 273.893 110.301 274.146 110.062C274.404 109.82 274.713 109.699 275.072 109.699C275.432 109.699 275.739 109.82 275.993 110.062C276.25 110.301 276.379 110.587 276.379 110.92C276.379 111.258 276.25 111.547 275.993 111.79C275.739 112.028 275.432 112.148 275.072 112.148ZM280.636 116.955V122H278.216V113.273H280.523V114.812H280.625C280.818 114.305 281.142 113.903 281.597 113.608C282.051 113.309 282.602 113.159 283.25 113.159C283.856 113.159 284.384 113.292 284.835 113.557C285.286 113.822 285.636 114.201 285.886 114.693C286.136 115.182 286.261 115.765 286.261 116.443V122H283.841V116.875C283.845 116.341 283.708 115.924 283.432 115.625C283.155 115.322 282.775 115.17 282.29 115.17C281.964 115.17 281.676 115.241 281.426 115.381C281.18 115.521 280.987 115.725 280.847 115.994C280.71 116.259 280.64 116.58 280.636 116.955ZM292.101 125.455C291.317 125.455 290.644 125.347 290.084 125.131C289.527 124.919 289.084 124.629 288.754 124.261C288.425 123.894 288.211 123.481 288.112 123.023L290.351 122.722C290.419 122.896 290.527 123.059 290.675 123.21C290.822 123.362 291.018 123.483 291.26 123.574C291.506 123.669 291.805 123.716 292.158 123.716C292.684 123.716 293.118 123.587 293.459 123.33C293.804 123.076 293.976 122.65 293.976 122.051V120.455H293.874C293.768 120.697 293.608 120.926 293.396 121.142C293.184 121.358 292.911 121.534 292.578 121.67C292.245 121.807 291.847 121.875 291.385 121.875C290.73 121.875 290.133 121.723 289.595 121.42C289.061 121.114 288.635 120.646 288.317 120.017C288.002 119.384 287.845 118.585 287.845 117.619C287.845 116.631 288.006 115.805 288.328 115.142C288.65 114.479 289.078 113.983 289.612 113.653C290.15 113.324 290.739 113.159 291.379 113.159C291.868 113.159 292.277 113.242 292.607 113.409C292.936 113.572 293.201 113.777 293.402 114.023C293.607 114.265 293.764 114.504 293.874 114.739H293.964V113.273H296.368V122.085C296.368 122.828 296.186 123.449 295.822 123.949C295.459 124.449 294.955 124.824 294.311 125.074C293.671 125.328 292.934 125.455 292.101 125.455ZM292.152 120.057C292.542 120.057 292.872 119.96 293.141 119.767C293.413 119.57 293.622 119.29 293.766 118.926C293.913 118.559 293.987 118.119 293.987 117.608C293.987 117.097 293.915 116.653 293.771 116.278C293.627 115.9 293.419 115.606 293.146 115.398C292.874 115.189 292.542 115.085 292.152 115.085C291.754 115.085 291.419 115.193 291.146 115.409C290.874 115.621 290.667 115.917 290.527 116.295C290.387 116.674 290.317 117.112 290.317 117.608C290.317 118.112 290.387 118.547 290.527 118.915C290.671 119.278 290.877 119.561 291.146 119.761C291.419 119.958 291.754 120.057 292.152 120.057Z" fill="#092AD0"/>
<rect x="177.5" y="132.5" width="59" height="24" rx="4.5" fill="#092AD0" fill-opacity="0.56" stroke="#092AD0"/>
<path d="M188.031 149L189.463 140.273H190.827L189.395 149H188.031ZM184.124 146.835L184.349 145.472H191.168L190.942 146.835H184.124ZM184.963 149L186.395 140.273H187.759L186.327 149H184.963ZM184.622 143.801L184.852 142.438H191.67L191.44 143.801H184.622ZM195.329 149V140.273H198.772C199.431 140.273 199.994 140.391 200.46 140.626C200.928 140.859 201.285 141.19 201.529 141.619C201.776 142.045 201.9 142.547 201.9 143.124C201.9 143.703 201.775 144.202 201.525 144.619C201.275 145.034 200.913 145.352 200.438 145.574C199.967 145.795 199.396 145.906 198.725 145.906H196.42V144.423H198.427C198.779 144.423 199.072 144.375 199.305 144.278C199.538 144.182 199.711 144.037 199.825 143.844C199.941 143.651 199.999 143.411 199.999 143.124C199.999 142.834 199.941 142.589 199.825 142.391C199.711 142.192 199.536 142.041 199.3 141.939C199.067 141.834 198.773 141.781 198.418 141.781H197.174V149H195.329ZM200.042 145.028L202.211 149H200.174L198.052 145.028H200.042ZM206.047 149.128C205.374 149.128 204.794 148.991 204.309 148.719C203.826 148.443 203.453 148.054 203.192 147.551C202.931 147.045 202.8 146.447 202.8 145.757C202.8 145.084 202.931 144.493 203.192 143.984C203.453 143.476 203.821 143.08 204.296 142.795C204.773 142.511 205.333 142.369 205.975 142.369C206.407 142.369 206.809 142.439 207.181 142.578C207.556 142.714 207.882 142.92 208.161 143.196C208.442 143.472 208.661 143.818 208.817 144.236C208.973 144.651 209.051 145.136 209.051 145.693V146.192H203.525V145.067H207.343C207.343 144.805 207.286 144.574 207.172 144.372C207.059 144.17 206.901 144.013 206.699 143.899C206.5 143.783 206.269 143.724 206.005 143.724C205.729 143.724 205.485 143.788 205.272 143.916C205.061 144.041 204.897 144.21 204.777 144.423C204.658 144.634 204.597 144.868 204.594 145.126V146.196C204.594 146.52 204.654 146.8 204.773 147.036C204.895 147.271 205.067 147.453 205.289 147.581C205.51 147.709 205.773 147.773 206.077 147.773C206.279 147.773 206.463 147.744 206.631 147.688C206.799 147.631 206.942 147.545 207.061 147.432C207.181 147.318 207.272 147.179 207.334 147.014L209.013 147.125C208.928 147.528 208.753 147.881 208.489 148.182C208.228 148.48 207.89 148.713 207.475 148.881C207.063 149.045 206.587 149.128 206.047 149.128ZM212.103 149.124C211.685 149.124 211.313 149.051 210.986 148.906C210.659 148.759 210.401 148.541 210.211 148.254C210.023 147.964 209.929 147.604 209.929 147.172C209.929 146.808 209.996 146.503 210.13 146.256C210.263 146.009 210.445 145.81 210.675 145.659C210.905 145.509 211.167 145.395 211.459 145.318C211.755 145.241 212.064 145.188 212.388 145.156C212.769 145.116 213.076 145.08 213.309 145.045C213.542 145.009 213.711 144.955 213.816 144.884C213.921 144.812 213.973 144.707 213.973 144.568V144.543C213.973 144.273 213.888 144.064 213.718 143.916C213.55 143.768 213.311 143.695 213.002 143.695C212.675 143.695 212.415 143.767 212.222 143.912C212.029 144.054 211.901 144.233 211.838 144.449L210.159 144.312C210.245 143.915 210.412 143.571 210.662 143.281C210.912 142.989 211.235 142.764 211.63 142.608C212.027 142.449 212.488 142.369 213.01 142.369C213.374 142.369 213.722 142.412 214.054 142.497C214.39 142.582 214.686 142.714 214.945 142.893C215.206 143.072 215.412 143.303 215.563 143.584C215.713 143.862 215.789 144.196 215.789 144.585V149H214.067V148.092H214.016C213.911 148.297 213.77 148.477 213.594 148.634C213.418 148.787 213.206 148.908 212.959 148.996C212.712 149.081 212.426 149.124 212.103 149.124ZM212.623 147.871C212.89 147.871 213.125 147.818 213.33 147.713C213.534 147.605 213.695 147.46 213.811 147.278C213.928 147.097 213.986 146.891 213.986 146.661V145.966C213.929 146.003 213.851 146.037 213.752 146.068C213.655 146.097 213.546 146.124 213.424 146.149C213.301 146.172 213.179 146.193 213.057 146.213C212.935 146.23 212.824 146.246 212.725 146.26C212.512 146.291 212.326 146.341 212.167 146.409C212.007 146.477 211.884 146.57 211.796 146.686C211.708 146.8 211.664 146.942 211.664 147.112C211.664 147.359 211.753 147.548 211.932 147.679C212.114 147.807 212.344 147.871 212.623 147.871ZM220.154 149.128C219.484 149.128 218.907 148.986 218.424 148.702C217.944 148.415 217.575 148.017 217.316 147.509C217.061 147 216.933 146.415 216.933 145.753C216.933 145.082 217.062 144.494 217.321 143.989C217.582 143.48 217.953 143.084 218.433 142.8C218.913 142.513 219.484 142.369 220.146 142.369C220.717 142.369 221.217 142.473 221.646 142.68C222.075 142.888 222.414 143.179 222.664 143.554C222.914 143.929 223.052 144.369 223.078 144.875H221.365C221.316 144.548 221.189 144.286 220.981 144.087C220.777 143.885 220.508 143.784 220.176 143.784C219.895 143.784 219.649 143.861 219.439 144.014C219.231 144.165 219.069 144.385 218.953 144.675C218.836 144.964 218.778 145.315 218.778 145.727C218.778 146.145 218.835 146.5 218.949 146.793C219.065 147.085 219.228 147.308 219.439 147.462C219.649 147.615 219.895 147.692 220.176 147.692C220.383 147.692 220.569 147.649 220.734 147.564C220.902 147.479 221.039 147.355 221.147 147.193C221.258 147.028 221.331 146.831 221.365 146.601H223.078C223.049 147.101 222.913 147.541 222.669 147.922C222.427 148.3 222.093 148.595 221.667 148.808C221.241 149.021 220.737 149.128 220.154 149.128ZM227.722 142.455V143.818H223.78V142.455H227.722ZM224.675 140.886H226.49V146.989C226.49 147.156 226.516 147.287 226.567 147.381C226.618 147.472 226.689 147.536 226.78 147.572C226.874 147.609 226.982 147.628 227.104 147.628C227.189 147.628 227.274 147.621 227.359 147.607C227.445 147.589 227.51 147.577 227.555 147.568L227.841 148.919C227.75 148.947 227.622 148.98 227.457 149.017C227.293 149.057 227.092 149.081 226.857 149.089C226.419 149.107 226.036 149.048 225.706 148.915C225.379 148.781 225.125 148.574 224.943 148.293C224.761 148.011 224.672 147.656 224.675 147.227V140.886Z" fill="white"/>
<rect x="246.5" y="132.5" width="59" height="24" rx="4.5" fill="#092AD0" fill-opacity="0.56" stroke="#092AD0"/>
<path d="M256.031 149L257.463 140.273H258.827L257.395 149H256.031ZM252.124 146.835L252.349 145.472H259.168L258.942 146.835H252.124ZM252.963 149L254.395 140.273H255.759L254.327 149H252.963ZM252.622 143.801L252.852 142.438H259.67L259.44 143.801H252.622ZM263.329 149V140.273H269.107V141.794H265.174V143.874H268.724V145.395H265.174V149H263.329ZM270.314 149V142.455H272.13V149H270.314ZM271.226 141.611C270.956 141.611 270.725 141.521 270.532 141.342C270.341 141.161 270.246 140.943 270.246 140.69C270.246 140.44 270.341 140.226 270.532 140.047C270.725 139.865 270.956 139.774 271.226 139.774C271.496 139.774 271.726 139.865 271.917 140.047C272.11 140.226 272.206 140.44 272.206 140.69C272.206 140.943 272.11 141.161 271.917 141.342C271.726 141.521 271.496 141.611 271.226 141.611ZM276.533 151.591C275.945 151.591 275.44 151.51 275.02 151.348C274.602 151.189 274.27 150.972 274.023 150.696C273.776 150.42 273.615 150.111 273.541 149.767L275.22 149.541C275.271 149.672 275.352 149.794 275.463 149.908C275.574 150.021 275.72 150.112 275.902 150.18C276.087 150.251 276.311 150.287 276.575 150.287C276.97 150.287 277.295 150.19 277.551 149.997C277.81 149.807 277.939 149.487 277.939 149.038V147.841H277.862C277.783 148.023 277.663 148.195 277.504 148.357C277.345 148.518 277.141 148.651 276.891 148.753C276.641 148.855 276.342 148.906 275.996 148.906C275.504 148.906 275.057 148.793 274.653 148.565C274.253 148.335 273.933 147.984 273.695 147.513C273.459 147.038 273.341 146.439 273.341 145.714C273.341 144.973 273.462 144.354 273.703 143.857C273.945 143.359 274.266 142.987 274.666 142.74C275.07 142.493 275.511 142.369 275.991 142.369C276.358 142.369 276.665 142.432 276.912 142.557C277.159 142.679 277.358 142.832 277.509 143.017C277.662 143.199 277.78 143.378 277.862 143.554H277.93V142.455H279.733V149.064C279.733 149.621 279.597 150.087 279.324 150.462C279.051 150.837 278.673 151.118 278.19 151.305C277.71 151.496 277.158 151.591 276.533 151.591ZM276.571 147.543C276.864 147.543 277.111 147.47 277.312 147.325C277.517 147.178 277.673 146.967 277.781 146.695C277.892 146.419 277.947 146.089 277.947 145.706C277.947 145.322 277.893 144.99 277.786 144.709C277.678 144.425 277.521 144.205 277.317 144.048C277.112 143.892 276.864 143.814 276.571 143.814C276.273 143.814 276.021 143.895 275.817 144.057C275.612 144.216 275.457 144.437 275.352 144.722C275.247 145.006 275.195 145.334 275.195 145.706C275.195 146.084 275.247 146.411 275.352 146.686C275.46 146.959 275.615 147.17 275.817 147.321C276.021 147.469 276.273 147.543 276.571 147.543ZM281.178 149V142.455H282.908V143.609H282.984C283.121 143.226 283.348 142.923 283.666 142.702C283.984 142.48 284.365 142.369 284.808 142.369C285.257 142.369 285.639 142.482 285.955 142.706C286.27 142.928 286.48 143.229 286.585 143.609H286.653C286.787 143.234 287.028 142.935 287.378 142.71C287.73 142.483 288.146 142.369 288.626 142.369C289.237 142.369 289.733 142.564 290.114 142.953C290.497 143.339 290.689 143.888 290.689 144.598V149H288.878V144.956C288.878 144.592 288.781 144.32 288.588 144.138C288.395 143.956 288.153 143.865 287.864 143.865C287.534 143.865 287.277 143.97 287.092 144.18C286.908 144.388 286.815 144.662 286.815 145.003V149H285.055V144.918C285.055 144.597 284.963 144.341 284.778 144.151C284.597 143.96 284.357 143.865 284.058 143.865C283.857 143.865 283.675 143.916 283.513 144.018C283.354 144.118 283.227 144.259 283.134 144.44C283.04 144.619 282.993 144.83 282.993 145.071V149H281.178ZM293.989 149.124C293.572 149.124 293.2 149.051 292.873 148.906C292.546 148.759 292.288 148.541 292.097 148.254C291.91 147.964 291.816 147.604 291.816 147.172C291.816 146.808 291.883 146.503 292.016 146.256C292.15 146.009 292.332 145.81 292.562 145.659C292.792 145.509 293.053 145.395 293.346 145.318C293.641 145.241 293.951 145.188 294.275 145.156C294.656 145.116 294.962 145.08 295.195 145.045C295.428 145.009 295.597 144.955 295.702 144.884C295.808 144.812 295.86 144.707 295.86 144.568V144.543C295.86 144.273 295.775 144.064 295.604 143.916C295.437 143.768 295.198 143.695 294.888 143.695C294.562 143.695 294.302 143.767 294.109 143.912C293.915 144.054 293.788 144.233 293.725 144.449L292.046 144.312C292.131 143.915 292.299 143.571 292.549 143.281C292.799 142.989 293.121 142.764 293.516 142.608C293.914 142.449 294.374 142.369 294.897 142.369C295.261 142.369 295.609 142.412 295.941 142.497C296.276 142.582 296.573 142.714 296.832 142.893C297.093 143.072 297.299 143.303 297.45 143.584C297.6 143.862 297.675 144.196 297.675 144.585V149H295.954V148.092H295.903C295.798 148.297 295.657 148.477 295.481 148.634C295.305 148.787 295.093 148.908 294.846 148.996C294.599 149.081 294.313 149.124 293.989 149.124ZM294.509 147.871C294.776 147.871 295.012 147.818 295.217 147.713C295.421 147.605 295.582 147.46 295.698 147.278C295.815 147.097 295.873 146.891 295.873 146.661V145.966C295.816 146.003 295.738 146.037 295.638 146.068C295.542 146.097 295.433 146.124 295.31 146.149C295.188 146.172 295.066 146.193 294.944 146.213C294.822 146.23 294.711 146.246 294.612 146.26C294.398 146.291 294.212 146.341 294.053 146.409C293.894 146.477 293.771 146.57 293.683 146.686C293.594 146.8 293.55 146.942 293.55 147.112C293.55 147.359 293.64 147.548 293.819 147.679C294.001 147.807 294.231 147.871 294.509 147.871Z" fill="white"/>
<rect x="315.5" y="132.5" width="94" height="24" rx="4.5" fill="#092AD0" fill-opacity="0.56" stroke="#092AD0"/>
<path d="M329.031 149L330.463 140.273H331.827L330.395 149H329.031ZM325.124 146.835L325.349 145.472H332.168L331.942 146.835H325.124ZM325.963 149L327.395 140.273H328.759L327.327 149H325.963ZM325.622 143.801L325.852 142.438H332.67L332.44 143.801H325.622ZM336.329 149V140.273H338.174V143.874H341.92V140.273H343.761V149H341.92V145.395H338.174V149H336.329ZM344.95 141.794V140.273H352.117V141.794H349.445V149H347.621V141.794H344.95ZM353.298 140.273H355.573L357.977 146.136H358.079L360.482 140.273H362.758V149H360.968V143.32H360.896L358.637 148.957H357.418L355.16 143.298H355.087V149H353.298V140.273ZM364.278 149V140.273H366.123V147.479H369.865V149H364.278ZM374.854 139.864L372.041 150.312H370.477L373.29 139.864H374.854ZM383.463 143.328H381.596C381.562 143.087 381.493 142.872 381.387 142.685C381.282 142.494 381.147 142.332 380.983 142.199C380.818 142.065 380.627 141.963 380.412 141.892C380.199 141.821 379.967 141.786 379.717 141.786C379.265 141.786 378.872 141.898 378.537 142.122C378.201 142.344 377.941 142.668 377.757 143.094C377.572 143.517 377.48 144.031 377.48 144.636C377.48 145.259 377.572 145.781 377.757 146.205C377.944 146.628 378.206 146.947 378.541 147.163C378.876 147.379 379.264 147.487 379.704 147.487C379.951 147.487 380.18 147.455 380.39 147.389C380.603 147.324 380.792 147.229 380.957 147.104C381.122 146.976 381.258 146.821 381.366 146.639C381.477 146.457 381.554 146.25 381.596 146.017L383.463 146.026C383.414 146.426 383.294 146.812 383.1 147.185C382.91 147.554 382.653 147.885 382.329 148.178C382.008 148.467 381.625 148.697 381.179 148.868C380.735 149.036 380.234 149.119 379.674 149.119C378.896 149.119 378.2 148.943 377.586 148.591C376.975 148.239 376.493 147.729 376.137 147.061C375.785 146.393 375.609 145.585 375.609 144.636C375.609 143.685 375.788 142.875 376.146 142.207C376.504 141.54 376.99 141.031 377.603 140.682C378.217 140.33 378.907 140.153 379.674 140.153C380.18 140.153 380.649 140.224 381.081 140.366C381.515 140.509 381.9 140.716 382.235 140.989C382.571 141.259 382.843 141.589 383.054 141.982C383.267 142.374 383.403 142.822 383.463 143.328ZM389.52 142.783C389.486 142.439 389.34 142.172 389.081 141.982C388.823 141.791 388.472 141.696 388.029 141.696C387.728 141.696 387.473 141.739 387.266 141.824C387.059 141.906 386.9 142.021 386.789 142.169C386.681 142.317 386.627 142.484 386.627 142.672C386.621 142.828 386.654 142.964 386.725 143.081C386.799 143.197 386.9 143.298 387.027 143.384C387.155 143.466 387.303 143.538 387.471 143.601C387.638 143.661 387.817 143.712 388.007 143.754L388.792 143.942C389.172 144.027 389.522 144.141 389.84 144.283C390.158 144.425 390.434 144.599 390.667 144.807C390.9 145.014 391.08 145.259 391.208 145.54C391.338 145.821 391.405 146.143 391.408 146.507C391.405 147.041 391.269 147.504 390.999 147.896C390.732 148.286 390.346 148.588 389.84 148.804C389.337 149.017 388.73 149.124 388.02 149.124C387.316 149.124 386.702 149.016 386.179 148.8C385.659 148.584 385.253 148.264 384.961 147.841C384.671 147.415 384.519 146.888 384.505 146.26H386.29C386.31 146.553 386.394 146.797 386.542 146.993C386.692 147.186 386.892 147.332 387.142 147.432C387.395 147.528 387.681 147.577 387.999 147.577C388.311 147.577 388.583 147.531 388.813 147.44C389.046 147.349 389.226 147.223 389.354 147.061C389.482 146.899 389.546 146.713 389.546 146.503C389.546 146.307 389.488 146.142 389.371 146.009C389.257 145.875 389.09 145.761 388.868 145.668C388.65 145.574 388.381 145.489 388.063 145.412L387.113 145.173C386.377 144.994 385.796 144.714 385.37 144.334C384.944 143.953 384.732 143.44 384.735 142.795C384.732 142.267 384.873 141.805 385.157 141.411C385.444 141.016 385.837 140.707 386.337 140.486C386.837 140.264 387.405 140.153 388.042 140.153C388.689 140.153 389.255 140.264 389.738 140.486C390.223 140.707 390.601 141.016 390.871 141.411C391.141 141.805 391.28 142.263 391.289 142.783H389.52ZM397.384 142.783C397.349 142.439 397.203 142.172 396.945 141.982C396.686 141.791 396.335 141.696 395.892 141.696C395.591 141.696 395.337 141.739 395.129 141.824C394.922 141.906 394.763 142.021 394.652 142.169C394.544 142.317 394.49 142.484 394.49 142.672C394.484 142.828 394.517 142.964 394.588 143.081C394.662 143.197 394.763 143.298 394.891 143.384C395.018 143.466 395.166 143.538 395.334 143.601C395.501 143.661 395.68 143.712 395.871 143.754L396.655 143.942C397.036 144.027 397.385 144.141 397.703 144.283C398.021 144.425 398.297 144.599 398.53 144.807C398.763 145.014 398.943 145.259 399.071 145.54C399.202 145.821 399.268 146.143 399.271 146.507C399.268 147.041 399.132 147.504 398.862 147.896C398.595 148.286 398.209 148.588 397.703 148.804C397.2 149.017 396.594 149.124 395.884 149.124C395.179 149.124 394.565 149.016 394.043 148.8C393.523 148.584 393.116 148.264 392.824 147.841C392.534 147.415 392.382 146.888 392.368 146.26H394.153C394.173 146.553 394.257 146.797 394.405 146.993C394.555 147.186 394.756 147.332 395.006 147.432C395.259 147.528 395.544 147.577 395.862 147.577C396.175 147.577 396.446 147.531 396.676 147.44C396.909 147.349 397.089 147.223 397.217 147.061C397.345 146.899 397.409 146.713 397.409 146.503C397.409 146.307 397.351 146.142 397.234 146.009C397.121 145.875 396.953 145.761 396.732 145.668C396.513 145.574 396.244 145.489 395.926 145.412L394.976 145.173C394.24 144.994 393.659 144.714 393.233 144.334C392.807 143.953 392.595 143.44 392.598 142.795C392.595 142.267 392.736 141.805 393.02 141.411C393.307 141.016 393.7 140.707 394.2 140.486C394.7 140.264 395.268 140.153 395.905 140.153C396.553 140.153 397.118 140.264 397.601 140.486C398.087 140.707 398.464 141.016 398.734 141.411C399.004 141.805 399.143 142.263 399.152 142.783H397.384Z" fill="white"/>
</g>
<defs>
<filter id="filter0_d_813_1618" x="0" y="0" width="600" height="235" filterUnits="userSpaceOnUse" color-interpolation-filters="sRGB">
<feFlood flood-opacity="0" result="BackgroundImageFix"/>
<feColorMatrix in="SourceAlpha" type="matrix" values="0 0 0 0 0 0 0 0 0 0 0 0 0 0 0 0 0 0 127 0" result="hardAlpha"/>
<feOffset/>
<feGaussianBlur stdDeviation="25"/>
<feComposite in2="hardAlpha" operator="out"/>
<feColorMatrix type="matrix" values="0 0 0 0 0 0 0 0 0 0 0 0 0 0 0 0 0 0 0.09 0"/>
<feBlend mode="normal" in2="BackgroundImageFix" result="effect1_dropShadow_813_1618"/>
<feBlend mode="normal" in="SourceGraphic" in2="effect1_dropShadow_813_1618" result="shape"/>
</filter>
</defs>
</svg>
