<svg width="383" height="110" viewBox="0 0 383 110" fill="none" xmlns="http://www.w3.org/2000/svg">
<g filter="url(#filter0_d_799_1424)">
<rect x="4" width="375" height="101.25" rx="26.25" fill="white"/>
<circle cx="60.25" cy="50.25" r="30" fill="#C4C4C4"/>
<rect x="46.75" y="54" width="27" height="15" rx="3.75" fill="white"/>
<circle cx="59.875" cy="41.625" r="9.375" fill="white"/>
<path d="M104.065 38H100.198V27.0909H104.097C105.195 27.0909 106.139 27.3093 106.931 27.7461C107.723 28.1793 108.332 28.8026 108.758 29.6158C109.188 30.429 109.403 31.402 109.403 32.5348C109.403 33.6712 109.188 34.6477 108.758 35.4645C108.332 36.2812 107.719 36.908 106.92 37.3448C106.125 37.7816 105.173 38 104.065 38ZM102.505 36.0238H103.969C104.651 36.0238 105.225 35.9031 105.69 35.6616C106.159 35.4165 106.51 35.0384 106.745 34.527C106.983 34.0121 107.102 33.348 107.102 32.5348C107.102 31.7287 106.983 31.07 106.745 30.5586C106.51 30.0472 106.161 29.6708 105.695 29.4293C105.23 29.1879 104.657 29.0671 103.975 29.0671H102.505V36.0238ZM113.402 38.1545C112.88 38.1545 112.415 38.0639 112.006 37.8828C111.598 37.6982 111.275 37.4265 111.037 37.0678C110.802 36.7056 110.685 36.2546 110.685 35.7148C110.685 35.2603 110.769 34.8786 110.935 34.5696C111.102 34.2607 111.33 34.0121 111.617 33.8239C111.905 33.6357 112.232 33.4936 112.597 33.3977C112.967 33.3018 113.354 33.2344 113.759 33.1953C114.234 33.1456 114.618 33.0994 114.909 33.0568C115.2 33.0107 115.412 32.9432 115.543 32.8544C115.674 32.7656 115.74 32.6342 115.74 32.4602V32.4283C115.74 32.0909 115.634 31.8299 115.421 31.6452C115.211 31.4606 114.913 31.3683 114.526 31.3683C114.117 31.3683 113.792 31.4588 113.551 31.6399C113.309 31.8175 113.15 32.0412 113.071 32.3111L110.973 32.1406C111.079 31.6435 111.289 31.2138 111.601 30.8516C111.914 30.4858 112.317 30.2053 112.81 30.0099C113.308 29.8111 113.883 29.7116 114.536 29.7116C114.991 29.7116 115.426 29.7649 115.841 29.8714C116.26 29.978 116.631 30.1431 116.955 30.3668C117.281 30.5906 117.539 30.8782 117.727 31.2298C117.915 31.5778 118.009 31.995 118.009 32.4815V38H115.857V36.8654H115.793C115.662 37.1211 115.486 37.3466 115.266 37.5419C115.046 37.7337 114.781 37.8846 114.472 37.9947C114.163 38.1012 113.807 38.1545 113.402 38.1545ZM114.052 36.5884C114.385 36.5884 114.68 36.5227 114.936 36.3913C115.191 36.2564 115.392 36.0753 115.538 35.848C115.683 35.6207 115.756 35.3633 115.756 35.0756V34.2074C115.685 34.2536 115.587 34.2962 115.463 34.3352C115.342 34.3707 115.206 34.4045 115.053 34.4364C114.9 34.4648 114.748 34.4915 114.595 34.5163C114.442 34.5376 114.304 34.5572 114.179 34.5749C113.913 34.614 113.68 34.6761 113.482 34.7614C113.283 34.8466 113.128 34.962 113.018 35.1076C112.908 35.2496 112.853 35.4272 112.853 35.6403C112.853 35.9492 112.965 36.1854 113.189 36.3487C113.416 36.5085 113.704 36.5884 114.052 36.5884ZM127.105 29.8182L124.244 38H121.687L118.827 29.8182H121.224L122.923 35.6722H123.008L124.702 29.8182H127.105ZM128.266 38V29.8182H130.535V38H128.266ZM129.406 28.7635C129.068 28.7635 128.779 28.6516 128.538 28.4279C128.3 28.2006 128.181 27.929 128.181 27.6129C128.181 27.3004 128.3 27.0323 128.538 26.8086C128.779 26.5813 129.068 26.4677 129.406 26.4677C129.743 26.4677 130.031 26.5813 130.269 26.8086C130.51 27.0323 130.631 27.3004 130.631 27.6129C130.631 27.929 130.51 28.2006 130.269 28.4279C130.031 28.6516 129.743 28.7635 129.406 28.7635ZM135.368 38.1332C134.746 38.1332 134.183 37.9734 133.679 37.6538C133.178 37.3306 132.781 36.8565 132.486 36.2315C132.195 35.603 132.049 34.8324 132.049 33.9197C132.049 32.9822 132.2 32.2028 132.502 31.5813C132.804 30.9563 133.205 30.4893 133.706 30.1804C134.21 29.8679 134.762 29.7116 135.362 29.7116C135.82 29.7116 136.202 29.7898 136.508 29.946C136.817 30.0987 137.065 30.2905 137.253 30.5213C137.445 30.7486 137.591 30.9723 137.69 31.1925H137.759V27.0909H140.023V38H137.786V36.6896H137.69C137.584 36.9169 137.433 37.1424 137.237 37.3661C137.046 37.5863 136.795 37.7692 136.486 37.9148C136.181 38.0604 135.808 38.1332 135.368 38.1332ZM136.087 36.3274C136.453 36.3274 136.762 36.228 137.014 36.0291C137.269 35.8267 137.465 35.5444 137.6 35.1822C137.738 34.82 137.807 34.3956 137.807 33.9091C137.807 33.4226 137.74 33 137.605 32.6413C137.47 32.2827 137.275 32.0057 137.019 31.8104C136.763 31.6151 136.453 31.5174 136.087 31.5174C135.714 31.5174 135.4 31.6186 135.144 31.821C134.888 32.0234 134.695 32.304 134.563 32.6626C134.432 33.0213 134.366 33.4368 134.366 33.9091C134.366 34.3849 134.432 34.8058 134.563 35.1715C134.698 35.5337 134.892 35.8178 135.144 36.0238C135.4 36.2262 135.714 36.3274 136.087 36.3274ZM145.403 27.0909H148.248L151.252 34.4205H151.38L154.384 27.0909H157.229V38H154.991V30.8995H154.901L152.078 37.9467H150.554L147.731 30.8729H147.64V38H145.403V27.0909ZM161.419 38.1545C160.897 38.1545 160.432 38.0639 160.024 37.8828C159.615 37.6982 159.292 37.4265 159.054 37.0678C158.82 36.7056 158.703 36.2546 158.703 35.7148C158.703 35.2603 158.786 34.8786 158.953 34.5696C159.12 34.2607 159.347 34.0121 159.635 33.8239C159.922 33.6357 160.249 33.4936 160.615 33.3977C160.984 33.3018 161.371 33.2344 161.776 33.1953C162.252 33.1456 162.636 33.0994 162.927 33.0568C163.218 33.0107 163.429 32.9432 163.561 32.8544C163.692 32.7656 163.758 32.6342 163.758 32.4602V32.4283C163.758 32.0909 163.651 31.8299 163.438 31.6452C163.229 31.4606 162.93 31.3683 162.543 31.3683C162.135 31.3683 161.81 31.4588 161.568 31.6399C161.327 31.8175 161.167 32.0412 161.089 32.3111L158.99 32.1406C159.097 31.6435 159.306 31.2138 159.619 30.8516C159.931 30.4858 160.334 30.2053 160.828 30.0099C161.325 29.8111 161.9 29.7116 162.554 29.7116C163.008 29.7116 163.443 29.7649 163.859 29.8714C164.278 29.978 164.649 30.1431 164.972 30.3668C165.299 30.5906 165.556 30.8782 165.745 31.2298C165.933 31.5778 166.027 31.995 166.027 32.4815V38H163.875V36.8654H163.811C163.68 37.1211 163.504 37.3466 163.284 37.5419C163.063 37.7337 162.799 37.8846 162.49 37.9947C162.181 38.1012 161.824 38.1545 161.419 38.1545ZM162.069 36.5884C162.403 36.5884 162.698 36.5227 162.953 36.3913C163.209 36.2564 163.41 36.0753 163.555 35.848C163.701 35.6207 163.774 35.3633 163.774 35.0756V34.2074C163.703 34.2536 163.605 34.2962 163.481 34.3352C163.36 34.3707 163.223 34.4045 163.071 34.4364C162.918 34.4648 162.765 34.4915 162.612 34.5163C162.46 34.5376 162.321 34.5572 162.197 34.5749C161.931 34.614 161.698 34.6761 161.499 34.7614C161.3 34.8466 161.146 34.962 161.036 35.1076C160.926 35.2496 160.871 35.4272 160.871 35.6403C160.871 35.9492 160.983 36.1854 161.206 36.3487C161.434 36.5085 161.721 36.5884 162.069 36.5884ZM167.787 38V29.8182H169.987V31.2457H170.073C170.222 30.7379 170.472 30.3544 170.824 30.0952C171.175 29.8324 171.58 29.701 172.038 29.701C172.152 29.701 172.274 29.7081 172.406 29.7223C172.537 29.7365 172.652 29.756 172.752 29.7809V31.7944C172.645 31.7624 172.498 31.734 172.31 31.7092C172.122 31.6843 171.949 31.6719 171.793 31.6719C171.459 31.6719 171.161 31.7447 170.898 31.8903C170.639 32.0323 170.433 32.2312 170.28 32.4869C170.131 32.7425 170.057 33.0373 170.057 33.3711V38H167.787ZM178.687 29.8182V31.5227H173.76V29.8182H178.687ZM174.879 27.858H177.148V35.4858C177.148 35.6953 177.18 35.8587 177.244 35.9759C177.308 36.0895 177.396 36.1694 177.51 36.2156C177.627 36.2617 177.762 36.2848 177.915 36.2848C178.021 36.2848 178.128 36.2759 178.234 36.2582C178.341 36.2369 178.423 36.2209 178.479 36.2102L178.836 37.8988C178.723 37.9343 178.563 37.9751 178.357 38.0213C178.151 38.071 177.901 38.1012 177.606 38.1119C177.059 38.1332 176.58 38.0604 176.168 37.8935C175.759 37.7266 175.441 37.4673 175.214 37.1158C174.987 36.7642 174.875 36.3203 174.879 35.7841V27.858ZM180.165 38V29.8182H182.434V38H180.165ZM181.305 28.7635C180.968 28.7635 180.678 28.6516 180.437 28.4279C180.199 28.2006 180.08 27.929 180.08 27.6129C180.08 27.3004 180.199 27.0323 180.437 26.8086C180.678 26.5813 180.968 26.4677 181.305 26.4677C181.643 26.4677 181.93 26.5813 182.168 26.8086C182.41 27.0323 182.53 27.3004 182.53 27.6129C182.53 27.929 182.41 28.2006 182.168 28.4279C181.93 28.6516 181.643 28.7635 181.305 28.7635ZM186.521 33.2699V38H184.252V29.8182H186.415V31.2617H186.511C186.692 30.7859 186.995 30.4094 187.422 30.1325C187.848 29.8519 188.364 29.7116 188.972 29.7116C189.54 29.7116 190.035 29.8359 190.458 30.0845C190.88 30.3331 191.209 30.6882 191.443 31.1499C191.678 31.608 191.795 32.1548 191.795 32.7905V38H189.526V33.1953C189.529 32.6946 189.401 32.304 189.142 32.0234C188.883 31.7393 188.526 31.5973 188.071 31.5973C187.766 31.5973 187.496 31.663 187.262 31.7944C187.031 31.9258 186.85 32.1175 186.718 32.3697C186.591 32.6183 186.525 32.9183 186.521 33.2699Z" fill="black"/>
<path d="M104.743 48.5327C104.709 48.1889 104.563 47.9219 104.304 47.7315C104.045 47.5412 103.695 47.446 103.251 47.446C102.95 47.446 102.696 47.4886 102.489 47.5739C102.281 47.6562 102.122 47.7713 102.011 47.919C101.903 48.0668 101.849 48.2344 101.849 48.4219C101.844 48.5781 101.876 48.7145 101.947 48.831C102.021 48.9474 102.122 49.0483 102.25 49.1335C102.378 49.2159 102.526 49.2884 102.693 49.3509C102.861 49.4105 103.04 49.4616 103.23 49.5043L104.014 49.6918C104.395 49.777 104.744 49.8906 105.062 50.0327C105.381 50.1747 105.656 50.3494 105.889 50.5568C106.122 50.7642 106.303 51.0085 106.43 51.2898C106.561 51.571 106.628 51.8935 106.631 52.2571C106.628 52.7912 106.491 53.2543 106.222 53.6463C105.955 54.0355 105.568 54.3381 105.062 54.554C104.56 54.767 103.953 54.8736 103.243 54.8736C102.538 54.8736 101.925 54.7656 101.402 54.5497C100.882 54.3338 100.476 54.0142 100.183 53.5909C99.8935 53.1648 99.7415 52.6378 99.7273 52.0099H101.513C101.533 52.3026 101.616 52.5469 101.764 52.7429C101.915 52.9361 102.115 53.0824 102.365 53.1818C102.618 53.2784 102.903 53.3267 103.222 53.3267C103.534 53.3267 103.805 53.2812 104.036 53.1903C104.268 53.0994 104.449 52.973 104.577 52.8111C104.705 52.6491 104.768 52.4631 104.768 52.2528C104.768 52.0568 104.71 51.892 104.594 51.7585C104.48 51.625 104.313 51.5114 104.091 51.4176C103.872 51.3239 103.604 51.2386 103.286 51.1619L102.335 50.9233C101.599 50.7443 101.018 50.4645 100.592 50.0838C100.166 49.7031 99.9545 49.1903 99.9574 48.5455C99.9545 48.017 100.095 47.5554 100.379 47.1605C100.666 46.7656 101.06 46.4574 101.56 46.2358C102.06 46.0142 102.628 45.9034 103.264 45.9034C103.912 45.9034 104.477 46.0142 104.96 46.2358C105.446 46.4574 105.824 46.7656 106.094 47.1605C106.364 47.5554 106.503 48.0128 106.511 48.5327H104.743ZM110.795 54.8778C110.133 54.8778 109.561 54.7372 109.078 54.456C108.598 54.1719 108.227 53.777 107.966 53.2713C107.704 52.7628 107.574 52.1733 107.574 51.5028C107.574 50.8267 107.704 50.2358 107.966 49.7301C108.227 49.2216 108.598 48.8267 109.078 48.5455C109.561 48.2614 110.133 48.1193 110.795 48.1193C111.457 48.1193 112.028 48.2614 112.508 48.5455C112.991 48.8267 113.363 49.2216 113.625 49.7301C113.886 50.2358 114.017 50.8267 114.017 51.5028C114.017 52.1733 113.886 52.7628 113.625 53.2713C113.363 53.777 112.991 54.1719 112.508 54.456C112.028 54.7372 111.457 54.8778 110.795 54.8778ZM110.804 53.4716C111.105 53.4716 111.356 53.3864 111.558 53.2159C111.76 53.0426 111.912 52.8068 112.014 52.5085C112.119 52.2102 112.172 51.8707 112.172 51.4901C112.172 51.1094 112.119 50.7699 112.014 50.4716C111.912 50.1733 111.76 49.9375 111.558 49.7642C111.356 49.5909 111.105 49.5043 110.804 49.5043C110.5 49.5043 110.244 49.5909 110.037 49.7642C109.832 49.9375 109.677 50.1733 109.572 50.4716C109.47 50.7699 109.419 51.1094 109.419 51.4901C109.419 51.8707 109.47 52.2102 109.572 52.5085C109.677 52.8068 109.832 53.0426 110.037 53.2159C110.244 53.3864 110.5 53.4716 110.804 53.4716ZM118.717 48.2045V49.5682H114.677V48.2045H118.717ZM115.602 54.75V47.7315C115.602 47.2571 115.694 46.8636 115.879 46.5511C116.066 46.2386 116.322 46.0043 116.646 45.848C116.97 45.6918 117.338 45.6136 117.75 45.6136C118.028 45.6136 118.282 45.6349 118.512 45.6776C118.745 45.7202 118.919 45.7585 119.032 45.7926L118.708 47.1562C118.637 47.1335 118.549 47.1122 118.444 47.0923C118.342 47.0724 118.237 47.0625 118.129 47.0625C117.862 47.0625 117.676 47.125 117.571 47.25C117.466 47.3722 117.413 47.544 117.413 47.7656V54.75H115.602ZM123.308 48.2045V49.5682H119.366V48.2045H123.308ZM120.261 46.6364H122.076V52.7386C122.076 52.9062 122.102 53.0369 122.153 53.1307C122.204 53.2216 122.275 53.2855 122.366 53.3224C122.46 53.3594 122.567 53.3778 122.69 53.3778C122.775 53.3778 122.86 53.3707 122.945 53.3565C123.031 53.3395 123.096 53.3267 123.141 53.3182L123.427 54.669C123.336 54.6974 123.208 54.7301 123.043 54.767C122.879 54.8068 122.678 54.831 122.442 54.8395C122.005 54.8565 121.621 54.7983 121.292 54.6648C120.965 54.5312 120.711 54.3239 120.529 54.0426C120.347 53.7614 120.258 53.4062 120.261 52.9773V46.6364ZM125.781 54.75L124 48.2045H125.837L126.851 52.6023H126.911L127.967 48.2045H129.77L130.844 52.5767H130.899L131.896 48.2045H133.729L131.952 54.75H130.03L128.905 50.6335H128.824L127.699 54.75H125.781ZM136.564 54.8736C136.146 54.8736 135.774 54.8011 135.447 54.6562C135.12 54.5085 134.862 54.2912 134.672 54.0043C134.484 53.7145 134.39 53.3537 134.39 52.9219C134.39 52.5582 134.457 52.2528 134.591 52.0057C134.724 51.7585 134.906 51.5597 135.136 51.4091C135.366 51.2585 135.627 51.1449 135.92 51.0682C136.216 50.9915 136.525 50.9375 136.849 50.9062C137.23 50.8665 137.537 50.8295 137.77 50.7955C138.002 50.7585 138.172 50.7045 138.277 50.6335C138.382 50.5625 138.434 50.4574 138.434 50.3182V50.2926C138.434 50.0227 138.349 49.8139 138.179 49.6662C138.011 49.5185 137.772 49.4446 137.463 49.4446C137.136 49.4446 136.876 49.517 136.683 49.6619C136.49 49.804 136.362 49.983 136.299 50.1989L134.62 50.0625C134.706 49.6648 134.873 49.321 135.123 49.0312C135.373 48.7386 135.696 48.5142 136.091 48.358C136.488 48.1989 136.949 48.1193 137.471 48.1193C137.835 48.1193 138.183 48.1619 138.515 48.2472C138.85 48.3324 139.147 48.4645 139.406 48.6435C139.667 48.8224 139.873 49.0526 140.024 49.3338C140.174 49.6122 140.25 49.946 140.25 50.3352V54.75H138.528V53.8423H138.477C138.372 54.0469 138.231 54.2273 138.055 54.3835C137.879 54.5369 137.667 54.6577 137.42 54.7457C137.173 54.831 136.887 54.8736 136.564 54.8736ZM137.083 53.6207C137.35 53.6207 137.586 53.5682 137.791 53.4631C137.995 53.3551 138.156 53.2102 138.272 53.0284C138.389 52.8466 138.447 52.6406 138.447 52.4105V51.7159C138.39 51.7528 138.312 51.7869 138.213 51.8182C138.116 51.8466 138.007 51.8736 137.885 51.8991C137.762 51.9219 137.64 51.9432 137.518 51.9631C137.396 51.9801 137.285 51.9957 137.186 52.0099C136.973 52.0412 136.787 52.0909 136.627 52.1591C136.468 52.2273 136.345 52.3196 136.257 52.4361C136.169 52.5497 136.125 52.6918 136.125 52.8622C136.125 53.1094 136.214 53.2983 136.393 53.429C136.575 53.5568 136.805 53.6207 137.083 53.6207ZM141.658 54.75V48.2045H143.418V49.3466H143.486C143.605 48.9403 143.806 48.6335 144.087 48.4261C144.368 48.2159 144.692 48.1108 145.059 48.1108C145.15 48.1108 145.248 48.1165 145.353 48.1278C145.458 48.1392 145.55 48.1548 145.63 48.1747V49.7855C145.544 49.7599 145.426 49.7372 145.276 49.7173C145.125 49.6974 144.988 49.6875 144.863 49.6875C144.596 49.6875 144.357 49.7457 144.147 49.8622C143.939 49.9759 143.775 50.1349 143.652 50.3395C143.533 50.544 143.473 50.7798 143.473 51.0469V54.75H141.658ZM149.246 54.8778C148.573 54.8778 147.994 54.7415 147.508 54.4688C147.025 54.1932 146.653 53.804 146.391 53.3011C146.13 52.7955 145.999 52.1974 145.999 51.5071C145.999 50.8338 146.13 50.2429 146.391 49.7344C146.653 49.2259 147.021 48.8295 147.495 48.5455C147.972 48.2614 148.532 48.1193 149.174 48.1193C149.606 48.1193 150.008 48.1889 150.38 48.3281C150.755 48.4645 151.082 48.6705 151.36 48.946C151.641 49.2216 151.86 49.5682 152.016 49.9858C152.173 50.4006 152.251 50.8864 152.251 51.4432V51.9418H146.724V50.8168H150.542C150.542 50.5554 150.485 50.3239 150.371 50.1222C150.258 49.9205 150.1 49.7628 149.898 49.6491C149.7 49.5327 149.468 49.4744 149.204 49.4744C148.928 49.4744 148.684 49.5384 148.471 49.6662C148.261 49.7912 148.096 49.9602 147.977 50.1733C147.857 50.3835 147.796 50.6179 147.793 50.8764V51.946C147.793 52.2699 147.853 52.5497 147.972 52.7855C148.094 53.0213 148.266 53.2031 148.488 53.331C148.71 53.4588 148.972 53.5227 149.276 53.5227C149.478 53.5227 149.663 53.4943 149.83 53.4375C149.998 53.3807 150.141 53.2955 150.261 53.1818C150.38 53.0682 150.471 52.929 150.533 52.7642L152.212 52.875C152.127 53.2784 151.952 53.6307 151.688 53.9318C151.427 54.2301 151.089 54.4631 150.674 54.6307C150.262 54.7955 149.786 54.8778 149.246 54.8778ZM156.247 54.75V46.0227H162.127V47.544H158.092V49.6236H161.825V51.1449H158.092V53.2287H162.145V54.75H156.247ZM165.376 50.9659V54.75H163.56V48.2045H165.29V49.3594H165.367C165.512 48.9787 165.755 48.6776 166.096 48.456C166.437 48.2315 166.85 48.1193 167.336 48.1193C167.79 48.1193 168.187 48.2188 168.525 48.4176C168.863 48.6165 169.126 48.9006 169.313 49.2699C169.501 49.6364 169.594 50.0739 169.594 50.5824V54.75H167.779V50.9062C167.782 50.5057 167.68 50.1932 167.472 49.9688C167.265 49.7415 166.979 49.6278 166.616 49.6278C166.371 49.6278 166.156 49.6804 165.968 49.7855C165.783 49.8906 165.638 50.044 165.533 50.2457C165.431 50.4446 165.379 50.6847 165.376 50.9659ZM173.974 57.3409C173.386 57.3409 172.882 57.2599 172.461 57.098C172.044 56.9389 171.711 56.7216 171.464 56.446C171.217 56.1705 171.056 55.8608 170.983 55.517L172.662 55.2912C172.713 55.4219 172.794 55.544 172.904 55.6577C173.015 55.7713 173.162 55.8622 173.343 55.9304C173.528 56.0014 173.752 56.0369 174.017 56.0369C174.412 56.0369 174.737 55.9403 174.993 55.7472C175.251 55.5568 175.38 55.2372 175.38 54.7884V53.5909H175.304C175.224 53.7727 175.105 53.9446 174.946 54.1065C174.787 54.2685 174.582 54.4006 174.332 54.5028C174.082 54.6051 173.784 54.6562 173.437 54.6562C172.946 54.6562 172.498 54.5426 172.095 54.3153C171.694 54.0852 171.375 53.7344 171.136 53.2628C170.9 52.7884 170.782 52.1889 170.782 51.4645C170.782 50.723 170.903 50.1037 171.145 49.6065C171.386 49.1094 171.707 48.7372 172.108 48.4901C172.511 48.2429 172.953 48.1193 173.433 48.1193C173.799 48.1193 174.106 48.1818 174.353 48.3068C174.6 48.429 174.799 48.5824 174.95 48.767C175.103 48.9489 175.221 49.1278 175.304 49.304H175.372V48.2045H177.174V54.8139C177.174 55.3707 177.038 55.8366 176.765 56.2116C176.493 56.5866 176.115 56.8679 175.632 57.0554C175.152 57.2457 174.599 57.3409 173.974 57.3409ZM174.012 53.2926C174.305 53.2926 174.552 53.2202 174.754 53.0753C174.958 52.9276 175.115 52.7173 175.223 52.4446C175.333 52.169 175.389 51.8395 175.389 51.456C175.389 51.0724 175.335 50.7401 175.227 50.4588C175.119 50.1747 174.963 49.9545 174.758 49.7983C174.554 49.642 174.305 49.5639 174.012 49.5639C173.714 49.5639 173.463 49.6449 173.258 49.8068C173.054 49.9659 172.899 50.1875 172.794 50.4716C172.689 50.7557 172.636 51.0838 172.636 51.456C172.636 51.8338 172.689 52.1605 172.794 52.4361C172.902 52.7088 173.056 52.9205 173.258 53.071C173.463 53.2187 173.714 53.2926 174.012 53.2926ZM178.619 54.75V48.2045H180.434V54.75H178.619ZM179.531 47.3608C179.261 47.3608 179.029 47.2713 178.836 47.0923C178.646 46.9105 178.551 46.6932 178.551 46.4403C178.551 46.1903 178.646 45.9759 178.836 45.7969C179.029 45.6151 179.261 45.5241 179.531 45.5241C179.801 45.5241 180.031 45.6151 180.221 45.7969C180.414 45.9759 180.511 46.1903 180.511 46.4403C180.511 46.6932 180.414 46.9105 180.221 47.0923C180.031 47.2713 179.801 47.3608 179.531 47.3608ZM183.704 50.9659V54.75H181.888V48.2045H183.619V49.3594H183.695C183.84 48.9787 184.083 48.6776 184.424 48.456C184.765 48.2315 185.178 48.1193 185.664 48.1193C186.119 48.1193 186.515 48.2188 186.853 48.4176C187.191 48.6165 187.454 48.9006 187.641 49.2699C187.829 49.6364 187.923 50.0739 187.923 50.5824V54.75H186.107V50.9062C186.11 50.5057 186.008 50.1932 185.8 49.9688C185.593 49.7415 185.308 49.6278 184.944 49.6278C184.7 49.6278 184.484 49.6804 184.296 49.7855C184.112 49.8906 183.967 50.044 183.862 50.2457C183.759 50.4446 183.707 50.6847 183.704 50.9659ZM192.336 54.8778C191.663 54.8778 191.083 54.7415 190.598 54.4688C190.115 54.1932 189.743 53.804 189.481 53.3011C189.22 52.7955 189.089 52.1974 189.089 51.5071C189.089 50.8338 189.22 50.2429 189.481 49.7344C189.743 49.2259 190.11 48.8295 190.585 48.5455C191.062 48.2614 191.622 48.1193 192.264 48.1193C192.696 48.1193 193.098 48.1889 193.47 48.3281C193.845 48.4645 194.172 48.6705 194.45 48.946C194.731 49.2216 194.95 49.5682 195.106 49.9858C195.262 50.4006 195.341 50.8864 195.341 51.4432V51.9418H189.814V50.8168H193.632C193.632 50.5554 193.575 50.3239 193.461 50.1222C193.348 49.9205 193.19 49.7628 192.988 49.6491C192.789 49.5327 192.558 49.4744 192.294 49.4744C192.018 49.4744 191.774 49.5384 191.561 49.6662C191.35 49.7912 191.186 49.9602 191.066 50.1733C190.947 50.3835 190.886 50.6179 190.883 50.8764V51.946C190.883 52.2699 190.943 52.5497 191.062 52.7855C191.184 53.0213 191.356 53.2031 191.578 53.331C191.799 53.4588 192.062 53.5227 192.366 53.5227C192.568 53.5227 192.752 53.4943 192.92 53.4375C193.088 53.3807 193.231 53.2955 193.35 53.1818C193.47 53.0682 193.561 52.929 193.623 52.7642L195.302 52.875C195.217 53.2784 195.042 53.6307 194.778 53.9318C194.517 54.2301 194.179 54.4631 193.764 54.6307C193.352 54.7955 192.876 54.8778 192.336 54.8778ZM199.508 54.8778C198.835 54.8778 198.255 54.7415 197.77 54.4688C197.287 54.1932 196.914 53.804 196.653 53.3011C196.392 52.7955 196.261 52.1974 196.261 51.5071C196.261 50.8338 196.392 50.2429 196.653 49.7344C196.914 49.2259 197.282 48.8295 197.757 48.5455C198.234 48.2614 198.794 48.1193 199.436 48.1193C199.868 48.1193 200.27 48.1889 200.642 48.3281C201.017 48.4645 201.343 48.6705 201.622 48.946C201.903 49.2216 202.122 49.5682 202.278 49.9858C202.434 50.4006 202.512 50.8864 202.512 51.4432V51.9418H196.985V50.8168H200.804C200.804 50.5554 200.747 50.3239 200.633 50.1222C200.52 49.9205 200.362 49.7628 200.16 49.6491C199.961 49.5327 199.73 49.4744 199.466 49.4744C199.19 49.4744 198.946 49.5384 198.733 49.6662C198.522 49.7912 198.358 49.9602 198.238 50.1733C198.119 50.3835 198.058 50.6179 198.055 50.8764V51.946C198.055 52.2699 198.115 52.5497 198.234 52.7855C198.356 53.0213 198.528 53.2031 198.75 53.331C198.971 53.4588 199.234 53.5227 199.538 53.5227C199.74 53.5227 199.924 53.4943 200.092 53.4375C200.26 53.3807 200.403 53.2955 200.522 53.1818C200.642 53.0682 200.733 52.929 200.795 52.7642L202.474 52.875C202.389 53.2784 202.214 53.6307 201.95 53.9318C201.689 54.2301 201.35 54.4631 200.936 54.6307C200.524 54.7955 200.048 54.8778 199.508 54.8778ZM203.697 54.75V48.2045H205.457V49.3466H205.525C205.645 48.9403 205.845 48.6335 206.126 48.4261C206.407 48.2159 206.731 48.1108 207.098 48.1108C207.189 48.1108 207.287 48.1165 207.392 48.1278C207.497 48.1392 207.589 48.1548 207.669 48.1747V49.7855C207.583 49.7599 207.466 49.7372 207.315 49.7173C207.164 49.6974 207.027 49.6875 206.902 49.6875C206.635 49.6875 206.396 49.7457 206.186 49.8622C205.978 49.9759 205.814 50.1349 205.691 50.3395C205.572 50.544 205.512 50.7798 205.512 51.0469V54.75H203.697Z" fill="#092AD0"/>
<rect x="99.625" y="61.875" width="44.25" height="18" rx="3.375" fill="#092AD0" fill-opacity="0.56" stroke="#092AD0" stroke-width="0.75"/>
<path d="M107.523 74.25L108.597 67.7045H109.62L108.546 74.25H107.523ZM104.593 72.6264L104.762 71.6037H109.876L109.706 72.6264H104.593ZM105.222 74.25L106.296 67.7045H107.319L106.245 74.25H105.222ZM104.967 70.3509L105.139 69.3281H110.253L110.08 70.3509H104.967ZM112.997 74.25V67.7045H115.579C116.073 67.7045 116.495 67.793 116.845 67.9698C117.196 68.1445 117.464 68.3928 117.647 68.7145C117.832 69.0341 117.925 69.4102 117.925 69.8427C117.925 70.2773 117.831 70.6513 117.644 70.9645C117.456 71.2756 117.184 71.5142 116.829 71.6804C116.475 71.8466 116.047 71.9297 115.544 71.9297H113.815V70.8175H115.32C115.584 70.8175 115.804 70.7812 115.979 70.7088C116.153 70.6364 116.283 70.5277 116.368 70.3828C116.456 70.2379 116.499 70.0579 116.499 69.8427C116.499 69.6254 116.456 69.4421 116.368 69.293C116.283 69.1438 116.152 69.0309 115.975 68.9542C115.801 68.8754 115.58 68.8359 115.314 68.8359H114.381V74.25H112.997ZM116.531 71.2713L118.158 74.25H116.631L115.039 71.2713H116.531ZM121.035 74.3459C120.53 74.3459 120.096 74.2436 119.731 74.0391C119.369 73.8324 119.09 73.5405 118.894 73.1634C118.698 72.7841 118.6 72.3356 118.6 71.8178C118.6 71.3129 118.698 70.8697 118.894 70.4883C119.09 70.1069 119.366 69.8097 119.722 69.5966C120.08 69.3835 120.5 69.277 120.981 69.277C121.305 69.277 121.606 69.3292 121.886 69.4336C122.167 69.5359 122.412 69.6903 122.621 69.897C122.832 70.1037 122.996 70.3636 123.113 70.6768C123.23 70.9879 123.289 71.3523 123.289 71.7699V72.1438H119.143V71.3001H122.007C122.007 71.104 121.964 70.9304 121.879 70.7791C121.794 70.6278 121.676 70.5096 121.524 70.4244C121.375 70.337 121.202 70.2933 121.003 70.2933C120.797 70.2933 120.614 70.3413 120.454 70.4371C120.296 70.5309 120.172 70.6577 120.083 70.8175C119.994 70.9751 119.948 71.1509 119.946 71.3448V72.147C119.946 72.3899 119.99 72.5998 120.08 72.7766C120.171 72.9535 120.3 73.0898 120.467 73.1857C120.633 73.2816 120.83 73.3295 121.058 73.3295C121.209 73.3295 121.348 73.3082 121.473 73.2656C121.599 73.223 121.707 73.1591 121.796 73.0739C121.886 72.9886 121.954 72.8842 122.001 72.7607L123.26 72.8438C123.196 73.1463 123.065 73.4105 122.867 73.6364C122.671 73.8601 122.417 74.0348 122.106 74.1605C121.797 74.2841 121.44 74.3459 121.035 74.3459ZM125.577 74.3427C125.264 74.3427 124.985 74.2884 124.74 74.1797C124.495 74.0689 124.301 73.9059 124.158 73.6907C124.017 73.4734 123.947 73.2028 123.947 72.8789C123.947 72.6062 123.997 72.3771 124.097 72.1918C124.197 72.0064 124.334 71.8572 124.506 71.7443C124.679 71.6314 124.875 71.5462 125.094 71.4886C125.316 71.4311 125.548 71.3906 125.791 71.3672C126.077 71.3374 126.307 71.3097 126.481 71.2841C126.656 71.2564 126.783 71.2159 126.862 71.1626C126.941 71.1094 126.98 71.0305 126.98 70.9261V70.907C126.98 70.7045 126.916 70.5479 126.788 70.4371C126.663 70.3263 126.484 70.271 126.251 70.271C126.006 70.271 125.811 70.3253 125.666 70.4339C125.522 70.5405 125.426 70.6747 125.379 70.8366L124.12 70.7344C124.184 70.4361 124.309 70.1783 124.497 69.9609C124.684 69.7415 124.926 69.5732 125.222 69.456C125.521 69.3366 125.866 69.277 126.258 69.277C126.53 69.277 126.791 69.3089 127.041 69.3729C127.292 69.4368 127.515 69.5359 127.709 69.6701C127.905 69.8043 128.059 69.9769 128.172 70.1879C128.285 70.3967 128.342 70.647 128.342 70.9389V74.25H127.05V73.5692H127.012C126.933 73.7227 126.828 73.858 126.696 73.9751C126.563 74.0902 126.405 74.1808 126.219 74.2468C126.034 74.3107 125.82 74.3427 125.577 74.3427ZM125.967 73.4031C126.167 73.4031 126.344 73.3636 126.497 73.2848C126.651 73.2038 126.771 73.0952 126.859 72.9588C126.946 72.8224 126.99 72.668 126.99 72.4954V71.9744C126.947 72.0021 126.888 72.0277 126.814 72.0511C126.741 72.0724 126.659 72.0927 126.568 72.1119C126.476 72.1289 126.384 72.1449 126.293 72.1598C126.201 72.1726 126.118 72.1843 126.044 72.195C125.884 72.2184 125.744 72.2557 125.625 72.3068C125.506 72.358 125.413 72.4272 125.347 72.5146C125.281 72.5998 125.248 72.7063 125.248 72.8342C125.248 73.0195 125.315 73.1612 125.449 73.2592C125.585 73.3551 125.758 73.4031 125.967 73.4031ZM131.616 74.3459C131.113 74.3459 130.68 74.2393 130.318 74.0263C129.958 73.8111 129.681 73.5128 129.487 73.1314C129.296 72.75 129.2 72.3111 129.2 71.8146C129.2 71.3118 129.297 70.8707 129.491 70.4915C129.687 70.1101 129.965 69.8129 130.325 69.5998C130.685 69.3846 131.113 69.277 131.609 69.277C132.038 69.277 132.413 69.3548 132.734 69.5103C133.056 69.6658 133.311 69.8842 133.498 70.1655C133.686 70.4467 133.789 70.777 133.808 71.1562H132.524C132.487 70.9112 132.391 70.7141 132.236 70.565C132.082 70.4137 131.881 70.3381 131.632 70.3381C131.421 70.3381 131.237 70.3956 131.079 70.5107C130.923 70.6236 130.802 70.7887 130.715 71.006C130.627 71.2234 130.584 71.4865 130.584 71.7955C130.584 72.1087 130.626 72.375 130.711 72.5945C130.799 72.8139 130.921 72.9812 131.079 73.0962C131.237 73.2113 131.421 73.2688 131.632 73.2688C131.787 73.2688 131.927 73.2369 132.051 73.1729C132.176 73.109 132.28 73.0163 132.361 72.8949C132.444 72.7713 132.498 72.6232 132.524 72.4506H133.808C133.787 72.8256 133.685 73.1559 133.502 73.4414C133.32 73.7248 133.07 73.9464 132.75 74.1062C132.431 74.266 132.053 74.3459 131.616 74.3459ZM137.291 69.3409V70.3636H134.335V69.3409H137.291ZM135.006 68.1648H136.368V72.7415C136.368 72.8672 136.387 72.9652 136.425 73.0355C136.463 73.1037 136.517 73.1516 136.585 73.1793C136.655 73.207 136.736 73.2209 136.828 73.2209C136.892 73.2209 136.956 73.2156 137.02 73.2049C137.083 73.1921 137.132 73.1825 137.167 73.1761L137.381 74.1893C137.313 74.2106 137.217 74.2351 137.093 74.2628C136.969 74.2926 136.819 74.3107 136.642 74.3171C136.314 74.3299 136.027 74.2862 135.779 74.1861C135.534 74.0859 135.344 73.9304 135.207 73.7195C135.071 73.5085 135.004 73.2422 135.006 72.9205V68.1648Z" fill="white"/>
<rect x="151.375" y="61.875" width="70.5" height="18" rx="3.375" fill="#092AD0" fill-opacity="0.56" stroke="#092AD0" stroke-width="0.75"/>
<path d="M161.523 74.25L162.597 67.7045H163.62L162.546 74.25H161.523ZM158.593 72.6264L158.762 71.6037H163.876L163.706 72.6264H158.593ZM159.222 74.25L160.296 67.7045H161.319L160.245 74.25H159.222ZM158.967 70.3509L159.139 69.3281H164.253L164.08 70.3509H158.967ZM166.747 68.8455V67.7045H172.123V68.8455H170.119V74.25H168.751V68.8455H166.747ZM173.261 76.0909C173.088 76.0909 172.926 76.0771 172.775 76.0494C172.626 76.0238 172.502 75.9908 172.404 75.9503L172.711 74.9339C172.871 74.983 173.015 75.0096 173.143 75.0138C173.273 75.0181 173.384 74.9883 173.478 74.9244C173.574 74.8604 173.652 74.7518 173.711 74.5984L173.791 74.3906L172.03 69.3409H173.462L174.479 72.946H174.53L175.556 69.3409H176.997L175.089 74.7805C174.997 75.0447 174.873 75.2749 174.715 75.4709C174.559 75.669 174.362 75.8214 174.124 75.9279C173.885 76.0366 173.597 76.0909 173.261 76.0909ZM177.694 76.0909V69.3409H179.036V70.1655H179.097C179.156 70.0334 179.243 69.8991 179.356 69.7628C179.471 69.6243 179.62 69.5092 179.803 69.4176C179.988 69.3239 180.219 69.277 180.493 69.277C180.851 69.277 181.182 69.3707 181.484 69.5582C181.787 69.7436 182.029 70.0238 182.21 70.3988C182.391 70.7717 182.481 71.2393 182.481 71.8018C182.481 72.3494 182.393 72.8118 182.216 73.1889C182.041 73.5639 181.803 73.8484 181.5 74.0423C181.2 74.234 180.863 74.3299 180.49 74.3299C180.226 74.3299 180.001 74.2862 179.816 74.1989C179.633 74.1115 179.482 74.0018 179.365 73.8697C179.248 73.7354 179.159 73.6001 179.097 73.4638H179.055V76.0909H177.694ZM179.026 71.7955C179.026 72.0874 179.067 72.342 179.148 72.5593C179.229 72.7766 179.346 72.946 179.499 73.0675C179.653 73.1868 179.839 73.2464 180.059 73.2464C180.28 73.2464 180.468 73.1857 180.621 73.0643C180.775 72.9407 180.891 72.7702 180.97 72.5529C181.051 72.3335 181.091 72.081 181.091 71.7955C181.091 71.5121 181.052 71.2628 180.973 71.0476C180.894 70.8324 180.778 70.6641 180.624 70.5426C180.471 70.4212 180.282 70.3604 180.059 70.3604C179.837 70.3604 179.65 70.419 179.496 70.5362C179.345 70.6534 179.229 70.8196 179.148 71.0348C179.067 71.25 179.026 71.5036 179.026 71.7955ZM185.626 74.3459C185.121 74.3459 184.687 74.2436 184.322 74.0391C183.96 73.8324 183.681 73.5405 183.485 73.1634C183.289 72.7841 183.191 72.3356 183.191 71.8178C183.191 71.3129 183.289 70.8697 183.485 70.4883C183.681 70.1069 183.957 69.8097 184.313 69.5966C184.671 69.3835 185.09 69.277 185.572 69.277C185.896 69.277 186.197 69.3292 186.476 69.4336C186.758 69.5359 187.003 69.6903 187.211 69.897C187.422 70.1037 187.586 70.3636 187.704 70.6768C187.821 70.9879 187.879 71.3523 187.879 71.7699V72.1438H183.734V71.3001H186.598C186.598 71.104 186.555 70.9304 186.47 70.7791C186.385 70.6278 186.267 70.5096 186.115 70.4244C185.966 70.337 185.792 70.2933 185.594 70.2933C185.388 70.2933 185.204 70.3413 185.045 70.4371C184.887 70.5309 184.763 70.6577 184.674 70.8175C184.584 70.9751 184.539 71.1509 184.536 71.3448V72.147C184.536 72.3899 184.581 72.5998 184.671 72.7766C184.762 72.9535 184.891 73.0898 185.057 73.1857C185.224 73.2816 185.421 73.3295 185.649 73.3295C185.8 73.3295 185.938 73.3082 186.064 73.2656C186.19 73.223 186.297 73.1591 186.387 73.0739C186.476 72.9886 186.545 72.8842 186.591 72.7607L187.851 72.8438C187.787 73.1463 187.656 73.4105 187.458 73.6364C187.262 73.8601 187.008 74.0348 186.697 74.1605C186.388 74.2841 186.031 74.3459 185.626 74.3459ZM192.852 70.7408L191.606 70.8175C191.585 70.7109 191.539 70.6151 191.469 70.5298C191.398 70.4425 191.306 70.3732 191.191 70.3221C191.078 70.2688 190.942 70.2422 190.785 70.2422C190.574 70.2422 190.396 70.2869 190.251 70.3764C190.106 70.4638 190.034 70.581 190.034 70.728C190.034 70.8452 190.08 70.9442 190.174 71.0252C190.268 71.1062 190.429 71.1712 190.657 71.2202L191.545 71.3991C192.023 71.4972 192.378 71.6548 192.613 71.8722C192.847 72.0895 192.964 72.375 192.964 72.7287C192.964 73.0504 192.869 73.3327 192.68 73.5756C192.492 73.8185 192.235 74.0082 191.906 74.1445C191.58 74.2788 191.204 74.3459 190.778 74.3459C190.128 74.3459 189.611 74.2106 189.225 73.94C188.841 73.6673 188.617 73.2965 188.551 72.8278L189.89 72.7575C189.93 72.9556 190.028 73.1069 190.184 73.2113C190.339 73.3136 190.539 73.3647 190.781 73.3647C191.02 73.3647 191.212 73.3189 191.357 73.2273C191.504 73.1335 191.578 73.0131 191.58 72.8661C191.578 72.7425 191.526 72.6413 191.424 72.5625C191.322 72.4815 191.164 72.4197 190.951 72.3771L190.101 72.2077C189.621 72.1119 189.264 71.9457 189.03 71.7092C188.798 71.4727 188.682 71.1712 188.682 70.8047C188.682 70.4893 188.767 70.2177 188.937 69.9897C189.11 69.7617 189.352 69.5859 189.663 69.4624C189.976 69.3388 190.343 69.277 190.762 69.277C191.382 69.277 191.87 69.408 192.226 69.6701C192.584 69.9322 192.793 70.2891 192.852 70.7408ZM196.04 74.3459C195.537 74.3459 195.104 74.2393 194.742 74.0263C194.382 73.8111 194.105 73.5128 193.911 73.1314C193.719 72.75 193.623 72.3111 193.623 71.8146C193.623 71.3118 193.72 70.8707 193.914 70.4915C194.11 70.1101 194.388 69.8129 194.748 69.5998C195.109 69.3846 195.537 69.277 196.033 69.277C196.462 69.277 196.837 69.3548 197.158 69.5103C197.48 69.6658 197.735 69.8842 197.922 70.1655C198.11 70.4467 198.213 70.777 198.232 71.1562H196.947C196.911 70.9112 196.815 70.7141 196.66 70.565C196.506 70.4137 196.305 70.3381 196.056 70.3381C195.845 70.3381 195.66 70.3956 195.503 70.5107C195.347 70.6236 195.226 70.7887 195.138 71.006C195.051 71.2234 195.007 71.4865 195.007 71.7955C195.007 72.1087 195.05 72.375 195.135 72.5945C195.223 72.8139 195.345 72.9812 195.503 73.0962C195.66 73.2113 195.845 73.2688 196.056 73.2688C196.211 73.2688 196.351 73.2369 196.474 73.1729C196.6 73.109 196.703 73.0163 196.784 72.8949C196.867 72.7713 196.922 72.6232 196.947 72.4506H198.232C198.211 72.8256 198.109 73.1559 197.925 73.4414C197.744 73.7248 197.494 73.9464 197.174 74.1062C196.855 74.266 196.476 74.3459 196.04 74.3459ZM199.104 74.25V69.3409H200.424V70.1974H200.475C200.564 69.8928 200.715 69.6626 200.926 69.5071C201.137 69.3494 201.379 69.2706 201.654 69.2706C201.722 69.2706 201.796 69.2749 201.875 69.2834C201.954 69.2919 202.023 69.3036 202.083 69.3185V70.5266C202.019 70.5075 201.93 70.4904 201.817 70.4755C201.704 70.4606 201.601 70.4531 201.507 70.4531C201.307 70.4531 201.128 70.4968 200.97 70.5842C200.815 70.6694 200.691 70.7887 200.6 70.9421C200.51 71.0955 200.465 71.2724 200.465 71.4727V74.25H199.104ZM202.786 74.25V69.3409H204.148V74.25H202.786ZM203.47 68.7081C203.268 68.7081 203.094 68.641 202.949 68.5067C202.807 68.3704 202.735 68.2074 202.735 68.0178C202.735 67.8303 202.807 67.6694 202.949 67.5352C203.094 67.3988 203.268 67.3306 203.47 67.3306C203.673 67.3306 203.845 67.3988 203.988 67.5352C204.133 67.6694 204.206 67.8303 204.206 68.0178C204.206 68.2074 204.133 68.3704 203.988 68.5067C203.845 68.641 203.673 68.7081 203.47 68.7081ZM205.239 76.0909V69.3409H206.581V70.1655H206.642C206.701 70.0334 206.788 69.8991 206.901 69.7628C207.016 69.6243 207.165 69.5092 207.348 69.4176C207.533 69.3239 207.763 69.277 208.038 69.277C208.396 69.277 208.727 69.3707 209.029 69.5582C209.332 69.7436 209.574 70.0238 209.755 70.3988C209.936 70.7717 210.026 71.2393 210.026 71.8018C210.026 72.3494 209.938 72.8118 209.761 73.1889C209.586 73.5639 209.348 73.8484 209.045 74.0423C208.745 74.234 208.408 74.3299 208.035 74.3299C207.771 74.3299 207.546 74.2862 207.361 74.1989C207.178 74.1115 207.027 74.0018 206.91 73.8697C206.793 73.7354 206.703 73.6001 206.642 73.4638H206.6V76.0909H205.239ZM206.571 71.7955C206.571 72.0874 206.612 72.342 206.693 72.5593C206.774 72.7766 206.891 72.946 207.044 73.0675C207.198 73.1868 207.384 73.2464 207.604 73.2464C207.825 73.2464 208.013 73.1857 208.166 73.0643C208.32 72.9407 208.436 72.7702 208.515 72.5529C208.596 72.3335 208.636 72.081 208.636 71.7955C208.636 71.5121 208.597 71.2628 208.518 71.0476C208.439 70.8324 208.323 70.6641 208.169 70.5426C208.016 70.4212 207.827 70.3604 207.604 70.3604C207.382 70.3604 207.195 70.419 207.041 70.5362C206.89 70.6534 206.774 70.8196 206.693 71.0348C206.612 71.25 206.571 71.5036 206.571 71.7955ZM213.545 69.3409V70.3636H210.589V69.3409H213.545ZM211.26 68.1648H212.621V72.7415C212.621 72.8672 212.641 72.9652 212.679 73.0355C212.717 73.1037 212.771 73.1516 212.839 73.1793C212.909 73.207 212.99 73.2209 213.082 73.2209C213.146 73.2209 213.21 73.2156 213.273 73.2049C213.337 73.1921 213.386 73.1825 213.42 73.1761L213.635 74.1893C213.566 74.2106 213.471 74.2351 213.347 74.2628C213.223 74.2926 213.073 74.3107 212.896 74.3171C212.568 74.3299 212.281 74.2862 212.033 74.1861C211.788 74.0859 211.598 73.9304 211.461 73.7195C211.325 73.5085 211.258 73.2422 211.26 72.9205V68.1648Z" fill="white"/>
<rect x="229.375" y="61.875" width="66.75" height="18" rx="3.375" fill="#092AD0" fill-opacity="0.56" stroke="#092AD0" stroke-width="0.75"/>
<path d="M241.773 74.25L242.847 67.7045H243.87L242.796 74.25H241.773ZM238.843 72.6264L239.012 71.6037H244.126L243.956 72.6264H238.843ZM239.472 74.25L240.546 67.7045H241.569L240.495 74.25H239.472ZM239.217 70.3509L239.389 69.3281H244.503L244.33 70.3509H239.217ZM251.587 69.8203C251.542 69.6648 251.479 69.5273 251.398 69.408C251.317 69.2866 251.218 69.1843 251.101 69.1012C250.986 69.016 250.854 68.951 250.705 68.9062C250.558 68.8615 250.395 68.8391 250.216 68.8391C249.881 68.8391 249.587 68.9222 249.334 69.0884C249.082 69.2546 248.886 69.4964 248.746 69.8139C248.605 70.1293 248.535 70.5149 248.535 70.9709C248.535 71.4268 248.604 71.8146 248.742 72.1342C248.881 72.4538 249.077 72.6978 249.33 72.8661C249.584 73.0323 249.883 73.1154 250.229 73.1154C250.542 73.1154 250.809 73.06 251.031 72.9492C251.254 72.8363 251.425 72.6776 251.542 72.473C251.661 72.2685 251.721 72.0266 251.721 71.7475L252.002 71.7891H250.315V70.7472H253.054V71.5717C253.054 72.147 252.932 72.6413 252.689 73.0547C252.447 73.4659 252.112 73.7834 251.686 74.0071C251.26 74.2287 250.772 74.3395 250.222 74.3395C249.608 74.3395 249.069 74.2042 248.605 73.9336C248.14 73.6609 247.778 73.2741 247.518 72.7734C247.26 72.2706 247.132 71.674 247.132 70.9837C247.132 70.4531 247.208 69.9801 247.362 69.5646C247.517 69.147 247.735 68.7933 248.014 68.5036C248.293 68.2138 248.618 67.9933 248.988 67.842C249.359 67.6907 249.761 67.6151 250.193 67.6151C250.564 67.6151 250.909 67.6694 251.229 67.7781C251.548 67.8846 251.832 68.0359 252.079 68.2319C252.328 68.4279 252.532 68.6612 252.689 68.9318C252.847 69.2003 252.948 69.4964 252.993 69.8203H251.587ZM254.068 74.25V69.3409H255.388V70.1974H255.439C255.528 69.8928 255.679 69.6626 255.889 69.5071C256.1 69.3494 256.343 69.2706 256.618 69.2706C256.686 69.2706 256.76 69.2749 256.839 69.2834C256.918 69.2919 256.987 69.3036 257.046 69.3185V70.5266C256.983 70.5075 256.894 70.4904 256.781 70.4755C256.668 70.4606 256.565 70.4531 256.471 70.4531C256.271 70.4531 256.092 70.4968 255.934 70.5842C255.779 70.6694 255.655 70.7887 255.563 70.9421C255.474 71.0955 255.429 71.2724 255.429 71.4727V74.25H254.068ZM259.01 74.3427C258.696 74.3427 258.417 74.2884 258.172 74.1797C257.927 74.0689 257.733 73.9059 257.591 73.6907C257.45 73.4734 257.38 73.2028 257.38 72.8789C257.38 72.6062 257.43 72.3771 257.53 72.1918C257.63 72.0064 257.766 71.8572 257.939 71.7443C258.112 71.6314 258.308 71.5462 258.527 71.4886C258.749 71.4311 258.981 71.3906 259.224 71.3672C259.509 71.3374 259.739 71.3097 259.914 71.2841C260.089 71.2564 260.216 71.2159 260.294 71.1626C260.373 71.1094 260.413 71.0305 260.413 70.9261V70.907C260.413 70.7045 260.349 70.5479 260.221 70.4371C260.095 70.3263 259.916 70.271 259.684 70.271C259.439 70.271 259.244 70.3253 259.099 70.4339C258.954 70.5405 258.858 70.6747 258.811 70.8366L257.552 70.7344C257.616 70.4361 257.742 70.1783 257.929 69.9609C258.117 69.7415 258.359 69.5732 258.655 69.456C258.953 69.3366 259.298 69.277 259.69 69.277C259.963 69.277 260.224 69.3089 260.473 69.3729C260.725 69.4368 260.947 69.5359 261.141 69.6701C261.337 69.8043 261.492 69.9769 261.605 70.1879C261.718 70.3967 261.774 70.647 261.774 70.9389V74.25H260.483V73.5692H260.445C260.366 73.7227 260.26 73.858 260.128 73.9751C259.996 74.0902 259.837 74.1808 259.652 74.2468C259.467 74.3107 259.252 74.3427 259.01 74.3427ZM259.4 73.4031C259.6 73.4031 259.777 73.3636 259.93 73.2848C260.083 73.2038 260.204 73.0952 260.291 72.9588C260.379 72.8224 260.422 72.668 260.422 72.4954V71.9744C260.38 72.0021 260.321 72.0277 260.246 72.0511C260.174 72.0724 260.092 72.0927 260 72.1119C259.909 72.1289 259.817 72.1449 259.725 72.1598C259.634 72.1726 259.551 72.1843 259.476 72.195C259.316 72.2184 259.177 72.2557 259.058 72.3068C258.938 72.358 258.846 72.4272 258.779 72.5146C258.713 72.5998 258.68 72.7063 258.68 72.8342C258.68 73.0195 258.748 73.1612 258.882 73.2592C259.018 73.3551 259.191 73.4031 259.4 73.4031ZM262.83 76.0909V69.3409H264.173V70.1655H264.233C264.293 70.0334 264.379 69.8991 264.492 69.7628C264.607 69.6243 264.757 69.5092 264.94 69.4176C265.125 69.3239 265.355 69.277 265.63 69.277C265.988 69.277 266.318 69.3707 266.621 69.5582C266.923 69.7436 267.165 70.0238 267.346 70.3988C267.528 70.7717 267.618 71.2393 267.618 71.8018C267.618 72.3494 267.53 72.8118 267.353 73.1889C267.178 73.5639 266.939 73.8484 266.637 74.0423C266.336 74.234 266 74.3299 265.627 74.3299C265.363 74.3299 265.138 74.2862 264.953 74.1989C264.769 74.1115 264.619 74.0018 264.502 73.8697C264.385 73.7354 264.295 73.6001 264.233 73.4638H264.192V76.0909H262.83ZM264.163 71.7955C264.163 72.0874 264.204 72.342 264.285 72.5593C264.366 72.7766 264.483 72.946 264.636 73.0675C264.79 73.1868 264.976 73.2464 265.195 73.2464C265.417 73.2464 265.605 73.1857 265.758 73.0643C265.911 72.9407 266.028 72.7702 266.106 72.5529C266.187 72.3335 266.228 72.081 266.228 71.7955C266.228 71.5121 266.188 71.2628 266.11 71.0476C266.031 70.8324 265.915 70.6641 265.761 70.5426C265.608 70.4212 265.419 70.3604 265.195 70.3604C264.974 70.3604 264.786 70.419 264.633 70.5362C264.482 70.6534 264.366 70.8196 264.285 71.0348C264.204 71.25 264.163 71.5036 264.163 71.7955ZM269.887 71.4119V74.25H268.526V67.7045H269.849V70.207H269.906C270.017 69.9173 270.196 69.6903 270.443 69.5263C270.691 69.3601 271.001 69.277 271.373 69.277C271.714 69.277 272.012 69.3516 272.265 69.5007C272.521 69.6477 272.719 69.8597 272.86 70.1367C273.002 70.4116 273.073 70.7408 273.07 71.1243V74.25H271.709V71.3672C271.711 71.0646 271.634 70.8292 271.479 70.6609C271.325 70.4925 271.11 70.4084 270.833 70.4084C270.648 70.4084 270.484 70.4478 270.341 70.5266C270.2 70.6055 270.09 70.7205 270.009 70.8718C269.93 71.021 269.889 71.201 269.887 71.4119ZM276.638 71.9744H277.814L278.405 72.7351L278.987 73.4126L280.083 74.7869H278.792L278.038 73.8601L277.651 73.3104L276.638 71.9744ZM280.182 70.9773C280.182 71.6911 280.047 72.2983 279.777 72.799C279.508 73.2997 279.142 73.6822 278.677 73.9464C278.215 74.2085 277.695 74.3395 277.117 74.3395C276.536 74.3395 276.014 74.2074 275.551 73.9432C275.089 73.679 274.724 73.2965 274.455 72.7958C274.187 72.2951 274.052 71.6889 274.052 70.9773C274.052 70.2635 274.187 69.6562 274.455 69.1555C274.724 68.6548 275.089 68.2734 275.551 68.0114C276.014 67.7472 276.536 67.6151 277.117 67.6151C277.695 67.6151 278.215 67.7472 278.677 68.0114C279.142 68.2734 279.508 68.6548 279.777 69.1555C280.047 69.6562 280.182 70.2635 280.182 70.9773ZM278.779 70.9773C278.779 70.5149 278.71 70.125 278.572 69.8075C278.435 69.4901 278.242 69.2493 277.993 69.0852C277.744 68.9212 277.452 68.8391 277.117 68.8391C276.783 68.8391 276.491 68.9212 276.242 69.0852C275.992 69.2493 275.799 69.4901 275.66 69.8075C275.524 70.125 275.456 70.5149 275.456 70.9773C275.456 71.4396 275.524 71.8295 275.66 72.147C275.799 72.4645 275.992 72.7053 276.242 72.8693C276.491 73.0334 276.783 73.1154 277.117 73.1154C277.452 73.1154 277.744 73.0334 277.993 72.8693C278.242 72.7053 278.435 72.4645 278.572 72.147C278.71 71.8295 278.779 71.4396 278.779 70.9773ZM281.208 74.25V67.7045H282.591V73.109H285.398V74.25H281.208Z" fill="white"/>
<rect x="4" width="375" height="101.25" rx="26.25" fill="white"/>
<circle cx="60.25" cy="50.25" r="30" fill="#C4C4C4"/>
<rect x="46.75" y="54" width="27" height="15" rx="3.75" fill="white"/>
<circle cx="59.875" cy="41.625" r="9.375" fill="white"/>
<path d="M103.815 38H99.9482V27.0909H103.847C104.945 27.0909 105.889 27.3093 106.681 27.7461C107.473 28.1793 108.082 28.8026 108.508 29.6158C108.938 30.429 109.153 31.402 109.153 32.5348C109.153 33.6712 108.938 34.6477 108.508 35.4645C108.082 36.2812 107.469 36.908 106.67 37.3448C105.875 37.7816 104.923 38 103.815 38ZM102.255 36.0238H103.719C104.401 36.0238 104.975 35.9031 105.44 35.6616C105.909 35.4165 106.26 35.0384 106.495 34.527C106.733 34.0121 106.852 33.348 106.852 32.5348C106.852 31.7287 106.733 31.07 106.495 30.5586C106.26 30.0472 105.911 29.6708 105.445 29.4293C104.98 29.1879 104.407 29.0671 103.725 29.0671H102.255V36.0238ZM113.152 38.1545C112.63 38.1545 112.165 38.0639 111.756 37.8828C111.348 37.6982 111.025 37.4265 110.787 37.0678C110.552 36.7056 110.435 36.2546 110.435 35.7148C110.435 35.2603 110.519 34.8786 110.685 34.5696C110.852 34.2607 111.08 34.0121 111.367 33.8239C111.655 33.6357 111.982 33.4936 112.347 33.3977C112.717 33.3018 113.104 33.2344 113.509 33.1953C113.984 33.1456 114.368 33.0994 114.659 33.0568C114.95 33.0107 115.162 32.9432 115.293 32.8544C115.424 32.7656 115.49 32.6342 115.49 32.4602V32.4283C115.49 32.0909 115.384 31.8299 115.171 31.6452C114.961 31.4606 114.663 31.3683 114.276 31.3683C113.867 31.3683 113.542 31.4588 113.301 31.6399C113.059 31.8175 112.9 32.0412 112.821 32.3111L110.723 32.1406C110.829 31.6435 111.039 31.2138 111.351 30.8516C111.664 30.4858 112.067 30.2053 112.56 30.0099C113.058 29.8111 113.633 29.7116 114.286 29.7116C114.741 29.7116 115.176 29.7649 115.591 29.8714C116.01 29.978 116.381 30.1431 116.705 30.3668C117.031 30.5906 117.289 30.8782 117.477 31.2298C117.665 31.5778 117.759 31.995 117.759 32.4815V38H115.607V36.8654H115.543C115.412 37.1211 115.236 37.3466 115.016 37.5419C114.796 37.7337 114.531 37.8846 114.222 37.9947C113.913 38.1012 113.557 38.1545 113.152 38.1545ZM113.802 36.5884C114.135 36.5884 114.43 36.5227 114.686 36.3913C114.941 36.2564 115.142 36.0753 115.288 35.848C115.433 35.6207 115.506 35.3633 115.506 35.0756V34.2074C115.435 34.2536 115.337 34.2962 115.213 34.3352C115.092 34.3707 114.956 34.4045 114.803 34.4364C114.65 34.4648 114.498 34.4915 114.345 34.5163C114.192 34.5376 114.054 34.5572 113.929 34.5749C113.663 34.614 113.43 34.6761 113.232 34.7614C113.033 34.8466 112.878 34.962 112.768 35.1076C112.658 35.2496 112.603 35.4272 112.603 35.6403C112.603 35.9492 112.715 36.1854 112.939 36.3487C113.166 36.5085 113.454 36.5884 113.802 36.5884ZM119.52 38V29.8182H121.72V31.2457H121.805C121.954 30.7379 122.204 30.3544 122.556 30.0952C122.908 29.8324 123.312 29.701 123.771 29.701C123.884 29.701 124.007 29.7081 124.138 29.7223C124.269 29.7365 124.385 29.756 124.484 29.7809V31.7944C124.378 31.7624 124.23 31.734 124.042 31.7092C123.854 31.6843 123.682 31.6719 123.525 31.6719C123.192 31.6719 122.893 31.7447 122.631 31.8903C122.371 32.0323 122.165 32.2312 122.013 32.4869C121.864 32.7425 121.789 33.0373 121.789 33.3711V38H119.52ZM125.657 38V29.8182H127.857V31.2457H127.943C128.092 30.7379 128.342 30.3544 128.694 30.0952C129.045 29.8324 129.45 29.701 129.908 29.701C130.022 29.701 130.144 29.7081 130.276 29.7223C130.407 29.7365 130.523 29.756 130.622 29.7809V31.7944C130.515 31.7624 130.368 31.734 130.18 31.7092C129.992 31.6843 129.819 31.6719 129.663 31.6719C129.329 31.6719 129.031 31.7447 128.768 31.8903C128.509 32.0323 128.303 32.2312 128.15 32.4869C128.001 32.7425 127.927 33.0373 127.927 33.3711V38H125.657ZM135.143 38.1598C134.301 38.1598 133.577 37.9893 132.97 37.6484C132.366 37.304 131.901 36.8175 131.574 36.1889C131.247 35.5568 131.084 34.8093 131.084 33.9464C131.084 33.1048 131.247 32.3661 131.574 31.7305C131.901 31.0948 132.361 30.5994 132.954 30.2443C133.55 29.8892 134.25 29.7116 135.052 29.7116C135.592 29.7116 136.095 29.7987 136.56 29.9727C137.029 30.1431 137.437 30.4006 137.785 30.745C138.137 31.0895 138.41 31.5227 138.605 32.0447C138.801 32.5632 138.898 33.1705 138.898 33.8665V34.4897H131.99V33.0835H136.762C136.762 32.7567 136.691 32.4673 136.549 32.2152C136.407 31.9631 136.21 31.766 135.958 31.6239C135.709 31.4783 135.42 31.4055 135.09 31.4055C134.745 31.4055 134.44 31.4854 134.174 31.6452C133.911 31.8015 133.705 32.0128 133.556 32.2791C133.407 32.5419 133.33 32.8349 133.327 33.158V34.495C133.327 34.8999 133.401 35.2496 133.55 35.5444C133.703 35.8391 133.918 36.0664 134.195 36.2262C134.472 36.386 134.8 36.4659 135.18 36.4659C135.432 36.4659 135.663 36.4304 135.873 36.3594C136.082 36.2884 136.262 36.1818 136.411 36.0398C136.56 35.8977 136.674 35.7237 136.752 35.5178L138.85 35.6562C138.744 36.1605 138.525 36.6009 138.195 36.9773C137.869 37.3501 137.446 37.6413 136.927 37.8509C136.413 38.0568 135.818 38.1598 135.143 38.1598ZM142.648 33.2699V38H140.379V29.8182H142.542V31.2617H142.638C142.819 30.7859 143.122 30.4094 143.549 30.1325C143.975 29.8519 144.491 29.7116 145.099 29.7116C145.667 29.7116 146.162 29.8359 146.585 30.0845C147.007 30.3331 147.336 30.6882 147.57 31.1499C147.805 31.608 147.922 32.1548 147.922 32.7905V38H145.653V33.1953C145.656 32.6946 145.528 32.304 145.269 32.0234C145.01 31.7393 144.653 31.5973 144.198 31.5973C143.893 31.5973 143.623 31.663 143.389 31.7944C143.158 31.9258 142.977 32.1175 142.845 32.3697C142.718 32.6183 142.652 32.9183 142.648 33.2699ZM153.225 38V27.0909H157.592C158.395 27.0909 159.064 27.2099 159.601 27.4478C160.137 27.6857 160.54 28.016 160.81 28.4386C161.08 28.8576 161.215 29.3406 161.215 29.8874C161.215 30.3136 161.129 30.6882 160.959 31.0114C160.788 31.331 160.554 31.5937 160.256 31.7997C159.961 32.0021 159.624 32.146 159.244 32.2312V32.3377C159.659 32.3555 160.048 32.4727 160.41 32.6893C160.776 32.9059 161.073 33.2095 161.3 33.6001C161.527 33.9872 161.641 34.4489 161.641 34.9851C161.641 35.5639 161.497 36.0806 161.209 36.5352C160.925 36.9862 160.504 37.343 159.947 37.6058C159.389 37.8686 158.702 38 157.885 38H153.225ZM155.531 36.1143H157.411C158.054 36.1143 158.523 35.9918 158.818 35.7468C159.112 35.4982 159.26 35.168 159.26 34.756C159.26 34.4542 159.187 34.1879 159.041 33.957C158.896 33.7262 158.688 33.5451 158.418 33.4137C158.152 33.2823 157.834 33.2166 157.465 33.2166H155.531V36.1143ZM155.531 31.6559H157.241C157.557 31.6559 157.837 31.6009 158.082 31.4908C158.331 31.3771 158.526 31.2173 158.668 31.0114C158.814 30.8054 158.887 30.5586 158.887 30.271C158.887 29.8768 158.747 29.5589 158.466 29.3175C158.189 29.076 157.795 28.9553 157.283 28.9553H155.531V31.6559ZM165.432 38.1545C164.91 38.1545 164.445 38.0639 164.036 37.8828C163.628 37.6982 163.305 37.4265 163.067 37.0678C162.833 36.7056 162.715 36.2546 162.715 35.7148C162.715 35.2603 162.799 34.8786 162.966 34.5696C163.133 34.2607 163.36 34.0121 163.648 33.8239C163.935 33.6357 164.262 33.4936 164.628 33.3977C164.997 33.3018 165.384 33.2344 165.789 33.1953C166.265 33.1456 166.648 33.0994 166.939 33.0568C167.231 33.0107 167.442 32.9432 167.573 32.8544C167.705 32.7656 167.77 32.6342 167.77 32.4602V32.4283C167.77 32.0909 167.664 31.8299 167.451 31.6452C167.241 31.4606 166.943 31.3683 166.556 31.3683C166.148 31.3683 165.823 31.4588 165.581 31.6399C165.34 31.8175 165.18 32.0412 165.102 32.3111L163.003 32.1406C163.11 31.6435 163.319 31.2138 163.632 30.8516C163.944 30.4858 164.347 30.2053 164.841 30.0099C165.338 29.8111 165.913 29.7116 166.567 29.7116C167.021 29.7116 167.456 29.7649 167.872 29.8714C168.291 29.978 168.662 30.1431 168.985 30.3668C169.312 30.5906 169.569 30.8782 169.757 31.2298C169.945 31.5778 170.04 31.995 170.04 32.4815V38H167.888V36.8654H167.824C167.692 37.1211 167.517 37.3466 167.296 37.5419C167.076 37.7337 166.812 37.8846 166.503 37.9947C166.194 38.1012 165.837 38.1545 165.432 38.1545ZM166.082 36.5884C166.416 36.5884 166.71 36.5227 166.966 36.3913C167.222 36.2564 167.422 36.0753 167.568 35.848C167.714 35.6207 167.786 35.3633 167.786 35.0756V34.2074C167.715 34.2536 167.618 34.2962 167.493 34.3352C167.373 34.3707 167.236 34.4045 167.083 34.4364C166.931 34.4648 166.778 34.4915 166.625 34.5163C166.472 34.5376 166.334 34.5572 166.21 34.5749C165.943 34.614 165.711 34.6761 165.512 34.7614C165.313 34.8466 165.159 34.962 165.048 35.1076C164.938 35.2496 164.883 35.4272 164.883 35.6403C164.883 35.9492 164.995 36.1854 165.219 36.3487C165.446 36.5085 165.734 36.5884 166.082 36.5884ZM174.069 27.0909V38H171.8V27.0909H174.069ZM178.902 38.1332C178.28 38.1332 177.718 37.9734 177.213 37.6538C176.713 37.3306 176.315 36.8565 176.02 36.2315C175.729 35.603 175.583 34.8324 175.583 33.9197C175.583 32.9822 175.734 32.2028 176.036 31.5813C176.338 30.9563 176.739 30.4893 177.24 30.1804C177.744 29.8679 178.296 29.7116 178.897 29.7116C179.355 29.7116 179.736 29.7898 180.042 29.946C180.351 30.0987 180.599 30.2905 180.788 30.5213C180.979 30.7486 181.125 30.9723 181.224 31.1925H181.294V27.0909H183.557V38H181.32V36.6896H181.224C181.118 36.9169 180.967 37.1424 180.772 37.3661C180.58 37.5863 180.329 37.7692 180.021 37.9148C179.715 38.0604 179.342 38.1332 178.902 38.1332ZM179.621 36.3274C179.987 36.3274 180.296 36.228 180.548 36.0291C180.804 35.8267 180.999 35.5444 181.134 35.1822C181.272 34.82 181.342 34.3956 181.342 33.9091C181.342 33.4226 181.274 33 181.139 32.6413C181.004 32.2827 180.809 32.0057 180.553 31.8104C180.297 31.6151 179.987 31.5174 179.621 31.5174C179.248 31.5174 178.934 31.6186 178.678 31.821C178.422 32.0234 178.229 32.304 178.098 32.6626C177.966 33.0213 177.9 33.4368 177.9 33.9091C177.9 34.3849 177.966 34.8058 178.098 35.1715C178.233 35.5337 178.426 35.8178 178.678 36.0238C178.934 36.2262 179.248 36.3274 179.621 36.3274ZM187.037 38L184.811 29.8182H187.106L188.374 35.3153H188.449L189.77 29.8182H192.023L193.365 35.2834H193.434L194.681 29.8182H196.971L194.75 38H192.348L190.942 32.8544H190.84L189.434 38H187.037ZM198.182 38V29.8182H200.451V38H198.182ZM199.322 28.7635C198.984 28.7635 198.695 28.6516 198.454 28.4279C198.216 28.2006 198.097 27.929 198.097 27.6129C198.097 27.3004 198.216 27.0323 198.454 26.8086C198.695 26.5813 198.984 26.4677 199.322 26.4677C199.659 26.4677 199.947 26.5813 200.185 26.8086C200.426 27.0323 200.547 27.3004 200.547 27.6129C200.547 27.929 200.426 28.2006 200.185 28.4279C199.947 28.6516 199.659 28.7635 199.322 28.7635ZM204.538 33.2699V38H202.269V29.8182H204.431V31.2617H204.527C204.708 30.7859 205.012 30.4094 205.438 30.1325C205.864 29.8519 206.381 29.7116 206.988 29.7116C207.556 29.7116 208.052 29.8359 208.474 30.0845C208.897 30.3331 209.225 30.6882 209.46 31.1499C209.694 31.608 209.811 32.1548 209.811 32.7905V38H207.542V33.1953C207.546 32.6946 207.418 32.304 207.159 32.0234C206.9 31.7393 206.543 31.5973 206.088 31.5973C205.783 31.5973 205.513 31.663 205.278 31.7944C205.048 31.9258 204.866 32.1175 204.735 32.3697C204.607 32.6183 204.542 32.9183 204.538 33.2699Z" fill="black"/>
<path d="M104.493 48.7827C104.459 48.4389 104.313 48.1719 104.054 47.9815C103.795 47.7912 103.445 47.696 103.001 47.696C102.7 47.696 102.446 47.7386 102.239 47.8239C102.031 47.9062 101.872 48.0213 101.761 48.169C101.653 48.3168 101.599 48.4844 101.599 48.6719C101.594 48.8281 101.626 48.9645 101.697 49.081C101.771 49.1974 101.872 49.2983 102 49.3835C102.128 49.4659 102.276 49.5384 102.443 49.6009C102.611 49.6605 102.79 49.7116 102.98 49.7543L103.764 49.9418C104.145 50.027 104.494 50.1406 104.812 50.2827C105.131 50.4247 105.406 50.5994 105.639 50.8068C105.872 51.0142 106.053 51.2585 106.18 51.5398C106.311 51.821 106.378 52.1435 106.381 52.5071C106.378 53.0412 106.241 53.5043 105.972 53.8963C105.705 54.2855 105.318 54.5881 104.812 54.804C104.31 55.017 103.703 55.1236 102.993 55.1236C102.288 55.1236 101.675 55.0156 101.152 54.7997C100.632 54.5838 100.226 54.2642 99.9332 53.8409C99.6435 53.4148 99.4915 52.8878 99.4773 52.2599H101.263C101.283 52.5526 101.366 52.7969 101.514 52.9929C101.665 53.1861 101.865 53.3324 102.115 53.4318C102.368 53.5284 102.653 53.5767 102.972 53.5767C103.284 53.5767 103.555 53.5312 103.786 53.4403C104.018 53.3494 104.199 53.223 104.327 53.0611C104.455 52.8991 104.518 52.7131 104.518 52.5028C104.518 52.3068 104.46 52.142 104.344 52.0085C104.23 51.875 104.063 51.7614 103.841 51.6676C103.622 51.5739 103.354 51.4886 103.036 51.4119L102.085 51.1733C101.349 50.9943 100.768 50.7145 100.342 50.3338C99.9162 49.9531 99.7045 49.4403 99.7074 48.7955C99.7045 48.267 99.8452 47.8054 100.129 47.4105C100.416 47.0156 100.81 46.7074 101.31 46.4858C101.81 46.2642 102.378 46.1534 103.014 46.1534C103.662 46.1534 104.227 46.2642 104.71 46.4858C105.196 46.7074 105.574 47.0156 105.844 47.4105C106.114 47.8054 106.253 48.2628 106.261 48.7827H104.493ZM107.588 55V48.4545H109.348V49.5966H109.416C109.535 49.1903 109.735 48.8835 110.017 48.6761C110.298 48.4659 110.622 48.3608 110.988 48.3608C111.079 48.3608 111.177 48.3665 111.282 48.3778C111.387 48.3892 111.48 48.4048 111.559 48.4247V50.0355C111.474 50.0099 111.356 49.9872 111.206 49.9673C111.055 49.9474 110.917 49.9375 110.792 49.9375C110.525 49.9375 110.287 49.9957 110.076 50.1122C109.869 50.2259 109.704 50.3849 109.582 50.5895C109.463 50.794 109.403 51.0298 109.403 51.2969V55H107.588ZM115.309 55V46.2727H121.088V47.794H117.154V49.8736H120.704V51.3949H117.154V55H115.309ZM126.082 52.2131V48.4545H127.897V55H126.154V53.8111H126.086C125.939 54.1946 125.693 54.5028 125.349 54.7358C125.008 54.9687 124.592 55.0852 124.1 55.0852C123.663 55.0852 123.278 54.9858 122.946 54.7869C122.613 54.5881 122.353 54.3054 122.166 53.9389C121.981 53.5724 121.887 53.1335 121.885 52.6222V48.4545H123.7V52.2983C123.703 52.6847 123.806 52.9901 124.011 53.2145C124.216 53.4389 124.49 53.5511 124.833 53.5511C125.052 53.5511 125.257 53.5014 125.447 53.402C125.637 53.2997 125.791 53.1491 125.907 52.9503C126.027 52.7514 126.085 52.5057 126.082 52.2131ZM131.165 46.2727V55H129.349V46.2727H131.165ZM134.434 46.2727V55H132.619V46.2727H134.434ZM141.335 50.321L139.673 50.4233C139.644 50.2812 139.583 50.1534 139.489 50.0398C139.396 49.9233 139.272 49.831 139.119 49.7628C138.968 49.6918 138.788 49.6562 138.577 49.6562C138.296 49.6562 138.059 49.7159 137.866 49.8352C137.673 49.9517 137.576 50.108 137.576 50.304C137.576 50.4602 137.638 50.5923 137.763 50.7003C137.888 50.8082 138.103 50.8949 138.407 50.9602L139.592 51.1989C140.228 51.3295 140.702 51.5398 141.015 51.8295C141.327 52.1193 141.484 52.5 141.484 52.9716C141.484 53.4006 141.357 53.777 141.104 54.1009C140.854 54.4247 140.511 54.6776 140.073 54.8594C139.638 55.0384 139.137 55.1278 138.569 55.1278C137.702 55.1278 137.012 54.9474 136.498 54.5866C135.987 54.223 135.687 53.7287 135.599 53.1037L137.384 53.0099C137.438 53.2741 137.569 53.4759 137.776 53.6151C137.984 53.7514 138.249 53.8196 138.573 53.8196C138.891 53.8196 139.147 53.7585 139.34 53.6364C139.536 53.5114 139.636 53.3509 139.638 53.1548C139.636 52.9901 139.566 52.8551 139.43 52.75C139.293 52.642 139.083 52.5597 138.799 52.5028L137.665 52.277C137.026 52.1491 136.55 51.9276 136.238 51.6122C135.928 51.2969 135.773 50.8949 135.773 50.4062C135.773 49.9858 135.887 49.6236 136.114 49.3196C136.344 49.0156 136.667 48.7812 137.082 48.6165C137.499 48.4517 137.988 48.3693 138.548 48.3693C139.374 48.3693 140.025 48.544 140.499 48.8935C140.977 49.2429 141.255 49.7187 141.335 50.321ZM146.108 48.4545V49.8182H142.167V48.4545H146.108ZM143.061 46.8864H144.877V52.9886C144.877 53.1562 144.902 53.2869 144.953 53.3807C145.005 53.4716 145.076 53.5355 145.167 53.5724C145.26 53.6094 145.368 53.6278 145.49 53.6278C145.576 53.6278 145.661 53.6207 145.746 53.6065C145.831 53.5895 145.897 53.5767 145.942 53.5682L146.228 54.919C146.137 54.9474 146.009 54.9801 145.844 55.017C145.679 55.0568 145.479 55.081 145.243 55.0895C144.806 55.1065 144.422 55.0483 144.093 54.9148C143.766 54.7812 143.512 54.5739 143.33 54.2926C143.148 54.0114 143.059 53.6562 143.061 53.2273V46.8864ZM149.157 55.1236C148.74 55.1236 148.368 55.0511 148.041 54.9062C147.714 54.7585 147.456 54.5412 147.265 54.2543C147.078 53.9645 146.984 53.6037 146.984 53.1719C146.984 52.8082 147.051 52.5028 147.184 52.2557C147.318 52.0085 147.5 51.8097 147.73 51.6591C147.96 51.5085 148.221 51.3949 148.514 51.3182C148.809 51.2415 149.119 51.1875 149.443 51.1562C149.824 51.1165 150.13 51.0795 150.363 51.0455C150.596 51.0085 150.765 50.9545 150.87 50.8835C150.975 50.8125 151.028 50.7074 151.028 50.5682V50.5426C151.028 50.2727 150.943 50.0639 150.772 49.9162C150.605 49.7685 150.366 49.6946 150.056 49.6946C149.73 49.6946 149.47 49.767 149.277 49.9119C149.083 50.054 148.956 50.233 148.893 50.4489L147.214 50.3125C147.299 49.9148 147.467 49.571 147.717 49.2812C147.967 48.9886 148.289 48.7642 148.684 48.608C149.082 48.4489 149.542 48.3693 150.065 48.3693C150.429 48.3693 150.777 48.4119 151.109 48.4972C151.444 48.5824 151.741 48.7145 152 48.8935C152.261 49.0724 152.467 49.3026 152.618 49.5838C152.768 49.8622 152.843 50.196 152.843 50.5852V55H151.122V54.0923H151.071C150.966 54.2969 150.825 54.4773 150.649 54.6335C150.473 54.7869 150.261 54.9077 150.014 54.9957C149.767 55.081 149.481 55.1236 149.157 55.1236ZM149.677 53.8707C149.944 53.8707 150.18 53.8182 150.385 53.7131C150.589 53.6051 150.75 53.4602 150.866 53.2784C150.983 53.0966 151.041 52.8906 151.041 52.6605V51.9659C150.984 52.0028 150.906 52.0369 150.806 52.0682C150.71 52.0966 150.6 52.1236 150.478 52.1491C150.356 52.1719 150.234 52.1932 150.112 52.2131C149.99 52.2301 149.879 52.2457 149.779 52.2599C149.566 52.2912 149.38 52.3409 149.221 52.4091C149.062 52.4773 148.939 52.5696 148.85 52.6861C148.762 52.7997 148.718 52.9418 148.718 53.1122C148.718 53.3594 148.808 53.5483 148.987 53.679C149.169 53.8068 149.399 53.8707 149.677 53.8707ZM157.209 55.1278C156.539 55.1278 155.962 54.9858 155.479 54.7017C154.999 54.4148 154.63 54.017 154.371 53.5085C154.115 53 153.988 52.4148 153.988 51.7528C153.988 51.0824 154.117 50.4943 154.375 49.9886C154.637 49.4801 155.007 49.0838 155.488 48.7997C155.968 48.5128 156.539 48.3693 157.201 48.3693C157.772 48.3693 158.272 48.473 158.701 48.6804C159.13 48.8878 159.469 49.179 159.719 49.554C159.969 49.929 160.107 50.3693 160.132 50.875H158.419C158.371 50.5483 158.243 50.2855 158.036 50.0866C157.831 49.8849 157.563 49.7841 157.23 49.7841C156.949 49.7841 156.703 49.8608 156.493 50.0142C156.286 50.1648 156.124 50.3849 156.007 50.6747C155.891 50.9645 155.833 51.3153 155.833 51.7273C155.833 52.1449 155.89 52.5 156.003 52.7926C156.12 53.0852 156.283 53.3082 156.493 53.4616C156.703 53.6151 156.949 53.6918 157.23 53.6918C157.438 53.6918 157.624 53.6491 157.789 53.5639C157.956 53.4787 158.094 53.3551 158.202 53.1932C158.313 53.0284 158.385 52.831 158.419 52.6009H160.132C160.104 53.1009 159.968 53.5412 159.723 53.9219C159.482 54.2997 159.148 54.5952 158.722 54.8082C158.296 55.0213 157.792 55.1278 157.209 55.1278ZM162.94 53.1165L162.944 50.9389H163.208L165.305 48.4545H167.388L164.572 51.7443H164.141L162.94 53.1165ZM161.295 55V46.2727H163.11V55H161.295ZM165.386 55L163.46 52.1491L164.67 50.8665L167.512 55H165.386ZM171.091 55V46.2727H176.971V47.794H172.936V49.8736H176.669V51.3949H172.936V53.4787H176.988V55H171.091ZM180.219 51.2159V55H178.404V48.4545H180.134V49.6094H180.211C180.356 49.2287 180.599 48.9276 180.94 48.706C181.281 48.4815 181.694 48.3693 182.18 48.3693C182.634 48.3693 183.031 48.4688 183.369 48.6676C183.707 48.8665 183.969 49.1506 184.157 49.5199C184.344 49.8864 184.438 50.3239 184.438 50.8324V55H182.623V51.1562C182.626 50.7557 182.523 50.4432 182.316 50.2188C182.109 49.9915 181.823 49.8778 181.46 49.8778C181.215 49.8778 180.999 49.9304 180.812 50.0355C180.627 50.1406 180.482 50.294 180.377 50.4957C180.275 50.6946 180.222 50.9347 180.219 51.2159ZM188.818 57.5909C188.23 57.5909 187.725 57.5099 187.305 57.348C186.887 57.1889 186.555 56.9716 186.308 56.696C186.061 56.4205 185.9 56.1108 185.826 55.767L187.505 55.5412C187.556 55.6719 187.637 55.794 187.748 55.9077C187.859 56.0213 188.005 56.1122 188.187 56.1804C188.372 56.2514 188.596 56.2869 188.86 56.2869C189.255 56.2869 189.581 56.1903 189.836 55.9972C190.095 55.8068 190.224 55.4872 190.224 55.0384V53.8409H190.147C190.068 54.0227 189.949 54.1946 189.789 54.3565C189.63 54.5185 189.426 54.6506 189.176 54.7528C188.926 54.8551 188.627 54.9062 188.281 54.9062C187.789 54.9062 187.342 54.7926 186.939 54.5653C186.538 54.3352 186.218 53.9844 185.98 53.5128C185.744 53.0384 185.626 52.4389 185.626 51.7145C185.626 50.973 185.747 50.3537 185.988 49.8565C186.23 49.3594 186.551 48.9872 186.951 48.7401C187.355 48.4929 187.797 48.3693 188.277 48.3693C188.643 48.3693 188.95 48.4318 189.197 48.5568C189.444 48.679 189.643 48.8324 189.794 49.017C189.947 49.1989 190.065 49.3778 190.147 49.554H190.216V48.4545H192.018V55.0639C192.018 55.6207 191.882 56.0866 191.609 56.4616C191.336 56.8366 190.958 57.1179 190.475 57.3054C189.995 57.4957 189.443 57.5909 188.818 57.5909ZM188.856 53.5426C189.149 53.5426 189.396 53.4702 189.598 53.3253C189.802 53.1776 189.958 52.9673 190.066 52.6946C190.177 52.419 190.233 52.0895 190.233 51.706C190.233 51.3224 190.179 50.9901 190.071 50.7088C189.963 50.4247 189.806 50.2045 189.602 50.0483C189.397 49.892 189.149 49.8139 188.856 49.8139C188.558 49.8139 188.306 49.8949 188.102 50.0568C187.897 50.2159 187.743 50.4375 187.637 50.7216C187.532 51.0057 187.48 51.3338 187.48 51.706C187.48 52.0838 187.532 52.4105 187.637 52.6861C187.745 52.9588 187.9 53.1705 188.102 53.321C188.306 53.4687 188.558 53.5426 188.856 53.5426ZM193.463 55V48.4545H195.278V55H193.463ZM194.375 47.6108C194.105 47.6108 193.873 47.5213 193.68 47.3423C193.49 47.1605 193.395 46.9432 193.395 46.6903C193.395 46.4403 193.49 46.2259 193.68 46.0469C193.873 45.8651 194.105 45.7741 194.375 45.7741C194.645 45.7741 194.875 45.8651 195.065 46.0469C195.258 46.2259 195.355 46.4403 195.355 46.6903C195.355 46.9432 195.258 47.1605 195.065 47.3423C194.875 47.5213 194.645 47.6108 194.375 47.6108ZM198.548 51.2159V55H196.732V48.4545H198.462V49.6094H198.539C198.684 49.2287 198.927 48.9276 199.268 48.706C199.609 48.4815 200.022 48.3693 200.508 48.3693C200.962 48.3693 201.359 48.4688 201.697 48.6676C202.035 48.8665 202.298 49.1506 202.485 49.5199C202.673 49.8864 202.766 50.3239 202.766 50.8324V55H200.951V51.1562C200.954 50.7557 200.852 50.4432 200.644 50.2188C200.437 49.9915 200.151 49.8778 199.788 49.8778C199.543 49.8778 199.327 49.9304 199.14 50.0355C198.955 50.1406 198.81 50.294 198.705 50.4957C198.603 50.6946 198.55 50.9347 198.548 51.2159ZM207.18 55.1278C206.507 55.1278 205.927 54.9915 205.441 54.7188C204.958 54.4432 204.586 54.054 204.325 53.5511C204.064 53.0455 203.933 52.4474 203.933 51.7571C203.933 51.0838 204.064 50.4929 204.325 49.9844C204.586 49.4759 204.954 49.0795 205.429 48.7955C205.906 48.5114 206.466 48.3693 207.108 48.3693C207.539 48.3693 207.941 48.4389 208.314 48.5781C208.689 48.7145 209.015 48.9205 209.294 49.196C209.575 49.4716 209.794 49.8182 209.95 50.2358C210.106 50.6506 210.184 51.1364 210.184 51.6932V52.1918H204.657V51.0668H208.475C208.475 50.8054 208.419 50.5739 208.305 50.3722C208.191 50.1705 208.034 50.0128 207.832 49.8991C207.633 49.7827 207.402 49.7244 207.137 49.7244C206.862 49.7244 206.618 49.7884 206.404 49.9162C206.194 50.0412 206.029 50.2102 205.91 50.4233C205.791 50.6335 205.73 50.8679 205.727 51.1264V52.196C205.727 52.5199 205.787 52.7997 205.906 53.0355C206.028 53.2713 206.2 53.4531 206.422 53.581C206.643 53.7088 206.906 53.7727 207.21 53.7727C207.412 53.7727 207.596 53.7443 207.764 53.6875C207.931 53.6307 208.075 53.5455 208.194 53.4318C208.314 53.3182 208.404 53.179 208.467 53.0142L210.146 53.125C210.061 53.5284 209.886 53.8807 209.622 54.1818C209.36 54.4801 209.022 54.7131 208.608 54.8807C208.196 55.0455 207.72 55.1278 207.18 55.1278ZM214.352 55.1278C213.679 55.1278 213.099 54.9915 212.613 54.7188C212.13 54.4432 211.758 54.054 211.497 53.5511C211.235 53.0455 211.105 52.4474 211.105 51.7571C211.105 51.0838 211.235 50.4929 211.497 49.9844C211.758 49.4759 212.126 49.0795 212.6 48.7955C213.078 48.5114 213.637 48.3693 214.279 48.3693C214.711 48.3693 215.113 48.4389 215.485 48.5781C215.86 48.7145 216.187 48.9205 216.466 49.196C216.747 49.4716 216.966 49.8182 217.122 50.2358C217.278 50.6506 217.356 51.1364 217.356 51.6932V52.1918H211.829V51.0668H215.647C215.647 50.8054 215.591 50.5739 215.477 50.3722C215.363 50.1705 215.206 50.0128 215.004 49.8991C214.805 49.7827 214.574 49.7244 214.309 49.7244C214.034 49.7244 213.789 49.7884 213.576 49.9162C213.366 50.0412 213.201 50.2102 213.082 50.4233C212.963 50.6335 212.902 50.8679 212.899 51.1264V52.196C212.899 52.5199 212.958 52.7997 213.078 53.0355C213.2 53.2713 213.372 53.4531 213.593 53.581C213.815 53.7088 214.078 53.7727 214.382 53.7727C214.583 53.7727 214.768 53.7443 214.936 53.6875C215.103 53.6307 215.247 53.5455 215.366 53.4318C215.485 53.3182 215.576 53.179 215.639 53.0142L217.318 53.125C217.233 53.5284 217.058 53.8807 216.794 54.1818C216.532 54.4801 216.194 54.7131 215.779 54.8807C215.368 55.0455 214.892 55.1278 214.352 55.1278ZM218.541 55V48.4545H220.301V49.5966H220.369C220.488 49.1903 220.689 48.8835 220.97 48.6761C221.251 48.4659 221.575 48.3608 221.941 48.3608C222.032 48.3608 222.13 48.3665 222.235 48.3778C222.341 48.3892 222.433 48.4048 222.512 48.4247V50.0355C222.427 50.0099 222.309 49.9872 222.159 49.9673C222.008 49.9474 221.87 49.9375 221.745 49.9375C221.478 49.9375 221.24 49.9957 221.029 50.1122C220.822 50.2259 220.657 50.3849 220.535 50.5895C220.416 50.794 220.356 51.0298 220.356 51.2969V55H218.541Z" fill="#092AD0"/>
<rect x="99.625" y="61.875" width="44.25" height="18" rx="3.375" fill="#092AD0" fill-opacity="0.56" stroke="#092AD0" stroke-width="0.75"/>
<path d="M107.523 74.25L108.597 67.7045H109.62L108.546 74.25H107.523ZM104.593 72.6264L104.762 71.6037H109.876L109.706 72.6264H104.593ZM105.222 74.25L106.296 67.7045H107.319L106.245 74.25H105.222ZM104.967 70.3509L105.139 69.3281H110.253L110.08 70.3509H104.967ZM112.997 74.25V67.7045H115.579C116.073 67.7045 116.495 67.793 116.845 67.9698C117.196 68.1445 117.464 68.3928 117.647 68.7145C117.832 69.0341 117.925 69.4102 117.925 69.8427C117.925 70.2773 117.831 70.6513 117.644 70.9645C117.456 71.2756 117.184 71.5142 116.829 71.6804C116.475 71.8466 116.047 71.9297 115.544 71.9297H113.815V70.8175H115.32C115.584 70.8175 115.804 70.7812 115.979 70.7088C116.153 70.6364 116.283 70.5277 116.368 70.3828C116.456 70.2379 116.499 70.0579 116.499 69.8427C116.499 69.6254 116.456 69.4421 116.368 69.293C116.283 69.1438 116.152 69.0309 115.975 68.9542C115.801 68.8754 115.58 68.8359 115.314 68.8359H114.381V74.25H112.997ZM116.531 71.2713L118.158 74.25H116.631L115.039 71.2713H116.531ZM121.035 74.3459C120.53 74.3459 120.096 74.2436 119.731 74.0391C119.369 73.8324 119.09 73.5405 118.894 73.1634C118.698 72.7841 118.6 72.3356 118.6 71.8178C118.6 71.3129 118.698 70.8697 118.894 70.4883C119.09 70.1069 119.366 69.8097 119.722 69.5966C120.08 69.3835 120.5 69.277 120.981 69.277C121.305 69.277 121.606 69.3292 121.886 69.4336C122.167 69.5359 122.412 69.6903 122.621 69.897C122.832 70.1037 122.996 70.3636 123.113 70.6768C123.23 70.9879 123.289 71.3523 123.289 71.7699V72.1438H119.143V71.3001H122.007C122.007 71.104 121.964 70.9304 121.879 70.7791C121.794 70.6278 121.676 70.5096 121.524 70.4244C121.375 70.337 121.202 70.2933 121.003 70.2933C120.797 70.2933 120.614 70.3413 120.454 70.4371C120.296 70.5309 120.172 70.6577 120.083 70.8175C119.994 70.9751 119.948 71.1509 119.946 71.3448V72.147C119.946 72.3899 119.99 72.5998 120.08 72.7766C120.171 72.9535 120.3 73.0898 120.467 73.1857C120.633 73.2816 120.83 73.3295 121.058 73.3295C121.209 73.3295 121.348 73.3082 121.473 73.2656C121.599 73.223 121.707 73.1591 121.796 73.0739C121.886 72.9886 121.954 72.8842 122.001 72.7607L123.26 72.8438C123.196 73.1463 123.065 73.4105 122.867 73.6364C122.671 73.8601 122.417 74.0348 122.106 74.1605C121.797 74.2841 121.44 74.3459 121.035 74.3459ZM125.577 74.3427C125.264 74.3427 124.985 74.2884 124.74 74.1797C124.495 74.0689 124.301 73.9059 124.158 73.6907C124.017 73.4734 123.947 73.2028 123.947 72.8789C123.947 72.6062 123.997 72.3771 124.097 72.1918C124.197 72.0064 124.334 71.8572 124.506 71.7443C124.679 71.6314 124.875 71.5462 125.094 71.4886C125.316 71.4311 125.548 71.3906 125.791 71.3672C126.077 71.3374 126.307 71.3097 126.481 71.2841C126.656 71.2564 126.783 71.2159 126.862 71.1626C126.941 71.1094 126.98 71.0305 126.98 70.9261V70.907C126.98 70.7045 126.916 70.5479 126.788 70.4371C126.663 70.3263 126.484 70.271 126.251 70.271C126.006 70.271 125.811 70.3253 125.666 70.4339C125.522 70.5405 125.426 70.6747 125.379 70.8366L124.12 70.7344C124.184 70.4361 124.309 70.1783 124.497 69.9609C124.684 69.7415 124.926 69.5732 125.222 69.456C125.521 69.3366 125.866 69.277 126.258 69.277C126.53 69.277 126.791 69.3089 127.041 69.3729C127.292 69.4368 127.515 69.5359 127.709 69.6701C127.905 69.8043 128.059 69.9769 128.172 70.1879C128.285 70.3967 128.342 70.647 128.342 70.9389V74.25H127.05V73.5692H127.012C126.933 73.7227 126.828 73.858 126.696 73.9751C126.563 74.0902 126.405 74.1808 126.219 74.2468C126.034 74.3107 125.82 74.3427 125.577 74.3427ZM125.967 73.4031C126.167 73.4031 126.344 73.3636 126.497 73.2848C126.651 73.2038 126.771 73.0952 126.859 72.9588C126.946 72.8224 126.99 72.668 126.99 72.4954V71.9744C126.947 72.0021 126.888 72.0277 126.814 72.0511C126.741 72.0724 126.659 72.0927 126.568 72.1119C126.476 72.1289 126.384 72.1449 126.293 72.1598C126.201 72.1726 126.118 72.1843 126.044 72.195C125.884 72.2184 125.744 72.2557 125.625 72.3068C125.506 72.358 125.413 72.4272 125.347 72.5146C125.281 72.5998 125.248 72.7063 125.248 72.8342C125.248 73.0195 125.315 73.1612 125.449 73.2592C125.585 73.3551 125.758 73.4031 125.967 73.4031ZM131.616 74.3459C131.113 74.3459 130.68 74.2393 130.318 74.0263C129.958 73.8111 129.681 73.5128 129.487 73.1314C129.296 72.75 129.2 72.3111 129.2 71.8146C129.2 71.3118 129.297 70.8707 129.491 70.4915C129.687 70.1101 129.965 69.8129 130.325 69.5998C130.685 69.3846 131.113 69.277 131.609 69.277C132.038 69.277 132.413 69.3548 132.734 69.5103C133.056 69.6658 133.311 69.8842 133.498 70.1655C133.686 70.4467 133.789 70.777 133.808 71.1562H132.524C132.487 70.9112 132.391 70.7141 132.236 70.565C132.082 70.4137 131.881 70.3381 131.632 70.3381C131.421 70.3381 131.237 70.3956 131.079 70.5107C130.923 70.6236 130.802 70.7887 130.715 71.006C130.627 71.2234 130.584 71.4865 130.584 71.7955C130.584 72.1087 130.626 72.375 130.711 72.5945C130.799 72.8139 130.921 72.9812 131.079 73.0962C131.237 73.2113 131.421 73.2688 131.632 73.2688C131.787 73.2688 131.927 73.2369 132.051 73.1729C132.176 73.109 132.28 73.0163 132.361 72.8949C132.444 72.7713 132.498 72.6232 132.524 72.4506H133.808C133.787 72.8256 133.685 73.1559 133.502 73.4414C133.32 73.7248 133.07 73.9464 132.75 74.1062C132.431 74.266 132.053 74.3459 131.616 74.3459ZM137.291 69.3409V70.3636H134.335V69.3409H137.291ZM135.006 68.1648H136.368V72.7415C136.368 72.8672 136.387 72.9652 136.425 73.0355C136.463 73.1037 136.517 73.1516 136.585 73.1793C136.655 73.207 136.736 73.2209 136.828 73.2209C136.892 73.2209 136.956 73.2156 137.02 73.2049C137.083 73.1921 137.132 73.1825 137.167 73.1761L137.381 74.1893C137.313 74.2106 137.217 74.2351 137.093 74.2628C136.969 74.2926 136.819 74.3107 136.642 74.3171C136.314 74.3299 136.027 74.2862 135.779 74.1861C135.534 74.0859 135.344 73.9304 135.207 73.7195C135.071 73.5085 135.004 73.2422 135.006 72.9205V68.1648Z" fill="white"/>
<rect x="151.375" y="61.875" width="70.5" height="18" rx="3.375" fill="#092AD0" fill-opacity="0.56" stroke="#092AD0" stroke-width="0.75"/>
<path d="M161.523 74.25L162.597 67.7045H163.62L162.546 74.25H161.523ZM158.593 72.6264L158.762 71.6037H163.876L163.706 72.6264H158.593ZM159.222 74.25L160.296 67.7045H161.319L160.245 74.25H159.222ZM158.967 70.3509L159.139 69.3281H164.253L164.08 70.3509H158.967ZM166.747 68.8455V67.7045H172.123V68.8455H170.119V74.25H168.751V68.8455H166.747ZM173.261 76.0909C173.088 76.0909 172.926 76.0771 172.775 76.0494C172.626 76.0238 172.502 75.9908 172.404 75.9503L172.711 74.9339C172.871 74.983 173.015 75.0096 173.143 75.0138C173.273 75.0181 173.384 74.9883 173.478 74.9244C173.574 74.8604 173.652 74.7518 173.711 74.5984L173.791 74.3906L172.03 69.3409H173.462L174.479 72.946H174.53L175.556 69.3409H176.997L175.089 74.7805C174.997 75.0447 174.873 75.2749 174.715 75.4709C174.559 75.669 174.362 75.8214 174.124 75.9279C173.885 76.0366 173.597 76.0909 173.261 76.0909ZM177.694 76.0909V69.3409H179.036V70.1655H179.097C179.156 70.0334 179.243 69.8991 179.356 69.7628C179.471 69.6243 179.62 69.5092 179.803 69.4176C179.988 69.3239 180.219 69.277 180.493 69.277C180.851 69.277 181.182 69.3707 181.484 69.5582C181.787 69.7436 182.029 70.0238 182.21 70.3988C182.391 70.7717 182.481 71.2393 182.481 71.8018C182.481 72.3494 182.393 72.8118 182.216 73.1889C182.041 73.5639 181.803 73.8484 181.5 74.0423C181.2 74.234 180.863 74.3299 180.49 74.3299C180.226 74.3299 180.001 74.2862 179.816 74.1989C179.633 74.1115 179.482 74.0018 179.365 73.8697C179.248 73.7354 179.159 73.6001 179.097 73.4638H179.055V76.0909H177.694ZM179.026 71.7955C179.026 72.0874 179.067 72.342 179.148 72.5593C179.229 72.7766 179.346 72.946 179.499 73.0675C179.653 73.1868 179.839 73.2464 180.059 73.2464C180.28 73.2464 180.468 73.1857 180.621 73.0643C180.775 72.9407 180.891 72.7702 180.97 72.5529C181.051 72.3335 181.091 72.081 181.091 71.7955C181.091 71.5121 181.052 71.2628 180.973 71.0476C180.894 70.8324 180.778 70.6641 180.624 70.5426C180.471 70.4212 180.282 70.3604 180.059 70.3604C179.837 70.3604 179.65 70.419 179.496 70.5362C179.345 70.6534 179.229 70.8196 179.148 71.0348C179.067 71.25 179.026 71.5036 179.026 71.7955ZM185.626 74.3459C185.121 74.3459 184.687 74.2436 184.322 74.0391C183.96 73.8324 183.681 73.5405 183.485 73.1634C183.289 72.7841 183.191 72.3356 183.191 71.8178C183.191 71.3129 183.289 70.8697 183.485 70.4883C183.681 70.1069 183.957 69.8097 184.313 69.5966C184.671 69.3835 185.09 69.277 185.572 69.277C185.896 69.277 186.197 69.3292 186.476 69.4336C186.758 69.5359 187.003 69.6903 187.211 69.897C187.422 70.1037 187.586 70.3636 187.704 70.6768C187.821 70.9879 187.879 71.3523 187.879 71.7699V72.1438H183.734V71.3001H186.598C186.598 71.104 186.555 70.9304 186.47 70.7791C186.385 70.6278 186.267 70.5096 186.115 70.4244C185.966 70.337 185.792 70.2933 185.594 70.2933C185.388 70.2933 185.204 70.3413 185.045 70.4371C184.887 70.5309 184.763 70.6577 184.674 70.8175C184.584 70.9751 184.539 71.1509 184.536 71.3448V72.147C184.536 72.3899 184.581 72.5998 184.671 72.7766C184.762 72.9535 184.891 73.0898 185.057 73.1857C185.224 73.2816 185.421 73.3295 185.649 73.3295C185.8 73.3295 185.938 73.3082 186.064 73.2656C186.19 73.223 186.297 73.1591 186.387 73.0739C186.476 72.9886 186.545 72.8842 186.591 72.7607L187.851 72.8438C187.787 73.1463 187.656 73.4105 187.458 73.6364C187.262 73.8601 187.008 74.0348 186.697 74.1605C186.388 74.2841 186.031 74.3459 185.626 74.3459ZM192.852 70.7408L191.606 70.8175C191.585 70.7109 191.539 70.6151 191.469 70.5298C191.398 70.4425 191.306 70.3732 191.191 70.3221C191.078 70.2688 190.942 70.2422 190.785 70.2422C190.574 70.2422 190.396 70.2869 190.251 70.3764C190.106 70.4638 190.034 70.581 190.034 70.728C190.034 70.8452 190.08 70.9442 190.174 71.0252C190.268 71.1062 190.429 71.1712 190.657 71.2202L191.545 71.3991C192.023 71.4972 192.378 71.6548 192.613 71.8722C192.847 72.0895 192.964 72.375 192.964 72.7287C192.964 73.0504 192.869 73.3327 192.68 73.5756C192.492 73.8185 192.235 74.0082 191.906 74.1445C191.58 74.2788 191.204 74.3459 190.778 74.3459C190.128 74.3459 189.611 74.2106 189.225 73.94C188.841 73.6673 188.617 73.2965 188.551 72.8278L189.89 72.7575C189.93 72.9556 190.028 73.1069 190.184 73.2113C190.339 73.3136 190.539 73.3647 190.781 73.3647C191.02 73.3647 191.212 73.3189 191.357 73.2273C191.504 73.1335 191.578 73.0131 191.58 72.8661C191.578 72.7425 191.526 72.6413 191.424 72.5625C191.322 72.4815 191.164 72.4197 190.951 72.3771L190.101 72.2077C189.621 72.1119 189.264 71.9457 189.03 71.7092C188.798 71.4727 188.682 71.1712 188.682 70.8047C188.682 70.4893 188.767 70.2177 188.937 69.9897C189.11 69.7617 189.352 69.5859 189.663 69.4624C189.976 69.3388 190.343 69.277 190.762 69.277C191.382 69.277 191.87 69.408 192.226 69.6701C192.584 69.9322 192.793 70.2891 192.852 70.7408ZM196.04 74.3459C195.537 74.3459 195.104 74.2393 194.742 74.0263C194.382 73.8111 194.105 73.5128 193.911 73.1314C193.719 72.75 193.623 72.3111 193.623 71.8146C193.623 71.3118 193.72 70.8707 193.914 70.4915C194.11 70.1101 194.388 69.8129 194.748 69.5998C195.109 69.3846 195.537 69.277 196.033 69.277C196.462 69.277 196.837 69.3548 197.158 69.5103C197.48 69.6658 197.735 69.8842 197.922 70.1655C198.11 70.4467 198.213 70.777 198.232 71.1562H196.947C196.911 70.9112 196.815 70.7141 196.66 70.565C196.506 70.4137 196.305 70.3381 196.056 70.3381C195.845 70.3381 195.66 70.3956 195.503 70.5107C195.347 70.6236 195.226 70.7887 195.138 71.006C195.051 71.2234 195.007 71.4865 195.007 71.7955C195.007 72.1087 195.05 72.375 195.135 72.5945C195.223 72.8139 195.345 72.9812 195.503 73.0962C195.66 73.2113 195.845 73.2688 196.056 73.2688C196.211 73.2688 196.351 73.2369 196.474 73.1729C196.6 73.109 196.703 73.0163 196.784 72.8949C196.867 72.7713 196.922 72.6232 196.947 72.4506H198.232C198.211 72.8256 198.109 73.1559 197.925 73.4414C197.744 73.7248 197.494 73.9464 197.174 74.1062C196.855 74.266 196.476 74.3459 196.04 74.3459ZM199.104 74.25V69.3409H200.424V70.1974H200.475C200.564 69.8928 200.715 69.6626 200.926 69.5071C201.137 69.3494 201.379 69.2706 201.654 69.2706C201.722 69.2706 201.796 69.2749 201.875 69.2834C201.954 69.2919 202.023 69.3036 202.083 69.3185V70.5266C202.019 70.5075 201.93 70.4904 201.817 70.4755C201.704 70.4606 201.601 70.4531 201.507 70.4531C201.307 70.4531 201.128 70.4968 200.97 70.5842C200.815 70.6694 200.691 70.7887 200.6 70.9421C200.51 71.0955 200.465 71.2724 200.465 71.4727V74.25H199.104ZM202.786 74.25V69.3409H204.148V74.25H202.786ZM203.47 68.7081C203.268 68.7081 203.094 68.641 202.949 68.5067C202.807 68.3704 202.735 68.2074 202.735 68.0178C202.735 67.8303 202.807 67.6694 202.949 67.5352C203.094 67.3988 203.268 67.3306 203.47 67.3306C203.673 67.3306 203.845 67.3988 203.988 67.5352C204.133 67.6694 204.206 67.8303 204.206 68.0178C204.206 68.2074 204.133 68.3704 203.988 68.5067C203.845 68.641 203.673 68.7081 203.47 68.7081ZM205.239 76.0909V69.3409H206.581V70.1655H206.642C206.701 70.0334 206.788 69.8991 206.901 69.7628C207.016 69.6243 207.165 69.5092 207.348 69.4176C207.533 69.3239 207.763 69.277 208.038 69.277C208.396 69.277 208.727 69.3707 209.029 69.5582C209.332 69.7436 209.574 70.0238 209.755 70.3988C209.936 70.7717 210.026 71.2393 210.026 71.8018C210.026 72.3494 209.938 72.8118 209.761 73.1889C209.586 73.5639 209.348 73.8484 209.045 74.0423C208.745 74.234 208.408 74.3299 208.035 74.3299C207.771 74.3299 207.546 74.2862 207.361 74.1989C207.178 74.1115 207.027 74.0018 206.91 73.8697C206.793 73.7354 206.703 73.6001 206.642 73.4638H206.6V76.0909H205.239ZM206.571 71.7955C206.571 72.0874 206.612 72.342 206.693 72.5593C206.774 72.7766 206.891 72.946 207.044 73.0675C207.198 73.1868 207.384 73.2464 207.604 73.2464C207.825 73.2464 208.013 73.1857 208.166 73.0643C208.32 72.9407 208.436 72.7702 208.515 72.5529C208.596 72.3335 208.636 72.081 208.636 71.7955C208.636 71.5121 208.597 71.2628 208.518 71.0476C208.439 70.8324 208.323 70.6641 208.169 70.5426C208.016 70.4212 207.827 70.3604 207.604 70.3604C207.382 70.3604 207.195 70.419 207.041 70.5362C206.89 70.6534 206.774 70.8196 206.693 71.0348C206.612 71.25 206.571 71.5036 206.571 71.7955ZM213.545 69.3409V70.3636H210.589V69.3409H213.545ZM211.26 68.1648H212.621V72.7415C212.621 72.8672 212.641 72.9652 212.679 73.0355C212.717 73.1037 212.771 73.1516 212.839 73.1793C212.909 73.207 212.99 73.2209 213.082 73.2209C213.146 73.2209 213.21 73.2156 213.273 73.2049C213.337 73.1921 213.386 73.1825 213.42 73.1761L213.635 74.1893C213.566 74.2106 213.471 74.2351 213.347 74.2628C213.223 74.2926 213.073 74.3107 212.896 74.3171C212.568 74.3299 212.281 74.2862 212.033 74.1861C211.788 74.0859 211.598 73.9304 211.461 73.7195C211.325 73.5085 211.258 73.2422 211.26 72.9205V68.1648Z" fill="white"/>
<rect x="229.375" y="61.875" width="66.75" height="18" rx="3.375" fill="#092AD0" fill-opacity="0.56" stroke="#092AD0" stroke-width="0.75"/>
<path d="M241.773 74.25L242.847 67.7045H243.87L242.796 74.25H241.773ZM238.843 72.6264L239.012 71.6037H244.126L243.956 72.6264H238.843ZM239.472 74.25L240.546 67.7045H241.569L240.495 74.25H239.472ZM239.217 70.3509L239.389 69.3281H244.503L244.33 70.3509H239.217ZM251.587 69.8203C251.542 69.6648 251.479 69.5273 251.398 69.408C251.317 69.2866 251.218 69.1843 251.101 69.1012C250.986 69.016 250.854 68.951 250.705 68.9062C250.558 68.8615 250.395 68.8391 250.216 68.8391C249.881 68.8391 249.587 68.9222 249.334 69.0884C249.082 69.2546 248.886 69.4964 248.746 69.8139C248.605 70.1293 248.535 70.5149 248.535 70.9709C248.535 71.4268 248.604 71.8146 248.742 72.1342C248.881 72.4538 249.077 72.6978 249.33 72.8661C249.584 73.0323 249.883 73.1154 250.229 73.1154C250.542 73.1154 250.809 73.06 251.031 72.9492C251.254 72.8363 251.425 72.6776 251.542 72.473C251.661 72.2685 251.721 72.0266 251.721 71.7475L252.002 71.7891H250.315V70.7472H253.054V71.5717C253.054 72.147 252.932 72.6413 252.689 73.0547C252.447 73.4659 252.112 73.7834 251.686 74.0071C251.26 74.2287 250.772 74.3395 250.222 74.3395C249.608 74.3395 249.069 74.2042 248.605 73.9336C248.14 73.6609 247.778 73.2741 247.518 72.7734C247.26 72.2706 247.132 71.674 247.132 70.9837C247.132 70.4531 247.208 69.9801 247.362 69.5646C247.517 69.147 247.735 68.7933 248.014 68.5036C248.293 68.2138 248.618 67.9933 248.988 67.842C249.359 67.6907 249.761 67.6151 250.193 67.6151C250.564 67.6151 250.909 67.6694 251.229 67.7781C251.548 67.8846 251.832 68.0359 252.079 68.2319C252.328 68.4279 252.532 68.6612 252.689 68.9318C252.847 69.2003 252.948 69.4964 252.993 69.8203H251.587ZM254.068 74.25V69.3409H255.388V70.1974H255.439C255.528 69.8928 255.679 69.6626 255.889 69.5071C256.1 69.3494 256.343 69.2706 256.618 69.2706C256.686 69.2706 256.76 69.2749 256.839 69.2834C256.918 69.2919 256.987 69.3036 257.046 69.3185V70.5266C256.983 70.5075 256.894 70.4904 256.781 70.4755C256.668 70.4606 256.565 70.4531 256.471 70.4531C256.271 70.4531 256.092 70.4968 255.934 70.5842C255.779 70.6694 255.655 70.7887 255.563 70.9421C255.474 71.0955 255.429 71.2724 255.429 71.4727V74.25H254.068ZM259.01 74.3427C258.696 74.3427 258.417 74.2884 258.172 74.1797C257.927 74.0689 257.733 73.9059 257.591 73.6907C257.45 73.4734 257.38 73.2028 257.38 72.8789C257.38 72.6062 257.43 72.3771 257.53 72.1918C257.63 72.0064 257.766 71.8572 257.939 71.7443C258.112 71.6314 258.308 71.5462 258.527 71.4886C258.749 71.4311 258.981 71.3906 259.224 71.3672C259.509 71.3374 259.739 71.3097 259.914 71.2841C260.089 71.2564 260.216 71.2159 260.294 71.1626C260.373 71.1094 260.413 71.0305 260.413 70.9261V70.907C260.413 70.7045 260.349 70.5479 260.221 70.4371C260.095 70.3263 259.916 70.271 259.684 70.271C259.439 70.271 259.244 70.3253 259.099 70.4339C258.954 70.5405 258.858 70.6747 258.811 70.8366L257.552 70.7344C257.616 70.4361 257.742 70.1783 257.929 69.9609C258.117 69.7415 258.359 69.5732 258.655 69.456C258.953 69.3366 259.298 69.277 259.69 69.277C259.963 69.277 260.224 69.3089 260.473 69.3729C260.725 69.4368 260.947 69.5359 261.141 69.6701C261.337 69.8043 261.492 69.9769 261.605 70.1879C261.718 70.3967 261.774 70.647 261.774 70.9389V74.25H260.483V73.5692H260.445C260.366 73.7227 260.26 73.858 260.128 73.9751C259.996 74.0902 259.837 74.1808 259.652 74.2468C259.467 74.3107 259.252 74.3427 259.01 74.3427ZM259.4 73.4031C259.6 73.4031 259.777 73.3636 259.93 73.2848C260.083 73.2038 260.204 73.0952 260.291 72.9588C260.379 72.8224 260.422 72.668 260.422 72.4954V71.9744C260.38 72.0021 260.321 72.0277 260.246 72.0511C260.174 72.0724 260.092 72.0927 260 72.1119C259.909 72.1289 259.817 72.1449 259.725 72.1598C259.634 72.1726 259.551 72.1843 259.476 72.195C259.316 72.2184 259.177 72.2557 259.058 72.3068C258.938 72.358 258.846 72.4272 258.779 72.5146C258.713 72.5998 258.68 72.7063 258.68 72.8342C258.68 73.0195 258.748 73.1612 258.882 73.2592C259.018 73.3551 259.191 73.4031 259.4 73.4031ZM262.83 76.0909V69.3409H264.173V70.1655H264.233C264.293 70.0334 264.379 69.8991 264.492 69.7628C264.607 69.6243 264.757 69.5092 264.94 69.4176C265.125 69.3239 265.355 69.277 265.63 69.277C265.988 69.277 266.318 69.3707 266.621 69.5582C266.923 69.7436 267.165 70.0238 267.346 70.3988C267.528 70.7717 267.618 71.2393 267.618 71.8018C267.618 72.3494 267.53 72.8118 267.353 73.1889C267.178 73.5639 266.939 73.8484 266.637 74.0423C266.336 74.234 266 74.3299 265.627 74.3299C265.363 74.3299 265.138 74.2862 264.953 74.1989C264.769 74.1115 264.619 74.0018 264.502 73.8697C264.385 73.7354 264.295 73.6001 264.233 73.4638H264.192V76.0909H262.83ZM264.163 71.7955C264.163 72.0874 264.204 72.342 264.285 72.5593C264.366 72.7766 264.483 72.946 264.636 73.0675C264.79 73.1868 264.976 73.2464 265.195 73.2464C265.417 73.2464 265.605 73.1857 265.758 73.0643C265.911 72.9407 266.028 72.7702 266.106 72.5529C266.187 72.3335 266.228 72.081 266.228 71.7955C266.228 71.5121 266.188 71.2628 266.11 71.0476C266.031 70.8324 265.915 70.6641 265.761 70.5426C265.608 70.4212 265.419 70.3604 265.195 70.3604C264.974 70.3604 264.786 70.419 264.633 70.5362C264.482 70.6534 264.366 70.8196 264.285 71.0348C264.204 71.25 264.163 71.5036 264.163 71.7955ZM269.887 71.4119V74.25H268.526V67.7045H269.849V70.207H269.906C270.017 69.9173 270.196 69.6903 270.443 69.5263C270.691 69.3601 271.001 69.277 271.373 69.277C271.714 69.277 272.012 69.3516 272.265 69.5007C272.521 69.6477 272.719 69.8597 272.86 70.1367C273.002 70.4116 273.073 70.7408 273.07 71.1243V74.25H271.709V71.3672C271.711 71.0646 271.634 70.8292 271.479 70.6609C271.325 70.4925 271.11 70.4084 270.833 70.4084C270.648 70.4084 270.484 70.4478 270.341 70.5266C270.2 70.6055 270.09 70.7205 270.009 70.8718C269.93 71.021 269.889 71.201 269.887 71.4119ZM276.638 71.9744H277.814L278.405 72.7351L278.987 73.4126L280.083 74.7869H278.792L278.038 73.8601L277.651 73.3104L276.638 71.9744ZM280.182 70.9773C280.182 71.6911 280.047 72.2983 279.777 72.799C279.508 73.2997 279.142 73.6822 278.677 73.9464C278.215 74.2085 277.695 74.3395 277.117 74.3395C276.536 74.3395 276.014 74.2074 275.551 73.9432C275.089 73.679 274.724 73.2965 274.455 72.7958C274.187 72.2951 274.052 71.6889 274.052 70.9773C274.052 70.2635 274.187 69.6562 274.455 69.1555C274.724 68.6548 275.089 68.2734 275.551 68.0114C276.014 67.7472 276.536 67.6151 277.117 67.6151C277.695 67.6151 278.215 67.7472 278.677 68.0114C279.142 68.2734 279.508 68.6548 279.777 69.1555C280.047 69.6562 280.182 70.2635 280.182 70.9773ZM278.779 70.9773C278.779 70.5149 278.71 70.125 278.572 69.8075C278.435 69.4901 278.242 69.2493 277.993 69.0852C277.744 68.9212 277.452 68.8391 277.117 68.8391C276.783 68.8391 276.491 68.9212 276.242 69.0852C275.992 69.2493 275.799 69.4901 275.66 69.8075C275.524 70.125 275.456 70.5149 275.456 70.9773C275.456 71.4396 275.524 71.8295 275.66 72.147C275.799 72.4645 275.992 72.7053 276.242 72.8693C276.491 73.0334 276.783 73.1154 277.117 73.1154C277.452 73.1154 277.744 73.0334 277.993 72.8693C278.242 72.7053 278.435 72.4645 278.572 72.147C278.71 71.8295 278.779 71.4396 278.779 70.9773ZM281.208 74.25V67.7045H282.591V73.109H285.398V74.25H281.208Z" fill="white"/>
</g>
<defs>
<filter id="filter0_d_799_1424" x="0" y="0" width="383" height="109.25" filterUnits="userSpaceOnUse" color-interpolation-filters="sRGB">
<feFlood flood-opacity="0" result="BackgroundImageFix"/>
<feColorMatrix in="SourceAlpha" type="matrix" values="0 0 0 0 0 0 0 0 0 0 0 0 0 0 0 0 0 0 127 0" result="hardAlpha"/>
<feOffset dy="4"/>
<feGaussianBlur stdDeviation="2"/>
<feComposite in2="hardAlpha" operator="out"/>
<feColorMatrix type="matrix" values="0 0 0 0 0 0 0 0 0 0 0 0 0 0 0 0 0 0 0.25 0"/>
<feBlend mode="normal" in2="BackgroundImageFix" result="effect1_dropShadow_799_1424"/>
<feBlend mode="normal" in="SourceGraphic" in2="effect1_dropShadow_799_1424" result="shape"/>
</filter>
</defs>
</svg>
