<svg width="375" height="102" viewBox="0 0 375 102" fill="none" xmlns="http://www.w3.org/2000/svg">
<rect width="375" height="101.25" rx="26.25" fill="white"/>
<circle cx="56.25" cy="50.25" r="30" fill="#C4C4C4"/>
<rect x="42.75" y="54" width="27" height="15" rx="3.75" fill="white"/>
<circle cx="55.875" cy="41.625" r="9.375" fill="white"/>
<path d="M100.065 38H96.1982V27.0909H100.097C101.195 27.0909 102.139 27.3093 102.931 27.7461C103.723 28.1793 104.332 28.8026 104.758 29.6158C105.188 30.429 105.403 31.402 105.403 32.5348C105.403 33.6712 105.188 34.6477 104.758 35.4645C104.332 36.2812 103.719 36.908 102.92 37.3448C102.125 37.7816 101.173 38 100.065 38ZM98.5046 36.0238H99.9695C100.651 36.0238 101.225 35.9031 101.69 35.6616C102.159 35.4165 102.51 35.0384 102.745 34.527C102.983 34.0121 103.102 33.348 103.102 32.5348C103.102 31.7287 102.983 31.07 102.745 30.5586C102.51 30.0472 102.161 29.6708 101.695 29.4293C101.23 29.1879 100.657 29.0671 99.9748 29.0671H98.5046V36.0238ZM109.402 38.1545C108.88 38.1545 108.415 38.0639 108.006 37.8828C107.598 37.6982 107.275 37.4265 107.037 37.0678C106.802 36.7056 106.685 36.2546 106.685 35.7148C106.685 35.2603 106.769 34.8786 106.935 34.5696C107.102 34.2607 107.33 34.0121 107.617 33.8239C107.905 33.6357 108.232 33.4936 108.597 33.3977C108.967 33.3018 109.354 33.2344 109.759 33.1953C110.234 33.1456 110.618 33.0994 110.909 33.0568C111.2 33.0107 111.412 32.9432 111.543 32.8544C111.674 32.7656 111.74 32.6342 111.74 32.4602V32.4283C111.74 32.0909 111.634 31.8299 111.421 31.6452C111.211 31.4606 110.913 31.3683 110.526 31.3683C110.117 31.3683 109.792 31.4588 109.551 31.6399C109.309 31.8175 109.15 32.0412 109.071 32.3111L106.973 32.1406C107.079 31.6435 107.289 31.2138 107.601 30.8516C107.914 30.4858 108.317 30.2053 108.81 30.0099C109.308 29.8111 109.883 29.7116 110.536 29.7116C110.991 29.7116 111.426 29.7649 111.841 29.8714C112.26 29.978 112.631 30.1431 112.955 30.3668C113.281 30.5906 113.539 30.8782 113.727 31.2298C113.915 31.5778 114.009 31.995 114.009 32.4815V38H111.857V36.8654H111.793C111.662 37.1211 111.486 37.3466 111.266 37.5419C111.046 37.7337 110.781 37.8846 110.472 37.9947C110.163 38.1012 109.807 38.1545 109.402 38.1545ZM110.052 36.5884C110.385 36.5884 110.68 36.5227 110.936 36.3913C111.191 36.2564 111.392 36.0753 111.538 35.848C111.683 35.6207 111.756 35.3633 111.756 35.0756V34.2074C111.685 34.2536 111.587 34.2962 111.463 34.3352C111.342 34.3707 111.206 34.4045 111.053 34.4364C110.9 34.4648 110.748 34.4915 110.595 34.5163C110.442 34.5376 110.304 34.5572 110.179 34.5749C109.913 34.614 109.68 34.6761 109.482 34.7614C109.283 34.8466 109.128 34.962 109.018 35.1076C108.908 35.2496 108.853 35.4272 108.853 35.6403C108.853 35.9492 108.965 36.1854 109.189 36.3487C109.416 36.5085 109.704 36.5884 110.052 36.5884ZM123.105 29.8182L120.244 38H117.687L114.827 29.8182H117.224L118.923 35.6722H119.008L120.702 29.8182H123.105ZM124.266 38V29.8182H126.535V38H124.266ZM125.406 28.7635C125.068 28.7635 124.779 28.6516 124.538 28.4279C124.3 28.2006 124.181 27.929 124.181 27.6129C124.181 27.3004 124.3 27.0323 124.538 26.8086C124.779 26.5813 125.068 26.4677 125.406 26.4677C125.743 26.4677 126.031 26.5813 126.269 26.8086C126.51 27.0323 126.631 27.3004 126.631 27.6129C126.631 27.929 126.51 28.2006 126.269 28.4279C126.031 28.6516 125.743 28.7635 125.406 28.7635ZM131.368 38.1332C130.746 38.1332 130.183 37.9734 129.679 37.6538C129.178 37.3306 128.781 36.8565 128.486 36.2315C128.195 35.603 128.049 34.8324 128.049 33.9197C128.049 32.9822 128.2 32.2028 128.502 31.5813C128.804 30.9563 129.205 30.4893 129.706 30.1804C130.21 29.8679 130.762 29.7116 131.362 29.7116C131.82 29.7116 132.202 29.7898 132.508 29.946C132.817 30.0987 133.065 30.2905 133.253 30.5213C133.445 30.7486 133.591 30.9723 133.69 31.1925H133.759V27.0909H136.023V38H133.786V36.6896H133.69C133.584 36.9169 133.433 37.1424 133.237 37.3661C133.046 37.5863 132.795 37.7692 132.486 37.9148C132.181 38.0604 131.808 38.1332 131.368 38.1332ZM132.087 36.3274C132.453 36.3274 132.762 36.228 133.014 36.0291C133.269 35.8267 133.465 35.5444 133.6 35.1822C133.738 34.82 133.807 34.3956 133.807 33.9091C133.807 33.4226 133.74 33 133.605 32.6413C133.47 32.2827 133.275 32.0057 133.019 31.8104C132.763 31.6151 132.453 31.5174 132.087 31.5174C131.714 31.5174 131.4 31.6186 131.144 31.821C130.888 32.0234 130.695 32.304 130.563 32.6626C130.432 33.0213 130.366 33.4368 130.366 33.9091C130.366 34.3849 130.432 34.8058 130.563 35.1715C130.698 35.5337 130.892 35.8178 131.144 36.0238C131.4 36.2262 131.714 36.3274 132.087 36.3274ZM141.403 27.0909H144.248L147.252 34.4205H147.38L150.384 27.0909H153.229V38H150.991V30.8995H150.901L148.078 37.9467H146.554L143.731 30.8729H143.64V38H141.403V27.0909ZM157.419 38.1545C156.897 38.1545 156.432 38.0639 156.024 37.8828C155.615 37.6982 155.292 37.4265 155.054 37.0678C154.82 36.7056 154.703 36.2546 154.703 35.7148C154.703 35.2603 154.786 34.8786 154.953 34.5696C155.12 34.2607 155.347 34.0121 155.635 33.8239C155.922 33.6357 156.249 33.4936 156.615 33.3977C156.984 33.3018 157.371 33.2344 157.776 33.1953C158.252 33.1456 158.636 33.0994 158.927 33.0568C159.218 33.0107 159.429 32.9432 159.561 32.8544C159.692 32.7656 159.758 32.6342 159.758 32.4602V32.4283C159.758 32.0909 159.651 31.8299 159.438 31.6452C159.229 31.4606 158.93 31.3683 158.543 31.3683C158.135 31.3683 157.81 31.4588 157.568 31.6399C157.327 31.8175 157.167 32.0412 157.089 32.3111L154.99 32.1406C155.097 31.6435 155.306 31.2138 155.619 30.8516C155.931 30.4858 156.334 30.2053 156.828 30.0099C157.325 29.8111 157.9 29.7116 158.554 29.7116C159.008 29.7116 159.443 29.7649 159.859 29.8714C160.278 29.978 160.649 30.1431 160.972 30.3668C161.299 30.5906 161.556 30.8782 161.745 31.2298C161.933 31.5778 162.027 31.995 162.027 32.4815V38H159.875V36.8654H159.811C159.68 37.1211 159.504 37.3466 159.284 37.5419C159.063 37.7337 158.799 37.8846 158.49 37.9947C158.181 38.1012 157.824 38.1545 157.419 38.1545ZM158.069 36.5884C158.403 36.5884 158.698 36.5227 158.953 36.3913C159.209 36.2564 159.41 36.0753 159.555 35.848C159.701 35.6207 159.774 35.3633 159.774 35.0756V34.2074C159.703 34.2536 159.605 34.2962 159.481 34.3352C159.36 34.3707 159.223 34.4045 159.071 34.4364C158.918 34.4648 158.765 34.4915 158.612 34.5163C158.46 34.5376 158.321 34.5572 158.197 34.5749C157.931 34.614 157.698 34.6761 157.499 34.7614C157.3 34.8466 157.146 34.962 157.036 35.1076C156.926 35.2496 156.871 35.4272 156.871 35.6403C156.871 35.9492 156.983 36.1854 157.206 36.3487C157.434 36.5085 157.721 36.5884 158.069 36.5884ZM163.787 38V29.8182H165.987V31.2457H166.073C166.222 30.7379 166.472 30.3544 166.824 30.0952C167.175 29.8324 167.58 29.701 168.038 29.701C168.152 29.701 168.274 29.7081 168.406 29.7223C168.537 29.7365 168.652 29.756 168.752 29.7809V31.7944C168.645 31.7624 168.498 31.734 168.31 31.7092C168.122 31.6843 167.949 31.6719 167.793 31.6719C167.459 31.6719 167.161 31.7447 166.898 31.8903C166.639 32.0323 166.433 32.2312 166.28 32.4869C166.131 32.7425 166.057 33.0373 166.057 33.3711V38H163.787ZM174.687 29.8182V31.5227H169.76V29.8182H174.687ZM170.879 27.858H173.148V35.4858C173.148 35.6953 173.18 35.8587 173.244 35.9759C173.308 36.0895 173.396 36.1694 173.51 36.2156C173.627 36.2617 173.762 36.2848 173.915 36.2848C174.021 36.2848 174.128 36.2759 174.234 36.2582C174.341 36.2369 174.423 36.2209 174.479 36.2102L174.836 37.8988C174.723 37.9343 174.563 37.9751 174.357 38.0213C174.151 38.071 173.901 38.1012 173.606 38.1119C173.059 38.1332 172.58 38.0604 172.168 37.8935C171.759 37.7266 171.441 37.4673 171.214 37.1158C170.987 36.7642 170.875 36.3203 170.879 35.7841V27.858ZM176.165 38V29.8182H178.434V38H176.165ZM177.305 28.7635C176.968 28.7635 176.678 28.6516 176.437 28.4279C176.199 28.2006 176.08 27.929 176.08 27.6129C176.08 27.3004 176.199 27.0323 176.437 26.8086C176.678 26.5813 176.968 26.4677 177.305 26.4677C177.643 26.4677 177.93 26.5813 178.168 26.8086C178.41 27.0323 178.53 27.3004 178.53 27.6129C178.53 27.929 178.41 28.2006 178.168 28.4279C177.93 28.6516 177.643 28.7635 177.305 28.7635ZM182.521 33.2699V38H180.252V29.8182H182.415V31.2617H182.511C182.692 30.7859 182.995 30.4094 183.422 30.1325C183.848 29.8519 184.364 29.7116 184.972 29.7116C185.54 29.7116 186.035 29.8359 186.458 30.0845C186.88 30.3331 187.209 30.6882 187.443 31.1499C187.678 31.608 187.795 32.1548 187.795 32.7905V38H185.526V33.1953C185.529 32.6946 185.401 32.304 185.142 32.0234C184.883 31.7393 184.526 31.5973 184.071 31.5973C183.766 31.5973 183.496 31.663 183.262 31.7944C183.031 31.9258 182.85 32.1175 182.718 32.3697C182.591 32.6183 182.525 32.9183 182.521 33.2699Z" fill="black"/>
<path d="M100.743 48.5327C100.709 48.1889 100.563 47.9219 100.304 47.7315C100.045 47.5412 99.6946 47.446 99.2514 47.446C98.9503 47.446 98.696 47.4886 98.4886 47.5739C98.2813 47.6562 98.1222 47.7713 98.0114 47.919C97.9034 48.0668 97.8494 48.2344 97.8494 48.4219C97.8438 48.5781 97.8764 48.7145 97.9474 48.831C98.0213 48.9474 98.1222 49.0483 98.25 49.1335C98.3778 49.2159 98.5256 49.2884 98.6932 49.3509C98.8608 49.4105 99.0398 49.4616 99.2301 49.5043L100.014 49.6918C100.395 49.777 100.744 49.8906 101.062 50.0327C101.381 50.1747 101.656 50.3494 101.889 50.5568C102.122 50.7642 102.303 51.0085 102.43 51.2898C102.561 51.571 102.628 51.8935 102.631 52.2571C102.628 52.7912 102.491 53.2543 102.222 53.6463C101.955 54.0355 101.568 54.3381 101.062 54.554C100.56 54.767 99.9531 54.8736 99.2429 54.8736C98.5384 54.8736 97.9247 54.7656 97.402 54.5497C96.8821 54.3338 96.4759 54.0142 96.1832 53.5909C95.8935 53.1648 95.7415 52.6378 95.7273 52.0099H97.5128C97.5327 52.3026 97.6165 52.5469 97.7642 52.7429C97.9148 52.9361 98.1151 53.0824 98.3651 53.1818C98.6179 53.2784 98.9034 53.3267 99.2216 53.3267C99.5341 53.3267 99.8054 53.2812 100.036 53.1903C100.268 53.0994 100.449 52.973 100.577 52.8111C100.705 52.6491 100.768 52.4631 100.768 52.2528C100.768 52.0568 100.71 51.892 100.594 51.7585C100.48 51.625 100.313 51.5114 100.091 51.4176C99.8722 51.3239 99.6037 51.2386 99.2855 51.1619L98.3352 50.9233C97.5994 50.7443 97.0185 50.4645 96.5923 50.0838C96.1662 49.7031 95.9545 49.1903 95.9574 48.5455C95.9545 48.017 96.0952 47.5554 96.3793 47.1605C96.6662 46.7656 97.0597 46.4574 97.5597 46.2358C98.0597 46.0142 98.6278 45.9034 99.2642 45.9034C99.9119 45.9034 100.477 46.0142 100.96 46.2358C101.446 46.4574 101.824 46.7656 102.094 47.1605C102.364 47.5554 102.503 48.0128 102.511 48.5327H100.743ZM106.795 54.8778C106.133 54.8778 105.561 54.7372 105.078 54.456C104.598 54.1719 104.227 53.777 103.966 53.2713C103.704 52.7628 103.574 52.1733 103.574 51.5028C103.574 50.8267 103.704 50.2358 103.966 49.7301C104.227 49.2216 104.598 48.8267 105.078 48.5455C105.561 48.2614 106.133 48.1193 106.795 48.1193C107.457 48.1193 108.028 48.2614 108.508 48.5455C108.991 48.8267 109.363 49.2216 109.625 49.7301C109.886 50.2358 110.017 50.8267 110.017 51.5028C110.017 52.1733 109.886 52.7628 109.625 53.2713C109.363 53.777 108.991 54.1719 108.508 54.456C108.028 54.7372 107.457 54.8778 106.795 54.8778ZM106.804 53.4716C107.105 53.4716 107.356 53.3864 107.558 53.2159C107.76 53.0426 107.912 52.8068 108.014 52.5085C108.119 52.2102 108.172 51.8707 108.172 51.4901C108.172 51.1094 108.119 50.7699 108.014 50.4716C107.912 50.1733 107.76 49.9375 107.558 49.7642C107.356 49.5909 107.105 49.5043 106.804 49.5043C106.5 49.5043 106.244 49.5909 106.037 49.7642C105.832 49.9375 105.677 50.1733 105.572 50.4716C105.47 50.7699 105.419 51.1094 105.419 51.4901C105.419 51.8707 105.47 52.2102 105.572 52.5085C105.677 52.8068 105.832 53.0426 106.037 53.2159C106.244 53.3864 106.5 53.4716 106.804 53.4716ZM114.717 48.2045V49.5682H110.677V48.2045H114.717ZM111.602 54.75V47.7315C111.602 47.2571 111.694 46.8636 111.879 46.5511C112.066 46.2386 112.322 46.0043 112.646 45.848C112.97 45.6918 113.338 45.6136 113.75 45.6136C114.028 45.6136 114.282 45.6349 114.512 45.6776C114.745 45.7202 114.919 45.7585 115.032 45.7926L114.708 47.1562C114.637 47.1335 114.549 47.1122 114.444 47.0923C114.342 47.0724 114.237 47.0625 114.129 47.0625C113.862 47.0625 113.676 47.125 113.571 47.25C113.466 47.3722 113.413 47.544 113.413 47.7656V54.75H111.602ZM119.308 48.2045V49.5682H115.366V48.2045H119.308ZM116.261 46.6364H118.076V52.7386C118.076 52.9062 118.102 53.0369 118.153 53.1307C118.204 53.2216 118.275 53.2855 118.366 53.3224C118.46 53.3594 118.567 53.3778 118.69 53.3778C118.775 53.3778 118.86 53.3707 118.945 53.3565C119.031 53.3395 119.096 53.3267 119.141 53.3182L119.427 54.669C119.336 54.6974 119.208 54.7301 119.043 54.767C118.879 54.8068 118.678 54.831 118.442 54.8395C118.005 54.8565 117.621 54.7983 117.292 54.6648C116.965 54.5312 116.711 54.3239 116.529 54.0426C116.347 53.7614 116.258 53.4062 116.261 52.9773V46.6364ZM121.781 54.75L120 48.2045H121.837L122.851 52.6023H122.911L123.967 48.2045H125.77L126.844 52.5767H126.899L127.896 48.2045H129.729L127.952 54.75H126.03L124.905 50.6335H124.824L123.699 54.75H121.781ZM132.564 54.8736C132.146 54.8736 131.774 54.8011 131.447 54.6562C131.12 54.5085 130.862 54.2912 130.672 54.0043C130.484 53.7145 130.39 53.3537 130.39 52.9219C130.39 52.5582 130.457 52.2528 130.591 52.0057C130.724 51.7585 130.906 51.5597 131.136 51.4091C131.366 51.2585 131.627 51.1449 131.92 51.0682C132.216 50.9915 132.525 50.9375 132.849 50.9062C133.23 50.8665 133.537 50.8295 133.77 50.7955C134.002 50.7585 134.172 50.7045 134.277 50.6335C134.382 50.5625 134.434 50.4574 134.434 50.3182V50.2926C134.434 50.0227 134.349 49.8139 134.179 49.6662C134.011 49.5185 133.772 49.4446 133.463 49.4446C133.136 49.4446 132.876 49.517 132.683 49.6619C132.49 49.804 132.362 49.983 132.299 50.1989L130.62 50.0625C130.706 49.6648 130.873 49.321 131.123 49.0312C131.373 48.7386 131.696 48.5142 132.091 48.358C132.488 48.1989 132.949 48.1193 133.471 48.1193C133.835 48.1193 134.183 48.1619 134.515 48.2472C134.85 48.3324 135.147 48.4645 135.406 48.6435C135.667 48.8224 135.873 49.0526 136.024 49.3338C136.174 49.6122 136.25 49.946 136.25 50.3352V54.75H134.528V53.8423H134.477C134.372 54.0469 134.231 54.2273 134.055 54.3835C133.879 54.5369 133.667 54.6577 133.42 54.7457C133.173 54.831 132.887 54.8736 132.564 54.8736ZM133.083 53.6207C133.35 53.6207 133.586 53.5682 133.791 53.4631C133.995 53.3551 134.156 53.2102 134.272 53.0284C134.389 52.8466 134.447 52.6406 134.447 52.4105V51.7159C134.39 51.7528 134.312 51.7869 134.213 51.8182C134.116 51.8466 134.007 51.8736 133.885 51.8991C133.762 51.9219 133.64 51.9432 133.518 51.9631C133.396 51.9801 133.285 51.9957 133.186 52.0099C132.973 52.0412 132.787 52.0909 132.627 52.1591C132.468 52.2273 132.345 52.3196 132.257 52.4361C132.169 52.5497 132.125 52.6918 132.125 52.8622C132.125 53.1094 132.214 53.2983 132.393 53.429C132.575 53.5568 132.805 53.6207 133.083 53.6207ZM137.658 54.75V48.2045H139.418V49.3466H139.486C139.605 48.9403 139.806 48.6335 140.087 48.4261C140.368 48.2159 140.692 48.1108 141.059 48.1108C141.15 48.1108 141.248 48.1165 141.353 48.1278C141.458 48.1392 141.55 48.1548 141.63 48.1747V49.7855C141.544 49.7599 141.426 49.7372 141.276 49.7173C141.125 49.6974 140.988 49.6875 140.863 49.6875C140.596 49.6875 140.357 49.7457 140.147 49.8622C139.939 49.9759 139.775 50.1349 139.652 50.3395C139.533 50.544 139.473 50.7798 139.473 51.0469V54.75H137.658ZM145.246 54.8778C144.573 54.8778 143.994 54.7415 143.508 54.4688C143.025 54.1932 142.653 53.804 142.391 53.3011C142.13 52.7955 141.999 52.1974 141.999 51.5071C141.999 50.8338 142.13 50.2429 142.391 49.7344C142.653 49.2259 143.021 48.8295 143.495 48.5455C143.972 48.2614 144.532 48.1193 145.174 48.1193C145.606 48.1193 146.008 48.1889 146.38 48.3281C146.755 48.4645 147.082 48.6705 147.36 48.946C147.641 49.2216 147.86 49.5682 148.016 49.9858C148.173 50.4006 148.251 50.8864 148.251 51.4432V51.9418H142.724V50.8168H146.542C146.542 50.5554 146.485 50.3239 146.371 50.1222C146.258 49.9205 146.1 49.7628 145.898 49.6491C145.7 49.5327 145.468 49.4744 145.204 49.4744C144.928 49.4744 144.684 49.5384 144.471 49.6662C144.261 49.7912 144.096 49.9602 143.977 50.1733C143.857 50.3835 143.796 50.6179 143.793 50.8764V51.946C143.793 52.2699 143.853 52.5497 143.972 52.7855C144.094 53.0213 144.266 53.2031 144.488 53.331C144.71 53.4588 144.972 53.5227 145.276 53.5227C145.478 53.5227 145.663 53.4943 145.83 53.4375C145.998 53.3807 146.141 53.2955 146.261 53.1818C146.38 53.0682 146.471 52.929 146.533 52.7642L148.212 52.875C148.127 53.2784 147.952 53.6307 147.688 53.9318C147.427 54.2301 147.089 54.4631 146.674 54.6307C146.262 54.7955 145.786 54.8778 145.246 54.8778ZM152.247 54.75V46.0227H158.127V47.544H154.092V49.6236H157.825V51.1449H154.092V53.2287H158.145V54.75H152.247ZM161.376 50.9659V54.75H159.56V48.2045H161.29V49.3594H161.367C161.512 48.9787 161.755 48.6776 162.096 48.456C162.437 48.2315 162.85 48.1193 163.336 48.1193C163.79 48.1193 164.187 48.2188 164.525 48.4176C164.863 48.6165 165.126 48.9006 165.313 49.2699C165.501 49.6364 165.594 50.0739 165.594 50.5824V54.75H163.779V50.9062C163.782 50.5057 163.68 50.1932 163.472 49.9688C163.265 49.7415 162.979 49.6278 162.616 49.6278C162.371 49.6278 162.156 49.6804 161.968 49.7855C161.783 49.8906 161.638 50.044 161.533 50.2457C161.431 50.4446 161.379 50.6847 161.376 50.9659ZM169.974 57.3409C169.386 57.3409 168.882 57.2599 168.461 57.098C168.044 56.9389 167.711 56.7216 167.464 56.446C167.217 56.1705 167.056 55.8608 166.983 55.517L168.662 55.2912C168.713 55.4219 168.794 55.544 168.904 55.6577C169.015 55.7713 169.162 55.8622 169.343 55.9304C169.528 56.0014 169.752 56.0369 170.017 56.0369C170.412 56.0369 170.737 55.9403 170.993 55.7472C171.251 55.5568 171.38 55.2372 171.38 54.7884V53.5909H171.304C171.224 53.7727 171.105 53.9446 170.946 54.1065C170.787 54.2685 170.582 54.4006 170.332 54.5028C170.082 54.6051 169.784 54.6562 169.437 54.6562C168.946 54.6562 168.498 54.5426 168.095 54.3153C167.694 54.0852 167.375 53.7344 167.136 53.2628C166.9 52.7884 166.782 52.1889 166.782 51.4645C166.782 50.723 166.903 50.1037 167.145 49.6065C167.386 49.1094 167.707 48.7372 168.108 48.4901C168.511 48.2429 168.953 48.1193 169.433 48.1193C169.799 48.1193 170.106 48.1818 170.353 48.3068C170.6 48.429 170.799 48.5824 170.95 48.767C171.103 48.9489 171.221 49.1278 171.304 49.304H171.372V48.2045H173.174V54.8139C173.174 55.3707 173.038 55.8366 172.765 56.2116C172.493 56.5866 172.115 56.8679 171.632 57.0554C171.152 57.2457 170.599 57.3409 169.974 57.3409ZM170.012 53.2926C170.305 53.2926 170.552 53.2202 170.754 53.0753C170.958 52.9276 171.115 52.7173 171.223 52.4446C171.333 52.169 171.389 51.8395 171.389 51.456C171.389 51.0724 171.335 50.7401 171.227 50.4588C171.119 50.1747 170.963 49.9545 170.758 49.7983C170.554 49.642 170.305 49.5639 170.012 49.5639C169.714 49.5639 169.463 49.6449 169.258 49.8068C169.054 49.9659 168.899 50.1875 168.794 50.4716C168.689 50.7557 168.636 51.0838 168.636 51.456C168.636 51.8338 168.689 52.1605 168.794 52.4361C168.902 52.7088 169.056 52.9205 169.258 53.071C169.463 53.2187 169.714 53.2926 170.012 53.2926ZM174.619 54.75V48.2045H176.434V54.75H174.619ZM175.531 47.3608C175.261 47.3608 175.029 47.2713 174.836 47.0923C174.646 46.9105 174.551 46.6932 174.551 46.4403C174.551 46.1903 174.646 45.9759 174.836 45.7969C175.029 45.6151 175.261 45.5241 175.531 45.5241C175.801 45.5241 176.031 45.6151 176.221 45.7969C176.414 45.9759 176.511 46.1903 176.511 46.4403C176.511 46.6932 176.414 46.9105 176.221 47.0923C176.031 47.2713 175.801 47.3608 175.531 47.3608ZM179.704 50.9659V54.75H177.888V48.2045H179.619V49.3594H179.695C179.84 48.9787 180.083 48.6776 180.424 48.456C180.765 48.2315 181.178 48.1193 181.664 48.1193C182.119 48.1193 182.515 48.2188 182.853 48.4176C183.191 48.6165 183.454 48.9006 183.641 49.2699C183.829 49.6364 183.923 50.0739 183.923 50.5824V54.75H182.107V50.9062C182.11 50.5057 182.008 50.1932 181.8 49.9688C181.593 49.7415 181.308 49.6278 180.944 49.6278C180.7 49.6278 180.484 49.6804 180.296 49.7855C180.112 49.8906 179.967 50.044 179.862 50.2457C179.759 50.4446 179.707 50.6847 179.704 50.9659ZM188.336 54.8778C187.663 54.8778 187.083 54.7415 186.598 54.4688C186.115 54.1932 185.743 53.804 185.481 53.3011C185.22 52.7955 185.089 52.1974 185.089 51.5071C185.089 50.8338 185.22 50.2429 185.481 49.7344C185.743 49.2259 186.11 48.8295 186.585 48.5455C187.062 48.2614 187.622 48.1193 188.264 48.1193C188.696 48.1193 189.098 48.1889 189.47 48.3281C189.845 48.4645 190.172 48.6705 190.45 48.946C190.731 49.2216 190.95 49.5682 191.106 49.9858C191.262 50.4006 191.341 50.8864 191.341 51.4432V51.9418H185.814V50.8168H189.632C189.632 50.5554 189.575 50.3239 189.461 50.1222C189.348 49.9205 189.19 49.7628 188.988 49.6491C188.789 49.5327 188.558 49.4744 188.294 49.4744C188.018 49.4744 187.774 49.5384 187.561 49.6662C187.35 49.7912 187.186 49.9602 187.066 50.1733C186.947 50.3835 186.886 50.6179 186.883 50.8764V51.946C186.883 52.2699 186.943 52.5497 187.062 52.7855C187.184 53.0213 187.356 53.2031 187.578 53.331C187.799 53.4588 188.062 53.5227 188.366 53.5227C188.568 53.5227 188.752 53.4943 188.92 53.4375C189.088 53.3807 189.231 53.2955 189.35 53.1818C189.47 53.0682 189.561 52.929 189.623 52.7642L191.302 52.875C191.217 53.2784 191.042 53.6307 190.778 53.9318C190.517 54.2301 190.179 54.4631 189.764 54.6307C189.352 54.7955 188.876 54.8778 188.336 54.8778ZM195.508 54.8778C194.835 54.8778 194.255 54.7415 193.77 54.4688C193.287 54.1932 192.914 53.804 192.653 53.3011C192.392 52.7955 192.261 52.1974 192.261 51.5071C192.261 50.8338 192.392 50.2429 192.653 49.7344C192.914 49.2259 193.282 48.8295 193.757 48.5455C194.234 48.2614 194.794 48.1193 195.436 48.1193C195.868 48.1193 196.27 48.1889 196.642 48.3281C197.017 48.4645 197.343 48.6705 197.622 48.946C197.903 49.2216 198.122 49.5682 198.278 49.9858C198.434 50.4006 198.512 50.8864 198.512 51.4432V51.9418H192.985V50.8168H196.804C196.804 50.5554 196.747 50.3239 196.633 50.1222C196.52 49.9205 196.362 49.7628 196.16 49.6491C195.961 49.5327 195.73 49.4744 195.466 49.4744C195.19 49.4744 194.946 49.5384 194.733 49.6662C194.522 49.7912 194.358 49.9602 194.238 50.1733C194.119 50.3835 194.058 50.6179 194.055 50.8764V51.946C194.055 52.2699 194.115 52.5497 194.234 52.7855C194.356 53.0213 194.528 53.2031 194.75 53.331C194.971 53.4588 195.234 53.5227 195.538 53.5227C195.74 53.5227 195.924 53.4943 196.092 53.4375C196.26 53.3807 196.403 53.2955 196.522 53.1818C196.642 53.0682 196.733 52.929 196.795 52.7642L198.474 52.875C198.389 53.2784 198.214 53.6307 197.95 53.9318C197.689 54.2301 197.35 54.4631 196.936 54.6307C196.524 54.7955 196.048 54.8778 195.508 54.8778ZM199.697 54.75V48.2045H201.457V49.3466H201.525C201.645 48.9403 201.845 48.6335 202.126 48.4261C202.407 48.2159 202.731 48.1108 203.098 48.1108C203.189 48.1108 203.287 48.1165 203.392 48.1278C203.497 48.1392 203.589 48.1548 203.669 48.1747V49.7855C203.583 49.7599 203.466 49.7372 203.315 49.7173C203.164 49.6974 203.027 49.6875 202.902 49.6875C202.635 49.6875 202.396 49.7457 202.186 49.8622C201.978 49.9759 201.814 50.1349 201.691 50.3395C201.572 50.544 201.512 50.7798 201.512 51.0469V54.75H199.697Z" fill="#092AD0"/>
<rect x="95.625" y="61.875" width="44.25" height="18" rx="3.375" fill="#092AD0" fill-opacity="0.56" stroke="#092AD0" stroke-width="0.75"/>
<path d="M103.523 74.25L104.597 67.7045H105.62L104.546 74.25H103.523ZM100.593 72.6264L100.762 71.6037H105.876L105.706 72.6264H100.593ZM101.222 74.25L102.296 67.7045H103.319L102.245 74.25H101.222ZM100.967 70.3509L101.139 69.3281H106.253L106.08 70.3509H100.967ZM108.997 74.25V67.7045H111.579C112.073 67.7045 112.495 67.793 112.845 67.9698C113.196 68.1445 113.464 68.3928 113.647 68.7145C113.832 69.0341 113.925 69.4102 113.925 69.8427C113.925 70.2773 113.831 70.6513 113.644 70.9645C113.456 71.2756 113.184 71.5142 112.829 71.6804C112.475 71.8466 112.047 71.9297 111.544 71.9297H109.815V70.8175H111.32C111.584 70.8175 111.804 70.7812 111.979 70.7088C112.153 70.6364 112.283 70.5277 112.368 70.3828C112.456 70.2379 112.499 70.0579 112.499 69.8427C112.499 69.6254 112.456 69.4421 112.368 69.293C112.283 69.1438 112.152 69.0309 111.975 68.9542C111.801 68.8754 111.58 68.8359 111.314 68.8359H110.381V74.25H108.997ZM112.531 71.2713L114.158 74.25H112.631L111.039 71.2713H112.531ZM117.035 74.3459C116.53 74.3459 116.096 74.2436 115.731 74.0391C115.369 73.8324 115.09 73.5405 114.894 73.1634C114.698 72.7841 114.6 72.3356 114.6 71.8178C114.6 71.3129 114.698 70.8697 114.894 70.4883C115.09 70.1069 115.366 69.8097 115.722 69.5966C116.08 69.3835 116.5 69.277 116.981 69.277C117.305 69.277 117.606 69.3292 117.886 69.4336C118.167 69.5359 118.412 69.6903 118.621 69.897C118.832 70.1037 118.996 70.3636 119.113 70.6768C119.23 70.9879 119.289 71.3523 119.289 71.7699V72.1438H115.143V71.3001H118.007C118.007 71.104 117.964 70.9304 117.879 70.7791C117.794 70.6278 117.676 70.5096 117.524 70.4244C117.375 70.337 117.202 70.2933 117.003 70.2933C116.797 70.2933 116.614 70.3413 116.454 70.4371C116.296 70.5309 116.172 70.6577 116.083 70.8175C115.994 70.9751 115.948 71.1509 115.946 71.3448V72.147C115.946 72.3899 115.99 72.5998 116.08 72.7766C116.171 72.9535 116.3 73.0898 116.467 73.1857C116.633 73.2816 116.83 73.3295 117.058 73.3295C117.209 73.3295 117.348 73.3082 117.473 73.2656C117.599 73.223 117.707 73.1591 117.796 73.0739C117.886 72.9886 117.954 72.8842 118.001 72.7607L119.26 72.8438C119.196 73.1463 119.065 73.4105 118.867 73.6364C118.671 73.8601 118.417 74.0348 118.106 74.1605C117.797 74.2841 117.44 74.3459 117.035 74.3459ZM121.577 74.3427C121.264 74.3427 120.985 74.2884 120.74 74.1797C120.495 74.0689 120.301 73.9059 120.158 73.6907C120.017 73.4734 119.947 73.2028 119.947 72.8789C119.947 72.6062 119.997 72.3771 120.097 72.1918C120.197 72.0064 120.334 71.8572 120.506 71.7443C120.679 71.6314 120.875 71.5462 121.094 71.4886C121.316 71.4311 121.548 71.3906 121.791 71.3672C122.077 71.3374 122.307 71.3097 122.481 71.2841C122.656 71.2564 122.783 71.2159 122.862 71.1626C122.941 71.1094 122.98 71.0305 122.98 70.9261V70.907C122.98 70.7045 122.916 70.5479 122.788 70.4371C122.663 70.3263 122.484 70.271 122.251 70.271C122.006 70.271 121.811 70.3253 121.666 70.4339C121.522 70.5405 121.426 70.6747 121.379 70.8366L120.12 70.7344C120.184 70.4361 120.309 70.1783 120.497 69.9609C120.684 69.7415 120.926 69.5732 121.222 69.456C121.521 69.3366 121.866 69.277 122.258 69.277C122.53 69.277 122.791 69.3089 123.041 69.3729C123.292 69.4368 123.515 69.5359 123.709 69.6701C123.905 69.8043 124.059 69.9769 124.172 70.1879C124.285 70.3967 124.342 70.647 124.342 70.9389V74.25H123.05V73.5692H123.012C122.933 73.7227 122.828 73.858 122.696 73.9751C122.563 74.0902 122.405 74.1808 122.219 74.2468C122.034 74.3107 121.82 74.3427 121.577 74.3427ZM121.967 73.4031C122.167 73.4031 122.344 73.3636 122.497 73.2848C122.651 73.2038 122.771 73.0952 122.859 72.9588C122.946 72.8224 122.99 72.668 122.99 72.4954V71.9744C122.947 72.0021 122.888 72.0277 122.814 72.0511C122.741 72.0724 122.659 72.0927 122.568 72.1119C122.476 72.1289 122.384 72.1449 122.293 72.1598C122.201 72.1726 122.118 72.1843 122.044 72.195C121.884 72.2184 121.744 72.2557 121.625 72.3068C121.506 72.358 121.413 72.4272 121.347 72.5146C121.281 72.5998 121.248 72.7063 121.248 72.8342C121.248 73.0195 121.315 73.1612 121.449 73.2592C121.585 73.3551 121.758 73.4031 121.967 73.4031ZM127.616 74.3459C127.113 74.3459 126.68 74.2393 126.318 74.0263C125.958 73.8111 125.681 73.5128 125.487 73.1314C125.296 72.75 125.2 72.3111 125.2 71.8146C125.2 71.3118 125.297 70.8707 125.491 70.4915C125.687 70.1101 125.965 69.8129 126.325 69.5998C126.685 69.3846 127.113 69.277 127.609 69.277C128.038 69.277 128.413 69.3548 128.734 69.5103C129.056 69.6658 129.311 69.8842 129.498 70.1655C129.686 70.4467 129.789 70.777 129.808 71.1562H128.524C128.487 70.9112 128.391 70.7141 128.236 70.565C128.082 70.4137 127.881 70.3381 127.632 70.3381C127.421 70.3381 127.237 70.3956 127.079 70.5107C126.923 70.6236 126.802 70.7887 126.715 71.006C126.627 71.2234 126.584 71.4865 126.584 71.7955C126.584 72.1087 126.626 72.375 126.711 72.5945C126.799 72.8139 126.921 72.9812 127.079 73.0962C127.237 73.2113 127.421 73.2688 127.632 73.2688C127.787 73.2688 127.927 73.2369 128.051 73.1729C128.176 73.109 128.28 73.0163 128.361 72.8949C128.444 72.7713 128.498 72.6232 128.524 72.4506H129.808C129.787 72.8256 129.685 73.1559 129.502 73.4414C129.32 73.7248 129.07 73.9464 128.75 74.1062C128.431 74.266 128.053 74.3459 127.616 74.3459ZM133.291 69.3409V70.3636H130.335V69.3409H133.291ZM131.006 68.1648H132.368V72.7415C132.368 72.8672 132.387 72.9652 132.425 73.0355C132.463 73.1037 132.517 73.1516 132.585 73.1793C132.655 73.207 132.736 73.2209 132.828 73.2209C132.892 73.2209 132.956 73.2156 133.02 73.2049C133.083 73.1921 133.132 73.1825 133.167 73.1761L133.381 74.1893C133.313 74.2106 133.217 74.2351 133.093 74.2628C132.969 74.2926 132.819 74.3107 132.642 74.3171C132.314 74.3299 132.027 74.2862 131.779 74.1861C131.534 74.0859 131.344 73.9304 131.207 73.7195C131.071 73.5085 131.004 73.2422 131.006 72.9205V68.1648Z" fill="white"/>
<rect x="147.375" y="61.875" width="70.5" height="18" rx="3.375" fill="#092AD0" fill-opacity="0.56" stroke="#092AD0" stroke-width="0.75"/>
<path d="M157.523 74.25L158.597 67.7045H159.62L158.546 74.25H157.523ZM154.593 72.6264L154.762 71.6037H159.876L159.706 72.6264H154.593ZM155.222 74.25L156.296 67.7045H157.319L156.245 74.25H155.222ZM154.967 70.3509L155.139 69.3281H160.253L160.08 70.3509H154.967ZM162.747 68.8455V67.7045H168.123V68.8455H166.119V74.25H164.751V68.8455H162.747ZM169.261 76.0909C169.088 76.0909 168.926 76.0771 168.775 76.0494C168.626 76.0238 168.502 75.9908 168.404 75.9503L168.711 74.9339C168.871 74.983 169.015 75.0096 169.143 75.0138C169.273 75.0181 169.384 74.9883 169.478 74.9244C169.574 74.8604 169.652 74.7518 169.711 74.5984L169.791 74.3906L168.03 69.3409H169.462L170.479 72.946H170.53L171.556 69.3409H172.997L171.089 74.7805C170.997 75.0447 170.873 75.2749 170.715 75.4709C170.559 75.669 170.362 75.8214 170.124 75.9279C169.885 76.0366 169.597 76.0909 169.261 76.0909ZM173.694 76.0909V69.3409H175.036V70.1655H175.097C175.156 70.0334 175.243 69.8991 175.356 69.7628C175.471 69.6243 175.62 69.5092 175.803 69.4176C175.988 69.3239 176.219 69.277 176.493 69.277C176.851 69.277 177.182 69.3707 177.484 69.5582C177.787 69.7436 178.029 70.0238 178.21 70.3988C178.391 70.7717 178.481 71.2393 178.481 71.8018C178.481 72.3494 178.393 72.8118 178.216 73.1889C178.041 73.5639 177.803 73.8484 177.5 74.0423C177.2 74.234 176.863 74.3299 176.49 74.3299C176.226 74.3299 176.001 74.2862 175.816 74.1989C175.633 74.1115 175.482 74.0018 175.365 73.8697C175.248 73.7354 175.159 73.6001 175.097 73.4638H175.055V76.0909H173.694ZM175.026 71.7955C175.026 72.0874 175.067 72.342 175.148 72.5593C175.229 72.7766 175.346 72.946 175.499 73.0675C175.653 73.1868 175.839 73.2464 176.059 73.2464C176.28 73.2464 176.468 73.1857 176.621 73.0643C176.775 72.9407 176.891 72.7702 176.97 72.5529C177.051 72.3335 177.091 72.081 177.091 71.7955C177.091 71.5121 177.052 71.2628 176.973 71.0476C176.894 70.8324 176.778 70.6641 176.624 70.5426C176.471 70.4212 176.282 70.3604 176.059 70.3604C175.837 70.3604 175.65 70.419 175.496 70.5362C175.345 70.6534 175.229 70.8196 175.148 71.0348C175.067 71.25 175.026 71.5036 175.026 71.7955ZM181.626 74.3459C181.121 74.3459 180.687 74.2436 180.322 74.0391C179.96 73.8324 179.681 73.5405 179.485 73.1634C179.289 72.7841 179.191 72.3356 179.191 71.8178C179.191 71.3129 179.289 70.8697 179.485 70.4883C179.681 70.1069 179.957 69.8097 180.313 69.5966C180.671 69.3835 181.09 69.277 181.572 69.277C181.896 69.277 182.197 69.3292 182.476 69.4336C182.758 69.5359 183.003 69.6903 183.211 69.897C183.422 70.1037 183.586 70.3636 183.704 70.6768C183.821 70.9879 183.879 71.3523 183.879 71.7699V72.1438H179.734V71.3001H182.598C182.598 71.104 182.555 70.9304 182.47 70.7791C182.385 70.6278 182.267 70.5096 182.115 70.4244C181.966 70.337 181.792 70.2933 181.594 70.2933C181.388 70.2933 181.204 70.3413 181.045 70.4371C180.887 70.5309 180.763 70.6577 180.674 70.8175C180.584 70.9751 180.539 71.1509 180.536 71.3448V72.147C180.536 72.3899 180.581 72.5998 180.671 72.7766C180.762 72.9535 180.891 73.0898 181.057 73.1857C181.224 73.2816 181.421 73.3295 181.649 73.3295C181.8 73.3295 181.938 73.3082 182.064 73.2656C182.19 73.223 182.297 73.1591 182.387 73.0739C182.476 72.9886 182.545 72.8842 182.591 72.7607L183.851 72.8438C183.787 73.1463 183.656 73.4105 183.458 73.6364C183.262 73.8601 183.008 74.0348 182.697 74.1605C182.388 74.2841 182.031 74.3459 181.626 74.3459ZM188.852 70.7408L187.606 70.8175C187.585 70.7109 187.539 70.6151 187.469 70.5298C187.398 70.4425 187.306 70.3732 187.191 70.3221C187.078 70.2688 186.942 70.2422 186.785 70.2422C186.574 70.2422 186.396 70.2869 186.251 70.3764C186.106 70.4638 186.034 70.581 186.034 70.728C186.034 70.8452 186.08 70.9442 186.174 71.0252C186.268 71.1062 186.429 71.1712 186.657 71.2202L187.545 71.3991C188.023 71.4972 188.378 71.6548 188.613 71.8722C188.847 72.0895 188.964 72.375 188.964 72.7287C188.964 73.0504 188.869 73.3327 188.68 73.5756C188.492 73.8185 188.235 74.0082 187.906 74.1445C187.58 74.2788 187.204 74.3459 186.778 74.3459C186.128 74.3459 185.611 74.2106 185.225 73.94C184.841 73.6673 184.617 73.2965 184.551 72.8278L185.89 72.7575C185.93 72.9556 186.028 73.1069 186.184 73.2113C186.339 73.3136 186.539 73.3647 186.781 73.3647C187.02 73.3647 187.212 73.3189 187.357 73.2273C187.504 73.1335 187.578 73.0131 187.58 72.8661C187.578 72.7425 187.526 72.6413 187.424 72.5625C187.322 72.4815 187.164 72.4197 186.951 72.3771L186.101 72.2077C185.621 72.1119 185.264 71.9457 185.03 71.7092C184.798 71.4727 184.682 71.1712 184.682 70.8047C184.682 70.4893 184.767 70.2177 184.937 69.9897C185.11 69.7617 185.352 69.5859 185.663 69.4624C185.976 69.3388 186.343 69.277 186.762 69.277C187.382 69.277 187.87 69.408 188.226 69.6701C188.584 69.9322 188.793 70.2891 188.852 70.7408ZM192.04 74.3459C191.537 74.3459 191.104 74.2393 190.742 74.0263C190.382 73.8111 190.105 73.5128 189.911 73.1314C189.719 72.75 189.623 72.3111 189.623 71.8146C189.623 71.3118 189.72 70.8707 189.914 70.4915C190.11 70.1101 190.388 69.8129 190.748 69.5998C191.109 69.3846 191.537 69.277 192.033 69.277C192.462 69.277 192.837 69.3548 193.158 69.5103C193.48 69.6658 193.735 69.8842 193.922 70.1655C194.11 70.4467 194.213 70.777 194.232 71.1562H192.947C192.911 70.9112 192.815 70.7141 192.66 70.565C192.506 70.4137 192.305 70.3381 192.056 70.3381C191.845 70.3381 191.66 70.3956 191.503 70.5107C191.347 70.6236 191.226 70.7887 191.138 71.006C191.051 71.2234 191.007 71.4865 191.007 71.7955C191.007 72.1087 191.05 72.375 191.135 72.5945C191.223 72.8139 191.345 72.9812 191.503 73.0962C191.66 73.2113 191.845 73.2688 192.056 73.2688C192.211 73.2688 192.351 73.2369 192.474 73.1729C192.6 73.109 192.703 73.0163 192.784 72.8949C192.867 72.7713 192.922 72.6232 192.947 72.4506H194.232C194.211 72.8256 194.109 73.1559 193.925 73.4414C193.744 73.7248 193.494 73.9464 193.174 74.1062C192.855 74.266 192.476 74.3459 192.04 74.3459ZM195.104 74.25V69.3409H196.424V70.1974H196.475C196.564 69.8928 196.715 69.6626 196.926 69.5071C197.137 69.3494 197.379 69.2706 197.654 69.2706C197.722 69.2706 197.796 69.2749 197.875 69.2834C197.954 69.2919 198.023 69.3036 198.083 69.3185V70.5266C198.019 70.5075 197.93 70.4904 197.817 70.4755C197.704 70.4606 197.601 70.4531 197.507 70.4531C197.307 70.4531 197.128 70.4968 196.97 70.5842C196.815 70.6694 196.691 70.7887 196.6 70.9421C196.51 71.0955 196.465 71.2724 196.465 71.4727V74.25H195.104ZM198.786 74.25V69.3409H200.148V74.25H198.786ZM199.47 68.7081C199.268 68.7081 199.094 68.641 198.949 68.5067C198.807 68.3704 198.735 68.2074 198.735 68.0178C198.735 67.8303 198.807 67.6694 198.949 67.5352C199.094 67.3988 199.268 67.3306 199.47 67.3306C199.673 67.3306 199.845 67.3988 199.988 67.5352C200.133 67.6694 200.206 67.8303 200.206 68.0178C200.206 68.2074 200.133 68.3704 199.988 68.5067C199.845 68.641 199.673 68.7081 199.47 68.7081ZM201.239 76.0909V69.3409H202.581V70.1655H202.642C202.701 70.0334 202.788 69.8991 202.901 69.7628C203.016 69.6243 203.165 69.5092 203.348 69.4176C203.533 69.3239 203.763 69.277 204.038 69.277C204.396 69.277 204.727 69.3707 205.029 69.5582C205.332 69.7436 205.574 70.0238 205.755 70.3988C205.936 70.7717 206.026 71.2393 206.026 71.8018C206.026 72.3494 205.938 72.8118 205.761 73.1889C205.586 73.5639 205.348 73.8484 205.045 74.0423C204.745 74.234 204.408 74.3299 204.035 74.3299C203.771 74.3299 203.546 74.2862 203.361 74.1989C203.178 74.1115 203.027 74.0018 202.91 73.8697C202.793 73.7354 202.703 73.6001 202.642 73.4638H202.6V76.0909H201.239ZM202.571 71.7955C202.571 72.0874 202.612 72.342 202.693 72.5593C202.774 72.7766 202.891 72.946 203.044 73.0675C203.198 73.1868 203.384 73.2464 203.604 73.2464C203.825 73.2464 204.013 73.1857 204.166 73.0643C204.32 72.9407 204.436 72.7702 204.515 72.5529C204.596 72.3335 204.636 72.081 204.636 71.7955C204.636 71.5121 204.597 71.2628 204.518 71.0476C204.439 70.8324 204.323 70.6641 204.169 70.5426C204.016 70.4212 203.827 70.3604 203.604 70.3604C203.382 70.3604 203.195 70.419 203.041 70.5362C202.89 70.6534 202.774 70.8196 202.693 71.0348C202.612 71.25 202.571 71.5036 202.571 71.7955ZM209.545 69.3409V70.3636H206.589V69.3409H209.545ZM207.26 68.1648H208.621V72.7415C208.621 72.8672 208.641 72.9652 208.679 73.0355C208.717 73.1037 208.771 73.1516 208.839 73.1793C208.909 73.207 208.99 73.2209 209.082 73.2209C209.146 73.2209 209.21 73.2156 209.273 73.2049C209.337 73.1921 209.386 73.1825 209.42 73.1761L209.635 74.1893C209.566 74.2106 209.471 74.2351 209.347 74.2628C209.223 74.2926 209.073 74.3107 208.896 74.3171C208.568 74.3299 208.281 74.2862 208.033 74.1861C207.788 74.0859 207.598 73.9304 207.461 73.7195C207.325 73.5085 207.258 73.2422 207.26 72.9205V68.1648Z" fill="white"/>
<rect x="225.375" y="61.875" width="66.75" height="18" rx="3.375" fill="#092AD0" fill-opacity="0.56" stroke="#092AD0" stroke-width="0.75"/>
<path d="M237.773 74.25L238.847 67.7045H239.87L238.796 74.25H237.773ZM234.843 72.6264L235.012 71.6037H240.126L239.956 72.6264H234.843ZM235.472 74.25L236.546 67.7045H237.569L236.495 74.25H235.472ZM235.217 70.3509L235.389 69.3281H240.503L240.33 70.3509H235.217ZM247.587 69.8203C247.542 69.6648 247.479 69.5273 247.398 69.408C247.317 69.2866 247.218 69.1843 247.101 69.1012C246.986 69.016 246.854 68.951 246.705 68.9062C246.558 68.8615 246.395 68.8391 246.216 68.8391C245.881 68.8391 245.587 68.9222 245.334 69.0884C245.082 69.2546 244.886 69.4964 244.746 69.8139C244.605 70.1293 244.535 70.5149 244.535 70.9709C244.535 71.4268 244.604 71.8146 244.742 72.1342C244.881 72.4538 245.077 72.6978 245.33 72.8661C245.584 73.0323 245.883 73.1154 246.229 73.1154C246.542 73.1154 246.809 73.06 247.031 72.9492C247.254 72.8363 247.425 72.6776 247.542 72.473C247.661 72.2685 247.721 72.0266 247.721 71.7475L248.002 71.7891H246.315V70.7472H249.054V71.5717C249.054 72.147 248.932 72.6413 248.689 73.0547C248.447 73.4659 248.112 73.7834 247.686 74.0071C247.26 74.2287 246.772 74.3395 246.222 74.3395C245.608 74.3395 245.069 74.2042 244.605 73.9336C244.14 73.6609 243.778 73.2741 243.518 72.7734C243.26 72.2706 243.132 71.674 243.132 70.9837C243.132 70.4531 243.208 69.9801 243.362 69.5646C243.517 69.147 243.735 68.7933 244.014 68.5036C244.293 68.2138 244.618 67.9933 244.988 67.842C245.359 67.6907 245.761 67.6151 246.193 67.6151C246.564 67.6151 246.909 67.6694 247.229 67.7781C247.548 67.8846 247.832 68.0359 248.079 68.2319C248.328 68.4279 248.532 68.6612 248.689 68.9318C248.847 69.2003 248.948 69.4964 248.993 69.8203H247.587ZM250.068 74.25V69.3409H251.388V70.1974H251.439C251.528 69.8928 251.679 69.6626 251.889 69.5071C252.1 69.3494 252.343 69.2706 252.618 69.2706C252.686 69.2706 252.76 69.2749 252.839 69.2834C252.918 69.2919 252.987 69.3036 253.046 69.3185V70.5266C252.983 70.5075 252.894 70.4904 252.781 70.4755C252.668 70.4606 252.565 70.4531 252.471 70.4531C252.271 70.4531 252.092 70.4968 251.934 70.5842C251.779 70.6694 251.655 70.7887 251.563 70.9421C251.474 71.0955 251.429 71.2724 251.429 71.4727V74.25H250.068ZM255.01 74.3427C254.696 74.3427 254.417 74.2884 254.172 74.1797C253.927 74.0689 253.733 73.9059 253.591 73.6907C253.45 73.4734 253.38 73.2028 253.38 72.8789C253.38 72.6062 253.43 72.3771 253.53 72.1918C253.63 72.0064 253.766 71.8572 253.939 71.7443C254.112 71.6314 254.308 71.5462 254.527 71.4886C254.749 71.4311 254.981 71.3906 255.224 71.3672C255.509 71.3374 255.739 71.3097 255.914 71.2841C256.089 71.2564 256.216 71.2159 256.294 71.1626C256.373 71.1094 256.413 71.0305 256.413 70.9261V70.907C256.413 70.7045 256.349 70.5479 256.221 70.4371C256.095 70.3263 255.916 70.271 255.684 70.271C255.439 70.271 255.244 70.3253 255.099 70.4339C254.954 70.5405 254.858 70.6747 254.811 70.8366L253.552 70.7344C253.616 70.4361 253.742 70.1783 253.929 69.9609C254.117 69.7415 254.359 69.5732 254.655 69.456C254.953 69.3366 255.298 69.277 255.69 69.277C255.963 69.277 256.224 69.3089 256.473 69.3729C256.725 69.4368 256.947 69.5359 257.141 69.6701C257.337 69.8043 257.492 69.9769 257.605 70.1879C257.718 70.3967 257.774 70.647 257.774 70.9389V74.25H256.483V73.5692H256.445C256.366 73.7227 256.26 73.858 256.128 73.9751C255.996 74.0902 255.837 74.1808 255.652 74.2468C255.467 74.3107 255.252 74.3427 255.01 74.3427ZM255.4 73.4031C255.6 73.4031 255.777 73.3636 255.93 73.2848C256.083 73.2038 256.204 73.0952 256.291 72.9588C256.379 72.8224 256.422 72.668 256.422 72.4954V71.9744C256.38 72.0021 256.321 72.0277 256.246 72.0511C256.174 72.0724 256.092 72.0927 256 72.1119C255.909 72.1289 255.817 72.1449 255.725 72.1598C255.634 72.1726 255.551 72.1843 255.476 72.195C255.316 72.2184 255.177 72.2557 255.058 72.3068C254.938 72.358 254.846 72.4272 254.779 72.5146C254.713 72.5998 254.68 72.7063 254.68 72.8342C254.68 73.0195 254.748 73.1612 254.882 73.2592C255.018 73.3551 255.191 73.4031 255.4 73.4031ZM258.83 76.0909V69.3409H260.173V70.1655H260.233C260.293 70.0334 260.379 69.8991 260.492 69.7628C260.607 69.6243 260.757 69.5092 260.94 69.4176C261.125 69.3239 261.355 69.277 261.63 69.277C261.988 69.277 262.318 69.3707 262.621 69.5582C262.923 69.7436 263.165 70.0238 263.346 70.3988C263.528 70.7717 263.618 71.2393 263.618 71.8018C263.618 72.3494 263.53 72.8118 263.353 73.1889C263.178 73.5639 262.939 73.8484 262.637 74.0423C262.336 74.234 262 74.3299 261.627 74.3299C261.363 74.3299 261.138 74.2862 260.953 74.1989C260.769 74.1115 260.619 74.0018 260.502 73.8697C260.385 73.7354 260.295 73.6001 260.233 73.4638H260.192V76.0909H258.83ZM260.163 71.7955C260.163 72.0874 260.204 72.342 260.285 72.5593C260.366 72.7766 260.483 72.946 260.636 73.0675C260.79 73.1868 260.976 73.2464 261.195 73.2464C261.417 73.2464 261.605 73.1857 261.758 73.0643C261.911 72.9407 262.028 72.7702 262.106 72.5529C262.187 72.3335 262.228 72.081 262.228 71.7955C262.228 71.5121 262.188 71.2628 262.11 71.0476C262.031 70.8324 261.915 70.6641 261.761 70.5426C261.608 70.4212 261.419 70.3604 261.195 70.3604C260.974 70.3604 260.786 70.419 260.633 70.5362C260.482 70.6534 260.366 70.8196 260.285 71.0348C260.204 71.25 260.163 71.5036 260.163 71.7955ZM265.887 71.4119V74.25H264.526V67.7045H265.849V70.207H265.906C266.017 69.9173 266.196 69.6903 266.443 69.5263C266.691 69.3601 267.001 69.277 267.373 69.277C267.714 69.277 268.012 69.3516 268.265 69.5007C268.521 69.6477 268.719 69.8597 268.86 70.1367C269.002 70.4116 269.073 70.7408 269.07 71.1243V74.25H267.709V71.3672C267.711 71.0646 267.634 70.8292 267.479 70.6609C267.325 70.4925 267.11 70.4084 266.833 70.4084C266.648 70.4084 266.484 70.4478 266.341 70.5266C266.2 70.6055 266.09 70.7205 266.009 70.8718C265.93 71.021 265.889 71.201 265.887 71.4119ZM272.638 71.9744H273.814L274.405 72.7351L274.987 73.4126L276.083 74.7869H274.792L274.038 73.8601L273.651 73.3104L272.638 71.9744ZM276.182 70.9773C276.182 71.6911 276.047 72.2983 275.777 72.799C275.508 73.2997 275.142 73.6822 274.677 73.9464C274.215 74.2085 273.695 74.3395 273.117 74.3395C272.536 74.3395 272.014 74.2074 271.551 73.9432C271.089 73.679 270.724 73.2965 270.455 72.7958C270.187 72.2951 270.052 71.6889 270.052 70.9773C270.052 70.2635 270.187 69.6562 270.455 69.1555C270.724 68.6548 271.089 68.2734 271.551 68.0114C272.014 67.7472 272.536 67.6151 273.117 67.6151C273.695 67.6151 274.215 67.7472 274.677 68.0114C275.142 68.2734 275.508 68.6548 275.777 69.1555C276.047 69.6562 276.182 70.2635 276.182 70.9773ZM274.779 70.9773C274.779 70.5149 274.71 70.125 274.572 69.8075C274.435 69.4901 274.242 69.2493 273.993 69.0852C273.744 68.9212 273.452 68.8391 273.117 68.8391C272.783 68.8391 272.491 68.9212 272.242 69.0852C271.992 69.2493 271.799 69.4901 271.66 69.8075C271.524 70.125 271.456 70.5149 271.456 70.9773C271.456 71.4396 271.524 71.8295 271.66 72.147C271.799 72.4645 271.992 72.7053 272.242 72.8693C272.491 73.0334 272.783 73.1154 273.117 73.1154C273.452 73.1154 273.744 73.0334 273.993 72.8693C274.242 72.7053 274.435 72.4645 274.572 72.147C274.71 71.8295 274.779 71.4396 274.779 70.9773ZM277.208 74.25V67.7045H278.591V73.109H281.398V74.25H277.208Z" fill="white"/>
<rect width="375" height="101.25" rx="26.25" fill="white"/>
<circle cx="56.25" cy="50.25" r="30" fill="#C4C4C4"/>
<rect x="42.75" y="54" width="27" height="15" rx="3.75" fill="white"/>
<circle cx="55.875" cy="41.625" r="9.375" fill="white"/>
<path d="M99.8153 38H95.9482V27.0909H99.8473C100.945 27.0909 101.889 27.3093 102.681 27.7461C103.473 28.1793 104.082 28.8026 104.508 29.6158C104.938 30.429 105.153 31.402 105.153 32.5348C105.153 33.6712 104.938 34.6477 104.508 35.4645C104.082 36.2812 103.469 36.908 102.67 37.3448C101.875 37.7816 100.923 38 99.8153 38ZM98.2546 36.0238H99.7195C100.401 36.0238 100.975 35.9031 101.44 35.6616C101.909 35.4165 102.26 35.0384 102.495 34.527C102.733 34.0121 102.852 33.348 102.852 32.5348C102.852 31.7287 102.733 31.07 102.495 30.5586C102.26 30.0472 101.911 29.6708 101.445 29.4293C100.98 29.1879 100.407 29.0671 99.7248 29.0671H98.2546V36.0238ZM109.152 38.1545C108.63 38.1545 108.165 38.0639 107.756 37.8828C107.348 37.6982 107.025 37.4265 106.787 37.0678C106.552 36.7056 106.435 36.2546 106.435 35.7148C106.435 35.2603 106.519 34.8786 106.685 34.5696C106.852 34.2607 107.08 34.0121 107.367 33.8239C107.655 33.6357 107.982 33.4936 108.347 33.3977C108.717 33.3018 109.104 33.2344 109.509 33.1953C109.984 33.1456 110.368 33.0994 110.659 33.0568C110.95 33.0107 111.162 32.9432 111.293 32.8544C111.424 32.7656 111.49 32.6342 111.49 32.4602V32.4283C111.49 32.0909 111.384 31.8299 111.171 31.6452C110.961 31.4606 110.663 31.3683 110.276 31.3683C109.867 31.3683 109.542 31.4588 109.301 31.6399C109.059 31.8175 108.9 32.0412 108.821 32.3111L106.723 32.1406C106.829 31.6435 107.039 31.2138 107.351 30.8516C107.664 30.4858 108.067 30.2053 108.56 30.0099C109.058 29.8111 109.633 29.7116 110.286 29.7116C110.741 29.7116 111.176 29.7649 111.591 29.8714C112.01 29.978 112.381 30.1431 112.705 30.3668C113.031 30.5906 113.289 30.8782 113.477 31.2298C113.665 31.5778 113.759 31.995 113.759 32.4815V38H111.607V36.8654H111.543C111.412 37.1211 111.236 37.3466 111.016 37.5419C110.796 37.7337 110.531 37.8846 110.222 37.9947C109.913 38.1012 109.557 38.1545 109.152 38.1545ZM109.802 36.5884C110.135 36.5884 110.43 36.5227 110.686 36.3913C110.941 36.2564 111.142 36.0753 111.288 35.848C111.433 35.6207 111.506 35.3633 111.506 35.0756V34.2074C111.435 34.2536 111.337 34.2962 111.213 34.3352C111.092 34.3707 110.956 34.4045 110.803 34.4364C110.65 34.4648 110.498 34.4915 110.345 34.5163C110.192 34.5376 110.054 34.5572 109.929 34.5749C109.663 34.614 109.43 34.6761 109.232 34.7614C109.033 34.8466 108.878 34.962 108.768 35.1076C108.658 35.2496 108.603 35.4272 108.603 35.6403C108.603 35.9492 108.715 36.1854 108.939 36.3487C109.166 36.5085 109.454 36.5884 109.802 36.5884ZM115.52 38V29.8182H117.72V31.2457H117.805C117.954 30.7379 118.204 30.3544 118.556 30.0952C118.908 29.8324 119.312 29.701 119.771 29.701C119.884 29.701 120.007 29.7081 120.138 29.7223C120.269 29.7365 120.385 29.756 120.484 29.7809V31.7944C120.378 31.7624 120.23 31.734 120.042 31.7092C119.854 31.6843 119.682 31.6719 119.525 31.6719C119.192 31.6719 118.893 31.7447 118.631 31.8903C118.371 32.0323 118.165 32.2312 118.013 32.4869C117.864 32.7425 117.789 33.0373 117.789 33.3711V38H115.52ZM121.657 38V29.8182H123.857V31.2457H123.943C124.092 30.7379 124.342 30.3544 124.694 30.0952C125.045 29.8324 125.45 29.701 125.908 29.701C126.022 29.701 126.144 29.7081 126.276 29.7223C126.407 29.7365 126.523 29.756 126.622 29.7809V31.7944C126.515 31.7624 126.368 31.734 126.18 31.7092C125.992 31.6843 125.819 31.6719 125.663 31.6719C125.329 31.6719 125.031 31.7447 124.768 31.8903C124.509 32.0323 124.303 32.2312 124.15 32.4869C124.001 32.7425 123.927 33.0373 123.927 33.3711V38H121.657ZM131.143 38.1598C130.301 38.1598 129.577 37.9893 128.97 37.6484C128.366 37.304 127.901 36.8175 127.574 36.1889C127.247 35.5568 127.084 34.8093 127.084 33.9464C127.084 33.1048 127.247 32.3661 127.574 31.7305C127.901 31.0948 128.361 30.5994 128.954 30.2443C129.55 29.8892 130.25 29.7116 131.052 29.7116C131.592 29.7116 132.095 29.7987 132.56 29.9727C133.029 30.1431 133.437 30.4006 133.785 30.745C134.137 31.0895 134.41 31.5227 134.605 32.0447C134.801 32.5632 134.898 33.1705 134.898 33.8665V34.4897H127.99V33.0835H132.762C132.762 32.7567 132.691 32.4673 132.549 32.2152C132.407 31.9631 132.21 31.766 131.958 31.6239C131.709 31.4783 131.42 31.4055 131.09 31.4055C130.745 31.4055 130.44 31.4854 130.174 31.6452C129.911 31.8015 129.705 32.0128 129.556 32.2791C129.407 32.5419 129.33 32.8349 129.327 33.158V34.495C129.327 34.8999 129.401 35.2496 129.55 35.5444C129.703 35.8391 129.918 36.0664 130.195 36.2262C130.472 36.386 130.8 36.4659 131.18 36.4659C131.432 36.4659 131.663 36.4304 131.873 36.3594C132.082 36.2884 132.262 36.1818 132.411 36.0398C132.56 35.8977 132.674 35.7237 132.752 35.5178L134.85 35.6562C134.744 36.1605 134.525 36.6009 134.195 36.9773C133.869 37.3501 133.446 37.6413 132.927 37.8509C132.413 38.0568 131.818 38.1598 131.143 38.1598ZM138.648 33.2699V38H136.379V29.8182H138.542V31.2617H138.638C138.819 30.7859 139.122 30.4094 139.549 30.1325C139.975 29.8519 140.491 29.7116 141.099 29.7116C141.667 29.7116 142.162 29.8359 142.585 30.0845C143.007 30.3331 143.336 30.6882 143.57 31.1499C143.805 31.608 143.922 32.1548 143.922 32.7905V38H141.653V33.1953C141.656 32.6946 141.528 32.304 141.269 32.0234C141.01 31.7393 140.653 31.5973 140.198 31.5973C139.893 31.5973 139.623 31.663 139.389 31.7944C139.158 31.9258 138.977 32.1175 138.845 32.3697C138.718 32.6183 138.652 32.9183 138.648 33.2699ZM149.225 38V27.0909H153.592C154.395 27.0909 155.064 27.2099 155.601 27.4478C156.137 27.6857 156.54 28.016 156.81 28.4386C157.08 28.8576 157.215 29.3406 157.215 29.8874C157.215 30.3136 157.129 30.6882 156.959 31.0114C156.788 31.331 156.554 31.5937 156.256 31.7997C155.961 32.0021 155.624 32.146 155.244 32.2312V32.3377C155.659 32.3555 156.048 32.4727 156.41 32.6893C156.776 32.9059 157.073 33.2095 157.3 33.6001C157.527 33.9872 157.641 34.4489 157.641 34.9851C157.641 35.5639 157.497 36.0806 157.209 36.5352C156.925 36.9862 156.504 37.343 155.947 37.6058C155.389 37.8686 154.702 38 153.885 38H149.225ZM151.531 36.1143H153.411C154.054 36.1143 154.523 35.9918 154.818 35.7468C155.112 35.4982 155.26 35.168 155.26 34.756C155.26 34.4542 155.187 34.1879 155.041 33.957C154.896 33.7262 154.688 33.5451 154.418 33.4137C154.152 33.2823 153.834 33.2166 153.465 33.2166H151.531V36.1143ZM151.531 31.6559H153.241C153.557 31.6559 153.837 31.6009 154.082 31.4908C154.331 31.3771 154.526 31.2173 154.668 31.0114C154.814 30.8054 154.887 30.5586 154.887 30.271C154.887 29.8768 154.747 29.5589 154.466 29.3175C154.189 29.076 153.795 28.9553 153.283 28.9553H151.531V31.6559ZM161.432 38.1545C160.91 38.1545 160.445 38.0639 160.036 37.8828C159.628 37.6982 159.305 37.4265 159.067 37.0678C158.833 36.7056 158.715 36.2546 158.715 35.7148C158.715 35.2603 158.799 34.8786 158.966 34.5696C159.133 34.2607 159.36 34.0121 159.648 33.8239C159.935 33.6357 160.262 33.4936 160.628 33.3977C160.997 33.3018 161.384 33.2344 161.789 33.1953C162.265 33.1456 162.648 33.0994 162.939 33.0568C163.231 33.0107 163.442 32.9432 163.573 32.8544C163.705 32.7656 163.77 32.6342 163.77 32.4602V32.4283C163.77 32.0909 163.664 31.8299 163.451 31.6452C163.241 31.4606 162.943 31.3683 162.556 31.3683C162.148 31.3683 161.823 31.4588 161.581 31.6399C161.34 31.8175 161.18 32.0412 161.102 32.3111L159.003 32.1406C159.11 31.6435 159.319 31.2138 159.632 30.8516C159.944 30.4858 160.347 30.2053 160.841 30.0099C161.338 29.8111 161.913 29.7116 162.567 29.7116C163.021 29.7116 163.456 29.7649 163.872 29.8714C164.291 29.978 164.662 30.1431 164.985 30.3668C165.312 30.5906 165.569 30.8782 165.757 31.2298C165.945 31.5778 166.04 31.995 166.04 32.4815V38H163.888V36.8654H163.824C163.692 37.1211 163.517 37.3466 163.296 37.5419C163.076 37.7337 162.812 37.8846 162.503 37.9947C162.194 38.1012 161.837 38.1545 161.432 38.1545ZM162.082 36.5884C162.416 36.5884 162.71 36.5227 162.966 36.3913C163.222 36.2564 163.422 36.0753 163.568 35.848C163.714 35.6207 163.786 35.3633 163.786 35.0756V34.2074C163.715 34.2536 163.618 34.2962 163.493 34.3352C163.373 34.3707 163.236 34.4045 163.083 34.4364C162.931 34.4648 162.778 34.4915 162.625 34.5163C162.472 34.5376 162.334 34.5572 162.21 34.5749C161.943 34.614 161.711 34.6761 161.512 34.7614C161.313 34.8466 161.159 34.962 161.048 35.1076C160.938 35.2496 160.883 35.4272 160.883 35.6403C160.883 35.9492 160.995 36.1854 161.219 36.3487C161.446 36.5085 161.734 36.5884 162.082 36.5884ZM170.069 27.0909V38H167.8V27.0909H170.069ZM174.902 38.1332C174.28 38.1332 173.718 37.9734 173.213 37.6538C172.713 37.3306 172.315 36.8565 172.02 36.2315C171.729 35.603 171.583 34.8324 171.583 33.9197C171.583 32.9822 171.734 32.2028 172.036 31.5813C172.338 30.9563 172.739 30.4893 173.24 30.1804C173.744 29.8679 174.296 29.7116 174.897 29.7116C175.355 29.7116 175.736 29.7898 176.042 29.946C176.351 30.0987 176.599 30.2905 176.788 30.5213C176.979 30.7486 177.125 30.9723 177.224 31.1925H177.294V27.0909H179.557V38H177.32V36.6896H177.224C177.118 36.9169 176.967 37.1424 176.772 37.3661C176.58 37.5863 176.329 37.7692 176.021 37.9148C175.715 38.0604 175.342 38.1332 174.902 38.1332ZM175.621 36.3274C175.987 36.3274 176.296 36.228 176.548 36.0291C176.804 35.8267 176.999 35.5444 177.134 35.1822C177.272 34.82 177.342 34.3956 177.342 33.9091C177.342 33.4226 177.274 33 177.139 32.6413C177.004 32.2827 176.809 32.0057 176.553 31.8104C176.297 31.6151 175.987 31.5174 175.621 31.5174C175.248 31.5174 174.934 31.6186 174.678 31.821C174.422 32.0234 174.229 32.304 174.098 32.6626C173.966 33.0213 173.9 33.4368 173.9 33.9091C173.9 34.3849 173.966 34.8058 174.098 35.1715C174.233 35.5337 174.426 35.8178 174.678 36.0238C174.934 36.2262 175.248 36.3274 175.621 36.3274ZM183.037 38L180.811 29.8182H183.106L184.374 35.3153H184.449L185.77 29.8182H188.023L189.365 35.2834H189.434L190.681 29.8182H192.971L190.75 38H188.348L186.942 32.8544H186.84L185.434 38H183.037ZM194.182 38V29.8182H196.451V38H194.182ZM195.322 28.7635C194.984 28.7635 194.695 28.6516 194.454 28.4279C194.216 28.2006 194.097 27.929 194.097 27.6129C194.097 27.3004 194.216 27.0323 194.454 26.8086C194.695 26.5813 194.984 26.4677 195.322 26.4677C195.659 26.4677 195.947 26.5813 196.185 26.8086C196.426 27.0323 196.547 27.3004 196.547 27.6129C196.547 27.929 196.426 28.2006 196.185 28.4279C195.947 28.6516 195.659 28.7635 195.322 28.7635ZM200.538 33.2699V38H198.269V29.8182H200.431V31.2617H200.527C200.708 30.7859 201.012 30.4094 201.438 30.1325C201.864 29.8519 202.381 29.7116 202.988 29.7116C203.556 29.7116 204.052 29.8359 204.474 30.0845C204.897 30.3331 205.225 30.6882 205.46 31.1499C205.694 31.608 205.811 32.1548 205.811 32.7905V38H203.542V33.1953C203.546 32.6946 203.418 32.304 203.159 32.0234C202.9 31.7393 202.543 31.5973 202.088 31.5973C201.783 31.5973 201.513 31.663 201.278 31.7944C201.048 31.9258 200.866 32.1175 200.735 32.3697C200.607 32.6183 200.542 32.9183 200.538 33.2699Z" fill="black"/>
<path d="M100.493 48.7827C100.459 48.4389 100.313 48.1719 100.054 47.9815C99.7955 47.7912 99.4446 47.696 99.0014 47.696C98.7003 47.696 98.446 47.7386 98.2386 47.8239C98.0313 47.9062 97.8722 48.0213 97.7614 48.169C97.6534 48.3168 97.5994 48.4844 97.5994 48.6719C97.5938 48.8281 97.6264 48.9645 97.6974 49.081C97.7713 49.1974 97.8722 49.2983 98 49.3835C98.1278 49.4659 98.2756 49.5384 98.4432 49.6009C98.6108 49.6605 98.7898 49.7116 98.9801 49.7543L99.7642 49.9418C100.145 50.027 100.494 50.1406 100.812 50.2827C101.131 50.4247 101.406 50.5994 101.639 50.8068C101.872 51.0142 102.053 51.2585 102.18 51.5398C102.311 51.821 102.378 52.1435 102.381 52.5071C102.378 53.0412 102.241 53.5043 101.972 53.8963C101.705 54.2855 101.318 54.5881 100.812 54.804C100.31 55.017 99.7031 55.1236 98.9929 55.1236C98.2884 55.1236 97.6747 55.0156 97.152 54.7997C96.6321 54.5838 96.2259 54.2642 95.9332 53.8409C95.6435 53.4148 95.4915 52.8878 95.4773 52.2599H97.2628C97.2827 52.5526 97.3665 52.7969 97.5142 52.9929C97.6648 53.1861 97.8651 53.3324 98.1151 53.4318C98.3679 53.5284 98.6534 53.5767 98.9716 53.5767C99.2841 53.5767 99.5554 53.5312 99.7855 53.4403C100.018 53.3494 100.199 53.223 100.327 53.0611C100.455 52.8991 100.518 52.7131 100.518 52.5028C100.518 52.3068 100.46 52.142 100.344 52.0085C100.23 51.875 100.063 51.7614 99.8409 51.6676C99.6222 51.5739 99.3537 51.4886 99.0355 51.4119L98.0852 51.1733C97.3494 50.9943 96.7685 50.7145 96.3423 50.3338C95.9162 49.9531 95.7045 49.4403 95.7074 48.7955C95.7045 48.267 95.8452 47.8054 96.1293 47.4105C96.4162 47.0156 96.8097 46.7074 97.3097 46.4858C97.8097 46.2642 98.3778 46.1534 99.0142 46.1534C99.6619 46.1534 100.227 46.2642 100.71 46.4858C101.196 46.7074 101.574 47.0156 101.844 47.4105C102.114 47.8054 102.253 48.2628 102.261 48.7827H100.493ZM103.588 55V48.4545H105.348V49.5966H105.416C105.535 49.1903 105.735 48.8835 106.017 48.6761C106.298 48.4659 106.622 48.3608 106.988 48.3608C107.079 48.3608 107.177 48.3665 107.282 48.3778C107.387 48.3892 107.48 48.4048 107.559 48.4247V50.0355C107.474 50.0099 107.356 49.9872 107.206 49.9673C107.055 49.9474 106.917 49.9375 106.792 49.9375C106.525 49.9375 106.287 49.9957 106.076 50.1122C105.869 50.2259 105.704 50.3849 105.582 50.5895C105.463 50.794 105.403 51.0298 105.403 51.2969V55H103.588ZM111.309 55V46.2727H117.088V47.794H113.154V49.8736H116.704V51.3949H113.154V55H111.309ZM122.082 52.2131V48.4545H123.897V55H122.154V53.8111H122.086C121.939 54.1946 121.693 54.5028 121.349 54.7358C121.008 54.9687 120.592 55.0852 120.1 55.0852C119.663 55.0852 119.278 54.9858 118.946 54.7869C118.613 54.5881 118.353 54.3054 118.166 53.9389C117.981 53.5724 117.887 53.1335 117.885 52.6222V48.4545H119.7V52.2983C119.703 52.6847 119.806 52.9901 120.011 53.2145C120.216 53.4389 120.49 53.5511 120.833 53.5511C121.052 53.5511 121.257 53.5014 121.447 53.402C121.637 53.2997 121.791 53.1491 121.907 52.9503C122.027 52.7514 122.085 52.5057 122.082 52.2131ZM127.165 46.2727V55H125.349V46.2727H127.165ZM130.434 46.2727V55H128.619V46.2727H130.434ZM137.335 50.321L135.673 50.4233C135.644 50.2812 135.583 50.1534 135.489 50.0398C135.396 49.9233 135.272 49.831 135.119 49.7628C134.968 49.6918 134.788 49.6562 134.577 49.6562C134.296 49.6562 134.059 49.7159 133.866 49.8352C133.673 49.9517 133.576 50.108 133.576 50.304C133.576 50.4602 133.638 50.5923 133.763 50.7003C133.888 50.8082 134.103 50.8949 134.407 50.9602L135.592 51.1989C136.228 51.3295 136.702 51.5398 137.015 51.8295C137.327 52.1193 137.484 52.5 137.484 52.9716C137.484 53.4006 137.357 53.777 137.104 54.1009C136.854 54.4247 136.511 54.6776 136.073 54.8594C135.638 55.0384 135.137 55.1278 134.569 55.1278C133.702 55.1278 133.012 54.9474 132.498 54.5866C131.987 54.223 131.687 53.7287 131.599 53.1037L133.384 53.0099C133.438 53.2741 133.569 53.4759 133.776 53.6151C133.984 53.7514 134.249 53.8196 134.573 53.8196C134.891 53.8196 135.147 53.7585 135.34 53.6364C135.536 53.5114 135.636 53.3509 135.638 53.1548C135.636 52.9901 135.566 52.8551 135.43 52.75C135.293 52.642 135.083 52.5597 134.799 52.5028L133.665 52.277C133.026 52.1491 132.55 51.9276 132.238 51.6122C131.928 51.2969 131.773 50.8949 131.773 50.4062C131.773 49.9858 131.887 49.6236 132.114 49.3196C132.344 49.0156 132.667 48.7812 133.082 48.6165C133.499 48.4517 133.988 48.3693 134.548 48.3693C135.374 48.3693 136.025 48.544 136.499 48.8935C136.977 49.2429 137.255 49.7187 137.335 50.321ZM142.108 48.4545V49.8182H138.167V48.4545H142.108ZM139.061 46.8864H140.877V52.9886C140.877 53.1562 140.902 53.2869 140.953 53.3807C141.005 53.4716 141.076 53.5355 141.167 53.5724C141.26 53.6094 141.368 53.6278 141.49 53.6278C141.576 53.6278 141.661 53.6207 141.746 53.6065C141.831 53.5895 141.897 53.5767 141.942 53.5682L142.228 54.919C142.137 54.9474 142.009 54.9801 141.844 55.017C141.679 55.0568 141.479 55.081 141.243 55.0895C140.806 55.1065 140.422 55.0483 140.093 54.9148C139.766 54.7812 139.512 54.5739 139.33 54.2926C139.148 54.0114 139.059 53.6562 139.061 53.2273V46.8864ZM145.157 55.1236C144.74 55.1236 144.368 55.0511 144.041 54.9062C143.714 54.7585 143.456 54.5412 143.265 54.2543C143.078 53.9645 142.984 53.6037 142.984 53.1719C142.984 52.8082 143.051 52.5028 143.184 52.2557C143.318 52.0085 143.5 51.8097 143.73 51.6591C143.96 51.5085 144.221 51.3949 144.514 51.3182C144.809 51.2415 145.119 51.1875 145.443 51.1562C145.824 51.1165 146.13 51.0795 146.363 51.0455C146.596 51.0085 146.765 50.9545 146.87 50.8835C146.975 50.8125 147.028 50.7074 147.028 50.5682V50.5426C147.028 50.2727 146.943 50.0639 146.772 49.9162C146.605 49.7685 146.366 49.6946 146.056 49.6946C145.73 49.6946 145.47 49.767 145.277 49.9119C145.083 50.054 144.956 50.233 144.893 50.4489L143.214 50.3125C143.299 49.9148 143.467 49.571 143.717 49.2812C143.967 48.9886 144.289 48.7642 144.684 48.608C145.082 48.4489 145.542 48.3693 146.065 48.3693C146.429 48.3693 146.777 48.4119 147.109 48.4972C147.444 48.5824 147.741 48.7145 148 48.8935C148.261 49.0724 148.467 49.3026 148.618 49.5838C148.768 49.8622 148.843 50.196 148.843 50.5852V55H147.122V54.0923H147.071C146.966 54.2969 146.825 54.4773 146.649 54.6335C146.473 54.7869 146.261 54.9077 146.014 54.9957C145.767 55.081 145.481 55.1236 145.157 55.1236ZM145.677 53.8707C145.944 53.8707 146.18 53.8182 146.385 53.7131C146.589 53.6051 146.75 53.4602 146.866 53.2784C146.983 53.0966 147.041 52.8906 147.041 52.6605V51.9659C146.984 52.0028 146.906 52.0369 146.806 52.0682C146.71 52.0966 146.6 52.1236 146.478 52.1491C146.356 52.1719 146.234 52.1932 146.112 52.2131C145.99 52.2301 145.879 52.2457 145.779 52.2599C145.566 52.2912 145.38 52.3409 145.221 52.4091C145.062 52.4773 144.939 52.5696 144.85 52.6861C144.762 52.7997 144.718 52.9418 144.718 53.1122C144.718 53.3594 144.808 53.5483 144.987 53.679C145.169 53.8068 145.399 53.8707 145.677 53.8707ZM153.209 55.1278C152.539 55.1278 151.962 54.9858 151.479 54.7017C150.999 54.4148 150.63 54.017 150.371 53.5085C150.115 53 149.988 52.4148 149.988 51.7528C149.988 51.0824 150.117 50.4943 150.375 49.9886C150.637 49.4801 151.007 49.0838 151.488 48.7997C151.968 48.5128 152.539 48.3693 153.201 48.3693C153.772 48.3693 154.272 48.473 154.701 48.6804C155.13 48.8878 155.469 49.179 155.719 49.554C155.969 49.929 156.107 50.3693 156.132 50.875H154.419C154.371 50.5483 154.243 50.2855 154.036 50.0866C153.831 49.8849 153.563 49.7841 153.23 49.7841C152.949 49.7841 152.703 49.8608 152.493 50.0142C152.286 50.1648 152.124 50.3849 152.007 50.6747C151.891 50.9645 151.833 51.3153 151.833 51.7273C151.833 52.1449 151.89 52.5 152.003 52.7926C152.12 53.0852 152.283 53.3082 152.493 53.4616C152.703 53.6151 152.949 53.6918 153.23 53.6918C153.438 53.6918 153.624 53.6491 153.789 53.5639C153.956 53.4787 154.094 53.3551 154.202 53.1932C154.313 53.0284 154.385 52.831 154.419 52.6009H156.132C156.104 53.1009 155.968 53.5412 155.723 53.9219C155.482 54.2997 155.148 54.5952 154.722 54.8082C154.296 55.0213 153.792 55.1278 153.209 55.1278ZM158.94 53.1165L158.944 50.9389H159.208L161.305 48.4545H163.388L160.572 51.7443H160.141L158.94 53.1165ZM157.295 55V46.2727H159.11V55H157.295ZM161.386 55L159.46 52.1491L160.67 50.8665L163.512 55H161.386ZM167.091 55V46.2727H172.971V47.794H168.936V49.8736H172.669V51.3949H168.936V53.4787H172.988V55H167.091ZM176.219 51.2159V55H174.404V48.4545H176.134V49.6094H176.211C176.356 49.2287 176.599 48.9276 176.94 48.706C177.281 48.4815 177.694 48.3693 178.18 48.3693C178.634 48.3693 179.031 48.4688 179.369 48.6676C179.707 48.8665 179.969 49.1506 180.157 49.5199C180.344 49.8864 180.438 50.3239 180.438 50.8324V55H178.623V51.1562C178.626 50.7557 178.523 50.4432 178.316 50.2188C178.109 49.9915 177.823 49.8778 177.46 49.8778C177.215 49.8778 176.999 49.9304 176.812 50.0355C176.627 50.1406 176.482 50.294 176.377 50.4957C176.275 50.6946 176.222 50.9347 176.219 51.2159ZM184.818 57.5909C184.23 57.5909 183.725 57.5099 183.305 57.348C182.887 57.1889 182.555 56.9716 182.308 56.696C182.061 56.4205 181.9 56.1108 181.826 55.767L183.505 55.5412C183.556 55.6719 183.637 55.794 183.748 55.9077C183.859 56.0213 184.005 56.1122 184.187 56.1804C184.372 56.2514 184.596 56.2869 184.86 56.2869C185.255 56.2869 185.581 56.1903 185.836 55.9972C186.095 55.8068 186.224 55.4872 186.224 55.0384V53.8409H186.147C186.068 54.0227 185.949 54.1946 185.789 54.3565C185.63 54.5185 185.426 54.6506 185.176 54.7528C184.926 54.8551 184.627 54.9062 184.281 54.9062C183.789 54.9062 183.342 54.7926 182.939 54.5653C182.538 54.3352 182.218 53.9844 181.98 53.5128C181.744 53.0384 181.626 52.4389 181.626 51.7145C181.626 50.973 181.747 50.3537 181.988 49.8565C182.23 49.3594 182.551 48.9872 182.951 48.7401C183.355 48.4929 183.797 48.3693 184.277 48.3693C184.643 48.3693 184.95 48.4318 185.197 48.5568C185.444 48.679 185.643 48.8324 185.794 49.017C185.947 49.1989 186.065 49.3778 186.147 49.554H186.216V48.4545H188.018V55.0639C188.018 55.6207 187.882 56.0866 187.609 56.4616C187.336 56.8366 186.958 57.1179 186.475 57.3054C185.995 57.4957 185.443 57.5909 184.818 57.5909ZM184.856 53.5426C185.149 53.5426 185.396 53.4702 185.598 53.3253C185.802 53.1776 185.958 52.9673 186.066 52.6946C186.177 52.419 186.233 52.0895 186.233 51.706C186.233 51.3224 186.179 50.9901 186.071 50.7088C185.963 50.4247 185.806 50.2045 185.602 50.0483C185.397 49.892 185.149 49.8139 184.856 49.8139C184.558 49.8139 184.306 49.8949 184.102 50.0568C183.897 50.2159 183.743 50.4375 183.637 50.7216C183.532 51.0057 183.48 51.3338 183.48 51.706C183.48 52.0838 183.532 52.4105 183.637 52.6861C183.745 52.9588 183.9 53.1705 184.102 53.321C184.306 53.4687 184.558 53.5426 184.856 53.5426ZM189.463 55V48.4545H191.278V55H189.463ZM190.375 47.6108C190.105 47.6108 189.873 47.5213 189.68 47.3423C189.49 47.1605 189.395 46.9432 189.395 46.6903C189.395 46.4403 189.49 46.2259 189.68 46.0469C189.873 45.8651 190.105 45.7741 190.375 45.7741C190.645 45.7741 190.875 45.8651 191.065 46.0469C191.258 46.2259 191.355 46.4403 191.355 46.6903C191.355 46.9432 191.258 47.1605 191.065 47.3423C190.875 47.5213 190.645 47.6108 190.375 47.6108ZM194.548 51.2159V55H192.732V48.4545H194.462V49.6094H194.539C194.684 49.2287 194.927 48.9276 195.268 48.706C195.609 48.4815 196.022 48.3693 196.508 48.3693C196.962 48.3693 197.359 48.4688 197.697 48.6676C198.035 48.8665 198.298 49.1506 198.485 49.5199C198.673 49.8864 198.766 50.3239 198.766 50.8324V55H196.951V51.1562C196.954 50.7557 196.852 50.4432 196.644 50.2188C196.437 49.9915 196.151 49.8778 195.788 49.8778C195.543 49.8778 195.327 49.9304 195.14 50.0355C194.955 50.1406 194.81 50.294 194.705 50.4957C194.603 50.6946 194.55 50.9347 194.548 51.2159ZM203.18 55.1278C202.507 55.1278 201.927 54.9915 201.441 54.7188C200.958 54.4432 200.586 54.054 200.325 53.5511C200.064 53.0455 199.933 52.4474 199.933 51.7571C199.933 51.0838 200.064 50.4929 200.325 49.9844C200.586 49.4759 200.954 49.0795 201.429 48.7955C201.906 48.5114 202.466 48.3693 203.108 48.3693C203.539 48.3693 203.941 48.4389 204.314 48.5781C204.689 48.7145 205.015 48.9205 205.294 49.196C205.575 49.4716 205.794 49.8182 205.95 50.2358C206.106 50.6506 206.184 51.1364 206.184 51.6932V52.1918H200.657V51.0668H204.475C204.475 50.8054 204.419 50.5739 204.305 50.3722C204.191 50.1705 204.034 50.0128 203.832 49.8991C203.633 49.7827 203.402 49.7244 203.137 49.7244C202.862 49.7244 202.618 49.7884 202.404 49.9162C202.194 50.0412 202.029 50.2102 201.91 50.4233C201.791 50.6335 201.73 50.8679 201.727 51.1264V52.196C201.727 52.5199 201.787 52.7997 201.906 53.0355C202.028 53.2713 202.2 53.4531 202.422 53.581C202.643 53.7088 202.906 53.7727 203.21 53.7727C203.412 53.7727 203.596 53.7443 203.764 53.6875C203.931 53.6307 204.075 53.5455 204.194 53.4318C204.314 53.3182 204.404 53.179 204.467 53.0142L206.146 53.125C206.061 53.5284 205.886 53.8807 205.622 54.1818C205.36 54.4801 205.022 54.7131 204.608 54.8807C204.196 55.0455 203.72 55.1278 203.18 55.1278ZM210.352 55.1278C209.679 55.1278 209.099 54.9915 208.613 54.7188C208.13 54.4432 207.758 54.054 207.497 53.5511C207.235 53.0455 207.105 52.4474 207.105 51.7571C207.105 51.0838 207.235 50.4929 207.497 49.9844C207.758 49.4759 208.126 49.0795 208.6 48.7955C209.078 48.5114 209.637 48.3693 210.279 48.3693C210.711 48.3693 211.113 48.4389 211.485 48.5781C211.86 48.7145 212.187 48.9205 212.466 49.196C212.747 49.4716 212.966 49.8182 213.122 50.2358C213.278 50.6506 213.356 51.1364 213.356 51.6932V52.1918H207.829V51.0668H211.647C211.647 50.8054 211.591 50.5739 211.477 50.3722C211.363 50.1705 211.206 50.0128 211.004 49.8991C210.805 49.7827 210.574 49.7244 210.309 49.7244C210.034 49.7244 209.789 49.7884 209.576 49.9162C209.366 50.0412 209.201 50.2102 209.082 50.4233C208.963 50.6335 208.902 50.8679 208.899 51.1264V52.196C208.899 52.5199 208.958 52.7997 209.078 53.0355C209.2 53.2713 209.372 53.4531 209.593 53.581C209.815 53.7088 210.078 53.7727 210.382 53.7727C210.583 53.7727 210.768 53.7443 210.936 53.6875C211.103 53.6307 211.247 53.5455 211.366 53.4318C211.485 53.3182 211.576 53.179 211.639 53.0142L213.318 53.125C213.233 53.5284 213.058 53.8807 212.794 54.1818C212.532 54.4801 212.194 54.7131 211.779 54.8807C211.368 55.0455 210.892 55.1278 210.352 55.1278ZM214.541 55V48.4545H216.301V49.5966H216.369C216.488 49.1903 216.689 48.8835 216.97 48.6761C217.251 48.4659 217.575 48.3608 217.941 48.3608C218.032 48.3608 218.13 48.3665 218.235 48.3778C218.341 48.3892 218.433 48.4048 218.512 48.4247V50.0355C218.427 50.0099 218.309 49.9872 218.159 49.9673C218.008 49.9474 217.87 49.9375 217.745 49.9375C217.478 49.9375 217.24 49.9957 217.029 50.1122C216.822 50.2259 216.657 50.3849 216.535 50.5895C216.416 50.794 216.356 51.0298 216.356 51.2969V55H214.541Z" fill="#092AD0"/>
<rect x="95.625" y="61.875" width="44.25" height="18" rx="3.375" fill="#092AD0" fill-opacity="0.56" stroke="#092AD0" stroke-width="0.75"/>
<path d="M103.523 74.25L104.597 67.7045H105.62L104.546 74.25H103.523ZM100.593 72.6264L100.762 71.6037H105.876L105.706 72.6264H100.593ZM101.222 74.25L102.296 67.7045H103.319L102.245 74.25H101.222ZM100.967 70.3509L101.139 69.3281H106.253L106.08 70.3509H100.967ZM108.997 74.25V67.7045H111.579C112.073 67.7045 112.495 67.793 112.845 67.9698C113.196 68.1445 113.464 68.3928 113.647 68.7145C113.832 69.0341 113.925 69.4102 113.925 69.8427C113.925 70.2773 113.831 70.6513 113.644 70.9645C113.456 71.2756 113.184 71.5142 112.829 71.6804C112.475 71.8466 112.047 71.9297 111.544 71.9297H109.815V70.8175H111.32C111.584 70.8175 111.804 70.7812 111.979 70.7088C112.153 70.6364 112.283 70.5277 112.368 70.3828C112.456 70.2379 112.499 70.0579 112.499 69.8427C112.499 69.6254 112.456 69.4421 112.368 69.293C112.283 69.1438 112.152 69.0309 111.975 68.9542C111.801 68.8754 111.58 68.8359 111.314 68.8359H110.381V74.25H108.997ZM112.531 71.2713L114.158 74.25H112.631L111.039 71.2713H112.531ZM117.035 74.3459C116.53 74.3459 116.096 74.2436 115.731 74.0391C115.369 73.8324 115.09 73.5405 114.894 73.1634C114.698 72.7841 114.6 72.3356 114.6 71.8178C114.6 71.3129 114.698 70.8697 114.894 70.4883C115.09 70.1069 115.366 69.8097 115.722 69.5966C116.08 69.3835 116.5 69.277 116.981 69.277C117.305 69.277 117.606 69.3292 117.886 69.4336C118.167 69.5359 118.412 69.6903 118.621 69.897C118.832 70.1037 118.996 70.3636 119.113 70.6768C119.23 70.9879 119.289 71.3523 119.289 71.7699V72.1438H115.143V71.3001H118.007C118.007 71.104 117.964 70.9304 117.879 70.7791C117.794 70.6278 117.676 70.5096 117.524 70.4244C117.375 70.337 117.202 70.2933 117.003 70.2933C116.797 70.2933 116.614 70.3413 116.454 70.4371C116.296 70.5309 116.172 70.6577 116.083 70.8175C115.994 70.9751 115.948 71.1509 115.946 71.3448V72.147C115.946 72.3899 115.99 72.5998 116.08 72.7766C116.171 72.9535 116.3 73.0898 116.467 73.1857C116.633 73.2816 116.83 73.3295 117.058 73.3295C117.209 73.3295 117.348 73.3082 117.473 73.2656C117.599 73.223 117.707 73.1591 117.796 73.0739C117.886 72.9886 117.954 72.8842 118.001 72.7607L119.26 72.8438C119.196 73.1463 119.065 73.4105 118.867 73.6364C118.671 73.8601 118.417 74.0348 118.106 74.1605C117.797 74.2841 117.44 74.3459 117.035 74.3459ZM121.577 74.3427C121.264 74.3427 120.985 74.2884 120.74 74.1797C120.495 74.0689 120.301 73.9059 120.158 73.6907C120.017 73.4734 119.947 73.2028 119.947 72.8789C119.947 72.6062 119.997 72.3771 120.097 72.1918C120.197 72.0064 120.334 71.8572 120.506 71.7443C120.679 71.6314 120.875 71.5462 121.094 71.4886C121.316 71.4311 121.548 71.3906 121.791 71.3672C122.077 71.3374 122.307 71.3097 122.481 71.2841C122.656 71.2564 122.783 71.2159 122.862 71.1626C122.941 71.1094 122.98 71.0305 122.98 70.9261V70.907C122.98 70.7045 122.916 70.5479 122.788 70.4371C122.663 70.3263 122.484 70.271 122.251 70.271C122.006 70.271 121.811 70.3253 121.666 70.4339C121.522 70.5405 121.426 70.6747 121.379 70.8366L120.12 70.7344C120.184 70.4361 120.309 70.1783 120.497 69.9609C120.684 69.7415 120.926 69.5732 121.222 69.456C121.521 69.3366 121.866 69.277 122.258 69.277C122.53 69.277 122.791 69.3089 123.041 69.3729C123.292 69.4368 123.515 69.5359 123.709 69.6701C123.905 69.8043 124.059 69.9769 124.172 70.1879C124.285 70.3967 124.342 70.647 124.342 70.9389V74.25H123.05V73.5692H123.012C122.933 73.7227 122.828 73.858 122.696 73.9751C122.563 74.0902 122.405 74.1808 122.219 74.2468C122.034 74.3107 121.82 74.3427 121.577 74.3427ZM121.967 73.4031C122.167 73.4031 122.344 73.3636 122.497 73.2848C122.651 73.2038 122.771 73.0952 122.859 72.9588C122.946 72.8224 122.99 72.668 122.99 72.4954V71.9744C122.947 72.0021 122.888 72.0277 122.814 72.0511C122.741 72.0724 122.659 72.0927 122.568 72.1119C122.476 72.1289 122.384 72.1449 122.293 72.1598C122.201 72.1726 122.118 72.1843 122.044 72.195C121.884 72.2184 121.744 72.2557 121.625 72.3068C121.506 72.358 121.413 72.4272 121.347 72.5146C121.281 72.5998 121.248 72.7063 121.248 72.8342C121.248 73.0195 121.315 73.1612 121.449 73.2592C121.585 73.3551 121.758 73.4031 121.967 73.4031ZM127.616 74.3459C127.113 74.3459 126.68 74.2393 126.318 74.0263C125.958 73.8111 125.681 73.5128 125.487 73.1314C125.296 72.75 125.2 72.3111 125.2 71.8146C125.2 71.3118 125.297 70.8707 125.491 70.4915C125.687 70.1101 125.965 69.8129 126.325 69.5998C126.685 69.3846 127.113 69.277 127.609 69.277C128.038 69.277 128.413 69.3548 128.734 69.5103C129.056 69.6658 129.311 69.8842 129.498 70.1655C129.686 70.4467 129.789 70.777 129.808 71.1562H128.524C128.487 70.9112 128.391 70.7141 128.236 70.565C128.082 70.4137 127.881 70.3381 127.632 70.3381C127.421 70.3381 127.237 70.3956 127.079 70.5107C126.923 70.6236 126.802 70.7887 126.715 71.006C126.627 71.2234 126.584 71.4865 126.584 71.7955C126.584 72.1087 126.626 72.375 126.711 72.5945C126.799 72.8139 126.921 72.9812 127.079 73.0962C127.237 73.2113 127.421 73.2688 127.632 73.2688C127.787 73.2688 127.927 73.2369 128.051 73.1729C128.176 73.109 128.28 73.0163 128.361 72.8949C128.444 72.7713 128.498 72.6232 128.524 72.4506H129.808C129.787 72.8256 129.685 73.1559 129.502 73.4414C129.32 73.7248 129.07 73.9464 128.75 74.1062C128.431 74.266 128.053 74.3459 127.616 74.3459ZM133.291 69.3409V70.3636H130.335V69.3409H133.291ZM131.006 68.1648H132.368V72.7415C132.368 72.8672 132.387 72.9652 132.425 73.0355C132.463 73.1037 132.517 73.1516 132.585 73.1793C132.655 73.207 132.736 73.2209 132.828 73.2209C132.892 73.2209 132.956 73.2156 133.02 73.2049C133.083 73.1921 133.132 73.1825 133.167 73.1761L133.381 74.1893C133.313 74.2106 133.217 74.2351 133.093 74.2628C132.969 74.2926 132.819 74.3107 132.642 74.3171C132.314 74.3299 132.027 74.2862 131.779 74.1861C131.534 74.0859 131.344 73.9304 131.207 73.7195C131.071 73.5085 131.004 73.2422 131.006 72.9205V68.1648Z" fill="white"/>
<rect x="147.375" y="61.875" width="70.5" height="18" rx="3.375" fill="#092AD0" fill-opacity="0.56" stroke="#092AD0" stroke-width="0.75"/>
<path d="M157.523 74.25L158.597 67.7045H159.62L158.546 74.25H157.523ZM154.593 72.6264L154.762 71.6037H159.876L159.706 72.6264H154.593ZM155.222 74.25L156.296 67.7045H157.319L156.245 74.25H155.222ZM154.967 70.3509L155.139 69.3281H160.253L160.08 70.3509H154.967ZM162.747 68.8455V67.7045H168.123V68.8455H166.119V74.25H164.751V68.8455H162.747ZM169.261 76.0909C169.088 76.0909 168.926 76.0771 168.775 76.0494C168.626 76.0238 168.502 75.9908 168.404 75.9503L168.711 74.9339C168.871 74.983 169.015 75.0096 169.143 75.0138C169.273 75.0181 169.384 74.9883 169.478 74.9244C169.574 74.8604 169.652 74.7518 169.711 74.5984L169.791 74.3906L168.03 69.3409H169.462L170.479 72.946H170.53L171.556 69.3409H172.997L171.089 74.7805C170.997 75.0447 170.873 75.2749 170.715 75.4709C170.559 75.669 170.362 75.8214 170.124 75.9279C169.885 76.0366 169.597 76.0909 169.261 76.0909ZM173.694 76.0909V69.3409H175.036V70.1655H175.097C175.156 70.0334 175.243 69.8991 175.356 69.7628C175.471 69.6243 175.62 69.5092 175.803 69.4176C175.988 69.3239 176.219 69.277 176.493 69.277C176.851 69.277 177.182 69.3707 177.484 69.5582C177.787 69.7436 178.029 70.0238 178.21 70.3988C178.391 70.7717 178.481 71.2393 178.481 71.8018C178.481 72.3494 178.393 72.8118 178.216 73.1889C178.041 73.5639 177.803 73.8484 177.5 74.0423C177.2 74.234 176.863 74.3299 176.49 74.3299C176.226 74.3299 176.001 74.2862 175.816 74.1989C175.633 74.1115 175.482 74.0018 175.365 73.8697C175.248 73.7354 175.159 73.6001 175.097 73.4638H175.055V76.0909H173.694ZM175.026 71.7955C175.026 72.0874 175.067 72.342 175.148 72.5593C175.229 72.7766 175.346 72.946 175.499 73.0675C175.653 73.1868 175.839 73.2464 176.059 73.2464C176.28 73.2464 176.468 73.1857 176.621 73.0643C176.775 72.9407 176.891 72.7702 176.97 72.5529C177.051 72.3335 177.091 72.081 177.091 71.7955C177.091 71.5121 177.052 71.2628 176.973 71.0476C176.894 70.8324 176.778 70.6641 176.624 70.5426C176.471 70.4212 176.282 70.3604 176.059 70.3604C175.837 70.3604 175.65 70.419 175.496 70.5362C175.345 70.6534 175.229 70.8196 175.148 71.0348C175.067 71.25 175.026 71.5036 175.026 71.7955ZM181.626 74.3459C181.121 74.3459 180.687 74.2436 180.322 74.0391C179.96 73.8324 179.681 73.5405 179.485 73.1634C179.289 72.7841 179.191 72.3356 179.191 71.8178C179.191 71.3129 179.289 70.8697 179.485 70.4883C179.681 70.1069 179.957 69.8097 180.313 69.5966C180.671 69.3835 181.09 69.277 181.572 69.277C181.896 69.277 182.197 69.3292 182.476 69.4336C182.758 69.5359 183.003 69.6903 183.211 69.897C183.422 70.1037 183.586 70.3636 183.704 70.6768C183.821 70.9879 183.879 71.3523 183.879 71.7699V72.1438H179.734V71.3001H182.598C182.598 71.104 182.555 70.9304 182.47 70.7791C182.385 70.6278 182.267 70.5096 182.115 70.4244C181.966 70.337 181.792 70.2933 181.594 70.2933C181.388 70.2933 181.204 70.3413 181.045 70.4371C180.887 70.5309 180.763 70.6577 180.674 70.8175C180.584 70.9751 180.539 71.1509 180.536 71.3448V72.147C180.536 72.3899 180.581 72.5998 180.671 72.7766C180.762 72.9535 180.891 73.0898 181.057 73.1857C181.224 73.2816 181.421 73.3295 181.649 73.3295C181.8 73.3295 181.938 73.3082 182.064 73.2656C182.19 73.223 182.297 73.1591 182.387 73.0739C182.476 72.9886 182.545 72.8842 182.591 72.7607L183.851 72.8438C183.787 73.1463 183.656 73.4105 183.458 73.6364C183.262 73.8601 183.008 74.0348 182.697 74.1605C182.388 74.2841 182.031 74.3459 181.626 74.3459ZM188.852 70.7408L187.606 70.8175C187.585 70.7109 187.539 70.6151 187.469 70.5298C187.398 70.4425 187.306 70.3732 187.191 70.3221C187.078 70.2688 186.942 70.2422 186.785 70.2422C186.574 70.2422 186.396 70.2869 186.251 70.3764C186.106 70.4638 186.034 70.581 186.034 70.728C186.034 70.8452 186.08 70.9442 186.174 71.0252C186.268 71.1062 186.429 71.1712 186.657 71.2202L187.545 71.3991C188.023 71.4972 188.378 71.6548 188.613 71.8722C188.847 72.0895 188.964 72.375 188.964 72.7287C188.964 73.0504 188.869 73.3327 188.68 73.5756C188.492 73.8185 188.235 74.0082 187.906 74.1445C187.58 74.2788 187.204 74.3459 186.778 74.3459C186.128 74.3459 185.611 74.2106 185.225 73.94C184.841 73.6673 184.617 73.2965 184.551 72.8278L185.89 72.7575C185.93 72.9556 186.028 73.1069 186.184 73.2113C186.339 73.3136 186.539 73.3647 186.781 73.3647C187.02 73.3647 187.212 73.3189 187.357 73.2273C187.504 73.1335 187.578 73.0131 187.58 72.8661C187.578 72.7425 187.526 72.6413 187.424 72.5625C187.322 72.4815 187.164 72.4197 186.951 72.3771L186.101 72.2077C185.621 72.1119 185.264 71.9457 185.03 71.7092C184.798 71.4727 184.682 71.1712 184.682 70.8047C184.682 70.4893 184.767 70.2177 184.937 69.9897C185.11 69.7617 185.352 69.5859 185.663 69.4624C185.976 69.3388 186.343 69.277 186.762 69.277C187.382 69.277 187.87 69.408 188.226 69.6701C188.584 69.9322 188.793 70.2891 188.852 70.7408ZM192.04 74.3459C191.537 74.3459 191.104 74.2393 190.742 74.0263C190.382 73.8111 190.105 73.5128 189.911 73.1314C189.719 72.75 189.623 72.3111 189.623 71.8146C189.623 71.3118 189.72 70.8707 189.914 70.4915C190.11 70.1101 190.388 69.8129 190.748 69.5998C191.109 69.3846 191.537 69.277 192.033 69.277C192.462 69.277 192.837 69.3548 193.158 69.5103C193.48 69.6658 193.735 69.8842 193.922 70.1655C194.11 70.4467 194.213 70.777 194.232 71.1562H192.947C192.911 70.9112 192.815 70.7141 192.66 70.565C192.506 70.4137 192.305 70.3381 192.056 70.3381C191.845 70.3381 191.66 70.3956 191.503 70.5107C191.347 70.6236 191.226 70.7887 191.138 71.006C191.051 71.2234 191.007 71.4865 191.007 71.7955C191.007 72.1087 191.05 72.375 191.135 72.5945C191.223 72.8139 191.345 72.9812 191.503 73.0962C191.66 73.2113 191.845 73.2688 192.056 73.2688C192.211 73.2688 192.351 73.2369 192.474 73.1729C192.6 73.109 192.703 73.0163 192.784 72.8949C192.867 72.7713 192.922 72.6232 192.947 72.4506H194.232C194.211 72.8256 194.109 73.1559 193.925 73.4414C193.744 73.7248 193.494 73.9464 193.174 74.1062C192.855 74.266 192.476 74.3459 192.04 74.3459ZM195.104 74.25V69.3409H196.424V70.1974H196.475C196.564 69.8928 196.715 69.6626 196.926 69.5071C197.137 69.3494 197.379 69.2706 197.654 69.2706C197.722 69.2706 197.796 69.2749 197.875 69.2834C197.954 69.2919 198.023 69.3036 198.083 69.3185V70.5266C198.019 70.5075 197.93 70.4904 197.817 70.4755C197.704 70.4606 197.601 70.4531 197.507 70.4531C197.307 70.4531 197.128 70.4968 196.97 70.5842C196.815 70.6694 196.691 70.7887 196.6 70.9421C196.51 71.0955 196.465 71.2724 196.465 71.4727V74.25H195.104ZM198.786 74.25V69.3409H200.148V74.25H198.786ZM199.47 68.7081C199.268 68.7081 199.094 68.641 198.949 68.5067C198.807 68.3704 198.735 68.2074 198.735 68.0178C198.735 67.8303 198.807 67.6694 198.949 67.5352C199.094 67.3988 199.268 67.3306 199.47 67.3306C199.673 67.3306 199.845 67.3988 199.988 67.5352C200.133 67.6694 200.206 67.8303 200.206 68.0178C200.206 68.2074 200.133 68.3704 199.988 68.5067C199.845 68.641 199.673 68.7081 199.47 68.7081ZM201.239 76.0909V69.3409H202.581V70.1655H202.642C202.701 70.0334 202.788 69.8991 202.901 69.7628C203.016 69.6243 203.165 69.5092 203.348 69.4176C203.533 69.3239 203.763 69.277 204.038 69.277C204.396 69.277 204.727 69.3707 205.029 69.5582C205.332 69.7436 205.574 70.0238 205.755 70.3988C205.936 70.7717 206.026 71.2393 206.026 71.8018C206.026 72.3494 205.938 72.8118 205.761 73.1889C205.586 73.5639 205.348 73.8484 205.045 74.0423C204.745 74.234 204.408 74.3299 204.035 74.3299C203.771 74.3299 203.546 74.2862 203.361 74.1989C203.178 74.1115 203.027 74.0018 202.91 73.8697C202.793 73.7354 202.703 73.6001 202.642 73.4638H202.6V76.0909H201.239ZM202.571 71.7955C202.571 72.0874 202.612 72.342 202.693 72.5593C202.774 72.7766 202.891 72.946 203.044 73.0675C203.198 73.1868 203.384 73.2464 203.604 73.2464C203.825 73.2464 204.013 73.1857 204.166 73.0643C204.32 72.9407 204.436 72.7702 204.515 72.5529C204.596 72.3335 204.636 72.081 204.636 71.7955C204.636 71.5121 204.597 71.2628 204.518 71.0476C204.439 70.8324 204.323 70.6641 204.169 70.5426C204.016 70.4212 203.827 70.3604 203.604 70.3604C203.382 70.3604 203.195 70.419 203.041 70.5362C202.89 70.6534 202.774 70.8196 202.693 71.0348C202.612 71.25 202.571 71.5036 202.571 71.7955ZM209.545 69.3409V70.3636H206.589V69.3409H209.545ZM207.26 68.1648H208.621V72.7415C208.621 72.8672 208.641 72.9652 208.679 73.0355C208.717 73.1037 208.771 73.1516 208.839 73.1793C208.909 73.207 208.99 73.2209 209.082 73.2209C209.146 73.2209 209.21 73.2156 209.273 73.2049C209.337 73.1921 209.386 73.1825 209.42 73.1761L209.635 74.1893C209.566 74.2106 209.471 74.2351 209.347 74.2628C209.223 74.2926 209.073 74.3107 208.896 74.3171C208.568 74.3299 208.281 74.2862 208.033 74.1861C207.788 74.0859 207.598 73.9304 207.461 73.7195C207.325 73.5085 207.258 73.2422 207.26 72.9205V68.1648Z" fill="white"/>
<rect x="225.375" y="61.875" width="66.75" height="18" rx="3.375" fill="#092AD0" fill-opacity="0.56" stroke="#092AD0" stroke-width="0.75"/>
<path d="M237.773 74.25L238.847 67.7045H239.87L238.796 74.25H237.773ZM234.843 72.6264L235.012 71.6037H240.126L239.956 72.6264H234.843ZM235.472 74.25L236.546 67.7045H237.569L236.495 74.25H235.472ZM235.217 70.3509L235.389 69.3281H240.503L240.33 70.3509H235.217ZM247.587 69.8203C247.542 69.6648 247.479 69.5273 247.398 69.408C247.317 69.2866 247.218 69.1843 247.101 69.1012C246.986 69.016 246.854 68.951 246.705 68.9062C246.558 68.8615 246.395 68.8391 246.216 68.8391C245.881 68.8391 245.587 68.9222 245.334 69.0884C245.082 69.2546 244.886 69.4964 244.746 69.8139C244.605 70.1293 244.535 70.5149 244.535 70.9709C244.535 71.4268 244.604 71.8146 244.742 72.1342C244.881 72.4538 245.077 72.6978 245.33 72.8661C245.584 73.0323 245.883 73.1154 246.229 73.1154C246.542 73.1154 246.809 73.06 247.031 72.9492C247.254 72.8363 247.425 72.6776 247.542 72.473C247.661 72.2685 247.721 72.0266 247.721 71.7475L248.002 71.7891H246.315V70.7472H249.054V71.5717C249.054 72.147 248.932 72.6413 248.689 73.0547C248.447 73.4659 248.112 73.7834 247.686 74.0071C247.26 74.2287 246.772 74.3395 246.222 74.3395C245.608 74.3395 245.069 74.2042 244.605 73.9336C244.14 73.6609 243.778 73.2741 243.518 72.7734C243.26 72.2706 243.132 71.674 243.132 70.9837C243.132 70.4531 243.208 69.9801 243.362 69.5646C243.517 69.147 243.735 68.7933 244.014 68.5036C244.293 68.2138 244.618 67.9933 244.988 67.842C245.359 67.6907 245.761 67.6151 246.193 67.6151C246.564 67.6151 246.909 67.6694 247.229 67.7781C247.548 67.8846 247.832 68.0359 248.079 68.2319C248.328 68.4279 248.532 68.6612 248.689 68.9318C248.847 69.2003 248.948 69.4964 248.993 69.8203H247.587ZM250.068 74.25V69.3409H251.388V70.1974H251.439C251.528 69.8928 251.679 69.6626 251.889 69.5071C252.1 69.3494 252.343 69.2706 252.618 69.2706C252.686 69.2706 252.76 69.2749 252.839 69.2834C252.918 69.2919 252.987 69.3036 253.046 69.3185V70.5266C252.983 70.5075 252.894 70.4904 252.781 70.4755C252.668 70.4606 252.565 70.4531 252.471 70.4531C252.271 70.4531 252.092 70.4968 251.934 70.5842C251.779 70.6694 251.655 70.7887 251.563 70.9421C251.474 71.0955 251.429 71.2724 251.429 71.4727V74.25H250.068ZM255.01 74.3427C254.696 74.3427 254.417 74.2884 254.172 74.1797C253.927 74.0689 253.733 73.9059 253.591 73.6907C253.45 73.4734 253.38 73.2028 253.38 72.8789C253.38 72.6062 253.43 72.3771 253.53 72.1918C253.63 72.0064 253.766 71.8572 253.939 71.7443C254.112 71.6314 254.308 71.5462 254.527 71.4886C254.749 71.4311 254.981 71.3906 255.224 71.3672C255.509 71.3374 255.739 71.3097 255.914 71.2841C256.089 71.2564 256.216 71.2159 256.294 71.1626C256.373 71.1094 256.413 71.0305 256.413 70.9261V70.907C256.413 70.7045 256.349 70.5479 256.221 70.4371C256.095 70.3263 255.916 70.271 255.684 70.271C255.439 70.271 255.244 70.3253 255.099 70.4339C254.954 70.5405 254.858 70.6747 254.811 70.8366L253.552 70.7344C253.616 70.4361 253.742 70.1783 253.929 69.9609C254.117 69.7415 254.359 69.5732 254.655 69.456C254.953 69.3366 255.298 69.277 255.69 69.277C255.963 69.277 256.224 69.3089 256.473 69.3729C256.725 69.4368 256.947 69.5359 257.141 69.6701C257.337 69.8043 257.492 69.9769 257.605 70.1879C257.718 70.3967 257.774 70.647 257.774 70.9389V74.25H256.483V73.5692H256.445C256.366 73.7227 256.26 73.858 256.128 73.9751C255.996 74.0902 255.837 74.1808 255.652 74.2468C255.467 74.3107 255.252 74.3427 255.01 74.3427ZM255.4 73.4031C255.6 73.4031 255.777 73.3636 255.93 73.2848C256.083 73.2038 256.204 73.0952 256.291 72.9588C256.379 72.8224 256.422 72.668 256.422 72.4954V71.9744C256.38 72.0021 256.321 72.0277 256.246 72.0511C256.174 72.0724 256.092 72.0927 256 72.1119C255.909 72.1289 255.817 72.1449 255.725 72.1598C255.634 72.1726 255.551 72.1843 255.476 72.195C255.316 72.2184 255.177 72.2557 255.058 72.3068C254.938 72.358 254.846 72.4272 254.779 72.5146C254.713 72.5998 254.68 72.7063 254.68 72.8342C254.68 73.0195 254.748 73.1612 254.882 73.2592C255.018 73.3551 255.191 73.4031 255.4 73.4031ZM258.83 76.0909V69.3409H260.173V70.1655H260.233C260.293 70.0334 260.379 69.8991 260.492 69.7628C260.607 69.6243 260.757 69.5092 260.94 69.4176C261.125 69.3239 261.355 69.277 261.63 69.277C261.988 69.277 262.318 69.3707 262.621 69.5582C262.923 69.7436 263.165 70.0238 263.346 70.3988C263.528 70.7717 263.618 71.2393 263.618 71.8018C263.618 72.3494 263.53 72.8118 263.353 73.1889C263.178 73.5639 262.939 73.8484 262.637 74.0423C262.336 74.234 262 74.3299 261.627 74.3299C261.363 74.3299 261.138 74.2862 260.953 74.1989C260.769 74.1115 260.619 74.0018 260.502 73.8697C260.385 73.7354 260.295 73.6001 260.233 73.4638H260.192V76.0909H258.83ZM260.163 71.7955C260.163 72.0874 260.204 72.342 260.285 72.5593C260.366 72.7766 260.483 72.946 260.636 73.0675C260.79 73.1868 260.976 73.2464 261.195 73.2464C261.417 73.2464 261.605 73.1857 261.758 73.0643C261.911 72.9407 262.028 72.7702 262.106 72.5529C262.187 72.3335 262.228 72.081 262.228 71.7955C262.228 71.5121 262.188 71.2628 262.11 71.0476C262.031 70.8324 261.915 70.6641 261.761 70.5426C261.608 70.4212 261.419 70.3604 261.195 70.3604C260.974 70.3604 260.786 70.419 260.633 70.5362C260.482 70.6534 260.366 70.8196 260.285 71.0348C260.204 71.25 260.163 71.5036 260.163 71.7955ZM265.887 71.4119V74.25H264.526V67.7045H265.849V70.207H265.906C266.017 69.9173 266.196 69.6903 266.443 69.5263C266.691 69.3601 267.001 69.277 267.373 69.277C267.714 69.277 268.012 69.3516 268.265 69.5007C268.521 69.6477 268.719 69.8597 268.86 70.1367C269.002 70.4116 269.073 70.7408 269.07 71.1243V74.25H267.709V71.3672C267.711 71.0646 267.634 70.8292 267.479 70.6609C267.325 70.4925 267.11 70.4084 266.833 70.4084C266.648 70.4084 266.484 70.4478 266.341 70.5266C266.2 70.6055 266.09 70.7205 266.009 70.8718C265.93 71.021 265.889 71.201 265.887 71.4119ZM272.638 71.9744H273.814L274.405 72.7351L274.987 73.4126L276.083 74.7869H274.792L274.038 73.8601L273.651 73.3104L272.638 71.9744ZM276.182 70.9773C276.182 71.6911 276.047 72.2983 275.777 72.799C275.508 73.2997 275.142 73.6822 274.677 73.9464C274.215 74.2085 273.695 74.3395 273.117 74.3395C272.536 74.3395 272.014 74.2074 271.551 73.9432C271.089 73.679 270.724 73.2965 270.455 72.7958C270.187 72.2951 270.052 71.6889 270.052 70.9773C270.052 70.2635 270.187 69.6562 270.455 69.1555C270.724 68.6548 271.089 68.2734 271.551 68.0114C272.014 67.7472 272.536 67.6151 273.117 67.6151C273.695 67.6151 274.215 67.7472 274.677 68.0114C275.142 68.2734 275.508 68.6548 275.777 69.1555C276.047 69.6562 276.182 70.2635 276.182 70.9773ZM274.779 70.9773C274.779 70.5149 274.71 70.125 274.572 69.8075C274.435 69.4901 274.242 69.2493 273.993 69.0852C273.744 68.9212 273.452 68.8391 273.117 68.8391C272.783 68.8391 272.491 68.9212 272.242 69.0852C271.992 69.2493 271.799 69.4901 271.66 69.8075C271.524 70.125 271.456 70.5149 271.456 70.9773C271.456 71.4396 271.524 71.8295 271.66 72.147C271.799 72.4645 271.992 72.7053 272.242 72.8693C272.491 73.0334 272.783 73.1154 273.117 73.1154C273.452 73.1154 273.744 73.0334 273.993 72.8693C274.242 72.7053 274.435 72.4645 274.572 72.147C274.71 71.8295 274.779 71.4396 274.779 70.9773ZM277.208 74.25V67.7045H278.591V73.109H281.398V74.25H277.208Z" fill="white"/>
</svg>
