<svg width="300" height="81" viewBox="0 0 300 81" fill="none" xmlns="http://www.w3.org/2000/svg">
<rect width="300" height="81" rx="21" fill="white"/>
<circle cx="45" cy="40.2002" r="24" fill="#C4C4C4"/>
<rect x="34.1992" y="43.2002" width="21.6" height="12" rx="3" fill="white"/>
<circle cx="44.6992" cy="33.2998" r="7.5" fill="white"/>
<path d="M80.0515 31.2002H76.9577V22.4729H80.0771C80.9549 22.4729 81.7106 22.6476 82.3441 22.9971C82.9776 23.3437 83.4648 23.8422 83.8058 24.4928C84.1495 25.1434 84.3214 25.9218 84.3214 26.828C84.3214 27.7371 84.1495 28.5184 83.8058 29.1718C83.4648 29.8252 82.9748 30.3266 82.3356 30.676C81.6992 31.0255 80.9379 31.2002 80.0515 31.2002ZM78.8029 29.6192H79.9748C80.5202 29.6192 80.979 29.5226 81.3512 29.3295C81.7262 29.1334 82.0075 28.8309 82.195 28.4218C82.3853 28.0099 82.4805 27.4786 82.4805 26.828C82.4805 26.1831 82.3853 25.6562 82.195 25.2471C82.0075 24.838 81.7276 24.5368 81.3555 24.3437C80.9833 24.1505 80.5245 24.0539 79.979 24.0539H78.8029V29.6192ZM87.5206 31.3238C87.103 31.3238 86.7308 31.2513 86.4041 31.1064C86.0774 30.9587 85.8189 30.7414 85.6286 30.4545C85.4411 30.1647 85.3473 29.8039 85.3473 29.3721C85.3473 29.0084 85.4141 28.703 85.5476 28.4559C85.6811 28.2087 85.8629 28.0099 86.093 27.8593C86.3232 27.7087 86.5845 27.5951 86.8771 27.5184C87.1726 27.4417 87.4822 27.3877 87.8061 27.3564C88.1868 27.3167 88.4936 27.2797 88.7266 27.2456C88.9595 27.2087 89.1286 27.1547 89.2337 27.0837C89.3388 27.0127 89.3913 26.9076 89.3913 26.7684V26.7428C89.3913 26.4729 89.3061 26.2641 89.1357 26.1164C88.968 25.9687 88.7294 25.8948 88.4197 25.8948C88.093 25.8948 87.8331 25.9672 87.6399 26.1121C87.4467 26.2542 87.3189 26.4331 87.2564 26.6491L85.5774 26.5127C85.6626 26.115 85.8303 25.7712 86.0803 25.4814C86.3303 25.1888 86.6527 24.9644 87.0476 24.8081C87.4453 24.6491 87.9055 24.5695 88.4283 24.5695C88.7919 24.5695 89.1399 24.6121 89.4723 24.6974C89.8075 24.7826 90.1044 24.9147 90.3629 25.0937C90.6243 25.2726 90.8303 25.5028 90.9808 25.784C91.1314 26.0624 91.2067 26.3962 91.2067 26.7854V31.2002H89.4851V30.2925H89.4339C89.3288 30.4971 89.1882 30.6775 89.0121 30.8337C88.8359 30.9871 88.6243 31.1079 88.3771 31.1959C88.13 31.2812 87.8445 31.3238 87.5206 31.3238ZM88.0405 30.0709C88.3075 30.0709 88.5433 30.0184 88.7479 29.9133C88.9524 29.8053 89.1129 29.6604 89.2294 29.4786C89.3459 29.2968 89.4041 29.0908 89.4041 28.8607V28.1661C89.3473 28.203 89.2692 28.2371 89.1697 28.2684C89.0732 28.2968 88.9638 28.3238 88.8416 28.3493C88.7195 28.3721 88.5973 28.3934 88.4751 28.4133C88.353 28.4303 88.2422 28.4459 88.1428 28.4601C87.9297 28.4914 87.7436 28.5411 87.5845 28.6093C87.4254 28.6775 87.3018 28.7698 87.2138 28.8863C87.1257 28.9999 87.0817 29.142 87.0817 29.3124C87.0817 29.5596 87.1712 29.7485 87.3501 29.8792C87.532 30.007 87.7621 30.0709 88.0405 30.0709ZM98.483 24.6547L96.1946 31.2002H94.1491L91.8608 24.6547H93.7784L95.1378 29.338H95.206L96.5611 24.6547H98.483ZM99.4119 31.2002V24.6547H101.227V31.2002H99.4119ZM100.324 23.811C100.054 23.811 99.8224 23.7215 99.6293 23.5425C99.4389 23.3607 99.3438 23.1434 99.3438 22.8905C99.3438 22.6405 99.4389 22.426 99.6293 22.2471C99.8224 22.0653 100.054 21.9743 100.324 21.9743C100.594 21.9743 100.824 22.0653 101.014 22.2471C101.207 22.426 101.304 22.6405 101.304 22.8905C101.304 23.1434 101.207 23.3607 101.014 23.5425C100.824 23.7215 100.594 23.811 100.324 23.811ZM105.093 31.3067C104.596 31.3067 104.146 31.1789 103.743 30.9232C103.342 30.6647 103.024 30.2854 102.788 29.7854C102.555 29.2826 102.439 28.6661 102.439 27.936C102.439 27.186 102.559 26.5624 102.801 26.0653C103.042 25.5653 103.363 25.1917 103.764 24.9445C104.167 24.6945 104.609 24.5695 105.089 24.5695C105.456 24.5695 105.761 24.632 106.005 24.757C106.252 24.8792 106.451 25.0326 106.602 25.2172C106.755 25.3991 106.872 25.578 106.951 25.7542H107.007V22.4729H108.818V31.2002H107.028V30.1519H106.951C106.866 30.3337 106.745 30.5141 106.589 30.6931C106.436 30.8692 106.235 31.0155 105.988 31.132C105.744 31.2485 105.446 31.3067 105.093 31.3067ZM105.669 29.8621C105.961 29.8621 106.208 29.7826 106.41 29.6235C106.615 29.4616 106.771 29.2357 106.879 28.9459C106.99 28.6562 107.045 28.3167 107.045 27.9275C107.045 27.5383 106.991 27.2002 106.883 26.9133C106.775 26.6263 106.619 26.4047 106.414 26.2485C106.21 26.0922 105.961 26.0141 105.669 26.0141C105.37 26.0141 105.119 26.0951 104.914 26.257C104.71 26.4189 104.555 26.6434 104.45 26.9303C104.345 27.2172 104.292 27.5496 104.292 27.9275C104.292 28.3081 104.345 28.6448 104.45 28.9374C104.558 29.2272 104.713 29.4545 104.914 29.6192C105.119 29.7812 105.37 29.8621 105.669 29.8621ZM113.122 22.4729H115.397L117.801 28.3366H117.903L120.306 22.4729H122.582V31.2002H120.792V25.5198H120.72L118.461 31.1576H117.243L114.984 25.4985H114.912V31.2002H113.122V22.4729ZM125.935 31.3238C125.517 31.3238 125.145 31.2513 124.818 31.1064C124.491 30.9587 124.233 30.7414 124.043 30.4545C123.855 30.1647 123.761 29.8039 123.761 29.3721C123.761 29.0084 123.828 28.703 123.962 28.4559C124.095 28.2087 124.277 28.0099 124.507 27.8593C124.737 27.7087 124.999 27.5951 125.291 27.5184C125.587 27.4417 125.896 27.3877 126.22 27.3564C126.601 27.3167 126.908 27.2797 127.141 27.2456C127.374 27.2087 127.543 27.1547 127.648 27.0837C127.753 27.0127 127.805 26.9076 127.805 26.7684V26.7428C127.805 26.4729 127.72 26.2641 127.55 26.1164C127.382 25.9687 127.143 25.8948 126.834 25.8948C126.507 25.8948 126.247 25.9672 126.054 26.1121C125.861 26.2542 125.733 26.4331 125.67 26.6491L123.991 26.5127C124.077 26.115 124.244 25.7712 124.494 25.4814C124.744 25.1888 125.067 24.9644 125.462 24.8081C125.859 24.6491 126.32 24.5695 126.842 24.5695C127.206 24.5695 127.554 24.6121 127.886 24.6974C128.222 24.7826 128.518 24.9147 128.777 25.0937C129.038 25.2726 129.244 25.5028 129.395 25.784C129.545 26.0624 129.621 26.3962 129.621 26.7854V31.2002H127.899V30.2925H127.848C127.743 30.4971 127.602 30.6775 127.426 30.8337C127.25 30.9871 127.038 31.1079 126.791 31.1959C126.544 31.2812 126.259 31.3238 125.935 31.3238ZM126.455 30.0709C126.722 30.0709 126.957 30.0184 127.162 29.9133C127.366 29.8053 127.527 29.6604 127.643 29.4786C127.76 29.2968 127.818 29.0908 127.818 28.8607V28.1661C127.761 28.203 127.683 28.2371 127.584 28.2684C127.487 28.2968 127.378 28.3238 127.256 28.3493C127.134 28.3721 127.011 28.3934 126.889 28.4133C126.767 28.4303 126.656 28.4459 126.557 28.4601C126.344 28.4914 126.158 28.5411 125.999 28.6093C125.839 28.6775 125.716 28.7698 125.628 28.8863C125.54 28.9999 125.496 29.142 125.496 29.3124C125.496 29.5596 125.585 29.7485 125.764 29.8792C125.946 30.007 126.176 30.0709 126.455 30.0709ZM131.029 31.2002V24.6547H132.789V25.7968H132.857C132.977 25.3905 133.177 25.0837 133.458 24.8763C133.739 24.6661 134.063 24.561 134.43 24.561C134.521 24.561 134.619 24.5667 134.724 24.578C134.829 24.5894 134.921 24.605 135.001 24.6249V26.2357C134.915 26.2101 134.798 26.1874 134.647 26.1675C134.496 26.1476 134.359 26.1377 134.234 26.1377C133.967 26.1377 133.728 26.1959 133.518 26.3124C133.31 26.426 133.146 26.5851 133.023 26.7897C132.904 26.9942 132.844 27.23 132.844 27.4971V31.2002H131.029ZM139.749 24.6547V26.0184H135.807V24.6547H139.749ZM136.702 23.0866H138.517V29.1888C138.517 29.3564 138.543 29.4871 138.594 29.5809C138.645 29.6718 138.716 29.7357 138.807 29.7726C138.901 29.8096 139.009 29.828 139.131 29.828C139.216 29.828 139.301 29.8209 139.387 29.8067C139.472 29.7897 139.537 29.7769 139.583 29.7684L139.868 31.1192C139.777 31.1476 139.65 31.1803 139.485 31.2172C139.32 31.257 139.12 31.2812 138.884 31.2897C138.446 31.3067 138.063 31.2485 137.733 31.115C137.407 30.9814 137.152 30.7741 136.971 30.4928C136.789 30.2116 136.699 29.8564 136.702 29.4275V23.0866ZM140.931 31.2002V24.6547H142.747V31.2002H140.931ZM141.843 23.811C141.574 23.811 141.342 23.7215 141.149 23.5425C140.958 23.3607 140.863 23.1434 140.863 22.8905C140.863 22.6405 140.958 22.426 141.149 22.2471C141.342 22.0653 141.574 21.9743 141.843 21.9743C142.113 21.9743 142.343 22.0653 142.534 22.2471C142.727 22.426 142.824 22.6405 142.824 22.8905C142.824 23.1434 142.727 23.3607 142.534 23.5425C142.343 23.7215 142.113 23.811 141.843 23.811ZM146.016 27.4161V31.2002H144.201V24.6547H145.931V25.8096H146.008C146.153 25.4289 146.396 25.1278 146.737 24.9062C147.077 24.6817 147.491 24.5695 147.977 24.5695C148.431 24.5695 148.827 24.6689 149.165 24.8678C149.504 25.0667 149.766 25.3508 149.954 25.7201C150.141 26.0866 150.235 26.5241 150.235 27.0326V31.2002H148.42V27.3564C148.423 26.9559 148.32 26.6434 148.113 26.4189C147.906 26.1917 147.62 26.078 147.256 26.078C147.012 26.078 146.796 26.1306 146.609 26.2357C146.424 26.3408 146.279 26.4942 146.174 26.6959C146.072 26.8948 146.019 27.1349 146.016 27.4161Z" fill="black"/>
<path d="M80.5935 38.2263C80.5663 37.9513 80.4492 37.7377 80.2424 37.5854C80.0356 37.4331 79.7549 37.357 79.4004 37.357C79.1594 37.357 78.956 37.3911 78.7901 37.4593C78.6242 37.5252 78.4969 37.6172 78.4083 37.7354C78.3219 37.8536 78.2788 37.9877 78.2788 38.1377C78.2742 38.2627 78.3004 38.3718 78.3572 38.465C78.4163 38.5581 78.4969 38.6388 78.5992 38.707C78.7015 38.7729 78.8197 38.8309 78.9538 38.8809C79.0879 38.9286 79.231 38.9695 79.3833 39.0036L80.0106 39.1536C80.3151 39.2218 80.5947 39.3127 80.8492 39.4263C81.1038 39.54 81.3242 39.6797 81.5106 39.8456C81.6969 40.0116 81.8413 40.207 81.9435 40.432C82.0481 40.657 82.1015 40.915 82.1038 41.2059C82.1015 41.6331 81.9924 42.0036 81.7765 42.3172C81.5629 42.6286 81.2538 42.8706 80.8492 43.0434C80.4469 43.2138 79.9617 43.2991 79.3935 43.2991C78.8299 43.2991 78.339 43.2127 77.9208 43.04C77.5049 42.8672 77.1799 42.6116 76.9458 42.2729C76.714 41.932 76.5924 41.5104 76.581 41.0081H78.0094C78.0254 41.2422 78.0924 41.4377 78.2106 41.5945C78.331 41.7491 78.4913 41.8661 78.6913 41.9456C78.8935 42.0229 79.1219 42.0616 79.3765 42.0616C79.6265 42.0616 79.8435 42.0252 80.0276 41.9525C80.214 41.8797 80.3583 41.7786 80.4606 41.6491C80.5629 41.5195 80.614 41.3706 80.614 41.2025C80.614 41.0456 80.5674 40.9138 80.4742 40.807C80.3833 40.7002 80.2492 40.6093 80.0719 40.5343C79.8969 40.4593 79.6822 40.3911 79.4276 40.3297L78.6674 40.1388C78.0788 39.9956 77.614 39.7718 77.2731 39.4672C76.9322 39.1627 76.7629 38.7525 76.7651 38.2366C76.7629 37.8138 76.8754 37.4445 77.1026 37.1286C77.3322 36.8127 77.6469 36.5661 78.0469 36.3888C78.4469 36.2116 78.9015 36.1229 79.4106 36.1229C79.9288 36.1229 80.381 36.2116 80.7674 36.3888C81.156 36.5661 81.4583 36.8127 81.6742 37.1286C81.8901 37.4445 82.0015 37.8104 82.0083 38.2263H80.5935ZM85.4353 43.3025C84.9058 43.3025 84.4478 43.19 84.0614 42.965C83.6773 42.7377 83.3808 42.4218 83.1717 42.0172C82.9626 41.6104 82.858 41.1388 82.858 40.6025C82.858 40.0616 82.9626 39.5888 83.1717 39.1843C83.3808 38.7775 83.6773 38.4616 84.0614 38.2366C84.4478 38.0093 84.9058 37.8956 85.4353 37.8956C85.9648 37.8956 86.4217 38.0093 86.8058 38.2366C87.1921 38.4616 87.4898 38.7775 87.6989 39.1843C87.908 39.5888 88.0126 40.0616 88.0126 40.6025C88.0126 41.1388 87.908 41.6104 87.6989 42.0172C87.4898 42.4218 87.1921 42.7377 86.8058 42.965C86.4217 43.19 85.9648 43.3025 85.4353 43.3025ZM85.4421 42.1775C85.683 42.1775 85.8842 42.1093 86.0455 41.9729C86.2069 41.8343 86.3285 41.6456 86.4103 41.407C86.4944 41.1684 86.5364 40.8968 86.5364 40.5922C86.5364 40.2877 86.4944 40.0161 86.4103 39.7775C86.3285 39.5388 86.2069 39.3502 86.0455 39.2116C85.8842 39.0729 85.683 39.0036 85.4421 39.0036C85.1989 39.0036 84.9944 39.0729 84.8285 39.2116C84.6648 39.3502 84.541 39.5388 84.4569 39.7775C84.3751 40.0161 84.3342 40.2877 84.3342 40.5922C84.3342 40.8968 84.3751 41.1684 84.4569 41.407C84.541 41.6456 84.6648 41.8343 84.8285 41.9729C84.9944 42.1093 85.1989 42.1775 85.4421 42.1775ZM91.7728 37.9638V39.0547H88.541V37.9638H91.7728ZM89.2808 43.2002V37.5854C89.2808 37.2059 89.3546 36.8911 89.5023 36.6411C89.6523 36.3911 89.8569 36.2036 90.116 36.0786C90.3751 35.9536 90.6694 35.8911 90.9989 35.8911C91.2217 35.8911 91.4251 35.9081 91.6092 35.9422C91.7955 35.9763 91.9342 36.007 92.0251 36.0343L91.766 37.1252C91.7092 37.107 91.6387 37.09 91.5546 37.0741C91.4728 37.0581 91.3887 37.0502 91.3023 37.0502C91.0887 37.0502 90.9398 37.1002 90.8558 37.2002C90.7717 37.2979 90.7296 37.4354 90.7296 37.6127V43.2002H89.2808ZM95.4452 37.9638V39.0547H92.2918V37.9638H95.4452ZM93.0077 36.7093H94.46V41.5911C94.46 41.7252 94.4805 41.8297 94.5214 41.9047C94.5623 41.9775 94.6191 42.0286 94.6918 42.0581C94.7668 42.0877 94.8532 42.1025 94.9509 42.1025C95.0191 42.1025 95.0873 42.0968 95.1555 42.0854C95.2237 42.0718 95.2759 42.0616 95.3123 42.0547L95.5407 43.1354C95.468 43.1581 95.3657 43.1843 95.2339 43.2138C95.1021 43.2456 94.9418 43.265 94.7532 43.2718C94.4032 43.2854 94.0964 43.2388 93.8327 43.132C93.5714 43.0252 93.368 42.8593 93.2225 42.6343C93.0771 42.4093 93.0055 42.1252 93.0077 41.782V36.7093ZM97.4242 43.2002L95.9992 37.9638H97.4685L98.2799 41.482H98.3276L99.1731 37.9638H100.615L101.474 41.4616H101.519L102.316 37.9638H103.782L102.361 43.2002H100.823L99.9231 39.907H99.8583L98.9583 43.2002H97.4242ZM106.05 43.2991C105.716 43.2991 105.418 43.2411 105.157 43.1252C104.896 43.007 104.689 42.8331 104.536 42.6036C104.386 42.3718 104.311 42.0831 104.311 41.7377C104.311 41.4468 104.365 41.2025 104.472 41.0047C104.578 40.807 104.724 40.6479 104.908 40.5275C105.092 40.407 105.301 40.3161 105.535 40.2547C105.772 40.1934 106.019 40.1502 106.278 40.1252C106.583 40.0934 106.828 40.0638 107.015 40.0366C107.201 40.007 107.336 39.9638 107.421 39.907C107.505 39.8502 107.547 39.7661 107.547 39.6547V39.6343C107.547 39.4184 107.478 39.2513 107.342 39.1331C107.208 39.015 107.017 38.9559 106.769 38.9559C106.508 38.9559 106.3 39.0138 106.146 39.1297C105.991 39.2434 105.889 39.3866 105.839 39.5593L104.496 39.4502C104.564 39.132 104.698 38.857 104.898 38.6252C105.098 38.3911 105.356 38.2116 105.672 38.0866C105.99 37.9593 106.358 37.8956 106.776 37.8956C107.067 37.8956 107.346 37.9297 107.611 37.9979C107.88 38.0661 108.117 38.1718 108.324 38.315C108.533 38.4581 108.698 38.6422 108.818 38.8672C108.939 39.09 108.999 39.357 108.999 39.6684V43.2002H107.622V42.4741H107.581C107.497 42.6377 107.384 42.782 107.243 42.907C107.102 43.0297 106.933 43.1263 106.735 43.1968C106.538 43.265 106.309 43.2991 106.05 43.2991ZM106.466 42.2968C106.68 42.2968 106.868 42.2547 107.032 42.1706C107.196 42.0843 107.324 41.9684 107.417 41.8229C107.51 41.6775 107.557 41.5127 107.557 41.3286V40.7729C107.511 40.8025 107.449 40.8297 107.369 40.8547C107.292 40.8775 107.205 40.8991 107.107 40.9195C107.009 40.9377 106.911 40.9547 106.814 40.9706C106.716 40.9843 106.627 40.9968 106.548 41.0081C106.377 41.0331 106.228 41.0729 106.101 41.1275C105.974 41.182 105.875 41.2559 105.805 41.3491C105.734 41.44 105.699 41.5536 105.699 41.69C105.699 41.8877 105.771 42.0388 105.914 42.1434C106.059 42.2456 106.243 42.2968 106.466 42.2968ZM110.126 43.2002V37.9638H111.534V38.8775H111.588C111.684 38.5525 111.844 38.307 112.069 38.1411C112.294 37.9729 112.553 37.8888 112.846 37.8888C112.919 37.8888 112.997 37.8934 113.081 37.9025C113.165 37.9116 113.239 37.9241 113.303 37.94V39.2286C113.235 39.2081 113.14 39.19 113.02 39.1741C112.9 39.1581 112.789 39.1502 112.689 39.1502C112.476 39.1502 112.285 39.1968 112.117 39.29C111.951 39.3809 111.819 39.5081 111.721 39.6718C111.626 39.8354 111.578 40.0241 111.578 40.2377V43.2002H110.126ZM116.196 43.3025C115.658 43.3025 115.194 43.1934 114.805 42.9752C114.419 42.7547 114.121 42.4434 113.912 42.0411C113.703 41.6366 113.599 41.1581 113.599 40.6059C113.599 40.0672 113.703 39.5945 113.912 39.1877C114.121 38.7809 114.416 38.4638 114.795 38.2366C115.177 38.0093 115.625 37.8956 116.138 37.8956C116.484 37.8956 116.805 37.9513 117.103 38.0627C117.403 38.1718 117.665 38.3366 117.887 38.557C118.112 38.7775 118.287 39.0547 118.412 39.3888C118.537 39.7206 118.6 40.1093 118.6 40.5547V40.9536H114.178V40.0536H117.233C117.233 39.8445 117.187 39.6593 117.096 39.4979C117.005 39.3366 116.879 39.2104 116.718 39.1195C116.559 39.0263 116.374 38.9797 116.162 38.9797C115.942 38.9797 115.746 39.0309 115.576 39.1331C115.408 39.2331 115.276 39.3684 115.18 39.5388C115.085 39.707 115.036 39.8945 115.034 40.1013V40.957C115.034 41.2161 115.082 41.44 115.177 41.6286C115.275 41.8172 115.412 41.9627 115.59 42.065C115.767 42.1672 115.977 42.2184 116.22 42.2184C116.382 42.2184 116.529 42.1956 116.663 42.1502C116.798 42.1047 116.912 42.0366 117.008 41.9456C117.103 41.8547 117.176 41.7434 117.226 41.6116L118.569 41.7002C118.501 42.0229 118.361 42.3047 118.15 42.5456C117.941 42.7843 117.67 42.9706 117.338 43.1047C117.009 43.2366 116.628 43.3025 116.196 43.3025ZM121.797 43.2002V36.2184H126.501V37.4354H123.273V39.0991H126.259V40.3161H123.273V41.9831H126.515V43.2002H121.797ZM129.1 40.1729V43.2002H127.648V37.9638H129.032V38.8877H129.093C129.209 38.5831 129.403 38.3422 129.676 38.165C129.949 37.9854 130.279 37.8956 130.668 37.8956C131.032 37.8956 131.349 37.9752 131.619 38.1343C131.89 38.2934 132.1 38.5206 132.25 38.8161C132.4 39.1093 132.475 39.4593 132.475 39.8661V43.2002H131.023V40.1252C131.025 39.8047 130.943 39.5547 130.777 39.3752C130.611 39.1934 130.383 39.1025 130.092 39.1025C129.896 39.1025 129.724 39.1445 129.574 39.2286C129.426 39.3127 129.31 39.4354 129.226 39.5968C129.144 39.7559 129.102 39.9479 129.1 40.1729ZM135.978 45.2729C135.508 45.2729 135.105 45.2081 134.768 45.0786C134.434 44.9513 134.168 44.7775 133.971 44.557C133.773 44.3366 133.644 44.0888 133.585 43.8138L134.928 43.6331C134.969 43.7377 135.034 43.8354 135.123 43.9263C135.211 44.0172 135.328 44.09 135.474 44.1445C135.622 44.2013 135.801 44.2297 136.013 44.2297C136.328 44.2297 136.589 44.1525 136.793 43.9979C137 43.8456 137.103 43.59 137.103 43.2309V42.2729H137.042C136.978 42.4184 136.883 42.5559 136.756 42.6854C136.628 42.815 136.465 42.9206 136.265 43.0025C136.065 43.0843 135.826 43.1252 135.549 43.1252C135.156 43.1252 134.798 43.0343 134.475 42.8525C134.155 42.6684 133.899 42.3877 133.708 42.0104C133.519 41.6309 133.425 41.1513 133.425 40.5718C133.425 39.9786 133.522 39.4831 133.715 39.0854C133.908 38.6877 134.165 38.39 134.485 38.1922C134.808 37.9945 135.161 37.8956 135.546 37.8956C135.839 37.8956 136.084 37.9456 136.282 38.0456C136.48 38.1434 136.639 38.2661 136.759 38.4138C136.882 38.5593 136.976 38.7025 137.042 38.8434H137.097V37.9638H138.539V43.2513C138.539 43.6968 138.43 44.0695 138.211 44.3695C137.993 44.6695 137.691 44.8945 137.305 45.0445C136.921 45.1968 136.478 45.2729 135.978 45.2729ZM136.009 42.0343C136.243 42.0343 136.441 41.9763 136.602 41.8604C136.766 41.7422 136.891 41.5741 136.977 41.3559C137.066 41.1354 137.11 40.8718 137.11 40.565C137.11 40.2581 137.067 39.9922 136.981 39.7672C136.894 39.54 136.769 39.3638 136.606 39.2388C136.442 39.1138 136.243 39.0513 136.009 39.0513C135.771 39.0513 135.569 39.1161 135.406 39.2456C135.242 39.3729 135.118 39.5502 135.034 39.7775C134.95 40.0047 134.908 40.2672 134.908 40.565C134.908 40.8672 134.95 41.1286 135.034 41.3491C135.121 41.5672 135.244 41.7366 135.406 41.857C135.569 41.9752 135.771 42.0343 136.009 42.0343ZM139.694 43.2002V37.9638H141.147V43.2002H139.694ZM140.424 37.2888C140.208 37.2888 140.023 37.2172 139.868 37.0741C139.716 36.9286 139.64 36.7547 139.64 36.5525C139.64 36.3525 139.716 36.1809 139.868 36.0377C140.023 35.8922 140.208 35.8195 140.424 35.8195C140.64 35.8195 140.824 35.8922 140.976 36.0377C141.131 36.1809 141.208 36.3525 141.208 36.5525C141.208 36.7547 141.131 36.9286 140.976 37.0741C140.824 37.2172 140.64 37.2888 140.424 37.2888ZM143.762 40.1729V43.2002H142.31V37.9638H143.694V38.8877H143.755C143.871 38.5831 144.066 38.3422 144.338 38.165C144.611 37.9854 144.942 37.8956 145.33 37.8956C145.694 37.8956 146.011 37.9752 146.282 38.1343C146.552 38.2934 146.762 38.5206 146.912 38.8161C147.062 39.1093 147.137 39.4593 147.137 39.8661V43.2002H145.685V40.1252C145.687 39.8047 145.605 39.5547 145.44 39.3752C145.274 39.1934 145.045 39.1025 144.754 39.1025C144.559 39.1025 144.386 39.1445 144.236 39.2286C144.088 39.3127 143.973 39.4354 143.888 39.5968C143.807 39.7559 143.765 39.9479 143.762 40.1729ZM150.668 43.3025C150.13 43.3025 149.666 43.1934 149.277 42.9752C148.891 42.7547 148.593 42.4434 148.384 42.0411C148.175 41.6366 148.071 41.1581 148.071 40.6059C148.071 40.0672 148.175 39.5945 148.384 39.1877C148.593 38.7809 148.888 38.4638 149.267 38.2366C149.649 38.0093 150.097 37.8956 150.61 37.8956C150.956 37.8956 151.277 37.9513 151.575 38.0627C151.875 38.1718 152.136 38.3366 152.359 38.557C152.584 38.7775 152.759 39.0547 152.884 39.3888C153.009 39.7206 153.072 40.1093 153.072 40.5547V40.9536H148.65V40.0536H151.705C151.705 39.8445 151.659 39.6593 151.568 39.4979C151.477 39.3366 151.351 39.2104 151.19 39.1195C151.031 39.0263 150.846 38.9797 150.634 38.9797C150.414 38.9797 150.218 39.0309 150.048 39.1331C149.88 39.2331 149.748 39.3684 149.652 39.5388C149.557 39.707 149.508 39.8945 149.506 40.1013V40.957C149.506 41.2161 149.553 41.44 149.649 41.6286C149.747 41.8172 149.884 41.9627 150.061 42.065C150.239 42.1672 150.449 42.2184 150.692 42.2184C150.853 42.2184 151.001 42.1956 151.135 42.1502C151.269 42.1047 151.384 42.0366 151.48 41.9456C151.575 41.8547 151.648 41.7434 151.698 41.6116L153.041 41.7002C152.973 42.0229 152.833 42.3047 152.622 42.5456C152.413 42.7843 152.142 42.9706 151.81 43.1047C151.481 43.2366 151.1 43.3025 150.668 43.3025ZM156.406 43.3025C155.867 43.3025 155.403 43.1934 155.015 42.9752C154.628 42.7547 154.331 42.4434 154.122 42.0411C153.913 41.6366 153.808 41.1581 153.808 40.6059C153.808 40.0672 153.913 39.5945 154.122 39.1877C154.331 38.7809 154.625 38.4638 155.005 38.2366C155.386 38.0093 155.834 37.8956 156.348 37.8956C156.693 37.8956 157.015 37.9513 157.313 38.0627C157.613 38.1718 157.874 38.3366 158.097 38.557C158.322 38.7775 158.497 39.0547 158.622 39.3888C158.747 39.7206 158.809 40.1093 158.809 40.5547V40.9536H154.388V40.0536H157.442C157.442 39.8445 157.397 39.6593 157.306 39.4979C157.215 39.3366 157.089 39.2104 156.927 39.1195C156.768 39.0263 156.583 38.9797 156.372 38.9797C156.151 38.9797 155.956 39.0309 155.785 39.1331C155.617 39.2331 155.485 39.3684 155.39 39.5388C155.294 39.707 155.246 39.8945 155.243 40.1013V40.957C155.243 41.2161 155.291 41.44 155.386 41.6286C155.484 41.8172 155.622 41.9627 155.799 42.065C155.976 42.1672 156.186 42.2184 156.43 42.2184C156.591 42.2184 156.739 42.1956 156.873 42.1502C157.007 42.1047 157.122 42.0366 157.217 41.9456C157.313 41.8547 157.385 41.7434 157.435 41.6116L158.778 41.7002C158.71 42.0229 158.571 42.3047 158.359 42.5456C158.15 42.7843 157.88 42.9706 157.548 43.1047C157.218 43.2366 156.838 43.3025 156.406 43.3025ZM159.757 43.2002V37.9638H161.165V38.8775H161.219C161.315 38.5525 161.475 38.307 161.7 38.1411C161.925 37.9729 162.184 37.8888 162.477 37.8888C162.55 37.8888 162.628 37.8934 162.713 37.9025C162.797 37.9116 162.871 37.9241 162.934 37.94V39.2286C162.866 39.2081 162.772 39.19 162.651 39.1741C162.531 39.1581 162.421 39.1502 162.321 39.1502C162.107 39.1502 161.916 39.1968 161.748 39.29C161.582 39.3809 161.45 39.5081 161.352 39.6718C161.257 39.8354 161.209 40.0241 161.209 40.2377V43.2002H159.757Z" fill="#092AD0"/>
<rect x="76.4992" y="49.5002" width="35.4" height="14.4" rx="2.7" fill="#092AD0" fill-opacity="0.56" stroke="#092AD0" stroke-width="0.6"/>
<path d="M82.8191 59.2002L83.6782 53.9638H84.4964L83.6373 59.2002H82.8191ZM80.4745 57.9013L80.61 57.0831H84.701L84.5654 57.9013H80.4745ZM80.9782 59.2002L81.8373 53.9638H82.6555L81.7964 59.2002H80.9782ZM80.7737 56.0809L80.9118 55.2627H85.0027L84.8646 56.0809H80.7737ZM87.1977 59.2002V53.9638H89.2636C89.6591 53.9638 89.9966 54.0346 90.2761 54.176C90.5574 54.3158 90.7713 54.5144 90.9179 54.7718C91.0662 55.0275 91.1403 55.3283 91.1403 55.6743C91.1403 56.0221 91.0653 56.3212 90.9153 56.5718C90.7653 56.8206 90.548 57.0116 90.2633 57.1445C89.9804 57.2775 89.6377 57.3439 89.2355 57.3439H87.8522V56.4542H89.0565C89.2679 56.4542 89.4434 56.4252 89.5832 56.3672C89.723 56.3093 89.827 56.2224 89.8951 56.1064C89.965 55.9905 90 55.8465 90 55.6743C90 55.5005 89.965 55.3539 89.8951 55.2346C89.827 55.1153 89.7221 55.0249 89.5806 54.9635C89.4409 54.9005 89.2645 54.8689 89.0514 54.8689H88.3048V59.2002H87.1977ZM90.0255 56.8172L91.327 59.2002H90.1048L88.8315 56.8172H90.0255ZM93.6287 59.2769C93.2248 59.2769 92.877 59.1951 92.5855 59.0314C92.2958 58.8661 92.0725 58.6326 91.9157 58.3309C91.7588 58.0275 91.6804 57.6687 91.6804 57.2545C91.6804 56.8505 91.7588 56.4959 91.9157 56.1908C92.0725 55.8857 92.2932 55.6479 92.5779 55.4775C92.8642 55.307 93.2 55.2218 93.5853 55.2218C93.8444 55.2218 94.0855 55.2635 94.3088 55.3471C94.5338 55.4289 94.7299 55.5525 94.8969 55.7178C95.0657 55.8831 95.1969 56.0911 95.2907 56.3417C95.3844 56.5905 95.4313 56.882 95.4313 57.2161V57.5153H92.1151V56.8403H94.406C94.406 56.6834 94.3719 56.5445 94.3037 56.4235C94.2355 56.3025 94.1409 56.2079 94.0199 56.1397C93.9006 56.0698 93.7617 56.0349 93.6032 56.0349C93.4378 56.0349 93.2912 56.0732 93.1634 56.1499C93.0373 56.2249 92.9384 56.3263 92.8668 56.4542C92.7952 56.5803 92.7586 56.7209 92.7569 56.876V57.5178C92.7569 57.7121 92.7926 57.88 92.8642 58.0215C92.9375 58.163 93.0407 58.2721 93.1736 58.3488C93.3066 58.4255 93.4642 58.4638 93.6466 58.4638C93.7676 58.4638 93.8784 58.4468 93.979 58.4127C94.0796 58.3786 94.1657 58.3275 94.2373 58.2593C94.3088 58.1911 94.3634 58.1076 94.4009 58.0087L95.4083 58.0752C95.3571 58.3172 95.2523 58.5286 95.0938 58.7093C94.937 58.8883 94.7341 59.028 94.4853 59.1286C94.2381 59.2275 93.9526 59.2769 93.6287 59.2769ZM97.262 59.2743C97.0114 59.2743 96.7881 59.2309 96.5921 59.1439C96.3961 59.0553 96.2409 58.9249 96.1267 58.7528C96.0142 58.5789 95.958 58.3624 95.958 58.1033C95.958 57.8851 95.998 57.7019 96.0782 57.5536C96.1583 57.4053 96.2674 57.286 96.4054 57.1956C96.5435 57.1053 96.7003 57.0371 96.8759 56.9911C97.0532 56.9451 97.239 56.9127 97.4333 56.8939C97.6617 56.8701 97.8458 56.8479 97.9855 56.8275C98.1253 56.8053 98.2267 56.7729 98.2898 56.7303C98.3529 56.6877 98.3844 56.6246 98.3844 56.5411V56.5258C98.3844 56.3638 98.3333 56.2385 98.231 56.1499C98.1304 56.0613 97.9873 56.017 97.8015 56.017C97.6054 56.017 97.4495 56.0604 97.3336 56.1474C97.2176 56.2326 97.1409 56.34 97.1034 56.4695L96.0961 56.3877C96.1472 56.1491 96.2478 55.9428 96.3978 55.7689C96.5478 55.5934 96.7412 55.4587 96.9782 55.365C97.2168 55.2695 97.4929 55.2218 97.8066 55.2218C98.0248 55.2218 98.2336 55.2474 98.433 55.2985C98.6341 55.3496 98.8123 55.4289 98.9674 55.5363C99.1242 55.6437 99.2478 55.7817 99.3381 55.9505C99.4284 56.1175 99.4736 56.3178 99.4736 56.5513V59.2002H98.4407V58.6556H98.41C98.3469 58.7783 98.2625 58.8866 98.1569 58.9803C98.0512 59.0724 97.9242 59.1448 97.7759 59.1976C97.6276 59.2488 97.4563 59.2743 97.262 59.2743ZM97.5739 58.5226C97.7341 58.5226 97.8756 58.4911 97.9983 58.428C98.1211 58.3633 98.2174 58.2763 98.2873 58.1672C98.3571 58.0581 98.3921 57.9346 98.3921 57.7965V57.3797C98.358 57.4019 98.3111 57.4224 98.2515 57.4411C98.1935 57.4581 98.1279 57.4743 98.0546 57.4897C97.9813 57.5033 97.908 57.5161 97.8347 57.528C97.7614 57.5383 97.6949 57.5476 97.6353 57.5562C97.5074 57.5749 97.3958 57.6047 97.3003 57.6456C97.2049 57.6866 97.1307 57.742 97.0779 57.8118C97.025 57.88 96.9986 57.9653 96.9986 58.0675C96.9986 58.2158 97.0523 58.3292 97.1597 58.4076C97.2688 58.4843 97.4069 58.5226 97.5739 58.5226ZM102.093 59.2769C101.691 59.2769 101.345 59.1917 101.055 59.0212C100.767 58.8491 100.545 58.6104 100.39 58.3053C100.237 58.0002 100.16 57.6491 100.16 57.2519C100.16 56.8496 100.238 56.4968 100.393 56.1934C100.55 55.8883 100.772 55.6505 101.06 55.48C101.348 55.3079 101.691 55.2218 102.088 55.2218C102.431 55.2218 102.731 55.284 102.988 55.4084C103.245 55.5329 103.449 55.7076 103.599 55.9326C103.749 56.1576 103.832 56.4218 103.847 56.7252H102.819C102.79 56.5292 102.714 56.3715 102.589 56.2522C102.466 56.1312 102.305 56.0706 102.106 56.0706C101.937 56.0706 101.79 56.1167 101.664 56.2087C101.539 56.2991 101.442 56.4312 101.372 56.605C101.302 56.7789 101.267 56.9894 101.267 57.2366C101.267 57.4871 101.301 57.7002 101.369 57.8758C101.439 58.0513 101.537 58.1851 101.664 58.2772C101.79 58.3692 101.937 58.4153 102.106 58.4153C102.23 58.4153 102.342 58.3897 102.441 58.3385C102.541 58.2874 102.624 58.2133 102.689 58.1161C102.755 58.0172 102.799 57.8988 102.819 57.7607H103.847C103.83 58.0607 103.748 58.3249 103.602 58.5533C103.457 58.78 103.256 58.9573 103.001 59.0851C102.745 59.213 102.443 59.2769 102.093 59.2769ZM106.633 55.2729V56.0911H104.268V55.2729H106.633ZM104.805 54.332H105.894V57.9934C105.894 58.0939 105.91 58.1724 105.94 58.2286C105.971 58.2831 106.014 58.3215 106.068 58.3437C106.125 58.3658 106.189 58.3769 106.263 58.3769C106.314 58.3769 106.365 58.3726 106.416 58.3641C106.467 58.3539 106.506 58.3462 106.534 58.3411L106.705 59.1516C106.65 59.1687 106.574 59.1883 106.475 59.2104C106.376 59.2343 106.256 59.2488 106.114 59.2539C105.852 59.2641 105.622 59.2292 105.424 59.1491C105.228 59.0689 105.075 58.9445 104.966 58.7758C104.857 58.607 104.804 58.3939 104.805 58.1366V54.332Z" fill="white"/>
<rect x="117.9" y="49.5002" width="56.4" height="14.4" rx="2.7" fill="#092AD0" fill-opacity="0.56" stroke="#092AD0" stroke-width="0.6"/>
<path d="M126.018 59.2002L126.877 53.9638H127.696L126.837 59.2002H126.018ZM123.674 57.9013L123.809 57.0831H127.9L127.765 57.9013H123.674ZM124.177 59.2002L125.037 53.9638H125.855L124.996 59.2002H124.177ZM123.973 56.0809L124.111 55.2627H128.202L128.064 56.0809H123.973ZM123.855 63.8766V62.9638H128.156V63.8766H126.553V68.2002H125.458V63.8766H123.855ZM129.066 69.6729C128.928 69.6729 128.798 69.6618 128.677 69.6397C128.558 69.6192 128.459 69.5928 128.381 69.5604L128.626 68.7474C128.754 68.7866 128.869 68.8079 128.971 68.8113C129.075 68.8147 129.165 68.7908 129.24 68.7397C129.317 68.6885 129.379 68.6016 129.427 68.4789L129.491 68.3127L128.082 64.2729H129.227L130.04 67.157H130.081L130.902 64.2729H132.055L130.529 68.6246C130.455 68.836 130.356 69.0201 130.229 69.1769C130.105 69.3354 129.947 69.4573 129.756 69.5425C129.566 69.6295 129.335 69.6729 129.066 69.6729ZM132.612 69.6729V64.2729H133.686V64.9326H133.735C133.783 64.8269 133.852 64.7195 133.942 64.6104C134.034 64.4996 134.153 64.4076 134.3 64.3343C134.448 64.2593 134.632 64.2218 134.852 64.2218C135.139 64.2218 135.403 64.2968 135.645 64.4468C135.887 64.5951 136.08 64.8192 136.225 65.1192C136.37 65.4175 136.443 65.7917 136.443 66.2417C136.443 66.6797 136.372 67.0496 136.23 67.3513C136.091 67.6513 135.9 67.8789 135.658 68.034C135.417 68.1874 135.148 68.2641 134.85 68.2641C134.638 68.2641 134.458 68.2292 134.31 68.1593C134.164 68.0894 134.043 68.0016 133.95 67.8959C133.856 67.7885 133.784 67.6803 133.735 67.5712H133.702V69.6729H132.612ZM133.679 66.2366C133.679 66.4701 133.711 66.6738 133.776 66.8476C133.841 67.0215 133.934 67.157 134.057 67.2542C134.18 67.3496 134.329 67.3974 134.504 67.3974C134.682 67.3974 134.832 67.3488 134.954 67.2516C135.077 67.1528 135.17 67.0164 135.233 66.8425C135.298 66.667 135.33 66.465 135.33 66.2366C135.33 66.0099 135.299 65.8104 135.236 65.6383C135.173 65.4661 135.08 65.3314 134.957 65.2343C134.834 65.1371 134.683 65.0885 134.504 65.0885C134.327 65.0885 134.177 65.1354 134.054 65.2292C133.933 65.3229 133.841 65.4559 133.776 65.628C133.711 65.8002 133.679 66.003 133.679 66.2366ZM138.958 68.2769C138.554 68.2769 138.207 68.1951 137.915 68.0314C137.625 67.8661 137.402 67.6326 137.245 67.3309C137.089 67.0275 137.01 66.6687 137.01 66.2545C137.01 65.8505 137.089 65.4959 137.245 65.1908C137.402 64.8857 137.623 64.6479 137.908 64.4775C138.194 64.307 138.53 64.2218 138.915 64.2218C139.174 64.2218 139.415 64.2635 139.639 64.3471C139.864 64.4289 140.06 64.5525 140.227 64.7178C140.395 64.8831 140.527 65.0911 140.62 65.3417C140.714 65.5905 140.761 65.882 140.761 66.2161V66.5153H137.445V65.8403H139.736C139.736 65.6834 139.702 65.5445 139.633 65.4235C139.565 65.3025 139.471 65.2079 139.35 65.1397C139.23 65.0698 139.091 65.0349 138.933 65.0349C138.768 65.0349 138.621 65.0732 138.493 65.1499C138.367 65.2249 138.268 65.3263 138.196 65.4542C138.125 65.5803 138.088 65.7209 138.087 65.876V66.5178C138.087 66.7121 138.122 66.88 138.194 67.0215C138.267 67.163 138.37 67.2721 138.503 67.3488C138.636 67.4255 138.794 67.4638 138.976 67.4638C139.097 67.4638 139.208 67.4468 139.309 67.4127C139.409 67.3786 139.495 67.3275 139.567 67.2593C139.639 67.1911 139.693 67.1076 139.731 67.0087L140.738 67.0752C140.687 67.3172 140.582 67.5286 140.423 67.7093C140.267 67.8883 140.064 68.028 139.815 68.1286C139.568 68.2275 139.282 68.2769 138.958 68.2769ZM144.739 65.3928L143.742 65.4542C143.725 65.3689 143.689 65.2922 143.632 65.2241C143.576 65.1542 143.502 65.0988 143.41 65.0579C143.319 65.0153 143.211 64.9939 143.085 64.9939C142.916 64.9939 142.774 65.0297 142.658 65.1013C142.542 65.1712 142.484 65.265 142.484 65.3826C142.484 65.4763 142.522 65.5556 142.597 65.6204C142.672 65.6851 142.8 65.7371 142.983 65.7763L143.694 65.9195C144.075 65.9979 144.36 66.1241 144.548 66.2979C144.735 66.4718 144.829 66.7002 144.829 66.9831C144.829 67.2405 144.753 67.4664 144.601 67.6607C144.451 67.855 144.245 68.0067 143.983 68.1158C143.722 68.2232 143.421 68.2769 143.08 68.2769C142.56 68.2769 142.146 68.1687 141.837 67.9522C141.531 67.734 141.351 67.4374 141.298 67.0624L142.369 67.0062C142.402 67.1647 142.48 67.2857 142.604 67.3692C142.729 67.451 142.888 67.492 143.083 67.492C143.273 67.492 143.427 67.4553 143.543 67.382C143.66 67.307 143.72 67.2107 143.722 67.0931C143.72 66.9942 143.678 66.9133 143.596 66.8502C143.515 66.7854 143.389 66.736 143.218 66.7019L142.538 66.5664C142.154 66.4897 141.869 66.3567 141.681 66.1675C141.496 65.9783 141.403 65.7371 141.403 65.4439C141.403 65.1917 141.471 64.9743 141.607 64.792C141.745 64.6096 141.939 64.4689 142.188 64.3701C142.438 64.2712 142.731 64.2218 143.067 64.2218C143.563 64.2218 143.954 64.3266 144.238 64.5363C144.525 64.7459 144.692 65.0314 144.739 65.3928ZM147.289 68.2769C146.887 68.2769 146.541 68.1917 146.251 68.0212C145.963 67.8491 145.741 67.6104 145.586 67.3053C145.433 67.0002 145.356 66.6491 145.356 66.2519C145.356 65.8496 145.434 65.4968 145.589 65.1934C145.746 64.8883 145.968 64.6505 146.256 64.48C146.544 64.3079 146.887 64.2218 147.284 64.2218C147.627 64.2218 147.927 64.284 148.184 64.4084C148.441 64.5329 148.645 64.7076 148.795 64.9326C148.945 65.1576 149.028 65.4218 149.043 65.7252H148.015C147.986 65.5292 147.91 65.3715 147.785 65.2522C147.662 65.1312 147.501 65.0706 147.302 65.0706C147.133 65.0706 146.986 65.1167 146.86 65.2087C146.735 65.2991 146.638 65.4312 146.568 65.605C146.498 65.7789 146.463 65.9894 146.463 66.2366C146.463 66.4871 146.497 66.7002 146.566 66.8758C146.635 67.0513 146.733 67.1851 146.86 67.2772C146.986 67.3692 147.133 67.4153 147.302 67.4153C147.426 67.4153 147.538 67.3897 147.637 67.3385C147.737 67.2874 147.82 67.2133 147.885 67.1161C147.951 67.0172 147.995 66.8988 148.015 66.7607H149.043C149.026 67.0607 148.944 67.3249 148.798 67.5533C148.653 67.78 148.453 67.9573 148.197 68.0851C147.941 68.213 147.639 68.2769 147.289 68.2769ZM149.741 68.2002V64.2729H150.796V64.9581H150.837C150.909 64.7144 151.029 64.5303 151.198 64.4059C151.367 64.2797 151.561 64.2167 151.781 64.2167C151.835 64.2167 151.894 64.2201 151.957 64.2269C152.02 64.2337 152.076 64.2431 152.123 64.255V65.2215C152.072 65.2062 152.002 65.1925 151.911 65.1806C151.821 65.1687 151.738 65.1627 151.663 65.1627C151.503 65.1627 151.36 65.1976 151.234 65.2675C151.109 65.3357 151.01 65.4312 150.937 65.5539C150.866 65.6766 150.83 65.8181 150.83 65.9783V68.2002H149.741ZM124.034 77.2002V73.2729H125.123V77.2002H124.034ZM124.581 72.7667C124.419 72.7667 124.281 72.713 124.165 72.6056C124.05 72.4965 123.993 72.3661 123.993 72.2144C123.993 72.0644 124.05 71.9357 124.165 71.8283C124.281 71.7192 124.419 71.6647 124.581 71.6647C124.743 71.6647 124.881 71.7192 124.996 71.8283C125.112 71.9357 125.169 72.0644 125.169 72.2144C125.169 72.3661 125.112 72.4965 124.996 72.6056C124.881 72.713 124.743 72.7667 124.581 72.7667ZM125.996 78.6729V73.2729H127.07V73.9326H127.118C127.166 73.8269 127.235 73.7195 127.326 73.6104C127.418 73.4996 127.537 73.4076 127.683 73.3343C127.832 73.2593 128.016 73.2218 128.236 73.2218C128.522 73.2218 128.786 73.2968 129.028 73.4468C129.27 73.5951 129.464 73.8192 129.609 74.1192C129.754 74.4175 129.826 74.7917 129.826 75.2417C129.826 75.6797 129.755 76.0496 129.614 76.3513C129.474 76.6513 129.283 76.8789 129.041 77.034C128.801 77.1874 128.531 77.2641 128.233 77.2641C128.022 77.2641 127.842 77.2292 127.694 77.1593C127.547 77.0894 127.427 77.0016 127.333 76.8959C127.239 76.7885 127.168 76.6803 127.118 76.5712H127.085V78.6729H125.996ZM127.062 75.2366C127.062 75.4701 127.095 75.6738 127.159 75.8476C127.224 76.0215 127.318 76.157 127.441 76.2542C127.563 76.3496 127.712 76.3974 127.888 76.3974C128.065 76.3974 128.215 76.3488 128.338 76.2516C128.461 76.1528 128.554 76.0164 128.617 75.8425C128.681 75.667 128.714 75.465 128.714 75.2366C128.714 75.0099 128.682 74.8104 128.619 74.6383C128.556 74.4661 128.463 74.3314 128.341 74.2343C128.218 74.1371 128.067 74.0885 127.888 74.0885C127.711 74.0885 127.561 74.1354 127.438 74.2292C127.317 74.3229 127.224 74.4559 127.159 74.628C127.095 74.8002 127.062 75.003 127.062 75.2366ZM132.641 73.2729V74.0911H130.276V73.2729H132.641ZM130.813 72.332H131.902V75.9934C131.902 76.0939 131.918 76.1724 131.948 76.2286C131.979 76.2831 132.022 76.3215 132.076 76.3437C132.132 76.3658 132.197 76.3769 132.27 76.3769C132.322 76.3769 132.373 76.3726 132.424 76.3641C132.475 76.3539 132.514 76.3462 132.541 76.3411L132.713 77.1516C132.658 77.1687 132.581 77.1883 132.483 77.2104C132.384 77.2343 132.264 77.2488 132.122 77.2539C131.86 77.2641 131.63 77.2292 131.432 77.1491C131.236 77.0689 131.083 76.9445 130.974 76.7758C130.865 76.607 130.811 76.3939 130.813 76.1366V72.332Z" fill="white"/>
<rect x="180.3" y="49.5002" width="53.4" height="14.4" rx="2.7" fill="#092AD0" fill-opacity="0.56" stroke="#092AD0" stroke-width="0.6"/>
<path d="M190.22 59.2002L191.079 53.9638H191.897L191.038 59.2002H190.22ZM187.875 57.9013L188.01 57.0831H192.101L191.966 57.9013H187.875ZM188.379 59.2002L189.238 53.9638H190.056L189.197 59.2002H188.379ZM188.174 56.0809L188.312 55.2627H192.403L192.265 56.0809H188.174ZM198.07 55.6564C198.034 55.532 197.984 55.4221 197.919 55.3266C197.855 55.2295 197.775 55.1476 197.682 55.0812C197.59 55.013 197.484 54.961 197.365 54.9252C197.247 54.8894 197.117 54.8715 196.973 54.8715C196.706 54.8715 196.471 54.938 196.268 55.0709C196.067 55.2039 195.91 55.3974 195.797 55.6513C195.685 55.9036 195.628 56.2121 195.628 56.5769C195.628 56.9417 195.684 57.2519 195.795 57.5076C195.905 57.7633 196.062 57.9584 196.265 58.0931C196.468 58.226 196.707 58.2925 196.984 58.2925C197.234 58.2925 197.448 58.2482 197.625 58.1596C197.804 58.0692 197.941 57.9422 198.034 57.7786C198.13 57.615 198.178 57.4215 198.178 57.1982L198.403 57.2314H197.053V56.3979H199.244V57.0576C199.244 57.5178 199.147 57.9133 198.952 58.2439C198.758 58.5729 198.49 58.8269 198.15 59.0059C197.809 59.1831 197.418 59.2718 196.978 59.2718C196.488 59.2718 196.056 59.1635 195.685 58.9471C195.313 58.7289 195.023 58.4195 194.815 58.0189C194.609 57.6167 194.506 57.1394 194.506 56.5871C194.506 56.1627 194.567 55.7843 194.69 55.4519C194.815 55.1178 194.988 54.8349 195.212 54.603C195.435 54.3712 195.695 54.1948 195.992 54.0738C196.288 53.9528 196.609 53.8922 196.955 53.8922C197.252 53.8922 197.528 53.9357 197.784 54.0226C198.04 54.1079 198.266 54.2289 198.464 54.3857C198.663 54.5425 198.826 54.7292 198.952 54.9456C199.078 55.1604 199.159 55.3974 199.195 55.6564H198.07ZM200.055 59.2002V55.2729H201.111V55.9581H201.152C201.223 55.7144 201.344 55.5303 201.512 55.4059C201.681 55.2797 201.875 55.2167 202.095 55.2167C202.15 55.2167 202.209 55.2201 202.272 55.2269C202.335 55.2337 202.39 55.2431 202.438 55.255V56.2215C202.387 56.2062 202.316 56.1925 202.226 56.1806C202.135 56.1687 202.053 56.1627 201.978 56.1627C201.817 56.1627 201.674 56.1976 201.548 56.2675C201.424 56.3357 201.325 56.4312 201.252 56.5539C201.18 56.6766 201.144 56.8181 201.144 56.9783V59.2002H200.055ZM204.008 59.2743C203.758 59.2743 203.535 59.2309 203.339 59.1439C203.143 59.0553 202.987 58.9249 202.873 58.7528C202.761 58.5789 202.704 58.3624 202.704 58.1033C202.704 57.8851 202.745 57.7019 202.825 57.5536C202.905 57.4053 203.014 57.286 203.152 57.1956C203.29 57.1053 203.447 57.0371 203.622 56.9911C203.8 56.9451 203.985 56.9127 204.18 56.8939C204.408 56.8701 204.592 56.8479 204.732 56.8275C204.872 56.8053 204.973 56.7729 205.036 56.7303C205.099 56.6877 205.131 56.6246 205.131 56.5411V56.5258C205.131 56.3638 205.08 56.2385 204.977 56.1499C204.877 56.0613 204.734 56.017 204.548 56.017C204.352 56.017 204.196 56.0604 204.08 56.1474C203.964 56.2326 203.887 56.34 203.85 56.4695L202.843 56.3877C202.894 56.1491 202.994 55.9428 203.144 55.7689C203.294 55.5934 203.488 55.4587 203.725 55.365C203.963 55.2695 204.239 55.2218 204.553 55.2218C204.771 55.2218 204.98 55.2474 205.179 55.2985C205.381 55.3496 205.559 55.4289 205.714 55.5363C205.871 55.6437 205.994 55.7817 206.085 55.9505C206.175 56.1175 206.22 56.3178 206.22 56.5513V59.2002H205.187V58.6556H205.156C205.093 58.7783 205.009 58.8866 204.903 58.9803C204.798 59.0724 204.671 59.1448 204.522 59.1976C204.374 59.2488 204.203 59.2743 204.008 59.2743ZM204.32 58.5226C204.481 58.5226 204.622 58.4911 204.745 58.428C204.868 58.3633 204.964 58.2763 205.034 58.1672C205.104 58.0581 205.139 57.9346 205.139 57.7965V57.3797C205.104 57.4019 205.058 57.4224 204.998 57.4411C204.94 57.4581 204.874 57.4743 204.801 57.4897C204.728 57.5033 204.654 57.5161 204.581 57.528C204.508 57.5383 204.441 57.5476 204.382 57.5562C204.254 57.5749 204.142 57.6047 204.047 57.6456C203.951 57.6866 203.877 57.742 203.824 57.8118C203.772 57.88 203.745 57.9653 203.745 58.0675C203.745 58.2158 203.799 58.3292 203.906 58.4076C204.015 58.4843 204.153 58.5226 204.32 58.5226ZM207.065 60.6729V55.2729H208.139V55.9326H208.188C208.235 55.8269 208.304 55.7195 208.395 55.6104C208.487 55.4996 208.606 55.4076 208.753 55.3343C208.901 55.2593 209.085 55.2218 209.305 55.2218C209.591 55.2218 209.855 55.2968 210.098 55.4468C210.34 55.5951 210.533 55.8192 210.678 56.1192C210.823 56.4175 210.895 56.7917 210.895 57.2417C210.895 57.6797 210.825 58.0496 210.683 58.3513C210.543 58.6513 210.352 58.8789 210.11 59.034C209.87 59.1874 209.601 59.2641 209.302 59.2641C209.091 59.2641 208.911 59.2292 208.763 59.1593C208.616 59.0894 208.496 59.0016 208.402 58.8959C208.309 58.7885 208.237 58.6803 208.188 58.5712H208.154V60.6729H207.065ZM208.131 57.2366C208.131 57.4701 208.164 57.6738 208.228 57.8476C208.293 58.0215 208.387 58.157 208.51 58.2542C208.632 58.3496 208.782 58.3974 208.957 58.3974C209.134 58.3974 209.284 58.3488 209.407 58.2516C209.53 58.1528 209.623 58.0164 209.686 57.8425C209.751 57.667 209.783 57.465 209.783 57.2366C209.783 57.0099 209.751 56.8104 209.688 56.6383C209.625 56.4661 209.532 56.3314 209.41 56.2343C209.287 56.1371 209.136 56.0885 208.957 56.0885C208.78 56.0885 208.63 56.1354 208.507 56.2292C208.386 56.3229 208.293 56.4559 208.228 56.628C208.164 56.8002 208.131 57.003 208.131 57.2366ZM212.711 56.9297V59.2002H211.621V53.9638H212.68V55.9658H212.726C212.815 55.734 212.958 55.5525 213.155 55.4212C213.353 55.2883 213.601 55.2218 213.9 55.2218C214.172 55.2218 214.41 55.2814 214.613 55.4008C214.817 55.5184 214.976 55.688 215.088 55.9096C215.203 56.1295 215.259 56.3928 215.257 56.6996V59.2002H214.168V56.8939C214.17 56.6519 214.108 56.4635 213.984 56.3289C213.861 56.1942 213.689 56.1269 213.467 56.1269C213.319 56.1269 213.188 56.1584 213.074 56.2215C212.961 56.2846 212.873 56.3766 212.808 56.4976C212.745 56.617 212.712 56.761 212.711 56.9297ZM218.111 57.3797H219.052L219.525 57.9883L219.99 58.5303L220.867 59.6297H219.835L219.231 58.8883L218.922 58.4485L218.111 57.3797ZM220.947 56.582C220.947 57.153 220.838 57.6388 220.622 58.0394C220.407 58.44 220.114 58.7459 219.742 58.9573C219.373 59.167 218.957 59.2718 218.495 59.2718C218.029 59.2718 217.612 59.1661 217.242 58.9547C216.872 58.7434 216.58 58.4374 216.365 58.0368C216.15 57.6363 216.043 57.1513 216.043 56.582C216.043 56.011 216.15 55.5252 216.365 55.1246C216.58 54.7241 216.872 54.4189 217.242 54.2093C217.612 53.9979 218.029 53.8922 218.495 53.8922C218.957 53.8922 219.373 53.9979 219.742 54.2093C220.114 54.4189 220.407 54.7241 220.622 55.1246C220.838 55.5252 220.947 56.011 220.947 56.582ZM219.824 56.582C219.824 56.2121 219.769 55.9002 219.658 55.6462C219.549 55.3922 219.395 55.1996 219.195 55.0684C218.996 54.9371 218.762 54.8715 218.495 54.8715C218.227 54.8715 217.994 54.9371 217.794 55.0684C217.595 55.1996 217.44 55.3922 217.329 55.6462C217.22 55.9002 217.165 56.2121 217.165 56.582C217.165 56.9519 217.22 57.2638 217.329 57.5178C217.44 57.7718 217.595 57.9644 217.794 58.0956C217.994 58.2269 218.227 58.2925 218.495 58.2925C218.762 58.2925 218.996 58.2269 219.195 58.0956C219.395 57.9644 219.549 57.7718 219.658 57.5178C219.769 57.2638 219.824 56.9519 219.824 56.582ZM221.767 59.2002V53.9638H222.874V58.2874H225.119V59.2002H221.767Z" fill="white"/>
<rect width="300" height="81" rx="21" fill="white"/>
<circle cx="45" cy="40.2002" r="24" fill="#C4C4C4"/>
<rect x="34.1992" y="43.2002" width="21.6" height="12" rx="3" fill="white"/>
<circle cx="44.6992" cy="33.2998" r="7.5" fill="white"/>
<path d="M80.4521 22.4729H82.2759V28.5581C82.2759 29.1206 82.1495 29.6093 81.8967 30.0241C81.6467 30.4388 81.2987 30.7584 80.8526 30.9829C80.4066 31.2073 79.8881 31.3195 79.2972 31.3195C78.7717 31.3195 78.2944 31.2272 77.8654 31.0425C77.4393 30.855 77.1012 30.5709 76.8512 30.1903C76.6012 29.8067 76.4776 29.3252 76.4805 28.7456H78.3171C78.3228 28.9758 78.3697 29.1732 78.4577 29.338C78.5487 29.4999 78.6722 29.6249 78.8285 29.713C78.9876 29.7982 79.1751 29.8408 79.391 29.8408C79.6183 29.8408 79.81 29.7925 79.9663 29.6959C80.1254 29.5965 80.2461 29.4516 80.3285 29.2613C80.4109 29.0709 80.4521 28.8366 80.4521 28.5581V22.4729ZM86.7248 31.328C86.0629 31.328 85.4904 31.1874 85.0075 30.9062C84.5273 30.6221 84.1566 30.2272 83.8952 29.7215C83.6339 29.213 83.5032 28.6235 83.5032 27.953C83.5032 27.2769 83.6339 26.686 83.8952 26.1803C84.1566 25.6718 84.5273 25.2769 85.0075 24.9956C85.4904 24.7116 86.0629 24.5695 86.7248 24.5695C87.3867 24.5695 87.9577 24.7116 88.4379 24.9956C88.9208 25.2769 89.293 25.6718 89.5543 26.1803C89.8157 26.686 89.9464 27.2769 89.9464 27.953C89.9464 28.6235 89.8157 29.213 89.5543 29.7215C89.293 30.2272 88.9208 30.6221 88.4379 30.9062C87.9577 31.1874 87.3867 31.328 86.7248 31.328ZM86.7333 29.9218C87.0344 29.9218 87.2859 29.8366 87.4876 29.6661C87.6893 29.4928 87.8413 29.257 87.9435 28.9587C88.0487 28.6604 88.1012 28.3209 88.1012 27.9403C88.1012 27.5596 88.0487 27.2201 87.9435 26.9218C87.8413 26.6235 87.6893 26.3877 87.4876 26.2144C87.2859 26.0411 87.0344 25.9545 86.7333 25.9545C86.4293 25.9545 86.1737 26.0411 85.9663 26.2144C85.7617 26.3877 85.6069 26.6235 85.5018 26.9218C85.3995 27.2201 85.3484 27.5596 85.3484 27.9403C85.3484 28.3209 85.3995 28.6604 85.5018 28.9587C85.6069 29.257 85.7617 29.4928 85.9663 29.6661C86.1737 29.8366 86.4293 29.9218 86.7333 29.9218ZM91.1268 31.2002V24.6547H92.8867V25.7968H92.9549C93.0742 25.3905 93.2745 25.0837 93.5558 24.8763C93.837 24.6661 94.1609 24.561 94.5273 24.561C94.6183 24.561 94.7163 24.5667 94.8214 24.578C94.9265 24.5894 95.0188 24.605 95.0984 24.6249V26.2357C95.0131 26.2101 94.8952 26.1874 94.7447 26.1675C94.5941 26.1476 94.4563 26.1377 94.3313 26.1377C94.0643 26.1377 93.8256 26.1959 93.6154 26.3124C93.408 26.426 93.2433 26.5851 93.1211 26.7897C93.0018 26.9942 92.9421 27.23 92.9421 27.4971V31.2002H91.1268ZM98.1442 31.3067C97.647 31.3067 97.1967 31.1789 96.7933 30.9232C96.3928 30.6647 96.0746 30.2854 95.8388 29.7854C95.6058 29.2826 95.4893 28.6661 95.4893 27.936C95.4893 27.186 95.6101 26.5624 95.8516 26.0653C96.093 25.5653 96.4141 25.1917 96.8146 24.9445C97.218 24.6945 97.6598 24.5695 98.1399 24.5695C98.5064 24.5695 98.8118 24.632 99.0561 24.757C99.3033 24.8792 99.5021 25.0326 99.6527 25.2172C99.8061 25.3991 99.9226 25.578 100.002 25.7542H100.058V22.4729H101.869V31.2002H100.079V30.1519H100.002C99.9169 30.3337 99.7962 30.5141 99.6399 30.6931C99.4865 30.8692 99.2862 31.0155 99.0391 31.132C98.7947 31.2485 98.4964 31.3067 98.1442 31.3067ZM98.7195 29.8621C99.0121 29.8621 99.2592 29.7826 99.4609 29.6235C99.6655 29.4616 99.8217 29.2357 99.9297 28.9459C100.04 28.6562 100.096 28.3167 100.096 27.9275C100.096 27.5383 100.042 27.2002 99.9339 26.9133C99.826 26.6263 99.6697 26.4047 99.4652 26.2485C99.2607 26.0922 99.0121 26.0141 98.7195 26.0141C98.4212 26.0141 98.1697 26.0951 97.9652 26.257C97.7607 26.4189 97.6058 26.6434 97.5007 26.9303C97.3956 27.2172 97.343 27.5496 97.343 27.9275C97.343 28.3081 97.3956 28.6448 97.5007 28.9374C97.6087 29.2272 97.7635 29.4545 97.9652 29.6192C98.1697 29.7812 98.4212 29.8621 98.7195 29.8621ZM105.228 31.3238C104.81 31.3238 104.438 31.2513 104.111 31.1064C103.784 30.9587 103.526 30.7414 103.336 30.4545C103.148 30.1647 103.054 29.8039 103.054 29.3721C103.054 29.0084 103.121 28.703 103.255 28.4559C103.388 28.2087 103.57 28.0099 103.8 27.8593C104.03 27.7087 104.292 27.5951 104.584 27.5184C104.88 27.4417 105.189 27.3877 105.513 27.3564C105.894 27.3167 106.201 27.2797 106.434 27.2456C106.667 27.2087 106.836 27.1547 106.941 27.0837C107.046 27.0127 107.098 26.9076 107.098 26.7684V26.7428C107.098 26.4729 107.013 26.2641 106.843 26.1164C106.675 25.9687 106.436 25.8948 106.127 25.8948C105.8 25.8948 105.54 25.9672 105.347 26.1121C105.154 26.2542 105.026 26.4331 104.963 26.6491L103.284 26.5127C103.37 26.115 103.537 25.7712 103.787 25.4814C104.037 25.1888 104.36 24.9644 104.755 24.8081C105.152 24.6491 105.613 24.5695 106.135 24.5695C106.499 24.5695 106.847 24.6121 107.179 24.6974C107.515 24.7826 107.811 24.9147 108.07 25.0937C108.331 25.2726 108.537 25.5028 108.688 25.784C108.838 26.0624 108.914 26.3962 108.914 26.7854V31.2002H107.192V30.2925H107.141C107.036 30.4971 106.895 30.6775 106.719 30.8337C106.543 30.9871 106.331 31.1079 106.084 31.1959C105.837 31.2812 105.551 31.3238 105.228 31.3238ZM105.748 30.0709C106.015 30.0709 106.25 30.0184 106.455 29.9133C106.659 29.8053 106.82 29.6604 106.936 29.4786C107.053 29.2968 107.111 29.0908 107.111 28.8607V28.1661C107.054 28.203 106.976 28.2371 106.877 28.2684C106.78 28.2968 106.671 28.3238 106.549 28.3493C106.426 28.3721 106.304 28.3934 106.182 28.4133C106.06 28.4303 105.949 28.4459 105.85 28.4601C105.637 28.4914 105.451 28.5411 105.292 28.6093C105.132 28.6775 105.009 28.7698 104.921 28.8863C104.833 28.9999 104.789 29.142 104.789 29.3124C104.789 29.5596 104.878 29.7485 105.057 29.8792C105.239 30.007 105.469 30.0709 105.748 30.0709ZM112.137 27.4161V31.2002H110.322V24.6547H112.052V25.8096H112.129C112.274 25.4289 112.517 25.1278 112.858 24.9062C113.199 24.6817 113.612 24.5695 114.098 24.5695C114.552 24.5695 114.949 24.6689 115.287 24.8678C115.625 25.0667 115.887 25.3508 116.075 25.7201C116.262 26.0866 116.356 26.5241 116.356 27.0326V31.2002H114.541V27.3564C114.544 26.9559 114.441 26.6434 114.234 26.4189C114.027 26.1917 113.741 26.078 113.377 26.078C113.133 26.078 112.917 26.1306 112.73 26.2357C112.545 26.3408 112.4 26.4942 112.295 26.6959C112.193 26.8948 112.14 27.1349 112.137 27.4161ZM123.692 31.2002H120.598V22.4729H123.718C124.596 22.4729 125.351 22.6476 125.985 22.9971C126.618 23.3437 127.105 23.8422 127.446 24.4928C127.79 25.1434 127.962 25.9218 127.962 26.828C127.962 27.7371 127.79 28.5184 127.446 29.1718C127.105 29.8252 126.615 30.3266 125.976 30.676C125.34 31.0255 124.578 31.2002 123.692 31.2002ZM122.444 29.6192H123.615C124.161 29.6192 124.62 29.5226 124.992 29.3295C125.367 29.1334 125.648 28.8309 125.836 28.4218C126.026 28.0099 126.121 27.4786 126.121 26.828C126.121 26.1831 126.026 25.6562 125.836 25.2471C125.648 24.838 125.368 24.5368 124.996 24.3437C124.624 24.1505 124.165 24.0539 123.62 24.0539H122.444V29.6192ZM131.161 31.3238C130.744 31.3238 130.371 31.2513 130.045 31.1064C129.718 30.9587 129.46 30.7414 129.269 30.4545C129.082 30.1647 128.988 29.8039 128.988 29.3721C128.988 29.0084 129.055 28.703 129.188 28.4559C129.322 28.2087 129.504 28.0099 129.734 27.8593C129.964 27.7087 130.225 27.5951 130.518 27.5184C130.813 27.4417 131.123 27.3877 131.447 27.3564C131.827 27.3167 132.134 27.2797 132.367 27.2456C132.6 27.2087 132.769 27.1547 132.874 27.0837C132.979 27.0127 133.032 26.9076 133.032 26.7684V26.7428C133.032 26.4729 132.947 26.2641 132.776 26.1164C132.609 25.9687 132.37 25.8948 132.06 25.8948C131.734 25.8948 131.474 25.9672 131.281 26.1121C131.087 26.2542 130.96 26.4331 130.897 26.6491L129.218 26.5127C129.303 26.115 129.471 25.7712 129.721 25.4814C129.971 25.1888 130.293 24.9644 130.688 24.8081C131.086 24.6491 131.546 24.5695 132.069 24.5695C132.433 24.5695 132.781 24.6121 133.113 24.6974C133.448 24.7826 133.745 24.9147 134.004 25.0937C134.265 25.2726 134.471 25.5028 134.621 25.784C134.772 26.0624 134.847 26.3962 134.847 26.7854V31.2002H133.126V30.2925H133.075C132.969 30.4971 132.829 30.6775 132.653 30.8337C132.477 30.9871 132.265 31.1079 132.018 31.1959C131.771 31.2812 131.485 31.3238 131.161 31.3238ZM131.681 30.0709C131.948 30.0709 132.184 30.0184 132.388 29.9133C132.593 29.8053 132.754 29.6604 132.87 29.4786C132.987 29.2968 133.045 29.0908 133.045 28.8607V28.1661C132.988 28.203 132.91 28.2371 132.81 28.2684C132.714 28.2968 132.604 28.3238 132.482 28.3493C132.36 28.3721 132.238 28.3934 132.116 28.4133C131.994 28.4303 131.883 28.4459 131.783 28.4601C131.57 28.4914 131.384 28.5411 131.225 28.6093C131.066 28.6775 130.942 28.7698 130.854 28.8863C130.766 28.9999 130.722 29.142 130.722 29.3124C130.722 29.5596 130.812 29.7485 130.991 29.8792C131.173 30.007 131.403 30.0709 131.681 30.0709ZM142.124 24.6547L139.835 31.2002H137.79L135.501 24.6547H137.419L138.778 29.338H138.847L140.202 24.6547H142.124ZM143.053 31.2002V24.6547H144.868V31.2002H143.053ZM143.964 23.811C143.695 23.811 143.463 23.7215 143.27 23.5425C143.08 23.3607 142.984 23.1434 142.984 22.8905C142.984 22.6405 143.08 22.426 143.27 22.2471C143.463 22.0653 143.695 21.9743 143.964 21.9743C144.234 21.9743 144.464 22.0653 144.655 22.2471C144.848 22.426 144.945 22.6405 144.945 22.8905C144.945 23.1434 144.848 23.3607 144.655 23.5425C144.464 23.7215 144.234 23.811 143.964 23.811ZM151.768 26.5212L150.106 26.6235C150.078 26.4814 150.017 26.3536 149.923 26.24C149.829 26.1235 149.706 26.0312 149.552 25.963C149.402 25.892 149.221 25.8564 149.011 25.8564C148.73 25.8564 148.493 25.9161 148.299 26.0354C148.106 26.1519 148.01 26.3081 148.01 26.5042C148.01 26.6604 148.072 26.7925 148.197 26.9005C148.322 27.0084 148.537 27.0951 148.841 27.1604L150.025 27.3991C150.662 27.5297 151.136 27.74 151.449 28.0297C151.761 28.3195 151.917 28.7002 151.917 29.1718C151.917 29.6008 151.791 29.9772 151.538 30.301C151.288 30.6249 150.944 30.8778 150.507 31.0596C150.072 31.2385 149.571 31.328 149.002 31.328C148.136 31.328 147.446 31.1476 146.931 30.7868C146.42 30.4232 146.12 29.9289 146.032 29.3039L147.818 29.2101C147.872 29.4743 148.002 29.676 148.21 29.8153C148.417 29.9516 148.683 30.0198 149.007 30.0198C149.325 30.0198 149.581 29.9587 149.774 29.8366C149.97 29.7116 150.069 29.551 150.072 29.355C150.069 29.1903 150 29.0553 149.863 28.9502C149.727 28.8422 149.517 28.7599 149.233 28.703L148.099 28.4772C147.46 28.3493 146.984 28.1278 146.672 27.8124C146.362 27.4971 146.207 27.0951 146.207 26.6064C146.207 26.186 146.321 25.8238 146.548 25.5198C146.778 25.2158 147.1 24.9814 147.515 24.8167C147.933 24.6519 148.422 24.5695 148.981 24.5695C149.808 24.5695 150.458 24.7442 150.933 25.0937C151.41 25.4431 151.689 25.9189 151.768 26.5212Z" fill="black"/>
<path d="M79.4023 36.0182H80.8614V40.8864C80.8614 41.3364 80.7602 41.7273 80.558 42.0591C80.358 42.3909 80.0795 42.6466 79.7227 42.8261C79.3659 43.0057 78.9511 43.0955 78.4784 43.0955C78.058 43.0955 77.6761 43.0216 77.333 42.8739C76.992 42.7239 76.7216 42.4966 76.5216 42.192C76.3216 41.8852 76.2227 41.5 76.225 41.0364H77.6943C77.6989 41.2205 77.7364 41.3784 77.8068 41.5102C77.8795 41.6398 77.9784 41.7398 78.1034 41.8102C78.2307 41.8784 78.3807 41.9125 78.5534 41.9125C78.7352 41.9125 78.8886 41.8739 79.0136 41.7966C79.1409 41.717 79.2375 41.6011 79.3034 41.4489C79.3693 41.2966 79.4023 41.1091 79.4023 40.8864V36.0182ZM82.0545 43V37.7636H83.4625V38.6773H83.517C83.6125 38.3523 83.7727 38.1068 83.9977 37.9409C84.2227 37.7727 84.4818 37.6886 84.775 37.6886C84.8477 37.6886 84.9261 37.6932 85.0102 37.7023C85.0943 37.7114 85.1682 37.7239 85.2318 37.7398V39.0284C85.1636 39.008 85.0693 38.9898 84.9489 38.9739C84.8284 38.958 84.7182 38.95 84.6182 38.95C84.4045 38.95 84.2136 38.9966 84.0455 39.0898C83.8795 39.1807 83.7477 39.308 83.65 39.4716C83.5545 39.6352 83.5068 39.8239 83.5068 40.0375V43H82.0545ZM88.2318 43V36.0182H91.0273C91.5409 36.0182 91.9693 36.0943 92.3125 36.2466C92.6557 36.3989 92.9136 36.6102 93.0864 36.8807C93.2591 37.1489 93.3455 37.458 93.3455 37.808C93.3455 38.0807 93.2909 38.3205 93.1818 38.5273C93.0727 38.7318 92.9227 38.9 92.7318 39.0318C92.5432 39.1614 92.3273 39.2534 92.0841 39.308V39.3761C92.35 39.3875 92.5989 39.4625 92.8307 39.6011C93.0648 39.7398 93.2545 39.9341 93.4 40.1841C93.5455 40.4318 93.6182 40.7273 93.6182 41.0705C93.6182 41.4409 93.5261 41.7716 93.342 42.0625C93.1602 42.3511 92.8909 42.5795 92.5341 42.7477C92.1773 42.9159 91.7375 43 91.2148 43H88.2318ZM89.708 41.7932H90.9114C91.3227 41.7932 91.6227 41.7148 91.8114 41.558C92 41.3989 92.0943 41.1875 92.0943 40.9239C92.0943 40.7307 92.0477 40.5602 91.9545 40.4125C91.8614 40.2648 91.7284 40.1489 91.5557 40.0648C91.3852 39.9807 91.1818 39.9386 90.9455 39.9386H89.708V41.7932ZM89.708 38.9398H90.8023C91.0045 38.9398 91.1841 38.9045 91.3409 38.8341C91.5 38.7614 91.625 38.6591 91.7159 38.5273C91.8091 38.3955 91.8557 38.2375 91.8557 38.0534C91.8557 37.8011 91.7659 37.5977 91.5864 37.4432C91.4091 37.2886 91.1568 37.2114 90.8295 37.2114H89.708V38.9398ZM96.0446 43.0989C95.7105 43.0989 95.4128 43.0409 95.1514 42.925C94.8901 42.8068 94.6832 42.633 94.531 42.4034C94.381 42.1716 94.306 41.883 94.306 41.5375C94.306 41.2466 94.3594 41.0023 94.4662 40.8045C94.573 40.6068 94.7185 40.4477 94.9026 40.3273C95.0866 40.2068 95.2957 40.1159 95.5298 40.0545C95.7662 39.9932 96.0139 39.95 96.273 39.925C96.5776 39.8932 96.823 39.8636 97.0094 39.8364C97.1957 39.8068 97.331 39.7636 97.4151 39.7068C97.4991 39.65 97.5412 39.5659 97.5412 39.4545V39.4341C97.5412 39.2182 97.473 39.0511 97.3366 38.933C97.2026 38.8148 97.0116 38.7557 96.7639 38.7557C96.5026 38.7557 96.2946 38.8136 96.1401 38.9295C95.9855 39.0432 95.8832 39.1864 95.8332 39.3591L94.4901 39.25C94.5582 38.9318 94.6923 38.6568 94.8923 38.425C95.0923 38.1909 95.3503 38.0114 95.6662 37.8864C95.9844 37.7591 96.3526 37.6955 96.7707 37.6955C97.0616 37.6955 97.3401 37.7295 97.606 37.7977C97.8741 37.8659 98.1116 37.9716 98.3185 38.1148C98.5276 38.258 98.6923 38.442 98.8128 38.667C98.9332 38.8898 98.9935 39.1568 98.9935 39.4682V43H97.6162V42.2739H97.5753C97.4912 42.4375 97.3787 42.5818 97.2378 42.7068C97.0969 42.8295 96.9276 42.9261 96.7298 42.9966C96.5321 43.0648 96.3037 43.0989 96.0446 43.0989ZM96.4605 42.0966C96.6741 42.0966 96.8628 42.0545 97.0264 41.9705C97.1901 41.8841 97.3185 41.7682 97.4116 41.6227C97.5048 41.4773 97.5514 41.3125 97.5514 41.1284V40.5727C97.506 40.6023 97.4435 40.6295 97.3639 40.6545C97.2866 40.6773 97.1991 40.6989 97.1014 40.7193C97.0037 40.7375 96.906 40.7545 96.8082 40.7705C96.7105 40.7841 96.6219 40.7966 96.5423 40.808C96.3719 40.833 96.223 40.8727 96.0957 40.9273C95.9685 40.9818 95.8696 41.0557 95.7991 41.1489C95.7287 41.2398 95.6935 41.3534 95.6935 41.4898C95.6935 41.6875 95.7651 41.8386 95.9082 41.9432C96.0537 42.0455 96.2378 42.0966 96.4605 42.0966ZM102.486 43.1023C101.95 43.1023 101.488 42.9886 101.102 42.7614C100.718 42.5318 100.422 42.2136 100.216 41.8068C100.011 41.4 99.9088 40.9318 99.9088 40.4023C99.9088 39.8659 100.012 39.3955 100.219 38.9909C100.428 38.5841 100.725 38.267 101.109 38.0398C101.493 37.8102 101.95 37.6955 102.479 37.6955C102.936 37.6955 103.336 37.7784 103.679 37.9443C104.022 38.1102 104.294 38.3432 104.494 38.6432C104.694 38.9432 104.804 39.2955 104.825 39.7H103.454C103.416 39.4386 103.313 39.2284 103.147 39.0693C102.984 38.908 102.769 38.8273 102.503 38.8273C102.278 38.8273 102.082 38.8886 101.913 39.0114C101.747 39.1318 101.618 39.308 101.525 39.5398C101.432 39.7716 101.385 40.0523 101.385 40.3818C101.385 40.7159 101.43 41 101.521 41.2341C101.614 41.4682 101.745 41.6466 101.913 41.7693C102.082 41.892 102.278 41.9534 102.503 41.9534C102.669 41.9534 102.818 41.9193 102.95 41.8511C103.084 41.783 103.194 41.6841 103.28 41.5545C103.369 41.4227 103.427 41.2648 103.454 41.0807H104.825C104.802 41.4807 104.693 41.833 104.497 42.1375C104.304 42.4398 104.037 42.6761 103.696 42.8466C103.355 43.017 102.952 43.1023 102.486 43.1023ZM107.07 41.4932L107.074 39.7511H107.285L108.963 37.7636H110.63L108.376 40.3955H108.032L107.07 41.4932ZM105.755 43V36.0182H107.207V43H105.755ZM109.027 43L107.486 40.7193L108.455 39.6932L110.728 43H109.027ZM113.513 43.1023C112.974 43.1023 112.511 42.9932 112.122 42.775C111.736 42.5545 111.438 42.2432 111.229 41.8409C111.02 41.4364 110.915 40.958 110.915 40.4057C110.915 39.867 111.02 39.3943 111.229 38.9875C111.438 38.5807 111.732 38.2636 112.112 38.0364C112.493 37.8091 112.941 37.6955 113.455 37.6955C113.8 37.6955 114.122 37.7511 114.42 37.8625C114.72 37.9716 114.981 38.1364 115.204 38.3568C115.429 38.5773 115.604 38.8545 115.729 39.1886C115.854 39.5205 115.916 39.9091 115.916 40.3545V40.7534H111.495V39.8534H114.549C114.549 39.6443 114.504 39.4591 114.413 39.2977C114.322 39.1364 114.196 39.0102 114.034 38.9193C113.875 38.8261 113.69 38.7795 113.479 38.7795C113.258 38.7795 113.063 38.8307 112.892 38.933C112.724 39.033 112.592 39.1682 112.497 39.3386C112.401 39.5068 112.353 39.6943 112.35 39.9011V40.7568C112.35 41.0159 112.398 41.2398 112.493 41.4284C112.591 41.617 112.729 41.7625 112.906 41.8648C113.083 41.967 113.293 42.0182 113.537 42.0182C113.698 42.0182 113.846 41.9955 113.98 41.95C114.114 41.9045 114.229 41.8364 114.324 41.7455C114.42 41.6545 114.492 41.5432 114.542 41.4114L115.886 41.5C115.817 41.8227 115.678 42.1045 115.466 42.3455C115.257 42.5841 114.987 42.7705 114.655 42.9045C114.325 43.0364 113.945 43.1023 113.513 43.1023ZM118.316 39.9727V43H116.864V37.7636H118.248V38.6875H118.309C118.425 38.383 118.62 38.142 118.892 37.9648C119.165 37.7852 119.496 37.6955 119.884 37.6955C120.248 37.6955 120.565 37.775 120.836 37.9341C121.106 38.0932 121.316 38.3205 121.466 38.6159C121.616 38.9091 121.691 39.2591 121.691 39.6659V43H120.239V39.925C120.241 39.6045 120.159 39.3545 119.993 39.175C119.828 38.9932 119.599 38.9023 119.308 38.9023C119.113 38.9023 118.94 38.9443 118.79 39.0284C118.642 39.1125 118.526 39.2352 118.442 39.3966C118.361 39.5557 118.318 39.7477 118.316 39.9727ZM124.765 43.0852C124.368 43.0852 124.007 42.983 123.685 42.7784C123.364 42.5716 123.11 42.2682 122.921 41.8682C122.735 41.4659 122.641 40.9727 122.641 40.3886C122.641 39.7886 122.738 39.2898 122.931 38.892C123.124 38.492 123.381 38.1932 123.702 37.9955C124.024 37.7955 124.378 37.6955 124.762 37.6955C125.055 37.6955 125.299 37.7455 125.495 37.8455C125.693 37.9432 125.852 38.0659 125.972 38.2136C126.095 38.3591 126.188 38.5023 126.252 38.6432H126.296V36.0182H127.745V43H126.313V42.1614H126.252C126.184 42.3068 126.087 42.4511 125.962 42.5943C125.839 42.7352 125.679 42.8523 125.481 42.9455C125.286 43.0386 125.047 43.0852 124.765 43.0852ZM125.226 41.9295C125.46 41.9295 125.657 41.8659 125.819 41.7386C125.982 41.6091 126.107 41.4284 126.194 41.1966C126.282 40.9648 126.327 40.6932 126.327 40.3818C126.327 40.0705 126.284 39.8 126.197 39.5705C126.111 39.3409 125.986 39.1636 125.822 39.0386C125.659 38.9136 125.46 38.8511 125.226 38.8511C124.987 38.8511 124.786 38.9159 124.622 39.0455C124.459 39.175 124.335 39.3545 124.251 39.5841C124.166 39.8136 124.124 40.0795 124.124 40.3818C124.124 40.6864 124.166 40.9557 124.251 41.1898C124.337 41.4216 124.461 41.6034 124.622 41.7352C124.786 41.8648 124.987 41.9295 125.226 41.9295ZM131.188 43V36.0182H135.893V37.2352H132.664V38.8989H135.651V40.1159H132.664V41.783H135.906V43H131.188ZM138.491 39.9727V43H137.039V37.7636H138.423V38.6875H138.484C138.6 38.383 138.795 38.142 139.067 37.9648C139.34 37.7852 139.671 37.6955 140.059 37.6955C140.423 37.6955 140.74 37.775 141.011 37.9341C141.281 38.0932 141.491 38.3205 141.641 38.6159C141.791 38.9091 141.866 39.2591 141.866 39.6659V43H140.414V39.925C140.416 39.6045 140.334 39.3545 140.168 39.175C140.003 38.9932 139.774 38.9023 139.483 38.9023C139.288 38.9023 139.115 38.9443 138.965 39.0284C138.817 39.1125 138.701 39.2352 138.617 39.3966C138.536 39.5557 138.493 39.7477 138.491 39.9727ZM145.37 45.0727C144.899 45.0727 144.496 45.008 144.16 44.8784C143.826 44.7511 143.56 44.5773 143.362 44.3568C143.164 44.1364 143.036 43.8886 142.977 43.6136L144.32 43.433C144.361 43.5375 144.426 43.6352 144.514 43.7261C144.603 43.817 144.72 43.8898 144.865 43.9443C145.013 44.0011 145.193 44.0295 145.404 44.0295C145.72 44.0295 145.98 43.9523 146.185 43.7977C146.391 43.6455 146.495 43.3898 146.495 43.0307V42.0727H146.434C146.37 42.2182 146.274 42.3557 146.147 42.4852C146.02 42.6148 145.856 42.7205 145.656 42.8023C145.456 42.8841 145.218 42.925 144.94 42.925C144.547 42.925 144.189 42.8341 143.866 42.6523C143.546 42.4682 143.29 42.1875 143.099 41.8102C142.911 41.4307 142.816 40.9511 142.816 40.3716C142.816 39.7784 142.913 39.283 143.106 38.8852C143.299 38.4875 143.556 38.1898 143.877 37.992C144.199 37.7943 144.553 37.6955 144.937 37.6955C145.23 37.6955 145.476 37.7455 145.673 37.8455C145.871 37.9432 146.03 38.0659 146.151 38.2136C146.273 38.3591 146.368 38.5023 146.434 38.6432H146.488V37.7636H147.93V43.0511C147.93 43.4966 147.821 43.8693 147.603 44.1693C147.385 44.4693 147.082 44.6943 146.696 44.8443C146.312 44.9966 145.87 45.0727 145.37 45.0727ZM145.401 41.8341C145.635 41.8341 145.832 41.7761 145.994 41.6602C146.157 41.542 146.282 41.3739 146.369 41.1557C146.457 40.9352 146.502 40.6716 146.502 40.3648C146.502 40.058 146.459 39.792 146.372 39.567C146.286 39.3398 146.161 39.1636 145.997 39.0386C145.834 38.9136 145.635 38.8511 145.401 38.8511C145.162 38.8511 144.961 38.9159 144.797 39.0455C144.634 39.1727 144.51 39.35 144.426 39.5773C144.341 39.8045 144.299 40.067 144.299 40.3648C144.299 40.667 144.341 40.9284 144.426 41.1489C144.512 41.367 144.636 41.5364 144.797 41.6568C144.961 41.775 145.162 41.8341 145.401 41.8341ZM149.086 43V37.7636H150.538V43H149.086ZM149.815 37.0886C149.599 37.0886 149.414 37.017 149.26 36.8739C149.107 36.7284 149.031 36.5545 149.031 36.3523C149.031 36.1523 149.107 35.9807 149.26 35.8375C149.414 35.692 149.599 35.6193 149.815 35.6193C150.031 35.6193 150.215 35.692 150.368 35.8375C150.522 35.9807 150.599 36.1523 150.599 36.3523C150.599 36.5545 150.522 36.7284 150.368 36.8739C150.215 37.017 150.031 37.0886 149.815 37.0886ZM153.154 39.9727V43H151.701V37.7636H153.086V38.6875H153.147C153.263 38.383 153.457 38.142 153.73 37.9648C154.003 37.7852 154.333 37.6955 154.722 37.6955C155.086 37.6955 155.403 37.775 155.673 37.9341C155.943 38.0932 156.154 38.3205 156.304 38.6159C156.454 38.9091 156.529 39.2591 156.529 39.6659V43H155.076V39.925C155.079 39.6045 154.997 39.3545 154.831 39.175C154.665 38.9932 154.437 38.9023 154.146 38.9023C153.95 38.9023 153.778 38.9443 153.628 39.0284C153.48 39.1125 153.364 39.2352 153.28 39.3966C153.198 39.5557 153.156 39.7477 153.154 39.9727ZM160.06 43.1023C159.521 43.1023 159.057 42.9932 158.669 42.775C158.282 42.5545 157.985 42.2432 157.776 41.8409C157.566 41.4364 157.462 40.958 157.462 40.4057C157.462 39.867 157.566 39.3943 157.776 38.9875C157.985 38.5807 158.279 38.2636 158.659 38.0364C159.04 37.8091 159.488 37.6955 160.002 37.6955C160.347 37.6955 160.669 37.7511 160.966 37.8625C161.266 37.9716 161.528 38.1364 161.751 38.3568C161.976 38.5773 162.151 38.8545 162.276 39.1886C162.401 39.5205 162.463 39.9091 162.463 40.3545V40.7534H158.041V39.8534H161.096C161.096 39.6443 161.051 39.4591 160.96 39.2977C160.869 39.1364 160.743 39.0102 160.581 38.9193C160.422 38.8261 160.237 38.7795 160.026 38.7795C159.805 38.7795 159.61 38.8307 159.439 38.933C159.271 39.033 159.139 39.1682 159.044 39.3386C158.948 39.5068 158.899 39.6943 158.897 39.9011V40.7568C158.897 41.0159 158.945 41.2398 159.04 41.4284C159.138 41.617 159.276 41.7625 159.453 41.8648C159.63 41.967 159.84 42.0182 160.084 42.0182C160.245 42.0182 160.393 41.9955 160.527 41.95C160.661 41.9045 160.776 41.8364 160.871 41.7455C160.966 41.6545 161.039 41.5432 161.089 41.4114L162.432 41.5C162.364 41.8227 162.224 42.1045 162.013 42.3455C161.804 42.5841 161.534 42.7705 161.202 42.9045C160.872 43.0364 160.491 43.1023 160.06 43.1023ZM165.797 43.1023C165.259 43.1023 164.795 42.9932 164.406 42.775C164.02 42.5545 163.722 42.2432 163.513 41.8409C163.304 41.4364 163.199 40.958 163.199 40.4057C163.199 39.867 163.304 39.3943 163.513 38.9875C163.722 38.5807 164.016 38.2636 164.396 38.0364C164.778 37.8091 165.226 37.6955 165.739 37.6955C166.085 37.6955 166.406 37.7511 166.704 37.8625C167.004 37.9716 167.265 38.1364 167.488 38.3568C167.713 38.5773 167.888 38.8545 168.013 39.1886C168.138 39.5205 168.201 39.9091 168.201 40.3545V40.7534H163.779V39.8534H166.834C166.834 39.6443 166.788 39.4591 166.697 39.2977C166.606 39.1364 166.48 39.0102 166.319 38.9193C166.16 38.8261 165.974 38.7795 165.763 38.7795C165.543 38.7795 165.347 38.8307 165.177 38.933C165.009 39.033 164.877 39.1682 164.781 39.3386C164.686 39.5068 164.637 39.6943 164.635 39.9011V40.7568C164.635 41.0159 164.682 41.2398 164.778 41.4284C164.876 41.617 165.013 41.7625 165.19 41.8648C165.368 41.967 165.578 42.0182 165.821 42.0182C165.982 42.0182 166.13 41.9955 166.264 41.95C166.398 41.9045 166.513 41.8364 166.609 41.7455C166.704 41.6545 166.777 41.5432 166.827 41.4114L168.17 41.5C168.102 41.8227 167.962 42.1045 167.751 42.3455C167.541 42.5841 167.271 42.7705 166.939 42.9045C166.61 43.0364 166.229 43.1023 165.797 43.1023ZM169.148 43V37.7636H170.556V38.6773H170.611C170.706 38.3523 170.866 38.1068 171.091 37.9409C171.316 37.7727 171.576 37.6886 171.869 37.6886C171.941 37.6886 172.02 37.6932 172.104 37.7023C172.188 37.7114 172.262 37.7239 172.326 37.7398V39.0284C172.257 39.008 172.163 38.9898 172.043 38.9739C171.922 38.958 171.812 38.95 171.712 38.95C171.498 38.95 171.307 38.9966 171.139 39.0898C170.973 39.1807 170.841 39.308 170.744 39.4716C170.648 39.6352 170.601 39.8239 170.601 40.0375V43H169.148Z" fill="#092AD0"/>
<rect x="76.4992" y="49.5002" width="41.4" height="14.4" rx="2.7" fill="#092AD0" fill-opacity="0.56" stroke="#092AD0" stroke-width="0.6"/>
<path d="M82.8191 59.2002L83.6782 53.9638H84.4964L83.6373 59.2002H82.8191ZM80.4745 57.9013L80.61 57.0831H84.701L84.5654 57.9013H80.4745ZM80.9782 59.2002L81.8373 53.9638H82.6555L81.7964 59.2002H80.9782ZM80.7737 56.0809L80.9118 55.2627H85.0027L84.8646 56.0809H80.7737ZM91.5775 53.9638V59.2002H90.6213L88.3431 55.9045H88.3048V59.2002H87.1977V53.9638H88.1693L90.4295 57.257H90.4755V53.9638H91.5775ZM94.2462 59.2769C93.849 59.2769 93.5056 59.1925 93.2158 59.0238C92.9277 58.8533 92.7053 58.6164 92.5485 58.313C92.3917 58.0079 92.3132 57.6542 92.3132 57.2519C92.3132 56.8462 92.3917 56.4917 92.5485 56.1883C92.7053 55.8831 92.9277 55.6462 93.2158 55.4775C93.5056 55.307 93.849 55.2218 94.2462 55.2218C94.6434 55.2218 94.986 55.307 95.274 55.4775C95.5638 55.6462 95.7871 55.8831 95.9439 56.1883C96.1007 56.4917 96.1792 56.8462 96.1792 57.2519C96.1792 57.6542 96.1007 58.0079 95.9439 58.313C95.7871 58.6164 95.5638 58.8533 95.274 59.0238C94.986 59.1925 94.6434 59.2769 94.2462 59.2769ZM94.2513 58.4331C94.432 58.4331 94.5828 58.382 94.7039 58.2797C94.8249 58.1758 94.9161 58.0343 94.9775 57.8553C95.0405 57.6763 95.0721 57.4726 95.0721 57.2442C95.0721 57.0158 95.0405 56.8121 94.9775 56.6331C94.9161 56.4542 94.8249 56.3127 94.7039 56.2087C94.5828 56.1047 94.432 56.0528 94.2513 56.0528C94.0689 56.0528 93.9155 56.1047 93.7911 56.2087C93.6684 56.3127 93.5755 56.4542 93.5124 56.6331C93.451 56.8121 93.4203 57.0158 93.4203 57.2442C93.4203 57.4726 93.451 57.6763 93.5124 57.8553C93.5755 58.0343 93.6684 58.1758 93.7911 58.2797C93.9155 58.382 94.0689 58.4331 94.2513 58.4331ZM98.3346 59.2641C98.0363 59.2641 97.7661 59.1874 97.524 59.034C97.2837 58.8789 97.0928 58.6513 96.9513 58.3513C96.8115 58.0496 96.7417 57.6797 96.7417 57.2417C96.7417 56.7917 96.8141 56.4175 96.959 56.1192C97.1039 55.8192 97.2965 55.5951 97.5368 55.4468C97.7789 55.2968 98.0439 55.2218 98.332 55.2218C98.5519 55.2218 98.7351 55.2593 98.8817 55.3343C99.03 55.4076 99.1493 55.4996 99.2397 55.6104C99.3317 55.7195 99.4016 55.8269 99.4493 55.9326H99.4826V53.9638H100.569V59.2002H99.4953V58.5712H99.4493C99.3982 58.6803 99.3257 58.7885 99.232 58.8959C99.14 59.0016 99.0198 59.0894 98.8715 59.1593C98.7249 59.2292 98.5459 59.2641 98.3346 59.2641ZM98.6797 58.3974C98.8553 58.3974 99.0036 58.3496 99.1246 58.2542C99.2473 58.157 99.3411 58.0215 99.4059 57.8476C99.4723 57.6738 99.5056 57.4701 99.5056 57.2366C99.5056 57.003 99.4732 56.8002 99.4084 56.628C99.3436 56.4559 99.2499 56.3229 99.1272 56.2292C99.0044 56.1354 98.8553 56.0885 98.6797 56.0885C98.5007 56.0885 98.3499 56.1371 98.2272 56.2343C98.1044 56.3314 98.0115 56.4661 97.9485 56.6383C97.8854 56.8104 97.8539 57.0099 97.8539 57.2366C97.8539 57.465 97.8854 57.667 97.9485 57.8425C98.0132 58.0164 98.1061 58.1528 98.2272 58.2516C98.3499 58.3488 98.5007 58.3974 98.6797 58.3974ZM103.255 59.2769C102.851 59.2769 102.503 59.1951 102.211 59.0314C101.922 58.8661 101.698 58.6326 101.541 58.3309C101.385 58.0275 101.306 57.6687 101.306 57.2545C101.306 56.8505 101.385 56.4959 101.541 56.1908C101.698 55.8857 101.919 55.6479 102.204 55.4775C102.49 55.307 102.826 55.2218 103.211 55.2218C103.47 55.2218 103.711 55.2635 103.935 55.3471C104.16 55.4289 104.356 55.5525 104.523 55.7178C104.691 55.8831 104.823 56.0911 104.916 56.3417C105.01 56.5905 105.057 56.882 105.057 57.2161V57.5153H101.741V56.8403H104.032C104.032 56.6834 103.998 56.5445 103.93 56.4235C103.861 56.3025 103.767 56.2079 103.646 56.1397C103.526 56.0698 103.387 56.0349 103.229 56.0349C103.064 56.0349 102.917 56.0732 102.789 56.1499C102.663 56.2249 102.564 56.3263 102.493 56.4542C102.421 56.5803 102.384 56.7209 102.383 56.876V57.5178C102.383 57.7121 102.418 57.88 102.49 58.0215C102.563 58.163 102.666 58.2721 102.799 58.3488C102.932 58.4255 103.09 58.4638 103.272 58.4638C103.393 58.4638 103.504 58.4468 103.605 58.4127C103.705 58.3786 103.791 58.3275 103.863 58.2593C103.935 58.1911 103.989 58.1076 104.027 58.0087L105.034 58.0752C104.983 58.3172 104.878 58.5286 104.72 58.7093C104.563 58.8883 104.36 59.028 104.111 59.1286C103.864 59.2275 103.578 59.2769 103.255 59.2769ZM106.405 59.2667C106.236 59.2667 106.091 59.207 105.97 59.0877C105.851 58.9667 105.791 58.8218 105.791 58.653C105.791 58.486 105.851 58.3428 105.97 58.2235C106.091 58.1042 106.236 58.0445 106.405 58.0445C106.568 58.0445 106.711 58.1042 106.834 58.2235C106.957 58.3428 107.018 58.486 107.018 58.653C107.018 58.7655 106.989 58.8687 106.931 58.9624C106.875 59.0545 106.801 59.1286 106.709 59.1849C106.617 59.2394 106.515 59.2667 106.405 59.2667ZM107.912 55.2729H109.002V59.3945C109.002 59.6979 108.942 59.9434 108.823 60.1309C108.703 60.3184 108.532 60.4556 108.309 60.5425C108.087 60.6295 107.822 60.6729 107.514 60.6729C107.476 60.6729 107.44 60.6721 107.406 60.6704C107.37 60.6704 107.333 60.6695 107.294 60.6678V59.8164C107.323 59.8181 107.348 59.8189 107.37 59.8189C107.391 59.8206 107.413 59.8215 107.437 59.8215C107.612 59.8215 107.735 59.784 107.805 59.709C107.877 59.6357 107.912 59.5249 107.912 59.3766V55.2729ZM108.454 54.7667C108.294 54.7667 108.156 54.713 108.04 54.6056C107.924 54.4965 107.866 54.3661 107.866 54.2144C107.866 54.0644 107.924 53.9357 108.04 53.8283C108.156 53.7192 108.294 53.6647 108.454 53.6647C108.618 53.6647 108.757 53.7192 108.871 53.8283C108.987 53.9357 109.045 54.0644 109.045 54.2144C109.045 54.3661 108.987 54.4965 108.871 54.6056C108.757 54.713 108.618 54.7667 108.454 54.7667ZM113.142 56.3928L112.145 56.4542C112.128 56.3689 112.091 56.2922 112.035 56.2241C111.978 56.1542 111.904 56.0988 111.812 56.0579C111.722 56.0153 111.614 55.9939 111.487 55.9939C111.319 55.9939 111.176 56.0297 111.06 56.1013C110.945 56.1712 110.887 56.265 110.887 56.3826C110.887 56.4763 110.924 56.5556 110.999 56.6204C111.074 56.6851 111.203 56.7371 111.385 56.7763L112.096 56.9195C112.478 56.9979 112.762 57.1241 112.95 57.2979C113.137 57.4718 113.231 57.7002 113.231 57.9831C113.231 58.2405 113.155 58.4664 113.004 58.6607C112.854 58.855 112.647 59.0067 112.385 59.1158C112.124 59.2232 111.823 59.2769 111.482 59.2769C110.962 59.2769 110.548 59.1687 110.24 58.9522C109.933 58.734 109.753 58.4374 109.7 58.0624L110.772 58.0062C110.804 58.1647 110.882 58.2857 111.007 58.3692C111.131 58.451 111.291 58.492 111.485 58.492C111.676 58.492 111.829 58.4553 111.945 58.382C112.063 58.307 112.122 58.2107 112.124 58.0931C112.122 57.9942 112.081 57.9133 111.999 57.8502C111.917 57.7854 111.791 57.736 111.62 57.7019L110.94 57.5664C110.557 57.4897 110.271 57.3567 110.084 57.1675C109.898 56.9783 109.805 56.7371 109.805 56.4439C109.805 56.1917 109.873 55.9743 110.01 55.792C110.148 55.6096 110.341 55.4689 110.59 55.3701C110.841 55.2712 111.134 55.2218 111.47 55.2218C111.966 55.2218 112.356 55.3266 112.641 55.5363C112.927 55.7459 113.094 56.0314 113.142 56.3928Z" fill="white"/>
<rect x="123.3" y="49.5002" width="38.4" height="14.4" rx="2.7" fill="#092AD0" fill-opacity="0.56" stroke="#092AD0" stroke-width="0.6"/>
<path d="M129.018 59.2002L129.877 53.9638H130.696L129.837 59.2002H129.018ZM126.674 57.9013L126.809 57.0831H130.9L130.765 57.9013H126.674ZM127.177 59.2002L128.037 53.9638H128.855L127.996 59.2002H127.177ZM126.973 56.0809L127.111 55.2627H131.202L131.064 56.0809H126.973ZM133.397 59.2002V53.9638H135.463C135.86 53.9638 136.198 54.0397 136.478 54.1914C136.757 54.3414 136.97 54.5502 137.117 54.8178C137.265 55.0837 137.34 55.3905 137.34 55.7383C137.34 56.086 137.265 56.3928 137.115 56.6587C136.965 56.9246 136.747 57.1317 136.463 57.28C136.18 57.4283 135.837 57.5025 135.435 57.5025H134.118V56.6153H135.256C135.469 56.6153 135.644 56.5786 135.782 56.5053C135.922 56.4303 136.026 56.3272 136.094 56.1959C136.164 56.063 136.199 55.9104 136.199 55.7383C136.199 55.5644 136.164 55.4127 136.094 55.2831C136.026 55.1519 135.922 55.0505 135.782 54.9789C135.643 54.9056 135.465 54.8689 135.251 54.8689H134.504V59.2002H133.397ZM138.711 60.6729C138.573 60.6729 138.443 60.6618 138.322 60.6397C138.203 60.6192 138.104 60.5928 138.025 60.5604L138.271 59.7474C138.399 59.7866 138.514 59.8079 138.616 59.8113C138.72 59.8147 138.809 59.7908 138.884 59.7397C138.961 59.6885 139.023 59.6016 139.071 59.4789L139.135 59.3127L137.726 55.2729H138.872L139.685 58.157H139.726L140.546 55.2729H141.7L140.173 59.6246C140.1 59.836 140 60.0201 139.874 60.1769C139.75 60.3354 139.592 60.4573 139.401 60.5425C139.21 60.6295 138.98 60.6729 138.711 60.6729ZM144.346 55.2729V56.0911H141.981V55.2729H144.346ZM142.518 54.332H143.607V57.9934C143.607 58.0939 143.622 58.1724 143.653 58.2286C143.684 58.2831 143.726 58.3215 143.781 58.3437C143.837 58.3658 143.902 58.3769 143.975 58.3769C144.026 58.3769 144.077 58.3726 144.129 58.3641C144.18 58.3539 144.219 58.3462 144.246 58.3411L144.417 59.1516C144.363 59.1687 144.286 59.1883 144.187 59.2104C144.088 59.2343 143.968 59.2488 143.827 59.2539C143.564 59.2641 143.334 59.2292 143.136 59.1491C142.94 59.0689 142.788 58.9445 142.679 58.7758C142.57 58.607 142.516 58.3939 142.518 58.1366V54.332ZM146.229 56.9297V59.2002H145.14V53.9638H146.198V55.9658H146.244C146.333 55.734 146.476 55.5525 146.674 55.4212C146.872 55.2883 147.12 55.2218 147.418 55.2218C147.691 55.2218 147.928 55.2814 148.131 55.4008C148.336 55.5184 148.494 55.688 148.607 55.9096C148.721 56.1295 148.777 56.3928 148.776 56.6996V59.2002H147.686V56.8939C147.688 56.6519 147.627 56.4635 147.502 56.3289C147.38 56.1942 147.207 56.1269 146.986 56.1269C146.837 56.1269 146.706 56.1584 146.592 56.2215C146.48 56.2846 146.391 56.3766 146.326 56.4976C146.263 56.617 146.231 56.761 146.229 56.9297ZM151.407 59.2769C151.01 59.2769 150.667 59.1925 150.377 59.0238C150.089 58.8533 149.866 58.6164 149.709 58.313C149.553 58.0079 149.474 57.6542 149.474 57.2519C149.474 56.8462 149.553 56.4917 149.709 56.1883C149.866 55.8831 150.089 55.6462 150.377 55.4775C150.667 55.307 151.01 55.2218 151.407 55.2218C151.804 55.2218 152.147 55.307 152.435 55.4775C152.725 55.6462 152.948 55.8831 153.105 56.1883C153.262 56.4917 153.34 56.8462 153.34 57.2519C153.34 57.6542 153.262 58.0079 153.105 58.313C152.948 58.6164 152.725 58.8533 152.435 59.0238C152.147 59.1925 151.804 59.2769 151.407 59.2769ZM151.412 58.4331C151.593 58.4331 151.744 58.382 151.865 58.2797C151.986 58.1758 152.077 58.0343 152.138 57.8553C152.201 57.6763 152.233 57.4726 152.233 57.2442C152.233 57.0158 152.201 56.8121 152.138 56.6331C152.077 56.4542 151.986 56.3127 151.865 56.2087C151.744 56.1047 151.593 56.0528 151.412 56.0528C151.23 56.0528 151.076 56.1047 150.952 56.2087C150.829 56.3127 150.736 56.4542 150.673 56.6331C150.612 56.8121 150.581 57.0158 150.581 57.2442C150.581 57.4726 150.612 57.6763 150.673 57.8553C150.736 58.0343 150.829 58.1758 150.952 58.2797C151.076 58.382 151.23 58.4331 151.412 58.4331ZM155.138 56.9297V59.2002H154.048V55.2729H155.086V55.9658H155.132C155.219 55.7374 155.365 55.5567 155.57 55.4238C155.774 55.2891 156.022 55.2218 156.314 55.2218C156.586 55.2218 156.824 55.2814 157.027 55.4008C157.23 55.5201 157.388 55.6905 157.5 55.9121C157.613 56.132 157.669 56.3945 157.669 56.6996V59.2002H156.58V56.8939C156.581 56.6536 156.52 56.4661 156.395 56.3314C156.271 56.1951 156.1 56.1269 155.882 56.1269C155.735 56.1269 155.605 56.1584 155.493 56.2215C155.382 56.2846 155.295 56.3766 155.232 56.4976C155.171 56.617 155.139 56.761 155.138 56.9297Z" fill="white"/>
<rect x="167.7" y="49.5002" width="41.4" height="14.4" rx="2.7" fill="#092AD0" fill-opacity="0.56" stroke="#092AD0" stroke-width="0.6"/>
<path d="M174.018 59.2002L174.877 53.9638H175.696L174.837 59.2002H174.018ZM171.674 57.9013L171.809 57.0831H175.9L175.765 57.9013H171.674ZM172.177 59.2002L173.037 53.9638H173.855L172.996 59.2002H172.177ZM171.973 56.0809L172.111 55.2627H176.202L176.064 56.0809H171.973ZM178.397 53.9638H179.762L181.204 57.482H181.266L182.708 53.9638H184.073V59.2002H182.999V55.792H182.956L181.601 59.1746H180.869L179.514 55.7792H179.471V59.2002H178.397V53.9638ZM184.678 53.9638H185.918L187.112 56.2189H187.164L188.358 53.9638H189.598L187.688 57.3491V59.2002H186.588V57.3491L184.678 53.9638ZM193.043 55.4698C193.023 55.2635 192.935 55.1033 192.78 54.9891C192.625 54.8749 192.414 54.8178 192.148 54.8178C191.967 54.8178 191.815 54.8434 191.69 54.8945C191.566 54.9439 191.471 55.013 191.404 55.1016C191.339 55.1903 191.307 55.2908 191.307 55.4033C191.304 55.4971 191.323 55.5789 191.366 55.6488C191.41 55.7187 191.471 55.7792 191.547 55.8303C191.624 55.8797 191.713 55.9232 191.813 55.9607C191.914 55.9965 192.021 56.0272 192.135 56.0528L192.606 56.1653C192.834 56.2164 193.044 56.2846 193.235 56.3698C193.426 56.455 193.591 56.5599 193.731 56.6843C193.871 56.8087 193.979 56.9553 194.056 57.1241C194.134 57.2928 194.174 57.4863 194.176 57.7045C194.174 58.0249 194.092 58.3028 193.93 58.538C193.77 58.7715 193.538 58.953 193.235 59.0826C192.933 59.2104 192.569 59.2743 192.143 59.2743C191.72 59.2743 191.352 59.2096 191.038 59.08C190.727 58.9505 190.483 58.7587 190.307 58.5047C190.133 58.2491 190.042 57.9329 190.034 57.5562H191.105C191.117 57.7317 191.167 57.8783 191.256 57.9959C191.346 58.1118 191.466 58.1996 191.616 58.2593C191.768 58.3172 191.939 58.3462 192.13 58.3462C192.318 58.3462 192.481 58.3189 192.619 58.2644C192.758 58.2099 192.867 58.134 192.943 58.0368C193.02 57.9397 193.058 57.828 193.058 57.7019C193.058 57.5843 193.023 57.4854 192.954 57.4053C192.885 57.3252 192.785 57.257 192.652 57.2008C192.521 57.1445 192.359 57.0934 192.169 57.0474L191.598 56.9042C191.157 56.7968 190.808 56.6289 190.553 56.4005C190.297 56.1721 190.17 55.8644 190.172 55.4775C190.17 55.1604 190.254 54.8834 190.425 54.6465C190.597 54.4096 190.833 54.2246 191.133 54.0917C191.433 53.9587 191.774 53.8922 192.156 53.8922C192.544 53.8922 192.884 53.9587 193.173 54.0917C193.465 54.2246 193.692 54.4096 193.854 54.6465C194.015 54.8834 194.099 55.1579 194.104 55.4698H193.043ZM196.897 57.3797H197.838L198.311 57.9883L198.776 58.5303L199.653 59.6297H198.62L198.017 58.8883L197.707 58.4485L196.897 57.3797ZM199.732 56.582C199.732 57.153 199.624 57.6388 199.408 58.0394C199.193 58.44 198.9 58.7459 198.528 58.9573C198.158 59.167 197.742 59.2718 197.28 59.2718C196.815 59.2718 196.397 59.1661 196.027 58.9547C195.658 58.7434 195.365 58.4374 195.15 58.0368C194.936 57.6363 194.828 57.1513 194.828 56.582C194.828 56.011 194.936 55.5252 195.15 55.1246C195.365 54.7241 195.658 54.4189 196.027 54.2093C196.397 53.9979 196.815 53.8922 197.28 53.8922C197.742 53.8922 198.158 53.9979 198.528 54.2093C198.9 54.4189 199.193 54.7241 199.408 55.1246C199.624 55.5252 199.732 56.011 199.732 56.582ZM198.61 56.582C198.61 56.2121 198.554 55.9002 198.444 55.6462C198.335 55.3922 198.18 55.1996 197.981 55.0684C197.781 54.9371 197.548 54.8715 197.28 54.8715C197.013 54.8715 196.779 54.9371 196.58 55.0684C196.38 55.1996 196.225 55.3922 196.114 55.6462C196.005 55.9002 195.951 56.2121 195.951 56.582C195.951 56.9519 196.005 57.2638 196.114 57.5178C196.225 57.7718 196.38 57.9644 196.58 58.0956C196.779 58.2269 197.013 58.2925 197.28 58.2925C197.548 58.2925 197.781 58.2269 197.981 58.0956C198.18 57.9644 198.335 57.7718 198.444 57.5178C198.554 57.2638 198.61 56.9519 198.61 56.582ZM200.552 59.2002V53.9638H201.659V58.2874H203.904V59.2002H200.552Z" fill="white"/>
</svg>
