<svg width="258" height="76" viewBox="0 0 258 76" fill="none" xmlns="http://www.w3.org/2000/svg">
<g filter="url(#filter0_d_799_1372)">
<rect x="4" width="250" height="67.5" rx="17.5" fill="white"/>
<circle cx="41.5" cy="33.5" r="20" fill="#C4C4C4"/>
<rect x="32.5" y="36" width="18" height="10" rx="2.5" fill="white"/>
<circle cx="41.25" cy="27.75" r="6.25" fill="white"/>
<path d="M70.7102 26H68.1321V18.7273H70.7315C71.4631 18.7273 72.0928 18.8729 72.6207 19.1641C73.1487 19.4529 73.5547 19.8684 73.8388 20.4105C74.1252 20.9527 74.2685 21.6013 74.2685 22.3565C74.2685 23.1141 74.1252 23.7652 73.8388 24.3097C73.5547 24.8542 73.1463 25.272 72.6136 25.5632C72.0833 25.8544 71.4489 26 70.7102 26ZM69.6697 24.6825H70.6463C71.1009 24.6825 71.4832 24.602 71.7933 24.4411C72.1058 24.2777 72.3402 24.0256 72.4964 23.6847C72.6551 23.3414 72.7344 22.8987 72.7344 22.3565C72.7344 21.8191 72.6551 21.38 72.4964 21.0391C72.3402 20.6982 72.107 20.4472 71.7969 20.2862C71.4867 20.1252 71.1044 20.0447 70.6499 20.0447H69.6697V24.6825ZM76.9345 26.103C76.5865 26.103 76.2763 26.0426 76.0041 25.9219C75.7318 25.7988 75.5164 25.6177 75.3578 25.3786C75.2015 25.1371 75.1234 24.8364 75.1234 24.4766C75.1234 24.1735 75.179 23.919 75.2903 23.7131C75.4016 23.5071 75.5531 23.3414 75.7449 23.2159C75.9366 23.0904 76.1544 22.9957 76.3983 22.9318C76.6445 22.8679 76.9025 22.8229 77.1724 22.7969C77.4896 22.7637 77.7453 22.733 77.9395 22.7045C78.1336 22.6738 78.2744 22.6288 78.362 22.5696C78.4496 22.5104 78.4934 22.4228 78.4934 22.3068V22.2855C78.4934 22.0606 78.4224 21.8866 78.2804 21.7635C78.1407 21.6404 77.9418 21.5788 77.6838 21.5788C77.4115 21.5788 77.1949 21.6392 77.0339 21.7599C76.8729 21.8783 76.7664 22.0275 76.7143 22.2074L75.3152 22.0938C75.3862 21.7623 75.5259 21.4759 75.7342 21.2344C75.9425 20.9905 76.2112 20.8035 76.5403 20.6733C76.8717 20.5407 77.2553 20.4744 77.6909 20.4744C77.9939 20.4744 78.2839 20.5099 78.5609 20.581C78.8403 20.652 79.0877 20.7621 79.3031 20.9112C79.5209 21.0604 79.6925 21.2521 79.818 21.4865C79.9435 21.7185 80.0062 21.9967 80.0062 22.321V26H78.5716V25.2436H78.5289C78.4413 25.4141 78.3242 25.5644 78.1774 25.6946C78.0306 25.8224 77.8542 25.9231 77.6483 25.9964C77.4423 26.0675 77.2044 26.103 76.9345 26.103ZM77.3677 25.0589C77.5903 25.0589 77.7868 25.0152 77.9572 24.9276C78.1277 24.8376 78.2614 24.7169 78.3585 24.5653C78.4556 24.4138 78.5041 24.2422 78.5041 24.0504V23.4716C78.4567 23.5024 78.3916 23.5308 78.3088 23.5568C78.2283 23.5805 78.1371 23.603 78.0353 23.6243C77.9335 23.6432 77.8317 23.661 77.7299 23.6776C77.6281 23.6918 77.5358 23.7048 77.4529 23.7166C77.2754 23.7427 77.1203 23.7841 76.9877 23.8409C76.8552 23.8977 76.7522 23.9747 76.6788 24.0717C76.6054 24.1664 76.5687 24.2848 76.5687 24.4268C76.5687 24.6328 76.6433 24.7902 76.7924 24.8991C76.944 25.0057 77.1357 25.0589 77.3677 25.0589ZM86.0698 20.5455L84.1628 26H82.4583L80.5513 20.5455H82.1493L83.2821 24.4482H83.339L84.4682 20.5455H86.0698ZM86.8439 26V20.5455H88.3567V26H86.8439ZM87.6039 19.8423C87.379 19.8423 87.186 19.7678 87.025 19.6186C86.8664 19.4671 86.7871 19.286 86.7871 19.0753C86.7871 18.867 86.8664 18.6882 87.025 18.5391C87.186 18.3875 87.379 18.3118 87.6039 18.3118C87.8288 18.3118 88.0205 18.3875 88.1792 18.5391C88.3401 18.6882 88.4206 18.867 88.4206 19.0753C88.4206 19.286 88.3401 19.4671 88.1792 19.6186C88.0205 19.7678 87.8288 19.8423 87.6039 19.8423ZM91.5785 26.0888C91.1642 26.0888 90.7889 25.9822 90.4528 25.7692C90.119 25.5537 89.8538 25.2377 89.6573 24.821C89.4632 24.402 89.3661 23.8883 89.3661 23.2798C89.3661 22.6548 89.4667 22.1352 89.668 21.7209C89.8692 21.3042 90.1367 20.9929 90.4705 20.7869C90.8067 20.5786 91.1748 20.4744 91.5749 20.4744C91.8803 20.4744 92.1348 20.5265 92.3384 20.6307C92.5444 20.7325 92.7101 20.8603 92.8356 21.0142C92.9634 21.1657 93.0605 21.3149 93.1268 21.4616H93.1729V18.7273H94.6822V26H93.1907V25.1264H93.1268C93.0558 25.2779 92.9551 25.4283 92.8249 25.5774C92.6971 25.7242 92.5302 25.8461 92.3242 25.9432C92.1206 26.0402 91.872 26.0888 91.5785 26.0888ZM92.0579 24.8849C92.3017 24.8849 92.5077 24.8187 92.6758 24.6861C92.8462 24.5511 92.9764 24.3629 93.0664 24.1214C93.1587 23.88 93.2049 23.5971 93.2049 23.2727C93.2049 22.9484 93.1599 22.6667 93.07 22.4276C92.98 22.1884 92.8498 22.0038 92.6793 21.8736C92.5089 21.7434 92.3017 21.6783 92.0579 21.6783C91.8093 21.6783 91.5998 21.7457 91.4293 21.8807C91.2589 22.0156 91.1299 22.2027 91.0423 22.4418C90.9547 22.6809 90.9109 22.9579 90.9109 23.2727C90.9109 23.59 90.9547 23.8705 91.0423 24.1143C91.1322 24.3558 91.2612 24.5452 91.4293 24.6825C91.5998 24.8175 91.8093 24.8849 92.0579 24.8849ZM98.2688 18.7273H100.165L102.168 23.6136H102.253L104.256 18.7273H106.152V26H104.661V21.2663H104.6L102.718 25.9645H101.703L99.8207 21.2486H99.7603V26H98.2688V18.7273ZM108.946 26.103C108.598 26.103 108.288 26.0426 108.016 25.9219C107.744 25.7988 107.528 25.6177 107.369 25.3786C107.213 25.1371 107.135 24.8364 107.135 24.4766C107.135 24.1735 107.191 23.919 107.302 23.7131C107.413 23.5071 107.565 23.3414 107.757 23.2159C107.948 23.0904 108.166 22.9957 108.41 22.9318C108.656 22.8679 108.914 22.8229 109.184 22.7969C109.501 22.7637 109.757 22.733 109.951 22.7045C110.145 22.6738 110.286 22.6288 110.374 22.5696C110.461 22.5104 110.505 22.4228 110.505 22.3068V22.2855C110.505 22.0606 110.434 21.8866 110.292 21.7635C110.152 21.6404 109.954 21.5788 109.695 21.5788C109.423 21.5788 109.207 21.6392 109.046 21.7599C108.885 21.8783 108.778 22.0275 108.726 22.2074L107.327 22.0938C107.398 21.7623 107.538 21.4759 107.746 21.2344C107.954 20.9905 108.223 20.8035 108.552 20.6733C108.883 20.5407 109.267 20.4744 109.703 20.4744C110.006 20.4744 110.296 20.5099 110.573 20.581C110.852 20.652 111.099 20.7621 111.315 20.9112C111.533 21.0604 111.704 21.2521 111.83 21.4865C111.955 21.7185 112.018 21.9967 112.018 22.321V26H110.583V25.2436H110.541C110.453 25.4141 110.336 25.5644 110.189 25.6946C110.042 25.8224 109.866 25.9231 109.66 25.9964C109.454 26.0675 109.216 26.103 108.946 26.103ZM109.379 25.0589C109.602 25.0589 109.798 25.0152 109.969 24.9276C110.139 24.8376 110.273 24.7169 110.37 24.5653C110.467 24.4138 110.516 24.2422 110.516 24.0504V23.4716C110.468 23.5024 110.403 23.5308 110.32 23.5568C110.24 23.5805 110.149 23.603 110.047 23.6243C109.945 23.6432 109.843 23.661 109.742 23.6776C109.64 23.6918 109.548 23.7048 109.465 23.7166C109.287 23.7427 109.132 23.7841 108.999 23.8409C108.867 23.8977 108.764 23.9747 108.691 24.0717C108.617 24.1664 108.58 24.2848 108.58 24.4268C108.58 24.6328 108.655 24.7902 108.804 24.8991C108.956 25.0057 109.147 25.0589 109.379 25.0589ZM113.192 26V20.5455H114.658V21.4972H114.715C114.814 21.1586 114.981 20.9029 115.216 20.7301C115.45 20.5549 115.72 20.4673 116.025 20.4673C116.101 20.4673 116.183 20.4721 116.27 20.4815C116.358 20.491 116.435 20.504 116.501 20.5206V21.8629C116.43 21.8416 116.332 21.8227 116.206 21.8061C116.081 21.7895 115.966 21.7812 115.862 21.7812C115.64 21.7812 115.441 21.8298 115.265 21.9268C115.093 22.0215 114.955 22.1541 114.854 22.3246C114.754 22.495 114.704 22.6915 114.704 22.9141V26H113.192ZM120.458 20.5455V21.6818H117.173V20.5455H120.458ZM117.919 19.2386H119.432V24.3239C119.432 24.4635 119.453 24.5724 119.496 24.6506C119.538 24.7263 119.598 24.7796 119.673 24.8104C119.751 24.8411 119.841 24.8565 119.943 24.8565C120.014 24.8565 120.085 24.8506 120.156 24.8388C120.227 24.8246 120.282 24.8139 120.32 24.8068L120.558 25.9325C120.482 25.9562 120.375 25.9834 120.238 26.0142C120.101 26.0473 119.934 26.0675 119.737 26.0746C119.373 26.0888 119.053 26.0402 118.778 25.929C118.506 25.8177 118.294 25.6449 118.143 25.4105C117.991 25.1761 117.917 24.8802 117.919 24.5227V19.2386ZM121.444 26V20.5455H122.956V26H121.444ZM122.203 19.8423C121.979 19.8423 121.786 19.7678 121.625 19.6186C121.466 19.4671 121.387 19.286 121.387 19.0753C121.387 18.867 121.466 18.6882 121.625 18.5391C121.786 18.3875 121.979 18.3118 122.203 18.3118C122.428 18.3118 122.62 18.3875 122.779 18.5391C122.94 18.6882 123.02 18.867 123.02 19.0753C123.02 19.286 122.94 19.4671 122.779 19.6186C122.62 19.7678 122.428 19.8423 122.203 19.8423ZM125.681 22.8466V26H124.168V20.5455H125.61V21.5078H125.674C125.795 21.1906 125.997 20.9396 126.281 20.755C126.565 20.5679 126.91 20.4744 127.314 20.4744C127.693 20.4744 128.023 20.5573 128.305 20.723C128.587 20.8887 128.806 21.1255 128.962 21.4332C129.118 21.7386 129.197 22.1032 129.197 22.527V26H127.684V22.7969C127.686 22.4631 127.601 22.2027 127.428 22.0156C127.255 21.8262 127.017 21.7315 126.714 21.7315C126.511 21.7315 126.331 21.7753 126.175 21.8629C126.021 21.9505 125.9 22.0784 125.812 22.2464C125.727 22.4122 125.683 22.6122 125.681 22.8466Z" fill="black"/>
<path d="M71.1619 32.3551C71.1392 32.1259 71.0417 31.9479 70.8693 31.821C70.697 31.6941 70.4631 31.6307 70.1676 31.6307C69.9669 31.6307 69.7973 31.6591 69.6591 31.7159C69.5208 31.7708 69.4148 31.8475 69.3409 31.946C69.2689 32.0445 69.233 32.1562 69.233 32.2812C69.2292 32.3854 69.2509 32.4763 69.2983 32.554C69.3475 32.6316 69.4148 32.6989 69.5 32.7557C69.5852 32.8106 69.6837 32.8589 69.7955 32.9006C69.9072 32.9403 70.0265 32.9744 70.1534 33.0028L70.6761 33.1278C70.9299 33.1847 71.1629 33.2604 71.375 33.3551C71.5871 33.4498 71.7708 33.5663 71.9261 33.7045C72.0814 33.8428 72.2017 34.0057 72.2869 34.1932C72.3741 34.3807 72.4186 34.5956 72.4205 34.8381C72.4186 35.1941 72.3277 35.5028 72.1477 35.7642C71.9697 36.0237 71.7121 36.2254 71.375 36.3693C71.0398 36.5114 70.6354 36.5824 70.1619 36.5824C69.6922 36.5824 69.2831 36.5104 68.9347 36.3665C68.5881 36.2225 68.3172 36.0095 68.1222 35.7273C67.929 35.4432 67.8277 35.0919 67.8182 34.6733H69.0085C69.0218 34.8684 69.0777 35.0312 69.1761 35.1619C69.2765 35.2907 69.41 35.3883 69.5767 35.4545C69.7453 35.5189 69.9356 35.5511 70.1477 35.5511C70.3561 35.5511 70.5369 35.5208 70.6903 35.4602C70.8456 35.3996 70.9659 35.3153 71.0511 35.2074C71.1364 35.0994 71.179 34.9754 71.179 34.8352C71.179 34.7045 71.1402 34.5947 71.0625 34.5057C70.9867 34.4167 70.875 34.3409 70.7273 34.2784C70.5814 34.2159 70.4025 34.1591 70.1903 34.108L69.5568 33.9489C69.0663 33.8295 68.679 33.643 68.3949 33.3892C68.1108 33.1354 67.9697 32.7936 67.9716 32.3636C67.9697 32.0114 68.0634 31.7036 68.2528 31.4403C68.4441 31.1771 68.7064 30.9716 69.0398 30.8239C69.3731 30.6761 69.7519 30.6023 70.1761 30.6023C70.608 30.6023 70.9848 30.6761 71.3068 30.8239C71.6307 30.9716 71.8826 31.1771 72.0625 31.4403C72.2424 31.7036 72.3352 32.0085 72.3409 32.3551H71.1619ZM75.1967 36.5852C74.7554 36.5852 74.3738 36.4915 74.0518 36.304C73.7318 36.1146 73.4846 35.8513 73.3104 35.5142C73.1361 35.1752 73.049 34.7822 73.049 34.3352C73.049 33.8845 73.1361 33.4905 73.3104 33.1534C73.4846 32.8144 73.7318 32.5511 74.0518 32.3636C74.3738 32.1742 74.7554 32.0795 75.1967 32.0795C75.638 32.0795 76.0187 32.1742 76.3388 32.3636C76.6607 32.5511 76.9089 32.8144 77.0831 33.1534C77.2573 33.4905 77.3445 33.8845 77.3445 34.3352C77.3445 34.7822 77.2573 35.1752 77.0831 35.5142C76.9089 35.8513 76.6607 36.1146 76.3388 36.304C76.0187 36.4915 75.638 36.5852 75.1967 36.5852ZM75.2024 35.6477C75.4032 35.6477 75.5708 35.5909 75.7053 35.4773C75.8397 35.3617 75.9411 35.2045 76.0092 35.0057C76.0793 34.8068 76.1143 34.5805 76.1143 34.3267C76.1143 34.0729 76.0793 33.8466 76.0092 33.6477C75.9411 33.4489 75.8397 33.2917 75.7053 33.1761C75.5708 33.0606 75.4032 33.0028 75.2024 33.0028C74.9998 33.0028 74.8293 33.0606 74.6911 33.1761C74.5547 33.2917 74.4515 33.4489 74.3814 33.6477C74.3132 33.8466 74.2791 34.0729 74.2791 34.3267C74.2791 34.5805 74.3132 34.8068 74.3814 35.0057C74.4515 35.2045 74.5547 35.3617 74.6911 35.4773C74.8293 35.5909 74.9998 35.6477 75.2024 35.6477ZM80.478 32.1364V33.0455H77.7848V32.1364H80.478ZM78.4013 36.5V31.821C78.4013 31.5047 78.4628 31.2424 78.5859 31.0341C78.7109 30.8258 78.8814 30.6695 79.0973 30.5653C79.3132 30.4612 79.5585 30.4091 79.8331 30.4091C80.0187 30.4091 80.1882 30.4233 80.3416 30.4517C80.4969 30.4801 80.6125 30.5057 80.6882 30.5284L80.4723 31.4375C80.425 31.4223 80.3662 31.4081 80.2962 31.3949C80.228 31.3816 80.1579 31.375 80.0859 31.375C79.9079 31.375 79.7839 31.4167 79.7138 31.5C79.6437 31.5814 79.6087 31.696 79.6087 31.8438V36.5H78.4013ZM83.5384 32.1364V33.0455H80.9105V32.1364H83.5384ZM81.5071 31.0909H82.7173V35.1591C82.7173 35.2708 82.7344 35.358 82.7685 35.4205C82.8026 35.4811 82.8499 35.5237 82.9105 35.5483C82.973 35.5729 83.045 35.5852 83.1264 35.5852C83.1832 35.5852 83.2401 35.5805 83.2969 35.571C83.3537 35.5597 83.3973 35.5511 83.4276 35.5455L83.6179 36.446C83.5573 36.465 83.4721 36.4867 83.3622 36.5114C83.2524 36.5379 83.1188 36.554 82.9616 36.5597C82.67 36.571 82.4143 36.5322 82.1946 36.4432C81.9768 36.3542 81.8073 36.2159 81.6861 36.0284C81.5649 35.8409 81.5052 35.6042 81.5071 35.3182V31.0909ZM85.1875 36.5L84 32.1364H85.2244L85.9006 35.0682H85.9403L86.6449 32.1364H87.8466L88.5625 35.0511H88.5994L89.2642 32.1364H90.4858L89.3011 36.5H88.0199L87.2699 33.7557H87.2159L86.4659 36.5H85.1875ZM92.3757 36.5824C92.0973 36.5824 91.8492 36.5341 91.6314 36.4375C91.4136 36.339 91.2412 36.1941 91.1143 36.0028C90.9893 35.8097 90.9268 35.5691 90.9268 35.2812C90.9268 35.0388 90.9714 34.8352 91.0604 34.6705C91.1494 34.5057 91.2706 34.3731 91.424 34.2727C91.5774 34.1723 91.7517 34.0966 91.9467 34.0455C92.1437 33.9943 92.3501 33.9583 92.5661 33.9375C92.8198 33.911 93.0244 33.8864 93.1797 33.8636C93.335 33.839 93.4477 33.803 93.5178 33.7557C93.5878 33.7083 93.6229 33.6383 93.6229 33.5455V33.5284C93.6229 33.3485 93.5661 33.2093 93.4524 33.1108C93.3407 33.0123 93.1816 32.9631 92.9751 32.9631C92.7573 32.9631 92.584 33.0114 92.4553 33.108C92.3265 33.2027 92.2412 33.322 92.1996 33.4659L91.0803 33.375C91.1371 33.1098 91.2488 32.8807 91.4155 32.6875C91.5821 32.4924 91.7971 32.3428 92.0604 32.2386C92.3255 32.1326 92.6323 32.0795 92.9808 32.0795C93.2232 32.0795 93.4553 32.108 93.6768 32.1648C93.9003 32.2216 94.0982 32.3097 94.2706 32.429C94.4448 32.5483 94.5821 32.7017 94.6825 32.8892C94.7829 33.0748 94.8331 33.2973 94.8331 33.5568V36.5H93.6854V35.8949H93.6513C93.5812 36.0312 93.4875 36.1515 93.37 36.2557C93.2526 36.358 93.1115 36.4384 92.9467 36.4972C92.782 36.554 92.5916 36.5824 92.3757 36.5824ZM92.7223 35.7472C92.9003 35.7472 93.0575 35.7121 93.1939 35.642C93.3303 35.5701 93.4373 35.4735 93.5149 35.3523C93.5926 35.2311 93.6314 35.0937 93.6314 34.9403V34.4773C93.5935 34.5019 93.5414 34.5246 93.4751 34.5455C93.4107 34.5644 93.3378 34.5824 93.2564 34.5994C93.175 34.6146 93.0935 34.6288 93.0121 34.642C92.9306 34.6534 92.8568 34.6638 92.7905 34.6733C92.6484 34.6941 92.5244 34.7273 92.4183 34.7727C92.3123 34.8182 92.2299 34.8797 92.1712 34.9574C92.1125 35.0331 92.0831 35.1278 92.0831 35.2415C92.0831 35.4062 92.1428 35.5322 92.2621 35.6193C92.3833 35.7045 92.5367 35.7472 92.7223 35.7472ZM95.772 36.5V32.1364H96.9453V32.8977H96.9908C97.0703 32.6269 97.2038 32.4223 97.3913 32.2841C97.5788 32.1439 97.7947 32.0739 98.0391 32.0739C98.0997 32.0739 98.165 32.0777 98.2351 32.0852C98.3052 32.0928 98.3667 32.1032 98.4197 32.1165V33.1903C98.3629 33.1733 98.2843 33.1581 98.1839 33.1449C98.0836 33.1316 97.9917 33.125 97.9084 33.125C97.7304 33.125 97.5713 33.1638 97.4311 33.2415C97.2929 33.3172 97.183 33.4233 97.1016 33.5597C97.022 33.696 96.9822 33.8532 96.9822 34.0312V36.5H95.772ZM100.831 36.5852C100.382 36.5852 99.9957 36.4943 99.6719 36.3125C99.3499 36.1288 99.1018 35.8693 98.9276 35.5341C98.7533 35.197 98.6662 34.7983 98.6662 34.3381C98.6662 33.8892 98.7533 33.4953 98.9276 33.1562C99.1018 32.8172 99.3471 32.553 99.6634 32.3636C99.9815 32.1742 100.355 32.0795 100.783 32.0795C101.071 32.0795 101.339 32.1259 101.587 32.2188C101.837 32.3097 102.054 32.447 102.24 32.6307C102.428 32.8144 102.573 33.0455 102.678 33.3239C102.782 33.6004 102.834 33.9242 102.834 34.2955V34.6278H99.1491V33.8778H101.695C101.695 33.7036 101.657 33.5492 101.581 33.4148C101.505 33.2803 101.4 33.1752 101.266 33.0994C101.133 33.0218 100.979 32.983 100.803 32.983C100.619 32.983 100.456 33.0256 100.314 33.1108C100.174 33.1941 100.064 33.3068 99.9844 33.4489C99.9048 33.589 99.8641 33.7453 99.8622 33.9176V34.6307C99.8622 34.8466 99.902 35.0331 99.9815 35.1903C100.063 35.3475 100.178 35.4688 100.325 35.554C100.473 35.6392 100.648 35.6818 100.851 35.6818C100.985 35.6818 101.108 35.6629 101.22 35.625C101.332 35.5871 101.428 35.5303 101.507 35.4545C101.587 35.3788 101.647 35.286 101.689 35.1761L102.808 35.25C102.751 35.5189 102.635 35.7538 102.459 35.9545C102.285 36.1534 102.059 36.3087 101.783 36.4205C101.508 36.5303 101.191 36.5852 100.831 36.5852ZM105.498 36.5V30.6818H109.418V31.696H106.728V33.0824H109.217V34.0966H106.728V35.4858H109.43V36.5H105.498ZM111.584 33.9773V36.5H110.374V32.1364H111.527V32.9062H111.578C111.675 32.6525 111.837 32.4517 112.064 32.304C112.291 32.1544 112.567 32.0795 112.891 32.0795C113.194 32.0795 113.458 32.1458 113.683 32.2784C113.909 32.411 114.084 32.6004 114.209 32.8466C114.334 33.0909 114.396 33.3826 114.396 33.7216V36.5H113.186V33.9375C113.188 33.6705 113.12 33.4621 112.982 33.3125C112.843 33.161 112.653 33.0852 112.411 33.0852C112.248 33.0852 112.104 33.1203 111.979 33.1903C111.856 33.2604 111.759 33.3627 111.689 33.4972C111.621 33.6297 111.586 33.7898 111.584 33.9773ZM117.316 38.2273C116.924 38.2273 116.588 38.1733 116.308 38.0653C116.029 37.9593 115.808 37.8144 115.643 37.6307C115.478 37.447 115.371 37.2405 115.322 37.0114L116.441 36.8608C116.475 36.9479 116.529 37.0294 116.603 37.1051C116.677 37.1809 116.774 37.2415 116.896 37.2869C117.019 37.3343 117.168 37.358 117.344 37.358C117.608 37.358 117.825 37.2936 117.995 37.1648C118.167 37.0379 118.254 36.8248 118.254 36.5256V35.7273H118.202C118.149 35.8485 118.07 35.9631 117.964 36.071C117.858 36.179 117.721 36.267 117.555 36.3352C117.388 36.4034 117.189 36.4375 116.958 36.4375C116.63 36.4375 116.332 36.3617 116.063 36.2102C115.796 36.0568 115.583 35.8229 115.424 35.5085C115.267 35.1922 115.188 34.7926 115.188 34.3097C115.188 33.8153 115.269 33.4025 115.43 33.071C115.591 32.7396 115.805 32.4915 116.072 32.3267C116.341 32.1619 116.635 32.0795 116.955 32.0795C117.2 32.0795 117.404 32.1212 117.569 32.2045C117.734 32.286 117.866 32.3883 117.967 32.5114C118.069 32.6326 118.147 32.7519 118.202 32.8693H118.248V32.1364H119.45V36.5426C119.45 36.9138 119.359 37.2244 119.177 37.4744C118.995 37.7244 118.743 37.9119 118.421 38.0369C118.101 38.1638 117.733 38.2273 117.316 38.2273ZM117.342 35.5284C117.537 35.5284 117.701 35.4801 117.836 35.3835C117.972 35.285 118.076 35.1449 118.148 34.9631C118.222 34.7794 118.259 34.5597 118.259 34.304C118.259 34.0483 118.223 33.8267 118.151 33.6392C118.079 33.4498 117.975 33.303 117.839 33.1989C117.702 33.0947 117.537 33.0426 117.342 33.0426C117.143 33.0426 116.975 33.0966 116.839 33.2045C116.702 33.3106 116.599 33.4583 116.529 33.6477C116.459 33.8371 116.424 34.0559 116.424 34.304C116.424 34.5559 116.459 34.7737 116.529 34.9574C116.601 35.1392 116.704 35.2803 116.839 35.3807C116.975 35.4792 117.143 35.5284 117.342 35.5284ZM120.413 36.5V32.1364H121.623V36.5H120.413ZM121.021 31.5739C120.841 31.5739 120.686 31.5142 120.558 31.3949C120.431 31.2737 120.367 31.1288 120.367 30.9602C120.367 30.7936 120.431 30.6506 120.558 30.5312C120.686 30.41 120.841 30.3494 121.021 30.3494C121.201 30.3494 121.354 30.41 121.481 30.5312C121.61 30.6506 121.674 30.7936 121.674 30.9602C121.674 31.1288 121.61 31.2737 121.481 31.3949C121.354 31.5142 121.201 31.5739 121.021 31.5739ZM123.803 33.9773V36.5H122.592V32.1364H123.746V32.9062H123.797C123.893 32.6525 124.055 32.4517 124.283 32.304C124.51 32.1544 124.786 32.0795 125.109 32.0795C125.412 32.0795 125.677 32.1458 125.902 32.2784C126.127 32.411 126.303 32.6004 126.428 32.8466C126.553 33.0909 126.615 33.3826 126.615 33.7216V36.5H125.405V33.9375C125.407 33.6705 125.339 33.4621 125.2 33.3125C125.062 33.161 124.872 33.0852 124.629 33.0852C124.466 33.0852 124.322 33.1203 124.197 33.1903C124.074 33.2604 123.978 33.3627 123.908 33.4972C123.839 33.6297 123.804 33.7898 123.803 33.9773ZM129.558 36.5852C129.109 36.5852 128.722 36.4943 128.398 36.3125C128.076 36.1288 127.828 35.8693 127.654 35.5341C127.48 35.197 127.393 34.7983 127.393 34.3381C127.393 33.8892 127.48 33.4953 127.654 33.1562C127.828 32.8172 128.074 32.553 128.39 32.3636C128.708 32.1742 129.081 32.0795 129.509 32.0795C129.797 32.0795 130.065 32.1259 130.313 32.2188C130.563 32.3097 130.781 32.447 130.967 32.6307C131.154 32.8144 131.3 33.0455 131.404 33.3239C131.508 33.6004 131.56 33.9242 131.56 34.2955V34.6278H127.876V33.8778H130.421C130.421 33.7036 130.383 33.5492 130.308 33.4148C130.232 33.2803 130.127 33.1752 129.992 33.0994C129.86 33.0218 129.705 32.983 129.529 32.983C129.345 32.983 129.183 33.0256 129.04 33.1108C128.9 33.1941 128.79 33.3068 128.711 33.4489C128.631 33.589 128.591 33.7453 128.589 33.9176V34.6307C128.589 34.8466 128.629 35.0331 128.708 35.1903C128.79 35.3475 128.904 35.4688 129.052 35.554C129.2 35.6392 129.375 35.6818 129.577 35.6818C129.712 35.6818 129.835 35.6629 129.947 35.625C130.058 35.5871 130.154 35.5303 130.234 35.4545C130.313 35.3788 130.374 35.286 130.415 35.1761L131.535 35.25C131.478 35.5189 131.362 35.7538 131.185 35.9545C131.011 36.1534 130.786 36.3087 130.509 36.4205C130.235 36.5303 129.917 36.5852 129.558 36.5852ZM134.339 36.5852C133.89 36.5852 133.504 36.4943 133.18 36.3125C132.858 36.1288 132.61 35.8693 132.435 35.5341C132.261 35.197 132.174 34.7983 132.174 34.3381C132.174 33.8892 132.261 33.4953 132.435 33.1562C132.61 32.8172 132.855 32.553 133.171 32.3636C133.489 32.1742 133.862 32.0795 134.29 32.0795C134.578 32.0795 134.846 32.1259 135.094 32.2188C135.344 32.3097 135.562 32.447 135.748 32.6307C135.935 32.8144 136.081 33.0455 136.185 33.3239C136.29 33.6004 136.342 33.9242 136.342 34.2955V34.6278H132.657V33.8778H135.202C135.202 33.7036 135.165 33.5492 135.089 33.4148C135.013 33.2803 134.908 33.1752 134.773 33.0994C134.641 33.0218 134.487 32.983 134.31 32.983C134.127 32.983 133.964 33.0256 133.822 33.1108C133.682 33.1941 133.572 33.3068 133.492 33.4489C133.413 33.589 133.372 33.7453 133.37 33.9176V34.6307C133.37 34.8466 133.41 35.0331 133.489 35.1903C133.571 35.3475 133.685 35.4688 133.833 35.554C133.981 35.6392 134.156 35.6818 134.359 35.6818C134.493 35.6818 134.616 35.6629 134.728 35.625C134.84 35.5871 134.935 35.5303 135.015 35.4545C135.094 35.3788 135.155 35.286 135.197 35.1761L136.316 35.25C136.259 35.5189 136.143 35.7538 135.967 35.9545C135.792 36.1534 135.567 36.3087 135.29 36.4205C135.016 36.5303 134.699 36.5852 134.339 36.5852ZM137.131 36.5V32.1364H138.305V32.8977H138.35C138.43 32.6269 138.563 32.4223 138.751 32.2841C138.938 32.1439 139.154 32.0739 139.398 32.0739C139.459 32.0739 139.524 32.0777 139.594 32.0852C139.665 32.0928 139.726 32.1032 139.779 32.1165V33.1903C139.722 33.1733 139.644 33.1581 139.543 33.1449C139.443 33.1316 139.351 33.125 139.268 33.125C139.09 33.125 138.931 33.1638 138.79 33.2415C138.652 33.3172 138.542 33.4233 138.461 33.5597C138.381 33.696 138.342 33.8532 138.342 34.0312V36.5H137.131Z" fill="#092AD0"/>
<rect x="67.75" y="41.25" width="29.5" height="12" rx="2.25" fill="#092AD0" fill-opacity="0.56" stroke="#092AD0" stroke-width="0.5"/>
<path d="M73.0156 49.5L73.7315 45.1364H74.4134L73.6974 49.5H73.0156ZM71.0618 48.4176L71.1747 47.7358H74.5838L74.4709 48.4176H71.0618ZM71.4815 49.5L72.1974 45.1364H72.8793L72.1634 49.5H71.4815ZM71.3111 46.9006L71.4261 46.2188H74.8352L74.7202 46.9006H71.3111ZM76.6644 49.5V45.1364H78.386C78.7156 45.1364 78.9968 45.1953 79.2298 45.3132C79.4641 45.4297 79.6424 45.5952 79.7646 45.8097C79.8881 46.0227 79.9499 46.2734 79.9499 46.5618C79.9499 46.8516 79.8874 47.1009 79.7624 47.3097C79.6374 47.517 79.4563 47.6761 79.2191 47.7869C78.9833 47.8977 78.6978 47.9531 78.3626 47.9531H77.2099V47.2116H78.2134C78.3896 47.2116 78.5359 47.1875 78.6523 47.1392C78.7688 47.0909 78.8555 47.0185 78.9123 46.9219C78.9705 46.8253 78.9996 46.7053 78.9996 46.5618C78.9996 46.4169 78.9705 46.2947 78.9123 46.1953C78.8555 46.0959 78.7681 46.0206 78.6502 45.9695C78.5337 45.9169 78.3867 45.8906 78.2092 45.8906H77.587V49.5H76.6644ZM79.021 47.5142L80.1055 49.5H79.087L78.0259 47.5142H79.021ZM82.0236 49.5639C81.687 49.5639 81.3972 49.4957 81.1543 49.3594C80.9128 49.2216 80.7267 49.027 80.5961 48.7756C80.4654 48.5227 80.4 48.2237 80.4 47.8786C80.4 47.5419 80.4654 47.2464 80.5961 46.9922C80.7267 46.7379 80.9107 46.5398 81.1479 46.3977C81.3865 46.2557 81.6664 46.1847 81.9874 46.1847C82.2033 46.1847 82.4043 46.2195 82.5904 46.2891C82.7779 46.3572 82.9412 46.4602 83.0804 46.598C83.2211 46.7358 83.3304 46.9091 83.4086 47.1179C83.4867 47.3253 83.5257 47.5682 83.5257 47.8466V48.0959H80.7623V47.5334H82.6713C82.6713 47.4027 82.6429 47.2869 82.5861 47.1861C82.5293 47.0852 82.4505 47.0064 82.3496 46.9496C82.2502 46.8913 82.1344 46.8622 82.0023 46.8622C81.8645 46.8622 81.7424 46.8942 81.6358 46.9581C81.5307 47.0206 81.4483 47.1051 81.3887 47.2116C81.329 47.3168 81.2985 47.4339 81.2971 47.5632V48.098C81.2971 48.2599 81.3269 48.3999 81.3865 48.5178C81.4476 48.6357 81.5336 48.7266 81.6444 48.7905C81.7551 48.8544 81.8865 48.8864 82.0385 48.8864C82.1394 48.8864 82.2317 48.8722 82.3155 48.8438C82.3993 48.8153 82.4711 48.7727 82.5307 48.7159C82.5904 48.6591 82.6358 48.5895 82.6671 48.5071L83.5066 48.5625C83.464 48.7642 83.3766 48.9403 83.2445 49.0909C83.1138 49.2401 82.9448 49.3565 82.7374 49.4403C82.5314 49.5227 82.2935 49.5639 82.0236 49.5639ZM85.0513 49.5618C84.8425 49.5618 84.6564 49.5256 84.4931 49.4531C84.3297 49.3793 84.2005 49.2706 84.1053 49.1271C84.0115 48.9822 83.9647 48.8018 83.9647 48.5859C83.9647 48.4041 83.998 48.2514 84.0648 48.1278C84.1316 48.0043 84.2225 47.9048 84.3375 47.8295C84.4526 47.7543 84.5833 47.6974 84.7296 47.6591C84.8773 47.6207 85.0321 47.5938 85.1941 47.5781C85.3844 47.5582 85.5378 47.5398 85.6543 47.5227C85.7708 47.5043 85.8553 47.4773 85.9078 47.4418C85.9604 47.4062 85.9867 47.3537 85.9867 47.2841V47.2713C85.9867 47.1364 85.9441 47.032 85.8588 46.9581C85.775 46.8842 85.6557 46.8473 85.5009 46.8473C85.3375 46.8473 85.2076 46.8835 85.111 46.956C85.0144 47.027 84.9505 47.1165 84.9192 47.2244L84.0797 47.1562C84.1223 46.9574 84.2061 46.7855 84.3311 46.6406C84.4561 46.4943 84.6174 46.3821 84.8148 46.304C85.0137 46.2244 85.2438 46.1847 85.5051 46.1847C85.687 46.1847 85.861 46.206 86.0272 46.2486C86.1948 46.2912 86.3432 46.3572 86.4725 46.4467C86.6032 46.5362 86.7061 46.6513 86.7814 46.7919C86.8567 46.9311 86.8944 47.098 86.8944 47.2926V49.5H86.0336V49.0462H86.008C85.9554 49.1484 85.8851 49.2386 85.7971 49.3168C85.709 49.3935 85.6032 49.4538 85.4796 49.4979C85.356 49.5405 85.2132 49.5618 85.0513 49.5618ZM85.3113 48.9354C85.4448 48.9354 85.5627 48.9091 85.665 48.8565C85.7672 48.8026 85.8475 48.7301 85.9057 48.6392C85.964 48.5483 85.9931 48.4453 85.9931 48.3303V47.983C85.9647 48.0014 85.9256 48.0185 85.8759 48.0341C85.8276 48.0483 85.7729 48.0618 85.7118 48.0746C85.6507 48.0859 85.5897 48.0966 85.5286 48.1065C85.4675 48.1151 85.4121 48.1229 85.3624 48.13C85.2559 48.1456 85.1628 48.1705 85.0833 48.2045C85.0037 48.2386 84.9419 48.2848 84.8979 48.343C84.8539 48.3999 84.8319 48.4709 84.8319 48.5561C84.8319 48.6797 84.8766 48.7741 84.9661 48.8395C85.057 48.9034 85.1721 48.9354 85.3113 48.9354ZM89.0772 49.5639C88.742 49.5639 88.4537 49.4929 88.2122 49.3509C87.9721 49.2074 87.7875 49.0085 87.6582 48.7543C87.5304 48.5 87.4664 48.2074 87.4664 47.8764C87.4664 47.5412 87.5311 47.2472 87.6603 46.9943C87.791 46.7401 87.9764 46.5419 88.2164 46.3999C88.4565 46.2564 88.742 46.1847 89.073 46.1847C89.3585 46.1847 89.6085 46.2365 89.823 46.3402C90.0375 46.4439 90.2072 46.5895 90.3322 46.777C90.4572 46.9645 90.5261 47.1847 90.5389 47.4375H89.6824C89.6582 47.2741 89.5943 47.1428 89.4906 47.0433C89.3883 46.9425 89.2541 46.892 89.0879 46.892C88.9473 46.892 88.8244 46.9304 88.7193 47.0071C88.6156 47.0824 88.5346 47.1925 88.4764 47.3374C88.4181 47.4822 88.389 47.6577 88.389 47.8636C88.389 48.0724 88.4174 48.25 88.4743 48.3963C88.5325 48.5426 88.6142 48.6541 88.7193 48.7308C88.8244 48.8075 88.9473 48.8459 89.0879 48.8459C89.1916 48.8459 89.2846 48.8246 89.367 48.782C89.4508 48.7393 89.5197 48.6776 89.5737 48.5966C89.6291 48.5142 89.6653 48.4155 89.6824 48.3004H90.5389C90.5247 48.5504 90.4565 48.7706 90.3343 48.9609C90.2136 49.1499 90.0467 49.2976 89.8336 49.4041C89.6206 49.5107 89.3684 49.5639 89.0772 49.5639ZM92.8608 46.2273V46.9091H90.8899V46.2273H92.8608ZM91.3374 45.4432H92.245V48.4943C92.245 48.5781 92.2578 48.6435 92.2834 48.6903C92.3089 48.7358 92.3445 48.7678 92.3899 48.7862C92.4368 48.8047 92.4908 48.8139 92.5518 48.8139C92.5945 48.8139 92.6371 48.8104 92.6797 48.8033C92.7223 48.7947 92.755 48.7884 92.7777 48.7841L92.9205 49.4595C92.875 49.4737 92.8111 49.4901 92.7287 49.5085C92.6463 49.5284 92.5462 49.5405 92.4283 49.5447C92.2095 49.5533 92.0178 49.5241 91.853 49.4574C91.6896 49.3906 91.5625 49.2869 91.4716 49.1463C91.3807 49.0057 91.3359 48.8281 91.3374 48.6136V45.4432Z" fill="white"/>
<rect x="102.25" y="41.25" width="47" height="12" rx="2.25" fill="#092AD0" fill-opacity="0.56" stroke="#092AD0" stroke-width="0.5"/>
<path d="M109.016 49.5L109.732 45.1364H110.413L109.697 49.5H109.016ZM107.062 48.4176L107.175 47.7358H110.584L110.471 48.4176H107.062ZM107.482 49.5L108.197 45.1364H108.879L108.163 49.5H107.482ZM107.311 46.9006L107.426 46.2188H110.835L110.72 46.9006H107.311ZM107.213 52.897V52.1364H110.797V52.897H109.461V56.5H108.549V52.897H107.213ZM111.555 57.7273C111.44 57.7273 111.332 57.718 111.232 57.6996C111.132 57.6825 111.05 57.6605 110.984 57.6335L111.189 56.956C111.295 56.9886 111.391 57.0064 111.477 57.0092C111.563 57.0121 111.638 56.9922 111.7 56.9496C111.764 56.907 111.816 56.8345 111.856 56.7322L111.909 56.5938L110.735 53.2273H111.69L112.367 55.6307H112.401L113.085 53.2273H114.046L112.774 56.8537C112.713 57.0298 112.63 57.1832 112.525 57.3139C112.421 57.446 112.29 57.5476 112.131 57.6186C111.972 57.6911 111.78 57.7273 111.555 57.7273ZM114.511 57.7273V53.2273H115.406V53.777H115.446C115.486 53.6889 115.543 53.5994 115.619 53.5085C115.695 53.4162 115.795 53.3395 115.917 53.2784C116.04 53.2159 116.194 53.1847 116.377 53.1847C116.616 53.1847 116.836 53.2472 117.038 53.3722C117.239 53.4957 117.401 53.6825 117.521 53.9325C117.642 54.1811 117.702 54.4929 117.702 54.8679C117.702 55.233 117.643 55.5412 117.526 55.7926C117.409 56.0426 117.25 56.2322 117.048 56.3615C116.848 56.4893 116.624 56.5533 116.375 56.5533C116.199 56.5533 116.049 56.5241 115.925 56.4659C115.803 56.4077 115.703 56.3345 115.625 56.2464C115.547 56.157 115.487 56.0668 115.446 55.9759H115.418V57.7273H114.511ZM115.399 54.8636C115.399 55.0582 115.426 55.228 115.48 55.3729C115.534 55.5178 115.612 55.6307 115.714 55.7116C115.817 55.7912 115.941 55.831 116.087 55.831C116.235 55.831 116.36 55.7905 116.462 55.7095C116.565 55.6271 116.642 55.5135 116.695 55.3686C116.749 55.2223 116.776 55.054 116.776 54.8636C116.776 54.6747 116.749 54.5085 116.697 54.3651C116.644 54.2216 116.567 54.1094 116.464 54.0284C116.362 53.9474 116.237 53.907 116.087 53.907C115.94 53.907 115.815 53.946 115.712 54.0241C115.612 54.1023 115.534 54.2131 115.48 54.3565C115.426 54.5 115.399 54.669 115.399 54.8636ZM119.799 56.5639C119.462 56.5639 119.173 56.4957 118.93 56.3594C118.688 56.2216 118.502 56.027 118.371 55.7756C118.241 55.5227 118.175 55.2237 118.175 54.8786C118.175 54.5419 118.241 54.2464 118.371 53.9922C118.502 53.7379 118.686 53.5398 118.923 53.3977C119.162 53.2557 119.442 53.1847 119.763 53.1847C119.979 53.1847 120.18 53.2195 120.366 53.2891C120.553 53.3572 120.717 53.4602 120.856 53.598C120.996 53.7358 121.106 53.9091 121.184 54.1179C121.262 54.3253 121.301 54.5682 121.301 54.8466V55.0959H118.538V54.5334H120.447C120.447 54.4027 120.418 54.2869 120.362 54.1861C120.305 54.0852 120.226 54.0064 120.125 53.9496C120.026 53.8913 119.91 53.8622 119.778 53.8622C119.64 53.8622 119.518 53.8942 119.411 53.9581C119.306 54.0206 119.224 54.1051 119.164 54.2116C119.104 54.3168 119.074 54.4339 119.072 54.5632V55.098C119.072 55.2599 119.102 55.3999 119.162 55.5178C119.223 55.6357 119.309 55.7266 119.42 55.7905C119.531 55.8544 119.662 55.8864 119.814 55.8864C119.915 55.8864 120.007 55.8722 120.091 55.8438C120.175 55.8153 120.246 55.7727 120.306 55.7159C120.366 55.6591 120.411 55.5895 120.442 55.5071L121.282 55.5625C121.239 55.7642 121.152 55.9403 121.02 56.0909C120.889 56.2401 120.72 56.3565 120.513 56.4403C120.307 56.5227 120.069 56.5639 119.799 56.5639ZM124.616 54.1605L123.786 54.2116C123.771 54.1406 123.741 54.0767 123.694 54.0199C123.647 53.9616 123.585 53.9155 123.509 53.8814C123.433 53.8459 123.343 53.8281 123.238 53.8281C123.097 53.8281 122.979 53.858 122.882 53.9176C122.786 53.9759 122.737 54.054 122.737 54.152C122.737 54.2301 122.768 54.2962 122.831 54.3501C122.893 54.4041 123.001 54.4474 123.153 54.4801L123.745 54.5994C124.063 54.6648 124.3 54.7699 124.457 54.9148C124.613 55.0597 124.691 55.25 124.691 55.4858C124.691 55.7003 124.628 55.8885 124.501 56.0504C124.376 56.2124 124.205 56.3388 123.986 56.4297C123.768 56.5192 123.518 56.5639 123.234 56.5639C122.8 56.5639 122.455 56.4737 122.198 56.2933C121.942 56.1115 121.793 55.8643 121.749 55.5518L122.641 55.505C122.668 55.6371 122.734 55.7379 122.837 55.8075C122.941 55.8757 123.074 55.9098 123.236 55.9098C123.395 55.9098 123.523 55.8793 123.619 55.8182C123.717 55.7557 123.767 55.6754 123.768 55.5774C123.767 55.495 123.732 55.4276 123.664 55.375C123.596 55.321 123.491 55.2798 123.349 55.2514L122.782 55.1385C122.462 55.0746 122.224 54.9638 122.068 54.8061C121.913 54.6484 121.836 54.4474 121.836 54.2031C121.836 53.9929 121.893 53.8118 122.006 53.6598C122.121 53.5078 122.283 53.3906 122.49 53.3082C122.699 53.2259 122.943 53.1847 123.223 53.1847C123.636 53.1847 123.962 53.272 124.199 53.4467C124.438 53.6214 124.577 53.8594 124.616 54.1605ZM126.741 56.5639C126.406 56.5639 126.118 56.4929 125.876 56.3509C125.636 56.2074 125.452 56.0085 125.322 55.7543C125.194 55.5 125.131 55.2074 125.131 54.8764C125.131 54.5412 125.195 54.2472 125.324 53.9943C125.455 53.7401 125.64 53.5419 125.881 53.3999C126.121 53.2564 126.406 53.1847 126.737 53.1847C127.023 53.1847 127.273 53.2365 127.487 53.3402C127.702 53.4439 127.871 53.5895 127.996 53.777C128.121 53.9645 128.19 54.1847 128.203 54.4375H127.346C127.322 54.2741 127.258 54.1428 127.155 54.0433C127.052 53.9425 126.918 53.892 126.752 53.892C126.611 53.892 126.488 53.9304 126.383 54.0071C126.28 54.0824 126.199 54.1925 126.14 54.3374C126.082 54.4822 126.053 54.6577 126.053 54.8636C126.053 55.0724 126.081 55.25 126.138 55.3963C126.197 55.5426 126.278 55.6541 126.383 55.7308C126.488 55.8075 126.611 55.8459 126.752 55.8459C126.856 55.8459 126.949 55.8246 127.031 55.782C127.115 55.7393 127.184 55.6776 127.238 55.5966C127.293 55.5142 127.329 55.4155 127.346 55.3004H128.203C128.189 55.5504 128.121 55.7706 127.998 55.9609C127.878 56.1499 127.711 56.2976 127.498 56.4041C127.285 56.5107 127.032 56.5639 126.741 56.5639ZM128.784 56.5V53.2273H129.664V53.7983H129.698C129.758 53.5952 129.858 53.4418 129.999 53.3381C130.139 53.233 130.301 53.1804 130.484 53.1804C130.53 53.1804 130.579 53.1832 130.631 53.1889C130.684 53.1946 130.73 53.2024 130.77 53.2124V54.0178C130.727 54.005 130.668 53.9936 130.593 53.9837C130.518 53.9737 130.449 53.9688 130.386 53.9688C130.253 53.9688 130.134 53.9979 130.028 54.0561C129.925 54.1129 129.842 54.1925 129.781 54.2947C129.722 54.397 129.692 54.5149 129.692 54.6484V56.5H128.784ZM107.362 63.5V60.2273H108.27V63.5H107.362ZM107.818 59.8054C107.683 59.8054 107.567 59.7607 107.471 59.6712C107.376 59.5803 107.328 59.4716 107.328 59.3452C107.328 59.2202 107.376 59.1129 107.471 59.0234C107.567 58.9325 107.683 58.8871 107.818 58.8871C107.953 58.8871 108.068 58.9325 108.163 59.0234C108.26 59.1129 108.308 59.2202 108.308 59.3452C108.308 59.4716 108.26 59.5803 108.163 59.6712C108.068 59.7607 107.953 59.8054 107.818 59.8054ZM108.997 64.7273V60.2273H109.892V60.777H109.932C109.972 60.6889 110.03 60.5994 110.105 60.5085C110.182 60.4162 110.281 60.3395 110.403 60.2784C110.527 60.2159 110.68 60.1847 110.863 60.1847C111.102 60.1847 111.322 60.2472 111.524 60.3722C111.726 60.4957 111.887 60.6825 112.008 60.9325C112.128 61.1811 112.189 61.4929 112.189 61.8679C112.189 62.233 112.13 62.5412 112.012 62.7926C111.895 63.0426 111.736 63.2322 111.535 63.3615C111.334 63.4893 111.11 63.5533 110.861 63.5533C110.685 63.5533 110.535 63.5241 110.412 63.4659C110.29 63.4077 110.189 63.3345 110.111 63.2464C110.033 63.157 109.974 63.0668 109.932 62.9759H109.905V64.7273H108.997ZM109.885 61.8636C109.885 62.0582 109.912 62.228 109.966 62.3729C110.02 62.5178 110.099 62.6307 110.201 62.7116C110.303 62.7912 110.427 62.831 110.574 62.831C110.721 62.831 110.846 62.7905 110.949 62.7095C111.051 62.6271 111.128 62.5135 111.181 62.3686C111.235 62.2223 111.262 62.054 111.262 61.8636C111.262 61.6747 111.236 61.5085 111.183 61.3651C111.131 61.2216 111.053 61.1094 110.951 61.0284C110.849 60.9474 110.723 60.907 110.574 60.907C110.426 60.907 110.301 60.946 110.199 61.0241C110.098 61.1023 110.02 61.2131 109.966 61.3565C109.912 61.5 109.885 61.669 109.885 61.8636ZM114.535 60.2273V60.9091H112.564V60.2273H114.535ZM113.011 59.4432H113.919V62.4943C113.919 62.5781 113.932 62.6435 113.957 62.6903C113.983 62.7358 114.018 62.7678 114.064 62.7862C114.111 62.8047 114.165 62.8139 114.226 62.8139C114.268 62.8139 114.311 62.8104 114.354 62.8033C114.396 62.7947 114.429 62.7884 114.452 62.7841L114.594 63.4595C114.549 63.4737 114.485 63.4901 114.403 63.5085C114.32 63.5284 114.22 63.5405 114.102 63.5447C113.883 63.5533 113.692 63.5241 113.527 63.4574C113.363 63.3906 113.236 63.2869 113.145 63.1463C113.055 63.0057 113.01 62.8281 113.011 62.6136V59.4432Z" fill="white"/>
<rect x="154.25" y="41.25" width="44.5" height="12" rx="2.25" fill="#092AD0" fill-opacity="0.56" stroke="#092AD0" stroke-width="0.5"/>
<path d="M162.516 49.5L163.232 45.1364H163.913L163.197 49.5H162.516ZM160.562 48.4176L160.675 47.7358H164.084L163.971 48.4176H160.562ZM160.982 49.5L161.697 45.1364H162.379L161.663 49.5H160.982ZM160.811 46.9006L160.926 46.2188H164.335L164.22 46.9006H160.811ZM169.058 46.5469C169.028 46.4432 168.986 46.3516 168.932 46.272C168.878 46.1911 168.812 46.1229 168.734 46.0675C168.657 46.0107 168.569 45.9673 168.47 45.9375C168.372 45.9077 168.263 45.8928 168.144 45.8928C167.921 45.8928 167.725 45.9482 167.556 46.0589C167.388 46.1697 167.257 46.331 167.164 46.5426C167.07 46.7528 167.023 47.0099 167.023 47.3139C167.023 47.6179 167.069 47.8764 167.162 48.0895C167.254 48.3026 167.385 48.4652 167.554 48.5774C167.723 48.6882 167.922 48.7436 168.152 48.7436C168.361 48.7436 168.539 48.7067 168.687 48.6328C168.836 48.5575 168.95 48.4517 169.028 48.3153C169.108 48.179 169.147 48.0178 169.147 47.8317L169.335 47.8594H168.21V47.1648H170.036V47.7145C170.036 48.098 169.955 48.4276 169.793 48.7031C169.631 48.9773 169.408 49.1889 169.124 49.3381C168.84 49.4858 168.515 49.5597 168.148 49.5597C167.739 49.5597 167.38 49.4695 167.07 49.2891C166.76 49.1072 166.519 48.8494 166.346 48.5156C166.174 48.1804 166.088 47.7827 166.088 47.3224C166.088 46.9687 166.139 46.6534 166.241 46.3764C166.345 46.098 166.49 45.8622 166.676 45.669C166.862 45.4759 167.078 45.3288 167.326 45.228C167.573 45.1271 167.841 45.0767 168.129 45.0767C168.376 45.0767 168.606 45.1129 168.819 45.1854C169.032 45.2564 169.221 45.3572 169.386 45.4879C169.552 45.6186 169.688 45.7741 169.793 45.9545C169.898 46.1335 169.966 46.331 169.995 46.5469H169.058ZM170.712 49.5V46.2273H171.592V46.7983H171.626C171.686 46.5952 171.786 46.4418 171.926 46.3381C172.067 46.233 172.229 46.1804 172.412 46.1804C172.458 46.1804 172.507 46.1832 172.559 46.1889C172.612 46.1946 172.658 46.2024 172.698 46.2124V47.0178C172.655 47.005 172.596 46.9936 172.521 46.9837C172.445 46.9737 172.377 46.9688 172.314 46.9688C172.181 46.9688 172.061 46.9979 171.956 47.0561C171.852 47.1129 171.77 47.1925 171.709 47.2947C171.649 47.397 171.619 47.5149 171.619 47.6484V49.5H170.712ZM174.006 49.5618C173.798 49.5618 173.612 49.5256 173.448 49.4531C173.285 49.3793 173.156 49.2706 173.06 49.1271C172.967 48.9822 172.92 48.8018 172.92 48.5859C172.92 48.4041 172.953 48.2514 173.02 48.1278C173.087 48.0043 173.178 47.9048 173.293 47.8295C173.408 47.7543 173.538 47.6974 173.685 47.6591C173.832 47.6207 173.987 47.5938 174.149 47.5781C174.339 47.5582 174.493 47.5398 174.609 47.5227C174.726 47.5043 174.81 47.4773 174.863 47.4418C174.915 47.4062 174.942 47.3537 174.942 47.2841V47.2713C174.942 47.1364 174.899 47.032 174.814 46.9581C174.73 46.8842 174.611 46.8473 174.456 46.8473C174.293 46.8473 174.163 46.8835 174.066 46.956C173.969 47.027 173.906 47.1165 173.874 47.2244L173.035 47.1562C173.077 46.9574 173.161 46.7855 173.286 46.6406C173.411 46.4943 173.572 46.3821 173.77 46.304C173.969 46.2244 174.199 46.1847 174.46 46.1847C174.642 46.1847 174.816 46.206 174.982 46.2486C175.15 46.2912 175.298 46.3572 175.428 46.4467C175.558 46.5362 175.661 46.6513 175.737 46.7919C175.812 46.9311 175.849 47.098 175.849 47.2926V49.5H174.989V49.0462H174.963C174.911 49.1484 174.84 49.2386 174.752 49.3168C174.664 49.3935 174.558 49.4538 174.435 49.4979C174.311 49.5405 174.168 49.5618 174.006 49.5618ZM174.266 48.9354C174.4 48.9354 174.518 48.9091 174.62 48.8565C174.722 48.8026 174.803 48.7301 174.861 48.6392C174.919 48.5483 174.948 48.4453 174.948 48.3303V47.983C174.92 48.0014 174.881 48.0185 174.831 48.0341C174.783 48.0483 174.728 48.0618 174.667 48.0746C174.606 48.0859 174.545 48.0966 174.484 48.1065C174.423 48.1151 174.367 48.1229 174.317 48.13C174.211 48.1456 174.118 48.1705 174.038 48.2045C173.959 48.2386 173.897 48.2848 173.853 48.343C173.809 48.3999 173.787 48.4709 173.787 48.5561C173.787 48.6797 173.832 48.7741 173.921 48.8395C174.012 48.9034 174.127 48.9354 174.266 48.9354ZM176.554 50.7273V46.2273H177.449V46.777H177.489C177.529 46.6889 177.586 46.5994 177.662 46.5085C177.738 46.4162 177.838 46.3395 177.96 46.2784C178.083 46.2159 178.237 46.1847 178.42 46.1847C178.659 46.1847 178.879 46.2472 179.081 46.3722C179.282 46.4957 179.444 46.6825 179.564 46.9325C179.685 47.1811 179.745 47.4929 179.745 47.8679C179.745 48.233 179.686 48.5412 179.569 48.7926C179.452 49.0426 179.293 49.2322 179.091 49.3615C178.891 49.4893 178.667 49.5533 178.418 49.5533C178.242 49.5533 178.092 49.5241 177.968 49.4659C177.846 49.4077 177.746 49.3345 177.668 49.2464C177.59 49.157 177.53 49.0668 177.489 48.9759H177.461V50.7273H176.554ZM177.442 47.8636C177.442 48.0582 177.469 48.228 177.523 48.3729C177.577 48.5178 177.655 48.6307 177.757 48.7116C177.86 48.7912 177.984 48.831 178.13 48.831C178.278 48.831 178.403 48.7905 178.505 48.7095C178.608 48.6271 178.685 48.5135 178.738 48.3686C178.792 48.2223 178.819 48.054 178.819 47.8636C178.819 47.6747 178.792 47.5085 178.74 47.3651C178.687 47.2216 178.61 47.1094 178.507 47.0284C178.405 46.9474 178.279 46.907 178.13 46.907C177.983 46.907 177.858 46.946 177.755 47.0241C177.654 47.1023 177.577 47.2131 177.523 47.3565C177.469 47.5 177.442 47.669 177.442 47.8636ZM181.258 47.608V49.5H180.35V45.1364H181.233V46.8047H181.271C181.345 46.6115 181.464 46.4602 181.629 46.3509C181.794 46.2401 182 46.1847 182.249 46.1847C182.476 46.1847 182.674 46.2344 182.843 46.3338C183.014 46.4318 183.146 46.5732 183.24 46.7578C183.335 46.9411 183.382 47.1605 183.38 47.4162V49.5H182.473V47.5781C182.474 47.3764 182.423 47.2195 182.319 47.1072C182.217 46.995 182.074 46.9389 181.889 46.9389C181.765 46.9389 181.656 46.9652 181.561 47.0178C181.467 47.0703 181.393 47.147 181.339 47.2479C181.287 47.3473 181.26 47.4673 181.258 47.608ZM185.759 47.983H186.543L186.937 48.4901L187.325 48.9418L188.056 49.858H187.195L186.692 49.2401L186.434 48.8736L185.759 47.983ZM188.122 47.3182C188.122 47.794 188.031 48.1989 187.851 48.5327C187.672 48.8665 187.428 49.1214 187.118 49.2976C186.81 49.4723 186.463 49.5597 186.078 49.5597C185.691 49.5597 185.343 49.4716 185.034 49.2955C184.726 49.1193 184.482 48.8643 184.303 48.5305C184.124 48.1967 184.035 47.7926 184.035 47.3182C184.035 46.8423 184.124 46.4375 184.303 46.1037C184.482 45.7699 184.726 45.5156 185.034 45.3409C185.343 45.1648 185.691 45.0767 186.078 45.0767C186.463 45.0767 186.81 45.1648 187.118 45.3409C187.428 45.5156 187.672 45.7699 187.851 46.1037C188.031 46.4375 188.122 46.8423 188.122 47.3182ZM187.186 47.3182C187.186 47.0099 187.14 46.75 187.048 46.5384C186.957 46.3267 186.828 46.1662 186.662 46.0568C186.496 45.9474 186.301 45.8928 186.078 45.8928C185.855 45.8928 185.661 45.9474 185.494 46.0568C185.328 46.1662 185.199 46.3267 185.107 46.5384C185.016 46.75 184.97 47.0099 184.97 47.3182C184.97 47.6264 185.016 47.8864 185.107 48.098C185.199 48.3097 185.328 48.4702 185.494 48.5795C185.661 48.6889 185.855 48.7436 186.078 48.7436C186.301 48.7436 186.496 48.6889 186.662 48.5795C186.828 48.4702 186.957 48.3097 187.048 48.098C187.14 47.8864 187.186 47.6264 187.186 47.3182ZM188.805 49.5V45.1364H189.728V48.7393H191.598V49.5H188.805Z" fill="white"/>
<rect x="4" width="250" height="67.5" rx="17.5" fill="white"/>
<circle cx="41.5" cy="33.5" r="20" fill="#C4C4C4"/>
<rect x="32.5" y="36" width="18" height="10" rx="2.5" fill="white"/>
<circle cx="41.25" cy="27.75" r="6.25" fill="white"/>
<path d="M68.1321 26V18.7273H69.6697V24.7322H72.7876V26H68.1321ZM77.2754 23.6776V20.5455H78.7882V26H77.3358V25.0092H77.2789C77.1558 25.3288 76.9511 25.5857 76.6646 25.7798C76.3805 25.974 76.0337 26.071 75.6241 26.071C75.2595 26.071 74.9387 25.9882 74.6618 25.8224C74.3848 25.6567 74.1681 25.4212 74.0119 25.1158C73.858 24.8104 73.7799 24.4446 73.7775 24.0185V20.5455H75.2903V23.7486C75.2927 24.0705 75.3791 24.325 75.5495 24.5121C75.72 24.6991 75.9484 24.7926 76.2349 24.7926C76.4172 24.7926 76.5877 24.7512 76.7463 24.6683C76.9049 24.5831 77.0327 24.4576 77.1298 24.2919C77.2292 24.1262 77.2778 23.9214 77.2754 23.6776ZM81.369 24.4304L81.3725 22.6158H81.5927L83.3398 20.5455H85.0763L82.729 23.2869H82.3704L81.369 24.4304ZM79.9982 26V18.7273H81.511V26H79.9982ZM83.4073 26L81.8022 23.6243L82.8107 22.5554L85.1793 26H83.4073ZM88.0797 26.1065C87.5186 26.1065 87.0357 25.9929 86.6309 25.7656C86.2284 25.536 85.9183 25.2116 85.7005 24.7926C85.4827 24.3712 85.3738 23.8729 85.3738 23.2976C85.3738 22.7365 85.4827 22.2441 85.7005 21.8203C85.9183 21.3965 86.2248 21.0663 86.6202 20.8295C87.0179 20.5928 87.4843 20.4744 88.0194 20.4744C88.3792 20.4744 88.7142 20.5324 89.0243 20.6484C89.3368 20.7621 89.6091 20.9337 89.8411 21.1634C90.0755 21.393 90.2578 21.6818 90.388 22.0298C90.5182 22.3755 90.5833 22.7803 90.5833 23.2443V23.6598H85.9775V22.7223H89.1593C89.1593 22.5045 89.1119 22.3116 89.0172 22.1435C88.9225 21.9754 88.7911 21.844 88.623 21.7493C88.4573 21.6522 88.2644 21.6037 88.0442 21.6037C87.8146 21.6037 87.611 21.657 87.4334 21.7635C87.2582 21.8677 87.1209 22.0085 87.0215 22.1861C86.9221 22.3613 86.8712 22.5566 86.8688 22.772V23.6634C86.8688 23.9332 86.9185 24.1664 87.0179 24.3629C87.1197 24.5594 87.263 24.7109 87.4476 24.8175C87.6323 24.924 87.8513 24.9773 88.1046 24.9773C88.2727 24.9773 88.4266 24.9536 88.5662 24.9062C88.7059 24.8589 88.8255 24.7879 88.9249 24.6932C89.0243 24.5985 89.1001 24.4825 89.1522 24.3452L90.5513 24.4375C90.4803 24.7737 90.3347 25.0672 90.1145 25.3182C89.8967 25.5668 89.615 25.7609 89.2694 25.9006C88.9261 26.0379 88.5295 26.1065 88.0797 26.1065ZM97.8587 20.8189C97.8303 20.5324 97.7083 20.3099 97.4929 20.1513C97.2775 19.9927 96.9851 19.9134 96.6158 19.9134C96.3648 19.9134 96.1529 19.9489 95.9801 20.0199C95.8073 20.0885 95.6747 20.1844 95.5824 20.3075C95.4924 20.4306 95.4474 20.5703 95.4474 20.7266C95.4427 20.8568 95.4699 20.9704 95.5291 21.0675C95.5907 21.1645 95.6747 21.2486 95.7812 21.3196C95.8878 21.3883 96.0109 21.4486 96.1506 21.5007C96.2902 21.5504 96.4394 21.593 96.598 21.6286L97.2514 21.7848C97.5687 21.8558 97.8598 21.9505 98.125 22.0689C98.3902 22.1873 98.6198 22.3329 98.8139 22.5057C99.008 22.6785 99.1584 22.8821 99.2649 23.1165C99.3738 23.3509 99.4295 23.6196 99.4318 23.9226C99.4295 24.3677 99.3158 24.7536 99.0909 25.0803C98.8684 25.4046 98.5464 25.6567 98.125 25.8366C97.706 26.0142 97.2005 26.103 96.6087 26.103C96.0215 26.103 95.5102 26.013 95.0746 25.8331C94.6413 25.6532 94.3028 25.3868 94.0589 25.0341C93.8175 24.679 93.6908 24.2398 93.679 23.7166H95.1669C95.1835 23.9605 95.2533 24.1641 95.3764 24.3274C95.5019 24.4884 95.6688 24.6103 95.8771 24.6932C96.0878 24.7737 96.3258 24.8139 96.5909 24.8139C96.8513 24.8139 97.0774 24.776 97.2692 24.7003C97.4633 24.6245 97.6136 24.5192 97.7202 24.3842C97.8267 24.2493 97.88 24.0942 97.88 23.919C97.88 23.7557 97.8314 23.6184 97.7344 23.5071C97.6397 23.3958 97.5 23.3011 97.3153 23.223C97.133 23.1449 96.9093 23.0739 96.6442 23.0099L95.8523 22.8111C95.2391 22.6619 94.755 22.4287 94.3999 22.1115C94.0447 21.7943 93.8684 21.367 93.8707 20.8295C93.8684 20.3892 93.9856 20.0045 94.2223 19.6754C94.4614 19.3464 94.7893 19.0895 95.206 18.9048C95.6226 18.7202 96.0961 18.6278 96.6264 18.6278C97.1662 18.6278 97.6373 18.7202 98.0398 18.9048C98.4446 19.0895 98.7595 19.3464 98.9844 19.6754C99.2093 20.0045 99.3253 20.3857 99.3324 20.8189H97.8587ZM101.993 26.103C101.645 26.103 101.335 26.0426 101.063 25.9219C100.79 25.7988 100.575 25.6177 100.416 25.3786C100.26 25.1371 100.182 24.8364 100.182 24.4766C100.182 24.1735 100.238 23.919 100.349 23.7131C100.46 23.5071 100.612 23.3414 100.803 23.2159C100.995 23.0904 101.213 22.9957 101.457 22.9318C101.703 22.8679 101.961 22.8229 102.231 22.7969C102.548 22.7637 102.804 22.733 102.998 22.7045C103.192 22.6738 103.333 22.6288 103.421 22.5696C103.508 22.5104 103.552 22.4228 103.552 22.3068V22.2855C103.552 22.0606 103.481 21.8866 103.339 21.7635C103.199 21.6404 103 21.5788 102.742 21.5788C102.47 21.5788 102.253 21.6392 102.093 21.7599C101.932 21.8783 101.825 22.0275 101.773 22.2074L100.374 22.0938C100.445 21.7623 100.584 21.4759 100.793 21.2344C101.001 20.9905 101.27 20.8035 101.599 20.6733C101.93 20.5407 102.314 20.4744 102.749 20.4744C103.052 20.4744 103.343 20.5099 103.619 20.581C103.899 20.652 104.146 20.7621 104.362 20.9112C104.579 21.0604 104.751 21.2521 104.877 21.4865C105.002 21.7185 105.065 21.9967 105.065 22.321V26H103.63V25.2436H103.588C103.5 25.4141 103.383 25.5644 103.236 25.6946C103.089 25.8224 102.913 25.9231 102.707 25.9964C102.501 26.0675 102.263 26.103 101.993 26.103ZM102.426 25.0589C102.649 25.0589 102.845 25.0152 103.016 24.9276C103.186 24.8376 103.32 24.7169 103.417 24.5653C103.514 24.4138 103.563 24.2422 103.563 24.0504V23.4716C103.515 23.5024 103.45 23.5308 103.367 23.5568C103.287 23.5805 103.196 23.603 103.094 23.6243C102.992 23.6432 102.89 23.661 102.789 23.6776C102.687 23.6918 102.594 23.7048 102.512 23.7166C102.334 23.7427 102.179 23.7841 102.046 23.8409C101.914 23.8977 101.811 23.9747 101.737 24.0717C101.664 24.1664 101.627 24.2848 101.627 24.4268C101.627 24.6328 101.702 24.7902 101.851 24.8991C102.003 25.0057 102.194 25.0589 102.426 25.0589ZM107.751 22.8466V26H106.238V20.5455H107.68V21.5078H107.744C107.865 21.1906 108.067 20.9396 108.351 20.755C108.635 20.5679 108.98 20.4744 109.385 20.4744C109.764 20.4744 110.094 20.5573 110.376 20.723C110.657 20.8887 110.876 21.1255 111.032 21.4332C111.189 21.7386 111.267 22.1032 111.267 22.527V26H109.754V22.7969C109.756 22.4631 109.671 22.2027 109.498 22.0156C109.326 21.8262 109.088 21.7315 108.785 21.7315C108.581 21.7315 108.401 21.7753 108.245 21.8629C108.091 21.9505 107.97 22.0784 107.883 22.2464C107.797 22.4122 107.754 22.6122 107.751 22.8466ZM114.924 26.1065C114.365 26.1065 113.884 25.9882 113.482 25.7514C113.082 25.5123 112.774 25.1809 112.559 24.7571C112.346 24.3333 112.239 23.8456 112.239 23.294C112.239 22.7353 112.347 22.2453 112.562 21.8239C112.78 21.4001 113.089 21.0698 113.489 20.8331C113.889 20.594 114.365 20.4744 114.917 20.4744C115.392 20.4744 115.809 20.5608 116.167 20.7337C116.524 20.9065 116.807 21.1491 117.015 21.4616C117.224 21.7741 117.338 22.1411 117.36 22.5625H115.932C115.892 22.2902 115.785 22.0713 115.613 21.9055C115.442 21.7375 115.218 21.6534 114.941 21.6534C114.707 21.6534 114.502 21.7173 114.327 21.8452C114.154 21.9706 114.019 22.1541 113.922 22.3956C113.825 22.6371 113.777 22.9295 113.777 23.2727C113.777 23.6207 113.824 23.9167 113.919 24.1605C114.016 24.4044 114.152 24.5902 114.327 24.718C114.502 24.8459 114.707 24.9098 114.941 24.9098C115.114 24.9098 115.269 24.8743 115.407 24.8033C115.546 24.7322 115.661 24.6293 115.751 24.4943C115.843 24.357 115.904 24.1925 115.932 24.0007H117.36C117.336 24.4174 117.222 24.7843 117.019 25.1016C116.818 25.4164 116.539 25.6626 116.184 25.8402C115.829 26.0178 115.409 26.1065 114.924 26.1065ZM119.841 22.8466V26H118.328V18.7273H119.798V21.5078H119.862C119.985 21.1858 120.184 20.9337 120.459 20.7514C120.734 20.5668 121.078 20.4744 121.492 20.4744C121.871 20.4744 122.201 20.5573 122.483 20.723C122.767 20.8864 122.987 21.1219 123.144 21.4297C123.302 21.7351 123.38 22.1009 123.378 22.527V26H121.865V22.7969C121.868 22.4607 121.782 22.1991 121.61 22.0121C121.439 21.825 121.2 21.7315 120.892 21.7315C120.686 21.7315 120.504 21.7753 120.345 21.8629C120.189 21.9505 120.066 22.0784 119.976 22.2464C119.888 22.4122 119.843 22.6122 119.841 22.8466ZM127.054 26.1065C126.493 26.1065 126.01 25.9929 125.605 25.7656C125.203 25.536 124.893 25.2116 124.675 24.7926C124.457 24.3712 124.348 23.8729 124.348 23.2976C124.348 22.7365 124.457 22.2441 124.675 21.8203C124.893 21.3965 125.199 21.0663 125.595 20.8295C125.993 20.5928 126.459 20.4744 126.994 20.4744C127.354 20.4744 127.689 20.5324 127.999 20.6484C128.311 20.7621 128.584 20.9337 128.816 21.1634C129.05 21.393 129.232 21.6818 129.363 22.0298C129.493 22.3755 129.558 22.7803 129.558 23.2443V23.6598H124.952V22.7223H128.134C128.134 22.5045 128.087 22.3116 127.992 22.1435C127.897 21.9754 127.766 21.844 127.598 21.7493C127.432 21.6522 127.239 21.6037 127.019 21.6037C126.789 21.6037 126.586 21.657 126.408 21.7635C126.233 21.8677 126.096 22.0085 125.996 22.1861C125.897 22.3613 125.846 22.5566 125.843 22.772V23.6634C125.843 23.9332 125.893 24.1664 125.993 24.3629C126.094 24.5594 126.238 24.7109 126.422 24.8175C126.607 24.924 126.826 24.9773 127.079 24.9773C127.247 24.9773 127.401 24.9536 127.541 24.9062C127.681 24.8589 127.8 24.7879 127.9 24.6932C127.999 24.5985 128.075 24.4825 128.127 24.3452L129.526 24.4375C129.455 24.7737 129.309 25.0672 129.089 25.3182C128.871 25.5668 128.59 25.7609 128.244 25.9006C127.901 26.0379 127.504 26.1065 127.054 26.1065ZM130.517 26V25.098L133.187 21.7919V21.7528H130.609V20.5455H135.009V21.5291L132.502 24.7536V24.7926H135.101V26H130.517Z" fill="black"/>
<path d="M68.0057 36.5V30.6818H71.858V31.696H69.2358V33.0824H71.6023V34.0966H69.2358V36.5H68.0057ZM72.5923 36.5V32.1364H73.7656V32.8977H73.8111C73.8906 32.6269 74.0241 32.4223 74.2116 32.2841C74.3991 32.1439 74.6151 32.0739 74.8594 32.0739C74.92 32.0739 74.9853 32.0777 75.0554 32.0852C75.1255 32.0928 75.187 32.1032 75.2401 32.1165V33.1903C75.1832 33.1733 75.1046 33.1581 75.0043 33.1449C74.9039 33.1316 74.812 33.125 74.7287 33.125C74.5507 33.125 74.3916 33.1638 74.2514 33.2415C74.1132 33.3172 74.0033 33.4233 73.9219 33.5597C73.8423 33.696 73.8026 33.8532 73.8026 34.0312V36.5H72.5923ZM77.6342 36.5852C77.1929 36.5852 76.8113 36.4915 76.4893 36.304C76.1693 36.1146 75.9221 35.8513 75.7479 35.5142C75.5736 35.1752 75.4865 34.7822 75.4865 34.3352C75.4865 33.8845 75.5736 33.4905 75.7479 33.1534C75.9221 32.8144 76.1693 32.5511 76.4893 32.3636C76.8113 32.1742 77.1929 32.0795 77.6342 32.0795C78.0755 32.0795 78.4562 32.1742 78.7763 32.3636C79.0982 32.5511 79.3464 32.8144 79.5206 33.1534C79.6948 33.4905 79.782 33.8845 79.782 34.3352C79.782 34.7822 79.6948 35.1752 79.5206 35.5142C79.3464 35.8513 79.0982 36.1146 78.7763 36.304C78.4562 36.4915 78.0755 36.5852 77.6342 36.5852ZM77.6399 35.6477C77.8407 35.6477 78.0083 35.5909 78.1428 35.4773C78.2772 35.3617 78.3786 35.2045 78.4467 35.0057C78.5168 34.8068 78.5518 34.5805 78.5518 34.3267C78.5518 34.0729 78.5168 33.8466 78.4467 33.6477C78.3786 33.4489 78.2772 33.2917 78.1428 33.1761C78.0083 33.0606 77.8407 33.0028 77.6399 33.0028C77.4373 33.0028 77.2668 33.0606 77.1286 33.1761C76.9922 33.2917 76.889 33.4489 76.8189 33.6477C76.7507 33.8466 76.7166 34.0729 76.7166 34.3267C76.7166 34.5805 76.7507 34.8068 76.8189 35.0057C76.889 35.2045 76.9922 35.3617 77.1286 35.4773C77.2668 35.5909 77.4373 35.6477 77.6399 35.6477ZM81.7791 33.9773V36.5H80.5689V32.1364H81.7223V32.9062H81.7734C81.87 32.6525 82.032 32.4517 82.2592 32.304C82.4865 32.1544 82.7621 32.0795 83.0859 32.0795C83.389 32.0795 83.6532 32.1458 83.8786 32.2784C84.1039 32.411 84.2791 32.6004 84.4041 32.8466C84.5291 33.0909 84.5916 33.3826 84.5916 33.7216V36.5H83.3814V33.9375C83.3833 33.6705 83.3151 33.4621 83.1768 33.3125C83.0386 33.161 82.8482 33.0852 82.6058 33.0852C82.4429 33.0852 82.299 33.1203 82.174 33.1903C82.0509 33.2604 81.9543 33.3627 81.8842 33.4972C81.8161 33.6297 81.781 33.7898 81.7791 33.9773ZM87.8665 32.1364V33.0455H85.2386V32.1364H87.8665ZM85.8352 31.0909H87.0455V35.1591C87.0455 35.2708 87.0625 35.358 87.0966 35.4205C87.1307 35.4811 87.178 35.5237 87.2386 35.5483C87.3011 35.5729 87.3731 35.5852 87.4545 35.5852C87.5114 35.5852 87.5682 35.5805 87.625 35.571C87.6818 35.5597 87.7254 35.5511 87.7557 35.5455L87.946 36.446C87.8854 36.465 87.8002 36.4867 87.6903 36.5114C87.5805 36.5379 87.447 36.554 87.2898 36.5597C86.9981 36.571 86.7424 36.5322 86.5227 36.4432C86.3049 36.3542 86.1354 36.2159 86.0142 36.0284C85.893 35.8409 85.8333 35.6042 85.8352 35.3182V31.0909ZM90.5966 36.5852C90.1477 36.5852 89.7614 36.4943 89.4375 36.3125C89.1155 36.1288 88.8674 35.8693 88.6932 35.5341C88.5189 35.197 88.4318 34.7983 88.4318 34.3381C88.4318 33.8892 88.5189 33.4953 88.6932 33.1562C88.8674 32.8172 89.1127 32.553 89.429 32.3636C89.7472 32.1742 90.1203 32.0795 90.5483 32.0795C90.8362 32.0795 91.1042 32.1259 91.3523 32.2188C91.6023 32.3097 91.8201 32.447 92.0057 32.6307C92.1932 32.8144 92.339 33.0455 92.4432 33.3239C92.5473 33.6004 92.5994 33.9242 92.5994 34.2955V34.6278H88.9148V33.8778H91.4602C91.4602 33.7036 91.4223 33.5492 91.3466 33.4148C91.2708 33.2803 91.1657 33.1752 91.0312 33.0994C90.8987 33.0218 90.7443 32.983 90.5682 32.983C90.3845 32.983 90.2216 33.0256 90.0795 33.1108C89.9394 33.1941 89.8295 33.3068 89.75 33.4489C89.6705 33.589 89.6297 33.7453 89.6278 33.9176V34.6307C89.6278 34.8466 89.6676 35.0331 89.7472 35.1903C89.8286 35.3475 89.9432 35.4688 90.0909 35.554C90.2386 35.6392 90.4138 35.6818 90.6165 35.6818C90.7509 35.6818 90.8741 35.6629 90.9858 35.625C91.0975 35.5871 91.1932 35.5303 91.2727 35.4545C91.3523 35.3788 91.4129 35.286 91.4545 35.1761L92.5739 35.25C92.517 35.5189 92.4006 35.7538 92.2244 35.9545C92.0502 36.1534 91.8248 36.3087 91.5483 36.4205C91.2737 36.5303 90.9564 36.5852 90.5966 36.5852ZM94.5994 33.9773V36.5H93.3892V32.1364H94.5426V32.9062H94.5938C94.6903 32.6525 94.8523 32.4517 95.0795 32.304C95.3068 32.1544 95.5824 32.0795 95.9062 32.0795C96.2093 32.0795 96.4735 32.1458 96.6989 32.2784C96.9242 32.411 97.0994 32.6004 97.2244 32.8466C97.3494 33.0909 97.4119 33.3826 97.4119 33.7216V36.5H96.2017V33.9375C96.2036 33.6705 96.1354 33.4621 95.9972 33.3125C95.8589 33.161 95.6686 33.0852 95.4261 33.0852C95.2633 33.0852 95.1193 33.1203 94.9943 33.1903C94.8712 33.2604 94.7746 33.3627 94.7045 33.4972C94.6364 33.6297 94.6013 33.7898 94.5994 33.9773ZM99.9737 36.571C99.6423 36.571 99.3421 36.4858 99.0732 36.3153C98.8061 36.143 98.594 35.8902 98.4368 35.5568C98.2815 35.2216 98.2038 34.8106 98.2038 34.3239C98.2038 33.8239 98.2843 33.4081 98.4453 33.0767C98.6063 32.7434 98.8203 32.4943 99.0874 32.3295C99.3563 32.1629 99.6508 32.0795 99.9709 32.0795C100.215 32.0795 100.419 32.1212 100.582 32.2045C100.746 32.286 100.879 32.3883 100.979 32.5114C101.082 32.6326 101.159 32.7519 101.212 32.8693H101.249V30.6818H102.457V36.5H101.263V35.8011H101.212C101.156 35.9223 101.075 36.0426 100.971 36.1619C100.869 36.2794 100.735 36.3769 100.57 36.4545C100.407 36.5322 100.209 36.571 99.9737 36.571ZM100.357 35.608C100.552 35.608 100.717 35.5549 100.852 35.4489C100.988 35.3409 101.092 35.1903 101.164 34.9972C101.238 34.804 101.275 34.5777 101.275 34.3182C101.275 34.0587 101.239 33.8333 101.167 33.642C101.095 33.4508 100.991 33.303 100.854 33.1989C100.718 33.0947 100.552 33.0426 100.357 33.0426C100.158 33.0426 99.9908 33.0966 99.8544 33.2045C99.718 33.3125 99.6148 33.4621 99.5447 33.6534C99.4747 33.8447 99.4396 34.0663 99.4396 34.3182C99.4396 34.572 99.4747 34.7964 99.5447 34.9915C99.6167 35.1847 99.7199 35.3362 99.8544 35.446C99.9908 35.554 100.158 35.608 100.357 35.608ZM105.326 36.5V30.6818H109.246V31.696H106.556V33.0824H109.045V34.0966H106.556V35.4858H109.258V36.5H105.326ZM111.412 33.9773V36.5H110.202V32.1364H111.355V32.9062H111.406C111.503 32.6525 111.665 32.4517 111.892 32.304C112.119 32.1544 112.395 32.0795 112.719 32.0795C113.022 32.0795 113.286 32.1458 113.511 32.2784C113.737 32.411 113.912 32.6004 114.037 32.8466C114.162 33.0909 114.224 33.3826 114.224 33.7216V36.5H113.014V33.9375C113.016 33.6705 112.948 33.4621 112.81 33.3125C112.671 33.161 112.481 33.0852 112.239 33.0852C112.076 33.0852 111.932 33.1203 111.807 33.1903C111.684 33.2604 111.587 33.3627 111.517 33.4972C111.449 33.6297 111.414 33.7898 111.412 33.9773ZM117.144 38.2273C116.752 38.2273 116.416 38.1733 116.136 38.0653C115.857 37.9593 115.636 37.8144 115.471 37.6307C115.306 37.447 115.199 37.2405 115.15 37.0114L116.269 36.8608C116.303 36.9479 116.357 37.0294 116.431 37.1051C116.505 37.1809 116.603 37.2415 116.724 37.2869C116.847 37.3343 116.996 37.358 117.173 37.358C117.436 37.358 117.653 37.2936 117.823 37.1648C117.996 37.0379 118.082 36.8248 118.082 36.5256V35.7273H118.031C117.978 35.8485 117.898 35.9631 117.792 36.071C117.686 36.179 117.549 36.267 117.383 36.3352C117.216 36.4034 117.017 36.4375 116.786 36.4375C116.459 36.4375 116.16 36.3617 115.891 36.2102C115.624 36.0568 115.411 35.8229 115.252 35.5085C115.095 35.1922 115.016 34.7926 115.016 34.3097C115.016 33.8153 115.097 33.4025 115.258 33.071C115.419 32.7396 115.633 32.4915 115.9 32.3267C116.169 32.1619 116.463 32.0795 116.783 32.0795C117.028 32.0795 117.232 32.1212 117.397 32.2045C117.562 32.286 117.694 32.3883 117.795 32.5114C117.897 32.6326 117.976 32.7519 118.031 32.8693H118.076V32.1364H119.278V36.5426C119.278 36.9138 119.187 37.2244 119.005 37.4744C118.823 37.7244 118.571 37.9119 118.249 38.0369C117.929 38.1638 117.561 38.2273 117.144 38.2273ZM117.17 35.5284C117.365 35.5284 117.53 35.4801 117.664 35.3835C117.8 35.285 117.905 35.1449 117.977 34.9631C118.05 34.7794 118.087 34.5597 118.087 34.304C118.087 34.0483 118.051 33.8267 117.979 33.6392C117.907 33.4498 117.803 33.303 117.667 33.1989C117.531 33.0947 117.365 33.0426 117.17 33.0426C116.971 33.0426 116.803 33.0966 116.667 33.2045C116.531 33.3106 116.427 33.4583 116.357 33.6477C116.287 33.8371 116.252 34.0559 116.252 34.304C116.252 34.5559 116.287 34.7737 116.357 34.9574C116.429 35.1392 116.532 35.2803 116.667 35.3807C116.803 35.4792 116.971 35.5284 117.17 35.5284ZM120.241 36.5V32.1364H121.451V36.5H120.241ZM120.849 31.5739C120.669 31.5739 120.514 31.5142 120.386 31.3949C120.259 31.2737 120.195 31.1288 120.195 30.9602C120.195 30.7936 120.259 30.6506 120.386 30.5312C120.514 30.41 120.669 30.3494 120.849 30.3494C121.029 30.3494 121.182 30.41 121.309 30.5312C121.438 30.6506 121.502 30.7936 121.502 30.9602C121.502 31.1288 121.438 31.2737 121.309 31.3949C121.182 31.5142 121.029 31.5739 120.849 31.5739ZM123.631 33.9773V36.5H122.42V32.1364H123.574V32.9062H123.625C123.722 32.6525 123.884 32.4517 124.111 32.304C124.338 32.1544 124.614 32.0795 124.938 32.0795C125.241 32.0795 125.505 32.1458 125.73 32.2784C125.955 32.411 126.131 32.6004 126.256 32.8466C126.381 33.0909 126.443 33.3826 126.443 33.7216V36.5H125.233V33.9375C125.235 33.6705 125.167 33.4621 125.028 33.3125C124.89 33.161 124.7 33.0852 124.457 33.0852C124.295 33.0852 124.151 33.1203 124.026 33.1903C123.902 33.2604 123.806 33.3627 123.736 33.4972C123.668 33.6297 123.633 33.7898 123.631 33.9773ZM129.386 36.5852C128.937 36.5852 128.55 36.4943 128.227 36.3125C127.905 36.1288 127.656 35.8693 127.482 35.5341C127.308 35.197 127.221 34.7983 127.221 34.3381C127.221 33.8892 127.308 33.4953 127.482 33.1562C127.656 32.8172 127.902 32.553 128.218 32.3636C128.536 32.1742 128.909 32.0795 129.337 32.0795C129.625 32.0795 129.893 32.1259 130.141 32.2188C130.391 32.3097 130.609 32.447 130.795 32.6307C130.982 32.8144 131.128 33.0455 131.232 33.3239C131.336 33.6004 131.388 33.9242 131.388 34.2955V34.6278H127.704V33.8778H130.249C130.249 33.7036 130.211 33.5492 130.136 33.4148C130.06 33.2803 129.955 33.1752 129.82 33.0994C129.688 33.0218 129.533 32.983 129.357 32.983C129.174 32.983 129.011 33.0256 128.869 33.1108C128.728 33.1941 128.619 33.3068 128.539 33.4489C128.46 33.589 128.419 33.7453 128.417 33.9176V34.6307C128.417 34.8466 128.457 35.0331 128.536 35.1903C128.618 35.3475 128.732 35.4688 128.88 35.554C129.028 35.6392 129.203 35.6818 129.406 35.6818C129.54 35.6818 129.663 35.6629 129.775 35.625C129.887 35.5871 129.982 35.5303 130.062 35.4545C130.141 35.3788 130.202 35.286 130.244 35.1761L131.363 35.25C131.306 35.5189 131.19 35.7538 131.013 35.9545C130.839 36.1534 130.614 36.3087 130.337 36.4205C130.063 36.5303 129.746 36.5852 129.386 36.5852ZM134.167 36.5852C133.718 36.5852 133.332 36.4943 133.008 36.3125C132.686 36.1288 132.438 35.8693 132.263 35.5341C132.089 35.197 132.002 34.7983 132.002 34.3381C132.002 33.8892 132.089 33.4953 132.263 33.1562C132.438 32.8172 132.683 32.553 132.999 32.3636C133.317 32.1742 133.691 32.0795 134.119 32.0795C134.406 32.0795 134.674 32.1259 134.923 32.2188C135.173 32.3097 135.39 32.447 135.576 32.6307C135.763 32.8144 135.909 33.0455 136.013 33.3239C136.118 33.6004 136.17 33.9242 136.17 34.2955V34.6278H132.485V33.8778H135.031C135.031 33.7036 134.993 33.5492 134.917 33.4148C134.841 33.2803 134.736 33.1752 134.602 33.0994C134.469 33.0218 134.315 32.983 134.138 32.983C133.955 32.983 133.792 33.0256 133.65 33.1108C133.51 33.1941 133.4 33.3068 133.32 33.4489C133.241 33.589 133.2 33.7453 133.198 33.9176V34.6307C133.198 34.8466 133.238 35.0331 133.317 35.1903C133.399 35.3475 133.513 35.4688 133.661 35.554C133.809 35.6392 133.984 35.6818 134.187 35.6818C134.321 35.6818 134.444 35.6629 134.556 35.625C134.668 35.5871 134.763 35.5303 134.843 35.4545C134.923 35.3788 134.983 35.286 135.025 35.1761L136.144 35.25C136.087 35.5189 135.971 35.7538 135.795 35.9545C135.621 36.1534 135.395 36.3087 135.119 36.4205C134.844 36.5303 134.527 36.5852 134.167 36.5852ZM136.96 36.5V32.1364H138.133V32.8977H138.178C138.258 32.6269 138.391 32.4223 138.579 32.2841C138.766 32.1439 138.982 32.0739 139.227 32.0739C139.287 32.0739 139.353 32.0777 139.423 32.0852C139.493 32.0928 139.554 32.1032 139.607 32.1165V33.1903C139.55 33.1733 139.472 33.1581 139.371 33.1449C139.271 33.1316 139.179 33.125 139.096 33.125C138.918 33.125 138.759 33.1638 138.619 33.2415C138.48 33.3172 138.371 33.4233 138.289 33.5597C138.21 33.696 138.17 33.8532 138.17 34.0312V36.5H136.96Z" fill="#092AD0"/>
<rect x="67.75" y="41.25" width="34.5" height="12" rx="2.25" fill="#092AD0" fill-opacity="0.56" stroke="#092AD0" stroke-width="0.5"/>
<path d="M74.0156 49.5L74.7315 45.1364H75.4134L74.6974 49.5H74.0156ZM72.0618 48.4176L72.1747 47.7358H75.5838L75.4709 48.4176H72.0618ZM72.4815 49.5L73.1974 45.1364H73.8793L73.1634 49.5H72.4815ZM72.3111 46.9006L72.4261 46.2188H75.8352L75.7202 46.9006H72.3111ZM81.3143 45.1364V49.5H80.5174L78.619 46.7536H78.587V49.5H77.6644V45.1364H78.4741L80.3576 47.8807H80.396V45.1364H81.3143ZM83.551 49.5639C83.2143 49.5639 82.9245 49.4957 82.6816 49.3594C82.4402 49.2216 82.2541 49.027 82.1234 48.7756C81.9927 48.5227 81.9274 48.2237 81.9274 47.8786C81.9274 47.5419 81.9927 47.2464 82.1234 46.9922C82.2541 46.7379 82.438 46.5398 82.6752 46.3977C82.9139 46.2557 83.1937 46.1847 83.5147 46.1847C83.7306 46.1847 83.9316 46.2195 84.1177 46.2891C84.3052 46.3572 84.4686 46.4602 84.6078 46.598C84.7484 46.7358 84.8578 46.9091 84.9359 47.1179C85.014 47.3253 85.0531 47.5682 85.0531 47.8466V48.0959H82.2896V47.5334H84.1987C84.1987 47.4027 84.1703 47.2869 84.1135 47.1861C84.0566 47.0852 83.9778 47.0064 83.877 46.9496C83.7775 46.8913 83.6618 46.8622 83.5297 46.8622C83.3919 46.8622 83.2697 46.8942 83.1632 46.9581C83.0581 47.0206 82.9757 47.1051 82.916 47.2116C82.8564 47.3168 82.8258 47.4339 82.8244 47.5632V48.098C82.8244 48.2599 82.8542 48.3999 82.9139 48.5178C82.975 48.6357 83.0609 48.7266 83.1717 48.7905C83.2825 48.8544 83.4139 48.8864 83.5659 48.8864C83.6667 48.8864 83.7591 48.8722 83.8429 48.8438C83.9267 48.8153 83.9984 48.7727 84.0581 48.7159C84.1177 48.6591 84.1632 48.5895 84.1944 48.5071L85.0339 48.5625C84.9913 48.7642 84.9039 48.9403 84.7718 49.0909C84.6412 49.2401 84.4721 49.3565 84.2647 49.4403C84.0588 49.5227 83.8208 49.5639 83.551 49.5639ZM86.3453 46.2273L86.9462 47.3714L87.562 46.2273H88.4931L87.5449 47.8636L88.5186 49.5H87.5918L86.9462 48.3686L86.3113 49.5H85.3738L86.3453 47.8636L85.4078 46.2273H86.3453ZM90.7729 46.2273V46.9091H88.802V46.2273H90.7729ZM89.2495 45.4432H90.1571V48.4943C90.1571 48.5781 90.1699 48.6435 90.1955 48.6903C90.2211 48.7358 90.2566 48.7678 90.302 48.7862C90.3489 48.8047 90.4029 48.8139 90.464 48.8139C90.5066 48.8139 90.5492 48.8104 90.5918 48.8033C90.6344 48.7947 90.6671 48.7884 90.6898 48.7841L90.8326 49.4595C90.7871 49.4737 90.7232 49.4901 90.6408 49.5085C90.5584 49.5284 90.4583 49.5405 90.3404 49.5447C90.1216 49.5533 89.9299 49.5241 89.7651 49.4574C89.6017 49.3906 89.4746 49.2869 89.3837 49.1463C89.2928 49.0057 89.248 48.8281 89.2495 48.6136V45.4432ZM91.8947 49.5554C91.7541 49.5554 91.6333 49.5057 91.5325 49.4062C91.4331 49.3054 91.3833 49.1847 91.3833 49.044C91.3833 48.9048 91.4331 48.7855 91.5325 48.6861C91.6333 48.5866 91.7541 48.5369 91.8947 48.5369C92.0311 48.5369 92.1504 48.5866 92.2527 48.6861C92.3549 48.7855 92.4061 48.9048 92.4061 49.044C92.4061 49.1378 92.3819 49.2237 92.3336 49.3018C92.2868 49.3786 92.225 49.4403 92.1483 49.4872C92.0716 49.5327 91.987 49.5554 91.8947 49.5554ZM93.1513 46.2273H94.0589V49.6619C94.0589 49.9148 94.0092 50.1193 93.9098 50.2756C93.8104 50.4318 93.6676 50.5462 93.4815 50.6186C93.2969 50.6911 93.076 50.7273 92.8189 50.7273C92.7876 50.7273 92.7578 50.7266 92.7294 50.7251C92.6996 50.7251 92.6683 50.7244 92.6357 50.723V50.0135C92.6598 50.0149 92.6811 50.0156 92.6996 50.0156C92.7166 50.017 92.7351 50.0178 92.755 50.0178C92.9013 50.0178 93.0036 49.9865 93.0618 49.924C93.1214 49.8629 93.1513 49.7706 93.1513 49.647V46.2273ZM93.603 45.8054C93.4695 45.8054 93.3544 45.7607 93.2578 45.6712C93.1612 45.5803 93.1129 45.4716 93.1129 45.3452C93.1129 45.2202 93.1612 45.1129 93.2578 45.0234C93.3544 44.9325 93.4695 44.8871 93.603 44.8871C93.7393 44.8871 93.8551 44.9325 93.9503 45.0234C94.0469 45.1129 94.0952 45.2202 94.0952 45.3452C94.0952 45.4716 94.0469 45.5803 93.9503 45.6712C93.8551 45.7607 93.7393 45.8054 93.603 45.8054ZM97.5091 47.1605L96.6781 47.2116C96.6639 47.1406 96.6333 47.0767 96.5865 47.0199C96.5396 46.9616 96.4778 46.9155 96.4011 46.8814C96.3258 46.8459 96.2356 46.8281 96.1305 46.8281C95.9899 46.8281 95.8713 46.858 95.7747 46.9176C95.6781 46.9759 95.6298 47.054 95.6298 47.152C95.6298 47.2301 95.661 47.2962 95.7235 47.3501C95.786 47.4041 95.8933 47.4474 96.0453 47.4801L96.6376 47.5994C96.9558 47.6648 97.193 47.7699 97.3493 47.9148C97.5055 48.0597 97.5836 48.25 97.5836 48.4858C97.5836 48.7003 97.5204 48.8885 97.394 49.0504C97.269 49.2124 97.0971 49.3388 96.8784 49.4297C96.661 49.5192 96.4103 49.5639 96.1262 49.5639C95.693 49.5639 95.3478 49.4737 95.0907 49.2933C94.835 49.1115 94.6852 48.8643 94.6412 48.5518L95.5339 48.505C95.5609 48.6371 95.6262 48.7379 95.7299 48.8075C95.8336 48.8757 95.9664 48.9098 96.1284 48.9098C96.2875 48.9098 96.4153 48.8793 96.5119 48.8182C96.6099 48.7557 96.6596 48.6754 96.661 48.5774C96.6596 48.495 96.6248 48.4276 96.5566 48.375C96.4885 48.321 96.3833 48.2798 96.2413 48.2514L95.6745 48.1385C95.3549 48.0746 95.117 47.9638 94.9608 47.8061C94.8059 47.6484 94.7285 47.4474 94.7285 47.2031C94.7285 46.9929 94.7853 46.8118 94.899 46.6598C95.014 46.5078 95.1752 46.3906 95.3826 46.3082C95.5914 46.2259 95.8358 46.1847 96.1156 46.1847C96.5289 46.1847 96.8542 46.272 97.0914 46.4467C97.3301 46.6214 97.4693 46.8594 97.5091 47.1605Z" fill="white"/>
<path d="M111.516 49.5L112.232 45.1364H112.913L112.197 49.5H111.516ZM109.562 48.4176L109.675 47.7358H113.084L112.971 48.4176H109.562ZM109.982 49.5L110.697 45.1364H111.379L110.663 49.5H109.982ZM109.811 46.9006L109.926 46.2188H113.335L113.22 46.9006H109.811ZM109.713 52.897V52.1364H113.297V52.897H111.961V56.5H111.049V52.897H109.713ZM114.055 57.7273C113.94 57.7273 113.832 57.718 113.732 57.6996C113.632 57.6825 113.55 57.6605 113.484 57.6335L113.689 56.956C113.795 56.9886 113.891 57.0064 113.977 57.0092C114.063 57.0121 114.138 56.9922 114.2 56.9496C114.264 56.907 114.316 56.8345 114.356 56.7322L114.409 56.5938L113.235 53.2273H114.19L114.867 55.6307H114.901L115.585 53.2273H116.546L115.274 56.8537C115.213 57.0298 115.13 57.1832 115.025 57.3139C114.921 57.446 114.79 57.5476 114.631 57.6186C114.472 57.6911 114.28 57.7273 114.055 57.7273ZM117.011 57.7273V53.2273H117.906V53.777H117.946C117.986 53.6889 118.043 53.5994 118.119 53.5085C118.195 53.4162 118.295 53.3395 118.417 53.2784C118.54 53.2159 118.694 53.1847 118.877 53.1847C119.116 53.1847 119.336 53.2472 119.538 53.3722C119.739 53.4957 119.901 53.6825 120.021 53.9325C120.142 54.1811 120.202 54.4929 120.202 54.8679C120.202 55.233 120.143 55.5412 120.026 55.7926C119.909 56.0426 119.75 56.2322 119.548 56.3615C119.348 56.4893 119.124 56.5533 118.875 56.5533C118.699 56.5533 118.549 56.5241 118.425 56.4659C118.303 56.4077 118.203 56.3345 118.125 56.2464C118.047 56.157 117.987 56.0668 117.946 55.9759H117.918V57.7273H117.011ZM117.899 54.8636C117.899 55.0582 117.926 55.228 117.98 55.3729C118.034 55.5178 118.112 55.6307 118.214 55.7116C118.317 55.7912 118.441 55.831 118.587 55.831C118.735 55.831 118.86 55.7905 118.962 55.7095C119.065 55.6271 119.142 55.5135 119.195 55.3686C119.249 55.2223 119.276 55.054 119.276 54.8636C119.276 54.6747 119.249 54.5085 119.197 54.3651C119.144 54.2216 119.067 54.1094 118.964 54.0284C118.862 53.9474 118.737 53.907 118.587 53.907C118.44 53.907 118.315 53.946 118.212 54.0241C118.112 54.1023 118.034 54.2131 117.98 54.3565C117.926 54.5 117.899 54.669 117.899 54.8636ZM122.299 56.5639C121.962 56.5639 121.673 56.4957 121.43 56.3594C121.188 56.2216 121.002 56.027 120.871 55.7756C120.741 55.5227 120.675 55.2237 120.675 54.8786C120.675 54.5419 120.741 54.2464 120.871 53.9922C121.002 53.7379 121.186 53.5398 121.423 53.3977C121.662 53.2557 121.942 53.1847 122.263 53.1847C122.479 53.1847 122.68 53.2195 122.866 53.2891C123.053 53.3572 123.217 53.4602 123.356 53.598C123.496 53.7358 123.606 53.9091 123.684 54.1179C123.762 54.3253 123.801 54.5682 123.801 54.8466V55.0959H121.038V54.5334H122.947C122.947 54.4027 122.918 54.2869 122.862 54.1861C122.805 54.0852 122.726 54.0064 122.625 53.9496C122.526 53.8913 122.41 53.8622 122.278 53.8622C122.14 53.8622 122.018 53.8942 121.911 53.9581C121.806 54.0206 121.724 54.1051 121.664 54.2116C121.604 54.3168 121.574 54.4339 121.572 54.5632V55.098C121.572 55.2599 121.602 55.3999 121.662 55.5178C121.723 55.6357 121.809 55.7266 121.92 55.7905C122.031 55.8544 122.162 55.8864 122.314 55.8864C122.415 55.8864 122.507 55.8722 122.591 55.8438C122.675 55.8153 122.746 55.7727 122.806 55.7159C122.866 55.6591 122.911 55.5895 122.942 55.5071L123.782 55.5625C123.739 55.7642 123.652 55.9403 123.52 56.0909C123.389 56.2401 123.22 56.3565 123.013 56.4403C122.807 56.5227 122.569 56.5639 122.299 56.5639ZM127.116 54.1605L126.286 54.2116C126.271 54.1406 126.241 54.0767 126.194 54.0199C126.147 53.9616 126.085 53.9155 126.009 53.8814C125.933 53.8459 125.843 53.8281 125.738 53.8281C125.597 53.8281 125.479 53.858 125.382 53.9176C125.286 53.9759 125.237 54.054 125.237 54.152C125.237 54.2301 125.268 54.2962 125.331 54.3501C125.393 54.4041 125.501 54.4474 125.653 54.4801L126.245 54.5994C126.563 54.6648 126.8 54.7699 126.957 54.9148C127.113 55.0597 127.191 55.25 127.191 55.4858C127.191 55.7003 127.128 55.8885 127.001 56.0504C126.876 56.2124 126.705 56.3388 126.486 56.4297C126.268 56.5192 126.018 56.5639 125.734 56.5639C125.3 56.5639 124.955 56.4737 124.698 56.2933C124.442 56.1115 124.293 55.8643 124.249 55.5518L125.141 55.505C125.168 55.6371 125.234 55.7379 125.337 55.8075C125.441 55.8757 125.574 55.9098 125.736 55.9098C125.895 55.9098 126.023 55.8793 126.119 55.8182C126.217 55.7557 126.267 55.6754 126.268 55.5774C126.267 55.495 126.232 55.4276 126.164 55.375C126.096 55.321 125.991 55.2798 125.849 55.2514L125.282 55.1385C124.962 55.0746 124.724 54.9638 124.568 54.8061C124.413 54.6484 124.336 54.4474 124.336 54.2031C124.336 53.9929 124.393 53.8118 124.506 53.6598C124.621 53.5078 124.783 53.3906 124.99 53.3082C125.199 53.2259 125.443 53.1847 125.723 53.1847C126.136 53.1847 126.462 53.272 126.699 53.4467C126.938 53.6214 127.077 53.8594 127.116 54.1605ZM129.241 56.5639C128.906 56.5639 128.618 56.4929 128.376 56.3509C128.136 56.2074 127.952 56.0085 127.822 55.7543C127.694 55.5 127.631 55.2074 127.631 54.8764C127.631 54.5412 127.695 54.2472 127.824 53.9943C127.955 53.7401 128.14 53.5419 128.381 53.3999C128.621 53.2564 128.906 53.1847 129.237 53.1847C129.523 53.1847 129.773 53.2365 129.987 53.3402C130.202 53.4439 130.371 53.5895 130.496 53.777C130.621 53.9645 130.69 54.1847 130.703 54.4375H129.846C129.822 54.2741 129.758 54.1428 129.655 54.0433C129.552 53.9425 129.418 53.892 129.252 53.892C129.111 53.892 128.988 53.9304 128.883 54.0071C128.78 54.0824 128.699 54.1925 128.64 54.3374C128.582 54.4822 128.553 54.6577 128.553 54.8636C128.553 55.0724 128.581 55.25 128.638 55.3963C128.697 55.5426 128.778 55.6541 128.883 55.7308C128.988 55.8075 129.111 55.8459 129.252 55.8459C129.356 55.8459 129.449 55.8246 129.531 55.782C129.615 55.7393 129.684 55.6776 129.738 55.5966C129.793 55.5142 129.829 55.4155 129.846 55.3004H130.703C130.689 55.5504 130.621 55.7706 130.498 55.9609C130.378 56.1499 130.211 56.2976 129.998 56.4041C129.785 56.5107 129.532 56.5639 129.241 56.5639ZM131.284 56.5V53.2273H132.164V53.7983H132.198C132.258 53.5952 132.358 53.4418 132.499 53.3381C132.639 53.233 132.801 53.1804 132.984 53.1804C133.03 53.1804 133.079 53.1832 133.131 53.1889C133.184 53.1946 133.23 53.2024 133.27 53.2124V54.0178C133.227 54.005 133.168 53.9936 133.093 53.9837C133.018 53.9737 132.949 53.9688 132.886 53.9688C132.753 53.9688 132.634 53.9979 132.528 54.0561C132.425 54.1129 132.342 54.1925 132.281 54.2947C132.222 54.397 132.192 54.5149 132.192 54.6484V56.5H131.284ZM133.739 56.5V53.2273H134.647V56.5H133.739ZM134.195 52.8054C134.06 52.8054 133.944 52.7607 133.848 52.6712C133.753 52.5803 133.705 52.4716 133.705 52.3452C133.705 52.2202 133.753 52.1129 133.848 52.0234C133.944 51.9325 134.06 51.8871 134.195 51.8871C134.33 51.8871 134.445 51.9325 134.54 52.0234C134.637 52.1129 134.685 52.2202 134.685 52.3452C134.685 52.4716 134.637 52.5803 134.54 52.6712C134.445 52.7607 134.33 52.8054 134.195 52.8054ZM135.374 57.7273V53.2273H136.269V53.777H136.309C136.349 53.6889 136.407 53.5994 136.482 53.5085C136.559 53.4162 136.658 53.3395 136.78 53.2784C136.904 53.2159 137.057 53.1847 137.24 53.1847C137.479 53.1847 137.699 53.2472 137.901 53.3722C138.103 53.4957 138.264 53.6825 138.385 53.9325C138.505 54.1811 138.566 54.4929 138.566 54.8679C138.566 55.233 138.507 55.5412 138.389 55.7926C138.272 56.0426 138.113 56.2322 137.912 56.3615C137.711 56.4893 137.487 56.5533 137.238 56.5533C137.062 56.5533 136.912 56.5241 136.789 56.4659C136.667 56.4077 136.566 56.3345 136.488 56.2464C136.41 56.157 136.35 56.0668 136.309 55.9759H136.282V57.7273H135.374ZM136.262 54.8636C136.262 55.0582 136.289 55.228 136.343 55.3729C136.397 55.5178 136.475 55.6307 136.578 55.7116C136.68 55.7912 136.804 55.831 136.951 55.831C137.098 55.831 137.223 55.7905 137.326 55.7095C137.428 55.6271 137.505 55.5135 137.558 55.3686C137.612 55.2223 137.639 55.054 137.639 54.8636C137.639 54.6747 137.613 54.5085 137.56 54.3651C137.507 54.2216 137.43 54.1094 137.328 54.0284C137.225 53.9474 137.1 53.907 136.951 53.907C136.803 53.907 136.678 53.946 136.576 54.0241C136.475 54.1023 136.397 54.2131 136.343 54.3565C136.289 54.5 136.262 54.669 136.262 54.8636ZM140.912 53.2273V53.9091H138.941V53.2273H140.912ZM139.388 52.4432H140.296V55.4943C140.296 55.5781 140.309 55.6435 140.334 55.6903C140.36 55.7358 140.395 55.7678 140.441 55.7862C140.488 55.8047 140.542 55.8139 140.603 55.8139C140.645 55.8139 140.688 55.8104 140.73 55.8033C140.773 55.7947 140.806 55.7884 140.828 55.7841L140.971 56.4595C140.926 56.4737 140.862 56.4901 140.779 56.5085C140.697 56.5284 140.597 56.5405 140.479 56.5447C140.26 56.5533 140.069 56.5241 139.904 56.4574C139.74 56.3906 139.613 56.2869 139.522 56.1463C139.431 56.0057 139.387 55.8281 139.388 55.6136V52.4432Z" fill="white"/>
<rect x="158.75" y="41.25" width="39.5" height="12" rx="2.25" fill="#092AD0" fill-opacity="0.56" stroke="#092AD0" stroke-width="0.5"/>
<rect x="106.75" y="41.25" width="47" height="12" rx="2.25" fill="#092AD0" fill-opacity="0.56" stroke="#092AD0" stroke-width="0.5"/>
<path d="M113.516 49.5L114.232 45.1364H114.913L114.197 49.5H113.516ZM111.562 48.4176L111.675 47.7358H115.084L114.971 48.4176H111.562ZM111.982 49.5L112.697 45.1364H113.379L112.663 49.5H111.982ZM111.811 46.9006L111.926 46.2188H115.335L115.22 46.9006H111.811ZM116.998 45.897V45.1364H120.582V45.897H119.246V49.5H118.334V45.897H116.998ZM121.341 50.7273C121.225 50.7273 121.118 50.718 121.017 50.6996C120.917 50.6825 120.835 50.6605 120.77 50.6335L120.974 49.956C121.081 49.9886 121.176 50.0064 121.262 50.0092C121.348 50.0121 121.423 49.9922 121.485 49.9496C121.549 49.907 121.601 49.8345 121.641 49.7322L121.694 49.5938L120.52 46.2273H121.475L122.152 48.6307H122.186L122.87 46.2273H123.831L122.559 49.8537C122.498 50.0298 122.415 50.1832 122.31 50.3139C122.206 50.446 122.075 50.5476 121.916 50.6186C121.757 50.6911 121.565 50.7273 121.341 50.7273ZM124.296 50.7273V46.2273H125.191V46.777H125.231C125.271 46.6889 125.328 46.5994 125.404 46.5085C125.48 46.4162 125.58 46.3395 125.702 46.2784C125.826 46.2159 125.979 46.1847 126.162 46.1847C126.401 46.1847 126.621 46.2472 126.823 46.3722C127.025 46.4957 127.186 46.6825 127.306 46.9325C127.427 47.1811 127.488 47.4929 127.488 47.8679C127.488 48.233 127.429 48.5412 127.311 48.7926C127.194 49.0426 127.035 49.2322 126.833 49.3615C126.633 49.4893 126.409 49.5533 126.16 49.5533C125.984 49.5533 125.834 49.5241 125.711 49.4659C125.588 49.4077 125.488 49.3345 125.41 49.2464C125.332 49.157 125.272 49.0668 125.231 48.9759H125.203V50.7273H124.296ZM125.184 47.8636C125.184 48.0582 125.211 48.228 125.265 48.3729C125.319 48.5178 125.397 48.6307 125.5 48.7116C125.602 48.7912 125.726 48.831 125.873 48.831C126.02 48.831 126.145 48.7905 126.248 48.7095C126.35 48.6271 126.427 48.5135 126.48 48.3686C126.534 48.2223 126.561 48.054 126.561 47.8636C126.561 47.6747 126.534 47.5085 126.482 47.3651C126.429 47.2216 126.352 47.1094 126.25 47.0284C126.147 46.9474 126.022 46.907 125.873 46.907C125.725 46.907 125.6 46.946 125.498 47.0241C125.397 47.1023 125.319 47.2131 125.265 47.3565C125.211 47.5 125.184 47.669 125.184 47.8636ZM129.584 49.5639C129.248 49.5639 128.958 49.4957 128.715 49.3594C128.473 49.2216 128.287 49.027 128.157 48.7756C128.026 48.5227 127.961 48.2237 127.961 47.8786C127.961 47.5419 128.026 47.2464 128.157 46.9922C128.287 46.7379 128.471 46.5398 128.708 46.3977C128.947 46.2557 129.227 46.1847 129.548 46.1847C129.764 46.1847 129.965 46.2195 130.151 46.2891C130.338 46.3572 130.502 46.4602 130.641 46.598C130.782 46.7358 130.891 46.9091 130.969 47.1179C131.047 47.3253 131.086 47.5682 131.086 47.8466V48.0959H128.323V47.5334H130.232C130.232 47.4027 130.203 47.2869 130.147 47.1861C130.09 47.0852 130.011 47.0064 129.91 46.9496C129.811 46.8913 129.695 46.8622 129.563 46.8622C129.425 46.8622 129.303 46.8942 129.196 46.9581C129.091 47.0206 129.009 47.1051 128.949 47.2116C128.89 47.3168 128.859 47.4339 128.858 47.5632V48.098C128.858 48.2599 128.887 48.3999 128.947 48.5178C129.008 48.6357 129.094 48.7266 129.205 48.7905C129.316 48.8544 129.447 48.8864 129.599 48.8864C129.7 48.8864 129.792 48.8722 129.876 48.8438C129.96 48.8153 130.032 48.7727 130.091 48.7159C130.151 48.6591 130.196 48.5895 130.228 48.5071L131.067 48.5625C131.025 48.7642 130.937 48.9403 130.805 49.0909C130.674 49.2401 130.505 49.3565 130.298 49.4403C130.092 49.5227 129.854 49.5639 129.584 49.5639ZM134.402 47.1605L133.571 47.2116C133.556 47.1406 133.526 47.0767 133.479 47.0199C133.432 46.9616 133.37 46.9155 133.294 46.8814C133.218 46.8459 133.128 46.8281 133.023 46.8281C132.882 46.8281 132.764 46.858 132.667 46.9176C132.571 46.9759 132.522 47.054 132.522 47.152C132.522 47.2301 132.554 47.2962 132.616 47.3501C132.679 47.4041 132.786 47.4474 132.938 47.4801L133.53 47.5994C133.848 47.6648 134.086 47.7699 134.242 47.9148C134.398 48.0597 134.476 48.25 134.476 48.4858C134.476 48.7003 134.413 48.8885 134.287 49.0504C134.162 49.2124 133.99 49.3388 133.771 49.4297C133.554 49.5192 133.303 49.5639 133.019 49.5639C132.586 49.5639 132.24 49.4737 131.983 49.2933C131.728 49.1115 131.578 48.8643 131.534 48.5518L132.426 48.505C132.453 48.6371 132.519 48.7379 132.623 48.8075C132.726 48.8757 132.859 48.9098 133.021 48.9098C133.18 48.9098 133.308 48.8793 133.404 48.8182C133.502 48.7557 133.552 48.6754 133.554 48.5774C133.552 48.495 133.517 48.4276 133.449 48.375C133.381 48.321 133.276 48.2798 133.134 48.2514L132.567 48.1385C132.248 48.0746 132.01 47.9638 131.853 47.8061C131.699 47.6484 131.621 47.4474 131.621 47.2031C131.621 46.9929 131.678 46.8118 131.792 46.6598C131.907 46.5078 132.068 46.3906 132.275 46.3082C132.484 46.2259 132.728 46.1847 133.008 46.1847C133.422 46.1847 133.747 46.272 133.984 46.4467C134.223 46.6214 134.362 46.8594 134.402 47.1605ZM136.526 49.5639C136.191 49.5639 135.903 49.4929 135.661 49.3509C135.421 49.2074 135.237 49.0085 135.107 48.7543C134.98 48.5 134.916 48.2074 134.916 47.8764C134.916 47.5412 134.98 47.2472 135.11 46.9943C135.24 46.7401 135.426 46.5419 135.666 46.3999C135.906 46.2564 136.191 46.1847 136.522 46.1847C136.808 46.1847 137.058 46.2365 137.272 46.3402C137.487 46.4439 137.656 46.5895 137.781 46.777C137.906 46.9645 137.975 47.1847 137.988 47.4375H137.132C137.107 47.2741 137.044 47.1428 136.94 47.0433C136.838 46.9425 136.703 46.892 136.537 46.892C136.396 46.892 136.274 46.9304 136.169 47.0071C136.065 47.0824 135.984 47.1925 135.926 47.3374C135.867 47.4822 135.838 47.6577 135.838 47.8636C135.838 48.0724 135.867 48.25 135.923 48.3963C135.982 48.5426 136.063 48.6541 136.169 48.7308C136.274 48.8075 136.396 48.8459 136.537 48.8459C136.641 48.8459 136.734 48.8246 136.816 48.782C136.9 48.7393 136.969 48.6776 137.023 48.5966C137.078 48.5142 137.115 48.4155 137.132 48.3004H137.988C137.974 48.5504 137.906 48.7706 137.784 48.9609C137.663 49.1499 137.496 49.2976 137.283 49.4041C137.07 49.5107 136.818 49.5639 136.526 49.5639ZM138.569 49.5V46.2273H139.449V46.7983H139.483C139.543 46.5952 139.643 46.4418 139.784 46.3381C139.924 46.233 140.086 46.1804 140.27 46.1804C140.315 46.1804 140.364 46.1832 140.417 46.1889C140.469 46.1946 140.515 46.2024 140.555 46.2124V47.0178C140.512 47.005 140.453 46.9936 140.378 46.9837C140.303 46.9737 140.234 46.9688 140.172 46.9688C140.038 46.9688 139.919 46.9979 139.814 47.0561C139.71 47.1129 139.627 47.1925 139.566 47.2947C139.507 47.397 139.477 47.5149 139.477 47.6484V49.5H138.569ZM141.024 49.5V46.2273H141.932V49.5H141.024ZM141.48 45.8054C141.345 45.8054 141.23 45.7607 141.133 45.6712C141.038 45.5803 140.99 45.4716 140.99 45.3452C140.99 45.2202 141.038 45.1129 141.133 45.0234C141.23 44.9325 141.345 44.8871 141.48 44.8871C141.615 44.8871 141.73 44.9325 141.825 45.0234C141.922 45.1129 141.97 45.2202 141.97 45.3452C141.97 45.4716 141.922 45.5803 141.825 45.6712C141.73 45.7607 141.615 45.8054 141.48 45.8054ZM142.659 50.7273V46.2273H143.554V46.777H143.594C143.634 46.6889 143.692 46.5994 143.767 46.5085C143.844 46.4162 143.943 46.3395 144.065 46.2784C144.189 46.2159 144.342 46.1847 144.526 46.1847C144.764 46.1847 144.984 46.2472 145.186 46.3722C145.388 46.4957 145.549 46.6825 145.67 46.9325C145.79 47.1811 145.851 47.4929 145.851 47.8679C145.851 48.233 145.792 48.5412 145.674 48.7926C145.558 49.0426 145.398 49.2322 145.197 49.3615C144.996 49.4893 144.772 49.5533 144.523 49.5533C144.347 49.5533 144.197 49.5241 144.074 49.4659C143.952 49.4077 143.852 49.3345 143.773 49.2464C143.695 49.157 143.636 49.0668 143.594 48.9759H143.567V50.7273H142.659ZM143.548 47.8636C143.548 48.0582 143.575 48.228 143.629 48.3729C143.683 48.5178 143.761 48.6307 143.863 48.7116C143.965 48.7912 144.089 48.831 144.236 48.831C144.384 48.831 144.509 48.7905 144.611 48.7095C144.713 48.6271 144.79 48.5135 144.843 48.3686C144.897 48.2223 144.924 48.054 144.924 47.8636C144.924 47.6747 144.898 47.5085 144.845 47.3651C144.793 47.2216 144.715 47.1094 144.613 47.0284C144.511 46.9474 144.385 46.907 144.236 46.907C144.088 46.907 143.963 46.946 143.861 47.0241C143.76 47.1023 143.683 47.2131 143.629 47.3565C143.575 47.5 143.548 47.669 143.548 47.8636ZM148.197 46.2273V46.9091H146.226V46.2273H148.197ZM146.673 45.4432H147.581V48.4943C147.581 48.5781 147.594 48.6435 147.619 48.6903C147.645 48.7358 147.68 48.7678 147.726 48.7862C147.773 48.8047 147.827 48.8139 147.888 48.8139C147.93 48.8139 147.973 48.8104 148.016 48.8033C148.058 48.7947 148.091 48.7884 148.114 48.7841L148.256 49.4595C148.211 49.4737 148.147 49.4901 148.065 49.5085C147.982 49.5284 147.882 49.5405 147.764 49.5447C147.545 49.5533 147.354 49.5241 147.189 49.4574C147.026 49.3906 146.898 49.2869 146.808 49.1463C146.717 49.0057 146.672 48.8281 146.673 48.6136V45.4432Z" fill="white"/>
<path d="M164.016 50L164.732 45.6364H165.413L164.697 50H164.016ZM162.062 48.9176L162.175 48.2358H165.584L165.471 48.9176H162.062ZM162.482 50L163.197 45.6364H163.879L163.163 50H162.482ZM162.311 47.4006L162.426 46.7188H165.835L165.72 47.4006H162.311ZM171.515 47.1641H170.581C170.564 47.0433 170.529 46.9361 170.477 46.8423C170.424 46.7472 170.357 46.6662 170.275 46.5994C170.192 46.5327 170.097 46.4815 169.989 46.446C169.882 46.4105 169.767 46.3928 169.642 46.3928C169.416 46.3928 169.219 46.4489 169.051 46.5611C168.884 46.6719 168.754 46.8338 168.662 47.0469C168.569 47.2585 168.523 47.5156 168.523 47.8182C168.523 48.1293 168.569 48.3906 168.662 48.6023C168.755 48.8139 168.886 48.9737 169.054 49.0817C169.221 49.1896 169.415 49.2436 169.635 49.2436C169.759 49.2436 169.873 49.2273 169.978 49.1946C170.085 49.1619 170.179 49.1143 170.262 49.0518C170.344 48.9879 170.412 48.9105 170.466 48.8196C170.522 48.7287 170.56 48.625 170.581 48.5085L171.515 48.5128C171.49 48.7131 171.43 48.9062 171.333 49.0923C171.238 49.277 171.11 49.4425 170.948 49.5888C170.787 49.7337 170.596 49.8487 170.373 49.9339C170.151 50.0178 169.9 50.0597 169.62 50.0597C169.231 50.0597 168.883 49.9716 168.576 49.7955C168.271 49.6193 168.029 49.3643 167.852 49.0305C167.676 48.6967 167.588 48.2926 167.588 47.8182C167.588 47.3423 167.677 46.9375 167.856 46.6037C168.035 46.2699 168.278 46.0156 168.585 45.8409C168.892 45.6648 169.237 45.5767 169.62 45.5767C169.873 45.5767 170.108 45.6122 170.324 45.6832C170.541 45.7543 170.733 45.858 170.901 45.9943C171.069 46.1293 171.205 46.2947 171.31 46.4908C171.417 46.6868 171.485 46.9112 171.515 47.1641ZM173.067 48.108V50H172.159V45.6364H173.041V47.3047H173.08C173.153 47.1115 173.273 46.9602 173.438 46.8509C173.602 46.7401 173.809 46.6847 174.058 46.6847C174.285 46.6847 174.483 46.7344 174.652 46.8338C174.822 46.9318 174.955 47.0732 175.048 47.2578C175.143 47.4411 175.19 47.6605 175.189 47.9162V50H174.281V48.0781C174.283 47.8764 174.232 47.7195 174.128 47.6072C174.026 47.495 173.882 47.4389 173.697 47.4389C173.574 47.4389 173.464 47.4652 173.369 47.5178C173.276 47.5703 173.202 47.647 173.148 47.7479C173.095 47.8473 173.068 47.9673 173.067 48.108ZM176.836 50.0618C176.628 50.0618 176.442 50.0256 176.278 49.9531C176.115 49.8793 175.986 49.7706 175.89 49.6271C175.797 49.4822 175.75 49.3018 175.75 49.0859C175.75 48.9041 175.783 48.7514 175.85 48.6278C175.917 48.5043 176.008 48.4048 176.123 48.3295C176.238 48.2543 176.368 48.1974 176.515 48.1591C176.662 48.1207 176.817 48.0938 176.979 48.0781C177.17 48.0582 177.323 48.0398 177.439 48.0227C177.556 48.0043 177.64 47.9773 177.693 47.9418C177.746 47.9062 177.772 47.8537 177.772 47.7841V47.7713C177.772 47.6364 177.729 47.532 177.644 47.4581C177.56 47.3842 177.441 47.3473 177.286 47.3473C177.123 47.3473 176.993 47.3835 176.896 47.456C176.8 47.527 176.736 47.6165 176.704 47.7244L175.865 47.6562C175.907 47.4574 175.991 47.2855 176.116 47.1406C176.241 46.9943 176.403 46.8821 176.6 46.804C176.799 46.7244 177.029 46.6847 177.29 46.6847C177.472 46.6847 177.646 46.706 177.812 46.7486C177.98 46.7912 178.128 46.8572 178.258 46.9467C178.388 47.0362 178.491 47.1513 178.567 47.2919C178.642 47.4311 178.68 47.598 178.68 47.7926V50H177.819V49.5462H177.793C177.741 49.6484 177.67 49.7386 177.582 49.8168C177.494 49.8935 177.388 49.9538 177.265 49.9979C177.141 50.0405 176.998 50.0618 176.836 50.0618ZM177.096 49.4354C177.23 49.4354 177.348 49.4091 177.45 49.3565C177.552 49.3026 177.633 49.2301 177.691 49.1392C177.749 49.0483 177.778 48.9453 177.778 48.8303V48.483C177.75 48.5014 177.711 48.5185 177.661 48.5341C177.613 48.5483 177.558 48.5618 177.497 48.5746C177.436 48.5859 177.375 48.5966 177.314 48.6065C177.253 48.6151 177.197 48.6229 177.148 48.63C177.041 48.6456 176.948 48.6705 176.868 48.7045C176.789 48.7386 176.727 48.7848 176.683 48.843C176.639 48.8999 176.617 48.9709 176.617 49.0561C176.617 49.1797 176.662 49.2741 176.751 49.3395C176.842 49.4034 176.957 49.4354 177.096 49.4354ZM180.206 49.0582L180.208 47.9695H180.34L181.389 46.7273H182.431L181.022 48.3722H180.807L180.206 49.0582ZM179.384 50V45.6364H180.291V50H179.384ZM181.429 50L180.466 48.5746L181.071 47.9332L182.492 50H181.429ZM182.876 50V46.7273H183.756V47.2983H183.79C183.85 47.0952 183.95 46.9418 184.09 46.8381C184.231 46.733 184.393 46.6804 184.576 46.6804C184.622 46.6804 184.671 46.6832 184.723 46.6889C184.776 46.6946 184.822 46.7024 184.862 46.7124V47.5178C184.819 47.505 184.76 47.4936 184.685 47.4837C184.61 47.4737 184.541 47.4688 184.478 47.4688C184.345 47.4688 184.225 47.4979 184.12 47.5561C184.017 47.6129 183.934 47.6925 183.873 47.7947C183.813 47.897 183.784 48.0149 183.784 48.1484V50H182.876ZM186.17 50.0618C185.962 50.0618 185.776 50.0256 185.612 49.9531C185.449 49.8793 185.32 49.7706 185.224 49.6271C185.131 49.4822 185.084 49.3018 185.084 49.0859C185.084 48.9041 185.117 48.7514 185.184 48.6278C185.251 48.5043 185.342 48.4048 185.457 48.3295C185.572 48.2543 185.702 48.1974 185.849 48.1591C185.996 48.1207 186.151 48.0938 186.313 48.0781C186.504 48.0582 186.657 48.0398 186.773 48.0227C186.89 48.0043 186.974 47.9773 187.027 47.9418C187.08 47.9062 187.106 47.8537 187.106 47.7841V47.7713C187.106 47.6364 187.063 47.532 186.978 47.4581C186.894 47.3842 186.775 47.3473 186.62 47.3473C186.457 47.3473 186.327 47.3835 186.23 47.456C186.134 47.527 186.07 47.6165 186.038 47.7244L185.199 47.6562C185.241 47.4574 185.325 47.2855 185.45 47.1406C185.575 46.9943 185.737 46.8821 185.934 46.804C186.133 46.7244 186.363 46.6847 186.624 46.6847C186.806 46.6847 186.98 46.706 187.146 46.7486C187.314 46.7912 187.462 46.8572 187.592 46.9467C187.722 47.0362 187.825 47.1513 187.901 47.2919C187.976 47.4311 188.013 47.598 188.013 47.7926V50H187.153V49.5462H187.127C187.075 49.6484 187.004 49.7386 186.916 49.8168C186.828 49.8935 186.722 49.9538 186.599 49.9979C186.475 50.0405 186.332 50.0618 186.17 50.0618ZM186.43 49.4354C186.564 49.4354 186.682 49.4091 186.784 49.3565C186.886 49.3026 186.967 49.2301 187.025 49.1392C187.083 49.0483 187.112 48.9453 187.112 48.8303V48.483C187.084 48.5014 187.045 48.5185 186.995 48.5341C186.947 48.5483 186.892 48.5618 186.831 48.5746C186.77 48.5859 186.709 48.5966 186.648 48.6065C186.587 48.6151 186.531 48.6229 186.482 48.63C186.375 48.6456 186.282 48.6705 186.202 48.7045C186.123 48.7386 186.061 48.7848 186.017 48.843C185.973 48.8999 185.951 48.9709 185.951 49.0561C185.951 49.1797 185.996 49.2741 186.085 49.3395C186.176 49.4034 186.291 49.4354 186.43 49.4354ZM191.43 45.6364H192.353V48.4702C192.353 48.7884 192.277 49.0668 192.125 49.3054C191.974 49.544 191.763 49.7301 191.492 49.8636C191.221 49.9957 190.904 50.0618 190.544 50.0618C190.181 50.0618 189.865 49.9957 189.593 49.8636C189.322 49.7301 189.111 49.544 188.961 49.3054C188.81 49.0668 188.735 48.7884 188.735 48.4702V45.6364H189.657V48.3913C189.657 48.5575 189.694 48.7053 189.766 48.8345C189.84 48.9638 189.944 49.0653 190.077 49.1392C190.211 49.2131 190.366 49.25 190.544 49.25C190.723 49.25 190.878 49.2131 191.01 49.1392C191.144 49.0653 191.247 48.9638 191.319 48.8345C191.393 48.7053 191.43 48.5575 191.43 48.3913V45.6364ZM194.034 45.6364V50H193.112V45.6364H194.034Z" fill="white"/>
</g>
<defs>
<filter id="filter0_d_799_1372" x="0" y="0" width="258" height="75.5" filterUnits="userSpaceOnUse" color-interpolation-filters="sRGB">
<feFlood flood-opacity="0" result="BackgroundImageFix"/>
<feColorMatrix in="SourceAlpha" type="matrix" values="0 0 0 0 0 0 0 0 0 0 0 0 0 0 0 0 0 0 127 0" result="hardAlpha"/>
<feOffset dy="4"/>
<feGaussianBlur stdDeviation="2"/>
<feComposite in2="hardAlpha" operator="out"/>
<feColorMatrix type="matrix" values="0 0 0 0 0 0 0 0 0 0 0 0 0 0 0 0 0 0 0.25 0"/>
<feBlend mode="normal" in2="BackgroundImageFix" result="effect1_dropShadow_799_1372"/>
<feBlend mode="normal" in="SourceGraphic" in2="effect1_dropShadow_799_1372" result="shape"/>
</filter>
</defs>
</svg>
