<svg width="508" height="143" viewBox="0 0 508 143" fill="none" xmlns="http://www.w3.org/2000/svg">
<g filter="url(#filter0_d_813_1618)">
<rect x="4" width="500" height="135" rx="35" fill="white"/>
<circle cx="79" cy="67" r="40" fill="#C4C4C4"/>
<rect x="61" y="72" width="36" height="20" rx="5" fill="white"/>
<circle cx="78.5" cy="55.5" r="12.5" fill="white"/>
<path d="M137.42 51H132.264V36.4545H137.463C138.926 36.4545 140.186 36.7457 141.241 37.3281C142.297 37.9058 143.109 38.7367 143.678 39.821C144.25 40.9053 144.537 42.2027 144.537 43.7131C144.537 45.2282 144.25 46.5303 143.678 47.6193C143.109 48.7083 142.293 49.544 141.227 50.1264C140.167 50.7088 138.898 51 137.42 51ZM135.339 48.3651H137.293C138.202 48.3651 138.966 48.2041 139.587 47.8821C140.212 47.5554 140.68 47.0511 140.993 46.3693C141.31 45.6828 141.469 44.7973 141.469 43.7131C141.469 42.6383 141.31 41.7599 140.993 41.0781C140.68 40.3963 140.214 39.8944 139.594 39.5724C138.973 39.2505 138.209 39.0895 137.3 39.0895H135.339V48.3651ZM149.869 51.206C149.173 51.206 148.553 51.0852 148.008 50.8438C147.464 50.5975 147.033 50.2353 146.716 49.7571C146.403 49.2741 146.247 48.6728 146.247 47.9531C146.247 47.3471 146.358 46.8381 146.581 46.4261C146.803 46.0142 147.106 45.6828 147.49 45.4318C147.873 45.1809 148.309 44.9915 148.797 44.8636C149.289 44.7358 149.805 44.6458 150.345 44.5938C150.979 44.5275 151.491 44.4659 151.879 44.4091C152.267 44.3475 152.549 44.2576 152.724 44.1392C152.899 44.0208 152.987 43.8456 152.987 43.6136V43.571C152.987 43.1212 152.845 42.7732 152.561 42.527C152.281 42.2808 151.884 42.1577 151.368 42.1577C150.823 42.1577 150.39 42.2784 150.068 42.5199C149.746 42.7566 149.533 43.0549 149.429 43.4148L146.63 43.1875C146.772 42.5246 147.052 41.9517 147.468 41.4688C147.885 40.9811 148.422 40.607 149.081 40.3466C149.743 40.0814 150.511 39.9489 151.382 39.9489C151.988 39.9489 152.568 40.0199 153.122 40.1619C153.681 40.304 154.175 40.5241 154.606 40.8224C155.042 41.1207 155.385 41.5043 155.636 41.973C155.887 42.437 156.012 42.9934 156.012 43.642V51H153.143V49.4872H153.058C152.883 49.8281 152.648 50.1288 152.355 50.3892C152.061 50.6449 151.708 50.8461 151.297 50.9929C150.885 51.1349 150.409 51.206 149.869 51.206ZM150.735 49.1179C151.181 49.1179 151.574 49.0303 151.914 48.8551C152.255 48.6752 152.523 48.4337 152.717 48.1307C152.911 47.8277 153.008 47.4844 153.008 47.1009V45.9432C152.913 46.0047 152.783 46.0616 152.618 46.1136C152.457 46.161 152.274 46.206 152.071 46.2486C151.867 46.2865 151.663 46.322 151.46 46.3551C151.256 46.3835 151.072 46.4096 150.906 46.4332C150.551 46.4853 150.241 46.5682 149.975 46.6818C149.71 46.7955 149.504 46.9493 149.358 47.1435C149.211 47.3329 149.137 47.5696 149.137 47.8537C149.137 48.2656 149.287 48.5805 149.585 48.7983C149.888 49.0114 150.271 49.1179 150.735 49.1179ZM168.14 40.0909L164.326 51H160.917L157.103 40.0909H160.299L162.564 47.8963H162.678L164.936 40.0909H168.14ZM169.688 51V40.0909H172.713V51H169.688ZM171.208 38.6847C170.758 38.6847 170.372 38.5355 170.05 38.2372C169.733 37.9342 169.574 37.572 169.574 37.1506C169.574 36.7339 169.733 36.3764 170.05 36.0781C170.372 35.7751 170.758 35.6236 171.208 35.6236C171.658 35.6236 172.041 35.7751 172.358 36.0781C172.68 36.3764 172.841 36.7339 172.841 37.1506C172.841 37.572 172.68 37.9342 172.358 38.2372C172.041 38.5355 171.658 38.6847 171.208 38.6847ZM179.157 51.1776C178.328 51.1776 177.578 50.9645 176.906 50.5384C176.238 50.1075 175.708 49.4754 175.315 48.642C174.926 47.804 174.732 46.7765 174.732 45.5597C174.732 44.3097 174.933 43.2704 175.336 42.4418C175.738 41.6084 176.273 40.9858 176.941 40.5739C177.613 40.1572 178.35 39.9489 179.15 39.9489C179.761 39.9489 180.27 40.053 180.677 40.2614C181.089 40.465 181.42 40.7206 181.671 41.0284C181.927 41.3314 182.121 41.6297 182.254 41.9233H182.346V36.4545H185.364V51H182.381V49.2528H182.254C182.112 49.5559 181.91 49.8565 181.65 50.1548C181.394 50.4484 181.06 50.6922 180.648 50.8864C180.241 51.0805 179.744 51.1776 179.157 51.1776ZM180.116 48.7699C180.603 48.7699 181.015 48.6373 181.352 48.3722C181.692 48.1023 181.953 47.7259 182.133 47.2429C182.317 46.7599 182.41 46.1941 182.41 45.5455C182.41 44.8968 182.32 44.3333 182.14 43.8551C181.96 43.3769 181.7 43.0076 181.359 42.7472C181.018 42.4867 180.603 42.3565 180.116 42.3565C179.619 42.3565 179.2 42.4915 178.859 42.7614C178.518 43.0312 178.26 43.4053 178.085 43.8835C177.909 44.3617 177.822 44.9157 177.822 45.5455C177.822 46.1799 177.909 46.741 178.085 47.2287C178.264 47.7116 178.522 48.0904 178.859 48.3651C179.2 48.6349 179.619 48.7699 180.116 48.7699ZM192.538 36.4545H196.33L200.336 46.2273H200.506L204.512 36.4545H208.305V51H205.322V41.5327H205.201L201.437 50.929H199.406L195.641 41.4972H195.521V51H192.538V36.4545ZM213.892 51.206C213.196 51.206 212.576 51.0852 212.032 50.8438C211.487 50.5975 211.056 50.2353 210.739 49.7571C210.426 49.2741 210.27 48.6728 210.27 47.9531C210.27 47.3471 210.382 46.8381 210.604 46.4261C210.827 46.0142 211.13 45.6828 211.513 45.4318C211.897 45.1809 212.332 44.9915 212.82 44.8636C213.312 44.7358 213.828 44.6458 214.368 44.5938C215.003 44.5275 215.514 44.4659 215.902 44.4091C216.291 44.3475 216.572 44.2576 216.748 44.1392C216.923 44.0208 217.01 43.8456 217.01 43.6136V43.571C217.01 43.1212 216.868 42.7732 216.584 42.527C216.305 42.2808 215.907 42.1577 215.391 42.1577C214.846 42.1577 214.413 42.2784 214.091 42.5199C213.769 42.7566 213.556 43.0549 213.452 43.4148L210.654 43.1875C210.796 42.5246 211.075 41.9517 211.492 41.4688C211.908 40.9811 212.446 40.607 213.104 40.3466C213.767 40.0814 214.534 39.9489 215.405 39.9489C216.011 39.9489 216.591 40.0199 217.145 40.1619C217.704 40.304 218.199 40.5241 218.63 40.8224C219.065 41.1207 219.408 41.5043 219.659 41.973C219.91 42.437 220.036 42.9934 220.036 43.642V51H217.167V49.4872H217.081C216.906 49.8281 216.672 50.1288 216.378 50.3892C216.085 50.6449 215.732 50.8461 215.32 50.9929C214.908 51.1349 214.432 51.206 213.892 51.206ZM214.759 49.1179C215.204 49.1179 215.597 49.0303 215.938 48.8551C216.279 48.6752 216.546 48.4337 216.74 48.1307C216.935 47.8277 217.032 47.4844 217.032 47.1009V45.9432C216.937 46.0047 216.807 46.0616 216.641 46.1136C216.48 46.161 216.298 46.206 216.094 46.2486C215.891 46.2865 215.687 46.322 215.483 46.3551C215.28 46.3835 215.095 46.4096 214.929 46.4332C214.574 46.4853 214.264 46.5682 213.999 46.6818C213.734 46.7955 213.528 46.9493 213.381 47.1435C213.234 47.3329 213.161 47.5696 213.161 47.8537C213.161 48.2656 213.31 48.5805 213.608 48.7983C213.911 49.0114 214.295 49.1179 214.759 49.1179ZM222.383 51V40.0909H225.316V41.9943H225.43C225.629 41.3172 225.963 40.8059 226.431 40.4602C226.9 40.1098 227.44 39.9347 228.051 39.9347C228.202 39.9347 228.366 39.9441 228.541 39.9631C228.716 39.982 228.87 40.008 229.002 40.0412V42.7259C228.86 42.6832 228.664 42.6454 228.413 42.6122C228.162 42.5791 227.932 42.5625 227.724 42.5625C227.279 42.5625 226.881 42.6596 226.531 42.8537C226.185 43.0431 225.911 43.3082 225.707 43.6491C225.508 43.9901 225.409 44.383 225.409 44.8281V51H222.383ZM236.916 40.0909V42.3636H230.347V40.0909H236.916ZM231.838 37.4773H234.864V47.6477C234.864 47.9271 234.906 48.1449 234.991 48.3011C235.077 48.4527 235.195 48.5592 235.347 48.6207C235.503 48.6823 235.683 48.7131 235.886 48.7131C236.028 48.7131 236.17 48.7012 236.312 48.6776C236.455 48.6491 236.563 48.6278 236.639 48.6136L237.115 50.8651C236.964 50.9124 236.75 50.9669 236.476 51.0284C236.201 51.0947 235.867 51.1349 235.474 51.1491C234.745 51.1776 234.106 51.0805 233.557 50.858C233.012 50.6354 232.589 50.2898 232.286 49.821C231.982 49.3523 231.833 48.7604 231.838 48.0455V37.4773ZM238.887 51V40.0909H241.913V51H238.887ZM240.407 38.6847C239.957 38.6847 239.571 38.5355 239.249 38.2372C238.932 37.9342 238.773 37.572 238.773 37.1506C238.773 36.7339 238.932 36.3764 239.249 36.0781C239.571 35.7751 239.957 35.6236 240.407 35.6236C240.857 35.6236 241.24 35.7751 241.558 36.0781C241.879 36.3764 242.04 36.7339 242.04 37.1506C242.04 37.572 241.879 37.9342 241.558 38.2372C241.24 38.5355 240.857 38.6847 240.407 38.6847ZM247.362 44.6932V51H244.336V40.0909H247.22V42.0156H247.348C247.589 41.3812 247.994 40.8793 248.562 40.5099C249.13 40.1359 249.819 39.9489 250.629 39.9489C251.386 39.9489 252.047 40.1146 252.61 40.446C253.174 40.7775 253.612 41.2509 253.924 41.8665C254.237 42.4773 254.393 43.2064 254.393 44.054V51H251.368V44.5938C251.372 43.9261 251.202 43.4053 250.856 43.0312C250.511 42.6525 250.035 42.4631 249.429 42.4631C249.021 42.4631 248.662 42.5507 248.349 42.7259C248.041 42.901 247.8 43.1567 247.625 43.4929C247.454 43.8243 247.367 44.2244 247.362 44.6932Z" fill="black"/>
<path d="M138.324 63.7102C138.278 63.2519 138.083 62.8958 137.739 62.642C137.394 62.3883 136.926 62.2614 136.335 62.2614C135.934 62.2614 135.595 62.3182 135.318 62.4318C135.042 62.5417 134.83 62.6951 134.682 62.892C134.538 63.089 134.466 63.3125 134.466 63.5625C134.458 63.7708 134.502 63.9527 134.597 64.108C134.695 64.2633 134.83 64.3977 135 64.5114C135.17 64.6212 135.367 64.7178 135.591 64.8011C135.814 64.8807 136.053 64.9489 136.307 65.0057L137.352 65.2557C137.86 65.3693 138.326 65.5208 138.75 65.7102C139.174 65.8996 139.542 66.1326 139.852 66.4091C140.163 66.6856 140.403 67.0114 140.574 67.3864C140.748 67.7614 140.837 68.1913 140.841 68.6761C140.837 69.3883 140.655 70.0057 140.295 70.5284C139.939 71.0473 139.424 71.4508 138.75 71.7386C138.08 72.0227 137.271 72.1648 136.324 72.1648C135.384 72.1648 134.566 72.0208 133.869 71.733C133.176 71.4451 132.634 71.0189 132.244 70.4545C131.858 69.8864 131.655 69.1837 131.636 68.3466H134.017C134.044 68.7367 134.155 69.0625 134.352 69.3239C134.553 69.5814 134.82 69.7765 135.153 69.9091C135.491 70.0379 135.871 70.1023 136.295 70.1023C136.712 70.1023 137.074 70.0417 137.381 69.9205C137.691 69.7992 137.932 69.6307 138.102 69.4148C138.273 69.1989 138.358 68.9508 138.358 68.6705C138.358 68.4091 138.28 68.1894 138.125 68.0114C137.973 67.8333 137.75 67.6818 137.455 67.5568C137.163 67.4318 136.805 67.3182 136.381 67.2159L135.114 66.8977C134.133 66.6591 133.358 66.286 132.79 65.7784C132.222 65.2708 131.939 64.5871 131.943 63.7273C131.939 63.0227 132.127 62.4072 132.506 61.8807C132.888 61.3542 133.413 60.9432 134.08 60.6477C134.746 60.3523 135.504 60.2045 136.352 60.2045C137.216 60.2045 137.97 60.3523 138.614 60.6477C139.261 60.9432 139.765 61.3542 140.125 61.8807C140.485 62.4072 140.67 63.017 140.682 63.7102H138.324ZM146.393 72.1705C145.511 72.1705 144.748 71.983 144.104 71.608C143.464 71.2292 142.969 70.7027 142.621 70.0284C142.272 69.3504 142.098 68.5644 142.098 67.6705C142.098 66.7689 142.272 65.9811 142.621 65.3068C142.969 64.6288 143.464 64.1023 144.104 63.7273C144.748 63.3485 145.511 63.1591 146.393 63.1591C147.276 63.1591 148.037 63.3485 148.678 63.7273C149.321 64.1023 149.818 64.6288 150.166 65.3068C150.515 65.9811 150.689 66.7689 150.689 67.6705C150.689 68.5644 150.515 69.3504 150.166 70.0284C149.818 70.7027 149.321 71.2292 148.678 71.608C148.037 71.983 147.276 72.1705 146.393 72.1705ZM146.405 70.2955C146.806 70.2955 147.142 70.1818 147.411 69.9545C147.679 69.7235 147.882 69.4091 148.018 69.0114C148.159 68.6136 148.229 68.161 148.229 67.6534C148.229 67.1458 148.159 66.6932 148.018 66.2955C147.882 65.8977 147.679 65.5833 147.411 65.3523C147.142 65.1212 146.806 65.0057 146.405 65.0057C146 65.0057 145.659 65.1212 145.382 65.3523C145.109 65.5833 144.903 65.8977 144.763 66.2955C144.626 66.6932 144.558 67.1458 144.558 67.6534C144.558 68.161 144.626 68.6136 144.763 69.0114C144.903 69.4091 145.109 69.7235 145.382 69.9545C145.659 70.1818 146 70.2955 146.405 70.2955ZM156.956 63.2727V65.0909H151.57V63.2727H156.956ZM152.803 72V62.642C152.803 62.0095 152.926 61.4848 153.172 61.0682C153.422 60.6515 153.763 60.339 154.195 60.1307C154.626 59.9223 155.117 59.8182 155.666 59.8182C156.037 59.8182 156.376 59.8466 156.683 59.9034C156.994 59.9602 157.225 60.0114 157.376 60.0568L156.945 61.875C156.85 61.8447 156.732 61.8163 156.592 61.7898C156.456 61.7633 156.316 61.75 156.172 61.75C155.816 61.75 155.568 61.8333 155.428 62C155.287 62.1629 155.217 62.392 155.217 62.6875V72H152.803ZM163.077 63.2727V65.0909H157.821V63.2727H163.077ZM159.014 61.1818H161.435V69.3182C161.435 69.5417 161.469 69.7159 161.537 69.8409C161.605 69.9621 161.7 70.0473 161.821 70.0966C161.946 70.1458 162.09 70.1705 162.253 70.1705C162.366 70.1705 162.48 70.161 162.594 70.142C162.707 70.1193 162.795 70.1023 162.855 70.0909L163.236 71.892C163.115 71.9299 162.944 71.9735 162.724 72.0227C162.505 72.0758 162.238 72.108 161.923 72.1193C161.34 72.142 160.829 72.0644 160.389 71.8864C159.954 71.7083 159.615 71.4318 159.372 71.0568C159.13 70.6818 159.01 70.2083 159.014 69.6364V61.1818ZM166.375 72L164 63.2727H166.449L167.801 69.1364H167.881L169.29 63.2727H171.693L173.125 69.1023H173.199L174.528 63.2727H176.972L174.602 72H172.04L170.54 66.5114H170.432L168.932 72H166.375ZM180.751 72.1648C180.195 72.1648 179.698 72.0682 179.263 71.875C178.827 71.678 178.482 71.3883 178.229 71.0057C177.979 70.6193 177.854 70.1383 177.854 69.5625C177.854 69.0777 177.943 68.6705 178.121 68.3409C178.299 68.0114 178.541 67.7462 178.848 67.5455C179.155 67.3447 179.503 67.1932 179.893 67.0909C180.287 66.9886 180.7 66.9167 181.132 66.875C181.64 66.822 182.049 66.7727 182.359 66.7273C182.67 66.678 182.895 66.6061 183.036 66.5114C183.176 66.4167 183.246 66.2765 183.246 66.0909V66.0568C183.246 65.697 183.132 65.4186 182.905 65.2216C182.681 65.0246 182.363 64.9261 181.95 64.9261C181.515 64.9261 181.168 65.0227 180.911 65.2159C180.653 65.4053 180.482 65.6439 180.399 65.9318L178.161 65.75C178.274 65.2197 178.498 64.7614 178.831 64.375C179.164 63.9848 179.594 63.6856 180.121 63.4773C180.651 63.2652 181.265 63.1591 181.962 63.1591C182.446 63.1591 182.911 63.2159 183.354 63.3295C183.801 63.4432 184.196 63.6193 184.541 63.858C184.89 64.0966 185.164 64.4034 185.365 64.7784C185.566 65.1496 185.666 65.5947 185.666 66.1136V72H183.371V70.7898H183.303C183.162 71.0625 182.975 71.303 182.74 71.5114C182.505 71.7159 182.223 71.8769 181.893 71.9943C181.564 72.108 181.183 72.1648 180.751 72.1648ZM181.445 70.4943C181.801 70.4943 182.115 70.4242 182.388 70.2841C182.661 70.1402 182.875 69.947 183.03 69.7045C183.185 69.4621 183.263 69.1875 183.263 68.8807V67.9545C183.187 68.0038 183.083 68.0492 182.95 68.0909C182.821 68.1288 182.676 68.1648 182.513 68.1989C182.35 68.2292 182.187 68.2576 182.024 68.2841C181.861 68.3068 181.714 68.3277 181.581 68.3466C181.297 68.3883 181.049 68.4545 180.837 68.5455C180.625 68.6364 180.46 68.7595 180.342 68.9148C180.225 69.0663 180.166 69.2557 180.166 69.483C180.166 69.8125 180.286 70.0644 180.524 70.2386C180.767 70.4091 181.073 70.4943 181.445 70.4943ZM187.544 72V63.2727H189.891V64.7955H189.982C190.141 64.2538 190.408 63.8447 190.783 63.5682C191.158 63.2879 191.589 63.1477 192.078 63.1477C192.199 63.1477 192.33 63.1553 192.47 63.1705C192.61 63.1856 192.733 63.2064 192.839 63.233V65.3807C192.726 65.3466 192.569 65.3163 192.368 65.2898C192.167 65.2633 191.983 65.25 191.817 65.25C191.461 65.25 191.143 65.3277 190.862 65.483C190.586 65.6345 190.366 65.8466 190.203 66.1193C190.044 66.392 189.964 66.7064 189.964 67.0625V72H187.544ZM197.662 72.1705C196.764 72.1705 195.991 71.9886 195.344 71.625C194.7 71.2576 194.204 70.7386 193.855 70.0682C193.507 69.3939 193.332 68.5966 193.332 67.6761C193.332 66.7784 193.507 65.9905 193.855 65.3125C194.204 64.6345 194.694 64.1061 195.327 63.7273C195.963 63.3485 196.709 63.1591 197.565 63.1591C198.141 63.1591 198.677 63.2519 199.173 63.4375C199.673 63.6193 200.109 63.8939 200.48 64.2614C200.855 64.6288 201.147 65.0909 201.355 65.6477C201.563 66.2008 201.668 66.8485 201.668 67.5909V68.2557H194.298V66.7557H199.389C199.389 66.4072 199.313 66.0985 199.162 65.8295C199.01 65.5606 198.8 65.3504 198.531 65.1989C198.266 65.0436 197.957 64.9659 197.605 64.9659C197.238 64.9659 196.912 65.0511 196.628 65.2216C196.348 65.3883 196.128 65.6136 195.969 65.8977C195.81 66.178 195.728 66.4905 195.724 66.8352V68.2614C195.724 68.6932 195.804 69.0663 195.963 69.3807C196.126 69.6951 196.355 69.9375 196.651 70.108C196.946 70.2784 197.296 70.3636 197.702 70.3636C197.971 70.3636 198.217 70.3258 198.44 70.25C198.664 70.1742 198.855 70.0606 199.014 69.9091C199.173 69.7576 199.295 69.572 199.378 69.3523L201.616 69.5C201.503 70.0379 201.27 70.5076 200.918 70.9091C200.569 71.3068 200.118 71.6174 199.565 71.8409C199.016 72.0606 198.382 72.1705 197.662 72.1705ZM206.996 72V60.3636H214.837V62.392H209.456V65.1648H214.433V67.1932H209.456V69.9716H214.859V72H206.996ZM219.168 66.9545V72H216.747V63.2727H219.054V64.8125H219.156C219.349 64.3049 219.673 63.9034 220.128 63.608C220.582 63.3087 221.134 63.1591 221.781 63.1591C222.387 63.1591 222.916 63.2917 223.366 63.5568C223.817 63.822 224.168 64.2008 224.418 64.6932C224.668 65.1818 224.793 65.7652 224.793 66.4432V72H222.372V66.875C222.376 66.3409 222.24 65.9242 221.963 65.625C221.687 65.322 221.306 65.1705 220.821 65.1705C220.495 65.1705 220.207 65.2405 219.957 65.3807C219.711 65.5208 219.518 65.7254 219.378 65.9943C219.241 66.2595 219.171 66.5795 219.168 66.9545ZM230.632 75.4545C229.848 75.4545 229.176 75.3466 228.615 75.1307C228.058 74.9186 227.615 74.6288 227.286 74.2614C226.956 73.8939 226.742 73.4811 226.643 73.0227L228.882 72.7216C228.95 72.8958 229.058 73.0587 229.206 73.2102C229.354 73.3617 229.549 73.483 229.791 73.5739C230.037 73.6686 230.337 73.7159 230.689 73.7159C231.215 73.7159 231.649 73.5871 231.99 73.3295C232.335 73.0758 232.507 72.6496 232.507 72.0511V70.4545H232.405C232.299 70.697 232.14 70.9261 231.928 71.142C231.715 71.358 231.443 71.5341 231.109 71.6705C230.776 71.8068 230.378 71.875 229.916 71.875C229.261 71.875 228.664 71.7235 228.126 71.4205C227.592 71.1136 227.166 70.6458 226.848 70.017C226.534 69.3845 226.376 68.5852 226.376 67.6193C226.376 66.6307 226.537 65.8049 226.859 65.142C227.181 64.4792 227.609 63.983 228.143 63.6534C228.681 63.3239 229.27 63.1591 229.911 63.1591C230.399 63.1591 230.808 63.2424 231.138 63.4091C231.467 63.572 231.732 63.7765 231.933 64.0227C232.138 64.2652 232.295 64.5038 232.405 64.7386H232.496V63.2727H234.899V72.0852C234.899 72.8277 234.717 73.4489 234.354 73.9489C233.99 74.4489 233.486 74.8239 232.842 75.0739C232.202 75.3277 231.465 75.4545 230.632 75.4545ZM230.683 70.0568C231.073 70.0568 231.403 69.9602 231.672 69.767C231.945 69.5701 232.153 69.2898 232.297 68.9261C232.445 68.5587 232.518 68.1193 232.518 67.608C232.518 67.0966 232.446 66.6534 232.303 66.2784C232.159 65.8996 231.95 65.6061 231.678 65.3977C231.405 65.1894 231.073 65.0852 230.683 65.0852C230.286 65.0852 229.95 65.1932 229.678 65.4091C229.405 65.6212 229.198 65.9167 229.058 66.2955C228.918 66.6742 228.848 67.1117 228.848 67.608C228.848 68.1117 228.918 68.5473 229.058 68.9148C229.202 69.2784 229.409 69.5606 229.678 69.7614C229.95 69.9583 230.286 70.0568 230.683 70.0568ZM236.825 72V63.2727H239.246V72H236.825ZM238.041 62.1477C237.681 62.1477 237.373 62.0284 237.115 61.7898C236.861 61.5473 236.734 61.2576 236.734 60.9205C236.734 60.5871 236.861 60.3011 237.115 60.0625C237.373 59.8201 237.681 59.6989 238.041 59.6989C238.401 59.6989 238.708 59.8201 238.962 60.0625C239.219 60.3011 239.348 60.5871 239.348 60.9205C239.348 61.2576 239.219 61.5473 238.962 61.7898C238.708 62.0284 238.401 62.1477 238.041 62.1477ZM243.605 66.9545V72H241.185V63.2727H243.491V64.8125H243.594C243.787 64.3049 244.111 63.9034 244.565 63.608C245.02 63.3087 245.571 63.1591 246.219 63.1591C246.825 63.1591 247.353 63.2917 247.804 63.5568C248.255 63.822 248.605 64.2008 248.855 64.6932C249.105 65.1818 249.23 65.7652 249.23 66.4432V72H246.81V66.875C246.813 66.3409 246.677 65.9242 246.401 65.625C246.124 65.322 245.743 65.1705 245.259 65.1705C244.933 65.1705 244.645 65.2405 244.395 65.3807C244.149 65.5208 243.955 65.7254 243.815 65.9943C243.679 66.2595 243.609 66.5795 243.605 66.9545ZM255.115 72.1705C254.217 72.1705 253.445 71.9886 252.797 71.625C252.153 71.2576 251.657 70.7386 251.308 70.0682C250.96 69.3939 250.786 68.5966 250.786 67.6761C250.786 66.7784 250.96 65.9905 251.308 65.3125C251.657 64.6345 252.147 64.1061 252.78 63.7273C253.416 63.3485 254.162 63.1591 255.018 63.1591C255.594 63.1591 256.13 63.2519 256.626 63.4375C257.126 63.6193 257.562 63.8939 257.933 64.2614C258.308 64.6288 258.6 65.0909 258.808 65.6477C259.017 66.2008 259.121 66.8485 259.121 67.5909V68.2557H251.751V66.7557H256.842C256.842 66.4072 256.767 66.0985 256.615 65.8295C256.464 65.5606 256.253 65.3504 255.984 65.1989C255.719 65.0436 255.411 64.9659 255.058 64.9659C254.691 64.9659 254.365 65.0511 254.081 65.2216C253.801 65.3883 253.581 65.6136 253.422 65.8977C253.263 66.178 253.181 66.4905 253.178 66.8352V68.2614C253.178 68.6932 253.257 69.0663 253.416 69.3807C253.579 69.6951 253.808 69.9375 254.104 70.108C254.399 70.2784 254.75 70.3636 255.155 70.3636C255.424 70.3636 255.67 70.3258 255.893 70.25C256.117 70.1742 256.308 70.0606 256.467 69.9091C256.626 69.7576 256.748 69.572 256.831 69.3523L259.07 69.5C258.956 70.0379 258.723 70.5076 258.371 70.9091C258.022 71.3068 257.571 71.6174 257.018 71.8409C256.469 72.0606 255.835 72.1705 255.115 72.1705ZM264.678 72.1705C263.78 72.1705 263.007 71.9886 262.359 71.625C261.715 71.2576 261.219 70.7386 260.871 70.0682C260.522 69.3939 260.348 68.5966 260.348 67.6761C260.348 66.7784 260.522 65.9905 260.871 65.3125C261.219 64.6345 261.71 64.1061 262.342 63.7273C262.979 63.3485 263.725 63.1591 264.581 63.1591C265.157 63.1591 265.693 63.2519 266.189 63.4375C266.689 63.6193 267.125 63.8939 267.496 64.2614C267.871 64.6288 268.162 65.0909 268.371 65.6477C268.579 66.2008 268.683 66.8485 268.683 67.5909V68.2557H261.314V66.7557H266.405C266.405 66.4072 266.329 66.0985 266.178 65.8295C266.026 65.5606 265.816 65.3504 265.547 65.1989C265.282 65.0436 264.973 64.9659 264.621 64.9659C264.253 64.9659 263.928 65.0511 263.643 65.2216C263.363 65.3883 263.143 65.6136 262.984 65.8977C262.825 66.178 262.744 66.4905 262.74 66.8352V68.2614C262.74 68.6932 262.82 69.0663 262.979 69.3807C263.142 69.6951 263.371 69.9375 263.666 70.108C263.962 70.2784 264.312 70.3636 264.717 70.3636C264.986 70.3636 265.232 70.3258 265.456 70.25C265.679 70.1742 265.871 70.0606 266.03 69.9091C266.189 69.7576 266.31 69.572 266.393 69.3523L268.632 69.5C268.518 70.0379 268.286 70.5076 267.933 70.9091C267.585 71.3068 267.134 71.6174 266.581 71.8409C266.032 72.0606 265.397 72.1705 264.678 72.1705ZM270.263 72V63.2727H272.609V64.7955H272.7C272.859 64.2538 273.126 63.8447 273.501 63.5682C273.876 63.2879 274.308 63.1477 274.797 63.1477C274.918 63.1477 275.049 63.1553 275.189 63.1705C275.329 63.1856 275.452 63.2064 275.558 63.233V65.3807C275.445 65.3466 275.287 65.3163 275.087 65.2898C274.886 65.2633 274.702 65.25 274.536 65.25C274.179 65.25 273.861 65.3277 273.581 65.483C273.304 65.6345 273.085 65.8466 272.922 66.1193C272.763 66.392 272.683 66.7064 272.683 67.0625V72H270.263Z" fill="#092AD0"/>
<rect x="131.5" y="82.5" width="59" height="24" rx="4.5" fill="#092AD0" fill-opacity="0.56" stroke="#092AD0"/>
<path d="M142.031 99L143.463 90.2727H144.827L143.395 99H142.031ZM138.124 96.8352L138.349 95.4716H145.168L144.942 96.8352H138.124ZM138.963 99L140.395 90.2727H141.759L140.327 99H138.963ZM138.622 93.8011L138.852 92.4375H145.67L145.44 93.8011H138.622ZM149.329 99V90.2727H152.772C153.431 90.2727 153.994 90.3906 154.46 90.6264C154.928 90.8594 155.285 91.1903 155.529 91.6193C155.776 92.0455 155.9 92.5469 155.9 93.1236C155.9 93.7031 155.775 94.2017 155.525 94.6193C155.275 95.0341 154.913 95.3523 154.438 95.5739C153.967 95.7955 153.396 95.9062 152.725 95.9062H150.42V94.4233H152.427C152.779 94.4233 153.072 94.375 153.305 94.2784C153.538 94.1818 153.711 94.0369 153.825 93.8438C153.941 93.6506 153.999 93.4105 153.999 93.1236C153.999 92.8338 153.941 92.5895 153.825 92.3906C153.711 92.1918 153.536 92.0412 153.3 91.9389C153.067 91.8338 152.773 91.7812 152.418 91.7812H151.174V99H149.329ZM154.042 95.0284L156.211 99H154.174L152.052 95.0284H154.042ZM160.047 99.1278C159.374 99.1278 158.794 98.9915 158.309 98.7188C157.826 98.4432 157.453 98.054 157.192 97.5511C156.931 97.0455 156.8 96.4474 156.8 95.7571C156.8 95.0838 156.931 94.4929 157.192 93.9844C157.453 93.4759 157.821 93.0795 158.296 92.7955C158.773 92.5114 159.333 92.3693 159.975 92.3693C160.407 92.3693 160.809 92.4389 161.181 92.5781C161.556 92.7145 161.882 92.9205 162.161 93.196C162.442 93.4716 162.661 93.8182 162.817 94.2358C162.973 94.6506 163.051 95.1364 163.051 95.6932V96.1918H157.525V95.0668H161.343C161.343 94.8054 161.286 94.5739 161.172 94.3722C161.059 94.1705 160.901 94.0128 160.699 93.8991C160.5 93.7827 160.269 93.7244 160.005 93.7244C159.729 93.7244 159.485 93.7884 159.272 93.9162C159.061 94.0412 158.897 94.2102 158.777 94.4233C158.658 94.6335 158.597 94.8679 158.594 95.1264V96.196C158.594 96.5199 158.654 96.7997 158.773 97.0355C158.895 97.2713 159.067 97.4531 159.289 97.581C159.51 97.7088 159.773 97.7727 160.077 97.7727C160.279 97.7727 160.463 97.7443 160.631 97.6875C160.799 97.6307 160.942 97.5455 161.061 97.4318C161.181 97.3182 161.272 97.179 161.334 97.0142L163.013 97.125C162.928 97.5284 162.753 97.8807 162.489 98.1818C162.228 98.4801 161.89 98.7131 161.475 98.8807C161.063 99.0455 160.587 99.1278 160.047 99.1278ZM166.103 99.1236C165.685 99.1236 165.313 99.0511 164.986 98.9062C164.659 98.7585 164.401 98.5412 164.211 98.2543C164.023 97.9645 163.929 97.6037 163.929 97.1719C163.929 96.8082 163.996 96.5028 164.13 96.2557C164.263 96.0085 164.445 95.8097 164.675 95.6591C164.905 95.5085 165.167 95.3949 165.459 95.3182C165.755 95.2415 166.064 95.1875 166.388 95.1562C166.769 95.1165 167.076 95.0795 167.309 95.0455C167.542 95.0085 167.711 94.9545 167.816 94.8835C167.921 94.8125 167.973 94.7074 167.973 94.5682V94.5426C167.973 94.2727 167.888 94.0639 167.718 93.9162C167.55 93.7685 167.311 93.6946 167.002 93.6946C166.675 93.6946 166.415 93.767 166.222 93.9119C166.029 94.054 165.901 94.233 165.838 94.4489L164.159 94.3125C164.245 93.9148 164.412 93.571 164.662 93.2812C164.912 92.9886 165.235 92.7642 165.63 92.608C166.027 92.4489 166.488 92.3693 167.01 92.3693C167.374 92.3693 167.722 92.4119 168.054 92.4972C168.39 92.5824 168.686 92.7145 168.945 92.8935C169.206 93.0724 169.412 93.3026 169.563 93.5838C169.713 93.8622 169.789 94.196 169.789 94.5852V99H168.067V98.0923H168.016C167.911 98.2969 167.77 98.4773 167.594 98.6335C167.418 98.7869 167.206 98.9077 166.959 98.9957C166.712 99.081 166.426 99.1236 166.103 99.1236ZM166.623 97.8707C166.89 97.8707 167.125 97.8182 167.33 97.7131C167.534 97.6051 167.695 97.4602 167.811 97.2784C167.928 97.0966 167.986 96.8906 167.986 96.6605V95.9659C167.929 96.0028 167.851 96.0369 167.752 96.0682C167.655 96.0966 167.546 96.1236 167.424 96.1491C167.301 96.1719 167.179 96.1932 167.057 96.2131C166.935 96.2301 166.824 96.2457 166.725 96.2599C166.512 96.2912 166.326 96.3409 166.167 96.4091C166.007 96.4773 165.884 96.5696 165.796 96.6861C165.708 96.7997 165.664 96.9418 165.664 97.1122C165.664 97.3594 165.753 97.5483 165.932 97.679C166.114 97.8068 166.344 97.8707 166.623 97.8707ZM174.154 99.1278C173.484 99.1278 172.907 98.9858 172.424 98.7017C171.944 98.4148 171.575 98.017 171.316 97.5085C171.061 97 170.933 96.4148 170.933 95.7528C170.933 95.0824 171.062 94.4943 171.321 93.9886C171.582 93.4801 171.953 93.0838 172.433 92.7997C172.913 92.5128 173.484 92.3693 174.146 92.3693C174.717 92.3693 175.217 92.473 175.646 92.6804C176.075 92.8878 176.414 93.179 176.664 93.554C176.914 93.929 177.052 94.3693 177.078 94.875H175.365C175.316 94.5483 175.189 94.2855 174.981 94.0866C174.777 93.8849 174.508 93.7841 174.176 93.7841C173.895 93.7841 173.649 93.8608 173.439 94.0142C173.231 94.1648 173.069 94.3849 172.953 94.6747C172.836 94.9645 172.778 95.3153 172.778 95.7273C172.778 96.1449 172.835 96.5 172.949 96.7926C173.065 97.0852 173.228 97.3082 173.439 97.4616C173.649 97.6151 173.895 97.6918 174.176 97.6918C174.383 97.6918 174.569 97.6491 174.734 97.5639C174.902 97.4787 175.039 97.3551 175.147 97.1932C175.258 97.0284 175.331 96.831 175.365 96.6009H177.078C177.049 97.1009 176.913 97.5412 176.669 97.9219C176.427 98.2997 176.093 98.5952 175.667 98.8082C175.241 99.0213 174.737 99.1278 174.154 99.1278ZM181.722 92.4545V93.8182H177.78V92.4545H181.722ZM178.675 90.8864H180.49V96.9886C180.49 97.1562 180.516 97.2869 180.567 97.3807C180.618 97.4716 180.689 97.5355 180.78 97.5724C180.874 97.6094 180.982 97.6278 181.104 97.6278C181.189 97.6278 181.274 97.6207 181.359 97.6065C181.445 97.5895 181.51 97.5767 181.555 97.5682L181.841 98.919C181.75 98.9474 181.622 98.9801 181.457 99.017C181.293 99.0568 181.092 99.081 180.857 99.0895C180.419 99.1065 180.036 99.0483 179.706 98.9148C179.379 98.7812 179.125 98.5739 178.943 98.2926C178.761 98.0114 178.672 97.6562 178.675 97.2273V90.8864Z" fill="white"/>
<rect x="200.5" y="82.5" width="94" height="24" rx="4.5" fill="#092AD0" fill-opacity="0.56" stroke="#092AD0"/>
<path d="M214.031 99L215.463 90.2727H216.827L215.395 99H214.031ZM210.124 96.8352L210.349 95.4716H217.168L216.942 96.8352H210.124ZM210.963 99L212.395 90.2727H213.759L212.327 99H210.963ZM210.622 93.8011L210.852 92.4375H217.67L217.44 93.8011H210.622ZM220.996 91.794V90.2727H228.164V91.794H225.492V99H223.668V91.794H220.996ZM229.681 101.455C229.451 101.455 229.235 101.436 229.033 101.399C228.835 101.365 228.67 101.321 228.539 101.267L228.948 99.9119C229.161 99.9773 229.353 100.013 229.523 100.018C229.697 100.024 229.846 99.9844 229.971 99.8991C230.099 99.8139 230.202 99.669 230.282 99.4645L230.388 99.1875L228.04 92.4545H229.95L231.305 97.2614H231.373L232.741 92.4545H234.663L232.119 99.7074C231.996 100.06 231.83 100.366 231.62 100.628C231.413 100.892 231.15 101.095 230.832 101.237C230.513 101.382 230.13 101.455 229.681 101.455ZM235.592 101.455V92.4545H237.381V93.554H237.462C237.542 93.3778 237.657 93.1989 237.808 93.017C237.961 92.8324 238.16 92.679 238.404 92.5568C238.651 92.4318 238.958 92.3693 239.325 92.3693C239.802 92.3693 240.242 92.4943 240.646 92.7443C241.049 92.9915 241.371 93.3651 241.613 93.8651C241.854 94.3622 241.975 94.9858 241.975 95.7358C241.975 96.4659 241.857 97.0824 241.621 97.5852C241.388 98.0852 241.07 98.4645 240.667 98.723C240.266 98.9787 239.817 99.1065 239.32 99.1065C238.968 99.1065 238.668 99.0483 238.421 98.9318C238.177 98.8153 237.977 98.669 237.82 98.4929C237.664 98.3139 237.545 98.1335 237.462 97.9517H237.407V101.455H235.592ZM237.369 95.7273C237.369 96.1165 237.423 96.456 237.531 96.7457C237.638 97.0355 237.795 97.2614 237.999 97.4233C238.204 97.5824 238.452 97.6619 238.745 97.6619C239.04 97.6619 239.29 97.581 239.495 97.419C239.7 97.2543 239.854 97.027 239.96 96.7372C240.067 96.4446 240.121 96.108 240.121 95.7273C240.121 95.3494 240.069 95.017 239.964 94.7301C239.859 94.4432 239.704 94.2187 239.499 94.0568C239.295 93.8949 239.043 93.8139 238.745 93.8139C238.45 93.8139 238.2 93.892 237.995 94.0483C237.793 94.2045 237.638 94.4261 237.531 94.7131C237.423 95 237.369 95.3381 237.369 95.7273ZM246.168 99.1278C245.495 99.1278 244.915 98.9915 244.43 98.7188C243.947 98.4432 243.575 98.054 243.313 97.5511C243.052 97.0455 242.921 96.4474 242.921 95.7571C242.921 95.0838 243.052 94.4929 243.313 93.9844C243.575 93.4759 243.942 93.0795 244.417 92.7955C244.894 92.5114 245.454 92.3693 246.096 92.3693C246.528 92.3693 246.93 92.4389 247.302 92.5781C247.677 92.7145 248.004 92.9205 248.282 93.196C248.563 93.4716 248.782 93.8182 248.938 94.2358C249.094 94.6506 249.173 95.1364 249.173 95.6932V96.1918H243.646V95.0668H247.464C247.464 94.8054 247.407 94.5739 247.293 94.3722C247.18 94.1705 247.022 94.0128 246.82 93.8991C246.621 93.7827 246.39 93.7244 246.126 93.7244C245.85 93.7244 245.606 93.7884 245.393 93.9162C245.183 94.0412 245.018 94.2102 244.898 94.4233C244.779 94.6335 244.718 94.8679 244.715 95.1264V96.196C244.715 96.5199 244.775 96.7997 244.894 97.0355C245.016 97.2713 245.188 97.4531 245.41 97.581C245.631 97.7088 245.894 97.7727 246.198 97.7727C246.4 97.7727 246.585 97.7443 246.752 97.6875C246.92 97.6307 247.063 97.5455 247.183 97.4318C247.302 97.3182 247.393 97.179 247.455 97.0142L249.134 97.125C249.049 97.5284 248.874 97.8807 248.61 98.1818C248.349 98.4801 248.011 98.7131 247.596 98.8807C247.184 99.0455 246.708 99.1278 246.168 99.1278ZM255.803 94.321L254.141 94.4233C254.113 94.2812 254.052 94.1534 253.958 94.0398C253.864 93.9233 253.741 93.831 253.587 93.7628C253.437 93.6918 253.256 93.6562 253.046 93.6562C252.765 93.6562 252.528 93.7159 252.335 93.8352C252.141 93.9517 252.045 94.108 252.045 94.304C252.045 94.4602 252.107 94.5923 252.232 94.7003C252.357 94.8082 252.572 94.8949 252.876 94.9602L254.06 95.1989C254.697 95.3295 255.171 95.5398 255.484 95.8295C255.796 96.1193 255.952 96.5 255.952 96.9716C255.952 97.4006 255.826 97.777 255.573 98.1009C255.323 98.4247 254.979 98.6776 254.542 98.8594C254.107 99.0384 253.606 99.1278 253.038 99.1278C252.171 99.1278 251.481 98.9474 250.967 98.5866C250.455 98.223 250.156 97.7287 250.067 97.1037L251.853 97.0099C251.907 97.2741 252.038 97.4759 252.245 97.6151C252.452 97.7514 252.718 97.8196 253.042 97.8196C253.36 97.8196 253.616 97.7585 253.809 97.6364C254.005 97.5114 254.104 97.3509 254.107 97.1548C254.104 96.9901 254.035 96.8551 253.898 96.75C253.762 96.642 253.552 96.5597 253.268 96.5028L252.134 96.277C251.495 96.1491 251.019 95.9276 250.707 95.6122C250.397 95.2969 250.242 94.8949 250.242 94.4062C250.242 93.9858 250.356 93.6236 250.583 93.3196C250.813 93.0156 251.136 92.7812 251.55 92.6165C251.968 92.4517 252.457 92.3693 253.016 92.3693C253.843 92.3693 254.494 92.544 254.968 92.8935C255.445 93.2429 255.724 93.7187 255.803 94.321ZM260.053 99.1278C259.382 99.1278 258.806 98.9858 258.323 98.7017C257.843 98.4148 257.473 98.017 257.215 97.5085C256.959 97 256.831 96.4148 256.831 95.7528C256.831 95.0824 256.961 94.4943 257.219 93.9886C257.48 93.4801 257.851 93.0838 258.331 92.7997C258.811 92.5128 259.382 92.3693 260.044 92.3693C260.615 92.3693 261.115 92.473 261.544 92.6804C261.973 92.8878 262.313 93.179 262.563 93.554C262.813 93.929 262.951 94.3693 262.976 94.875H261.263C261.215 94.5483 261.087 94.2855 260.88 94.0866C260.675 93.8849 260.407 93.7841 260.074 93.7841C259.793 93.7841 259.547 93.8608 259.337 94.0142C259.13 94.1648 258.968 94.3849 258.851 94.6747C258.735 94.9645 258.676 95.3153 258.676 95.7273C258.676 96.1449 258.733 96.5 258.847 96.7926C258.963 97.0852 259.127 97.3082 259.337 97.4616C259.547 97.6151 259.793 97.6918 260.074 97.6918C260.282 97.6918 260.468 97.6491 260.632 97.5639C260.8 97.4787 260.938 97.3551 261.046 97.1932C261.157 97.0284 261.229 96.831 261.263 96.6009H262.976C262.948 97.1009 262.811 97.5412 262.567 97.9219C262.326 98.2997 261.992 98.5952 261.566 98.8082C261.14 99.0213 260.635 99.1278 260.053 99.1278ZM264.138 99V92.4545H265.898V93.5966H265.967C266.086 93.1903 266.286 92.8835 266.567 92.6761C266.849 92.4659 267.173 92.3608 267.539 92.3608C267.63 92.3608 267.728 92.3665 267.833 92.3778C267.938 92.3892 268.031 92.4048 268.11 92.4247V94.0355C268.025 94.0099 267.907 93.9872 267.756 93.9673C267.606 93.9474 267.468 93.9375 267.343 93.9375C267.076 93.9375 266.837 93.9957 266.627 94.1122C266.42 94.2259 266.255 94.3849 266.133 94.5895C266.013 94.794 265.954 95.0298 265.954 95.2969V99H264.138ZM269.049 99V92.4545H270.864V99H269.049ZM269.961 91.6108C269.691 91.6108 269.459 91.5213 269.266 91.3423C269.076 91.1605 268.98 90.9432 268.98 90.6903C268.98 90.4403 269.076 90.2259 269.266 90.0469C269.459 89.8651 269.691 89.7741 269.961 89.7741C270.23 89.7741 270.461 89.8651 270.651 90.0469C270.844 90.2259 270.941 90.4403 270.941 90.6903C270.941 90.9432 270.844 91.1605 270.651 91.3423C270.461 91.5213 270.23 91.6108 269.961 91.6108ZM272.318 101.455V92.4545H274.108V93.554H274.189C274.268 93.3778 274.384 93.1989 274.534 93.017C274.688 92.8324 274.886 92.679 275.131 92.5568C275.378 92.4318 275.685 92.3693 276.051 92.3693C276.528 92.3693 276.969 92.4943 277.372 92.7443C277.776 92.9915 278.098 93.3651 278.339 93.8651C278.581 94.3622 278.702 94.9858 278.702 95.7358C278.702 96.4659 278.584 97.0824 278.348 97.5852C278.115 98.0852 277.797 98.4645 277.393 98.723C276.993 98.9787 276.544 99.1065 276.047 99.1065C275.695 99.1065 275.395 99.0483 275.148 98.9318C274.903 98.8153 274.703 98.669 274.547 98.4929C274.391 98.3139 274.271 98.1335 274.189 97.9517H274.134V101.455H272.318ZM274.095 95.7273C274.095 96.1165 274.149 96.456 274.257 96.7457C274.365 97.0355 274.521 97.2614 274.726 97.4233C274.93 97.5824 275.179 97.6619 275.472 97.6619C275.767 97.6619 276.017 97.581 276.222 97.419C276.426 97.2543 276.581 97.027 276.686 96.7372C276.794 96.4446 276.848 96.108 276.848 95.7273C276.848 95.3494 276.795 95.017 276.69 94.7301C276.585 94.4432 276.43 94.2187 276.226 94.0568C276.021 93.8949 275.77 93.8139 275.472 93.8139C275.176 93.8139 274.926 93.892 274.722 94.0483C274.52 94.2045 274.365 94.4261 274.257 94.7131C274.149 95 274.095 95.3381 274.095 95.7273ZM283.393 92.4545V93.8182H279.452V92.4545H283.393ZM280.347 90.8864H282.162V96.9886C282.162 97.1562 282.188 97.2869 282.239 97.3807C282.29 97.4716 282.361 97.5355 282.452 97.5724C282.545 97.6094 282.653 97.6278 282.776 97.6278C282.861 97.6278 282.946 97.6207 283.031 97.6065C283.116 97.5895 283.182 97.5767 283.227 97.5682L283.513 98.919C283.422 98.9474 283.294 98.9801 283.129 99.017C282.964 99.0568 282.764 99.081 282.528 99.0895C282.091 99.1065 281.707 99.0483 281.378 98.9148C281.051 98.7812 280.797 98.5739 280.615 98.2926C280.433 98.0114 280.344 97.6562 280.347 97.2273V90.8864Z" fill="white"/>
<rect x="304.5" y="82.5" width="89" height="24" rx="4.5" fill="#092AD0" fill-opacity="0.56" stroke="#092AD0"/>
<path d="M321.031 99L322.463 90.2727H323.827L322.395 99H321.031ZM317.124 96.8352L317.349 95.4716H324.168L323.942 96.8352H317.124ZM317.963 99L319.395 90.2727H320.759L319.327 99H317.963ZM317.622 93.8011L317.852 92.4375H324.67L324.44 93.8011H317.622ZM334.116 93.0938C334.056 92.8864 333.972 92.7031 333.864 92.544C333.756 92.3821 333.624 92.2457 333.468 92.1349C333.315 92.0213 333.138 91.9347 332.94 91.875C332.744 91.8153 332.526 91.7855 332.288 91.7855C331.842 91.7855 331.45 91.8963 331.112 92.1179C330.776 92.3395 330.515 92.6619 330.327 93.0852C330.14 93.5057 330.046 94.0199 330.046 94.6278C330.046 95.2358 330.138 95.7528 330.323 96.179C330.508 96.6051 330.769 96.9304 331.107 97.1548C331.445 97.3764 331.844 97.4872 332.305 97.4872C332.722 97.4872 333.079 97.4134 333.374 97.2656C333.673 97.1151 333.9 96.9034 334.056 96.6307C334.215 96.358 334.295 96.0355 334.295 95.6634L334.67 95.7188H332.42V94.3295H336.072V95.429C336.072 96.196 335.91 96.8551 335.586 97.4062C335.262 97.9545 334.816 98.3778 334.248 98.6761C333.68 98.9716 333.029 99.1193 332.296 99.1193C331.478 99.1193 330.759 98.9389 330.14 98.5781C329.521 98.2145 329.038 97.6989 328.691 97.0312C328.347 96.3608 328.175 95.5653 328.175 94.6449C328.175 93.9375 328.278 93.3068 328.482 92.7528C328.69 92.196 328.979 91.7244 329.352 91.3381C329.724 90.9517 330.157 90.6577 330.651 90.456C331.146 90.2543 331.681 90.1534 332.258 90.1534C332.752 90.1534 333.212 90.2259 333.638 90.3707C334.065 90.5128 334.442 90.7145 334.772 90.9759C335.104 91.2372 335.376 91.5483 335.586 91.9091C335.796 92.267 335.931 92.6619 335.991 93.0938H334.116ZM337.424 99V92.4545H339.184V93.5966H339.252C339.371 93.1903 339.571 92.8835 339.853 92.6761C340.134 92.4659 340.458 92.3608 340.824 92.3608C340.915 92.3608 341.013 92.3665 341.118 92.3778C341.223 92.3892 341.316 92.4048 341.395 92.4247V94.0355C341.31 94.0099 341.192 93.9872 341.042 93.9673C340.891 93.9474 340.753 93.9375 340.628 93.9375C340.361 93.9375 340.123 93.9957 339.912 94.1122C339.705 94.2259 339.54 94.3849 339.418 94.5895C339.299 94.794 339.239 95.0298 339.239 95.2969V99H337.424ZM344.013 99.1236C343.595 99.1236 343.223 99.0511 342.896 98.9062C342.57 98.7585 342.311 98.5412 342.121 98.2543C341.933 97.9645 341.839 97.6037 341.839 97.1719C341.839 96.8082 341.906 96.5028 342.04 96.2557C342.173 96.0085 342.355 95.8097 342.585 95.6591C342.815 95.5085 343.077 95.3949 343.369 95.3182C343.665 95.2415 343.974 95.1875 344.298 95.1562C344.679 95.1165 344.986 95.0795 345.219 95.0455C345.452 95.0085 345.621 94.9545 345.726 94.8835C345.831 94.8125 345.884 94.7074 345.884 94.5682V94.5426C345.884 94.2727 345.798 94.0639 345.628 93.9162C345.46 93.7685 345.222 93.6946 344.912 93.6946C344.585 93.6946 344.325 93.767 344.132 93.9119C343.939 94.054 343.811 94.233 343.749 94.4489L342.07 94.3125C342.155 93.9148 342.322 93.571 342.572 93.2812C342.822 92.9886 343.145 92.7642 343.54 92.608C343.938 92.4489 344.398 92.3693 344.92 92.3693C345.284 92.3693 345.632 92.4119 345.964 92.4972C346.3 92.5824 346.597 92.7145 346.855 92.8935C347.116 93.0724 347.322 93.3026 347.473 93.5838C347.624 93.8622 347.699 94.196 347.699 94.5852V99H345.977V98.0923H345.926C345.821 98.2969 345.68 98.4773 345.504 98.6335C345.328 98.7869 345.116 98.9077 344.869 98.9957C344.622 99.081 344.337 99.1236 344.013 99.1236ZM344.533 97.8707C344.8 97.8707 345.036 97.8182 345.24 97.7131C345.445 97.6051 345.605 97.4602 345.722 97.2784C345.838 97.0966 345.896 96.8906 345.896 96.6605V95.9659C345.839 96.0028 345.761 96.0369 345.662 96.0682C345.565 96.0966 345.456 96.1236 345.334 96.1491C345.212 96.1719 345.089 96.1932 344.967 96.2131C344.845 96.2301 344.734 96.2457 344.635 96.2599C344.422 96.2912 344.236 96.3409 344.077 96.4091C343.918 96.4773 343.794 96.5696 343.706 96.6861C343.618 96.7997 343.574 96.9418 343.574 97.1122C343.574 97.3594 343.663 97.5483 343.842 97.679C344.024 97.8068 344.254 97.8707 344.533 97.8707ZM349.107 101.455V92.4545H350.897V93.554H350.978C351.058 93.3778 351.173 93.1989 351.323 93.017C351.477 92.8324 351.675 92.679 351.92 92.5568C352.167 92.4318 352.474 92.3693 352.84 92.3693C353.317 92.3693 353.758 92.4943 354.161 92.7443C354.565 92.9915 354.887 93.3651 355.129 93.8651C355.37 94.3622 355.491 94.9858 355.491 95.7358C355.491 96.4659 355.373 97.0824 355.137 97.5852C354.904 98.0852 354.586 98.4645 354.183 98.723C353.782 98.9787 353.333 99.1065 352.836 99.1065C352.484 99.1065 352.184 99.0483 351.937 98.9318C351.692 98.8153 351.492 98.669 351.336 98.4929C351.18 98.3139 351.06 98.1335 350.978 97.9517H350.923V101.455H349.107ZM350.884 95.7273C350.884 96.1165 350.938 96.456 351.046 96.7457C351.154 97.0355 351.31 97.2614 351.515 97.4233C351.719 97.5824 351.968 97.6619 352.261 97.6619C352.556 97.6619 352.806 97.581 353.011 97.419C353.215 97.2543 353.37 97.027 353.475 96.7372C353.583 96.4446 353.637 96.108 353.637 95.7273C353.637 95.3494 353.585 95.017 353.479 94.7301C353.374 94.4432 353.219 94.2187 353.015 94.0568C352.81 93.8949 352.559 93.8139 352.261 93.8139C351.965 93.8139 351.715 93.892 351.511 94.0483C351.309 94.2045 351.154 94.4261 351.046 94.7131C350.938 95 350.884 95.3381 350.884 95.7273ZM358.516 95.2159V99H356.701V90.2727H358.465V93.6094H358.542C358.69 93.223 358.928 92.9205 359.258 92.7017C359.587 92.4801 360.001 92.3693 360.498 92.3693C360.952 92.3693 361.349 92.4688 361.687 92.6676C362.028 92.8636 362.292 93.1463 362.479 93.5156C362.67 93.8821 362.763 94.321 362.761 94.8324V99H360.945V95.1562C360.948 94.7528 360.846 94.4389 360.638 94.2145C360.434 93.9901 360.147 93.8778 359.778 93.8778C359.531 93.8778 359.312 93.9304 359.121 94.0355C358.934 94.1406 358.786 94.294 358.678 94.4957C358.573 94.6946 358.519 94.9347 358.516 95.2159ZM367.517 95.9659H369.086L369.874 96.9801L370.65 97.8835L372.111 99.7159H370.39L369.384 98.4801L368.868 97.7472L367.517 95.9659ZM372.243 94.6364C372.243 95.5881 372.063 96.3977 371.702 97.0653C371.344 97.733 370.855 98.2429 370.236 98.5952C369.62 98.9446 368.926 99.1193 368.157 99.1193C367.381 99.1193 366.685 98.9432 366.069 98.5909C365.452 98.2386 364.965 97.7287 364.607 97.0611C364.249 96.3935 364.07 95.5852 364.07 94.6364C364.07 93.6847 364.249 92.875 364.607 92.2074C364.965 91.5398 365.452 91.0312 366.069 90.6818C366.685 90.3295 367.381 90.1534 368.157 90.1534C368.926 90.1534 369.62 90.3295 370.236 90.6818C370.855 91.0312 371.344 91.5398 371.702 92.2074C372.063 92.875 372.243 93.6847 372.243 94.6364ZM370.373 94.6364C370.373 94.0199 370.28 93.5 370.096 93.0767C369.914 92.6534 369.657 92.3324 369.324 92.1136C368.992 91.8949 368.603 91.7855 368.157 91.7855C367.711 91.7855 367.321 91.8949 366.989 92.1136C366.657 92.3324 366.398 92.6534 366.213 93.0767C366.032 93.5 365.941 94.0199 365.941 94.6364C365.941 95.2528 366.032 95.7727 366.213 96.196C366.398 96.6193 366.657 96.9403 366.989 97.1591C367.321 97.3778 367.711 97.4872 368.157 97.4872C368.603 97.4872 368.992 97.3778 369.324 97.1591C369.657 96.9403 369.914 96.6193 370.096 96.196C370.28 95.7727 370.373 95.2528 370.373 94.6364ZM373.61 99V90.2727H375.455V97.4787H379.197V99H373.61Z" fill="white"/>
<rect x="4" width="500" height="135" rx="35" fill="white"/>
<circle cx="79" cy="67" r="40" fill="#C4C4C4"/>
<circle cx="79" cy="67" r="40" fill="#C4C4C4"/>
<rect x="61" y="72" width="36" height="20" rx="5" fill="white"/>
<circle cx="78.5" cy="55.5" r="12.5" fill="white"/>
<path d="M140.155 40.6378C140.098 40.0649 139.854 39.6198 139.423 39.3026C138.992 38.9853 138.408 38.8267 137.669 38.8267C137.167 38.8267 136.743 38.8977 136.398 39.0398C136.052 39.1771 135.787 39.3688 135.602 39.6151C135.422 39.8613 135.332 40.1406 135.332 40.4531C135.323 40.7135 135.377 40.9408 135.496 41.1349C135.619 41.3291 135.787 41.4972 136 41.6392C136.213 41.7765 136.459 41.8973 136.739 42.0014C137.018 42.1009 137.316 42.1861 137.634 42.2571L138.94 42.5696C139.575 42.7116 140.157 42.901 140.688 43.1378C141.218 43.3745 141.677 43.6657 142.065 44.0114C142.454 44.357 142.754 44.7642 142.967 45.233C143.185 45.7017 143.296 46.2391 143.301 46.8452C143.296 47.7353 143.069 48.5071 142.619 49.1605C142.174 49.8092 141.53 50.3134 140.688 50.6733C139.849 51.0284 138.839 51.206 137.655 51.206C136.481 51.206 135.458 51.026 134.587 50.6662C133.72 50.3063 133.043 49.7737 132.555 49.0682C132.072 48.358 131.819 47.4796 131.795 46.4332H134.771C134.804 46.9209 134.944 47.3281 135.19 47.6548C135.441 47.9768 135.775 48.2206 136.192 48.3864C136.613 48.5473 137.089 48.6278 137.619 48.6278C138.14 48.6278 138.592 48.5521 138.976 48.4006C139.364 48.2491 139.665 48.0384 139.878 47.7685C140.091 47.4986 140.197 47.1884 140.197 46.8381C140.197 46.5114 140.1 46.2367 139.906 46.0142C139.717 45.7917 139.438 45.6023 139.068 45.446C138.704 45.2898 138.256 45.1477 137.726 45.0199L136.142 44.6222C134.916 44.3239 133.947 43.8575 133.237 43.223C132.527 42.5885 132.174 41.7339 132.179 40.6591C132.174 39.7784 132.409 39.009 132.882 38.3509C133.36 37.6927 134.016 37.179 134.849 36.8097C135.683 36.4403 136.63 36.2557 137.69 36.2557C138.77 36.2557 139.712 36.4403 140.517 36.8097C141.327 37.179 141.956 37.6927 142.406 38.3509C142.856 39.009 143.088 39.7713 143.102 40.6378H140.155ZM151.115 40.0909V42.3636H144.546V40.0909H151.115ZM146.037 37.4773H149.063V47.6477C149.063 47.9271 149.105 48.1449 149.191 48.3011C149.276 48.4527 149.394 48.5592 149.546 48.6207C149.702 48.6823 149.882 48.7131 150.086 48.7131C150.228 48.7131 150.37 48.7012 150.512 48.6776C150.654 48.6491 150.763 48.6278 150.838 48.6136L151.314 50.8651C151.163 50.9124 150.95 50.9669 150.675 51.0284C150.4 51.0947 150.067 51.1349 149.674 51.1491C148.944 51.1776 148.305 51.0805 147.756 50.858C147.212 50.6354 146.788 50.2898 146.485 49.821C146.182 49.3523 146.033 48.7604 146.037 48.0455V37.4773ZM157.941 51.2131C156.819 51.2131 155.853 50.9858 155.043 50.5312C154.238 50.072 153.618 49.4233 153.182 48.5852C152.747 47.7424 152.529 46.7457 152.529 45.5952C152.529 44.473 152.747 43.4882 153.182 42.6406C153.618 41.7931 154.231 41.1326 155.022 40.6591C155.817 40.1856 156.75 39.9489 157.82 39.9489C158.54 39.9489 159.21 40.0649 159.83 40.2969C160.455 40.5241 160.999 40.8674 161.463 41.3267C161.932 41.786 162.297 42.3636 162.557 43.0597C162.818 43.7509 162.948 44.5606 162.948 45.4886V46.3196H153.736V44.4446H160.1C160.1 44.009 160.005 43.6231 159.816 43.2869C159.626 42.9508 159.364 42.688 159.027 42.4986C158.696 42.3045 158.31 42.2074 157.87 42.2074C157.41 42.2074 157.003 42.3139 156.648 42.527C156.298 42.7353 156.023 43.017 155.824 43.3722C155.625 43.7225 155.524 44.1132 155.519 44.544V46.3267C155.519 46.8665 155.618 47.3329 155.817 47.7259C156.021 48.1188 156.307 48.4219 156.676 48.6349C157.046 48.848 157.484 48.9545 157.99 48.9545C158.327 48.9545 158.634 48.9072 158.914 48.8125C159.193 48.7178 159.432 48.5758 159.631 48.3864C159.83 48.197 159.981 47.965 160.086 47.6903L162.884 47.875C162.742 48.5473 162.451 49.1345 162.01 49.6364C161.575 50.1335 161.011 50.5218 160.32 50.8011C159.633 51.0758 158.84 51.2131 157.941 51.2131ZM174.8 40.0909L170.986 51H167.577L163.763 40.0909H166.959L169.224 47.8963H169.338L171.597 40.0909H174.8ZM180.968 51.2131C179.846 51.2131 178.88 50.9858 178.07 50.5312C177.265 50.072 176.645 49.4233 176.21 48.5852C175.774 47.7424 175.556 46.7457 175.556 45.5952C175.556 44.473 175.774 43.4882 176.21 42.6406C176.645 41.7931 177.258 41.1326 178.049 40.6591C178.844 40.1856 179.777 39.9489 180.847 39.9489C181.567 39.9489 182.237 40.0649 182.857 40.2969C183.482 40.5241 184.027 40.8674 184.491 41.3267C184.96 41.786 185.324 42.3636 185.585 43.0597C185.845 43.7509 185.975 44.5606 185.975 45.4886V46.3196H176.763V44.4446H183.127C183.127 44.009 183.032 43.6231 182.843 43.2869C182.654 42.9508 182.391 42.688 182.055 42.4986C181.723 42.3045 181.337 42.2074 180.897 42.2074C180.438 42.2074 180.031 42.3139 179.675 42.527C179.325 42.7353 179.05 43.017 178.852 43.3722C178.653 43.7225 178.551 44.1132 178.546 44.544V46.3267C178.546 46.8665 178.646 47.3329 178.844 47.7259C179.048 48.1188 179.335 48.4219 179.704 48.6349C180.073 48.848 180.511 48.9545 181.018 48.9545C181.354 48.9545 181.662 48.9072 181.941 48.8125C182.22 48.7178 182.46 48.5758 182.658 48.3864C182.857 48.197 183.009 47.965 183.113 47.6903L185.911 47.875C185.769 48.5473 185.478 49.1345 185.038 49.6364C184.602 50.1335 184.039 50.5218 183.347 50.8011C182.661 51.0758 181.868 51.2131 180.968 51.2131ZM200.526 40.6378C200.469 40.0649 200.225 39.6198 199.794 39.3026C199.364 38.9853 198.779 38.8267 198.04 38.8267C197.538 38.8267 197.114 38.8977 196.769 39.0398C196.423 39.1771 196.158 39.3688 195.973 39.6151C195.793 39.8613 195.703 40.1406 195.703 40.4531C195.694 40.7135 195.748 40.9408 195.867 41.1349C195.99 41.3291 196.158 41.4972 196.371 41.6392C196.584 41.7765 196.83 41.8973 197.11 42.0014C197.389 42.1009 197.687 42.1861 198.005 42.2571L199.311 42.5696C199.946 42.7116 200.528 42.901 201.059 43.1378C201.589 43.3745 202.048 43.6657 202.436 44.0114C202.825 44.357 203.125 44.7642 203.338 45.233C203.556 45.7017 203.667 46.2391 203.672 46.8452C203.667 47.7353 203.44 48.5071 202.99 49.1605C202.545 49.8092 201.901 50.3134 201.059 50.6733C200.221 51.0284 199.21 51.206 198.026 51.206C196.852 51.206 195.829 51.026 194.958 50.6662C194.091 50.3063 193.414 49.7737 192.926 49.0682C192.444 48.358 192.19 47.4796 192.167 46.4332H195.142C195.176 46.9209 195.315 47.3281 195.561 47.6548C195.812 47.9768 196.146 48.2206 196.563 48.3864C196.984 48.5473 197.46 48.6278 197.99 48.6278C198.511 48.6278 198.963 48.5521 199.347 48.4006C199.735 48.2491 200.036 48.0384 200.249 47.7685C200.462 47.4986 200.569 47.1884 200.569 46.8381C200.569 46.5114 200.471 46.2367 200.277 46.0142C200.088 45.7917 199.809 45.6023 199.439 45.446C199.075 45.2898 198.627 45.1477 198.097 45.0199L196.513 44.6222C195.287 44.3239 194.319 43.8575 193.608 43.223C192.898 42.5885 192.545 41.7339 192.55 40.6591C192.545 39.7784 192.78 39.009 193.253 38.3509C193.731 37.6927 194.387 37.179 195.221 36.8097C196.054 36.4403 197.001 36.2557 198.061 36.2557C199.141 36.2557 200.083 36.4403 200.888 36.8097C201.698 37.179 202.328 37.6927 202.777 38.3509C203.227 39.009 203.459 39.7713 203.473 40.6378H200.526ZM205.684 51V40.0909H208.567V42.0156H208.695C208.923 41.3764 209.301 40.8722 209.832 40.5028C210.362 40.1335 210.996 39.9489 211.735 39.9489C212.483 39.9489 213.12 40.1359 213.646 40.5099C214.171 40.8793 214.522 41.3812 214.697 42.0156H214.81C215.033 41.3906 215.435 40.8911 216.018 40.517C216.605 40.1383 217.299 39.9489 218.099 39.9489C219.117 39.9489 219.943 40.2732 220.577 40.9219C221.217 41.5658 221.536 42.4796 221.536 43.6634V51H218.518V44.2599C218.518 43.6539 218.357 43.1993 218.035 42.8963C217.713 42.5933 217.31 42.4418 216.827 42.4418C216.278 42.4418 215.85 42.617 215.542 42.9673C215.234 43.313 215.08 43.7699 215.08 44.3381V51H212.147V44.196C212.147 43.661 211.993 43.2348 211.685 42.9176C211.382 42.6004 210.982 42.4418 210.485 42.4418C210.149 42.4418 209.846 42.527 209.576 42.6974C209.311 42.8632 209.1 43.0975 208.944 43.4006C208.788 43.6989 208.71 44.0492 208.71 44.4517V51H205.684ZM223.926 51V40.0909H226.952V51H223.926ZM225.446 38.6847C224.996 38.6847 224.61 38.5355 224.288 38.2372C223.971 37.9342 223.812 37.572 223.812 37.1506C223.812 36.7339 223.971 36.3764 224.288 36.0781C224.61 35.7751 224.996 35.6236 225.446 35.6236C225.896 35.6236 226.279 35.7751 226.597 36.0781C226.919 36.3764 227.08 36.7339 227.08 37.1506C227.08 37.572 226.919 37.9342 226.597 38.2372C226.279 38.5355 225.896 38.6847 225.446 38.6847ZM235.178 40.0909V42.3636H228.608V40.0909H235.178ZM230.1 37.4773H233.125V47.6477C233.125 47.9271 233.168 48.1449 233.253 48.3011C233.338 48.4527 233.457 48.5592 233.608 48.6207C233.765 48.6823 233.944 48.7131 234.148 48.7131C234.29 48.7131 234.432 48.7012 234.574 48.6776C234.716 48.6491 234.825 48.6278 234.901 48.6136L235.377 50.8651C235.225 50.9124 235.012 50.9669 234.738 51.0284C234.463 51.0947 234.129 51.1349 233.736 51.1491C233.007 51.1776 232.368 51.0805 231.819 50.858C231.274 50.6354 230.85 50.2898 230.547 49.821C230.244 49.3523 230.095 48.7604 230.1 48.0455V37.4773ZM240.409 44.6932V51H237.383V36.4545H240.324V42.0156H240.451C240.698 41.3717 241.095 40.8674 241.645 40.5028C242.194 40.1335 242.883 39.9489 243.711 39.9489C244.469 39.9489 245.129 40.1146 245.693 40.446C246.261 40.7727 246.701 41.2438 247.014 41.8594C247.331 42.4702 247.487 43.2017 247.483 44.054V51H244.457V44.5938C244.462 43.9214 244.291 43.3982 243.946 43.0241C243.605 42.6501 243.127 42.4631 242.511 42.4631C242.099 42.4631 241.734 42.5507 241.417 42.7259C241.105 42.901 240.859 43.1567 240.679 43.4929C240.503 43.8243 240.413 44.2244 240.409 44.6932Z" fill="black"/>
<path d="M134.114 60.3636L136.926 69.2045H137.034L139.852 60.3636H142.58L138.568 72H135.398L131.381 60.3636H134.114ZM143.98 72V60.3636H148.571C149.454 60.3636 150.205 60.5322 150.827 60.8693C151.448 61.2027 151.921 61.6667 152.247 62.2614C152.577 62.8523 152.741 63.5341 152.741 64.3068C152.741 65.0795 152.575 65.7614 152.241 66.3523C151.908 66.9432 151.425 67.4034 150.793 67.733C150.164 68.0625 149.402 68.2273 148.509 68.2273H145.582V66.2557H148.111C148.584 66.2557 148.974 66.1742 149.281 66.0114C149.592 65.8447 149.823 65.6155 149.974 65.3239C150.13 65.0284 150.207 64.6894 150.207 64.3068C150.207 63.9205 150.13 63.5833 149.974 63.2955C149.823 63.0038 149.592 62.7784 149.281 62.6193C148.971 62.4564 148.577 62.375 148.099 62.375H146.44V72H143.98ZM158.043 72V60.3636H165.884V62.392H160.503V65.1648H165.48V67.1932H160.503V69.9716H165.906V72H158.043ZM170.214 66.9545V72H167.794V63.2727H170.101V64.8125H170.203C170.396 64.3049 170.72 63.9034 171.175 63.608C171.629 63.3087 172.18 63.1591 172.828 63.1591C173.434 63.1591 173.963 63.2917 174.413 63.5568C174.864 63.822 175.214 64.2008 175.464 64.6932C175.714 65.1818 175.839 65.7652 175.839 66.4432V72H173.419V66.875C173.423 66.3409 173.286 65.9242 173.01 65.625C172.733 65.322 172.353 65.1705 171.868 65.1705C171.542 65.1705 171.254 65.2405 171.004 65.3807C170.758 65.5208 170.565 65.7254 170.425 65.9943C170.288 66.2595 170.218 66.5795 170.214 66.9545ZM181.679 75.4545C180.895 75.4545 180.223 75.3466 179.662 75.1307C179.105 74.9186 178.662 74.6288 178.332 74.2614C178.003 73.8939 177.789 73.4811 177.69 73.0227L179.929 72.7216C179.997 72.8958 180.105 73.0587 180.253 73.2102C180.401 73.3617 180.596 73.483 180.838 73.5739C181.084 73.6686 181.384 73.7159 181.736 73.7159C182.262 73.7159 182.696 73.5871 183.037 73.3295C183.382 73.0758 183.554 72.6496 183.554 72.0511V70.4545H183.452C183.346 70.697 183.187 70.9261 182.974 71.142C182.762 71.358 182.49 71.5341 182.156 71.6705C181.823 71.8068 181.425 71.875 180.963 71.875C180.308 71.875 179.711 71.7235 179.173 71.4205C178.639 71.1136 178.213 70.6458 177.895 70.017C177.58 69.3845 177.423 68.5852 177.423 67.6193C177.423 66.6307 177.584 65.8049 177.906 65.142C178.228 64.4792 178.656 63.983 179.19 63.6534C179.728 63.3239 180.317 63.1591 180.957 63.1591C181.446 63.1591 181.855 63.2424 182.185 63.4091C182.514 63.572 182.779 63.7765 182.98 64.0227C183.185 64.2652 183.342 64.5038 183.452 64.7386H183.543V63.2727H185.946V72.0852C185.946 72.8277 185.764 73.4489 185.401 73.9489C185.037 74.4489 184.533 74.8239 183.889 75.0739C183.249 75.3277 182.512 75.4545 181.679 75.4545ZM181.73 70.0568C182.12 70.0568 182.45 69.9602 182.719 69.767C182.991 69.5701 183.2 69.2898 183.344 68.9261C183.491 68.5587 183.565 68.1193 183.565 67.608C183.565 67.0966 183.493 66.6534 183.349 66.2784C183.205 65.8996 182.997 65.6061 182.724 65.3977C182.452 65.1894 182.12 65.0852 181.73 65.0852C181.332 65.0852 180.997 65.1932 180.724 65.4091C180.452 65.6212 180.245 65.9167 180.105 66.2955C179.965 66.6742 179.895 67.1117 179.895 67.608C179.895 68.1117 179.965 68.5473 180.105 68.9148C180.249 69.2784 180.455 69.5606 180.724 69.7614C180.997 69.9583 181.332 70.0568 181.73 70.0568ZM187.872 72V63.2727H190.293V72H187.872ZM189.088 62.1477C188.728 62.1477 188.42 62.0284 188.162 61.7898C187.908 61.5473 187.781 61.2576 187.781 60.9205C187.781 60.5871 187.908 60.3011 188.162 60.0625C188.42 59.8201 188.728 59.6989 189.088 59.6989C189.448 59.6989 189.755 59.8201 190.009 60.0625C190.266 60.3011 190.395 60.5871 190.395 60.9205C190.395 61.2576 190.266 61.5473 190.009 61.7898C189.755 62.0284 189.448 62.1477 189.088 62.1477ZM194.652 66.9545V72H192.232V63.2727H194.538V64.8125H194.641C194.834 64.3049 195.158 63.9034 195.612 63.608C196.067 63.3087 196.618 63.1591 197.266 63.1591C197.872 63.1591 198.4 63.2917 198.851 63.5568C199.302 63.822 199.652 64.2008 199.902 64.6932C200.152 65.1818 200.277 65.7652 200.277 66.4432V72H197.857V66.875C197.86 66.3409 197.724 65.9242 197.447 65.625C197.171 65.322 196.79 65.1705 196.305 65.1705C195.98 65.1705 195.692 65.2405 195.442 65.3807C195.196 65.5208 195.002 65.7254 194.862 65.9943C194.726 66.2595 194.656 66.5795 194.652 66.9545ZM206.162 72.1705C205.264 72.1705 204.491 71.9886 203.844 71.625C203.2 71.2576 202.704 70.7386 202.355 70.0682C202.007 69.3939 201.832 68.5966 201.832 67.6761C201.832 66.7784 202.007 65.9905 202.355 65.3125C202.704 64.6345 203.194 64.1061 203.827 63.7273C204.463 63.3485 205.209 63.1591 206.065 63.1591C206.641 63.1591 207.177 63.2519 207.673 63.4375C208.173 63.6193 208.609 63.8939 208.98 64.2614C209.355 64.6288 209.647 65.0909 209.855 65.6477C210.063 66.2008 210.168 66.8485 210.168 67.5909V68.2557H202.798V66.7557H207.889C207.889 66.4072 207.813 66.0985 207.662 65.8295C207.51 65.5606 207.3 65.3504 207.031 65.1989C206.766 65.0436 206.457 64.9659 206.105 64.9659C205.738 64.9659 205.412 65.0511 205.128 65.2216C204.848 65.3883 204.628 65.6136 204.469 65.8977C204.31 66.178 204.228 66.4905 204.224 66.8352V68.2614C204.224 68.6932 204.304 69.0663 204.463 69.3807C204.626 69.6951 204.855 69.9375 205.151 70.108C205.446 70.2784 205.796 70.3636 206.202 70.3636C206.471 70.3636 206.717 70.3258 206.94 70.25C207.164 70.1742 207.355 70.0606 207.514 69.9091C207.673 69.7576 207.795 69.572 207.878 69.3523L210.116 69.5C210.003 70.0379 209.77 70.5076 209.418 70.9091C209.069 71.3068 208.618 71.6174 208.065 71.8409C207.516 72.0606 206.882 72.1705 206.162 72.1705ZM215.724 72.1705C214.827 72.1705 214.054 71.9886 213.406 71.625C212.762 71.2576 212.266 70.7386 211.918 70.0682C211.569 69.3939 211.395 68.5966 211.395 67.6761C211.395 66.7784 211.569 65.9905 211.918 65.3125C212.266 64.6345 212.757 64.1061 213.389 63.7273C214.026 63.3485 214.772 63.1591 215.628 63.1591C216.204 63.1591 216.74 63.2519 217.236 63.4375C217.736 63.6193 218.171 63.8939 218.543 64.2614C218.918 64.6288 219.209 65.0909 219.418 65.6477C219.626 66.2008 219.73 66.8485 219.73 67.5909V68.2557H212.361V66.7557H217.452C217.452 66.4072 217.376 66.0985 217.224 65.8295C217.073 65.5606 216.863 65.3504 216.594 65.1989C216.329 65.0436 216.02 64.9659 215.668 64.9659C215.3 64.9659 214.974 65.0511 214.69 65.2216C214.41 65.3883 214.19 65.6136 214.031 65.8977C213.872 66.178 213.791 66.4905 213.787 66.8352V68.2614C213.787 68.6932 213.866 69.0663 214.026 69.3807C214.188 69.6951 214.418 69.9375 214.713 70.108C215.009 70.2784 215.359 70.3636 215.764 70.3636C216.033 70.3636 216.279 70.3258 216.503 70.25C216.726 70.1742 216.918 70.0606 217.077 69.9091C217.236 69.7576 217.357 69.572 217.44 69.3523L219.679 69.5C219.565 70.0379 219.332 70.5076 218.98 70.9091C218.632 71.3068 218.181 71.6174 217.628 71.8409C217.079 72.0606 216.444 72.1705 215.724 72.1705ZM221.31 72V63.2727H223.656V64.7955H223.747C223.906 64.2538 224.173 63.8447 224.548 63.5682C224.923 63.2879 225.355 63.1477 225.844 63.1477C225.965 63.1477 226.096 63.1553 226.236 63.1705C226.376 63.1856 226.499 63.2064 226.605 63.233V65.3807C226.491 65.3466 226.334 65.3163 226.134 65.2898C225.933 65.2633 225.749 65.25 225.582 65.25C225.226 65.25 224.908 65.3277 224.628 65.483C224.351 65.6345 224.132 65.8466 223.969 66.1193C223.81 66.392 223.73 66.7064 223.73 67.0625V72H221.31ZM227.857 72V63.2727H230.277V72H227.857ZM229.072 62.1477C228.713 62.1477 228.404 62.0284 228.146 61.7898C227.893 61.5473 227.766 61.2576 227.766 60.9205C227.766 60.5871 227.893 60.3011 228.146 60.0625C228.404 59.8201 228.713 59.6989 229.072 59.6989C229.432 59.6989 229.739 59.8201 229.993 60.0625C230.25 60.3011 230.379 60.5871 230.379 60.9205C230.379 61.2576 230.25 61.5473 229.993 61.7898C229.739 62.0284 229.432 62.1477 229.072 62.1477ZM234.636 66.9545V72H232.216V63.2727H234.523V64.8125H234.625C234.818 64.3049 235.142 63.9034 235.597 63.608C236.051 63.3087 236.602 63.1591 237.25 63.1591C237.856 63.1591 238.384 63.2917 238.835 63.5568C239.286 63.822 239.636 64.2008 239.886 64.6932C240.136 65.1818 240.261 65.7652 240.261 66.4432V72H237.841V66.875C237.845 66.3409 237.708 65.9242 237.432 65.625C237.155 65.322 236.775 65.1705 236.29 65.1705C235.964 65.1705 235.676 65.2405 235.426 65.3807C235.18 65.5208 234.987 65.7254 234.847 65.9943C234.71 66.2595 234.64 66.5795 234.636 66.9545ZM246.101 75.4545C245.317 75.4545 244.644 75.3466 244.084 75.1307C243.527 74.9186 243.084 74.6288 242.754 74.2614C242.425 73.8939 242.211 73.4811 242.112 73.0227L244.351 72.7216C244.419 72.8958 244.527 73.0587 244.675 73.2102C244.822 73.3617 245.018 73.483 245.26 73.5739C245.506 73.6686 245.805 73.7159 246.158 73.7159C246.684 73.7159 247.118 73.5871 247.459 73.3295C247.804 73.0758 247.976 72.6496 247.976 72.0511V70.4545H247.874C247.768 70.697 247.608 70.9261 247.396 71.142C247.184 71.358 246.911 71.5341 246.578 71.6705C246.245 71.8068 245.847 71.875 245.385 71.875C244.73 71.875 244.133 71.7235 243.595 71.4205C243.061 71.1136 242.635 70.6458 242.317 70.017C242.002 69.3845 241.845 68.5852 241.845 67.6193C241.845 66.6307 242.006 65.8049 242.328 65.142C242.65 64.4792 243.078 63.983 243.612 63.6534C244.15 63.3239 244.739 63.1591 245.379 63.1591C245.868 63.1591 246.277 63.2424 246.607 63.4091C246.936 63.572 247.201 63.7765 247.402 64.0227C247.607 64.2652 247.764 64.5038 247.874 64.7386H247.964V63.2727H250.368V72.0852C250.368 72.8277 250.186 73.4489 249.822 73.9489C249.459 74.4489 248.955 74.8239 248.311 75.0739C247.671 75.3277 246.934 75.4545 246.101 75.4545ZM246.152 70.0568C246.542 70.0568 246.872 69.9602 247.141 69.767C247.413 69.5701 247.622 69.2898 247.766 68.9261C247.913 68.5587 247.987 68.1193 247.987 67.608C247.987 67.0966 247.915 66.6534 247.771 66.2784C247.627 65.8996 247.419 65.6061 247.146 65.3977C246.874 65.1894 246.542 65.0852 246.152 65.0852C245.754 65.0852 245.419 65.1932 245.146 65.4091C244.874 65.6212 244.667 65.9167 244.527 66.2955C244.387 66.6742 244.317 67.1117 244.317 67.608C244.317 68.1117 244.387 68.5473 244.527 68.9148C244.671 69.2784 244.877 69.5606 245.146 69.7614C245.419 69.9583 245.754 70.0568 246.152 70.0568Z" fill="#092AD0"/>
<rect x="131.5" y="82.5" width="59" height="24" rx="4.5" fill="#092AD0" fill-opacity="0.56" stroke="#092AD0"/>
<path d="M142.031 99L143.463 90.2727H144.827L143.395 99H142.031ZM138.124 96.8352L138.349 95.4716H145.168L144.942 96.8352H138.124ZM138.963 99L140.395 90.2727H141.759L140.327 99H138.963ZM138.622 93.8011L138.852 92.4375H145.67L145.44 93.8011H138.622ZM149.329 99V90.2727H152.772C153.431 90.2727 153.994 90.3906 154.46 90.6264C154.928 90.8594 155.285 91.1903 155.529 91.6193C155.776 92.0455 155.9 92.5469 155.9 93.1236C155.9 93.7031 155.775 94.2017 155.525 94.6193C155.275 95.0341 154.913 95.3523 154.438 95.5739C153.967 95.7955 153.396 95.9062 152.725 95.9062H150.42V94.4233H152.427C152.779 94.4233 153.072 94.375 153.305 94.2784C153.538 94.1818 153.711 94.0369 153.825 93.8438C153.941 93.6506 153.999 93.4105 153.999 93.1236C153.999 92.8338 153.941 92.5895 153.825 92.3906C153.711 92.1918 153.536 92.0412 153.3 91.9389C153.067 91.8338 152.773 91.7812 152.418 91.7812H151.174V99H149.329ZM154.042 95.0284L156.211 99H154.174L152.052 95.0284H154.042ZM160.047 99.1278C159.374 99.1278 158.794 98.9915 158.309 98.7188C157.826 98.4432 157.453 98.054 157.192 97.5511C156.931 97.0455 156.8 96.4474 156.8 95.7571C156.8 95.0838 156.931 94.4929 157.192 93.9844C157.453 93.4759 157.821 93.0795 158.296 92.7955C158.773 92.5114 159.333 92.3693 159.975 92.3693C160.407 92.3693 160.809 92.4389 161.181 92.5781C161.556 92.7145 161.882 92.9205 162.161 93.196C162.442 93.4716 162.661 93.8182 162.817 94.2358C162.973 94.6506 163.051 95.1364 163.051 95.6932V96.1918H157.525V95.0668H161.343C161.343 94.8054 161.286 94.5739 161.172 94.3722C161.059 94.1705 160.901 94.0128 160.699 93.8991C160.5 93.7827 160.269 93.7244 160.005 93.7244C159.729 93.7244 159.485 93.7884 159.272 93.9162C159.061 94.0412 158.897 94.2102 158.777 94.4233C158.658 94.6335 158.597 94.8679 158.594 95.1264V96.196C158.594 96.5199 158.654 96.7997 158.773 97.0355C158.895 97.2713 159.067 97.4531 159.289 97.581C159.51 97.7088 159.773 97.7727 160.077 97.7727C160.279 97.7727 160.463 97.7443 160.631 97.6875C160.799 97.6307 160.942 97.5455 161.061 97.4318C161.181 97.3182 161.272 97.179 161.334 97.0142L163.013 97.125C162.928 97.5284 162.753 97.8807 162.489 98.1818C162.228 98.4801 161.89 98.7131 161.475 98.8807C161.063 99.0455 160.587 99.1278 160.047 99.1278ZM166.103 99.1236C165.685 99.1236 165.313 99.0511 164.986 98.9062C164.659 98.7585 164.401 98.5412 164.211 98.2543C164.023 97.9645 163.929 97.6037 163.929 97.1719C163.929 96.8082 163.996 96.5028 164.13 96.2557C164.263 96.0085 164.445 95.8097 164.675 95.6591C164.905 95.5085 165.167 95.3949 165.459 95.3182C165.755 95.2415 166.064 95.1875 166.388 95.1562C166.769 95.1165 167.076 95.0795 167.309 95.0455C167.542 95.0085 167.711 94.9545 167.816 94.8835C167.921 94.8125 167.973 94.7074 167.973 94.5682V94.5426C167.973 94.2727 167.888 94.0639 167.718 93.9162C167.55 93.7685 167.311 93.6946 167.002 93.6946C166.675 93.6946 166.415 93.767 166.222 93.9119C166.029 94.054 165.901 94.233 165.838 94.4489L164.159 94.3125C164.245 93.9148 164.412 93.571 164.662 93.2812C164.912 92.9886 165.235 92.7642 165.63 92.608C166.027 92.4489 166.488 92.3693 167.01 92.3693C167.374 92.3693 167.722 92.4119 168.054 92.4972C168.39 92.5824 168.686 92.7145 168.945 92.8935C169.206 93.0724 169.412 93.3026 169.563 93.5838C169.713 93.8622 169.789 94.196 169.789 94.5852V99H168.067V98.0923H168.016C167.911 98.2969 167.77 98.4773 167.594 98.6335C167.418 98.7869 167.206 98.9077 166.959 98.9957C166.712 99.081 166.426 99.1236 166.103 99.1236ZM166.623 97.8707C166.89 97.8707 167.125 97.8182 167.33 97.7131C167.534 97.6051 167.695 97.4602 167.811 97.2784C167.928 97.0966 167.986 96.8906 167.986 96.6605V95.9659C167.929 96.0028 167.851 96.0369 167.752 96.0682C167.655 96.0966 167.546 96.1236 167.424 96.1491C167.301 96.1719 167.179 96.1932 167.057 96.2131C166.935 96.2301 166.824 96.2457 166.725 96.2599C166.512 96.2912 166.326 96.3409 166.167 96.4091C166.007 96.4773 165.884 96.5696 165.796 96.6861C165.708 96.7997 165.664 96.9418 165.664 97.1122C165.664 97.3594 165.753 97.5483 165.932 97.679C166.114 97.8068 166.344 97.8707 166.623 97.8707ZM174.154 99.1278C173.484 99.1278 172.907 98.9858 172.424 98.7017C171.944 98.4148 171.575 98.017 171.316 97.5085C171.061 97 170.933 96.4148 170.933 95.7528C170.933 95.0824 171.062 94.4943 171.321 93.9886C171.582 93.4801 171.953 93.0838 172.433 92.7997C172.913 92.5128 173.484 92.3693 174.146 92.3693C174.717 92.3693 175.217 92.473 175.646 92.6804C176.075 92.8878 176.414 93.179 176.664 93.554C176.914 93.929 177.052 94.3693 177.078 94.875H175.365C175.316 94.5483 175.189 94.2855 174.981 94.0866C174.777 93.8849 174.508 93.7841 174.176 93.7841C173.895 93.7841 173.649 93.8608 173.439 94.0142C173.231 94.1648 173.069 94.3849 172.953 94.6747C172.836 94.9645 172.778 95.3153 172.778 95.7273C172.778 96.1449 172.835 96.5 172.949 96.7926C173.065 97.0852 173.228 97.3082 173.439 97.4616C173.649 97.6151 173.895 97.6918 174.176 97.6918C174.383 97.6918 174.569 97.6491 174.734 97.5639C174.902 97.4787 175.039 97.3551 175.147 97.1932C175.258 97.0284 175.331 96.831 175.365 96.6009H177.078C177.049 97.1009 176.913 97.5412 176.669 97.9219C176.427 98.2997 176.093 98.5952 175.667 98.8082C175.241 99.0213 174.737 99.1278 174.154 99.1278ZM181.722 92.4545V93.8182H177.78V92.4545H181.722ZM178.675 90.8864H180.49V96.9886C180.49 97.1562 180.516 97.2869 180.567 97.3807C180.618 97.4716 180.689 97.5355 180.78 97.5724C180.874 97.6094 180.982 97.6278 181.104 97.6278C181.189 97.6278 181.274 97.6207 181.359 97.6065C181.445 97.5895 181.51 97.5767 181.555 97.5682L181.841 98.919C181.75 98.9474 181.622 98.9801 181.457 99.017C181.293 99.0568 181.092 99.081 180.857 99.0895C180.419 99.1065 180.036 99.0483 179.706 98.9148C179.379 98.7812 179.125 98.5739 178.943 98.2926C178.761 98.0114 178.672 97.6562 178.675 97.2273V90.8864Z" fill="white"/>
<rect x="200.5" y="82.5" width="59" height="24" rx="4.5" fill="#092AD0" fill-opacity="0.56" stroke="#092AD0"/>
<path d="M210.031 99L211.463 90.2727H212.827L211.395 99H210.031ZM206.124 96.8352L206.349 95.4716H213.168L212.942 96.8352H206.124ZM206.963 99L208.395 90.2727H209.759L208.327 99H206.963ZM206.622 93.8011L206.852 92.4375H213.67L213.44 93.8011H206.622ZM217.329 99V90.2727H223.107V91.794H219.174V93.8736H222.724V95.3949H219.174V99H217.329ZM224.314 99V92.4545H226.13V99H224.314ZM225.226 91.6108C224.956 91.6108 224.725 91.5213 224.532 91.3423C224.341 91.1605 224.246 90.9432 224.246 90.6903C224.246 90.4403 224.341 90.2259 224.532 90.0469C224.725 89.8651 224.956 89.7741 225.226 89.7741C225.496 89.7741 225.726 89.8651 225.917 90.0469C226.11 90.2259 226.206 90.4403 226.206 90.6903C226.206 90.9432 226.11 91.1605 225.917 91.3423C225.726 91.5213 225.496 91.6108 225.226 91.6108ZM230.533 101.591C229.945 101.591 229.44 101.51 229.02 101.348C228.602 101.189 228.27 100.972 228.023 100.696C227.776 100.42 227.615 100.111 227.541 99.767L229.22 99.5412C229.271 99.6719 229.352 99.794 229.463 99.9077C229.574 100.021 229.72 100.112 229.902 100.18C230.087 100.251 230.311 100.287 230.575 100.287C230.97 100.287 231.295 100.19 231.551 99.9972C231.81 99.8068 231.939 99.4872 231.939 99.0384V97.8409H231.862C231.783 98.0227 231.663 98.1946 231.504 98.3565C231.345 98.5185 231.141 98.6506 230.891 98.7528C230.641 98.8551 230.342 98.9062 229.996 98.9062C229.504 98.9062 229.057 98.7926 228.653 98.5653C228.253 98.3352 227.933 97.9844 227.695 97.5128C227.459 97.0384 227.341 96.4389 227.341 95.7145C227.341 94.973 227.462 94.3537 227.703 93.8565C227.945 93.3594 228.266 92.9872 228.666 92.7401C229.07 92.4929 229.511 92.3693 229.991 92.3693C230.358 92.3693 230.665 92.4318 230.912 92.5568C231.159 92.679 231.358 92.8324 231.509 93.017C231.662 93.1989 231.78 93.3778 231.862 93.554H231.93V92.4545H233.733V99.0639C233.733 99.6207 233.597 100.087 233.324 100.462C233.051 100.837 232.673 101.118 232.19 101.305C231.71 101.496 231.158 101.591 230.533 101.591ZM230.571 97.5426C230.864 97.5426 231.111 97.4702 231.312 97.3253C231.517 97.1776 231.673 96.9673 231.781 96.6946C231.892 96.419 231.947 96.0895 231.947 95.706C231.947 95.3224 231.893 94.9901 231.786 94.7088C231.678 94.4247 231.521 94.2045 231.317 94.0483C231.112 93.892 230.864 93.8139 230.571 93.8139C230.273 93.8139 230.021 93.8949 229.817 94.0568C229.612 94.2159 229.457 94.4375 229.352 94.7216C229.247 95.0057 229.195 95.3338 229.195 95.706C229.195 96.0838 229.247 96.4105 229.352 96.6861C229.46 96.9588 229.615 97.1705 229.817 97.321C230.021 97.4687 230.273 97.5426 230.571 97.5426ZM235.178 99V92.4545H236.908V93.6094H236.984C237.121 93.2259 237.348 92.9233 237.666 92.7017C237.984 92.4801 238.365 92.3693 238.808 92.3693C239.257 92.3693 239.639 92.4815 239.955 92.706C240.27 92.9276 240.48 93.2287 240.585 93.6094H240.653C240.787 93.2344 241.028 92.9347 241.378 92.7102C241.73 92.483 242.146 92.3693 242.626 92.3693C243.237 92.3693 243.733 92.5639 244.114 92.9531C244.497 93.3395 244.689 93.8878 244.689 94.598V99H242.878V94.956C242.878 94.5923 242.781 94.3196 242.588 94.1378C242.395 93.956 242.153 93.8651 241.864 93.8651C241.534 93.8651 241.277 93.9702 241.092 94.1804C240.908 94.3878 240.815 94.6619 240.815 95.0028V99H239.055V94.9176C239.055 94.5966 238.963 94.3409 238.778 94.1506C238.597 93.9602 238.357 93.8651 238.058 93.8651C237.857 93.8651 237.675 93.9162 237.513 94.0185C237.354 94.1179 237.227 94.2585 237.134 94.4403C237.04 94.6193 236.993 94.8295 236.993 95.071V99H235.178ZM247.989 99.1236C247.572 99.1236 247.2 99.0511 246.873 98.9062C246.546 98.7585 246.288 98.5412 246.097 98.2543C245.91 97.9645 245.816 97.6037 245.816 97.1719C245.816 96.8082 245.883 96.5028 246.016 96.2557C246.15 96.0085 246.332 95.8097 246.562 95.6591C246.792 95.5085 247.053 95.3949 247.346 95.3182C247.641 95.2415 247.951 95.1875 248.275 95.1562C248.656 95.1165 248.962 95.0795 249.195 95.0455C249.428 95.0085 249.597 94.9545 249.702 94.8835C249.808 94.8125 249.86 94.7074 249.86 94.5682V94.5426C249.86 94.2727 249.775 94.0639 249.604 93.9162C249.437 93.7685 249.198 93.6946 248.888 93.6946C248.562 93.6946 248.302 93.767 248.109 93.9119C247.915 94.054 247.788 94.233 247.725 94.4489L246.046 94.3125C246.131 93.9148 246.299 93.571 246.549 93.2812C246.799 92.9886 247.121 92.7642 247.516 92.608C247.914 92.4489 248.374 92.3693 248.897 92.3693C249.261 92.3693 249.609 92.4119 249.941 92.4972C250.276 92.5824 250.573 92.7145 250.832 92.8935C251.093 93.0724 251.299 93.3026 251.45 93.5838C251.6 93.8622 251.675 94.196 251.675 94.5852V99H249.954V98.0923H249.903C249.798 98.2969 249.657 98.4773 249.481 98.6335C249.305 98.7869 249.093 98.9077 248.846 98.9957C248.599 99.081 248.313 99.1236 247.989 99.1236ZM248.509 97.8707C248.776 97.8707 249.012 97.8182 249.217 97.7131C249.421 97.6051 249.582 97.4602 249.698 97.2784C249.815 97.0966 249.873 96.8906 249.873 96.6605V95.9659C249.816 96.0028 249.738 96.0369 249.638 96.0682C249.542 96.0966 249.433 96.1236 249.31 96.1491C249.188 96.1719 249.066 96.1932 248.944 96.2131C248.822 96.2301 248.711 96.2457 248.612 96.2599C248.398 96.2912 248.212 96.3409 248.053 96.4091C247.894 96.4773 247.771 96.5696 247.683 96.6861C247.594 96.7997 247.55 96.9418 247.55 97.1122C247.55 97.3594 247.64 97.5483 247.819 97.679C248.001 97.8068 248.231 97.8707 248.509 97.8707Z" fill="white"/>
<rect x="269.5" y="82.5" width="94" height="24" rx="4.5" fill="#092AD0" fill-opacity="0.56" stroke="#092AD0"/>
<path d="M283.031 99L284.463 90.2727H285.827L284.395 99H283.031ZM279.124 96.8352L279.349 95.4716H286.168L285.942 96.8352H279.124ZM279.963 99L281.395 90.2727H282.759L281.327 99H279.963ZM279.622 93.8011L279.852 92.4375H286.67L286.44 93.8011H279.622ZM290.329 99V90.2727H292.174V93.8736H295.92V90.2727H297.761V99H295.92V95.3949H292.174V99H290.329ZM298.95 91.794V90.2727H306.117V91.794H303.445V99H301.621V91.794H298.95ZM307.298 90.2727H309.573L311.977 96.1364H312.079L314.482 90.2727H316.758V99H314.968V93.3196H314.896L312.637 98.9574H311.418L309.16 93.2983H309.087V99H307.298V90.2727ZM318.278 99V90.2727H320.123V97.4787H323.865V99H318.278ZM328.854 89.8636L326.041 100.312H324.477L327.29 89.8636H328.854ZM337.463 93.3281H335.596C335.562 93.0866 335.493 92.8722 335.387 92.6847C335.282 92.4943 335.147 92.3324 334.983 92.1989C334.818 92.0653 334.627 91.9631 334.412 91.892C334.199 91.821 333.967 91.7855 333.717 91.7855C333.265 91.7855 332.872 91.8977 332.537 92.1222C332.201 92.3437 331.941 92.6676 331.757 93.0938C331.572 93.517 331.48 94.0312 331.48 94.6364C331.48 95.2585 331.572 95.7812 331.757 96.2045C331.944 96.6278 332.206 96.9474 332.541 97.1634C332.876 97.3793 333.264 97.4872 333.704 97.4872C333.951 97.4872 334.18 97.4545 334.39 97.3892C334.603 97.3239 334.792 97.2287 334.957 97.1037C335.122 96.9759 335.258 96.821 335.366 96.6392C335.477 96.4574 335.554 96.25 335.596 96.017L337.463 96.0256C337.414 96.4261 337.294 96.8125 337.1 97.1847C336.91 97.554 336.653 97.8849 336.329 98.1776C336.008 98.4673 335.625 98.6974 335.179 98.8679C334.735 99.0355 334.234 99.1193 333.674 99.1193C332.896 99.1193 332.2 98.9432 331.586 98.5909C330.975 98.2386 330.493 97.7287 330.137 97.0611C329.785 96.3935 329.609 95.5852 329.609 94.6364C329.609 93.6847 329.788 92.875 330.146 92.2074C330.504 91.5398 330.99 91.0312 331.603 90.6818C332.217 90.3295 332.907 90.1534 333.674 90.1534C334.18 90.1534 334.649 90.2244 335.081 90.3665C335.515 90.5085 335.9 90.7159 336.235 90.9886C336.571 91.2585 336.843 91.5895 337.054 91.9815C337.267 92.3736 337.403 92.8224 337.463 93.3281ZM343.52 92.7827C343.486 92.4389 343.34 92.1719 343.081 91.9815C342.823 91.7912 342.472 91.696 342.029 91.696C341.728 91.696 341.473 91.7386 341.266 91.8239C341.059 91.9062 340.9 92.0213 340.789 92.169C340.681 92.3168 340.627 92.4844 340.627 92.6719C340.621 92.8281 340.654 92.9645 340.725 93.081C340.799 93.1974 340.9 93.2983 341.027 93.3835C341.155 93.4659 341.303 93.5384 341.471 93.6009C341.638 93.6605 341.817 93.7116 342.007 93.7543L342.792 93.9418C343.172 94.027 343.522 94.1406 343.84 94.2827C344.158 94.4247 344.434 94.5994 344.667 94.8068C344.9 95.0142 345.08 95.2585 345.208 95.5398C345.338 95.821 345.405 96.1435 345.408 96.5071C345.405 97.0412 345.269 97.5043 344.999 97.8963C344.732 98.2855 344.346 98.5881 343.84 98.804C343.337 99.017 342.73 99.1236 342.02 99.1236C341.316 99.1236 340.702 99.0156 340.179 98.7997C339.659 98.5838 339.253 98.2642 338.961 97.8409C338.671 97.4148 338.519 96.8878 338.505 96.2599H340.29C340.31 96.5526 340.394 96.7969 340.542 96.9929C340.692 97.1861 340.892 97.3324 341.142 97.4318C341.395 97.5284 341.681 97.5767 341.999 97.5767C342.311 97.5767 342.583 97.5312 342.813 97.4403C343.046 97.3494 343.226 97.223 343.354 97.0611C343.482 96.8991 343.546 96.7131 343.546 96.5028C343.546 96.3068 343.488 96.142 343.371 96.0085C343.257 95.875 343.09 95.7614 342.868 95.6676C342.65 95.5739 342.381 95.4886 342.063 95.4119L341.113 95.1733C340.377 94.9943 339.796 94.7145 339.37 94.3338C338.944 93.9531 338.732 93.4403 338.735 92.7955C338.732 92.267 338.873 91.8054 339.157 91.4105C339.444 91.0156 339.837 90.7074 340.337 90.4858C340.837 90.2642 341.405 90.1534 342.042 90.1534C342.689 90.1534 343.255 90.2642 343.738 90.4858C344.223 90.7074 344.601 91.0156 344.871 91.4105C345.141 91.8054 345.28 92.2628 345.289 92.7827H343.52ZM351.384 92.7827C351.349 92.4389 351.203 92.1719 350.945 91.9815C350.686 91.7912 350.335 91.696 349.892 91.696C349.591 91.696 349.337 91.7386 349.129 91.8239C348.922 91.9062 348.763 92.0213 348.652 92.169C348.544 92.3168 348.49 92.4844 348.49 92.6719C348.484 92.8281 348.517 92.9645 348.588 93.081C348.662 93.1974 348.763 93.2983 348.891 93.3835C349.018 93.4659 349.166 93.5384 349.334 93.6009C349.501 93.6605 349.68 93.7116 349.871 93.7543L350.655 93.9418C351.036 94.027 351.385 94.1406 351.703 94.2827C352.021 94.4247 352.297 94.5994 352.53 94.8068C352.763 95.0142 352.943 95.2585 353.071 95.5398C353.202 95.821 353.268 96.1435 353.271 96.5071C353.268 97.0412 353.132 97.5043 352.862 97.8963C352.595 98.2855 352.209 98.5881 351.703 98.804C351.2 99.017 350.594 99.1236 349.884 99.1236C349.179 99.1236 348.565 99.0156 348.043 98.7997C347.523 98.5838 347.116 98.2642 346.824 97.8409C346.534 97.4148 346.382 96.8878 346.368 96.2599H348.153C348.173 96.5526 348.257 96.7969 348.405 96.9929C348.555 97.1861 348.756 97.3324 349.006 97.4318C349.259 97.5284 349.544 97.5767 349.862 97.5767C350.175 97.5767 350.446 97.5312 350.676 97.4403C350.909 97.3494 351.089 97.223 351.217 97.0611C351.345 96.8991 351.409 96.7131 351.409 96.5028C351.409 96.3068 351.351 96.142 351.234 96.0085C351.121 95.875 350.953 95.7614 350.732 95.6676C350.513 95.5739 350.244 95.4886 349.926 95.4119L348.976 95.1733C348.24 94.9943 347.659 94.7145 347.233 94.3338C346.807 93.9531 346.595 93.4403 346.598 92.7955C346.595 92.267 346.736 91.8054 347.02 91.4105C347.307 91.0156 347.7 90.7074 348.2 90.4858C348.7 90.2642 349.268 90.1534 349.905 90.1534C350.553 90.1534 351.118 90.2642 351.601 90.4858C352.087 90.7074 352.464 91.0156 352.734 91.4105C353.004 91.8054 353.143 92.2628 353.152 92.7827H351.384Z" fill="white"/>
</g>
<defs>
<filter id="filter0_d_813_1618" x="0" y="0" width="508" height="143" filterUnits="userSpaceOnUse" color-interpolation-filters="sRGB">
<feFlood flood-opacity="0" result="BackgroundImageFix"/>
<feColorMatrix in="SourceAlpha" type="matrix" values="0 0 0 0 0 0 0 0 0 0 0 0 0 0 0 0 0 0 127 0" result="hardAlpha"/>
<feOffset dy="4"/>
<feGaussianBlur stdDeviation="2"/>
<feComposite in2="hardAlpha" operator="out"/>
<feColorMatrix type="matrix" values="0 0 0 0 0 0 0 0 0 0 0 0 0 0 0 0 0 0 0.25 0"/>
<feBlend mode="normal" in2="BackgroundImageFix" result="effect1_dropShadow_813_1618"/>
<feBlend mode="normal" in="SourceGraphic" in2="effect1_dropShadow_813_1618" result="shape"/>
</filter>
</defs>
</svg>
