<svg width="500" height="135" viewBox="0 0 500 135" fill="none" xmlns="http://www.w3.org/2000/svg">
<rect width="500" height="135" rx="35" fill="white"/>
<circle cx="75" cy="67" r="40" fill="#C4C4C4"/>
<rect x="57" y="72" width="36" height="20" rx="5" fill="white"/>
<circle cx="74.5" cy="55.5" r="12.5" fill="white"/>
<path d="M133.42 51H128.264V36.4545H133.463C134.926 36.4545 136.186 36.7457 137.241 37.3281C138.297 37.9058 139.109 38.7367 139.678 39.821C140.25 40.9053 140.537 42.2027 140.537 43.7131C140.537 45.2282 140.25 46.5303 139.678 47.6193C139.109 48.7083 138.293 49.544 137.227 50.1264C136.167 50.7088 134.898 51 133.42 51ZM131.339 48.3651H133.293C134.202 48.3651 134.966 48.2041 135.587 47.8821C136.212 47.5554 136.68 47.0511 136.993 46.3693C137.31 45.6828 137.469 44.7973 137.469 43.7131C137.469 42.6383 137.31 41.7599 136.993 41.0781C136.68 40.3963 136.214 39.8944 135.594 39.5724C134.973 39.2505 134.209 39.0895 133.3 39.0895H131.339V48.3651ZM145.869 51.206C145.173 51.206 144.553 51.0852 144.008 50.8438C143.464 50.5975 143.033 50.2353 142.716 49.7571C142.403 49.2741 142.247 48.6728 142.247 47.9531C142.247 47.3471 142.358 46.8381 142.581 46.4261C142.803 46.0142 143.106 45.6828 143.49 45.4318C143.873 45.1809 144.309 44.9915 144.797 44.8636C145.289 44.7358 145.805 44.6458 146.345 44.5938C146.979 44.5275 147.491 44.4659 147.879 44.4091C148.267 44.3475 148.549 44.2576 148.724 44.1392C148.899 44.0208 148.987 43.8456 148.987 43.6136V43.571C148.987 43.1212 148.845 42.7732 148.561 42.527C148.281 42.2808 147.884 42.1577 147.368 42.1577C146.823 42.1577 146.39 42.2784 146.068 42.5199C145.746 42.7566 145.533 43.0549 145.429 43.4148L142.63 43.1875C142.772 42.5246 143.052 41.9517 143.468 41.4688C143.885 40.9811 144.422 40.607 145.081 40.3466C145.743 40.0814 146.511 39.9489 147.382 39.9489C147.988 39.9489 148.568 40.0199 149.122 40.1619C149.681 40.304 150.175 40.5241 150.606 40.8224C151.042 41.1207 151.385 41.5043 151.636 41.973C151.887 42.437 152.012 42.9934 152.012 43.642V51H149.143V49.4872H149.058C148.883 49.8281 148.648 50.1288 148.355 50.3892C148.061 50.6449 147.708 50.8461 147.297 50.9929C146.885 51.1349 146.409 51.206 145.869 51.206ZM146.735 49.1179C147.181 49.1179 147.574 49.0303 147.914 48.8551C148.255 48.6752 148.523 48.4337 148.717 48.1307C148.911 47.8277 149.008 47.4844 149.008 47.1009V45.9432C148.913 46.0047 148.783 46.0616 148.618 46.1136C148.457 46.161 148.274 46.206 148.071 46.2486C147.867 46.2865 147.663 46.322 147.46 46.3551C147.256 46.3835 147.072 46.4096 146.906 46.4332C146.551 46.4853 146.241 46.5682 145.975 46.6818C145.71 46.7955 145.504 46.9493 145.358 47.1435C145.211 47.3329 145.137 47.5696 145.137 47.8537C145.137 48.2656 145.287 48.5805 145.585 48.7983C145.888 49.0114 146.271 49.1179 146.735 49.1179ZM164.14 40.0909L160.326 51H156.917L153.103 40.0909H156.299L158.564 47.8963H158.678L160.936 40.0909H164.14ZM165.688 51V40.0909H168.713V51H165.688ZM167.208 38.6847C166.758 38.6847 166.372 38.5355 166.05 38.2372C165.733 37.9342 165.574 37.572 165.574 37.1506C165.574 36.7339 165.733 36.3764 166.05 36.0781C166.372 35.7751 166.758 35.6236 167.208 35.6236C167.658 35.6236 168.041 35.7751 168.358 36.0781C168.68 36.3764 168.841 36.7339 168.841 37.1506C168.841 37.572 168.68 37.9342 168.358 38.2372C168.041 38.5355 167.658 38.6847 167.208 38.6847ZM175.157 51.1776C174.328 51.1776 173.578 50.9645 172.906 50.5384C172.238 50.1075 171.708 49.4754 171.315 48.642C170.926 47.804 170.732 46.7765 170.732 45.5597C170.732 44.3097 170.933 43.2704 171.336 42.4418C171.738 41.6084 172.273 40.9858 172.941 40.5739C173.613 40.1572 174.35 39.9489 175.15 39.9489C175.761 39.9489 176.27 40.053 176.677 40.2614C177.089 40.465 177.42 40.7206 177.671 41.0284C177.927 41.3314 178.121 41.6297 178.254 41.9233H178.346V36.4545H181.364V51H178.381V49.2528H178.254C178.112 49.5559 177.91 49.8565 177.65 50.1548C177.394 50.4484 177.06 50.6922 176.648 50.8864C176.241 51.0805 175.744 51.1776 175.157 51.1776ZM176.116 48.7699C176.603 48.7699 177.015 48.6373 177.352 48.3722C177.692 48.1023 177.953 47.7259 178.133 47.2429C178.317 46.7599 178.41 46.1941 178.41 45.5455C178.41 44.8968 178.32 44.3333 178.14 43.8551C177.96 43.3769 177.7 43.0076 177.359 42.7472C177.018 42.4867 176.603 42.3565 176.116 42.3565C175.619 42.3565 175.2 42.4915 174.859 42.7614C174.518 43.0312 174.26 43.4053 174.085 43.8835C173.909 44.3617 173.822 44.9157 173.822 45.5455C173.822 46.1799 173.909 46.741 174.085 47.2287C174.264 47.7116 174.522 48.0904 174.859 48.3651C175.2 48.6349 175.619 48.7699 176.116 48.7699ZM188.538 36.4545H192.33L196.336 46.2273H196.506L200.512 36.4545H204.305V51H201.322V41.5327H201.201L197.437 50.929H195.406L191.641 41.4972H191.521V51H188.538V36.4545ZM209.892 51.206C209.196 51.206 208.576 51.0852 208.032 50.8438C207.487 50.5975 207.056 50.2353 206.739 49.7571C206.426 49.2741 206.27 48.6728 206.27 47.9531C206.27 47.3471 206.382 46.8381 206.604 46.4261C206.827 46.0142 207.13 45.6828 207.513 45.4318C207.897 45.1809 208.332 44.9915 208.82 44.8636C209.312 44.7358 209.828 44.6458 210.368 44.5938C211.003 44.5275 211.514 44.4659 211.902 44.4091C212.291 44.3475 212.572 44.2576 212.748 44.1392C212.923 44.0208 213.01 43.8456 213.01 43.6136V43.571C213.01 43.1212 212.868 42.7732 212.584 42.527C212.305 42.2808 211.907 42.1577 211.391 42.1577C210.846 42.1577 210.413 42.2784 210.091 42.5199C209.769 42.7566 209.556 43.0549 209.452 43.4148L206.654 43.1875C206.796 42.5246 207.075 41.9517 207.492 41.4688C207.908 40.9811 208.446 40.607 209.104 40.3466C209.767 40.0814 210.534 39.9489 211.405 39.9489C212.011 39.9489 212.591 40.0199 213.145 40.1619C213.704 40.304 214.199 40.5241 214.63 40.8224C215.065 41.1207 215.408 41.5043 215.659 41.973C215.91 42.437 216.036 42.9934 216.036 43.642V51H213.167V49.4872H213.081C212.906 49.8281 212.672 50.1288 212.378 50.3892C212.085 50.6449 211.732 50.8461 211.32 50.9929C210.908 51.1349 210.432 51.206 209.892 51.206ZM210.759 49.1179C211.204 49.1179 211.597 49.0303 211.938 48.8551C212.279 48.6752 212.546 48.4337 212.74 48.1307C212.935 47.8277 213.032 47.4844 213.032 47.1009V45.9432C212.937 46.0047 212.807 46.0616 212.641 46.1136C212.48 46.161 212.298 46.206 212.094 46.2486C211.891 46.2865 211.687 46.322 211.483 46.3551C211.28 46.3835 211.095 46.4096 210.929 46.4332C210.574 46.4853 210.264 46.5682 209.999 46.6818C209.734 46.7955 209.528 46.9493 209.381 47.1435C209.234 47.3329 209.161 47.5696 209.161 47.8537C209.161 48.2656 209.31 48.5805 209.608 48.7983C209.911 49.0114 210.295 49.1179 210.759 49.1179ZM218.383 51V40.0909H221.316V41.9943H221.43C221.629 41.3172 221.963 40.8059 222.431 40.4602C222.9 40.1098 223.44 39.9347 224.051 39.9347C224.202 39.9347 224.366 39.9441 224.541 39.9631C224.716 39.982 224.87 40.008 225.002 40.0412V42.7259C224.86 42.6832 224.664 42.6454 224.413 42.6122C224.162 42.5791 223.932 42.5625 223.724 42.5625C223.279 42.5625 222.881 42.6596 222.531 42.8537C222.185 43.0431 221.911 43.3082 221.707 43.6491C221.508 43.9901 221.409 44.383 221.409 44.8281V51H218.383ZM232.916 40.0909V42.3636H226.347V40.0909H232.916ZM227.838 37.4773H230.864V47.6477C230.864 47.9271 230.906 48.1449 230.991 48.3011C231.077 48.4527 231.195 48.5592 231.347 48.6207C231.503 48.6823 231.683 48.7131 231.886 48.7131C232.028 48.7131 232.17 48.7012 232.312 48.6776C232.455 48.6491 232.563 48.6278 232.639 48.6136L233.115 50.8651C232.964 50.9124 232.75 50.9669 232.476 51.0284C232.201 51.0947 231.867 51.1349 231.474 51.1491C230.745 51.1776 230.106 51.0805 229.557 50.858C229.012 50.6354 228.589 50.2898 228.286 49.821C227.982 49.3523 227.833 48.7604 227.838 48.0455V37.4773ZM234.887 51V40.0909H237.913V51H234.887ZM236.407 38.6847C235.957 38.6847 235.571 38.5355 235.249 38.2372C234.932 37.9342 234.773 37.572 234.773 37.1506C234.773 36.7339 234.932 36.3764 235.249 36.0781C235.571 35.7751 235.957 35.6236 236.407 35.6236C236.857 35.6236 237.24 35.7751 237.558 36.0781C237.879 36.3764 238.04 36.7339 238.04 37.1506C238.04 37.572 237.879 37.9342 237.558 38.2372C237.24 38.5355 236.857 38.6847 236.407 38.6847ZM243.362 44.6932V51H240.336V40.0909H243.22V42.0156H243.348C243.589 41.3812 243.994 40.8793 244.562 40.5099C245.13 40.1359 245.819 39.9489 246.629 39.9489C247.386 39.9489 248.047 40.1146 248.61 40.446C249.174 40.7775 249.612 41.2509 249.924 41.8665C250.237 42.4773 250.393 43.2064 250.393 44.054V51H247.368V44.5938C247.372 43.9261 247.202 43.4053 246.856 43.0312C246.511 42.6525 246.035 42.4631 245.429 42.4631C245.021 42.4631 244.662 42.5507 244.349 42.7259C244.041 42.901 243.8 43.1567 243.625 43.4929C243.454 43.8243 243.367 44.2244 243.362 44.6932Z" fill="black"/>
<path d="M134.324 63.7102C134.278 63.2519 134.083 62.8958 133.739 62.642C133.394 62.3883 132.926 62.2614 132.335 62.2614C131.934 62.2614 131.595 62.3182 131.318 62.4318C131.042 62.5417 130.83 62.6951 130.682 62.892C130.538 63.089 130.466 63.3125 130.466 63.5625C130.458 63.7708 130.502 63.9527 130.597 64.108C130.695 64.2633 130.83 64.3977 131 64.5114C131.17 64.6212 131.367 64.7178 131.591 64.8011C131.814 64.8807 132.053 64.9489 132.307 65.0057L133.352 65.2557C133.86 65.3693 134.326 65.5208 134.75 65.7102C135.174 65.8996 135.542 66.1326 135.852 66.4091C136.163 66.6856 136.403 67.0114 136.574 67.3864C136.748 67.7614 136.837 68.1913 136.841 68.6761C136.837 69.3883 136.655 70.0057 136.295 70.5284C135.939 71.0473 135.424 71.4508 134.75 71.7386C134.08 72.0227 133.271 72.1648 132.324 72.1648C131.384 72.1648 130.566 72.0208 129.869 71.733C129.176 71.4451 128.634 71.0189 128.244 70.4545C127.858 69.8864 127.655 69.1837 127.636 68.3466H130.017C130.044 68.7367 130.155 69.0625 130.352 69.3239C130.553 69.5814 130.82 69.7765 131.153 69.9091C131.491 70.0379 131.871 70.1023 132.295 70.1023C132.712 70.1023 133.074 70.0417 133.381 69.9205C133.691 69.7992 133.932 69.6307 134.102 69.4148C134.273 69.1989 134.358 68.9508 134.358 68.6705C134.358 68.4091 134.28 68.1894 134.125 68.0114C133.973 67.8333 133.75 67.6818 133.455 67.5568C133.163 67.4318 132.805 67.3182 132.381 67.2159L131.114 66.8977C130.133 66.6591 129.358 66.286 128.79 65.7784C128.222 65.2708 127.939 64.5871 127.943 63.7273C127.939 63.0227 128.127 62.4072 128.506 61.8807C128.888 61.3542 129.413 60.9432 130.08 60.6477C130.746 60.3523 131.504 60.2045 132.352 60.2045C133.216 60.2045 133.97 60.3523 134.614 60.6477C135.261 60.9432 135.765 61.3542 136.125 61.8807C136.485 62.4072 136.67 63.017 136.682 63.7102H134.324ZM142.393 72.1705C141.511 72.1705 140.748 71.983 140.104 71.608C139.464 71.2292 138.969 70.7027 138.621 70.0284C138.272 69.3504 138.098 68.5644 138.098 67.6705C138.098 66.7689 138.272 65.9811 138.621 65.3068C138.969 64.6288 139.464 64.1023 140.104 63.7273C140.748 63.3485 141.511 63.1591 142.393 63.1591C143.276 63.1591 144.037 63.3485 144.678 63.7273C145.321 64.1023 145.818 64.6288 146.166 65.3068C146.515 65.9811 146.689 66.7689 146.689 67.6705C146.689 68.5644 146.515 69.3504 146.166 70.0284C145.818 70.7027 145.321 71.2292 144.678 71.608C144.037 71.983 143.276 72.1705 142.393 72.1705ZM142.405 70.2955C142.806 70.2955 143.142 70.1818 143.411 69.9545C143.679 69.7235 143.882 69.4091 144.018 69.0114C144.159 68.6136 144.229 68.161 144.229 67.6534C144.229 67.1458 144.159 66.6932 144.018 66.2955C143.882 65.8977 143.679 65.5833 143.411 65.3523C143.142 65.1212 142.806 65.0057 142.405 65.0057C142 65.0057 141.659 65.1212 141.382 65.3523C141.109 65.5833 140.903 65.8977 140.763 66.2955C140.626 66.6932 140.558 67.1458 140.558 67.6534C140.558 68.161 140.626 68.6136 140.763 69.0114C140.903 69.4091 141.109 69.7235 141.382 69.9545C141.659 70.1818 142 70.2955 142.405 70.2955ZM152.956 63.2727V65.0909H147.57V63.2727H152.956ZM148.803 72V62.642C148.803 62.0095 148.926 61.4848 149.172 61.0682C149.422 60.6515 149.763 60.339 150.195 60.1307C150.626 59.9223 151.117 59.8182 151.666 59.8182C152.037 59.8182 152.376 59.8466 152.683 59.9034C152.994 59.9602 153.225 60.0114 153.376 60.0568L152.945 61.875C152.85 61.8447 152.732 61.8163 152.592 61.7898C152.456 61.7633 152.316 61.75 152.172 61.75C151.816 61.75 151.568 61.8333 151.428 62C151.287 62.1629 151.217 62.392 151.217 62.6875V72H148.803ZM159.077 63.2727V65.0909H153.821V63.2727H159.077ZM155.014 61.1818H157.435V69.3182C157.435 69.5417 157.469 69.7159 157.537 69.8409C157.605 69.9621 157.7 70.0473 157.821 70.0966C157.946 70.1458 158.09 70.1705 158.253 70.1705C158.366 70.1705 158.48 70.161 158.594 70.142C158.707 70.1193 158.795 70.1023 158.855 70.0909L159.236 71.892C159.115 71.9299 158.944 71.9735 158.724 72.0227C158.505 72.0758 158.238 72.108 157.923 72.1193C157.34 72.142 156.829 72.0644 156.389 71.8864C155.954 71.7083 155.615 71.4318 155.372 71.0568C155.13 70.6818 155.01 70.2083 155.014 69.6364V61.1818ZM162.375 72L160 63.2727H162.449L163.801 69.1364H163.881L165.29 63.2727H167.693L169.125 69.1023H169.199L170.528 63.2727H172.972L170.602 72H168.04L166.54 66.5114H166.432L164.932 72H162.375ZM176.751 72.1648C176.195 72.1648 175.698 72.0682 175.263 71.875C174.827 71.678 174.482 71.3883 174.229 71.0057C173.979 70.6193 173.854 70.1383 173.854 69.5625C173.854 69.0777 173.943 68.6705 174.121 68.3409C174.299 68.0114 174.541 67.7462 174.848 67.5455C175.155 67.3447 175.503 67.1932 175.893 67.0909C176.287 66.9886 176.7 66.9167 177.132 66.875C177.64 66.822 178.049 66.7727 178.359 66.7273C178.67 66.678 178.895 66.6061 179.036 66.5114C179.176 66.4167 179.246 66.2765 179.246 66.0909V66.0568C179.246 65.697 179.132 65.4186 178.905 65.2216C178.681 65.0246 178.363 64.9261 177.95 64.9261C177.515 64.9261 177.168 65.0227 176.911 65.2159C176.653 65.4053 176.482 65.6439 176.399 65.9318L174.161 65.75C174.274 65.2197 174.498 64.7614 174.831 64.375C175.164 63.9848 175.594 63.6856 176.121 63.4773C176.651 63.2652 177.265 63.1591 177.962 63.1591C178.446 63.1591 178.911 63.2159 179.354 63.3295C179.801 63.4432 180.196 63.6193 180.541 63.858C180.89 64.0966 181.164 64.4034 181.365 64.7784C181.566 65.1496 181.666 65.5947 181.666 66.1136V72H179.371V70.7898H179.303C179.162 71.0625 178.975 71.303 178.74 71.5114C178.505 71.7159 178.223 71.8769 177.893 71.9943C177.564 72.108 177.183 72.1648 176.751 72.1648ZM177.445 70.4943C177.801 70.4943 178.115 70.4242 178.388 70.2841C178.661 70.1402 178.875 69.947 179.03 69.7045C179.185 69.4621 179.263 69.1875 179.263 68.8807V67.9545C179.187 68.0038 179.083 68.0492 178.95 68.0909C178.821 68.1288 178.676 68.1648 178.513 68.1989C178.35 68.2292 178.187 68.2576 178.024 68.2841C177.861 68.3068 177.714 68.3277 177.581 68.3466C177.297 68.3883 177.049 68.4545 176.837 68.5455C176.625 68.6364 176.46 68.7595 176.342 68.9148C176.225 69.0663 176.166 69.2557 176.166 69.483C176.166 69.8125 176.286 70.0644 176.524 70.2386C176.767 70.4091 177.073 70.4943 177.445 70.4943ZM183.544 72V63.2727H185.891V64.7955H185.982C186.141 64.2538 186.408 63.8447 186.783 63.5682C187.158 63.2879 187.589 63.1477 188.078 63.1477C188.199 63.1477 188.33 63.1553 188.47 63.1705C188.61 63.1856 188.733 63.2064 188.839 63.233V65.3807C188.726 65.3466 188.569 65.3163 188.368 65.2898C188.167 65.2633 187.983 65.25 187.817 65.25C187.461 65.25 187.143 65.3277 186.862 65.483C186.586 65.6345 186.366 65.8466 186.203 66.1193C186.044 66.392 185.964 66.7064 185.964 67.0625V72H183.544ZM193.662 72.1705C192.764 72.1705 191.991 71.9886 191.344 71.625C190.7 71.2576 190.204 70.7386 189.855 70.0682C189.507 69.3939 189.332 68.5966 189.332 67.6761C189.332 66.7784 189.507 65.9905 189.855 65.3125C190.204 64.6345 190.694 64.1061 191.327 63.7273C191.963 63.3485 192.709 63.1591 193.565 63.1591C194.141 63.1591 194.677 63.2519 195.173 63.4375C195.673 63.6193 196.109 63.8939 196.48 64.2614C196.855 64.6288 197.147 65.0909 197.355 65.6477C197.563 66.2008 197.668 66.8485 197.668 67.5909V68.2557H190.298V66.7557H195.389C195.389 66.4072 195.313 66.0985 195.162 65.8295C195.01 65.5606 194.8 65.3504 194.531 65.1989C194.266 65.0436 193.957 64.9659 193.605 64.9659C193.238 64.9659 192.912 65.0511 192.628 65.2216C192.348 65.3883 192.128 65.6136 191.969 65.8977C191.81 66.178 191.728 66.4905 191.724 66.8352V68.2614C191.724 68.6932 191.804 69.0663 191.963 69.3807C192.126 69.6951 192.355 69.9375 192.651 70.108C192.946 70.2784 193.296 70.3636 193.702 70.3636C193.971 70.3636 194.217 70.3258 194.44 70.25C194.664 70.1742 194.855 70.0606 195.014 69.9091C195.173 69.7576 195.295 69.572 195.378 69.3523L197.616 69.5C197.503 70.0379 197.27 70.5076 196.918 70.9091C196.569 71.3068 196.118 71.6174 195.565 71.8409C195.016 72.0606 194.382 72.1705 193.662 72.1705ZM202.996 72V60.3636H210.837V62.392H205.456V65.1648H210.433V67.1932H205.456V69.9716H210.859V72H202.996ZM215.168 66.9545V72H212.747V63.2727H215.054V64.8125H215.156C215.349 64.3049 215.673 63.9034 216.128 63.608C216.582 63.3087 217.134 63.1591 217.781 63.1591C218.387 63.1591 218.916 63.2917 219.366 63.5568C219.817 63.822 220.168 64.2008 220.418 64.6932C220.668 65.1818 220.793 65.7652 220.793 66.4432V72H218.372V66.875C218.376 66.3409 218.24 65.9242 217.963 65.625C217.687 65.322 217.306 65.1705 216.821 65.1705C216.495 65.1705 216.207 65.2405 215.957 65.3807C215.711 65.5208 215.518 65.7254 215.378 65.9943C215.241 66.2595 215.171 66.5795 215.168 66.9545ZM226.632 75.4545C225.848 75.4545 225.176 75.3466 224.615 75.1307C224.058 74.9186 223.615 74.6288 223.286 74.2614C222.956 73.8939 222.742 73.4811 222.643 73.0227L224.882 72.7216C224.95 72.8958 225.058 73.0587 225.206 73.2102C225.354 73.3617 225.549 73.483 225.791 73.5739C226.037 73.6686 226.337 73.7159 226.689 73.7159C227.215 73.7159 227.649 73.5871 227.99 73.3295C228.335 73.0758 228.507 72.6496 228.507 72.0511V70.4545H228.405C228.299 70.697 228.14 70.9261 227.928 71.142C227.715 71.358 227.443 71.5341 227.109 71.6705C226.776 71.8068 226.378 71.875 225.916 71.875C225.261 71.875 224.664 71.7235 224.126 71.4205C223.592 71.1136 223.166 70.6458 222.848 70.017C222.534 69.3845 222.376 68.5852 222.376 67.6193C222.376 66.6307 222.537 65.8049 222.859 65.142C223.181 64.4792 223.609 63.983 224.143 63.6534C224.681 63.3239 225.27 63.1591 225.911 63.1591C226.399 63.1591 226.808 63.2424 227.138 63.4091C227.467 63.572 227.732 63.7765 227.933 64.0227C228.138 64.2652 228.295 64.5038 228.405 64.7386H228.496V63.2727H230.899V72.0852C230.899 72.8277 230.717 73.4489 230.354 73.9489C229.99 74.4489 229.486 74.8239 228.842 75.0739C228.202 75.3277 227.465 75.4545 226.632 75.4545ZM226.683 70.0568C227.073 70.0568 227.403 69.9602 227.672 69.767C227.945 69.5701 228.153 69.2898 228.297 68.9261C228.445 68.5587 228.518 68.1193 228.518 67.608C228.518 67.0966 228.446 66.6534 228.303 66.2784C228.159 65.8996 227.95 65.6061 227.678 65.3977C227.405 65.1894 227.073 65.0852 226.683 65.0852C226.286 65.0852 225.95 65.1932 225.678 65.4091C225.405 65.6212 225.198 65.9167 225.058 66.2955C224.918 66.6742 224.848 67.1117 224.848 67.608C224.848 68.1117 224.918 68.5473 225.058 68.9148C225.202 69.2784 225.409 69.5606 225.678 69.7614C225.95 69.9583 226.286 70.0568 226.683 70.0568ZM232.825 72V63.2727H235.246V72H232.825ZM234.041 62.1477C233.681 62.1477 233.373 62.0284 233.115 61.7898C232.861 61.5473 232.734 61.2576 232.734 60.9205C232.734 60.5871 232.861 60.3011 233.115 60.0625C233.373 59.8201 233.681 59.6989 234.041 59.6989C234.401 59.6989 234.708 59.8201 234.962 60.0625C235.219 60.3011 235.348 60.5871 235.348 60.9205C235.348 61.2576 235.219 61.5473 234.962 61.7898C234.708 62.0284 234.401 62.1477 234.041 62.1477ZM239.605 66.9545V72H237.185V63.2727H239.491V64.8125H239.594C239.787 64.3049 240.111 63.9034 240.565 63.608C241.02 63.3087 241.571 63.1591 242.219 63.1591C242.825 63.1591 243.353 63.2917 243.804 63.5568C244.255 63.822 244.605 64.2008 244.855 64.6932C245.105 65.1818 245.23 65.7652 245.23 66.4432V72H242.81V66.875C242.813 66.3409 242.677 65.9242 242.401 65.625C242.124 65.322 241.743 65.1705 241.259 65.1705C240.933 65.1705 240.645 65.2405 240.395 65.3807C240.149 65.5208 239.955 65.7254 239.815 65.9943C239.679 66.2595 239.609 66.5795 239.605 66.9545ZM251.115 72.1705C250.217 72.1705 249.445 71.9886 248.797 71.625C248.153 71.2576 247.657 70.7386 247.308 70.0682C246.96 69.3939 246.786 68.5966 246.786 67.6761C246.786 66.7784 246.96 65.9905 247.308 65.3125C247.657 64.6345 248.147 64.1061 248.78 63.7273C249.416 63.3485 250.162 63.1591 251.018 63.1591C251.594 63.1591 252.13 63.2519 252.626 63.4375C253.126 63.6193 253.562 63.8939 253.933 64.2614C254.308 64.6288 254.6 65.0909 254.808 65.6477C255.017 66.2008 255.121 66.8485 255.121 67.5909V68.2557H247.751V66.7557H252.842C252.842 66.4072 252.767 66.0985 252.615 65.8295C252.464 65.5606 252.253 65.3504 251.984 65.1989C251.719 65.0436 251.411 64.9659 251.058 64.9659C250.691 64.9659 250.365 65.0511 250.081 65.2216C249.801 65.3883 249.581 65.6136 249.422 65.8977C249.263 66.178 249.181 66.4905 249.178 66.8352V68.2614C249.178 68.6932 249.257 69.0663 249.416 69.3807C249.579 69.6951 249.808 69.9375 250.104 70.108C250.399 70.2784 250.75 70.3636 251.155 70.3636C251.424 70.3636 251.67 70.3258 251.893 70.25C252.117 70.1742 252.308 70.0606 252.467 69.9091C252.626 69.7576 252.748 69.572 252.831 69.3523L255.07 69.5C254.956 70.0379 254.723 70.5076 254.371 70.9091C254.022 71.3068 253.571 71.6174 253.018 71.8409C252.469 72.0606 251.835 72.1705 251.115 72.1705ZM260.678 72.1705C259.78 72.1705 259.007 71.9886 258.359 71.625C257.715 71.2576 257.219 70.7386 256.871 70.0682C256.522 69.3939 256.348 68.5966 256.348 67.6761C256.348 66.7784 256.522 65.9905 256.871 65.3125C257.219 64.6345 257.71 64.1061 258.342 63.7273C258.979 63.3485 259.725 63.1591 260.581 63.1591C261.157 63.1591 261.693 63.2519 262.189 63.4375C262.689 63.6193 263.125 63.8939 263.496 64.2614C263.871 64.6288 264.162 65.0909 264.371 65.6477C264.579 66.2008 264.683 66.8485 264.683 67.5909V68.2557H257.314V66.7557H262.405C262.405 66.4072 262.329 66.0985 262.178 65.8295C262.026 65.5606 261.816 65.3504 261.547 65.1989C261.282 65.0436 260.973 64.9659 260.621 64.9659C260.253 64.9659 259.928 65.0511 259.643 65.2216C259.363 65.3883 259.143 65.6136 258.984 65.8977C258.825 66.178 258.744 66.4905 258.74 66.8352V68.2614C258.74 68.6932 258.82 69.0663 258.979 69.3807C259.142 69.6951 259.371 69.9375 259.666 70.108C259.962 70.2784 260.312 70.3636 260.717 70.3636C260.986 70.3636 261.232 70.3258 261.456 70.25C261.679 70.1742 261.871 70.0606 262.03 69.9091C262.189 69.7576 262.31 69.572 262.393 69.3523L264.632 69.5C264.518 70.0379 264.286 70.5076 263.933 70.9091C263.585 71.3068 263.134 71.6174 262.581 71.8409C262.032 72.0606 261.397 72.1705 260.678 72.1705ZM266.263 72V63.2727H268.609V64.7955H268.7C268.859 64.2538 269.126 63.8447 269.501 63.5682C269.876 63.2879 270.308 63.1477 270.797 63.1477C270.918 63.1477 271.049 63.1553 271.189 63.1705C271.329 63.1856 271.452 63.2064 271.558 63.233V65.3807C271.445 65.3466 271.287 65.3163 271.087 65.2898C270.886 65.2633 270.702 65.25 270.536 65.25C270.179 65.25 269.861 65.3277 269.581 65.483C269.304 65.6345 269.085 65.8466 268.922 66.1193C268.763 66.392 268.683 66.7064 268.683 67.0625V72H266.263Z" fill="#092AD0"/>
<rect x="127.5" y="82.5" width="59" height="24" rx="4.5" fill="#092AD0" fill-opacity="0.56" stroke="#092AD0"/>
<path d="M138.031 99L139.463 90.2727H140.827L139.395 99H138.031ZM134.124 96.8352L134.349 95.4716H141.168L140.942 96.8352H134.124ZM134.963 99L136.395 90.2727H137.759L136.327 99H134.963ZM134.622 93.8011L134.852 92.4375H141.67L141.44 93.8011H134.622ZM145.329 99V90.2727H148.772C149.431 90.2727 149.994 90.3906 150.46 90.6264C150.928 90.8594 151.285 91.1903 151.529 91.6193C151.776 92.0455 151.9 92.5469 151.9 93.1236C151.9 93.7031 151.775 94.2017 151.525 94.6193C151.275 95.0341 150.913 95.3523 150.438 95.5739C149.967 95.7955 149.396 95.9062 148.725 95.9062H146.42V94.4233H148.427C148.779 94.4233 149.072 94.375 149.305 94.2784C149.538 94.1818 149.711 94.0369 149.825 93.8438C149.941 93.6506 149.999 93.4105 149.999 93.1236C149.999 92.8338 149.941 92.5895 149.825 92.3906C149.711 92.1918 149.536 92.0412 149.3 91.9389C149.067 91.8338 148.773 91.7812 148.418 91.7812H147.174V99H145.329ZM150.042 95.0284L152.211 99H150.174L148.052 95.0284H150.042ZM156.047 99.1278C155.374 99.1278 154.794 98.9915 154.309 98.7188C153.826 98.4432 153.453 98.054 153.192 97.5511C152.931 97.0455 152.8 96.4474 152.8 95.7571C152.8 95.0838 152.931 94.4929 153.192 93.9844C153.453 93.4759 153.821 93.0795 154.296 92.7955C154.773 92.5114 155.333 92.3693 155.975 92.3693C156.407 92.3693 156.809 92.4389 157.181 92.5781C157.556 92.7145 157.882 92.9205 158.161 93.196C158.442 93.4716 158.661 93.8182 158.817 94.2358C158.973 94.6506 159.051 95.1364 159.051 95.6932V96.1918H153.525V95.0668H157.343C157.343 94.8054 157.286 94.5739 157.172 94.3722C157.059 94.1705 156.901 94.0128 156.699 93.8991C156.5 93.7827 156.269 93.7244 156.005 93.7244C155.729 93.7244 155.485 93.7884 155.272 93.9162C155.061 94.0412 154.897 94.2102 154.777 94.4233C154.658 94.6335 154.597 94.8679 154.594 95.1264V96.196C154.594 96.5199 154.654 96.7997 154.773 97.0355C154.895 97.2713 155.067 97.4531 155.289 97.581C155.51 97.7088 155.773 97.7727 156.077 97.7727C156.279 97.7727 156.463 97.7443 156.631 97.6875C156.799 97.6307 156.942 97.5455 157.061 97.4318C157.181 97.3182 157.272 97.179 157.334 97.0142L159.013 97.125C158.928 97.5284 158.753 97.8807 158.489 98.1818C158.228 98.4801 157.89 98.7131 157.475 98.8807C157.063 99.0455 156.587 99.1278 156.047 99.1278ZM162.103 99.1236C161.685 99.1236 161.313 99.0511 160.986 98.9062C160.659 98.7585 160.401 98.5412 160.211 98.2543C160.023 97.9645 159.929 97.6037 159.929 97.1719C159.929 96.8082 159.996 96.5028 160.13 96.2557C160.263 96.0085 160.445 95.8097 160.675 95.6591C160.905 95.5085 161.167 95.3949 161.459 95.3182C161.755 95.2415 162.064 95.1875 162.388 95.1562C162.769 95.1165 163.076 95.0795 163.309 95.0455C163.542 95.0085 163.711 94.9545 163.816 94.8835C163.921 94.8125 163.973 94.7074 163.973 94.5682V94.5426C163.973 94.2727 163.888 94.0639 163.718 93.9162C163.55 93.7685 163.311 93.6946 163.002 93.6946C162.675 93.6946 162.415 93.767 162.222 93.9119C162.029 94.054 161.901 94.233 161.838 94.4489L160.159 94.3125C160.245 93.9148 160.412 93.571 160.662 93.2812C160.912 92.9886 161.235 92.7642 161.63 92.608C162.027 92.4489 162.488 92.3693 163.01 92.3693C163.374 92.3693 163.722 92.4119 164.054 92.4972C164.39 92.5824 164.686 92.7145 164.945 92.8935C165.206 93.0724 165.412 93.3026 165.563 93.5838C165.713 93.8622 165.789 94.196 165.789 94.5852V99H164.067V98.0923H164.016C163.911 98.2969 163.77 98.4773 163.594 98.6335C163.418 98.7869 163.206 98.9077 162.959 98.9957C162.712 99.081 162.426 99.1236 162.103 99.1236ZM162.623 97.8707C162.89 97.8707 163.125 97.8182 163.33 97.7131C163.534 97.6051 163.695 97.4602 163.811 97.2784C163.928 97.0966 163.986 96.8906 163.986 96.6605V95.9659C163.929 96.0028 163.851 96.0369 163.752 96.0682C163.655 96.0966 163.546 96.1236 163.424 96.1491C163.301 96.1719 163.179 96.1932 163.057 96.2131C162.935 96.2301 162.824 96.2457 162.725 96.2599C162.512 96.2912 162.326 96.3409 162.167 96.4091C162.007 96.4773 161.884 96.5696 161.796 96.6861C161.708 96.7997 161.664 96.9418 161.664 97.1122C161.664 97.3594 161.753 97.5483 161.932 97.679C162.114 97.8068 162.344 97.8707 162.623 97.8707ZM170.154 99.1278C169.484 99.1278 168.907 98.9858 168.424 98.7017C167.944 98.4148 167.575 98.017 167.316 97.5085C167.061 97 166.933 96.4148 166.933 95.7528C166.933 95.0824 167.062 94.4943 167.321 93.9886C167.582 93.4801 167.953 93.0838 168.433 92.7997C168.913 92.5128 169.484 92.3693 170.146 92.3693C170.717 92.3693 171.217 92.473 171.646 92.6804C172.075 92.8878 172.414 93.179 172.664 93.554C172.914 93.929 173.052 94.3693 173.078 94.875H171.365C171.316 94.5483 171.189 94.2855 170.981 94.0866C170.777 93.8849 170.508 93.7841 170.176 93.7841C169.895 93.7841 169.649 93.8608 169.439 94.0142C169.231 94.1648 169.069 94.3849 168.953 94.6747C168.836 94.9645 168.778 95.3153 168.778 95.7273C168.778 96.1449 168.835 96.5 168.949 96.7926C169.065 97.0852 169.228 97.3082 169.439 97.4616C169.649 97.6151 169.895 97.6918 170.176 97.6918C170.383 97.6918 170.569 97.6491 170.734 97.5639C170.902 97.4787 171.039 97.3551 171.147 97.1932C171.258 97.0284 171.331 96.831 171.365 96.6009H173.078C173.049 97.1009 172.913 97.5412 172.669 97.9219C172.427 98.2997 172.093 98.5952 171.667 98.8082C171.241 99.0213 170.737 99.1278 170.154 99.1278ZM177.722 92.4545V93.8182H173.78V92.4545H177.722ZM174.675 90.8864H176.49V96.9886C176.49 97.1562 176.516 97.2869 176.567 97.3807C176.618 97.4716 176.689 97.5355 176.78 97.5724C176.874 97.6094 176.982 97.6278 177.104 97.6278C177.189 97.6278 177.274 97.6207 177.359 97.6065C177.445 97.5895 177.51 97.5767 177.555 97.5682L177.841 98.919C177.75 98.9474 177.622 98.9801 177.457 99.017C177.293 99.0568 177.092 99.081 176.857 99.0895C176.419 99.1065 176.036 99.0483 175.706 98.9148C175.379 98.7812 175.125 98.5739 174.943 98.2926C174.761 98.0114 174.672 97.6562 174.675 97.2273V90.8864Z" fill="white"/>
<rect x="196.5" y="82.5" width="94" height="24" rx="4.5" fill="#092AD0" fill-opacity="0.56" stroke="#092AD0"/>
<path d="M210.031 99L211.463 90.2727H212.827L211.395 99H210.031ZM206.124 96.8352L206.349 95.4716H213.168L212.942 96.8352H206.124ZM206.963 99L208.395 90.2727H209.759L208.327 99H206.963ZM206.622 93.8011L206.852 92.4375H213.67L213.44 93.8011H206.622ZM216.996 91.794V90.2727H224.164V91.794H221.492V99H219.668V91.794H216.996ZM225.681 101.455C225.451 101.455 225.235 101.436 225.033 101.399C224.835 101.365 224.67 101.321 224.539 101.267L224.948 99.9119C225.161 99.9773 225.353 100.013 225.523 100.018C225.697 100.024 225.846 99.9844 225.971 99.8991C226.099 99.8139 226.202 99.669 226.282 99.4645L226.388 99.1875L224.04 92.4545H225.95L227.305 97.2614H227.373L228.741 92.4545H230.663L228.119 99.7074C227.996 100.06 227.83 100.366 227.62 100.628C227.413 100.892 227.15 101.095 226.832 101.237C226.513 101.382 226.13 101.455 225.681 101.455ZM231.592 101.455V92.4545H233.381V93.554H233.462C233.542 93.3778 233.657 93.1989 233.808 93.017C233.961 92.8324 234.16 92.679 234.404 92.5568C234.651 92.4318 234.958 92.3693 235.325 92.3693C235.802 92.3693 236.242 92.4943 236.646 92.7443C237.049 92.9915 237.371 93.3651 237.613 93.8651C237.854 94.3622 237.975 94.9858 237.975 95.7358C237.975 96.4659 237.857 97.0824 237.621 97.5852C237.388 98.0852 237.07 98.4645 236.667 98.723C236.266 98.9787 235.817 99.1065 235.32 99.1065C234.968 99.1065 234.668 99.0483 234.421 98.9318C234.177 98.8153 233.977 98.669 233.82 98.4929C233.664 98.3139 233.545 98.1335 233.462 97.9517H233.407V101.455H231.592ZM233.369 95.7273C233.369 96.1165 233.423 96.456 233.531 96.7457C233.638 97.0355 233.795 97.2614 233.999 97.4233C234.204 97.5824 234.452 97.6619 234.745 97.6619C235.04 97.6619 235.29 97.581 235.495 97.419C235.7 97.2543 235.854 97.027 235.96 96.7372C236.067 96.4446 236.121 96.108 236.121 95.7273C236.121 95.3494 236.069 95.017 235.964 94.7301C235.859 94.4432 235.704 94.2187 235.499 94.0568C235.295 93.8949 235.043 93.8139 234.745 93.8139C234.45 93.8139 234.2 93.892 233.995 94.0483C233.793 94.2045 233.638 94.4261 233.531 94.7131C233.423 95 233.369 95.3381 233.369 95.7273ZM242.168 99.1278C241.495 99.1278 240.915 98.9915 240.43 98.7188C239.947 98.4432 239.575 98.054 239.313 97.5511C239.052 97.0455 238.921 96.4474 238.921 95.7571C238.921 95.0838 239.052 94.4929 239.313 93.9844C239.575 93.4759 239.942 93.0795 240.417 92.7955C240.894 92.5114 241.454 92.3693 242.096 92.3693C242.528 92.3693 242.93 92.4389 243.302 92.5781C243.677 92.7145 244.004 92.9205 244.282 93.196C244.563 93.4716 244.782 93.8182 244.938 94.2358C245.094 94.6506 245.173 95.1364 245.173 95.6932V96.1918H239.646V95.0668H243.464C243.464 94.8054 243.407 94.5739 243.293 94.3722C243.18 94.1705 243.022 94.0128 242.82 93.8991C242.621 93.7827 242.39 93.7244 242.126 93.7244C241.85 93.7244 241.606 93.7884 241.393 93.9162C241.183 94.0412 241.018 94.2102 240.898 94.4233C240.779 94.6335 240.718 94.8679 240.715 95.1264V96.196C240.715 96.5199 240.775 96.7997 240.894 97.0355C241.016 97.2713 241.188 97.4531 241.41 97.581C241.631 97.7088 241.894 97.7727 242.198 97.7727C242.4 97.7727 242.585 97.7443 242.752 97.6875C242.92 97.6307 243.063 97.5455 243.183 97.4318C243.302 97.3182 243.393 97.179 243.455 97.0142L245.134 97.125C245.049 97.5284 244.874 97.8807 244.61 98.1818C244.349 98.4801 244.011 98.7131 243.596 98.8807C243.184 99.0455 242.708 99.1278 242.168 99.1278ZM251.803 94.321L250.141 94.4233C250.113 94.2812 250.052 94.1534 249.958 94.0398C249.864 93.9233 249.741 93.831 249.587 93.7628C249.437 93.6918 249.256 93.6562 249.046 93.6562C248.765 93.6562 248.528 93.7159 248.335 93.8352C248.141 93.9517 248.045 94.108 248.045 94.304C248.045 94.4602 248.107 94.5923 248.232 94.7003C248.357 94.8082 248.572 94.8949 248.876 94.9602L250.06 95.1989C250.697 95.3295 251.171 95.5398 251.484 95.8295C251.796 96.1193 251.952 96.5 251.952 96.9716C251.952 97.4006 251.826 97.777 251.573 98.1009C251.323 98.4247 250.979 98.6776 250.542 98.8594C250.107 99.0384 249.606 99.1278 249.038 99.1278C248.171 99.1278 247.481 98.9474 246.967 98.5866C246.455 98.223 246.156 97.7287 246.067 97.1037L247.853 97.0099C247.907 97.2741 248.038 97.4759 248.245 97.6151C248.452 97.7514 248.718 97.8196 249.042 97.8196C249.36 97.8196 249.616 97.7585 249.809 97.6364C250.005 97.5114 250.104 97.3509 250.107 97.1548C250.104 96.9901 250.035 96.8551 249.898 96.75C249.762 96.642 249.552 96.5597 249.268 96.5028L248.134 96.277C247.495 96.1491 247.019 95.9276 246.707 95.6122C246.397 95.2969 246.242 94.8949 246.242 94.4062C246.242 93.9858 246.356 93.6236 246.583 93.3196C246.813 93.0156 247.136 92.7812 247.55 92.6165C247.968 92.4517 248.457 92.3693 249.016 92.3693C249.843 92.3693 250.494 92.544 250.968 92.8935C251.445 93.2429 251.724 93.7187 251.803 94.321ZM256.053 99.1278C255.382 99.1278 254.806 98.9858 254.323 98.7017C253.843 98.4148 253.473 98.017 253.215 97.5085C252.959 97 252.831 96.4148 252.831 95.7528C252.831 95.0824 252.961 94.4943 253.219 93.9886C253.48 93.4801 253.851 93.0838 254.331 92.7997C254.811 92.5128 255.382 92.3693 256.044 92.3693C256.615 92.3693 257.115 92.473 257.544 92.6804C257.973 92.8878 258.313 93.179 258.563 93.554C258.813 93.929 258.951 94.3693 258.976 94.875H257.263C257.215 94.5483 257.087 94.2855 256.88 94.0866C256.675 93.8849 256.407 93.7841 256.074 93.7841C255.793 93.7841 255.547 93.8608 255.337 94.0142C255.13 94.1648 254.968 94.3849 254.851 94.6747C254.735 94.9645 254.676 95.3153 254.676 95.7273C254.676 96.1449 254.733 96.5 254.847 96.7926C254.963 97.0852 255.127 97.3082 255.337 97.4616C255.547 97.6151 255.793 97.6918 256.074 97.6918C256.282 97.6918 256.468 97.6491 256.632 97.5639C256.8 97.4787 256.938 97.3551 257.046 97.1932C257.157 97.0284 257.229 96.831 257.263 96.6009H258.976C258.948 97.1009 258.811 97.5412 258.567 97.9219C258.326 98.2997 257.992 98.5952 257.566 98.8082C257.14 99.0213 256.635 99.1278 256.053 99.1278ZM260.138 99V92.4545H261.898V93.5966H261.967C262.086 93.1903 262.286 92.8835 262.567 92.6761C262.849 92.4659 263.173 92.3608 263.539 92.3608C263.63 92.3608 263.728 92.3665 263.833 92.3778C263.938 92.3892 264.031 92.4048 264.11 92.4247V94.0355C264.025 94.0099 263.907 93.9872 263.756 93.9673C263.606 93.9474 263.468 93.9375 263.343 93.9375C263.076 93.9375 262.837 93.9957 262.627 94.1122C262.42 94.2259 262.255 94.3849 262.133 94.5895C262.013 94.794 261.954 95.0298 261.954 95.2969V99H260.138ZM265.049 99V92.4545H266.864V99H265.049ZM265.961 91.6108C265.691 91.6108 265.459 91.5213 265.266 91.3423C265.076 91.1605 264.98 90.9432 264.98 90.6903C264.98 90.4403 265.076 90.2259 265.266 90.0469C265.459 89.8651 265.691 89.7741 265.961 89.7741C266.23 89.7741 266.461 89.8651 266.651 90.0469C266.844 90.2259 266.941 90.4403 266.941 90.6903C266.941 90.9432 266.844 91.1605 266.651 91.3423C266.461 91.5213 266.23 91.6108 265.961 91.6108ZM268.318 101.455V92.4545H270.108V93.554H270.189C270.268 93.3778 270.384 93.1989 270.534 93.017C270.688 92.8324 270.886 92.679 271.131 92.5568C271.378 92.4318 271.685 92.3693 272.051 92.3693C272.528 92.3693 272.969 92.4943 273.372 92.7443C273.776 92.9915 274.098 93.3651 274.339 93.8651C274.581 94.3622 274.702 94.9858 274.702 95.7358C274.702 96.4659 274.584 97.0824 274.348 97.5852C274.115 98.0852 273.797 98.4645 273.393 98.723C272.993 98.9787 272.544 99.1065 272.047 99.1065C271.695 99.1065 271.395 99.0483 271.148 98.9318C270.903 98.8153 270.703 98.669 270.547 98.4929C270.391 98.3139 270.271 98.1335 270.189 97.9517H270.134V101.455H268.318ZM270.095 95.7273C270.095 96.1165 270.149 96.456 270.257 96.7457C270.365 97.0355 270.521 97.2614 270.726 97.4233C270.93 97.5824 271.179 97.6619 271.472 97.6619C271.767 97.6619 272.017 97.581 272.222 97.419C272.426 97.2543 272.581 97.027 272.686 96.7372C272.794 96.4446 272.848 96.108 272.848 95.7273C272.848 95.3494 272.795 95.017 272.69 94.7301C272.585 94.4432 272.43 94.2187 272.226 94.0568C272.021 93.8949 271.77 93.8139 271.472 93.8139C271.176 93.8139 270.926 93.892 270.722 94.0483C270.52 94.2045 270.365 94.4261 270.257 94.7131C270.149 95 270.095 95.3381 270.095 95.7273ZM279.393 92.4545V93.8182H275.452V92.4545H279.393ZM276.347 90.8864H278.162V96.9886C278.162 97.1562 278.188 97.2869 278.239 97.3807C278.29 97.4716 278.361 97.5355 278.452 97.5724C278.545 97.6094 278.653 97.6278 278.776 97.6278C278.861 97.6278 278.946 97.6207 279.031 97.6065C279.116 97.5895 279.182 97.5767 279.227 97.5682L279.513 98.919C279.422 98.9474 279.294 98.9801 279.129 99.017C278.964 99.0568 278.764 99.081 278.528 99.0895C278.091 99.1065 277.707 99.0483 277.378 98.9148C277.051 98.7812 276.797 98.5739 276.615 98.2926C276.433 98.0114 276.344 97.6562 276.347 97.2273V90.8864Z" fill="white"/>
<rect x="300.5" y="82.5" width="89" height="24" rx="4.5" fill="#092AD0" fill-opacity="0.56" stroke="#092AD0"/>
<path d="M317.031 99L318.463 90.2727H319.827L318.395 99H317.031ZM313.124 96.8352L313.349 95.4716H320.168L319.942 96.8352H313.124ZM313.963 99L315.395 90.2727H316.759L315.327 99H313.963ZM313.622 93.8011L313.852 92.4375H320.67L320.44 93.8011H313.622ZM330.116 93.0938C330.056 92.8864 329.972 92.7031 329.864 92.544C329.756 92.3821 329.624 92.2457 329.468 92.1349C329.315 92.0213 329.138 91.9347 328.94 91.875C328.744 91.8153 328.526 91.7855 328.288 91.7855C327.842 91.7855 327.45 91.8963 327.112 92.1179C326.776 92.3395 326.515 92.6619 326.327 93.0852C326.14 93.5057 326.046 94.0199 326.046 94.6278C326.046 95.2358 326.138 95.7528 326.323 96.179C326.508 96.6051 326.769 96.9304 327.107 97.1548C327.445 97.3764 327.844 97.4872 328.305 97.4872C328.722 97.4872 329.079 97.4134 329.374 97.2656C329.673 97.1151 329.9 96.9034 330.056 96.6307C330.215 96.358 330.295 96.0355 330.295 95.6634L330.67 95.7188H328.42V94.3295H332.072V95.429C332.072 96.196 331.91 96.8551 331.586 97.4062C331.262 97.9545 330.816 98.3778 330.248 98.6761C329.68 98.9716 329.029 99.1193 328.296 99.1193C327.478 99.1193 326.759 98.9389 326.14 98.5781C325.521 98.2145 325.038 97.6989 324.691 97.0312C324.347 96.3608 324.175 95.5653 324.175 94.6449C324.175 93.9375 324.278 93.3068 324.482 92.7528C324.69 92.196 324.979 91.7244 325.352 91.3381C325.724 90.9517 326.157 90.6577 326.651 90.456C327.146 90.2543 327.681 90.1534 328.258 90.1534C328.752 90.1534 329.212 90.2259 329.638 90.3707C330.065 90.5128 330.442 90.7145 330.772 90.9759C331.104 91.2372 331.376 91.5483 331.586 91.9091C331.796 92.267 331.931 92.6619 331.991 93.0938H330.116ZM333.424 99V92.4545H335.184V93.5966H335.252C335.371 93.1903 335.571 92.8835 335.853 92.6761C336.134 92.4659 336.458 92.3608 336.824 92.3608C336.915 92.3608 337.013 92.3665 337.118 92.3778C337.223 92.3892 337.316 92.4048 337.395 92.4247V94.0355C337.31 94.0099 337.192 93.9872 337.042 93.9673C336.891 93.9474 336.753 93.9375 336.628 93.9375C336.361 93.9375 336.123 93.9957 335.912 94.1122C335.705 94.2259 335.54 94.3849 335.418 94.5895C335.299 94.794 335.239 95.0298 335.239 95.2969V99H333.424ZM340.013 99.1236C339.595 99.1236 339.223 99.0511 338.896 98.9062C338.57 98.7585 338.311 98.5412 338.121 98.2543C337.933 97.9645 337.839 97.6037 337.839 97.1719C337.839 96.8082 337.906 96.5028 338.04 96.2557C338.173 96.0085 338.355 95.8097 338.585 95.6591C338.815 95.5085 339.077 95.3949 339.369 95.3182C339.665 95.2415 339.974 95.1875 340.298 95.1562C340.679 95.1165 340.986 95.0795 341.219 95.0455C341.452 95.0085 341.621 94.9545 341.726 94.8835C341.831 94.8125 341.884 94.7074 341.884 94.5682V94.5426C341.884 94.2727 341.798 94.0639 341.628 93.9162C341.46 93.7685 341.222 93.6946 340.912 93.6946C340.585 93.6946 340.325 93.767 340.132 93.9119C339.939 94.054 339.811 94.233 339.749 94.4489L338.07 94.3125C338.155 93.9148 338.322 93.571 338.572 93.2812C338.822 92.9886 339.145 92.7642 339.54 92.608C339.938 92.4489 340.398 92.3693 340.92 92.3693C341.284 92.3693 341.632 92.4119 341.964 92.4972C342.3 92.5824 342.597 92.7145 342.855 92.8935C343.116 93.0724 343.322 93.3026 343.473 93.5838C343.624 93.8622 343.699 94.196 343.699 94.5852V99H341.977V98.0923H341.926C341.821 98.2969 341.68 98.4773 341.504 98.6335C341.328 98.7869 341.116 98.9077 340.869 98.9957C340.622 99.081 340.337 99.1236 340.013 99.1236ZM340.533 97.8707C340.8 97.8707 341.036 97.8182 341.24 97.7131C341.445 97.6051 341.605 97.4602 341.722 97.2784C341.838 97.0966 341.896 96.8906 341.896 96.6605V95.9659C341.839 96.0028 341.761 96.0369 341.662 96.0682C341.565 96.0966 341.456 96.1236 341.334 96.1491C341.212 96.1719 341.089 96.1932 340.967 96.2131C340.845 96.2301 340.734 96.2457 340.635 96.2599C340.422 96.2912 340.236 96.3409 340.077 96.4091C339.918 96.4773 339.794 96.5696 339.706 96.6861C339.618 96.7997 339.574 96.9418 339.574 97.1122C339.574 97.3594 339.663 97.5483 339.842 97.679C340.024 97.8068 340.254 97.8707 340.533 97.8707ZM345.107 101.455V92.4545H346.897V93.554H346.978C347.058 93.3778 347.173 93.1989 347.323 93.017C347.477 92.8324 347.675 92.679 347.92 92.5568C348.167 92.4318 348.474 92.3693 348.84 92.3693C349.317 92.3693 349.758 92.4943 350.161 92.7443C350.565 92.9915 350.887 93.3651 351.129 93.8651C351.37 94.3622 351.491 94.9858 351.491 95.7358C351.491 96.4659 351.373 97.0824 351.137 97.5852C350.904 98.0852 350.586 98.4645 350.183 98.723C349.782 98.9787 349.333 99.1065 348.836 99.1065C348.484 99.1065 348.184 99.0483 347.937 98.9318C347.692 98.8153 347.492 98.669 347.336 98.4929C347.18 98.3139 347.06 98.1335 346.978 97.9517H346.923V101.455H345.107ZM346.884 95.7273C346.884 96.1165 346.938 96.456 347.046 96.7457C347.154 97.0355 347.31 97.2614 347.515 97.4233C347.719 97.5824 347.968 97.6619 348.261 97.6619C348.556 97.6619 348.806 97.581 349.011 97.419C349.215 97.2543 349.37 97.027 349.475 96.7372C349.583 96.4446 349.637 96.108 349.637 95.7273C349.637 95.3494 349.585 95.017 349.479 94.7301C349.374 94.4432 349.219 94.2187 349.015 94.0568C348.81 93.8949 348.559 93.8139 348.261 93.8139C347.965 93.8139 347.715 93.892 347.511 94.0483C347.309 94.2045 347.154 94.4261 347.046 94.7131C346.938 95 346.884 95.3381 346.884 95.7273ZM354.516 95.2159V99H352.701V90.2727H354.465V93.6094H354.542C354.69 93.223 354.928 92.9205 355.258 92.7017C355.587 92.4801 356.001 92.3693 356.498 92.3693C356.952 92.3693 357.349 92.4688 357.687 92.6676C358.028 92.8636 358.292 93.1463 358.479 93.5156C358.67 93.8821 358.763 94.321 358.761 94.8324V99H356.945V95.1562C356.948 94.7528 356.846 94.4389 356.638 94.2145C356.434 93.9901 356.147 93.8778 355.778 93.8778C355.531 93.8778 355.312 93.9304 355.121 94.0355C354.934 94.1406 354.786 94.294 354.678 94.4957C354.573 94.6946 354.519 94.9347 354.516 95.2159ZM363.517 95.9659H365.086L365.874 96.9801L366.65 97.8835L368.111 99.7159H366.39L365.384 98.4801L364.868 97.7472L363.517 95.9659ZM368.243 94.6364C368.243 95.5881 368.063 96.3977 367.702 97.0653C367.344 97.733 366.855 98.2429 366.236 98.5952C365.62 98.9446 364.926 99.1193 364.157 99.1193C363.381 99.1193 362.685 98.9432 362.069 98.5909C361.452 98.2386 360.965 97.7287 360.607 97.0611C360.249 96.3935 360.07 95.5852 360.07 94.6364C360.07 93.6847 360.249 92.875 360.607 92.2074C360.965 91.5398 361.452 91.0312 362.069 90.6818C362.685 90.3295 363.381 90.1534 364.157 90.1534C364.926 90.1534 365.62 90.3295 366.236 90.6818C366.855 91.0312 367.344 91.5398 367.702 92.2074C368.063 92.875 368.243 93.6847 368.243 94.6364ZM366.373 94.6364C366.373 94.0199 366.28 93.5 366.096 93.0767C365.914 92.6534 365.657 92.3324 365.324 92.1136C364.992 91.8949 364.603 91.7855 364.157 91.7855C363.711 91.7855 363.321 91.8949 362.989 92.1136C362.657 92.3324 362.398 92.6534 362.213 93.0767C362.032 93.5 361.941 94.0199 361.941 94.6364C361.941 95.2528 362.032 95.7727 362.213 96.196C362.398 96.6193 362.657 96.9403 362.989 97.1591C363.321 97.3778 363.711 97.4872 364.157 97.4872C364.603 97.4872 364.992 97.3778 365.324 97.1591C365.657 96.9403 365.914 96.6193 366.096 96.196C366.28 95.7727 366.373 95.2528 366.373 94.6364ZM369.61 99V90.2727H371.455V97.4787H375.197V99H369.61Z" fill="white"/>
<rect width="500" height="135" rx="35" fill="white"/>
<circle cx="75" cy="67" r="40" fill="#C4C4C4"/>
<rect x="57" y="72" width="36" height="20" rx="5" fill="white"/>
<circle cx="74.5" cy="55.5" r="12.5" fill="white"/>
<path d="M136.155 40.6378C136.098 40.0649 135.854 39.6198 135.423 39.3026C134.992 38.9853 134.408 38.8267 133.669 38.8267C133.167 38.8267 132.743 38.8977 132.398 39.0398C132.052 39.1771 131.787 39.3688 131.602 39.6151C131.422 39.8613 131.332 40.1406 131.332 40.4531C131.323 40.7135 131.377 40.9408 131.496 41.1349C131.619 41.3291 131.787 41.4972 132 41.6392C132.213 41.7765 132.459 41.8973 132.739 42.0014C133.018 42.1009 133.316 42.1861 133.634 42.2571L134.94 42.5696C135.575 42.7116 136.157 42.901 136.688 43.1378C137.218 43.3745 137.677 43.6657 138.065 44.0114C138.454 44.357 138.754 44.7642 138.967 45.233C139.185 45.7017 139.296 46.2391 139.301 46.8452C139.296 47.7353 139.069 48.5071 138.619 49.1605C138.174 49.8092 137.53 50.3134 136.688 50.6733C135.849 51.0284 134.839 51.206 133.655 51.206C132.481 51.206 131.458 51.026 130.587 50.6662C129.72 50.3063 129.043 49.7737 128.555 49.0682C128.072 48.358 127.819 47.4796 127.795 46.4332H130.771C130.804 46.9209 130.944 47.3281 131.19 47.6548C131.441 47.9768 131.775 48.2206 132.192 48.3864C132.613 48.5473 133.089 48.6278 133.619 48.6278C134.14 48.6278 134.592 48.5521 134.976 48.4006C135.364 48.2491 135.665 48.0384 135.878 47.7685C136.091 47.4986 136.197 47.1884 136.197 46.8381C136.197 46.5114 136.1 46.2367 135.906 46.0142C135.717 45.7917 135.438 45.6023 135.068 45.446C134.704 45.2898 134.256 45.1477 133.726 45.0199L132.142 44.6222C130.916 44.3239 129.947 43.8575 129.237 43.223C128.527 42.5885 128.174 41.7339 128.179 40.6591C128.174 39.7784 128.409 39.009 128.882 38.3509C129.36 37.6927 130.016 37.179 130.849 36.8097C131.683 36.4403 132.63 36.2557 133.69 36.2557C134.77 36.2557 135.712 36.4403 136.517 36.8097C137.327 37.179 137.956 37.6927 138.406 38.3509C138.856 39.009 139.088 39.7713 139.102 40.6378H136.155ZM147.115 40.0909V42.3636H140.546V40.0909H147.115ZM142.037 37.4773H145.063V47.6477C145.063 47.9271 145.105 48.1449 145.191 48.3011C145.276 48.4527 145.394 48.5592 145.546 48.6207C145.702 48.6823 145.882 48.7131 146.086 48.7131C146.228 48.7131 146.37 48.7012 146.512 48.6776C146.654 48.6491 146.763 48.6278 146.838 48.6136L147.314 50.8651C147.163 50.9124 146.95 50.9669 146.675 51.0284C146.4 51.0947 146.067 51.1349 145.674 51.1491C144.944 51.1776 144.305 51.0805 143.756 50.858C143.212 50.6354 142.788 50.2898 142.485 49.821C142.182 49.3523 142.033 48.7604 142.037 48.0455V37.4773ZM153.941 51.2131C152.819 51.2131 151.853 50.9858 151.043 50.5312C150.238 50.072 149.618 49.4233 149.182 48.5852C148.747 47.7424 148.529 46.7457 148.529 45.5952C148.529 44.473 148.747 43.4882 149.182 42.6406C149.618 41.7931 150.231 41.1326 151.022 40.6591C151.817 40.1856 152.75 39.9489 153.82 39.9489C154.54 39.9489 155.21 40.0649 155.83 40.2969C156.455 40.5241 156.999 40.8674 157.463 41.3267C157.932 41.786 158.297 42.3636 158.557 43.0597C158.818 43.7509 158.948 44.5606 158.948 45.4886V46.3196H149.736V44.4446H156.1C156.1 44.009 156.005 43.6231 155.816 43.2869C155.626 42.9508 155.364 42.688 155.027 42.4986C154.696 42.3045 154.31 42.2074 153.87 42.2074C153.41 42.2074 153.003 42.3139 152.648 42.527C152.298 42.7353 152.023 43.017 151.824 43.3722C151.625 43.7225 151.524 44.1132 151.519 44.544V46.3267C151.519 46.8665 151.618 47.3329 151.817 47.7259C152.021 48.1188 152.307 48.4219 152.676 48.6349C153.046 48.848 153.484 48.9545 153.99 48.9545C154.327 48.9545 154.634 48.9072 154.914 48.8125C155.193 48.7178 155.432 48.5758 155.631 48.3864C155.83 48.197 155.981 47.965 156.086 47.6903L158.884 47.875C158.742 48.5473 158.451 49.1345 158.01 49.6364C157.575 50.1335 157.011 50.5218 156.32 50.8011C155.633 51.0758 154.84 51.2131 153.941 51.2131ZM170.8 40.0909L166.986 51H163.577L159.763 40.0909H162.959L165.224 47.8963H165.338L167.597 40.0909H170.8ZM176.968 51.2131C175.846 51.2131 174.88 50.9858 174.07 50.5312C173.265 50.072 172.645 49.4233 172.21 48.5852C171.774 47.7424 171.556 46.7457 171.556 45.5952C171.556 44.473 171.774 43.4882 172.21 42.6406C172.645 41.7931 173.258 41.1326 174.049 40.6591C174.844 40.1856 175.777 39.9489 176.847 39.9489C177.567 39.9489 178.237 40.0649 178.857 40.2969C179.482 40.5241 180.027 40.8674 180.491 41.3267C180.96 41.786 181.324 42.3636 181.585 43.0597C181.845 43.7509 181.975 44.5606 181.975 45.4886V46.3196H172.763V44.4446H179.127C179.127 44.009 179.032 43.6231 178.843 43.2869C178.654 42.9508 178.391 42.688 178.055 42.4986C177.723 42.3045 177.337 42.2074 176.897 42.2074C176.438 42.2074 176.031 42.3139 175.675 42.527C175.325 42.7353 175.05 43.017 174.852 43.3722C174.653 43.7225 174.551 44.1132 174.546 44.544V46.3267C174.546 46.8665 174.646 47.3329 174.844 47.7259C175.048 48.1188 175.335 48.4219 175.704 48.6349C176.073 48.848 176.511 48.9545 177.018 48.9545C177.354 48.9545 177.662 48.9072 177.941 48.8125C178.22 48.7178 178.46 48.5758 178.658 48.3864C178.857 48.197 179.009 47.965 179.113 47.6903L181.911 47.875C181.769 48.5473 181.478 49.1345 181.038 49.6364C180.602 50.1335 180.039 50.5218 179.347 50.8011C178.661 51.0758 177.868 51.2131 176.968 51.2131ZM196.526 40.6378C196.469 40.0649 196.225 39.6198 195.794 39.3026C195.364 38.9853 194.779 38.8267 194.04 38.8267C193.538 38.8267 193.114 38.8977 192.769 39.0398C192.423 39.1771 192.158 39.3688 191.973 39.6151C191.793 39.8613 191.703 40.1406 191.703 40.4531C191.694 40.7135 191.748 40.9408 191.867 41.1349C191.99 41.3291 192.158 41.4972 192.371 41.6392C192.584 41.7765 192.83 41.8973 193.11 42.0014C193.389 42.1009 193.687 42.1861 194.005 42.2571L195.311 42.5696C195.946 42.7116 196.528 42.901 197.059 43.1378C197.589 43.3745 198.048 43.6657 198.436 44.0114C198.825 44.357 199.125 44.7642 199.338 45.233C199.556 45.7017 199.667 46.2391 199.672 46.8452C199.667 47.7353 199.44 48.5071 198.99 49.1605C198.545 49.8092 197.901 50.3134 197.059 50.6733C196.221 51.0284 195.21 51.206 194.026 51.206C192.852 51.206 191.829 51.026 190.958 50.6662C190.091 50.3063 189.414 49.7737 188.926 49.0682C188.444 48.358 188.19 47.4796 188.167 46.4332H191.142C191.176 46.9209 191.315 47.3281 191.561 47.6548C191.812 47.9768 192.146 48.2206 192.563 48.3864C192.984 48.5473 193.46 48.6278 193.99 48.6278C194.511 48.6278 194.963 48.5521 195.347 48.4006C195.735 48.2491 196.036 48.0384 196.249 47.7685C196.462 47.4986 196.569 47.1884 196.569 46.8381C196.569 46.5114 196.471 46.2367 196.277 46.0142C196.088 45.7917 195.809 45.6023 195.439 45.446C195.075 45.2898 194.627 45.1477 194.097 45.0199L192.513 44.6222C191.287 44.3239 190.319 43.8575 189.608 43.223C188.898 42.5885 188.545 41.7339 188.55 40.6591C188.545 39.7784 188.78 39.009 189.253 38.3509C189.731 37.6927 190.387 37.179 191.221 36.8097C192.054 36.4403 193.001 36.2557 194.061 36.2557C195.141 36.2557 196.083 36.4403 196.888 36.8097C197.698 37.179 198.328 37.6927 198.777 38.3509C199.227 39.009 199.459 39.7713 199.473 40.6378H196.526ZM201.684 51V40.0909H204.567V42.0156H204.695C204.923 41.3764 205.301 40.8722 205.832 40.5028C206.362 40.1335 206.996 39.9489 207.735 39.9489C208.483 39.9489 209.12 40.1359 209.646 40.5099C210.171 40.8793 210.522 41.3812 210.697 42.0156H210.81C211.033 41.3906 211.435 40.8911 212.018 40.517C212.605 40.1383 213.299 39.9489 214.099 39.9489C215.117 39.9489 215.943 40.2732 216.577 40.9219C217.217 41.5658 217.536 42.4796 217.536 43.6634V51H214.518V44.2599C214.518 43.6539 214.357 43.1993 214.035 42.8963C213.713 42.5933 213.31 42.4418 212.827 42.4418C212.278 42.4418 211.85 42.617 211.542 42.9673C211.234 43.313 211.08 43.7699 211.08 44.3381V51H208.147V44.196C208.147 43.661 207.993 43.2348 207.685 42.9176C207.382 42.6004 206.982 42.4418 206.485 42.4418C206.149 42.4418 205.846 42.527 205.576 42.6974C205.311 42.8632 205.1 43.0975 204.944 43.4006C204.788 43.6989 204.71 44.0492 204.71 44.4517V51H201.684ZM219.926 51V40.0909H222.952V51H219.926ZM221.446 38.6847C220.996 38.6847 220.61 38.5355 220.288 38.2372C219.971 37.9342 219.812 37.572 219.812 37.1506C219.812 36.7339 219.971 36.3764 220.288 36.0781C220.61 35.7751 220.996 35.6236 221.446 35.6236C221.896 35.6236 222.279 35.7751 222.597 36.0781C222.919 36.3764 223.08 36.7339 223.08 37.1506C223.08 37.572 222.919 37.9342 222.597 38.2372C222.279 38.5355 221.896 38.6847 221.446 38.6847ZM231.178 40.0909V42.3636H224.608V40.0909H231.178ZM226.1 37.4773H229.125V47.6477C229.125 47.9271 229.168 48.1449 229.253 48.3011C229.338 48.4527 229.457 48.5592 229.608 48.6207C229.765 48.6823 229.944 48.7131 230.148 48.7131C230.29 48.7131 230.432 48.7012 230.574 48.6776C230.716 48.6491 230.825 48.6278 230.901 48.6136L231.377 50.8651C231.225 50.9124 231.012 50.9669 230.738 51.0284C230.463 51.0947 230.129 51.1349 229.736 51.1491C229.007 51.1776 228.368 51.0805 227.819 50.858C227.274 50.6354 226.85 50.2898 226.547 49.821C226.244 49.3523 226.095 48.7604 226.1 48.0455V37.4773ZM236.409 44.6932V51H233.383V36.4545H236.324V42.0156H236.451C236.698 41.3717 237.095 40.8674 237.645 40.5028C238.194 40.1335 238.883 39.9489 239.711 39.9489C240.469 39.9489 241.129 40.1146 241.693 40.446C242.261 40.7727 242.701 41.2438 243.014 41.8594C243.331 42.4702 243.487 43.2017 243.483 44.054V51H240.457V44.5938C240.462 43.9214 240.291 43.3982 239.946 43.0241C239.605 42.6501 239.127 42.4631 238.511 42.4631C238.099 42.4631 237.734 42.5507 237.417 42.7259C237.105 42.901 236.859 43.1567 236.679 43.4929C236.503 43.8243 236.413 44.2244 236.409 44.6932Z" fill="black"/>
<path d="M130.114 60.3636L132.926 69.2045H133.034L135.852 60.3636H138.58L134.568 72H131.398L127.381 60.3636H130.114ZM139.98 72V60.3636H144.571C145.454 60.3636 146.205 60.5322 146.827 60.8693C147.448 61.2027 147.921 61.6667 148.247 62.2614C148.577 62.8523 148.741 63.5341 148.741 64.3068C148.741 65.0795 148.575 65.7614 148.241 66.3523C147.908 66.9432 147.425 67.4034 146.793 67.733C146.164 68.0625 145.402 68.2273 144.509 68.2273H141.582V66.2557H144.111C144.584 66.2557 144.974 66.1742 145.281 66.0114C145.592 65.8447 145.823 65.6155 145.974 65.3239C146.13 65.0284 146.207 64.6894 146.207 64.3068C146.207 63.9205 146.13 63.5833 145.974 63.2955C145.823 63.0038 145.592 62.7784 145.281 62.6193C144.971 62.4564 144.577 62.375 144.099 62.375H142.44V72H139.98ZM154.043 72V60.3636H161.884V62.392H156.503V65.1648H161.48V67.1932H156.503V69.9716H161.906V72H154.043ZM166.214 66.9545V72H163.794V63.2727H166.101V64.8125H166.203C166.396 64.3049 166.72 63.9034 167.175 63.608C167.629 63.3087 168.18 63.1591 168.828 63.1591C169.434 63.1591 169.963 63.2917 170.413 63.5568C170.864 63.822 171.214 64.2008 171.464 64.6932C171.714 65.1818 171.839 65.7652 171.839 66.4432V72H169.419V66.875C169.423 66.3409 169.286 65.9242 169.01 65.625C168.733 65.322 168.353 65.1705 167.868 65.1705C167.542 65.1705 167.254 65.2405 167.004 65.3807C166.758 65.5208 166.565 65.7254 166.425 65.9943C166.288 66.2595 166.218 66.5795 166.214 66.9545ZM177.679 75.4545C176.895 75.4545 176.223 75.3466 175.662 75.1307C175.105 74.9186 174.662 74.6288 174.332 74.2614C174.003 73.8939 173.789 73.4811 173.69 73.0227L175.929 72.7216C175.997 72.8958 176.105 73.0587 176.253 73.2102C176.401 73.3617 176.596 73.483 176.838 73.5739C177.084 73.6686 177.384 73.7159 177.736 73.7159C178.262 73.7159 178.696 73.5871 179.037 73.3295C179.382 73.0758 179.554 72.6496 179.554 72.0511V70.4545H179.452C179.346 70.697 179.187 70.9261 178.974 71.142C178.762 71.358 178.49 71.5341 178.156 71.6705C177.823 71.8068 177.425 71.875 176.963 71.875C176.308 71.875 175.711 71.7235 175.173 71.4205C174.639 71.1136 174.213 70.6458 173.895 70.017C173.58 69.3845 173.423 68.5852 173.423 67.6193C173.423 66.6307 173.584 65.8049 173.906 65.142C174.228 64.4792 174.656 63.983 175.19 63.6534C175.728 63.3239 176.317 63.1591 176.957 63.1591C177.446 63.1591 177.855 63.2424 178.185 63.4091C178.514 63.572 178.779 63.7765 178.98 64.0227C179.185 64.2652 179.342 64.5038 179.452 64.7386H179.543V63.2727H181.946V72.0852C181.946 72.8277 181.764 73.4489 181.401 73.9489C181.037 74.4489 180.533 74.8239 179.889 75.0739C179.249 75.3277 178.512 75.4545 177.679 75.4545ZM177.73 70.0568C178.12 70.0568 178.45 69.9602 178.719 69.767C178.991 69.5701 179.2 69.2898 179.344 68.9261C179.491 68.5587 179.565 68.1193 179.565 67.608C179.565 67.0966 179.493 66.6534 179.349 66.2784C179.205 65.8996 178.997 65.6061 178.724 65.3977C178.452 65.1894 178.12 65.0852 177.73 65.0852C177.332 65.0852 176.997 65.1932 176.724 65.4091C176.452 65.6212 176.245 65.9167 176.105 66.2955C175.965 66.6742 175.895 67.1117 175.895 67.608C175.895 68.1117 175.965 68.5473 176.105 68.9148C176.249 69.2784 176.455 69.5606 176.724 69.7614C176.997 69.9583 177.332 70.0568 177.73 70.0568ZM183.872 72V63.2727H186.293V72H183.872ZM185.088 62.1477C184.728 62.1477 184.42 62.0284 184.162 61.7898C183.908 61.5473 183.781 61.2576 183.781 60.9205C183.781 60.5871 183.908 60.3011 184.162 60.0625C184.42 59.8201 184.728 59.6989 185.088 59.6989C185.448 59.6989 185.755 59.8201 186.009 60.0625C186.266 60.3011 186.395 60.5871 186.395 60.9205C186.395 61.2576 186.266 61.5473 186.009 61.7898C185.755 62.0284 185.448 62.1477 185.088 62.1477ZM190.652 66.9545V72H188.232V63.2727H190.538V64.8125H190.641C190.834 64.3049 191.158 63.9034 191.612 63.608C192.067 63.3087 192.618 63.1591 193.266 63.1591C193.872 63.1591 194.4 63.2917 194.851 63.5568C195.302 63.822 195.652 64.2008 195.902 64.6932C196.152 65.1818 196.277 65.7652 196.277 66.4432V72H193.857V66.875C193.86 66.3409 193.724 65.9242 193.447 65.625C193.171 65.322 192.79 65.1705 192.305 65.1705C191.98 65.1705 191.692 65.2405 191.442 65.3807C191.196 65.5208 191.002 65.7254 190.862 65.9943C190.726 66.2595 190.656 66.5795 190.652 66.9545ZM202.162 72.1705C201.264 72.1705 200.491 71.9886 199.844 71.625C199.2 71.2576 198.704 70.7386 198.355 70.0682C198.007 69.3939 197.832 68.5966 197.832 67.6761C197.832 66.7784 198.007 65.9905 198.355 65.3125C198.704 64.6345 199.194 64.1061 199.827 63.7273C200.463 63.3485 201.209 63.1591 202.065 63.1591C202.641 63.1591 203.177 63.2519 203.673 63.4375C204.173 63.6193 204.609 63.8939 204.98 64.2614C205.355 64.6288 205.647 65.0909 205.855 65.6477C206.063 66.2008 206.168 66.8485 206.168 67.5909V68.2557H198.798V66.7557H203.889C203.889 66.4072 203.813 66.0985 203.662 65.8295C203.51 65.5606 203.3 65.3504 203.031 65.1989C202.766 65.0436 202.457 64.9659 202.105 64.9659C201.738 64.9659 201.412 65.0511 201.128 65.2216C200.848 65.3883 200.628 65.6136 200.469 65.8977C200.31 66.178 200.228 66.4905 200.224 66.8352V68.2614C200.224 68.6932 200.304 69.0663 200.463 69.3807C200.626 69.6951 200.855 69.9375 201.151 70.108C201.446 70.2784 201.796 70.3636 202.202 70.3636C202.471 70.3636 202.717 70.3258 202.94 70.25C203.164 70.1742 203.355 70.0606 203.514 69.9091C203.673 69.7576 203.795 69.572 203.878 69.3523L206.116 69.5C206.003 70.0379 205.77 70.5076 205.418 70.9091C205.069 71.3068 204.618 71.6174 204.065 71.8409C203.516 72.0606 202.882 72.1705 202.162 72.1705ZM211.724 72.1705C210.827 72.1705 210.054 71.9886 209.406 71.625C208.762 71.2576 208.266 70.7386 207.918 70.0682C207.569 69.3939 207.395 68.5966 207.395 67.6761C207.395 66.7784 207.569 65.9905 207.918 65.3125C208.266 64.6345 208.757 64.1061 209.389 63.7273C210.026 63.3485 210.772 63.1591 211.628 63.1591C212.204 63.1591 212.74 63.2519 213.236 63.4375C213.736 63.6193 214.171 63.8939 214.543 64.2614C214.918 64.6288 215.209 65.0909 215.418 65.6477C215.626 66.2008 215.73 66.8485 215.73 67.5909V68.2557H208.361V66.7557H213.452C213.452 66.4072 213.376 66.0985 213.224 65.8295C213.073 65.5606 212.863 65.3504 212.594 65.1989C212.329 65.0436 212.02 64.9659 211.668 64.9659C211.3 64.9659 210.974 65.0511 210.69 65.2216C210.41 65.3883 210.19 65.6136 210.031 65.8977C209.872 66.178 209.791 66.4905 209.787 66.8352V68.2614C209.787 68.6932 209.866 69.0663 210.026 69.3807C210.188 69.6951 210.418 69.9375 210.713 70.108C211.009 70.2784 211.359 70.3636 211.764 70.3636C212.033 70.3636 212.279 70.3258 212.503 70.25C212.726 70.1742 212.918 70.0606 213.077 69.9091C213.236 69.7576 213.357 69.572 213.44 69.3523L215.679 69.5C215.565 70.0379 215.332 70.5076 214.98 70.9091C214.632 71.3068 214.181 71.6174 213.628 71.8409C213.079 72.0606 212.444 72.1705 211.724 72.1705ZM217.31 72V63.2727H219.656V64.7955H219.747C219.906 64.2538 220.173 63.8447 220.548 63.5682C220.923 63.2879 221.355 63.1477 221.844 63.1477C221.965 63.1477 222.096 63.1553 222.236 63.1705C222.376 63.1856 222.499 63.2064 222.605 63.233V65.3807C222.491 65.3466 222.334 65.3163 222.134 65.2898C221.933 65.2633 221.749 65.25 221.582 65.25C221.226 65.25 220.908 65.3277 220.628 65.483C220.351 65.6345 220.132 65.8466 219.969 66.1193C219.81 66.392 219.73 66.7064 219.73 67.0625V72H217.31ZM223.857 72V63.2727H226.277V72H223.857ZM225.072 62.1477C224.713 62.1477 224.404 62.0284 224.146 61.7898C223.893 61.5473 223.766 61.2576 223.766 60.9205C223.766 60.5871 223.893 60.3011 224.146 60.0625C224.404 59.8201 224.713 59.6989 225.072 59.6989C225.432 59.6989 225.739 59.8201 225.993 60.0625C226.25 60.3011 226.379 60.5871 226.379 60.9205C226.379 61.2576 226.25 61.5473 225.993 61.7898C225.739 62.0284 225.432 62.1477 225.072 62.1477ZM230.636 66.9545V72H228.216V63.2727H230.523V64.8125H230.625C230.818 64.3049 231.142 63.9034 231.597 63.608C232.051 63.3087 232.602 63.1591 233.25 63.1591C233.856 63.1591 234.384 63.2917 234.835 63.5568C235.286 63.822 235.636 64.2008 235.886 64.6932C236.136 65.1818 236.261 65.7652 236.261 66.4432V72H233.841V66.875C233.845 66.3409 233.708 65.9242 233.432 65.625C233.155 65.322 232.775 65.1705 232.29 65.1705C231.964 65.1705 231.676 65.2405 231.426 65.3807C231.18 65.5208 230.987 65.7254 230.847 65.9943C230.71 66.2595 230.64 66.5795 230.636 66.9545ZM242.101 75.4545C241.317 75.4545 240.644 75.3466 240.084 75.1307C239.527 74.9186 239.084 74.6288 238.754 74.2614C238.425 73.8939 238.211 73.4811 238.112 73.0227L240.351 72.7216C240.419 72.8958 240.527 73.0587 240.675 73.2102C240.822 73.3617 241.018 73.483 241.26 73.5739C241.506 73.6686 241.805 73.7159 242.158 73.7159C242.684 73.7159 243.118 73.5871 243.459 73.3295C243.804 73.0758 243.976 72.6496 243.976 72.0511V70.4545H243.874C243.768 70.697 243.608 70.9261 243.396 71.142C243.184 71.358 242.911 71.5341 242.578 71.6705C242.245 71.8068 241.847 71.875 241.385 71.875C240.73 71.875 240.133 71.7235 239.595 71.4205C239.061 71.1136 238.635 70.6458 238.317 70.017C238.002 69.3845 237.845 68.5852 237.845 67.6193C237.845 66.6307 238.006 65.8049 238.328 65.142C238.65 64.4792 239.078 63.983 239.612 63.6534C240.15 63.3239 240.739 63.1591 241.379 63.1591C241.868 63.1591 242.277 63.2424 242.607 63.4091C242.936 63.572 243.201 63.7765 243.402 64.0227C243.607 64.2652 243.764 64.5038 243.874 64.7386H243.964V63.2727H246.368V72.0852C246.368 72.8277 246.186 73.4489 245.822 73.9489C245.459 74.4489 244.955 74.8239 244.311 75.0739C243.671 75.3277 242.934 75.4545 242.101 75.4545ZM242.152 70.0568C242.542 70.0568 242.872 69.9602 243.141 69.767C243.413 69.5701 243.622 69.2898 243.766 68.9261C243.913 68.5587 243.987 68.1193 243.987 67.608C243.987 67.0966 243.915 66.6534 243.771 66.2784C243.627 65.8996 243.419 65.6061 243.146 65.3977C242.874 65.1894 242.542 65.0852 242.152 65.0852C241.754 65.0852 241.419 65.1932 241.146 65.4091C240.874 65.6212 240.667 65.9167 240.527 66.2955C240.387 66.6742 240.317 67.1117 240.317 67.608C240.317 68.1117 240.387 68.5473 240.527 68.9148C240.671 69.2784 240.877 69.5606 241.146 69.7614C241.419 69.9583 241.754 70.0568 242.152 70.0568Z" fill="#092AD0"/>
<rect x="127.5" y="82.5" width="59" height="24" rx="4.5" fill="#092AD0" fill-opacity="0.56" stroke="#092AD0"/>
<path d="M138.031 99L139.463 90.2727H140.827L139.395 99H138.031ZM134.124 96.8352L134.349 95.4716H141.168L140.942 96.8352H134.124ZM134.963 99L136.395 90.2727H137.759L136.327 99H134.963ZM134.622 93.8011L134.852 92.4375H141.67L141.44 93.8011H134.622ZM145.329 99V90.2727H148.772C149.431 90.2727 149.994 90.3906 150.46 90.6264C150.928 90.8594 151.285 91.1903 151.529 91.6193C151.776 92.0455 151.9 92.5469 151.9 93.1236C151.9 93.7031 151.775 94.2017 151.525 94.6193C151.275 95.0341 150.913 95.3523 150.438 95.5739C149.967 95.7955 149.396 95.9062 148.725 95.9062H146.42V94.4233H148.427C148.779 94.4233 149.072 94.375 149.305 94.2784C149.538 94.1818 149.711 94.0369 149.825 93.8438C149.941 93.6506 149.999 93.4105 149.999 93.1236C149.999 92.8338 149.941 92.5895 149.825 92.3906C149.711 92.1918 149.536 92.0412 149.3 91.9389C149.067 91.8338 148.773 91.7812 148.418 91.7812H147.174V99H145.329ZM150.042 95.0284L152.211 99H150.174L148.052 95.0284H150.042ZM156.047 99.1278C155.374 99.1278 154.794 98.9915 154.309 98.7188C153.826 98.4432 153.453 98.054 153.192 97.5511C152.931 97.0455 152.8 96.4474 152.8 95.7571C152.8 95.0838 152.931 94.4929 153.192 93.9844C153.453 93.4759 153.821 93.0795 154.296 92.7955C154.773 92.5114 155.333 92.3693 155.975 92.3693C156.407 92.3693 156.809 92.4389 157.181 92.5781C157.556 92.7145 157.882 92.9205 158.161 93.196C158.442 93.4716 158.661 93.8182 158.817 94.2358C158.973 94.6506 159.051 95.1364 159.051 95.6932V96.1918H153.525V95.0668H157.343C157.343 94.8054 157.286 94.5739 157.172 94.3722C157.059 94.1705 156.901 94.0128 156.699 93.8991C156.5 93.7827 156.269 93.7244 156.005 93.7244C155.729 93.7244 155.485 93.7884 155.272 93.9162C155.061 94.0412 154.897 94.2102 154.777 94.4233C154.658 94.6335 154.597 94.8679 154.594 95.1264V96.196C154.594 96.5199 154.654 96.7997 154.773 97.0355C154.895 97.2713 155.067 97.4531 155.289 97.581C155.51 97.7088 155.773 97.7727 156.077 97.7727C156.279 97.7727 156.463 97.7443 156.631 97.6875C156.799 97.6307 156.942 97.5455 157.061 97.4318C157.181 97.3182 157.272 97.179 157.334 97.0142L159.013 97.125C158.928 97.5284 158.753 97.8807 158.489 98.1818C158.228 98.4801 157.89 98.7131 157.475 98.8807C157.063 99.0455 156.587 99.1278 156.047 99.1278ZM162.103 99.1236C161.685 99.1236 161.313 99.0511 160.986 98.9062C160.659 98.7585 160.401 98.5412 160.211 98.2543C160.023 97.9645 159.929 97.6037 159.929 97.1719C159.929 96.8082 159.996 96.5028 160.13 96.2557C160.263 96.0085 160.445 95.8097 160.675 95.6591C160.905 95.5085 161.167 95.3949 161.459 95.3182C161.755 95.2415 162.064 95.1875 162.388 95.1562C162.769 95.1165 163.076 95.0795 163.309 95.0455C163.542 95.0085 163.711 94.9545 163.816 94.8835C163.921 94.8125 163.973 94.7074 163.973 94.5682V94.5426C163.973 94.2727 163.888 94.0639 163.718 93.9162C163.55 93.7685 163.311 93.6946 163.002 93.6946C162.675 93.6946 162.415 93.767 162.222 93.9119C162.029 94.054 161.901 94.233 161.838 94.4489L160.159 94.3125C160.245 93.9148 160.412 93.571 160.662 93.2812C160.912 92.9886 161.235 92.7642 161.63 92.608C162.027 92.4489 162.488 92.3693 163.01 92.3693C163.374 92.3693 163.722 92.4119 164.054 92.4972C164.39 92.5824 164.686 92.7145 164.945 92.8935C165.206 93.0724 165.412 93.3026 165.563 93.5838C165.713 93.8622 165.789 94.196 165.789 94.5852V99H164.067V98.0923H164.016C163.911 98.2969 163.77 98.4773 163.594 98.6335C163.418 98.7869 163.206 98.9077 162.959 98.9957C162.712 99.081 162.426 99.1236 162.103 99.1236ZM162.623 97.8707C162.89 97.8707 163.125 97.8182 163.33 97.7131C163.534 97.6051 163.695 97.4602 163.811 97.2784C163.928 97.0966 163.986 96.8906 163.986 96.6605V95.9659C163.929 96.0028 163.851 96.0369 163.752 96.0682C163.655 96.0966 163.546 96.1236 163.424 96.1491C163.301 96.1719 163.179 96.1932 163.057 96.2131C162.935 96.2301 162.824 96.2457 162.725 96.2599C162.512 96.2912 162.326 96.3409 162.167 96.4091C162.007 96.4773 161.884 96.5696 161.796 96.6861C161.708 96.7997 161.664 96.9418 161.664 97.1122C161.664 97.3594 161.753 97.5483 161.932 97.679C162.114 97.8068 162.344 97.8707 162.623 97.8707ZM170.154 99.1278C169.484 99.1278 168.907 98.9858 168.424 98.7017C167.944 98.4148 167.575 98.017 167.316 97.5085C167.061 97 166.933 96.4148 166.933 95.7528C166.933 95.0824 167.062 94.4943 167.321 93.9886C167.582 93.4801 167.953 93.0838 168.433 92.7997C168.913 92.5128 169.484 92.3693 170.146 92.3693C170.717 92.3693 171.217 92.473 171.646 92.6804C172.075 92.8878 172.414 93.179 172.664 93.554C172.914 93.929 173.052 94.3693 173.078 94.875H171.365C171.316 94.5483 171.189 94.2855 170.981 94.0866C170.777 93.8849 170.508 93.7841 170.176 93.7841C169.895 93.7841 169.649 93.8608 169.439 94.0142C169.231 94.1648 169.069 94.3849 168.953 94.6747C168.836 94.9645 168.778 95.3153 168.778 95.7273C168.778 96.1449 168.835 96.5 168.949 96.7926C169.065 97.0852 169.228 97.3082 169.439 97.4616C169.649 97.6151 169.895 97.6918 170.176 97.6918C170.383 97.6918 170.569 97.6491 170.734 97.5639C170.902 97.4787 171.039 97.3551 171.147 97.1932C171.258 97.0284 171.331 96.831 171.365 96.6009H173.078C173.049 97.1009 172.913 97.5412 172.669 97.9219C172.427 98.2997 172.093 98.5952 171.667 98.8082C171.241 99.0213 170.737 99.1278 170.154 99.1278ZM177.722 92.4545V93.8182H173.78V92.4545H177.722ZM174.675 90.8864H176.49V96.9886C176.49 97.1562 176.516 97.2869 176.567 97.3807C176.618 97.4716 176.689 97.5355 176.78 97.5724C176.874 97.6094 176.982 97.6278 177.104 97.6278C177.189 97.6278 177.274 97.6207 177.359 97.6065C177.445 97.5895 177.51 97.5767 177.555 97.5682L177.841 98.919C177.75 98.9474 177.622 98.9801 177.457 99.017C177.293 99.0568 177.092 99.081 176.857 99.0895C176.419 99.1065 176.036 99.0483 175.706 98.9148C175.379 98.7812 175.125 98.5739 174.943 98.2926C174.761 98.0114 174.672 97.6562 174.675 97.2273V90.8864Z" fill="white"/>
<rect x="196.5" y="82.5" width="59" height="24" rx="4.5" fill="#092AD0" fill-opacity="0.56" stroke="#092AD0"/>
<path d="M206.031 99L207.463 90.2727H208.827L207.395 99H206.031ZM202.124 96.8352L202.349 95.4716H209.168L208.942 96.8352H202.124ZM202.963 99L204.395 90.2727H205.759L204.327 99H202.963ZM202.622 93.8011L202.852 92.4375H209.67L209.44 93.8011H202.622ZM213.329 99V90.2727H219.107V91.794H215.174V93.8736H218.724V95.3949H215.174V99H213.329ZM220.314 99V92.4545H222.13V99H220.314ZM221.226 91.6108C220.956 91.6108 220.725 91.5213 220.532 91.3423C220.341 91.1605 220.246 90.9432 220.246 90.6903C220.246 90.4403 220.341 90.2259 220.532 90.0469C220.725 89.8651 220.956 89.7741 221.226 89.7741C221.496 89.7741 221.726 89.8651 221.917 90.0469C222.11 90.2259 222.206 90.4403 222.206 90.6903C222.206 90.9432 222.11 91.1605 221.917 91.3423C221.726 91.5213 221.496 91.6108 221.226 91.6108ZM226.533 101.591C225.945 101.591 225.44 101.51 225.02 101.348C224.602 101.189 224.27 100.972 224.023 100.696C223.776 100.42 223.615 100.111 223.541 99.767L225.22 99.5412C225.271 99.6719 225.352 99.794 225.463 99.9077C225.574 100.021 225.72 100.112 225.902 100.18C226.087 100.251 226.311 100.287 226.575 100.287C226.97 100.287 227.295 100.19 227.551 99.9972C227.81 99.8068 227.939 99.4872 227.939 99.0384V97.8409H227.862C227.783 98.0227 227.663 98.1946 227.504 98.3565C227.345 98.5185 227.141 98.6506 226.891 98.7528C226.641 98.8551 226.342 98.9062 225.996 98.9062C225.504 98.9062 225.057 98.7926 224.653 98.5653C224.253 98.3352 223.933 97.9844 223.695 97.5128C223.459 97.0384 223.341 96.4389 223.341 95.7145C223.341 94.973 223.462 94.3537 223.703 93.8565C223.945 93.3594 224.266 92.9872 224.666 92.7401C225.07 92.4929 225.511 92.3693 225.991 92.3693C226.358 92.3693 226.665 92.4318 226.912 92.5568C227.159 92.679 227.358 92.8324 227.509 93.017C227.662 93.1989 227.78 93.3778 227.862 93.554H227.93V92.4545H229.733V99.0639C229.733 99.6207 229.597 100.087 229.324 100.462C229.051 100.837 228.673 101.118 228.19 101.305C227.71 101.496 227.158 101.591 226.533 101.591ZM226.571 97.5426C226.864 97.5426 227.111 97.4702 227.312 97.3253C227.517 97.1776 227.673 96.9673 227.781 96.6946C227.892 96.419 227.947 96.0895 227.947 95.706C227.947 95.3224 227.893 94.9901 227.786 94.7088C227.678 94.4247 227.521 94.2045 227.317 94.0483C227.112 93.892 226.864 93.8139 226.571 93.8139C226.273 93.8139 226.021 93.8949 225.817 94.0568C225.612 94.2159 225.457 94.4375 225.352 94.7216C225.247 95.0057 225.195 95.3338 225.195 95.706C225.195 96.0838 225.247 96.4105 225.352 96.6861C225.46 96.9588 225.615 97.1705 225.817 97.321C226.021 97.4687 226.273 97.5426 226.571 97.5426ZM231.178 99V92.4545H232.908V93.6094H232.984C233.121 93.2259 233.348 92.9233 233.666 92.7017C233.984 92.4801 234.365 92.3693 234.808 92.3693C235.257 92.3693 235.639 92.4815 235.955 92.706C236.27 92.9276 236.48 93.2287 236.585 93.6094H236.653C236.787 93.2344 237.028 92.9347 237.378 92.7102C237.73 92.483 238.146 92.3693 238.626 92.3693C239.237 92.3693 239.733 92.5639 240.114 92.9531C240.497 93.3395 240.689 93.8878 240.689 94.598V99H238.878V94.956C238.878 94.5923 238.781 94.3196 238.588 94.1378C238.395 93.956 238.153 93.8651 237.864 93.8651C237.534 93.8651 237.277 93.9702 237.092 94.1804C236.908 94.3878 236.815 94.6619 236.815 95.0028V99H235.055V94.9176C235.055 94.5966 234.963 94.3409 234.778 94.1506C234.597 93.9602 234.357 93.8651 234.058 93.8651C233.857 93.8651 233.675 93.9162 233.513 94.0185C233.354 94.1179 233.227 94.2585 233.134 94.4403C233.04 94.6193 232.993 94.8295 232.993 95.071V99H231.178ZM243.989 99.1236C243.572 99.1236 243.2 99.0511 242.873 98.9062C242.546 98.7585 242.288 98.5412 242.097 98.2543C241.91 97.9645 241.816 97.6037 241.816 97.1719C241.816 96.8082 241.883 96.5028 242.016 96.2557C242.15 96.0085 242.332 95.8097 242.562 95.6591C242.792 95.5085 243.053 95.3949 243.346 95.3182C243.641 95.2415 243.951 95.1875 244.275 95.1562C244.656 95.1165 244.962 95.0795 245.195 95.0455C245.428 95.0085 245.597 94.9545 245.702 94.8835C245.808 94.8125 245.86 94.7074 245.86 94.5682V94.5426C245.86 94.2727 245.775 94.0639 245.604 93.9162C245.437 93.7685 245.198 93.6946 244.888 93.6946C244.562 93.6946 244.302 93.767 244.109 93.9119C243.915 94.054 243.788 94.233 243.725 94.4489L242.046 94.3125C242.131 93.9148 242.299 93.571 242.549 93.2812C242.799 92.9886 243.121 92.7642 243.516 92.608C243.914 92.4489 244.374 92.3693 244.897 92.3693C245.261 92.3693 245.609 92.4119 245.941 92.4972C246.276 92.5824 246.573 92.7145 246.832 92.8935C247.093 93.0724 247.299 93.3026 247.45 93.5838C247.6 93.8622 247.675 94.196 247.675 94.5852V99H245.954V98.0923H245.903C245.798 98.2969 245.657 98.4773 245.481 98.6335C245.305 98.7869 245.093 98.9077 244.846 98.9957C244.599 99.081 244.313 99.1236 243.989 99.1236ZM244.509 97.8707C244.776 97.8707 245.012 97.8182 245.217 97.7131C245.421 97.6051 245.582 97.4602 245.698 97.2784C245.815 97.0966 245.873 96.8906 245.873 96.6605V95.9659C245.816 96.0028 245.738 96.0369 245.638 96.0682C245.542 96.0966 245.433 96.1236 245.31 96.1491C245.188 96.1719 245.066 96.1932 244.944 96.2131C244.822 96.2301 244.711 96.2457 244.612 96.2599C244.398 96.2912 244.212 96.3409 244.053 96.4091C243.894 96.4773 243.771 96.5696 243.683 96.6861C243.594 96.7997 243.55 96.9418 243.55 97.1122C243.55 97.3594 243.64 97.5483 243.819 97.679C244.001 97.8068 244.231 97.8707 244.509 97.8707Z" fill="white"/>
<rect x="265.5" y="82.5" width="94" height="24" rx="4.5" fill="#092AD0" fill-opacity="0.56" stroke="#092AD0"/>
<path d="M279.031 99L280.463 90.2727H281.827L280.395 99H279.031ZM275.124 96.8352L275.349 95.4716H282.168L281.942 96.8352H275.124ZM275.963 99L277.395 90.2727H278.759L277.327 99H275.963ZM275.622 93.8011L275.852 92.4375H282.67L282.44 93.8011H275.622ZM286.329 99V90.2727H288.174V93.8736H291.92V90.2727H293.761V99H291.92V95.3949H288.174V99H286.329ZM294.95 91.794V90.2727H302.117V91.794H299.445V99H297.621V91.794H294.95ZM303.298 90.2727H305.573L307.977 96.1364H308.079L310.482 90.2727H312.758V99H310.968V93.3196H310.896L308.637 98.9574H307.418L305.16 93.2983H305.087V99H303.298V90.2727ZM314.278 99V90.2727H316.123V97.4787H319.865V99H314.278ZM324.854 89.8636L322.041 100.312H320.477L323.29 89.8636H324.854ZM333.463 93.3281H331.596C331.562 93.0866 331.493 92.8722 331.387 92.6847C331.282 92.4943 331.147 92.3324 330.983 92.1989C330.818 92.0653 330.627 91.9631 330.412 91.892C330.199 91.821 329.967 91.7855 329.717 91.7855C329.265 91.7855 328.872 91.8977 328.537 92.1222C328.201 92.3437 327.941 92.6676 327.757 93.0938C327.572 93.517 327.48 94.0312 327.48 94.6364C327.48 95.2585 327.572 95.7812 327.757 96.2045C327.944 96.6278 328.206 96.9474 328.541 97.1634C328.876 97.3793 329.264 97.4872 329.704 97.4872C329.951 97.4872 330.18 97.4545 330.39 97.3892C330.603 97.3239 330.792 97.2287 330.957 97.1037C331.122 96.9759 331.258 96.821 331.366 96.6392C331.477 96.4574 331.554 96.25 331.596 96.017L333.463 96.0256C333.414 96.4261 333.294 96.8125 333.1 97.1847C332.91 97.554 332.653 97.8849 332.329 98.1776C332.008 98.4673 331.625 98.6974 331.179 98.8679C330.735 99.0355 330.234 99.1193 329.674 99.1193C328.896 99.1193 328.2 98.9432 327.586 98.5909C326.975 98.2386 326.493 97.7287 326.137 97.0611C325.785 96.3935 325.609 95.5852 325.609 94.6364C325.609 93.6847 325.788 92.875 326.146 92.2074C326.504 91.5398 326.99 91.0312 327.603 90.6818C328.217 90.3295 328.907 90.1534 329.674 90.1534C330.18 90.1534 330.649 90.2244 331.081 90.3665C331.515 90.5085 331.9 90.7159 332.235 90.9886C332.571 91.2585 332.843 91.5895 333.054 91.9815C333.267 92.3736 333.403 92.8224 333.463 93.3281ZM339.52 92.7827C339.486 92.4389 339.34 92.1719 339.081 91.9815C338.823 91.7912 338.472 91.696 338.029 91.696C337.728 91.696 337.473 91.7386 337.266 91.8239C337.059 91.9062 336.9 92.0213 336.789 92.169C336.681 92.3168 336.627 92.4844 336.627 92.6719C336.621 92.8281 336.654 92.9645 336.725 93.081C336.799 93.1974 336.9 93.2983 337.027 93.3835C337.155 93.4659 337.303 93.5384 337.471 93.6009C337.638 93.6605 337.817 93.7116 338.007 93.7543L338.792 93.9418C339.172 94.027 339.522 94.1406 339.84 94.2827C340.158 94.4247 340.434 94.5994 340.667 94.8068C340.9 95.0142 341.08 95.2585 341.208 95.5398C341.338 95.821 341.405 96.1435 341.408 96.5071C341.405 97.0412 341.269 97.5043 340.999 97.8963C340.732 98.2855 340.346 98.5881 339.84 98.804C339.337 99.017 338.73 99.1236 338.02 99.1236C337.316 99.1236 336.702 99.0156 336.179 98.7997C335.659 98.5838 335.253 98.2642 334.961 97.8409C334.671 97.4148 334.519 96.8878 334.505 96.2599H336.29C336.31 96.5526 336.394 96.7969 336.542 96.9929C336.692 97.1861 336.892 97.3324 337.142 97.4318C337.395 97.5284 337.681 97.5767 337.999 97.5767C338.311 97.5767 338.583 97.5312 338.813 97.4403C339.046 97.3494 339.226 97.223 339.354 97.0611C339.482 96.8991 339.546 96.7131 339.546 96.5028C339.546 96.3068 339.488 96.142 339.371 96.0085C339.257 95.875 339.09 95.7614 338.868 95.6676C338.65 95.5739 338.381 95.4886 338.063 95.4119L337.113 95.1733C336.377 94.9943 335.796 94.7145 335.37 94.3338C334.944 93.9531 334.732 93.4403 334.735 92.7955C334.732 92.267 334.873 91.8054 335.157 91.4105C335.444 91.0156 335.837 90.7074 336.337 90.4858C336.837 90.2642 337.405 90.1534 338.042 90.1534C338.689 90.1534 339.255 90.2642 339.738 90.4858C340.223 90.7074 340.601 91.0156 340.871 91.4105C341.141 91.8054 341.28 92.2628 341.289 92.7827H339.52ZM347.384 92.7827C347.349 92.4389 347.203 92.1719 346.945 91.9815C346.686 91.7912 346.335 91.696 345.892 91.696C345.591 91.696 345.337 91.7386 345.129 91.8239C344.922 91.9062 344.763 92.0213 344.652 92.169C344.544 92.3168 344.49 92.4844 344.49 92.6719C344.484 92.8281 344.517 92.9645 344.588 93.081C344.662 93.1974 344.763 93.2983 344.891 93.3835C345.018 93.4659 345.166 93.5384 345.334 93.6009C345.501 93.6605 345.68 93.7116 345.871 93.7543L346.655 93.9418C347.036 94.027 347.385 94.1406 347.703 94.2827C348.021 94.4247 348.297 94.5994 348.53 94.8068C348.763 95.0142 348.943 95.2585 349.071 95.5398C349.202 95.821 349.268 96.1435 349.271 96.5071C349.268 97.0412 349.132 97.5043 348.862 97.8963C348.595 98.2855 348.209 98.5881 347.703 98.804C347.2 99.017 346.594 99.1236 345.884 99.1236C345.179 99.1236 344.565 99.0156 344.043 98.7997C343.523 98.5838 343.116 98.2642 342.824 97.8409C342.534 97.4148 342.382 96.8878 342.368 96.2599H344.153C344.173 96.5526 344.257 96.7969 344.405 96.9929C344.555 97.1861 344.756 97.3324 345.006 97.4318C345.259 97.5284 345.544 97.5767 345.862 97.5767C346.175 97.5767 346.446 97.5312 346.676 97.4403C346.909 97.3494 347.089 97.223 347.217 97.0611C347.345 96.8991 347.409 96.7131 347.409 96.5028C347.409 96.3068 347.351 96.142 347.234 96.0085C347.121 95.875 346.953 95.7614 346.732 95.6676C346.513 95.5739 346.244 95.4886 345.926 95.4119L344.976 95.1733C344.24 94.9943 343.659 94.7145 343.233 94.3338C342.807 93.9531 342.595 93.4403 342.598 92.7955C342.595 92.267 342.736 91.8054 343.02 91.4105C343.307 91.0156 343.7 90.7074 344.2 90.4858C344.7 90.2642 345.268 90.1534 345.905 90.1534C346.553 90.1534 347.118 90.2642 347.601 90.4858C348.087 90.7074 348.464 91.0156 348.734 91.4105C349.004 91.8054 349.143 92.2628 349.152 92.7827H347.384Z" fill="white"/>
</svg>
