<svg width="308" height="89" viewBox="0 0 308 89" fill="none" xmlns="http://www.w3.org/2000/svg">
<g filter="url(#filter0_d_799_1347)">
<rect x="4" width="300" height="81" rx="21" fill="white"/>
<circle cx="49" cy="40.2" r="24" fill="#C4C4C4"/>
<rect x="38.1992" y="43.2" width="21.6" height="12" rx="3" fill="white"/>
<circle cx="48.6992" cy="33.3" r="7.5" fill="white"/>
<path d="M84.0515 31.2H80.9577V22.4727H84.0771C84.9549 22.4727 85.7106 22.6474 86.3441 22.9968C86.9776 23.3434 87.4648 23.842 87.8058 24.4926C88.1495 25.1431 88.3214 25.9215 88.3214 26.8278C88.3214 27.7369 88.1495 28.5181 87.8058 29.1715C87.4648 29.825 86.9748 30.3264 86.3356 30.6758C85.6992 31.0252 84.9379 31.2 84.0515 31.2ZM82.8029 29.619H83.9748C84.5202 29.619 84.979 29.5224 85.3512 29.3292C85.7262 29.1332 86.0075 28.8306 86.195 28.4215C86.3853 28.0096 86.4805 27.4784 86.4805 26.8278C86.4805 26.1829 86.3853 25.6559 86.195 25.2468C86.0075 24.8377 85.7276 24.5366 85.3555 24.3434C84.9833 24.1502 84.5245 24.0536 83.979 24.0536H82.8029V29.619ZM91.5206 31.3235C91.103 31.3235 90.7308 31.2511 90.4041 31.1062C90.0774 30.9585 89.8189 30.7411 89.6286 30.4542C89.4411 30.1644 89.3473 29.8036 89.3473 29.3718C89.3473 29.0082 89.4141 28.7028 89.5476 28.4556C89.6811 28.2085 89.8629 28.0096 90.093 27.859C90.3232 27.7085 90.5845 27.5948 90.8771 27.5181C91.1726 27.4414 91.4822 27.3875 91.8061 27.3562C92.1868 27.3164 92.4936 27.2795 92.7266 27.2454C92.9595 27.2085 93.1286 27.1545 93.2337 27.0835C93.3388 27.0125 93.3913 26.9073 93.3913 26.7681V26.7426C93.3913 26.4727 93.3061 26.2639 93.1357 26.1161C92.968 25.9684 92.7294 25.8946 92.4197 25.8946C92.093 25.8946 91.8331 25.967 91.6399 26.1119C91.4467 26.2539 91.3189 26.4329 91.2564 26.6488L89.5774 26.5125C89.6626 26.1147 89.8303 25.771 90.0803 25.4812C90.3303 25.1886 90.6527 24.9642 91.0476 24.8079C91.4453 24.6488 91.9055 24.5693 92.4283 24.5693C92.7919 24.5693 93.1399 24.6119 93.4723 24.6971C93.8075 24.7823 94.1044 24.9144 94.3629 25.0934C94.6243 25.2724 94.8303 25.5025 94.9808 25.7838C95.1314 26.0622 95.2067 26.396 95.2067 26.7852V31.2H93.4851V30.2923H93.4339C93.3288 30.4968 93.1882 30.6772 93.0121 30.8335C92.8359 30.9869 92.6243 31.1076 92.3771 31.1957C92.13 31.2809 91.8445 31.3235 91.5206 31.3235ZM92.0405 30.0707C92.3075 30.0707 92.5433 30.0181 92.7479 29.913C92.9524 29.8051 93.1129 29.6602 93.2294 29.4784C93.3459 29.2965 93.4041 29.0906 93.4041 28.8605V28.1659C93.3473 28.2028 93.2692 28.2369 93.1697 28.2681C93.0732 28.2965 92.9638 28.3235 92.8416 28.3491C92.7195 28.3718 92.5973 28.3931 92.4751 28.413C92.353 28.4301 92.2422 28.4457 92.1428 28.4599C91.9297 28.4911 91.7436 28.5409 91.5845 28.609C91.4254 28.6772 91.3018 28.7696 91.2138 28.886C91.1257 28.9997 91.0817 29.1417 91.0817 29.3122C91.0817 29.5593 91.1712 29.7482 91.3501 29.8789C91.532 30.0068 91.7621 30.0707 92.0405 30.0707ZM102.483 24.6545L100.195 31.2H98.1491L95.8608 24.6545H97.7784L99.1378 29.3377H99.206L100.561 24.6545H102.483ZM103.412 31.2V24.6545H105.227V31.2H103.412ZM104.324 23.8107C104.054 23.8107 103.822 23.7213 103.629 23.5423C103.439 23.3605 103.344 23.1431 103.344 22.8903C103.344 22.6403 103.439 22.4258 103.629 22.2468C103.822 22.065 104.054 21.9741 104.324 21.9741C104.594 21.9741 104.824 22.065 105.014 22.2468C105.207 22.4258 105.304 22.6403 105.304 22.8903C105.304 23.1431 105.207 23.3605 105.014 23.5423C104.824 23.7213 104.594 23.8107 104.324 23.8107ZM109.093 31.3065C108.596 31.3065 108.146 31.1786 107.743 30.923C107.342 30.6644 107.024 30.2852 106.788 29.7852C106.555 29.2823 106.439 28.6659 106.439 27.9357C106.439 27.1857 106.559 26.5622 106.801 26.065C107.042 25.565 107.363 25.1914 107.764 24.9443C108.167 24.6943 108.609 24.5693 109.089 24.5693C109.456 24.5693 109.761 24.6318 110.005 24.7568C110.252 24.8789 110.451 25.0323 110.602 25.217C110.755 25.3988 110.872 25.5778 110.951 25.7539H111.007V22.4727H112.818V31.2H111.028V30.1517H110.951C110.866 30.3335 110.745 30.5139 110.589 30.6928C110.436 30.869 110.235 31.0153 109.988 31.1318C109.744 31.2482 109.446 31.3065 109.093 31.3065ZM109.669 29.8619C109.961 29.8619 110.208 29.7823 110.41 29.6232C110.615 29.4613 110.771 29.2355 110.879 28.9457C110.99 28.6559 111.045 28.3164 111.045 27.9272C111.045 27.538 110.991 27.2 110.883 26.913C110.775 26.6261 110.619 26.4045 110.414 26.2482C110.21 26.092 109.961 26.0139 109.669 26.0139C109.37 26.0139 109.119 26.0948 108.914 26.2568C108.71 26.4187 108.555 26.6431 108.45 26.9301C108.345 27.217 108.292 27.5494 108.292 27.9272C108.292 28.3079 108.345 28.6446 108.45 28.9372C108.558 29.2269 108.713 29.4542 108.914 29.619C109.119 29.7809 109.37 29.8619 109.669 29.8619ZM117.122 22.4727H119.397L121.801 28.3363H121.903L124.306 22.4727H126.582V31.2H124.792V25.5196H124.72L122.461 31.1573H121.243L118.984 25.4982H118.912V31.2H117.122V22.4727ZM129.935 31.3235C129.517 31.3235 129.145 31.2511 128.818 31.1062C128.491 30.9585 128.233 30.7411 128.043 30.4542C127.855 30.1644 127.761 29.8036 127.761 29.3718C127.761 29.0082 127.828 28.7028 127.962 28.4556C128.095 28.2085 128.277 28.0096 128.507 27.859C128.737 27.7085 128.999 27.5948 129.291 27.5181C129.587 27.4414 129.896 27.3875 130.22 27.3562C130.601 27.3164 130.908 27.2795 131.141 27.2454C131.374 27.2085 131.543 27.1545 131.648 27.0835C131.753 27.0125 131.805 26.9073 131.805 26.7681V26.7426C131.805 26.4727 131.72 26.2639 131.55 26.1161C131.382 25.9684 131.143 25.8946 130.834 25.8946C130.507 25.8946 130.247 25.967 130.054 26.1119C129.861 26.2539 129.733 26.4329 129.67 26.6488L127.991 26.5125C128.077 26.1147 128.244 25.771 128.494 25.4812C128.744 25.1886 129.067 24.9642 129.462 24.8079C129.859 24.6488 130.32 24.5693 130.842 24.5693C131.206 24.5693 131.554 24.6119 131.886 24.6971C132.222 24.7823 132.518 24.9144 132.777 25.0934C133.038 25.2724 133.244 25.5025 133.395 25.7838C133.545 26.0622 133.621 26.396 133.621 26.7852V31.2H131.899V30.2923H131.848C131.743 30.4968 131.602 30.6772 131.426 30.8335C131.25 30.9869 131.038 31.1076 130.791 31.1957C130.544 31.2809 130.259 31.3235 129.935 31.3235ZM130.455 30.0707C130.722 30.0707 130.957 30.0181 131.162 29.913C131.366 29.8051 131.527 29.6602 131.643 29.4784C131.76 29.2965 131.818 29.0906 131.818 28.8605V28.1659C131.761 28.2028 131.683 28.2369 131.584 28.2681C131.487 28.2965 131.378 28.3235 131.256 28.3491C131.134 28.3718 131.011 28.3931 130.889 28.413C130.767 28.4301 130.656 28.4457 130.557 28.4599C130.344 28.4911 130.158 28.5409 129.999 28.609C129.839 28.6772 129.716 28.7696 129.628 28.886C129.54 28.9997 129.496 29.1417 129.496 29.3122C129.496 29.5593 129.585 29.7482 129.764 29.8789C129.946 30.0068 130.176 30.0707 130.455 30.0707ZM135.029 31.2V24.6545H136.789V25.7965H136.857C136.977 25.3903 137.177 25.0835 137.458 24.8761C137.739 24.6659 138.063 24.5607 138.43 24.5607C138.521 24.5607 138.619 24.5664 138.724 24.5778C138.829 24.5892 138.921 24.6048 139.001 24.6247V26.2355C138.915 26.2099 138.798 26.1872 138.647 26.1673C138.496 26.1474 138.359 26.1375 138.234 26.1375C137.967 26.1375 137.728 26.1957 137.518 26.3122C137.31 26.4258 137.146 26.5849 137.023 26.7894C136.904 26.994 136.844 27.2298 136.844 27.4968V31.2H135.029ZM143.749 24.6545V26.0181H139.807V24.6545H143.749ZM140.702 23.0863H142.517V29.1886C142.517 29.3562 142.543 29.4869 142.594 29.5806C142.645 29.6715 142.716 29.7355 142.807 29.7724C142.901 29.8093 143.009 29.8278 143.131 29.8278C143.216 29.8278 143.301 29.8207 143.387 29.8065C143.472 29.7894 143.537 29.7767 143.583 29.7681L143.868 31.119C143.777 31.1474 143.65 31.1801 143.485 31.217C143.32 31.2568 143.12 31.2809 142.884 31.2894C142.446 31.3065 142.063 31.2482 141.733 31.1147C141.407 30.9812 141.152 30.7738 140.971 30.4926C140.789 30.2113 140.699 29.8562 140.702 29.4272V23.0863ZM144.931 31.2V24.6545H146.747V31.2H144.931ZM145.843 23.8107C145.574 23.8107 145.342 23.7213 145.149 23.5423C144.958 23.3605 144.863 23.1431 144.863 22.8903C144.863 22.6403 144.958 22.4258 145.149 22.2468C145.342 22.065 145.574 21.9741 145.843 21.9741C146.113 21.9741 146.343 22.065 146.534 22.2468C146.727 22.4258 146.824 22.6403 146.824 22.8903C146.824 23.1431 146.727 23.3605 146.534 23.5423C146.343 23.7213 146.113 23.8107 145.843 23.8107ZM150.016 27.4159V31.2H148.201V24.6545H149.931V25.8093H150.008C150.153 25.4286 150.396 25.1275 150.737 24.9059C151.077 24.6815 151.491 24.5693 151.977 24.5693C152.431 24.5693 152.827 24.6687 153.165 24.8676C153.504 25.0664 153.766 25.3505 153.954 25.7198C154.141 26.0863 154.235 26.5238 154.235 27.0323V31.2H152.42V27.3562C152.423 26.9556 152.32 26.6431 152.113 26.4187C151.906 26.1914 151.62 26.0778 151.256 26.0778C151.012 26.0778 150.796 26.1303 150.609 26.2355C150.424 26.3406 150.279 26.494 150.174 26.6957C150.072 26.8946 150.019 27.1346 150.016 27.4159Z" fill="black"/>
<path d="M84.5935 38.2261C84.5663 37.9511 84.4492 37.7375 84.2424 37.5852C84.0356 37.4329 83.7549 37.3568 83.4004 37.3568C83.1594 37.3568 82.956 37.3909 82.7901 37.459C82.6242 37.525 82.4969 37.617 82.4083 37.7352C82.3219 37.8534 82.2788 37.9875 82.2788 38.1375C82.2742 38.2625 82.3004 38.3715 82.3572 38.4647C82.4163 38.5579 82.4969 38.6386 82.5992 38.7068C82.7015 38.7727 82.8197 38.8306 82.9538 38.8806C83.0879 38.9284 83.231 38.9693 83.3833 39.0034L84.0106 39.1534C84.3151 39.2215 84.5947 39.3125 84.8492 39.4261C85.1038 39.5397 85.3242 39.6795 85.5106 39.8454C85.6969 40.0113 85.8413 40.2068 85.9435 40.4318C86.0481 40.6568 86.1015 40.9147 86.1038 41.2056C86.1015 41.6329 85.9924 42.0034 85.7765 42.317C85.5629 42.6284 85.2538 42.8704 84.8492 43.0431C84.4469 43.2136 83.9617 43.2988 83.3935 43.2988C82.8299 43.2988 82.339 43.2125 81.9208 43.0397C81.5049 42.867 81.1799 42.6113 80.9458 42.2727C80.714 41.9318 80.5924 41.5102 80.581 41.0079H82.0094C82.0254 41.242 82.0924 41.4375 82.2106 41.5943C82.331 41.7488 82.4913 41.8659 82.6913 41.9454C82.8935 42.0227 83.1219 42.0613 83.3765 42.0613C83.6265 42.0613 83.8435 42.025 84.0276 41.9522C84.214 41.8795 84.3583 41.7784 84.4606 41.6488C84.5629 41.5193 84.614 41.3704 84.614 41.2022C84.614 41.0454 84.5674 40.9136 84.4742 40.8068C84.3833 40.7 84.2492 40.609 84.0719 40.534C83.8969 40.459 83.6822 40.3909 83.4276 40.3295L82.6674 40.1386C82.0788 39.9954 81.614 39.7715 81.2731 39.467C80.9322 39.1625 80.7629 38.7522 80.7651 38.2363C80.7629 37.8136 80.8754 37.4443 81.1026 37.1284C81.3322 36.8125 81.6469 36.5659 82.0469 36.3886C82.4469 36.2113 82.9015 36.1227 83.4106 36.1227C83.9288 36.1227 84.381 36.2113 84.7674 36.3886C85.156 36.5659 85.4583 36.8125 85.6742 37.1284C85.8901 37.4443 86.0015 37.8102 86.0083 38.2261H84.5935ZM89.4353 43.3022C88.9058 43.3022 88.4478 43.1897 88.0614 42.9647C87.6773 42.7375 87.3808 42.4215 87.1717 42.017C86.9626 41.6102 86.858 41.1386 86.858 40.6022C86.858 40.0613 86.9626 39.5886 87.1717 39.184C87.3808 38.7772 87.6773 38.4613 88.0614 38.2363C88.4478 38.009 88.9058 37.8954 89.4353 37.8954C89.9648 37.8954 90.4217 38.009 90.8058 38.2363C91.1921 38.4613 91.4898 38.7772 91.6989 39.184C91.908 39.5886 92.0126 40.0613 92.0126 40.6022C92.0126 41.1386 91.908 41.6102 91.6989 42.017C91.4898 42.4215 91.1921 42.7375 90.8058 42.9647C90.4217 43.1897 89.9648 43.3022 89.4353 43.3022ZM89.4421 42.1772C89.683 42.1772 89.8842 42.109 90.0455 41.9727C90.2069 41.834 90.3285 41.6454 90.4103 41.4068C90.4944 41.1681 90.5364 40.8965 90.5364 40.592C90.5364 40.2875 90.4944 40.0159 90.4103 39.7772C90.3285 39.5386 90.2069 39.35 90.0455 39.2113C89.8842 39.0727 89.683 39.0034 89.4421 39.0034C89.1989 39.0034 88.9944 39.0727 88.8285 39.2113C88.6648 39.35 88.541 39.5386 88.4569 39.7772C88.3751 40.0159 88.3342 40.2875 88.3342 40.592C88.3342 40.8965 88.3751 41.1681 88.4569 41.4068C88.541 41.6454 88.6648 41.834 88.8285 41.9727C88.9944 42.109 89.1989 42.1772 89.4421 42.1772ZM95.7728 37.9636V39.0545H92.541V37.9636H95.7728ZM93.2808 43.2V37.5852C93.2808 37.2056 93.3546 36.8909 93.5023 36.6409C93.6523 36.3909 93.8569 36.2034 94.116 36.0784C94.3751 35.9534 94.6694 35.8909 94.9989 35.8909C95.2217 35.8909 95.4251 35.9079 95.6092 35.942C95.7955 35.9761 95.9342 36.0068 96.0251 36.034L95.766 37.125C95.7092 37.1068 95.6387 37.0897 95.5546 37.0738C95.4728 37.0579 95.3887 37.05 95.3023 37.05C95.0887 37.05 94.9398 37.1 94.8558 37.2C94.7717 37.2977 94.7296 37.4352 94.7296 37.6125V43.2H93.2808ZM99.4452 37.9636V39.0545H96.2918V37.9636H99.4452ZM97.0077 36.709H98.46V41.5909C98.46 41.725 98.4805 41.8295 98.5214 41.9045C98.5623 41.9772 98.6191 42.0284 98.6918 42.0579C98.7668 42.0875 98.8532 42.1022 98.9509 42.1022C99.0191 42.1022 99.0873 42.0965 99.1555 42.0852C99.2237 42.0715 99.2759 42.0613 99.3123 42.0545L99.5407 43.1352C99.468 43.1579 99.3657 43.184 99.2339 43.2136C99.1021 43.2454 98.9418 43.2647 98.7532 43.2715C98.4032 43.2852 98.0964 43.2386 97.8327 43.1318C97.5714 43.025 97.368 42.859 97.2225 42.634C97.0771 42.409 97.0055 42.125 97.0077 41.7818V36.709ZM101.424 43.2L99.9992 37.9636H101.469L102.28 41.4818H102.328L103.173 37.9636H104.615L105.474 41.4613H105.519L106.316 37.9636H107.782L106.361 43.2H104.823L103.923 39.9068H103.858L102.958 43.2H101.424ZM110.05 43.2988C109.716 43.2988 109.418 43.2409 109.157 43.125C108.896 43.0068 108.689 42.8329 108.536 42.6034C108.386 42.3715 108.311 42.0829 108.311 41.7375C108.311 41.4465 108.365 41.2022 108.472 41.0045C108.578 40.8068 108.724 40.6477 108.908 40.5272C109.092 40.4068 109.301 40.3159 109.535 40.2545C109.772 40.1931 110.019 40.15 110.278 40.125C110.583 40.0931 110.828 40.0636 111.015 40.0363C111.201 40.0068 111.336 39.9636 111.421 39.9068C111.505 39.85 111.547 39.7659 111.547 39.6545V39.634C111.547 39.4181 111.478 39.2511 111.342 39.1329C111.208 39.0147 111.017 38.9556 110.769 38.9556C110.508 38.9556 110.3 39.0136 110.146 39.1295C109.991 39.2431 109.889 39.3863 109.839 39.559L108.496 39.45C108.564 39.1318 108.698 38.8568 108.898 38.625C109.098 38.3909 109.356 38.2113 109.672 38.0863C109.99 37.959 110.358 37.8954 110.776 37.8954C111.067 37.8954 111.346 37.9295 111.611 37.9977C111.88 38.0659 112.117 38.1715 112.324 38.3147C112.533 38.4579 112.698 38.642 112.818 38.867C112.939 39.0897 112.999 39.3568 112.999 39.6681V43.2H111.622V42.4738H111.581C111.497 42.6375 111.384 42.7818 111.243 42.9068C111.102 43.0295 110.933 43.1261 110.735 43.1965C110.538 43.2647 110.309 43.2988 110.05 43.2988ZM110.466 42.2965C110.68 42.2965 110.868 42.2545 111.032 42.1704C111.196 42.084 111.324 41.9681 111.417 41.8227C111.51 41.6772 111.557 41.5125 111.557 41.3284V40.7727C111.511 40.8022 111.449 40.8295 111.369 40.8545C111.292 40.8772 111.205 40.8988 111.107 40.9193C111.009 40.9375 110.911 40.9545 110.814 40.9704C110.716 40.984 110.627 40.9965 110.548 41.0079C110.377 41.0329 110.228 41.0727 110.101 41.1272C109.974 41.1818 109.875 41.2556 109.805 41.3488C109.734 41.4397 109.699 41.5534 109.699 41.6897C109.699 41.8875 109.771 42.0386 109.914 42.1431C110.059 42.2454 110.243 42.2965 110.466 42.2965ZM114.126 43.2V37.9636H115.534V38.8772H115.588C115.684 38.5522 115.844 38.3068 116.069 38.1409C116.294 37.9727 116.553 37.8886 116.846 37.8886C116.919 37.8886 116.997 37.8931 117.081 37.9022C117.165 37.9113 117.239 37.9238 117.303 37.9397V39.2284C117.235 39.2079 117.14 39.1897 117.02 39.1738C116.9 39.1579 116.789 39.15 116.689 39.15C116.476 39.15 116.285 39.1965 116.117 39.2897C115.951 39.3806 115.819 39.5079 115.721 39.6715C115.626 39.8352 115.578 40.0238 115.578 40.2375V43.2H114.126ZM120.196 43.3022C119.658 43.3022 119.194 43.1931 118.805 42.975C118.419 42.7545 118.121 42.4431 117.912 42.0409C117.703 41.6363 117.599 41.1579 117.599 40.6056C117.599 40.067 117.703 39.5943 117.912 39.1875C118.121 38.7806 118.416 38.4636 118.795 38.2363C119.177 38.009 119.625 37.8954 120.138 37.8954C120.484 37.8954 120.805 37.9511 121.103 38.0625C121.403 38.1715 121.665 38.3363 121.887 38.5568C122.112 38.7772 122.287 39.0545 122.412 39.3886C122.537 39.7204 122.6 40.109 122.6 40.5545V40.9534H118.178V40.0534H121.233C121.233 39.8443 121.187 39.659 121.096 39.4977C121.005 39.3363 120.879 39.2102 120.718 39.1193C120.559 39.0261 120.374 38.9795 120.162 38.9795C119.942 38.9795 119.746 39.0306 119.576 39.1329C119.408 39.2329 119.276 39.3681 119.18 39.5386C119.085 39.7068 119.036 39.8943 119.034 40.1011V40.9568C119.034 41.2159 119.082 41.4397 119.177 41.6284C119.275 41.817 119.412 41.9625 119.59 42.0647C119.767 42.167 119.977 42.2181 120.22 42.2181C120.382 42.2181 120.529 42.1954 120.663 42.15C120.798 42.1045 120.912 42.0363 121.008 41.9454C121.103 41.8545 121.176 41.7431 121.226 41.6113L122.569 41.7C122.501 42.0227 122.361 42.3045 122.15 42.5454C121.941 42.784 121.67 42.9704 121.338 43.1045C121.009 43.2363 120.628 43.3022 120.196 43.3022ZM125.797 43.2V36.2181H130.501V37.4352H127.273V39.0988H130.259V40.3159H127.273V41.9829H130.515V43.2H125.797ZM133.1 40.1727V43.2H131.648V37.9636H133.032V38.8875H133.093C133.209 38.5829 133.403 38.342 133.676 38.1647C133.949 37.9852 134.279 37.8954 134.668 37.8954C135.032 37.8954 135.349 37.975 135.619 38.134C135.89 38.2931 136.1 38.5204 136.25 38.8159C136.4 39.109 136.475 39.459 136.475 39.8659V43.2H135.023V40.125C135.025 39.8045 134.943 39.5545 134.777 39.375C134.611 39.1931 134.383 39.1022 134.092 39.1022C133.896 39.1022 133.724 39.1443 133.574 39.2284C133.426 39.3125 133.31 39.4352 133.226 39.5965C133.144 39.7556 133.102 39.9477 133.1 40.1727ZM139.978 45.2727C139.508 45.2727 139.105 45.2079 138.768 45.0784C138.434 44.9511 138.168 44.7772 137.971 44.5568C137.773 44.3363 137.644 44.0886 137.585 43.8136L138.928 43.6329C138.969 43.7375 139.034 43.8352 139.123 43.9261C139.211 44.017 139.328 44.0897 139.474 44.1443C139.622 44.2011 139.801 44.2295 140.013 44.2295C140.328 44.2295 140.589 44.1522 140.793 43.9977C141 43.8454 141.103 43.5897 141.103 43.2306V42.2727H141.042C140.978 42.4181 140.883 42.5556 140.756 42.6852C140.628 42.8147 140.465 42.9204 140.265 43.0022C140.065 43.084 139.826 43.125 139.549 43.125C139.156 43.125 138.798 43.034 138.475 42.8522C138.155 42.6681 137.899 42.3875 137.708 42.0102C137.519 41.6306 137.425 41.1511 137.425 40.5715C137.425 39.9784 137.522 39.4829 137.715 39.0852C137.908 38.6875 138.165 38.3897 138.485 38.192C138.808 37.9943 139.161 37.8954 139.546 37.8954C139.839 37.8954 140.084 37.9454 140.282 38.0454C140.48 38.1431 140.639 38.2659 140.759 38.4136C140.882 38.559 140.976 38.7022 141.042 38.8431H141.097V37.9636H142.539V43.2511C142.539 43.6965 142.43 44.0693 142.211 44.3693C141.993 44.6693 141.691 44.8943 141.305 45.0443C140.921 45.1965 140.478 45.2727 139.978 45.2727ZM140.009 42.034C140.243 42.034 140.441 41.9761 140.602 41.8602C140.766 41.742 140.891 41.5738 140.977 41.3556C141.066 41.1352 141.11 40.8715 141.11 40.5647C141.11 40.2579 141.067 39.992 140.981 39.767C140.894 39.5397 140.769 39.3636 140.606 39.2386C140.442 39.1136 140.243 39.0511 140.009 39.0511C139.771 39.0511 139.569 39.1159 139.406 39.2454C139.242 39.3727 139.118 39.55 139.034 39.7772C138.95 40.0045 138.908 40.267 138.908 40.5647C138.908 40.867 138.95 41.1284 139.034 41.3488C139.121 41.567 139.244 41.7363 139.406 41.8568C139.569 41.975 139.771 42.034 140.009 42.034ZM143.694 43.2V37.9636H145.147V43.2H143.694ZM144.424 37.2886C144.208 37.2886 144.023 37.217 143.868 37.0738C143.716 36.9284 143.64 36.7545 143.64 36.5522C143.64 36.3522 143.716 36.1806 143.868 36.0375C144.023 35.892 144.208 35.8193 144.424 35.8193C144.64 35.8193 144.824 35.892 144.976 36.0375C145.131 36.1806 145.208 36.3522 145.208 36.5522C145.208 36.7545 145.131 36.9284 144.976 37.0738C144.824 37.217 144.64 37.2886 144.424 37.2886ZM147.762 40.1727V43.2H146.31V37.9636H147.694V38.8875H147.755C147.871 38.5829 148.066 38.342 148.338 38.1647C148.611 37.9852 148.942 37.8954 149.33 37.8954C149.694 37.8954 150.011 37.975 150.282 38.134C150.552 38.2931 150.762 38.5204 150.912 38.8159C151.062 39.109 151.137 39.459 151.137 39.8659V43.2H149.685V40.125C149.687 39.8045 149.605 39.5545 149.44 39.375C149.274 39.1931 149.045 39.1022 148.754 39.1022C148.559 39.1022 148.386 39.1443 148.236 39.2284C148.088 39.3125 147.973 39.4352 147.888 39.5965C147.807 39.7556 147.765 39.9477 147.762 40.1727ZM154.668 43.3022C154.13 43.3022 153.666 43.1931 153.277 42.975C152.891 42.7545 152.593 42.4431 152.384 42.0409C152.175 41.6363 152.071 41.1579 152.071 40.6056C152.071 40.067 152.175 39.5943 152.384 39.1875C152.593 38.7806 152.888 38.4636 153.267 38.2363C153.649 38.009 154.097 37.8954 154.61 37.8954C154.956 37.8954 155.277 37.9511 155.575 38.0625C155.875 38.1715 156.136 38.3363 156.359 38.5568C156.584 38.7772 156.759 39.0545 156.884 39.3886C157.009 39.7204 157.072 40.109 157.072 40.5545V40.9534H152.65V40.0534H155.705C155.705 39.8443 155.659 39.659 155.568 39.4977C155.477 39.3363 155.351 39.2102 155.19 39.1193C155.031 39.0261 154.846 38.9795 154.634 38.9795C154.414 38.9795 154.218 39.0306 154.048 39.1329C153.88 39.2329 153.748 39.3681 153.652 39.5386C153.557 39.7068 153.508 39.8943 153.506 40.1011V40.9568C153.506 41.2159 153.553 41.4397 153.649 41.6284C153.747 41.817 153.884 41.9625 154.061 42.0647C154.239 42.167 154.449 42.2181 154.692 42.2181C154.853 42.2181 155.001 42.1954 155.135 42.15C155.269 42.1045 155.384 42.0363 155.48 41.9454C155.575 41.8545 155.648 41.7431 155.698 41.6113L157.041 41.7C156.973 42.0227 156.833 42.3045 156.622 42.5454C156.413 42.784 156.142 42.9704 155.81 43.1045C155.481 43.2363 155.1 43.3022 154.668 43.3022ZM160.406 43.3022C159.867 43.3022 159.403 43.1931 159.015 42.975C158.628 42.7545 158.331 42.4431 158.122 42.0409C157.913 41.6363 157.808 41.1579 157.808 40.6056C157.808 40.067 157.913 39.5943 158.122 39.1875C158.331 38.7806 158.625 38.4636 159.005 38.2363C159.386 38.009 159.834 37.8954 160.348 37.8954C160.693 37.8954 161.015 37.9511 161.313 38.0625C161.613 38.1715 161.874 38.3363 162.097 38.5568C162.322 38.7772 162.497 39.0545 162.622 39.3886C162.747 39.7204 162.809 40.109 162.809 40.5545V40.9534H158.388V40.0534H161.442C161.442 39.8443 161.397 39.659 161.306 39.4977C161.215 39.3363 161.089 39.2102 160.927 39.1193C160.768 39.0261 160.583 38.9795 160.372 38.9795C160.151 38.9795 159.956 39.0306 159.785 39.1329C159.617 39.2329 159.485 39.3681 159.39 39.5386C159.294 39.7068 159.246 39.8943 159.243 40.1011V40.9568C159.243 41.2159 159.291 41.4397 159.386 41.6284C159.484 41.817 159.622 41.9625 159.799 42.0647C159.976 42.167 160.186 42.2181 160.43 42.2181C160.591 42.2181 160.739 42.1954 160.873 42.15C161.007 42.1045 161.122 42.0363 161.217 41.9454C161.313 41.8545 161.385 41.7431 161.435 41.6113L162.778 41.7C162.71 42.0227 162.571 42.3045 162.359 42.5454C162.15 42.784 161.88 42.9704 161.548 43.1045C161.218 43.2363 160.838 43.3022 160.406 43.3022ZM163.757 43.2V37.9636H165.165V38.8772H165.219C165.315 38.5522 165.475 38.3068 165.7 38.1409C165.925 37.9727 166.184 37.8886 166.477 37.8886C166.55 37.8886 166.628 37.8931 166.713 37.9022C166.797 37.9113 166.871 37.9238 166.934 37.9397V39.2284C166.866 39.2079 166.772 39.1897 166.651 39.1738C166.531 39.1579 166.421 39.15 166.321 39.15C166.107 39.15 165.916 39.1965 165.748 39.2897C165.582 39.3806 165.45 39.5079 165.352 39.6715C165.257 39.8352 165.209 40.0238 165.209 40.2375V43.2H163.757Z" fill="#092AD0"/>
<rect x="80.4992" y="49.5" width="35.4" height="14.4" rx="2.7" fill="#092AD0" fill-opacity="0.56" stroke="#092AD0" stroke-width="0.6"/>
<path d="M86.8191 59.2L87.6782 53.9636H88.4964L87.6373 59.2H86.8191ZM84.4745 57.9011L84.61 57.0829H88.701L88.5654 57.9011H84.4745ZM84.9782 59.2L85.8373 53.9636H86.6555L85.7964 59.2H84.9782ZM84.7737 56.0806L84.9118 55.2625H89.0027L88.8646 56.0806H84.7737ZM91.1977 59.2V53.9636H93.2636C93.6591 53.9636 93.9966 54.0343 94.2761 54.1758C94.5574 54.3156 94.7713 54.5142 94.9179 54.7715C95.0662 55.0272 95.1403 55.3281 95.1403 55.6741C95.1403 56.0218 95.0653 56.321 94.9153 56.5715C94.7653 56.8204 94.548 57.0113 94.2633 57.1443C93.9804 57.2772 93.6377 57.3437 93.2355 57.3437H91.8522V56.4539H93.0565C93.2679 56.4539 93.4434 56.425 93.5832 56.367C93.723 56.309 93.827 56.2221 93.8951 56.1062C93.965 55.9903 94 55.8463 94 55.6741C94 55.5002 93.965 55.3536 93.8951 55.2343C93.827 55.115 93.7221 55.0247 93.5806 54.9633C93.4409 54.9002 93.2645 54.8687 93.0514 54.8687H92.3048V59.2H91.1977ZM94.0255 56.817L95.327 59.2H94.1048L92.8315 56.817H94.0255ZM97.6287 59.2767C97.2248 59.2767 96.877 59.1948 96.5855 59.0312C96.2958 58.8659 96.0725 58.6323 95.9157 58.3306C95.7588 58.0272 95.6804 57.6684 95.6804 57.2542C95.6804 56.8502 95.7588 56.4957 95.9157 56.1906C96.0725 55.8855 96.2932 55.6477 96.5779 55.4772C96.8642 55.3068 97.2 55.2215 97.5853 55.2215C97.8444 55.2215 98.0855 55.2633 98.3088 55.3468C98.5338 55.4286 98.7299 55.5522 98.8969 55.7176C99.0657 55.8829 99.1969 56.0909 99.2907 56.3414C99.3844 56.5903 99.4313 56.8818 99.4313 57.2159V57.515H96.1151V56.84H98.406C98.406 56.6832 98.3719 56.5443 98.3037 56.4232C98.2355 56.3022 98.1409 56.2076 98.0199 56.1394C97.9006 56.0696 97.7617 56.0346 97.6032 56.0346C97.4378 56.0346 97.2912 56.073 97.1634 56.1497C97.0373 56.2247 96.9384 56.3261 96.8668 56.4539C96.7952 56.5801 96.7586 56.7207 96.7569 56.8758V57.5176C96.7569 57.7119 96.7926 57.8798 96.8642 58.0213C96.9375 58.1627 97.0407 58.2718 97.1736 58.3485C97.3066 58.4252 97.4642 58.4636 97.6466 58.4636C97.7676 58.4636 97.8784 58.4465 97.979 58.4125C98.0796 58.3784 98.1657 58.3272 98.2373 58.259C98.3088 58.1909 98.3634 58.1073 98.4009 58.0085L99.4083 58.075C99.3571 58.317 99.2523 58.5284 99.0938 58.709C98.937 58.888 98.7341 59.0278 98.4853 59.1284C98.2381 59.2272 97.9526 59.2767 97.6287 59.2767ZM101.262 59.2741C101.011 59.2741 100.788 59.2306 100.592 59.1437C100.396 59.0551 100.241 58.9247 100.127 58.7525C100.014 58.5786 99.958 58.3622 99.958 58.1031C99.958 57.8849 99.998 57.7017 100.078 57.5534C100.158 57.4051 100.267 57.2857 100.405 57.1954C100.544 57.1051 100.7 57.0369 100.876 56.9909C101.053 56.9448 101.239 56.9125 101.433 56.8937C101.662 56.8698 101.846 56.8477 101.986 56.8272C102.125 56.8051 102.227 56.7727 102.29 56.7301C102.353 56.6875 102.384 56.6244 102.384 56.5409V56.5255C102.384 56.3636 102.333 56.2383 102.231 56.1497C102.13 56.061 101.987 56.0167 101.801 56.0167C101.605 56.0167 101.449 56.0602 101.334 56.1471C101.218 56.2323 101.141 56.3397 101.103 56.4693L100.096 56.3875C100.147 56.1488 100.248 55.9426 100.398 55.7687C100.548 55.5931 100.741 55.4585 100.978 55.3647C101.217 55.2693 101.493 55.2215 101.807 55.2215C102.025 55.2215 102.234 55.2471 102.433 55.2982C102.634 55.3494 102.812 55.4286 102.967 55.536C103.124 55.6434 103.248 55.7815 103.338 55.9502C103.428 56.1173 103.474 56.3176 103.474 56.5511V59.2H102.441V58.6553H102.41C102.347 58.7781 102.263 58.8863 102.157 58.9801C102.051 59.0721 101.924 59.1446 101.776 59.1974C101.628 59.2485 101.456 59.2741 101.262 59.2741ZM101.574 58.5224C101.734 58.5224 101.876 58.4909 101.998 58.4278C102.121 58.363 102.217 58.2761 102.287 58.167C102.357 58.0579 102.392 57.9343 102.392 57.7963V57.3795C102.358 57.4017 102.311 57.4221 102.251 57.4409C102.194 57.4579 102.128 57.4741 102.055 57.4894C101.981 57.5031 101.908 57.5159 101.835 57.5278C101.761 57.538 101.695 57.5474 101.635 57.5559C101.507 57.5747 101.396 57.6045 101.3 57.6454C101.205 57.6863 101.131 57.7417 101.078 57.8116C101.025 57.8798 100.999 57.965 100.999 58.0673C100.999 58.2156 101.052 58.3289 101.16 58.4073C101.269 58.484 101.407 58.5224 101.574 58.5224ZM106.093 59.2767C105.691 59.2767 105.345 59.1914 105.055 59.021C104.767 58.8488 104.545 58.6102 104.39 58.3051C104.237 58 104.16 57.6488 104.16 57.2517C104.16 56.8494 104.238 56.4965 104.393 56.1931C104.55 55.888 104.772 55.6502 105.06 55.4798C105.348 55.3076 105.691 55.2215 106.088 55.2215C106.431 55.2215 106.731 55.2838 106.988 55.4082C107.245 55.5326 107.449 55.7073 107.599 55.9323C107.749 56.1573 107.832 56.4215 107.847 56.725H106.819C106.79 56.5289 106.714 56.3713 106.589 56.2519C106.466 56.1309 106.305 56.0704 106.106 56.0704C105.937 56.0704 105.79 56.1164 105.664 56.2085C105.539 56.2988 105.442 56.4309 105.372 56.6048C105.302 56.7786 105.267 56.9892 105.267 57.2363C105.267 57.4869 105.301 57.7 105.369 57.8755C105.439 58.0511 105.537 58.1849 105.664 58.2769C105.79 58.369 105.937 58.415 106.106 58.415C106.23 58.415 106.342 58.3894 106.441 58.3383C106.541 58.2872 106.624 58.213 106.689 58.1159C106.755 58.017 106.799 57.8985 106.819 57.7605H107.847C107.83 58.0605 107.748 58.3247 107.602 58.5531C107.457 58.7798 107.256 58.9571 107.001 59.0849C106.745 59.2127 106.443 59.2767 106.093 59.2767ZM110.633 55.2727V56.0909H108.268V55.2727H110.633ZM108.805 54.3318H109.894V57.9931C109.894 58.0937 109.91 58.1721 109.94 58.2284C109.971 58.2829 110.014 58.3213 110.068 58.3434C110.125 58.3656 110.189 58.3767 110.263 58.3767C110.314 58.3767 110.365 58.3724 110.416 58.3639C110.467 58.3536 110.506 58.346 110.534 58.3409L110.705 59.1514C110.65 59.1684 110.574 59.188 110.475 59.2102C110.376 59.234 110.256 59.2485 110.114 59.2536C109.852 59.2639 109.622 59.2289 109.424 59.1488C109.228 59.0687 109.075 58.9443 108.966 58.7755C108.857 58.6068 108.804 58.3937 108.805 58.1363V54.3318Z" fill="white"/>
<rect x="121.9" y="49.5" width="56.4" height="14.4" rx="2.7" fill="#092AD0" fill-opacity="0.56" stroke="#092AD0" stroke-width="0.6"/>
<path d="M130.018 59.2L130.877 53.9636H131.696L130.837 59.2H130.018ZM127.674 57.9011L127.809 57.0829H131.9L131.765 57.9011H127.674ZM128.177 59.2L129.037 53.9636H129.855L128.996 59.2H128.177ZM127.973 56.0806L128.111 55.2625H132.202L132.064 56.0806H127.973ZM127.855 63.8764V62.9636H132.156V63.8764H130.553V68.2H129.458V63.8764H127.855ZM133.066 69.6727C132.928 69.6727 132.798 69.6616 132.677 69.6394C132.558 69.619 132.459 69.5926 132.381 69.5602L132.626 68.7471C132.754 68.7863 132.869 68.8076 132.971 68.811C133.075 68.8144 133.165 68.7906 133.24 68.7394C133.317 68.6883 133.379 68.6014 133.427 68.4786L133.491 68.3125L132.082 64.2727H133.227L134.04 67.1568H134.081L134.902 64.2727H136.055L134.529 68.6244C134.455 68.8357 134.356 69.0198 134.229 69.1767C134.105 69.3352 133.947 69.4571 133.756 69.5423C133.566 69.6292 133.335 69.6727 133.066 69.6727ZM136.612 69.6727V64.2727H137.686V64.9323H137.735C137.783 64.8267 137.852 64.7193 137.942 64.6102C138.034 64.4994 138.153 64.4073 138.3 64.334C138.448 64.259 138.632 64.2215 138.852 64.2215C139.139 64.2215 139.403 64.2965 139.645 64.4465C139.887 64.5948 140.08 64.819 140.225 65.119C140.37 65.4173 140.443 65.7914 140.443 66.2414C140.443 66.6795 140.372 67.0494 140.23 67.3511C140.091 67.6511 139.9 67.8786 139.658 68.0338C139.417 68.1872 139.148 68.2639 138.85 68.2639C138.638 68.2639 138.458 68.2289 138.31 68.159C138.164 68.0892 138.043 68.0014 137.95 67.8957C137.856 67.7883 137.784 67.6801 137.735 67.571H137.702V69.6727H136.612ZM137.679 66.2363C137.679 66.4698 137.711 66.6735 137.776 66.8474C137.841 67.0213 137.934 67.1568 138.057 67.2539C138.18 67.3494 138.329 67.3971 138.504 67.3971C138.682 67.3971 138.832 67.3485 138.954 67.2514C139.077 67.1525 139.17 67.0161 139.233 66.8423C139.298 66.6667 139.33 66.4647 139.33 66.2363C139.33 66.0096 139.299 65.8102 139.236 65.638C139.173 65.4659 139.08 65.3312 138.957 65.234C138.834 65.1369 138.683 65.0883 138.504 65.0883C138.327 65.0883 138.177 65.1352 138.054 65.2289C137.933 65.3227 137.841 65.4556 137.776 65.6278C137.711 65.8 137.679 66.0028 137.679 66.2363ZM142.958 68.2767C142.554 68.2767 142.207 68.1948 141.915 68.0312C141.625 67.8659 141.402 67.6323 141.245 67.3306C141.089 67.0272 141.01 66.6684 141.01 66.2542C141.01 65.8502 141.089 65.4957 141.245 65.1906C141.402 64.8855 141.623 64.6477 141.908 64.4772C142.194 64.3068 142.53 64.2215 142.915 64.2215C143.174 64.2215 143.415 64.2633 143.639 64.3468C143.864 64.4286 144.06 64.5522 144.227 64.7176C144.395 64.8829 144.527 65.0909 144.62 65.3414C144.714 65.5903 144.761 65.8818 144.761 66.2159V66.515H141.445V65.84H143.736C143.736 65.6832 143.702 65.5443 143.633 65.4232C143.565 65.3022 143.471 65.2076 143.35 65.1394C143.23 65.0696 143.091 65.0346 142.933 65.0346C142.768 65.0346 142.621 65.073 142.493 65.1497C142.367 65.2247 142.268 65.3261 142.196 65.4539C142.125 65.5801 142.088 65.7207 142.087 65.8758V66.5176C142.087 66.7119 142.122 66.8798 142.194 67.0213C142.267 67.1627 142.37 67.2718 142.503 67.3485C142.636 67.4252 142.794 67.4636 142.976 67.4636C143.097 67.4636 143.208 67.4465 143.309 67.4125C143.409 67.3784 143.495 67.3272 143.567 67.259C143.639 67.1909 143.693 67.1073 143.731 67.0085L144.738 67.075C144.687 67.317 144.582 67.5284 144.423 67.709C144.267 67.888 144.064 68.0278 143.815 68.1284C143.568 68.2272 143.282 68.2767 142.958 68.2767ZM148.739 65.3926L147.742 65.4539C147.725 65.3687 147.689 65.292 147.632 65.2238C147.576 65.1539 147.502 65.0985 147.41 65.0576C147.319 65.015 147.211 64.9937 147.085 64.9937C146.916 64.9937 146.774 65.0295 146.658 65.1011C146.542 65.171 146.484 65.2647 146.484 65.3823C146.484 65.4761 146.522 65.5553 146.597 65.6201C146.672 65.6849 146.8 65.7369 146.983 65.7761L147.694 65.9193C148.075 65.9977 148.36 66.1238 148.548 66.2977C148.735 66.4715 148.829 66.7 148.829 66.9829C148.829 67.2403 148.753 67.4661 148.601 67.6605C148.451 67.8548 148.245 68.0065 147.983 68.1156C147.722 68.223 147.421 68.2767 147.08 68.2767C146.56 68.2767 146.146 68.1684 145.837 67.9519C145.531 67.7338 145.351 67.4372 145.298 67.0622L146.369 67.0059C146.402 67.1644 146.48 67.2855 146.604 67.369C146.729 67.4508 146.888 67.4917 147.083 67.4917C147.273 67.4917 147.427 67.4551 147.543 67.3818C147.66 67.3068 147.72 67.2105 147.722 67.0928C147.72 66.994 147.678 66.913 147.596 66.85C147.515 66.7852 147.389 66.7357 147.218 66.7017L146.538 66.5661C146.154 66.4894 145.869 66.3565 145.681 66.1673C145.496 65.9781 145.403 65.7369 145.403 65.4437C145.403 65.1914 145.471 64.9741 145.607 64.7917C145.745 64.6093 145.939 64.4687 146.188 64.3698C146.438 64.271 146.731 64.2215 147.067 64.2215C147.563 64.2215 147.954 64.3264 148.238 64.536C148.525 64.7457 148.692 65.0312 148.739 65.3926ZM151.289 68.2767C150.887 68.2767 150.541 68.1914 150.251 68.021C149.963 67.8488 149.741 67.6102 149.586 67.3051C149.433 67 149.356 66.6488 149.356 66.2517C149.356 65.8494 149.434 65.4965 149.589 65.1931C149.746 64.888 149.968 64.6502 150.256 64.4798C150.544 64.3076 150.887 64.2215 151.284 64.2215C151.627 64.2215 151.927 64.2838 152.184 64.4082C152.441 64.5326 152.645 64.7073 152.795 64.9323C152.945 65.1573 153.028 65.4215 153.043 65.725H152.015C151.986 65.5289 151.91 65.3713 151.785 65.2519C151.662 65.1309 151.501 65.0704 151.302 65.0704C151.133 65.0704 150.986 65.1164 150.86 65.2085C150.735 65.2988 150.638 65.4309 150.568 65.6048C150.498 65.7786 150.463 65.9892 150.463 66.2363C150.463 66.4869 150.497 66.7 150.566 66.8755C150.635 67.0511 150.733 67.1849 150.86 67.2769C150.986 67.369 151.133 67.415 151.302 67.415C151.426 67.415 151.538 67.3894 151.637 67.3383C151.737 67.2872 151.82 67.213 151.885 67.1159C151.951 67.017 151.995 66.8985 152.015 66.7605H153.043C153.026 67.0605 152.944 67.3247 152.798 67.5531C152.653 67.7798 152.453 67.9571 152.197 68.0849C151.941 68.2127 151.639 68.2767 151.289 68.2767ZM153.741 68.2V64.2727H154.796V64.9579H154.837C154.909 64.7142 155.029 64.5301 155.198 64.4056C155.367 64.2795 155.561 64.2164 155.781 64.2164C155.835 64.2164 155.894 64.2198 155.957 64.2267C156.02 64.2335 156.076 64.2428 156.123 64.2548V65.2213C156.072 65.2059 156.002 65.1923 155.911 65.1803C155.821 65.1684 155.738 65.1625 155.663 65.1625C155.503 65.1625 155.36 65.1974 155.234 65.2673C155.109 65.3355 155.01 65.4309 154.937 65.5536C154.866 65.6764 154.83 65.8178 154.83 65.9781V68.2H153.741ZM128.034 77.2V73.2727H129.123V77.2H128.034ZM128.581 72.7664C128.419 72.7664 128.281 72.7127 128.165 72.6053C128.05 72.4963 127.993 72.3659 127.993 72.2142C127.993 72.0642 128.05 71.9355 128.165 71.8281C128.281 71.719 128.419 71.6644 128.581 71.6644C128.743 71.6644 128.881 71.719 128.996 71.8281C129.112 71.9355 129.169 72.0642 129.169 72.2142C129.169 72.3659 129.112 72.4963 128.996 72.6053C128.881 72.7127 128.743 72.7664 128.581 72.7664ZM129.996 78.6727V73.2727H131.07V73.9323H131.118C131.166 73.8267 131.235 73.7193 131.326 73.6102C131.418 73.4994 131.537 73.4073 131.683 73.334C131.832 73.259 132.016 73.2215 132.236 73.2215C132.522 73.2215 132.786 73.2965 133.028 73.4465C133.27 73.5948 133.464 73.819 133.609 74.119C133.754 74.4173 133.826 74.7914 133.826 75.2414C133.826 75.6795 133.755 76.0494 133.614 76.3511C133.474 76.6511 133.283 76.8786 133.041 77.0338C132.801 77.1872 132.531 77.2639 132.233 77.2639C132.022 77.2639 131.842 77.2289 131.694 77.159C131.547 77.0892 131.427 77.0014 131.333 76.8957C131.239 76.7883 131.168 76.6801 131.118 76.571H131.085V78.6727H129.996ZM131.062 75.2363C131.062 75.4698 131.095 75.6735 131.159 75.8474C131.224 76.0213 131.318 76.1568 131.441 76.2539C131.563 76.3494 131.712 76.3971 131.888 76.3971C132.065 76.3971 132.215 76.3485 132.338 76.2514C132.461 76.1525 132.554 76.0161 132.617 75.8423C132.681 75.6667 132.714 75.4647 132.714 75.2363C132.714 75.0096 132.682 74.8102 132.619 74.638C132.556 74.4659 132.463 74.3312 132.341 74.234C132.218 74.1369 132.067 74.0883 131.888 74.0883C131.711 74.0883 131.561 74.1352 131.438 74.2289C131.317 74.3227 131.224 74.4556 131.159 74.6278C131.095 74.8 131.062 75.0028 131.062 75.2363ZM136.641 73.2727V74.0909H134.276V73.2727H136.641ZM134.813 72.3318H135.902V75.9931C135.902 76.0937 135.918 76.1721 135.948 76.2284C135.979 76.2829 136.022 76.3213 136.076 76.3434C136.132 76.3656 136.197 76.3767 136.27 76.3767C136.322 76.3767 136.373 76.3724 136.424 76.3639C136.475 76.3536 136.514 76.346 136.541 76.3409L136.713 77.1514C136.658 77.1684 136.581 77.188 136.483 77.2102C136.384 77.234 136.264 77.2485 136.122 77.2536C135.86 77.2639 135.63 77.2289 135.432 77.1488C135.236 77.0687 135.083 76.9443 134.974 76.7755C134.865 76.6068 134.811 76.3937 134.813 76.1363V72.3318Z" fill="white"/>
<rect x="184.3" y="49.5" width="53.4" height="14.4" rx="2.7" fill="#092AD0" fill-opacity="0.56" stroke="#092AD0" stroke-width="0.6"/>
<path d="M194.22 59.2L195.079 53.9636H195.897L195.038 59.2H194.22ZM191.875 57.9011L192.01 57.0829H196.101L195.966 57.9011H191.875ZM192.379 59.2L193.238 53.9636H194.056L193.197 59.2H192.379ZM192.174 56.0806L192.312 55.2625H196.403L196.265 56.0806H192.174ZM202.07 55.6562C202.034 55.5318 201.984 55.4218 201.919 55.3264C201.855 55.2292 201.775 55.1474 201.682 55.0809C201.59 55.0127 201.484 54.9607 201.365 54.925C201.247 54.8892 201.117 54.8713 200.973 54.8713C200.706 54.8713 200.471 54.9377 200.268 55.0707C200.067 55.2036 199.91 55.3971 199.797 55.6511C199.685 55.9034 199.628 56.2119 199.628 56.5767C199.628 56.9414 199.684 57.2517 199.795 57.5073C199.905 57.763 200.062 57.9582 200.265 58.0928C200.468 58.2258 200.707 58.2923 200.984 58.2923C201.234 58.2923 201.448 58.248 201.625 58.1593C201.804 58.069 201.941 57.942 202.034 57.7784C202.13 57.6147 202.178 57.4213 202.178 57.198L202.403 57.2312H201.053V56.3977H203.244V57.0573C203.244 57.5176 203.147 57.913 202.952 58.2437C202.758 58.5727 202.49 58.8267 202.15 59.0056C201.809 59.1829 201.418 59.2715 200.978 59.2715C200.488 59.2715 200.056 59.1633 199.685 58.9468C199.313 58.7286 199.023 58.4193 198.815 58.0187C198.609 57.6164 198.506 57.1392 198.506 56.5869C198.506 56.1625 198.567 55.784 198.69 55.4517C198.815 55.1176 198.988 54.8346 199.212 54.6028C199.435 54.371 199.695 54.1946 199.992 54.0735C200.288 53.9525 200.609 53.892 200.955 53.892C201.252 53.892 201.528 53.9355 201.784 54.0224C202.04 54.1076 202.266 54.2286 202.464 54.3855C202.663 54.5423 202.826 54.7289 202.952 54.9454C203.078 55.1602 203.159 55.3971 203.195 55.6562H202.07ZM204.055 59.2V55.2727H205.111V55.9579H205.152C205.223 55.7142 205.344 55.5301 205.512 55.4056C205.681 55.2795 205.875 55.2164 206.095 55.2164C206.15 55.2164 206.209 55.2198 206.272 55.2267C206.335 55.2335 206.39 55.2428 206.438 55.2548V56.2213C206.387 56.2059 206.316 56.1923 206.226 56.1803C206.135 56.1684 206.053 56.1625 205.978 56.1625C205.817 56.1625 205.674 56.1974 205.548 56.2673C205.424 56.3355 205.325 56.4309 205.252 56.5536C205.18 56.6764 205.144 56.8178 205.144 56.9781V59.2H204.055ZM208.008 59.2741C207.758 59.2741 207.535 59.2306 207.339 59.1437C207.143 59.0551 206.987 58.9247 206.873 58.7525C206.761 58.5786 206.704 58.3622 206.704 58.1031C206.704 57.8849 206.745 57.7017 206.825 57.5534C206.905 57.4051 207.014 57.2857 207.152 57.1954C207.29 57.1051 207.447 57.0369 207.622 56.9909C207.8 56.9448 207.985 56.9125 208.18 56.8937C208.408 56.8698 208.592 56.8477 208.732 56.8272C208.872 56.8051 208.973 56.7727 209.036 56.7301C209.099 56.6875 209.131 56.6244 209.131 56.5409V56.5255C209.131 56.3636 209.08 56.2383 208.977 56.1497C208.877 56.061 208.734 56.0167 208.548 56.0167C208.352 56.0167 208.196 56.0602 208.08 56.1471C207.964 56.2323 207.887 56.3397 207.85 56.4693L206.843 56.3875C206.894 56.1488 206.994 55.9426 207.144 55.7687C207.294 55.5931 207.488 55.4585 207.725 55.3647C207.963 55.2693 208.239 55.2215 208.553 55.2215C208.771 55.2215 208.98 55.2471 209.179 55.2982C209.381 55.3494 209.559 55.4286 209.714 55.536C209.871 55.6434 209.994 55.7815 210.085 55.9502C210.175 56.1173 210.22 56.3176 210.22 56.5511V59.2H209.187V58.6553H209.156C209.093 58.7781 209.009 58.8863 208.903 58.9801C208.798 59.0721 208.671 59.1446 208.522 59.1974C208.374 59.2485 208.203 59.2741 208.008 59.2741ZM208.32 58.5224C208.481 58.5224 208.622 58.4909 208.745 58.4278C208.868 58.363 208.964 58.2761 209.034 58.167C209.104 58.0579 209.139 57.9343 209.139 57.7963V57.3795C209.104 57.4017 209.058 57.4221 208.998 57.4409C208.94 57.4579 208.874 57.4741 208.801 57.4894C208.728 57.5031 208.654 57.5159 208.581 57.5278C208.508 57.538 208.441 57.5474 208.382 57.5559C208.254 57.5747 208.142 57.6045 208.047 57.6454C207.951 57.6863 207.877 57.7417 207.824 57.8116C207.772 57.8798 207.745 57.965 207.745 58.0673C207.745 58.2156 207.799 58.3289 207.906 58.4073C208.015 58.484 208.153 58.5224 208.32 58.5224ZM211.065 60.6727V55.2727H212.139V55.9323H212.188C212.235 55.8267 212.304 55.7193 212.395 55.6102C212.487 55.4994 212.606 55.4073 212.753 55.334C212.901 55.259 213.085 55.2215 213.305 55.2215C213.591 55.2215 213.855 55.2965 214.098 55.4465C214.34 55.5948 214.533 55.819 214.678 56.119C214.823 56.4173 214.895 56.7914 214.895 57.2414C214.895 57.6795 214.825 58.0494 214.683 58.3511C214.543 58.6511 214.352 58.8786 214.11 59.0338C213.87 59.1872 213.601 59.2639 213.302 59.2639C213.091 59.2639 212.911 59.2289 212.763 59.159C212.616 59.0892 212.496 59.0014 212.402 58.8957C212.309 58.7883 212.237 58.6801 212.188 58.571H212.154V60.6727H211.065ZM212.131 57.2363C212.131 57.4698 212.164 57.6735 212.228 57.8474C212.293 58.0213 212.387 58.1568 212.51 58.2539C212.632 58.3494 212.782 58.3971 212.957 58.3971C213.134 58.3971 213.284 58.3485 213.407 58.2514C213.53 58.1525 213.623 58.0161 213.686 57.8423C213.751 57.6667 213.783 57.4647 213.783 57.2363C213.783 57.0096 213.751 56.8102 213.688 56.638C213.625 56.4659 213.532 56.3312 213.41 56.234C213.287 56.1369 213.136 56.0883 212.957 56.0883C212.78 56.0883 212.63 56.1352 212.507 56.2289C212.386 56.3227 212.293 56.4556 212.228 56.6278C212.164 56.8 212.131 57.0028 212.131 57.2363ZM216.711 56.9295V59.2H215.621V53.9636H216.68V55.9656H216.726C216.815 55.7338 216.958 55.5522 217.155 55.421C217.353 55.288 217.601 55.2215 217.9 55.2215C218.172 55.2215 218.41 55.2812 218.613 55.4005C218.817 55.5181 218.976 55.6877 219.088 55.9093C219.203 56.1292 219.259 56.3926 219.257 56.6994V59.2H218.168V56.8937C218.17 56.6517 218.108 56.4633 217.984 56.3286C217.861 56.194 217.689 56.1267 217.467 56.1267C217.319 56.1267 217.188 56.1582 217.074 56.2213C216.961 56.2843 216.873 56.3764 216.808 56.4974C216.745 56.6167 216.712 56.7607 216.711 56.9295ZM222.111 57.3795H223.052L223.525 57.988L223.99 58.5301L224.867 59.6295H223.835L223.231 58.888L222.922 58.4482L222.111 57.3795ZM224.947 56.5818C224.947 57.1528 224.838 57.6386 224.622 58.0392C224.407 58.4397 224.114 58.7457 223.742 58.9571C223.373 59.1667 222.957 59.2715 222.495 59.2715C222.029 59.2715 221.612 59.1659 221.242 58.9545C220.872 58.7431 220.58 58.4372 220.365 58.0366C220.15 57.636 220.043 57.1511 220.043 56.5818C220.043 56.0107 220.15 55.525 220.365 55.1244C220.58 54.7238 220.872 54.4187 221.242 54.209C221.612 53.9977 222.029 53.892 222.495 53.892C222.957 53.892 223.373 53.9977 223.742 54.209C224.114 54.4187 224.407 54.7238 224.622 55.1244C224.838 55.525 224.947 56.0107 224.947 56.5818ZM223.824 56.5818C223.824 56.2119 223.769 55.9 223.658 55.646C223.549 55.392 223.395 55.1994 223.195 55.0681C222.996 54.9369 222.762 54.8713 222.495 54.8713C222.227 54.8713 221.994 54.9369 221.794 55.0681C221.595 55.1994 221.44 55.392 221.329 55.646C221.22 55.9 221.165 56.2119 221.165 56.5818C221.165 56.9517 221.22 57.2636 221.329 57.5176C221.44 57.7715 221.595 57.9642 221.794 58.0954C221.994 58.2267 222.227 58.2923 222.495 58.2923C222.762 58.2923 222.996 58.2267 223.195 58.0954C223.395 57.9642 223.549 57.7715 223.658 57.5176C223.769 57.2636 223.824 56.9517 223.824 56.5818ZM225.767 59.2V53.9636H226.874V58.2872H229.119V59.2H225.767Z" fill="white"/>
<rect x="4" width="300" height="81" rx="21" fill="white"/>
<circle cx="49" cy="40.2" r="24" fill="#C4C4C4"/>
<rect x="38.1992" y="43.2" width="21.6" height="12" rx="3" fill="white"/>
<circle cx="48.6992" cy="33.3" r="7.5" fill="white"/>
<path d="M84.4521 22.4727H86.2759V28.5579C86.2759 29.1204 86.1495 29.609 85.8967 30.0238C85.6467 30.4386 85.2987 30.7582 84.8526 30.9826C84.4066 31.2071 83.8881 31.3193 83.2972 31.3193C82.7717 31.3193 82.2944 31.2269 81.8654 31.0423C81.4393 30.8548 81.1012 30.5707 80.8512 30.19C80.6012 29.8065 80.4776 29.325 80.4805 28.7454H82.3171C82.3228 28.9755 82.3697 29.173 82.4577 29.3377C82.5487 29.4997 82.6722 29.6247 82.8285 29.7127C82.9876 29.798 83.1751 29.8406 83.391 29.8406C83.6183 29.8406 83.81 29.7923 83.9663 29.6957C84.1254 29.5963 84.2461 29.4514 84.3285 29.261C84.4109 29.0707 84.4521 28.8363 84.4521 28.5579V22.4727ZM90.7248 31.3278C90.0629 31.3278 89.4904 31.1872 89.0075 30.9059C88.5273 30.6218 88.1566 30.2269 87.8952 29.7213C87.6339 29.2127 87.5032 28.6232 87.5032 27.9528C87.5032 27.2767 87.6339 26.6857 87.8952 26.1801C88.1566 25.6715 88.5273 25.2767 89.0075 24.9954C89.4904 24.7113 90.0629 24.5693 90.7248 24.5693C91.3867 24.5693 91.9577 24.7113 92.4379 24.9954C92.9208 25.2767 93.293 25.6715 93.5543 26.1801C93.8157 26.6857 93.9464 27.2767 93.9464 27.9528C93.9464 28.6232 93.8157 29.2127 93.5543 29.7213C93.293 30.2269 92.9208 30.6218 92.4379 30.9059C91.9577 31.1872 91.3867 31.3278 90.7248 31.3278ZM90.7333 29.9215C91.0344 29.9215 91.2859 29.8363 91.4876 29.6659C91.6893 29.4926 91.8413 29.2568 91.9435 28.9585C92.0487 28.6602 92.1012 28.3207 92.1012 27.94C92.1012 27.5593 92.0487 27.2198 91.9435 26.9215C91.8413 26.6232 91.6893 26.3875 91.4876 26.2142C91.2859 26.0409 91.0344 25.9542 90.7333 25.9542C90.4293 25.9542 90.1737 26.0409 89.9663 26.2142C89.7617 26.3875 89.6069 26.6232 89.5018 26.9215C89.3995 27.2198 89.3484 27.5593 89.3484 27.94C89.3484 28.3207 89.3995 28.6602 89.5018 28.9585C89.6069 29.2568 89.7617 29.4926 89.9663 29.6659C90.1737 29.8363 90.4293 29.9215 90.7333 29.9215ZM95.1268 31.2V24.6545H96.8867V25.7965H96.9549C97.0742 25.3903 97.2745 25.0835 97.5558 24.8761C97.837 24.6659 98.1609 24.5607 98.5273 24.5607C98.6183 24.5607 98.7163 24.5664 98.8214 24.5778C98.9265 24.5892 99.0188 24.6048 99.0984 24.6247V26.2355C99.0131 26.2099 98.8952 26.1872 98.7447 26.1673C98.5941 26.1474 98.4563 26.1375 98.3313 26.1375C98.0643 26.1375 97.8256 26.1957 97.6154 26.3122C97.408 26.4258 97.2433 26.5849 97.1211 26.7894C97.0018 26.994 96.9421 27.2298 96.9421 27.4968V31.2H95.1268ZM102.144 31.3065C101.647 31.3065 101.197 31.1786 100.793 30.923C100.393 30.6644 100.075 30.2852 99.8388 29.7852C99.6058 29.2823 99.4893 28.6659 99.4893 27.9357C99.4893 27.1857 99.6101 26.5622 99.8516 26.065C100.093 25.565 100.414 25.1914 100.815 24.9443C101.218 24.6943 101.66 24.5693 102.14 24.5693C102.506 24.5693 102.812 24.6318 103.056 24.7568C103.303 24.8789 103.502 25.0323 103.653 25.217C103.806 25.3988 103.923 25.5778 104.002 25.7539H104.058V22.4727H105.869V31.2H104.079V30.1517H104.002C103.917 30.3335 103.796 30.5139 103.64 30.6928C103.487 30.869 103.286 31.0153 103.039 31.1318C102.795 31.2482 102.496 31.3065 102.144 31.3065ZM102.719 29.8619C103.012 29.8619 103.259 29.7823 103.461 29.6232C103.665 29.4613 103.822 29.2355 103.93 28.9457C104.04 28.6559 104.096 28.3164 104.096 27.9272C104.096 27.538 104.042 27.2 103.934 26.913C103.826 26.6261 103.67 26.4045 103.465 26.2482C103.261 26.092 103.012 26.0139 102.719 26.0139C102.421 26.0139 102.17 26.0948 101.965 26.2568C101.761 26.4187 101.606 26.6431 101.501 26.9301C101.396 27.217 101.343 27.5494 101.343 27.9272C101.343 28.3079 101.396 28.6446 101.501 28.9372C101.609 29.2269 101.763 29.4542 101.965 29.619C102.17 29.7809 102.421 29.8619 102.719 29.8619ZM109.228 31.3235C108.81 31.3235 108.438 31.2511 108.111 31.1062C107.784 30.9585 107.526 30.7411 107.336 30.4542C107.148 30.1644 107.054 29.8036 107.054 29.3718C107.054 29.0082 107.121 28.7028 107.255 28.4556C107.388 28.2085 107.57 28.0096 107.8 27.859C108.03 27.7085 108.292 27.5948 108.584 27.5181C108.88 27.4414 109.189 27.3875 109.513 27.3562C109.894 27.3164 110.201 27.2795 110.434 27.2454C110.667 27.2085 110.836 27.1545 110.941 27.0835C111.046 27.0125 111.098 26.9073 111.098 26.7681V26.7426C111.098 26.4727 111.013 26.2639 110.843 26.1161C110.675 25.9684 110.436 25.8946 110.127 25.8946C109.8 25.8946 109.54 25.967 109.347 26.1119C109.154 26.2539 109.026 26.4329 108.963 26.6488L107.284 26.5125C107.37 26.1147 107.537 25.771 107.787 25.4812C108.037 25.1886 108.36 24.9642 108.755 24.8079C109.152 24.6488 109.613 24.5693 110.135 24.5693C110.499 24.5693 110.847 24.6119 111.179 24.6971C111.515 24.7823 111.811 24.9144 112.07 25.0934C112.331 25.2724 112.537 25.5025 112.688 25.7838C112.838 26.0622 112.914 26.396 112.914 26.7852V31.2H111.192V30.2923H111.141C111.036 30.4968 110.895 30.6772 110.719 30.8335C110.543 30.9869 110.331 31.1076 110.084 31.1957C109.837 31.2809 109.551 31.3235 109.228 31.3235ZM109.748 30.0707C110.015 30.0707 110.25 30.0181 110.455 29.913C110.659 29.8051 110.82 29.6602 110.936 29.4784C111.053 29.2965 111.111 29.0906 111.111 28.8605V28.1659C111.054 28.2028 110.976 28.2369 110.877 28.2681C110.78 28.2965 110.671 28.3235 110.549 28.3491C110.426 28.3718 110.304 28.3931 110.182 28.413C110.06 28.4301 109.949 28.4457 109.85 28.4599C109.637 28.4911 109.451 28.5409 109.292 28.609C109.132 28.6772 109.009 28.7696 108.921 28.886C108.833 28.9997 108.789 29.1417 108.789 29.3122C108.789 29.5593 108.878 29.7482 109.057 29.8789C109.239 30.0068 109.469 30.0707 109.748 30.0707ZM116.137 27.4159V31.2H114.322V24.6545H116.052V25.8093H116.129C116.274 25.4286 116.517 25.1275 116.858 24.9059C117.199 24.6815 117.612 24.5693 118.098 24.5693C118.552 24.5693 118.949 24.6687 119.287 24.8676C119.625 25.0664 119.887 25.3505 120.075 25.7198C120.262 26.0863 120.356 26.5238 120.356 27.0323V31.2H118.541V27.3562C118.544 26.9556 118.441 26.6431 118.234 26.4187C118.027 26.1914 117.741 26.0778 117.377 26.0778C117.133 26.0778 116.917 26.1303 116.73 26.2355C116.545 26.3406 116.4 26.494 116.295 26.6957C116.193 26.8946 116.14 27.1346 116.137 27.4159ZM127.692 31.2H124.598V22.4727H127.718C128.596 22.4727 129.351 22.6474 129.985 22.9968C130.618 23.3434 131.105 23.842 131.446 24.4926C131.79 25.1431 131.962 25.9215 131.962 26.8278C131.962 27.7369 131.79 28.5181 131.446 29.1715C131.105 29.825 130.615 30.3264 129.976 30.6758C129.34 31.0252 128.578 31.2 127.692 31.2ZM126.444 29.619H127.615C128.161 29.619 128.62 29.5224 128.992 29.3292C129.367 29.1332 129.648 28.8306 129.836 28.4215C130.026 28.0096 130.121 27.4784 130.121 26.8278C130.121 26.1829 130.026 25.6559 129.836 25.2468C129.648 24.8377 129.368 24.5366 128.996 24.3434C128.624 24.1502 128.165 24.0536 127.62 24.0536H126.444V29.619ZM135.161 31.3235C134.744 31.3235 134.371 31.2511 134.045 31.1062C133.718 30.9585 133.46 30.7411 133.269 30.4542C133.082 30.1644 132.988 29.8036 132.988 29.3718C132.988 29.0082 133.055 28.7028 133.188 28.4556C133.322 28.2085 133.504 28.0096 133.734 27.859C133.964 27.7085 134.225 27.5948 134.518 27.5181C134.813 27.4414 135.123 27.3875 135.447 27.3562C135.827 27.3164 136.134 27.2795 136.367 27.2454C136.6 27.2085 136.769 27.1545 136.874 27.0835C136.979 27.0125 137.032 26.9073 137.032 26.7681V26.7426C137.032 26.4727 136.947 26.2639 136.776 26.1161C136.609 25.9684 136.37 25.8946 136.06 25.8946C135.734 25.8946 135.474 25.967 135.281 26.1119C135.087 26.2539 134.96 26.4329 134.897 26.6488L133.218 26.5125C133.303 26.1147 133.471 25.771 133.721 25.4812C133.971 25.1886 134.293 24.9642 134.688 24.8079C135.086 24.6488 135.546 24.5693 136.069 24.5693C136.433 24.5693 136.781 24.6119 137.113 24.6971C137.448 24.7823 137.745 24.9144 138.004 25.0934C138.265 25.2724 138.471 25.5025 138.621 25.7838C138.772 26.0622 138.847 26.396 138.847 26.7852V31.2H137.126V30.2923H137.075C136.969 30.4968 136.829 30.6772 136.653 30.8335C136.477 30.9869 136.265 31.1076 136.018 31.1957C135.771 31.2809 135.485 31.3235 135.161 31.3235ZM135.681 30.0707C135.948 30.0707 136.184 30.0181 136.388 29.913C136.593 29.8051 136.754 29.6602 136.87 29.4784C136.987 29.2965 137.045 29.0906 137.045 28.8605V28.1659C136.988 28.2028 136.91 28.2369 136.81 28.2681C136.714 28.2965 136.604 28.3235 136.482 28.3491C136.36 28.3718 136.238 28.3931 136.116 28.413C135.994 28.4301 135.883 28.4457 135.783 28.4599C135.57 28.4911 135.384 28.5409 135.225 28.609C135.066 28.6772 134.942 28.7696 134.854 28.886C134.766 28.9997 134.722 29.1417 134.722 29.3122C134.722 29.5593 134.812 29.7482 134.991 29.8789C135.173 30.0068 135.403 30.0707 135.681 30.0707ZM146.124 24.6545L143.835 31.2H141.79L139.501 24.6545H141.419L142.778 29.3377H142.847L144.202 24.6545H146.124ZM147.053 31.2V24.6545H148.868V31.2H147.053ZM147.964 23.8107C147.695 23.8107 147.463 23.7213 147.27 23.5423C147.08 23.3605 146.984 23.1431 146.984 22.8903C146.984 22.6403 147.08 22.4258 147.27 22.2468C147.463 22.065 147.695 21.9741 147.964 21.9741C148.234 21.9741 148.464 22.065 148.655 22.2468C148.848 22.4258 148.945 22.6403 148.945 22.8903C148.945 23.1431 148.848 23.3605 148.655 23.5423C148.464 23.7213 148.234 23.8107 147.964 23.8107ZM155.768 26.521L154.106 26.6232C154.078 26.4812 154.017 26.3534 153.923 26.2397C153.829 26.1232 153.706 26.0309 153.552 25.9627C153.402 25.8917 153.221 25.8562 153.011 25.8562C152.73 25.8562 152.493 25.9159 152.299 26.0352C152.106 26.1517 152.01 26.3079 152.01 26.5039C152.01 26.6602 152.072 26.7923 152.197 26.9002C152.322 27.0082 152.537 27.0948 152.841 27.1602L154.025 27.3988C154.662 27.5295 155.136 27.7397 155.449 28.0295C155.761 28.3193 155.917 28.7 155.917 29.1715C155.917 29.6005 155.791 29.9769 155.538 30.3008C155.288 30.6247 154.944 30.8775 154.507 31.0593C154.072 31.2383 153.571 31.3278 153.002 31.3278C152.136 31.3278 151.446 31.1474 150.931 30.7866C150.42 30.423 150.12 29.9286 150.032 29.3036L151.818 29.2099C151.872 29.4741 152.002 29.6758 152.21 29.815C152.417 29.9514 152.683 30.0196 153.007 30.0196C153.325 30.0196 153.581 29.9585 153.774 29.8363C153.97 29.7113 154.069 29.5508 154.072 29.3548C154.069 29.19 154 29.0551 153.863 28.95C153.727 28.842 153.517 28.7596 153.233 28.7028L152.099 28.4769C151.46 28.3491 150.984 28.1275 150.672 27.8122C150.362 27.4968 150.207 27.0948 150.207 26.6062C150.207 26.1857 150.321 25.8235 150.548 25.5196C150.778 25.2156 151.1 24.9812 151.515 24.8164C151.933 24.6517 152.422 24.5693 152.981 24.5693C153.808 24.5693 154.458 24.744 154.933 25.0934C155.41 25.4428 155.689 25.9187 155.768 26.521Z" fill="black"/>
<path d="M83.4023 36.0182H84.8614V40.8864C84.8614 41.3364 84.7602 41.7273 84.558 42.0591C84.358 42.3909 84.0795 42.6466 83.7227 42.8261C83.3659 43.0057 82.9511 43.0955 82.4784 43.0955C82.058 43.0955 81.6761 43.0216 81.333 42.8739C80.992 42.7239 80.7216 42.4966 80.5216 42.192C80.3216 41.8852 80.2227 41.5 80.225 41.0364H81.6943C81.6989 41.2205 81.7364 41.3784 81.8068 41.5102C81.8795 41.6398 81.9784 41.7398 82.1034 41.8102C82.2307 41.8784 82.3807 41.9125 82.5534 41.9125C82.7352 41.9125 82.8886 41.8739 83.0136 41.7966C83.1409 41.717 83.2375 41.6011 83.3034 41.4489C83.3693 41.2966 83.4023 41.1091 83.4023 40.8864V36.0182ZM86.0545 43V37.7636H87.4625V38.6773H87.517C87.6125 38.3523 87.7727 38.1068 87.9977 37.9409C88.2227 37.7727 88.4818 37.6886 88.775 37.6886C88.8477 37.6886 88.9261 37.6932 89.0102 37.7023C89.0943 37.7114 89.1682 37.7239 89.2318 37.7398V39.0284C89.1636 39.008 89.0693 38.9898 88.9489 38.9739C88.8284 38.958 88.7182 38.95 88.6182 38.95C88.4045 38.95 88.2136 38.9966 88.0455 39.0898C87.8795 39.1807 87.7477 39.308 87.65 39.4716C87.5545 39.6352 87.5068 39.8239 87.5068 40.0375V43H86.0545ZM92.2318 43V36.0182H95.0273C95.5409 36.0182 95.9693 36.0943 96.3125 36.2466C96.6557 36.3989 96.9136 36.6102 97.0864 36.8807C97.2591 37.1489 97.3455 37.458 97.3455 37.808C97.3455 38.0807 97.2909 38.3205 97.1818 38.5273C97.0727 38.7318 96.9227 38.9 96.7318 39.0318C96.5432 39.1614 96.3273 39.2534 96.0841 39.308V39.3761C96.35 39.3875 96.5989 39.4625 96.8307 39.6011C97.0648 39.7398 97.2545 39.9341 97.4 40.1841C97.5455 40.4318 97.6182 40.7273 97.6182 41.0705C97.6182 41.4409 97.5261 41.7716 97.342 42.0625C97.1602 42.3511 96.8909 42.5795 96.5341 42.7477C96.1773 42.9159 95.7375 43 95.2148 43H92.2318ZM93.708 41.7932H94.9114C95.3227 41.7932 95.6227 41.7148 95.8114 41.558C96 41.3989 96.0943 41.1875 96.0943 40.9239C96.0943 40.7307 96.0477 40.5602 95.9545 40.4125C95.8614 40.2648 95.7284 40.1489 95.5557 40.0648C95.3852 39.9807 95.1818 39.9386 94.9455 39.9386H93.708V41.7932ZM93.708 38.9398H94.8023C95.0045 38.9398 95.1841 38.9045 95.3409 38.8341C95.5 38.7614 95.625 38.6591 95.7159 38.5273C95.8091 38.3955 95.8557 38.2375 95.8557 38.0534C95.8557 37.8011 95.7659 37.5977 95.5864 37.4432C95.4091 37.2886 95.1568 37.2114 94.8295 37.2114H93.708V38.9398ZM100.045 43.0989C99.7105 43.0989 99.4128 43.0409 99.1514 42.925C98.8901 42.8068 98.6832 42.633 98.531 42.4034C98.381 42.1716 98.306 41.883 98.306 41.5375C98.306 41.2466 98.3594 41.0023 98.4662 40.8045C98.573 40.6068 98.7185 40.4477 98.9026 40.3273C99.0866 40.2068 99.2957 40.1159 99.5298 40.0545C99.7662 39.9932 100.014 39.95 100.273 39.925C100.578 39.8932 100.823 39.8636 101.009 39.8364C101.196 39.8068 101.331 39.7636 101.415 39.7068C101.499 39.65 101.541 39.5659 101.541 39.4545V39.4341C101.541 39.2182 101.473 39.0511 101.337 38.933C101.203 38.8148 101.012 38.7557 100.764 38.7557C100.503 38.7557 100.295 38.8136 100.14 38.9295C99.9855 39.0432 99.8832 39.1864 99.8332 39.3591L98.4901 39.25C98.5582 38.9318 98.6923 38.6568 98.8923 38.425C99.0923 38.1909 99.3503 38.0114 99.6662 37.8864C99.9844 37.7591 100.353 37.6955 100.771 37.6955C101.062 37.6955 101.34 37.7295 101.606 37.7977C101.874 37.8659 102.112 37.9716 102.318 38.1148C102.528 38.258 102.692 38.442 102.813 38.667C102.933 38.8898 102.993 39.1568 102.993 39.4682V43H101.616V42.2739H101.575C101.491 42.4375 101.379 42.5818 101.238 42.7068C101.097 42.8295 100.928 42.9261 100.73 42.9966C100.532 43.0648 100.304 43.0989 100.045 43.0989ZM100.461 42.0966C100.674 42.0966 100.863 42.0545 101.026 41.9705C101.19 41.8841 101.318 41.7682 101.412 41.6227C101.505 41.4773 101.551 41.3125 101.551 41.1284V40.5727C101.506 40.6023 101.443 40.6295 101.364 40.6545C101.287 40.6773 101.199 40.6989 101.101 40.7193C101.004 40.7375 100.906 40.7545 100.808 40.7705C100.711 40.7841 100.622 40.7966 100.542 40.808C100.372 40.833 100.223 40.8727 100.096 40.9273C99.9685 40.9818 99.8696 41.0557 99.7991 41.1489C99.7287 41.2398 99.6935 41.3534 99.6935 41.4898C99.6935 41.6875 99.7651 41.8386 99.9082 41.9432C100.054 42.0455 100.238 42.0966 100.461 42.0966ZM106.486 43.1023C105.95 43.1023 105.488 42.9886 105.102 42.7614C104.718 42.5318 104.422 42.2136 104.216 41.8068C104.011 41.4 103.909 40.9318 103.909 40.4023C103.909 39.8659 104.012 39.3955 104.219 38.9909C104.428 38.5841 104.725 38.267 105.109 38.0398C105.493 37.8102 105.95 37.6955 106.479 37.6955C106.936 37.6955 107.336 37.7784 107.679 37.9443C108.022 38.1102 108.294 38.3432 108.494 38.6432C108.694 38.9432 108.804 39.2955 108.825 39.7H107.454C107.416 39.4386 107.313 39.2284 107.147 39.0693C106.984 38.908 106.769 38.8273 106.503 38.8273C106.278 38.8273 106.082 38.8886 105.913 39.0114C105.747 39.1318 105.618 39.308 105.525 39.5398C105.432 39.7716 105.385 40.0523 105.385 40.3818C105.385 40.7159 105.43 41 105.521 41.2341C105.614 41.4682 105.745 41.6466 105.913 41.7693C106.082 41.892 106.278 41.9534 106.503 41.9534C106.669 41.9534 106.818 41.9193 106.95 41.8511C107.084 41.783 107.194 41.6841 107.28 41.5545C107.369 41.4227 107.427 41.2648 107.454 41.0807H108.825C108.802 41.4807 108.693 41.833 108.497 42.1375C108.304 42.4398 108.037 42.6761 107.696 42.8466C107.355 43.017 106.952 43.1023 106.486 43.1023ZM111.07 41.4932L111.074 39.7511H111.285L112.963 37.7636H114.63L112.376 40.3955H112.032L111.07 41.4932ZM109.755 43V36.0182H111.207V43H109.755ZM113.027 43L111.486 40.7193L112.455 39.6932L114.728 43H113.027ZM117.513 43.1023C116.974 43.1023 116.511 42.9932 116.122 42.775C115.736 42.5545 115.438 42.2432 115.229 41.8409C115.02 41.4364 114.915 40.958 114.915 40.4057C114.915 39.867 115.02 39.3943 115.229 38.9875C115.438 38.5807 115.732 38.2636 116.112 38.0364C116.493 37.8091 116.941 37.6955 117.455 37.6955C117.8 37.6955 118.122 37.7511 118.42 37.8625C118.72 37.9716 118.981 38.1364 119.204 38.3568C119.429 38.5773 119.604 38.8545 119.729 39.1886C119.854 39.5205 119.916 39.9091 119.916 40.3545V40.7534H115.495V39.8534H118.549C118.549 39.6443 118.504 39.4591 118.413 39.2977C118.322 39.1364 118.196 39.0102 118.034 38.9193C117.875 38.8261 117.69 38.7795 117.479 38.7795C117.258 38.7795 117.063 38.8307 116.892 38.933C116.724 39.033 116.592 39.1682 116.497 39.3386C116.401 39.5068 116.353 39.6943 116.35 39.9011V40.7568C116.35 41.0159 116.398 41.2398 116.493 41.4284C116.591 41.617 116.729 41.7625 116.906 41.8648C117.083 41.967 117.293 42.0182 117.537 42.0182C117.698 42.0182 117.846 41.9955 117.98 41.95C118.114 41.9045 118.229 41.8364 118.324 41.7455C118.42 41.6545 118.492 41.5432 118.542 41.4114L119.886 41.5C119.817 41.8227 119.678 42.1045 119.466 42.3455C119.257 42.5841 118.987 42.7705 118.655 42.9045C118.325 43.0364 117.945 43.1023 117.513 43.1023ZM122.316 39.9727V43H120.864V37.7636H122.248V38.6875H122.309C122.425 38.383 122.62 38.142 122.892 37.9648C123.165 37.7852 123.496 37.6955 123.884 37.6955C124.248 37.6955 124.565 37.775 124.836 37.9341C125.106 38.0932 125.316 38.3205 125.466 38.6159C125.616 38.9091 125.691 39.2591 125.691 39.6659V43H124.239V39.925C124.241 39.6045 124.159 39.3545 123.993 39.175C123.828 38.9932 123.599 38.9023 123.308 38.9023C123.113 38.9023 122.94 38.9443 122.79 39.0284C122.642 39.1125 122.526 39.2352 122.442 39.3966C122.361 39.5557 122.318 39.7477 122.316 39.9727ZM128.765 43.0852C128.368 43.0852 128.007 42.983 127.685 42.7784C127.364 42.5716 127.11 42.2682 126.921 41.8682C126.735 41.4659 126.641 40.9727 126.641 40.3886C126.641 39.7886 126.738 39.2898 126.931 38.892C127.124 38.492 127.381 38.1932 127.702 37.9955C128.024 37.7955 128.378 37.6955 128.762 37.6955C129.055 37.6955 129.299 37.7455 129.495 37.8455C129.693 37.9432 129.852 38.0659 129.972 38.2136C130.095 38.3591 130.188 38.5023 130.252 38.6432H130.296V36.0182H131.745V43H130.313V42.1614H130.252C130.184 42.3068 130.087 42.4511 129.962 42.5943C129.839 42.7352 129.679 42.8523 129.481 42.9455C129.286 43.0386 129.047 43.0852 128.765 43.0852ZM129.226 41.9295C129.46 41.9295 129.657 41.8659 129.819 41.7386C129.982 41.6091 130.107 41.4284 130.194 41.1966C130.282 40.9648 130.327 40.6932 130.327 40.3818C130.327 40.0705 130.284 39.8 130.197 39.5705C130.111 39.3409 129.986 39.1636 129.822 39.0386C129.659 38.9136 129.46 38.8511 129.226 38.8511C128.987 38.8511 128.786 38.9159 128.622 39.0455C128.459 39.175 128.335 39.3545 128.251 39.5841C128.166 39.8136 128.124 40.0795 128.124 40.3818C128.124 40.6864 128.166 40.9557 128.251 41.1898C128.337 41.4216 128.461 41.6034 128.622 41.7352C128.786 41.8648 128.987 41.9295 129.226 41.9295ZM135.188 43V36.0182H139.893V37.2352H136.664V38.8989H139.651V40.1159H136.664V41.783H139.906V43H135.188ZM142.491 39.9727V43H141.039V37.7636H142.423V38.6875H142.484C142.6 38.383 142.795 38.142 143.067 37.9648C143.34 37.7852 143.671 37.6955 144.059 37.6955C144.423 37.6955 144.74 37.775 145.011 37.9341C145.281 38.0932 145.491 38.3205 145.641 38.6159C145.791 38.9091 145.866 39.2591 145.866 39.6659V43H144.414V39.925C144.416 39.6045 144.334 39.3545 144.168 39.175C144.003 38.9932 143.774 38.9023 143.483 38.9023C143.288 38.9023 143.115 38.9443 142.965 39.0284C142.817 39.1125 142.701 39.2352 142.617 39.3966C142.536 39.5557 142.493 39.7477 142.491 39.9727ZM149.37 45.0727C148.899 45.0727 148.496 45.008 148.16 44.8784C147.826 44.7511 147.56 44.5773 147.362 44.3568C147.164 44.1364 147.036 43.8886 146.977 43.6136L148.32 43.433C148.361 43.5375 148.426 43.6352 148.514 43.7261C148.603 43.817 148.72 43.8898 148.865 43.9443C149.013 44.0011 149.193 44.0295 149.404 44.0295C149.72 44.0295 149.98 43.9523 150.185 43.7977C150.391 43.6455 150.495 43.3898 150.495 43.0307V42.0727H150.434C150.37 42.2182 150.274 42.3557 150.147 42.4852C150.02 42.6148 149.856 42.7205 149.656 42.8023C149.456 42.8841 149.218 42.925 148.94 42.925C148.547 42.925 148.189 42.8341 147.866 42.6523C147.546 42.4682 147.29 42.1875 147.099 41.8102C146.911 41.4307 146.816 40.9511 146.816 40.3716C146.816 39.7784 146.913 39.283 147.106 38.8852C147.299 38.4875 147.556 38.1898 147.877 37.992C148.199 37.7943 148.553 37.6955 148.937 37.6955C149.23 37.6955 149.476 37.7455 149.673 37.8455C149.871 37.9432 150.03 38.0659 150.151 38.2136C150.273 38.3591 150.368 38.5023 150.434 38.6432H150.488V37.7636H151.93V43.0511C151.93 43.4966 151.821 43.8693 151.603 44.1693C151.385 44.4693 151.082 44.6943 150.696 44.8443C150.312 44.9966 149.87 45.0727 149.37 45.0727ZM149.401 41.8341C149.635 41.8341 149.832 41.7761 149.994 41.6602C150.157 41.542 150.282 41.3739 150.369 41.1557C150.457 40.9352 150.502 40.6716 150.502 40.3648C150.502 40.058 150.459 39.792 150.372 39.567C150.286 39.3398 150.161 39.1636 149.997 39.0386C149.834 38.9136 149.635 38.8511 149.401 38.8511C149.162 38.8511 148.961 38.9159 148.797 39.0455C148.634 39.1727 148.51 39.35 148.426 39.5773C148.341 39.8045 148.299 40.067 148.299 40.3648C148.299 40.667 148.341 40.9284 148.426 41.1489C148.512 41.367 148.636 41.5364 148.797 41.6568C148.961 41.775 149.162 41.8341 149.401 41.8341ZM153.086 43V37.7636H154.538V43H153.086ZM153.815 37.0886C153.599 37.0886 153.414 37.017 153.26 36.8739C153.107 36.7284 153.031 36.5545 153.031 36.3523C153.031 36.1523 153.107 35.9807 153.26 35.8375C153.414 35.692 153.599 35.6193 153.815 35.6193C154.031 35.6193 154.215 35.692 154.368 35.8375C154.522 35.9807 154.599 36.1523 154.599 36.3523C154.599 36.5545 154.522 36.7284 154.368 36.8739C154.215 37.017 154.031 37.0886 153.815 37.0886ZM157.154 39.9727V43H155.701V37.7636H157.086V38.6875H157.147C157.263 38.383 157.457 38.142 157.73 37.9648C158.003 37.7852 158.333 37.6955 158.722 37.6955C159.086 37.6955 159.403 37.775 159.673 37.9341C159.943 38.0932 160.154 38.3205 160.304 38.6159C160.454 38.9091 160.529 39.2591 160.529 39.6659V43H159.076V39.925C159.079 39.6045 158.997 39.3545 158.831 39.175C158.665 38.9932 158.437 38.9023 158.146 38.9023C157.95 38.9023 157.778 38.9443 157.628 39.0284C157.48 39.1125 157.364 39.2352 157.28 39.3966C157.198 39.5557 157.156 39.7477 157.154 39.9727ZM164.06 43.1023C163.521 43.1023 163.057 42.9932 162.669 42.775C162.282 42.5545 161.985 42.2432 161.776 41.8409C161.566 41.4364 161.462 40.958 161.462 40.4057C161.462 39.867 161.566 39.3943 161.776 38.9875C161.985 38.5807 162.279 38.2636 162.659 38.0364C163.04 37.8091 163.488 37.6955 164.002 37.6955C164.347 37.6955 164.669 37.7511 164.966 37.8625C165.266 37.9716 165.528 38.1364 165.751 38.3568C165.976 38.5773 166.151 38.8545 166.276 39.1886C166.401 39.5205 166.463 39.9091 166.463 40.3545V40.7534H162.041V39.8534H165.096C165.096 39.6443 165.051 39.4591 164.96 39.2977C164.869 39.1364 164.743 39.0102 164.581 38.9193C164.422 38.8261 164.237 38.7795 164.026 38.7795C163.805 38.7795 163.61 38.8307 163.439 38.933C163.271 39.033 163.139 39.1682 163.044 39.3386C162.948 39.5068 162.899 39.6943 162.897 39.9011V40.7568C162.897 41.0159 162.945 41.2398 163.04 41.4284C163.138 41.617 163.276 41.7625 163.453 41.8648C163.63 41.967 163.84 42.0182 164.084 42.0182C164.245 42.0182 164.393 41.9955 164.527 41.95C164.661 41.9045 164.776 41.8364 164.871 41.7455C164.966 41.6545 165.039 41.5432 165.089 41.4114L166.432 41.5C166.364 41.8227 166.224 42.1045 166.013 42.3455C165.804 42.5841 165.534 42.7705 165.202 42.9045C164.872 43.0364 164.491 43.1023 164.06 43.1023ZM169.797 43.1023C169.259 43.1023 168.795 42.9932 168.406 42.775C168.02 42.5545 167.722 42.2432 167.513 41.8409C167.304 41.4364 167.199 40.958 167.199 40.4057C167.199 39.867 167.304 39.3943 167.513 38.9875C167.722 38.5807 168.016 38.2636 168.396 38.0364C168.778 37.8091 169.226 37.6955 169.739 37.6955C170.085 37.6955 170.406 37.7511 170.704 37.8625C171.004 37.9716 171.265 38.1364 171.488 38.3568C171.713 38.5773 171.888 38.8545 172.013 39.1886C172.138 39.5205 172.201 39.9091 172.201 40.3545V40.7534H167.779V39.8534H170.834C170.834 39.6443 170.788 39.4591 170.697 39.2977C170.606 39.1364 170.48 39.0102 170.319 38.9193C170.16 38.8261 169.974 38.7795 169.763 38.7795C169.543 38.7795 169.347 38.8307 169.177 38.933C169.009 39.033 168.877 39.1682 168.781 39.3386C168.686 39.5068 168.637 39.6943 168.635 39.9011V40.7568C168.635 41.0159 168.682 41.2398 168.778 41.4284C168.876 41.617 169.013 41.7625 169.19 41.8648C169.368 41.967 169.578 42.0182 169.821 42.0182C169.982 42.0182 170.13 41.9955 170.264 41.95C170.398 41.9045 170.513 41.8364 170.609 41.7455C170.704 41.6545 170.777 41.5432 170.827 41.4114L172.17 41.5C172.102 41.8227 171.962 42.1045 171.751 42.3455C171.541 42.5841 171.271 42.7705 170.939 42.9045C170.61 43.0364 170.229 43.1023 169.797 43.1023ZM173.148 43V37.7636H174.556V38.6773H174.611C174.706 38.3523 174.866 38.1068 175.091 37.9409C175.316 37.7727 175.576 37.6886 175.869 37.6886C175.941 37.6886 176.02 37.6932 176.104 37.7023C176.188 37.7114 176.262 37.7239 176.326 37.7398V39.0284C176.257 39.008 176.163 38.9898 176.043 38.9739C175.922 38.958 175.812 38.95 175.712 38.95C175.498 38.95 175.307 38.9966 175.139 39.0898C174.973 39.1807 174.841 39.308 174.744 39.4716C174.648 39.6352 174.601 39.8239 174.601 40.0375V43H173.148Z" fill="#092AD0"/>
<rect x="80.4992" y="49.5" width="41.4" height="14.4" rx="2.7" fill="#092AD0" fill-opacity="0.56" stroke="#092AD0" stroke-width="0.6"/>
<path d="M86.8191 59.2L87.6782 53.9636H88.4964L87.6373 59.2H86.8191ZM84.4745 57.9011L84.61 57.0829H88.701L88.5654 57.9011H84.4745ZM84.9782 59.2L85.8373 53.9636H86.6555L85.7964 59.2H84.9782ZM84.7737 56.0806L84.9118 55.2625H89.0027L88.8646 56.0806H84.7737ZM95.5775 53.9636V59.2H94.6213L92.3431 55.9042H92.3048V59.2H91.1977V53.9636H92.1693L94.4295 57.2568H94.4755V53.9636H95.5775ZM98.2462 59.2767C97.849 59.2767 97.5056 59.1923 97.2158 59.0235C96.9277 58.8531 96.7053 58.6161 96.5485 58.3127C96.3917 58.0076 96.3132 57.6539 96.3132 57.2517C96.3132 56.846 96.3917 56.4914 96.5485 56.188C96.7053 55.8829 96.9277 55.646 97.2158 55.4772C97.5056 55.3068 97.849 55.2215 98.2462 55.2215C98.6434 55.2215 98.986 55.3068 99.274 55.4772C99.5638 55.646 99.7871 55.8829 99.9439 56.188C100.101 56.4914 100.179 56.846 100.179 57.2517C100.179 57.6539 100.101 58.0076 99.9439 58.3127C99.7871 58.6161 99.5638 58.8531 99.274 59.0235C98.986 59.1923 98.6434 59.2767 98.2462 59.2767ZM98.2513 58.4329C98.432 58.4329 98.5828 58.3818 98.7039 58.2795C98.8249 58.1755 98.9161 58.034 98.9775 57.8551C99.0405 57.6761 99.0721 57.4724 99.0721 57.244C99.0721 57.0156 99.0405 56.8119 98.9775 56.6329C98.9161 56.4539 98.8249 56.3125 98.7039 56.2085C98.5828 56.1045 98.432 56.0525 98.2513 56.0525C98.0689 56.0525 97.9155 56.1045 97.7911 56.2085C97.6684 56.3125 97.5755 56.4539 97.5124 56.6329C97.451 56.8119 97.4203 57.0156 97.4203 57.244C97.4203 57.4724 97.451 57.6761 97.5124 57.8551C97.5755 58.034 97.6684 58.1755 97.7911 58.2795C97.9155 58.3818 98.0689 58.4329 98.2513 58.4329ZM102.335 59.2639C102.036 59.2639 101.766 59.1872 101.524 59.0338C101.284 58.8786 101.093 58.6511 100.951 58.3511C100.812 58.0494 100.742 57.6795 100.742 57.2414C100.742 56.7914 100.814 56.4173 100.959 56.119C101.104 55.819 101.296 55.5948 101.537 55.4465C101.779 55.2965 102.044 55.2215 102.332 55.2215C102.552 55.2215 102.735 55.259 102.882 55.334C103.03 55.4073 103.149 55.4994 103.24 55.6102C103.332 55.7193 103.402 55.8267 103.449 55.9323H103.483V53.9636H104.569V59.2H103.495V58.571H103.449C103.398 58.6801 103.326 58.7883 103.232 58.8957C103.14 59.0014 103.02 59.0892 102.871 59.159C102.725 59.2289 102.546 59.2639 102.335 59.2639ZM102.68 58.3971C102.855 58.3971 103.004 58.3494 103.125 58.2539C103.247 58.1568 103.341 58.0213 103.406 57.8474C103.472 57.6735 103.506 57.4698 103.506 57.2363C103.506 57.0028 103.473 56.8 103.408 56.6278C103.344 56.4556 103.25 56.3227 103.127 56.2289C103.004 56.1352 102.855 56.0883 102.68 56.0883C102.501 56.0883 102.35 56.1369 102.227 56.234C102.104 56.3312 102.012 56.4659 101.948 56.638C101.885 56.8102 101.854 57.0096 101.854 57.2363C101.854 57.4647 101.885 57.6667 101.948 57.8423C102.013 58.0161 102.106 58.1525 102.227 58.2514C102.35 58.3485 102.501 58.3971 102.68 58.3971ZM107.255 59.2767C106.851 59.2767 106.503 59.1948 106.211 59.0312C105.922 58.8659 105.698 58.6323 105.541 58.3306C105.385 58.0272 105.306 57.6684 105.306 57.2542C105.306 56.8502 105.385 56.4957 105.541 56.1906C105.698 55.8855 105.919 55.6477 106.204 55.4772C106.49 55.3068 106.826 55.2215 107.211 55.2215C107.47 55.2215 107.711 55.2633 107.935 55.3468C108.16 55.4286 108.356 55.5522 108.523 55.7176C108.691 55.8829 108.823 56.0909 108.916 56.3414C109.01 56.5903 109.057 56.8818 109.057 57.2159V57.515H105.741V56.84H108.032C108.032 56.6832 107.998 56.5443 107.93 56.4232C107.861 56.3022 107.767 56.2076 107.646 56.1394C107.526 56.0696 107.387 56.0346 107.229 56.0346C107.064 56.0346 106.917 56.073 106.789 56.1497C106.663 56.2247 106.564 56.3261 106.493 56.4539C106.421 56.5801 106.384 56.7207 106.383 56.8758V57.5176C106.383 57.7119 106.418 57.8798 106.49 58.0213C106.563 58.1627 106.666 58.2718 106.799 58.3485C106.932 58.4252 107.09 58.4636 107.272 58.4636C107.393 58.4636 107.504 58.4465 107.605 58.4125C107.705 58.3784 107.791 58.3272 107.863 58.259C107.935 58.1909 107.989 58.1073 108.027 58.0085L109.034 58.075C108.983 58.317 108.878 58.5284 108.72 58.709C108.563 58.888 108.36 59.0278 108.111 59.1284C107.864 59.2272 107.578 59.2767 107.255 59.2767ZM110.405 59.2664C110.236 59.2664 110.091 59.2068 109.97 59.0875C109.851 58.9664 109.791 58.8215 109.791 58.6528C109.791 58.4857 109.851 58.3426 109.97 58.2232C110.091 58.1039 110.236 58.0443 110.405 58.0443C110.568 58.0443 110.711 58.1039 110.834 58.2232C110.957 58.3426 111.018 58.4857 111.018 58.6528C111.018 58.7653 110.989 58.8684 110.931 58.9622C110.875 59.0542 110.801 59.1284 110.709 59.1846C110.617 59.2392 110.515 59.2664 110.405 59.2664ZM111.912 55.2727H113.002V59.3943C113.002 59.6977 112.942 59.9431 112.823 60.1306C112.703 60.3181 112.532 60.4553 112.309 60.5423C112.087 60.6292 111.822 60.6727 111.514 60.6727C111.476 60.6727 111.44 60.6718 111.406 60.6701C111.37 60.6701 111.333 60.6693 111.294 60.6676V59.8161C111.323 59.8178 111.348 59.8187 111.37 59.8187C111.391 59.8204 111.413 59.8213 111.437 59.8213C111.612 59.8213 111.735 59.7838 111.805 59.7088C111.877 59.6355 111.912 59.5247 111.912 59.3764V55.2727ZM112.454 54.7664C112.294 54.7664 112.156 54.7127 112.04 54.6053C111.924 54.4963 111.866 54.3659 111.866 54.2142C111.866 54.0642 111.924 53.9355 112.04 53.8281C112.156 53.719 112.294 53.6644 112.454 53.6644C112.618 53.6644 112.757 53.719 112.871 53.8281C112.987 53.9355 113.045 54.0642 113.045 54.2142C113.045 54.3659 112.987 54.4963 112.871 54.6053C112.757 54.7127 112.618 54.7664 112.454 54.7664ZM117.142 56.3926L116.145 56.4539C116.128 56.3687 116.091 56.292 116.035 56.2238C115.978 56.1539 115.904 56.0985 115.812 56.0576C115.722 56.015 115.614 55.9937 115.487 55.9937C115.319 55.9937 115.176 56.0295 115.06 56.1011C114.945 56.171 114.887 56.2647 114.887 56.3823C114.887 56.4761 114.924 56.5553 114.999 56.6201C115.074 56.6849 115.203 56.7369 115.385 56.7761L116.096 56.9193C116.478 56.9977 116.762 57.1238 116.95 57.2977C117.137 57.4715 117.231 57.7 117.231 57.9829C117.231 58.2403 117.155 58.4661 117.004 58.6605C116.854 58.8548 116.647 59.0065 116.385 59.1156C116.124 59.223 115.823 59.2767 115.482 59.2767C114.962 59.2767 114.548 59.1684 114.24 58.9519C113.933 58.7338 113.753 58.4372 113.7 58.0622L114.772 58.0059C114.804 58.1644 114.882 58.2855 115.007 58.369C115.131 58.4508 115.291 58.4917 115.485 58.4917C115.676 58.4917 115.829 58.4551 115.945 58.3818C116.063 58.3068 116.122 58.2105 116.124 58.0928C116.122 57.994 116.081 57.913 115.999 57.85C115.917 57.7852 115.791 57.7357 115.62 57.7017L114.94 57.5661C114.557 57.4894 114.271 57.3565 114.084 57.1673C113.898 56.9781 113.805 56.7369 113.805 56.4437C113.805 56.1914 113.873 55.9741 114.01 55.7917C114.148 55.6093 114.341 55.4687 114.59 55.3698C114.841 55.271 115.134 55.2215 115.47 55.2215C115.966 55.2215 116.356 55.3264 116.641 55.536C116.927 55.7457 117.094 56.0312 117.142 56.3926Z" fill="white"/>
<rect x="127.3" y="49.5" width="38.4" height="14.4" rx="2.7" fill="#092AD0" fill-opacity="0.56" stroke="#092AD0" stroke-width="0.6"/>
<path d="M133.018 59.2L133.877 53.9636H134.696L133.837 59.2H133.018ZM130.674 57.9011L130.809 57.0829H134.9L134.765 57.9011H130.674ZM131.177 59.2L132.037 53.9636H132.855L131.996 59.2H131.177ZM130.973 56.0806L131.111 55.2625H135.202L135.064 56.0806H130.973ZM137.397 59.2V53.9636H139.463C139.86 53.9636 140.198 54.0394 140.478 54.1911C140.757 54.3411 140.97 54.55 141.117 54.8176C141.265 55.0835 141.34 55.3903 141.34 55.738C141.34 56.0857 141.265 56.3926 141.115 56.6585C140.965 56.9244 140.747 57.1315 140.463 57.2798C140.18 57.4281 139.837 57.5022 139.435 57.5022H138.118V56.615H139.256C139.469 56.615 139.644 56.5784 139.782 56.5051C139.922 56.4301 140.026 56.3269 140.094 56.1957C140.164 56.0627 140.199 55.9102 140.199 55.738C140.199 55.5642 140.164 55.4125 140.094 55.2829C140.026 55.1517 139.922 55.0502 139.782 54.9786C139.643 54.9053 139.465 54.8687 139.251 54.8687H138.504V59.2H137.397ZM142.711 60.6727C142.573 60.6727 142.443 60.6616 142.322 60.6394C142.203 60.619 142.104 60.5926 142.025 60.5602L142.271 59.7471C142.399 59.7863 142.514 59.8076 142.616 59.811C142.72 59.8144 142.809 59.7906 142.884 59.7394C142.961 59.6883 143.023 59.6014 143.071 59.4786L143.135 59.3125L141.726 55.2727H142.872L143.685 58.1568H143.726L144.546 55.2727H145.7L144.173 59.6244C144.1 59.8357 144 60.0198 143.874 60.1767C143.75 60.3352 143.592 60.4571 143.401 60.5423C143.21 60.6292 142.98 60.6727 142.711 60.6727ZM148.346 55.2727V56.0909H145.981V55.2727H148.346ZM146.518 54.3318H147.607V57.9931C147.607 58.0937 147.622 58.1721 147.653 58.2284C147.684 58.2829 147.726 58.3213 147.781 58.3434C147.837 58.3656 147.902 58.3767 147.975 58.3767C148.026 58.3767 148.077 58.3724 148.129 58.3639C148.18 58.3536 148.219 58.346 148.246 58.3409L148.417 59.1514C148.363 59.1684 148.286 59.188 148.187 59.2102C148.088 59.234 147.968 59.2485 147.827 59.2536C147.564 59.2639 147.334 59.2289 147.136 59.1488C146.94 59.0687 146.788 58.9443 146.679 58.7755C146.57 58.6068 146.516 58.3937 146.518 58.1363V54.3318ZM150.229 56.9295V59.2H149.14V53.9636H150.198V55.9656H150.244C150.333 55.7338 150.476 55.5522 150.674 55.421C150.872 55.288 151.12 55.2215 151.418 55.2215C151.691 55.2215 151.928 55.2812 152.131 55.4005C152.336 55.5181 152.494 55.6877 152.607 55.9093C152.721 56.1292 152.777 56.3926 152.776 56.6994V59.2H151.686V56.8937C151.688 56.6517 151.627 56.4633 151.502 56.3286C151.38 56.194 151.207 56.1267 150.986 56.1267C150.837 56.1267 150.706 56.1582 150.592 56.2213C150.48 56.2843 150.391 56.3764 150.326 56.4974C150.263 56.6167 150.231 56.7607 150.229 56.9295ZM155.407 59.2767C155.01 59.2767 154.667 59.1923 154.377 59.0235C154.089 58.8531 153.866 58.6161 153.709 58.3127C153.553 58.0076 153.474 57.6539 153.474 57.2517C153.474 56.846 153.553 56.4914 153.709 56.188C153.866 55.8829 154.089 55.646 154.377 55.4772C154.667 55.3068 155.01 55.2215 155.407 55.2215C155.804 55.2215 156.147 55.3068 156.435 55.4772C156.725 55.646 156.948 55.8829 157.105 56.188C157.262 56.4914 157.34 56.846 157.34 57.2517C157.34 57.6539 157.262 58.0076 157.105 58.3127C156.948 58.6161 156.725 58.8531 156.435 59.0235C156.147 59.1923 155.804 59.2767 155.407 59.2767ZM155.412 58.4329C155.593 58.4329 155.744 58.3818 155.865 58.2795C155.986 58.1755 156.077 58.034 156.138 57.8551C156.201 57.6761 156.233 57.4724 156.233 57.244C156.233 57.0156 156.201 56.8119 156.138 56.6329C156.077 56.4539 155.986 56.3125 155.865 56.2085C155.744 56.1045 155.593 56.0525 155.412 56.0525C155.23 56.0525 155.076 56.1045 154.952 56.2085C154.829 56.3125 154.736 56.4539 154.673 56.6329C154.612 56.8119 154.581 57.0156 154.581 57.244C154.581 57.4724 154.612 57.6761 154.673 57.8551C154.736 58.034 154.829 58.1755 154.952 58.2795C155.076 58.3818 155.23 58.4329 155.412 58.4329ZM159.138 56.9295V59.2H158.048V55.2727H159.086V55.9656H159.132C159.219 55.7372 159.365 55.5565 159.57 55.4235C159.774 55.2889 160.022 55.2215 160.314 55.2215C160.586 55.2215 160.824 55.2812 161.027 55.4005C161.23 55.5198 161.388 55.6903 161.5 55.9119C161.613 56.1318 161.669 56.3943 161.669 56.6994V59.2H160.58V56.8937C160.581 56.6534 160.52 56.4659 160.395 56.3312C160.271 56.1948 160.1 56.1267 159.882 56.1267C159.735 56.1267 159.605 56.1582 159.493 56.2213C159.382 56.2843 159.295 56.3764 159.232 56.4974C159.171 56.6167 159.139 56.7607 159.138 56.9295Z" fill="white"/>
<rect x="171.7" y="49.5" width="41.4" height="14.4" rx="2.7" fill="#092AD0" fill-opacity="0.56" stroke="#092AD0" stroke-width="0.6"/>
<path d="M178.018 59.2L178.877 53.9636H179.696L178.837 59.2H178.018ZM175.674 57.9011L175.809 57.0829H179.9L179.765 57.9011H175.674ZM176.177 59.2L177.037 53.9636H177.855L176.996 59.2H176.177ZM175.973 56.0806L176.111 55.2625H180.202L180.064 56.0806H175.973ZM182.397 53.9636H183.762L185.204 57.4818H185.266L186.708 53.9636H188.073V59.2H186.999V55.7917H186.956L185.601 59.1744H184.869L183.514 55.7789H183.471V59.2H182.397V53.9636ZM188.678 53.9636H189.918L191.112 56.2187H191.164L192.358 53.9636H193.598L191.688 57.3488V59.2H190.588V57.3488L188.678 53.9636ZM197.043 55.4696C197.023 55.2633 196.935 55.1031 196.78 54.9889C196.625 54.8747 196.414 54.8176 196.148 54.8176C195.967 54.8176 195.815 54.8431 195.69 54.8943C195.566 54.9437 195.471 55.0127 195.404 55.1014C195.339 55.19 195.307 55.2906 195.307 55.4031C195.304 55.4968 195.323 55.5786 195.366 55.6485C195.41 55.7184 195.471 55.7789 195.547 55.8301C195.624 55.8795 195.713 55.923 195.813 55.9605C195.914 55.9963 196.021 56.0269 196.135 56.0525L196.606 56.165C196.834 56.2161 197.044 56.2843 197.235 56.3696C197.426 56.4548 197.591 56.5596 197.731 56.684C197.871 56.8085 197.979 56.9551 198.056 57.1238C198.134 57.2926 198.174 57.486 198.176 57.7042C198.174 58.0247 198.092 58.3025 197.93 58.5377C197.77 58.7713 197.538 58.9528 197.235 59.0823C196.933 59.2102 196.569 59.2741 196.143 59.2741C195.72 59.2741 195.352 59.2093 195.038 59.0798C194.727 58.9502 194.483 58.7585 194.307 58.5045C194.133 58.2488 194.042 57.9326 194.034 57.5559H195.105C195.117 57.7315 195.167 57.8781 195.256 57.9957C195.346 58.1116 195.466 58.1994 195.616 58.259C195.768 58.317 195.939 58.346 196.13 58.346C196.318 58.346 196.481 58.3187 196.619 58.2642C196.758 58.2096 196.867 58.1338 196.943 58.0366C197.02 57.9394 197.058 57.8278 197.058 57.7017C197.058 57.584 197.023 57.4852 196.954 57.4051C196.885 57.325 196.785 57.2568 196.652 57.2005C196.521 57.1443 196.359 57.0931 196.169 57.0471L195.598 56.9039C195.157 56.7965 194.808 56.6286 194.553 56.4002C194.297 56.1718 194.17 55.8642 194.172 55.4772C194.17 55.1602 194.254 54.8832 194.425 54.6463C194.597 54.4093 194.833 54.2244 195.133 54.0914C195.433 53.9585 195.774 53.892 196.156 53.892C196.544 53.892 196.884 53.9585 197.173 54.0914C197.465 54.2244 197.692 54.4093 197.854 54.6463C198.015 54.8832 198.099 55.1576 198.104 55.4696H197.043ZM200.897 57.3795H201.838L202.311 57.988L202.776 58.5301L203.653 59.6295H202.62L202.017 58.888L201.707 58.4482L200.897 57.3795ZM203.732 56.5818C203.732 57.1528 203.624 57.6386 203.408 58.0392C203.193 58.4397 202.9 58.7457 202.528 58.9571C202.158 59.1667 201.742 59.2715 201.28 59.2715C200.815 59.2715 200.397 59.1659 200.027 58.9545C199.658 58.7431 199.365 58.4372 199.15 58.0366C198.936 57.636 198.828 57.1511 198.828 56.5818C198.828 56.0107 198.936 55.525 199.15 55.1244C199.365 54.7238 199.658 54.4187 200.027 54.209C200.397 53.9977 200.815 53.892 201.28 53.892C201.742 53.892 202.158 53.9977 202.528 54.209C202.9 54.4187 203.193 54.7238 203.408 55.1244C203.624 55.525 203.732 56.0107 203.732 56.5818ZM202.61 56.5818C202.61 56.2119 202.554 55.9 202.444 55.646C202.335 55.392 202.18 55.1994 201.981 55.0681C201.781 54.9369 201.548 54.8713 201.28 54.8713C201.013 54.8713 200.779 54.9369 200.58 55.0681C200.38 55.1994 200.225 55.392 200.114 55.646C200.005 55.9 199.951 56.2119 199.951 56.5818C199.951 56.9517 200.005 57.2636 200.114 57.5176C200.225 57.7715 200.38 57.9642 200.58 58.0954C200.779 58.2267 201.013 58.2923 201.28 58.2923C201.548 58.2923 201.781 58.2267 201.981 58.0954C202.18 57.9642 202.335 57.7715 202.444 57.5176C202.554 57.2636 202.61 56.9517 202.61 56.5818ZM204.552 59.2V53.9636H205.659V58.2872H207.904V59.2H204.552Z" fill="white"/>
</g>
<defs>
<filter id="filter0_d_799_1347" x="0" y="0" width="308" height="89" filterUnits="userSpaceOnUse" color-interpolation-filters="sRGB">
<feFlood flood-opacity="0" result="BackgroundImageFix"/>
<feColorMatrix in="SourceAlpha" type="matrix" values="0 0 0 0 0 0 0 0 0 0 0 0 0 0 0 0 0 0 127 0" result="hardAlpha"/>
<feOffset dy="4"/>
<feGaussianBlur stdDeviation="2"/>
<feComposite in2="hardAlpha" operator="out"/>
<feColorMatrix type="matrix" values="0 0 0 0 0 0 0 0 0 0 0 0 0 0 0 0 0 0 0.25 0"/>
<feBlend mode="normal" in2="BackgroundImageFix" result="effect1_dropShadow_799_1347"/>
<feBlend mode="normal" in="SourceGraphic" in2="effect1_dropShadow_799_1347" result="shape"/>
</filter>
</defs>
</svg>
