<svg width="1323" height="250" viewBox="0 0 1323 250" fill="none" xmlns="http://www.w3.org/2000/svg">
<rect width="1323" height="250" rx="35" fill="white"/>
<path d="M233.528 107V77.9091H245.006C247.212 77.9091 249.092 78.3305 250.645 79.1733C252.198 80.0066 253.382 81.1667 254.196 82.6534C255.02 84.1307 255.432 85.8352 255.432 87.767C255.432 89.6989 255.015 91.4034 254.182 92.8807C253.348 94.358 252.141 95.5085 250.56 96.3324C248.988 97.1562 247.084 97.5682 244.849 97.5682H237.534V92.6392H243.855C245.039 92.6392 246.014 92.4356 246.781 92.0284C247.558 91.6117 248.135 91.0388 248.514 90.3097C248.902 89.571 249.097 88.7235 249.097 87.767C249.097 86.8011 248.902 85.9583 248.514 85.2386C248.135 84.5095 247.558 83.946 246.781 83.5483C246.005 83.1411 245.02 82.9375 243.827 82.9375H239.679V107H233.528ZM268.82 107.426C266.613 107.426 264.705 106.957 263.095 106.02C261.495 105.073 260.259 103.757 259.388 102.071C258.517 100.376 258.081 98.411 258.081 96.1761C258.081 93.9223 258.517 91.9527 259.388 90.267C260.259 88.572 261.495 87.2557 263.095 86.3182C264.705 85.3712 266.613 84.8977 268.82 84.8977C271.026 84.8977 272.929 85.3712 274.53 86.3182C276.14 87.2557 277.38 88.572 278.251 90.267C279.123 91.9527 279.558 93.9223 279.558 96.1761C279.558 98.411 279.123 100.376 278.251 102.071C277.38 103.757 276.14 105.073 274.53 106.02C272.929 106.957 271.026 107.426 268.82 107.426ZM268.848 102.739C269.852 102.739 270.69 102.455 271.362 101.886C272.035 101.309 272.541 100.523 272.882 99.5284C273.232 98.5341 273.408 97.4025 273.408 96.1335C273.408 94.8646 273.232 93.733 272.882 92.7386C272.541 91.7443 272.035 90.9583 271.362 90.3807C270.69 89.803 269.852 89.5142 268.848 89.5142C267.835 89.5142 266.982 89.803 266.291 90.3807C265.609 90.9583 265.093 91.7443 264.743 92.7386C264.402 93.733 264.232 94.8646 264.232 96.1335C264.232 97.4025 264.402 98.5341 264.743 99.5284C265.093 100.523 265.609 101.309 266.291 101.886C266.982 102.455 267.835 102.739 268.848 102.739ZM283.493 107V85.1818H289.359V88.9886H289.587C289.984 87.6345 290.652 86.6117 291.589 85.9205C292.527 85.2197 293.607 84.8693 294.828 84.8693C295.131 84.8693 295.458 84.8883 295.808 84.9261C296.159 84.964 296.466 85.0161 296.732 85.0824V90.4517C296.447 90.3665 296.054 90.2907 295.553 90.2244C295.051 90.1581 294.591 90.125 294.175 90.125C293.285 90.125 292.489 90.3191 291.788 90.7074C291.097 91.0862 290.548 91.6165 290.141 92.2983C289.743 92.9801 289.544 93.7661 289.544 94.6562V107H283.493ZM312.559 85.1818V89.7273H299.42V85.1818H312.559ZM302.403 79.9545H308.454V100.295C308.454 100.854 308.539 101.29 308.71 101.602C308.88 101.905 309.117 102.118 309.42 102.241C309.732 102.365 310.092 102.426 310.499 102.426C310.783 102.426 311.067 102.402 311.352 102.355C311.636 102.298 311.853 102.256 312.005 102.227L312.957 106.73C312.654 106.825 312.228 106.934 311.678 107.057C311.129 107.189 310.461 107.27 309.675 107.298C308.217 107.355 306.939 107.161 305.84 106.716C304.751 106.271 303.904 105.58 303.298 104.642C302.692 103.705 302.393 102.521 302.403 101.091V79.9545ZM328.106 85.1818V89.7273H314.967V85.1818H328.106ZM317.95 79.9545H324.001V100.295C324.001 100.854 324.086 101.29 324.256 101.602C324.427 101.905 324.664 102.118 324.967 102.241C325.279 102.365 325.639 102.426 326.046 102.426C326.33 102.426 326.614 102.402 326.898 102.355C327.183 102.298 327.4 102.256 327.552 102.227L328.504 106.73C328.201 106.825 327.774 106.934 327.225 107.057C326.676 107.189 326.008 107.27 325.222 107.298C323.764 107.355 322.486 107.161 321.387 106.716C320.298 106.271 319.451 105.58 318.844 104.642C318.238 103.705 317.94 102.521 317.95 101.091V79.9545Z" fill="black"/>
<path d="M248.557 134.273C248.557 136.176 248.196 137.795 247.474 139.131C246.759 140.466 245.781 141.486 244.543 142.19C243.31 142.889 241.923 143.239 240.384 143.239C238.832 143.239 237.44 142.886 236.207 142.182C234.974 141.477 234 140.457 233.284 139.122C232.568 137.787 232.21 136.17 232.21 134.273C232.21 132.369 232.568 130.75 233.284 129.415C234 128.08 234.974 127.062 236.207 126.364C237.44 125.659 238.832 125.307 240.384 125.307C241.923 125.307 243.31 125.659 244.543 126.364C245.781 127.062 246.759 128.08 247.474 129.415C248.196 130.75 248.557 132.369 248.557 134.273ZM244.815 134.273C244.815 133.04 244.631 132 244.261 131.153C243.898 130.307 243.384 129.665 242.719 129.227C242.054 128.79 241.276 128.571 240.384 128.571C239.491 128.571 238.713 128.79 238.048 129.227C237.384 129.665 236.866 130.307 236.497 131.153C236.134 132 235.952 133.04 235.952 134.273C235.952 135.506 236.134 136.545 236.497 137.392C236.866 138.239 237.384 138.881 238.048 139.318C238.713 139.756 239.491 139.974 240.384 139.974C241.276 139.974 242.054 139.756 242.719 139.318C243.384 138.881 243.898 138.239 244.261 137.392C244.631 136.545 244.815 135.506 244.815 134.273ZM251.222 147.909V129.909H254.802V132.108H254.964C255.123 131.756 255.353 131.398 255.654 131.034C255.961 130.665 256.359 130.358 256.847 130.114C257.342 129.864 257.955 129.739 258.688 129.739C259.643 129.739 260.523 129.989 261.33 130.489C262.137 130.983 262.782 131.73 263.265 132.73C263.748 133.724 263.989 134.972 263.989 136.472C263.989 137.932 263.754 139.165 263.282 140.17C262.816 141.17 262.18 141.929 261.373 142.446C260.572 142.957 259.674 143.213 258.68 143.213C257.975 143.213 257.376 143.097 256.881 142.864C256.393 142.631 255.992 142.338 255.68 141.986C255.367 141.628 255.129 141.267 254.964 140.903H254.853V147.909H251.222ZM254.776 136.455C254.776 137.233 254.884 137.912 255.1 138.491C255.316 139.071 255.629 139.523 256.038 139.847C256.447 140.165 256.944 140.324 257.529 140.324C258.12 140.324 258.62 140.162 259.029 139.838C259.438 139.509 259.748 139.054 259.958 138.474C260.174 137.889 260.282 137.216 260.282 136.455C260.282 135.699 260.177 135.034 259.967 134.46C259.756 133.886 259.447 133.437 259.038 133.114C258.629 132.79 258.126 132.628 257.529 132.628C256.938 132.628 256.438 132.784 256.029 133.097C255.626 133.409 255.316 133.852 255.1 134.426C254.884 135 254.776 135.676 254.776 136.455ZM272.376 143.256C271.029 143.256 269.87 142.983 268.898 142.438C267.933 141.886 267.188 141.108 266.665 140.102C266.143 139.091 265.881 137.895 265.881 136.514C265.881 135.168 266.143 133.986 266.665 132.969C267.188 131.952 267.924 131.159 268.873 130.591C269.827 130.023 270.947 129.739 272.231 129.739C273.094 129.739 273.898 129.878 274.643 130.156C275.393 130.429 276.046 130.841 276.603 131.392C277.165 131.943 277.603 132.636 277.915 133.472C278.228 134.301 278.384 135.273 278.384 136.386V137.384H267.33V135.134H274.967C274.967 134.611 274.853 134.148 274.626 133.744C274.398 133.341 274.083 133.026 273.68 132.798C273.282 132.565 272.819 132.449 272.29 132.449C271.739 132.449 271.251 132.577 270.825 132.832C270.404 133.082 270.075 133.42 269.836 133.847C269.597 134.267 269.475 134.736 269.469 135.253V137.392C269.469 138.04 269.589 138.599 269.827 139.071C270.072 139.543 270.415 139.906 270.859 140.162C271.302 140.418 271.827 140.545 272.435 140.545C272.839 140.545 273.208 140.489 273.543 140.375C273.879 140.261 274.165 140.091 274.404 139.864C274.643 139.636 274.825 139.358 274.95 139.028L278.308 139.25C278.137 140.057 277.788 140.761 277.259 141.364C276.737 141.96 276.06 142.426 275.231 142.761C274.407 143.091 273.455 143.256 272.376 143.256ZM284.384 135.432V143H280.754V129.909H284.214V132.219H284.367C284.657 131.457 285.143 130.855 285.825 130.412C286.506 129.963 287.333 129.739 288.305 129.739C289.214 129.739 290.006 129.938 290.683 130.335C291.359 130.733 291.884 131.301 292.259 132.04C292.634 132.773 292.822 133.648 292.822 134.665V143H289.191V135.312C289.197 134.511 288.992 133.886 288.577 133.438C288.163 132.983 287.592 132.756 286.864 132.756C286.376 132.756 285.944 132.861 285.569 133.071C285.2 133.281 284.91 133.588 284.7 133.991C284.495 134.389 284.39 134.869 284.384 135.432ZM310.775 130.565C310.707 129.878 310.414 129.344 309.897 128.963C309.38 128.582 308.678 128.392 307.792 128.392C307.19 128.392 306.681 128.477 306.266 128.648C305.852 128.812 305.533 129.043 305.312 129.338C305.096 129.634 304.988 129.969 304.988 130.344C304.977 130.656 305.042 130.929 305.184 131.162C305.332 131.395 305.533 131.597 305.789 131.767C306.045 131.932 306.34 132.077 306.675 132.202C307.011 132.321 307.369 132.423 307.749 132.509L309.317 132.884C310.079 133.054 310.778 133.281 311.414 133.565C312.05 133.849 312.602 134.199 313.067 134.614C313.533 135.028 313.894 135.517 314.15 136.08C314.411 136.642 314.545 137.287 314.55 138.014C314.545 139.082 314.272 140.009 313.732 140.793C313.198 141.571 312.425 142.176 311.414 142.608C310.408 143.034 309.195 143.247 307.775 143.247C306.366 143.247 305.138 143.031 304.093 142.599C303.053 142.168 302.241 141.528 301.656 140.682C301.076 139.83 300.772 138.776 300.744 137.52H304.315C304.354 138.105 304.522 138.594 304.817 138.986C305.119 139.372 305.519 139.665 306.019 139.864C306.525 140.057 307.096 140.153 307.732 140.153C308.357 140.153 308.9 140.062 309.36 139.881C309.826 139.699 310.187 139.446 310.442 139.122C310.698 138.798 310.826 138.426 310.826 138.006C310.826 137.614 310.71 137.284 310.477 137.017C310.249 136.75 309.914 136.523 309.471 136.335C309.033 136.148 308.496 135.977 307.86 135.824L305.96 135.347C304.488 134.989 303.326 134.429 302.474 133.668C301.621 132.906 301.198 131.881 301.204 130.591C301.198 129.534 301.479 128.611 302.048 127.821C302.621 127.031 303.408 126.415 304.408 125.972C305.408 125.528 306.545 125.307 307.817 125.307C309.113 125.307 310.244 125.528 311.21 125.972C312.181 126.415 312.937 127.031 313.477 127.821C314.016 128.611 314.295 129.526 314.312 130.565H310.775ZM322.879 143.256C321.555 143.256 320.411 142.974 319.445 142.412C318.484 141.844 317.743 141.054 317.22 140.043C316.697 139.026 316.436 137.847 316.436 136.506C316.436 135.153 316.697 133.972 317.22 132.96C317.743 131.943 318.484 131.153 319.445 130.591C320.411 130.023 321.555 129.739 322.879 129.739C324.203 129.739 325.345 130.023 326.305 130.591C327.271 131.153 328.016 131.943 328.538 132.96C329.061 133.972 329.322 135.153 329.322 136.506C329.322 137.847 329.061 139.026 328.538 140.043C328.016 141.054 327.271 141.844 326.305 142.412C325.345 142.974 324.203 143.256 322.879 143.256ZM322.896 140.443C323.499 140.443 324.001 140.273 324.405 139.932C324.808 139.585 325.112 139.114 325.317 138.517C325.527 137.92 325.632 137.241 325.632 136.48C325.632 135.719 325.527 135.04 325.317 134.443C325.112 133.847 324.808 133.375 324.405 133.028C324.001 132.682 323.499 132.509 322.896 132.509C322.288 132.509 321.777 132.682 321.362 133.028C320.953 133.375 320.643 133.847 320.433 134.443C320.229 135.04 320.126 135.719 320.126 136.48C320.126 137.241 320.229 137.92 320.433 138.517C320.643 139.114 320.953 139.585 321.362 139.932C321.777 140.273 322.288 140.443 322.896 140.443ZM340.078 137.426V129.909H343.709V143H340.223V140.622H340.087C339.791 141.389 339.3 142.006 338.612 142.472C337.93 142.937 337.098 143.17 336.115 143.17C335.24 143.17 334.47 142.972 333.805 142.574C333.141 142.176 332.621 141.611 332.246 140.878C331.876 140.145 331.689 139.267 331.683 138.244V129.909H335.314V137.597C335.32 138.369 335.527 138.98 335.936 139.429C336.345 139.878 336.893 140.102 337.581 140.102C338.018 140.102 338.428 140.003 338.808 139.804C339.189 139.599 339.496 139.298 339.729 138.901C339.967 138.503 340.084 138.011 340.078 137.426ZM346.613 143V129.909H350.133V132.193H350.269C350.508 131.381 350.908 130.767 351.471 130.352C352.033 129.932 352.681 129.722 353.414 129.722C353.596 129.722 353.792 129.733 354.002 129.756C354.212 129.778 354.397 129.81 354.556 129.849V133.071C354.386 133.02 354.15 132.974 353.849 132.935C353.548 132.895 353.272 132.875 353.022 132.875C352.488 132.875 352.011 132.991 351.59 133.224C351.175 133.452 350.846 133.77 350.602 134.179C350.363 134.588 350.244 135.06 350.244 135.594V143H346.613ZM361.739 143.256C360.398 143.256 359.244 142.972 358.278 142.403C357.318 141.83 356.58 141.034 356.062 140.017C355.551 139 355.295 137.83 355.295 136.506C355.295 135.165 355.554 133.989 356.071 132.977C356.594 131.96 357.335 131.168 358.295 130.599C359.256 130.026 360.398 129.739 361.722 129.739C362.864 129.739 363.864 129.946 364.722 130.361C365.58 130.776 366.259 131.358 366.759 132.108C367.259 132.858 367.534 133.739 367.585 134.75H364.159C364.063 134.097 363.807 133.571 363.392 133.173C362.983 132.77 362.446 132.568 361.781 132.568C361.219 132.568 360.727 132.722 360.307 133.028C359.892 133.33 359.568 133.77 359.335 134.349C359.102 134.929 358.986 135.631 358.986 136.455C358.986 137.29 359.099 138 359.327 138.585C359.56 139.17 359.886 139.616 360.307 139.923C360.727 140.23 361.219 140.384 361.781 140.384C362.196 140.384 362.568 140.298 362.898 140.128C363.233 139.957 363.509 139.71 363.724 139.386C363.946 139.057 364.091 138.662 364.159 138.202H367.585C367.528 139.202 367.256 140.082 366.767 140.844C366.284 141.599 365.616 142.19 364.764 142.616C363.912 143.043 362.903 143.256 361.739 143.256ZM375.876 143.256C374.529 143.256 373.37 142.983 372.398 142.438C371.433 141.886 370.688 141.108 370.165 140.102C369.643 139.091 369.381 137.895 369.381 136.514C369.381 135.168 369.643 133.986 370.165 132.969C370.688 131.952 371.424 131.159 372.373 130.591C373.327 130.023 374.447 129.739 375.731 129.739C376.594 129.739 377.398 129.878 378.143 130.156C378.893 130.429 379.546 130.841 380.103 131.392C380.665 131.943 381.103 132.636 381.415 133.472C381.728 134.301 381.884 135.273 381.884 136.386V137.384H370.83V135.134H378.467C378.467 134.611 378.353 134.148 378.126 133.744C377.898 133.341 377.583 133.026 377.18 132.798C376.782 132.565 376.319 132.449 375.79 132.449C375.239 132.449 374.751 132.577 374.325 132.832C373.904 133.082 373.575 133.42 373.336 133.847C373.097 134.267 372.975 134.736 372.969 135.253V137.392C372.969 138.04 373.089 138.599 373.327 139.071C373.572 139.543 373.915 139.906 374.359 140.162C374.802 140.418 375.327 140.545 375.935 140.545C376.339 140.545 376.708 140.489 377.043 140.375C377.379 140.261 377.665 140.091 377.904 139.864C378.143 139.636 378.325 139.358 378.45 139.028L381.808 139.25C381.637 140.057 381.288 140.761 380.759 141.364C380.237 141.96 379.56 142.426 378.731 142.761C377.907 143.091 376.955 143.256 375.876 143.256ZM396.771 129.909V132.636H388.888V129.909H396.771ZM390.678 126.773H394.308V138.977C394.308 139.312 394.359 139.574 394.462 139.761C394.564 139.943 394.706 140.071 394.888 140.145C395.075 140.219 395.291 140.256 395.536 140.256C395.706 140.256 395.876 140.241 396.047 140.213C396.217 140.179 396.348 140.153 396.439 140.136L397.01 142.838C396.828 142.895 396.572 142.96 396.243 143.034C395.913 143.114 395.513 143.162 395.041 143.179C394.166 143.213 393.399 143.097 392.74 142.83C392.087 142.562 391.578 142.148 391.214 141.585C390.851 141.023 390.672 140.312 390.678 139.455V126.773ZM404.962 143.256C403.615 143.256 402.456 142.983 401.484 142.438C400.518 141.886 399.774 141.108 399.251 140.102C398.729 139.091 398.467 137.895 398.467 136.514C398.467 135.168 398.729 133.986 399.251 132.969C399.774 131.952 400.51 131.159 401.459 130.591C402.413 130.023 403.533 129.739 404.817 129.739C405.68 129.739 406.484 129.878 407.229 130.156C407.979 130.429 408.632 130.841 409.189 131.392C409.751 131.943 410.189 132.636 410.501 133.472C410.814 134.301 410.97 135.273 410.97 136.386V137.384H399.916V135.134H407.553C407.553 134.611 407.439 134.148 407.212 133.744C406.984 133.341 406.669 133.026 406.266 132.798C405.868 132.565 405.405 132.449 404.876 132.449C404.325 132.449 403.837 132.577 403.411 132.832C402.99 133.082 402.661 133.42 402.422 133.847C402.183 134.267 402.061 134.736 402.055 135.253V137.392C402.055 138.04 402.175 138.599 402.413 139.071C402.658 139.543 403.001 139.906 403.445 140.162C403.888 140.418 404.413 140.545 405.021 140.545C405.425 140.545 405.794 140.489 406.129 140.375C406.464 140.261 406.751 140.091 406.99 139.864C407.229 139.636 407.411 139.358 407.536 139.028L410.893 139.25C410.723 140.057 410.374 140.761 409.845 141.364C409.322 141.96 408.646 142.426 407.817 142.761C406.993 143.091 406.041 143.256 404.962 143.256ZM417.072 143.247C416.237 143.247 415.493 143.102 414.839 142.812C414.186 142.517 413.669 142.082 413.288 141.509C412.913 140.929 412.726 140.207 412.726 139.344C412.726 138.616 412.859 138.006 413.126 137.511C413.393 137.017 413.757 136.619 414.217 136.318C414.678 136.017 415.2 135.79 415.786 135.636C416.376 135.483 416.996 135.375 417.643 135.312C418.405 135.233 419.018 135.159 419.484 135.091C419.95 135.017 420.288 134.909 420.499 134.767C420.709 134.625 420.814 134.415 420.814 134.136V134.085C420.814 133.545 420.643 133.128 420.303 132.832C419.967 132.537 419.49 132.389 418.871 132.389C418.217 132.389 417.697 132.534 417.311 132.824C416.925 133.108 416.669 133.466 416.544 133.898L413.186 133.625C413.357 132.83 413.692 132.142 414.192 131.562C414.692 130.977 415.337 130.528 416.126 130.216C416.922 129.898 417.842 129.739 418.888 129.739C419.615 129.739 420.311 129.824 420.976 129.994C421.646 130.165 422.24 130.429 422.757 130.787C423.28 131.145 423.692 131.605 423.993 132.168C424.294 132.724 424.445 133.392 424.445 134.17V143H421.001V141.185H420.899C420.689 141.594 420.408 141.955 420.055 142.267C419.703 142.574 419.28 142.815 418.786 142.991C418.291 143.162 417.72 143.247 417.072 143.247ZM418.112 140.741C418.646 140.741 419.118 140.636 419.527 140.426C419.936 140.21 420.257 139.92 420.49 139.557C420.723 139.193 420.839 138.781 420.839 138.321V136.932C420.726 137.006 420.57 137.074 420.371 137.136C420.178 137.193 419.959 137.247 419.714 137.298C419.47 137.344 419.226 137.386 418.982 137.426C418.737 137.46 418.516 137.491 418.317 137.52C417.891 137.582 417.518 137.682 417.2 137.818C416.882 137.955 416.635 138.139 416.459 138.372C416.283 138.599 416.195 138.884 416.195 139.224C416.195 139.719 416.374 140.097 416.732 140.358C417.095 140.614 417.555 140.741 418.112 140.741ZM427.261 143V129.909H430.722V132.219H430.875C431.148 131.452 431.602 130.847 432.239 130.403C432.875 129.96 433.636 129.739 434.523 129.739C435.42 129.739 436.185 129.963 436.815 130.412C437.446 130.855 437.866 131.457 438.077 132.219H438.213C438.48 131.469 438.963 130.869 439.662 130.42C440.366 129.966 441.199 129.739 442.159 129.739C443.381 129.739 444.372 130.128 445.134 130.906C445.901 131.679 446.284 132.776 446.284 134.196V143H442.662V134.912C442.662 134.185 442.469 133.639 442.082 133.276C441.696 132.912 441.213 132.73 440.634 132.73C439.974 132.73 439.46 132.94 439.091 133.361C438.722 133.776 438.537 134.324 438.537 135.006V143H435.017V134.835C435.017 134.193 434.832 133.682 434.463 133.301C434.099 132.92 433.619 132.73 433.023 132.73C432.619 132.73 432.256 132.832 431.932 133.037C431.614 133.236 431.361 133.517 431.173 133.881C430.986 134.239 430.892 134.659 430.892 135.142V143H427.261ZM454.775 143V125.545H458.406V132.108H458.516C458.675 131.756 458.906 131.398 459.207 131.034C459.513 130.665 459.911 130.358 460.4 130.114C460.894 129.864 461.508 129.739 462.241 129.739C463.195 129.739 464.076 129.989 464.883 130.489C465.69 130.983 466.335 131.73 466.817 132.73C467.3 133.724 467.542 134.972 467.542 136.472C467.542 137.932 467.306 139.165 466.835 140.17C466.369 141.17 465.732 141.929 464.925 142.446C464.124 142.957 463.227 143.213 462.232 143.213C461.528 143.213 460.928 143.097 460.434 142.864C459.945 142.631 459.545 142.338 459.232 141.986C458.92 141.628 458.681 141.267 458.516 140.903H458.354V143H454.775ZM458.329 136.455C458.329 137.233 458.437 137.912 458.653 138.491C458.869 139.071 459.181 139.523 459.59 139.847C459.999 140.165 460.496 140.324 461.082 140.324C461.673 140.324 462.173 140.162 462.582 139.838C462.991 139.509 463.3 139.054 463.511 138.474C463.727 137.889 463.835 137.216 463.835 136.455C463.835 135.699 463.729 135.034 463.519 134.46C463.309 133.886 462.999 133.437 462.59 133.114C462.181 132.79 461.678 132.628 461.082 132.628C460.491 132.628 459.991 132.784 459.582 133.097C459.178 133.409 458.869 133.852 458.653 134.426C458.437 135 458.329 135.676 458.329 136.455ZM478.359 137.426V129.909H481.99V143H478.504V140.622H478.368C478.072 141.389 477.581 142.006 476.893 142.472C476.212 142.937 475.379 143.17 474.396 143.17C473.521 143.17 472.751 142.972 472.087 142.574C471.422 142.176 470.902 141.611 470.527 140.878C470.158 140.145 469.97 139.267 469.964 138.244V129.909H473.595V137.597C473.601 138.369 473.808 138.98 474.217 139.429C474.626 139.878 475.175 140.102 475.862 140.102C476.3 140.102 476.709 140.003 477.089 139.804C477.47 139.599 477.777 139.298 478.01 138.901C478.249 138.503 478.365 138.011 478.359 137.426ZM484.894 143V129.909H488.525V143H484.894ZM486.718 128.222C486.178 128.222 485.715 128.043 485.329 127.685C484.948 127.321 484.758 126.886 484.758 126.381C484.758 125.881 484.948 125.452 485.329 125.094C485.715 124.73 486.178 124.548 486.718 124.548C487.258 124.548 487.718 124.73 488.099 125.094C488.485 125.452 488.678 125.881 488.678 126.381C488.678 126.886 488.485 127.321 488.099 127.685C487.718 128.043 487.258 128.222 486.718 128.222ZM495.064 125.545V143H491.433V125.545H495.064ZM502.796 143.213C501.802 143.213 500.901 142.957 500.094 142.446C499.293 141.929 498.657 141.17 498.185 140.17C497.719 139.165 497.487 137.932 497.487 136.472C497.487 134.972 497.728 133.724 498.211 132.73C498.694 131.73 499.336 130.983 500.137 130.489C500.944 129.989 501.827 129.739 502.788 129.739C503.521 129.739 504.131 129.864 504.62 130.114C505.114 130.358 505.512 130.665 505.813 131.034C506.12 131.398 506.353 131.756 506.512 132.108H506.623V125.545H510.245V143H506.665V140.903H506.512C506.342 141.267 506.1 141.628 505.788 141.986C505.481 142.338 505.08 142.631 504.586 142.864C504.097 143.097 503.501 143.213 502.796 143.213ZM503.947 140.324C504.532 140.324 505.026 140.165 505.43 139.847C505.839 139.523 506.151 139.071 506.367 138.491C506.589 137.912 506.7 137.233 506.7 136.455C506.7 135.676 506.592 135 506.376 134.426C506.16 133.852 505.847 133.409 505.438 133.097C505.029 132.784 504.532 132.628 503.947 132.628C503.35 132.628 502.847 132.79 502.438 133.114C502.029 133.437 501.719 133.886 501.509 134.46C501.299 135.034 501.194 135.699 501.194 136.455C501.194 137.216 501.299 137.889 501.509 138.474C501.725 139.054 502.035 139.509 502.438 139.838C502.847 140.162 503.35 140.324 503.947 140.324ZM513.23 143V129.909H516.861V143H513.23ZM515.054 128.222C514.514 128.222 514.051 128.043 513.665 127.685C513.284 127.321 513.094 126.886 513.094 126.381C513.094 125.881 513.284 125.452 513.665 125.094C514.051 124.73 514.514 124.548 515.054 124.548C515.594 124.548 516.054 124.73 516.435 125.094C516.821 125.452 517.014 125.881 517.014 126.381C517.014 126.886 516.821 127.321 516.435 127.685C516.054 128.043 515.594 128.222 515.054 128.222ZM523.4 135.432V143H519.769V129.909H523.229V132.219H523.383C523.673 131.457 524.158 130.855 524.84 130.412C525.522 129.963 526.349 129.739 527.32 129.739C528.229 129.739 529.022 129.938 529.698 130.335C530.374 130.733 530.9 131.301 531.275 132.04C531.65 132.773 531.837 133.648 531.837 134.665V143H528.207V135.312C528.212 134.511 528.008 133.886 527.593 133.438C527.178 132.983 526.607 132.756 525.88 132.756C525.391 132.756 524.96 132.861 524.585 133.071C524.215 133.281 523.925 133.588 523.715 133.991C523.511 134.389 523.406 134.869 523.4 135.432ZM540.597 148.182C539.42 148.182 538.412 148.02 537.571 147.696C536.736 147.378 536.071 146.943 535.577 146.392C535.082 145.841 534.761 145.222 534.614 144.534L537.972 144.082C538.074 144.344 538.236 144.588 538.457 144.815C538.679 145.043 538.972 145.224 539.335 145.361C539.705 145.503 540.153 145.574 540.682 145.574C541.472 145.574 542.122 145.381 542.634 144.994C543.151 144.614 543.409 143.974 543.409 143.077V140.682H543.256C543.097 141.045 542.858 141.389 542.54 141.713C542.222 142.037 541.812 142.301 541.312 142.506C540.812 142.71 540.216 142.812 539.523 142.812C538.54 142.812 537.645 142.585 536.838 142.131C536.037 141.67 535.398 140.969 534.92 140.026C534.449 139.077 534.213 137.878 534.213 136.429C534.213 134.946 534.455 133.707 534.938 132.713C535.42 131.719 536.063 130.974 536.864 130.48C537.67 129.986 538.554 129.739 539.514 129.739C540.247 129.739 540.861 129.864 541.355 130.114C541.849 130.358 542.247 130.665 542.548 131.034C542.855 131.398 543.091 131.756 543.256 132.108H543.392V129.909H546.997V143.128C546.997 144.241 546.724 145.173 546.179 145.923C545.634 146.673 544.878 147.236 543.912 147.611C542.952 147.991 541.847 148.182 540.597 148.182ZM540.673 140.085C541.259 140.085 541.753 139.94 542.156 139.651C542.565 139.355 542.878 138.935 543.094 138.389C543.315 137.838 543.426 137.179 543.426 136.412C543.426 135.645 543.318 134.98 543.102 134.418C542.886 133.849 542.574 133.409 542.165 133.097C541.756 132.784 541.259 132.628 540.673 132.628C540.077 132.628 539.574 132.79 539.165 133.114C538.756 133.432 538.446 133.875 538.236 134.443C538.026 135.011 537.92 135.668 537.92 136.412C537.92 137.168 538.026 137.821 538.236 138.372C538.452 138.918 538.761 139.341 539.165 139.642C539.574 139.937 540.077 140.085 540.673 140.085ZM555.441 147.909V129.909H559.021V132.108H559.183C559.342 131.756 559.572 131.398 559.873 131.034C560.18 130.665 560.577 130.358 561.066 130.114C561.56 129.864 562.174 129.739 562.907 129.739C563.862 129.739 564.742 129.989 565.549 130.489C566.356 130.983 567.001 131.73 567.484 132.73C567.967 133.724 568.208 134.972 568.208 136.472C568.208 137.932 567.972 139.165 567.501 140.17C567.035 141.17 566.398 141.929 565.592 142.446C564.79 142.957 563.893 143.213 562.898 143.213C562.194 143.213 561.594 143.097 561.1 142.864C560.612 142.631 560.211 142.338 559.898 141.986C559.586 141.628 559.347 141.267 559.183 140.903H559.072V147.909H555.441ZM558.995 136.455C558.995 137.233 559.103 137.912 559.319 138.491C559.535 139.071 559.847 139.523 560.256 139.847C560.665 140.165 561.163 140.324 561.748 140.324C562.339 140.324 562.839 140.162 563.248 139.838C563.657 139.509 563.967 139.054 564.177 138.474C564.393 137.889 564.501 137.216 564.501 136.455C564.501 135.699 564.396 135.034 564.185 134.46C563.975 133.886 563.665 133.437 563.256 133.114C562.847 132.79 562.344 132.628 561.748 132.628C561.157 132.628 560.657 132.784 560.248 133.097C559.844 133.409 559.535 133.852 559.319 134.426C559.103 135 558.995 135.676 558.995 136.455ZM574.259 125.545V143H570.629V125.545H574.259ZM580.901 143.247C580.065 143.247 579.321 143.102 578.668 142.812C578.014 142.517 577.497 142.082 577.116 141.509C576.741 140.929 576.554 140.207 576.554 139.344C576.554 138.616 576.688 138.006 576.955 137.511C577.222 137.017 577.585 136.619 578.045 136.318C578.506 136.017 579.028 135.79 579.614 135.636C580.205 135.483 580.824 135.375 581.472 135.312C582.233 135.233 582.847 135.159 583.312 135.091C583.778 135.017 584.116 134.909 584.327 134.767C584.537 134.625 584.642 134.415 584.642 134.136V134.085C584.642 133.545 584.472 133.128 584.131 132.832C583.795 132.537 583.318 132.389 582.699 132.389C582.045 132.389 581.526 132.534 581.139 132.824C580.753 133.108 580.497 133.466 580.372 133.898L577.014 133.625C577.185 132.83 577.52 132.142 578.02 131.562C578.52 130.977 579.165 130.528 579.955 130.216C580.75 129.898 581.67 129.739 582.716 129.739C583.443 129.739 584.139 129.824 584.804 129.994C585.474 130.165 586.068 130.429 586.585 130.787C587.108 131.145 587.52 131.605 587.821 132.168C588.122 132.724 588.273 133.392 588.273 134.17V143H584.83V141.185H584.727C584.517 141.594 584.236 141.955 583.884 142.267C583.531 142.574 583.108 142.815 582.614 142.991C582.119 143.162 581.548 143.247 580.901 143.247ZM581.94 140.741C582.474 140.741 582.946 140.636 583.355 140.426C583.764 140.21 584.085 139.92 584.318 139.557C584.551 139.193 584.668 138.781 584.668 138.321V136.932C584.554 137.006 584.398 137.074 584.199 137.136C584.006 137.193 583.787 137.247 583.543 137.298C583.298 137.344 583.054 137.386 582.81 137.426C582.565 137.46 582.344 137.491 582.145 137.52C581.719 137.582 581.347 137.682 581.028 137.818C580.71 137.955 580.463 138.139 580.287 138.372C580.111 138.599 580.023 138.884 580.023 139.224C580.023 139.719 580.202 140.097 580.56 140.358C580.923 140.614 581.384 140.741 581.94 140.741ZM598.053 129.909V132.636H590.169V129.909H598.053ZM591.959 126.773H595.589V138.977C595.589 139.312 595.641 139.574 595.743 139.761C595.845 139.943 595.987 140.071 596.169 140.145C596.357 140.219 596.572 140.256 596.817 140.256C596.987 140.256 597.158 140.241 597.328 140.213C597.499 140.179 597.629 140.153 597.72 140.136L598.291 142.838C598.109 142.895 597.854 142.96 597.524 143.034C597.195 143.114 596.794 143.162 596.322 143.179C595.447 143.213 594.68 143.097 594.021 142.83C593.368 142.562 592.859 142.148 592.496 141.585C592.132 141.023 591.953 140.312 591.959 139.455V126.773ZM607.457 129.909V132.636H599.378V129.909H607.457ZM601.227 143V128.963C601.227 128.014 601.412 127.227 601.781 126.602C602.156 125.977 602.668 125.509 603.315 125.196C603.963 124.884 604.699 124.727 605.523 124.727C606.08 124.727 606.588 124.77 607.048 124.855C607.514 124.94 607.861 125.017 608.088 125.085L607.44 127.812C607.298 127.767 607.122 127.724 606.912 127.685C606.707 127.645 606.497 127.625 606.281 127.625C605.747 127.625 605.375 127.75 605.165 128C604.955 128.244 604.849 128.588 604.849 129.031V143H601.227ZM615.121 143.256C613.798 143.256 612.653 142.974 611.687 142.412C610.727 141.844 609.985 141.054 609.462 140.043C608.94 139.026 608.678 137.847 608.678 136.506C608.678 135.153 608.94 133.972 609.462 132.96C609.985 131.943 610.727 131.153 611.687 130.591C612.653 130.023 613.798 129.739 615.121 129.739C616.445 129.739 617.587 130.023 618.548 130.591C619.513 131.153 620.258 131.943 620.781 132.96C621.303 133.972 621.565 135.153 621.565 136.506C621.565 137.847 621.303 139.026 620.781 140.043C620.258 141.054 619.513 141.844 618.548 142.412C617.587 142.974 616.445 143.256 615.121 143.256ZM615.138 140.443C615.741 140.443 616.244 140.273 616.647 139.932C617.05 139.585 617.354 139.114 617.559 138.517C617.769 137.92 617.874 137.241 617.874 136.48C617.874 135.719 617.769 135.04 617.559 134.443C617.354 133.847 617.05 133.375 616.647 133.028C616.244 132.682 615.741 132.509 615.138 132.509C614.531 132.509 614.019 132.682 613.604 133.028C613.195 133.375 612.886 133.847 612.675 134.443C612.471 135.04 612.369 135.719 612.369 136.48C612.369 137.241 612.471 137.92 612.675 138.517C612.886 139.114 613.195 139.585 613.604 139.932C614.019 140.273 614.531 140.443 615.138 140.443ZM623.925 143V129.909H627.445V132.193H627.582C627.82 131.381 628.221 130.767 628.783 130.352C629.346 129.932 629.994 129.722 630.727 129.722C630.908 129.722 631.104 129.733 631.315 129.756C631.525 129.778 631.71 129.81 631.869 129.849V133.071C631.698 133.02 631.462 132.974 631.161 132.935C630.86 132.895 630.585 132.875 630.335 132.875C629.8 132.875 629.323 132.991 628.903 133.224C628.488 133.452 628.158 133.77 627.914 134.179C627.675 134.588 627.556 135.06 627.556 135.594V143H623.925ZM633.746 143V129.909H637.206V132.219H637.359C637.632 131.452 638.087 130.847 638.723 130.403C639.359 129.96 640.121 129.739 641.007 129.739C641.905 129.739 642.669 129.963 643.3 130.412C643.93 130.855 644.351 131.457 644.561 132.219H644.697C644.964 131.469 645.447 130.869 646.146 130.42C646.851 129.966 647.683 129.739 648.643 129.739C649.865 129.739 650.857 130.128 651.618 130.906C652.385 131.679 652.768 132.776 652.768 134.196V143H649.146V134.912C649.146 134.185 648.953 133.639 648.567 133.276C648.18 132.912 647.697 132.73 647.118 132.73C646.459 132.73 645.945 132.94 645.575 133.361C645.206 133.776 645.021 134.324 645.021 135.006V143H641.501V134.835C641.501 134.193 641.317 133.682 640.947 133.301C640.584 132.92 640.104 132.73 639.507 132.73C639.104 132.73 638.74 132.832 638.416 133.037C638.098 133.236 637.845 133.517 637.658 133.881C637.47 134.239 637.376 134.659 637.376 135.142V143H633.746ZM657.759 143.222C657.196 143.222 656.713 143.023 656.31 142.625C655.912 142.222 655.713 141.739 655.713 141.176C655.713 140.619 655.912 140.142 656.31 139.744C656.713 139.347 657.196 139.148 657.759 139.148C658.304 139.148 658.781 139.347 659.19 139.744C659.599 140.142 659.804 140.619 659.804 141.176C659.804 141.551 659.707 141.895 659.514 142.207C659.327 142.514 659.08 142.761 658.773 142.949C658.466 143.131 658.128 143.222 657.759 143.222Z" fill="#092AD0"/>
<rect x="54" y="47" width="156" height="156" rx="78" fill="white" stroke="black" stroke-width="4"/>
<rect x="101" y="114" width="61" height="21" rx="10.5" stroke="black" stroke-width="4"/>
<rect x="116" y="122" width="30" height="5" rx="2.5" fill="black"/>
<rect width="145" height="41" rx="20.5" transform="matrix(-1 0 0 1 203 181)" fill="url(#paint0_linear_799_1478)"/>
<path d="M84.7045 202.182C84.7045 203.451 84.464 204.53 83.983 205.42C83.5057 206.311 82.8542 206.991 82.0284 207.46C81.2064 207.926 80.2822 208.159 79.2557 208.159C78.2216 208.159 77.2936 207.924 76.4716 207.455C75.6496 206.985 75 206.305 74.5227 205.415C74.0455 204.525 73.8068 203.447 73.8068 202.182C73.8068 200.913 74.0455 199.833 74.5227 198.943C75 198.053 75.6496 197.375 76.4716 196.909C77.2936 196.439 78.2216 196.205 79.2557 196.205C80.2822 196.205 81.2064 196.439 82.0284 196.909C82.8542 197.375 83.5057 198.053 83.983 198.943C84.464 199.833 84.7045 200.913 84.7045 202.182ZM82.2102 202.182C82.2102 201.36 82.0871 200.667 81.8409 200.102C81.5985 199.538 81.2557 199.11 80.8125 198.818C80.3693 198.527 79.8504 198.381 79.2557 198.381C78.661 198.381 78.142 198.527 77.6989 198.818C77.2557 199.11 76.911 199.538 76.6648 200.102C76.4223 200.667 76.3011 201.36 76.3011 202.182C76.3011 203.004 76.4223 203.697 76.6648 204.261C76.911 204.826 77.2557 205.254 77.6989 205.545C78.142 205.837 78.661 205.983 79.2557 205.983C79.8504 205.983 80.3693 205.837 80.8125 205.545C81.2557 205.254 81.5985 204.826 81.8409 204.261C82.0871 203.697 82.2102 203.004 82.2102 202.182ZM86.527 208V196.364H91.1179C92.0005 196.364 92.7524 196.532 93.3736 196.869C93.9948 197.203 94.4683 197.667 94.794 198.261C95.1236 198.852 95.2884 199.534 95.2884 200.307C95.2884 201.08 95.1217 201.761 94.7884 202.352C94.455 202.943 93.9721 203.403 93.3395 203.733C92.7107 204.062 91.9493 204.227 91.0554 204.227H88.1293V202.256H90.6577C91.1312 202.256 91.5213 202.174 91.8281 202.011C92.1387 201.845 92.3698 201.616 92.5213 201.324C92.6766 201.028 92.7543 200.689 92.7543 200.307C92.7543 199.92 92.6766 199.583 92.5213 199.295C92.3698 199.004 92.1387 198.778 91.8281 198.619C91.5175 198.456 91.1236 198.375 90.6463 198.375H88.9872V208H86.527ZM96.8864 208V196.364H104.727V198.392H99.3466V201.165H104.324V203.193H99.3466V205.972H104.75V208H96.8864ZM116.416 196.364V208H114.291L109.229 200.676H109.143V208H106.683V196.364H108.842L113.865 203.682H113.967V196.364H116.416ZM128.464 199.71C128.419 199.252 128.224 198.896 127.879 198.642C127.535 198.388 127.067 198.261 126.476 198.261C126.074 198.261 125.735 198.318 125.459 198.432C125.182 198.542 124.97 198.695 124.822 198.892C124.679 199.089 124.607 199.312 124.607 199.562C124.599 199.771 124.643 199.953 124.737 200.108C124.836 200.263 124.97 200.398 125.141 200.511C125.311 200.621 125.508 200.718 125.732 200.801C125.955 200.881 126.194 200.949 126.447 201.006L127.493 201.256C128 201.369 128.466 201.521 128.891 201.71C129.315 201.9 129.682 202.133 129.993 202.409C130.304 202.686 130.544 203.011 130.714 203.386C130.889 203.761 130.978 204.191 130.982 204.676C130.978 205.388 130.796 206.006 130.436 206.528C130.08 207.047 129.565 207.451 128.891 207.739C128.22 208.023 127.411 208.165 126.464 208.165C125.525 208.165 124.707 208.021 124.01 207.733C123.317 207.445 122.775 207.019 122.385 206.455C121.999 205.886 121.796 205.184 121.777 204.347H124.158C124.184 204.737 124.296 205.062 124.493 205.324C124.694 205.581 124.961 205.777 125.294 205.909C125.631 206.038 126.012 206.102 126.436 206.102C126.853 206.102 127.214 206.042 127.521 205.92C127.832 205.799 128.072 205.631 128.243 205.415C128.413 205.199 128.499 204.951 128.499 204.67C128.499 204.409 128.421 204.189 128.266 204.011C128.114 203.833 127.891 203.682 127.595 203.557C127.304 203.432 126.946 203.318 126.521 203.216L125.254 202.898C124.273 202.659 123.499 202.286 122.93 201.778C122.362 201.271 122.08 200.587 122.084 199.727C122.08 199.023 122.268 198.407 122.646 197.881C123.029 197.354 123.554 196.943 124.22 196.648C124.887 196.352 125.644 196.205 126.493 196.205C127.357 196.205 128.11 196.352 128.754 196.648C129.402 196.943 129.906 197.354 130.266 197.881C130.625 198.407 130.811 199.017 130.822 199.71H128.464ZM143.33 202.182C143.33 203.451 143.089 204.53 142.608 205.42C142.131 206.311 141.479 206.991 140.653 207.46C139.831 207.926 138.907 208.159 137.881 208.159C136.847 208.159 135.919 207.924 135.097 207.455C134.275 206.985 133.625 206.305 133.148 205.415C132.67 204.525 132.432 203.447 132.432 202.182C132.432 200.913 132.67 199.833 133.148 198.943C133.625 198.053 134.275 197.375 135.097 196.909C135.919 196.439 136.847 196.205 137.881 196.205C138.907 196.205 139.831 196.439 140.653 196.909C141.479 197.375 142.131 198.053 142.608 198.943C143.089 199.833 143.33 200.913 143.33 202.182ZM140.835 202.182C140.835 201.36 140.712 200.667 140.466 200.102C140.223 199.538 139.881 199.11 139.438 198.818C138.994 198.527 138.475 198.381 137.881 198.381C137.286 198.381 136.767 198.527 136.324 198.818C135.881 199.11 135.536 199.538 135.29 200.102C135.047 200.667 134.926 201.36 134.926 202.182C134.926 203.004 135.047 203.697 135.29 204.261C135.536 204.826 135.881 205.254 136.324 205.545C136.767 205.837 137.286 205.983 137.881 205.983C138.475 205.983 138.994 205.837 139.438 205.545C139.881 205.254 140.223 204.826 140.466 204.261C140.712 203.697 140.835 203.004 140.835 202.182ZM152.339 196.364H154.8V203.92C154.8 204.769 154.597 205.511 154.192 206.148C153.79 206.784 153.228 207.28 152.504 207.636C151.781 207.989 150.938 208.165 149.976 208.165C149.01 208.165 148.165 207.989 147.442 207.636C146.718 207.28 146.156 206.784 145.754 206.148C145.353 205.511 145.152 204.769 145.152 203.92V196.364H147.612V203.71C147.612 204.153 147.709 204.547 147.902 204.892C148.099 205.237 148.375 205.508 148.732 205.705C149.088 205.902 149.502 206 149.976 206C150.453 206 150.868 205.902 151.22 205.705C151.576 205.508 151.851 205.237 152.044 204.892C152.241 204.547 152.339 204.153 152.339 203.71V196.364ZM156.824 208V196.364H161.415C162.294 196.364 163.044 196.521 163.665 196.835C164.29 197.146 164.765 197.587 165.091 198.159C165.42 198.727 165.585 199.396 165.585 200.165C165.585 200.937 165.419 201.602 165.085 202.159C164.752 202.712 164.269 203.136 163.636 203.432C163.008 203.727 162.246 203.875 161.352 203.875H158.278V201.898H160.955C161.424 201.898 161.814 201.833 162.125 201.705C162.436 201.576 162.667 201.383 162.818 201.125C162.973 200.867 163.051 200.547 163.051 200.165C163.051 199.778 162.973 199.453 162.818 199.188C162.667 198.922 162.434 198.722 162.119 198.585C161.809 198.445 161.417 198.375 160.943 198.375H159.284V208H156.824ZM163.108 202.705L166 208H163.284L160.455 202.705H163.108ZM177.591 200.438H175.102C175.057 200.116 174.964 199.83 174.824 199.58C174.684 199.326 174.504 199.11 174.284 198.932C174.064 198.754 173.811 198.617 173.523 198.523C173.239 198.428 172.93 198.381 172.597 198.381C171.994 198.381 171.47 198.53 171.023 198.83C170.576 199.125 170.229 199.557 169.983 200.125C169.737 200.689 169.614 201.375 169.614 202.182C169.614 203.011 169.737 203.708 169.983 204.273C170.233 204.837 170.581 205.263 171.028 205.551C171.475 205.839 171.992 205.983 172.58 205.983C172.909 205.983 173.214 205.939 173.494 205.852C173.778 205.765 174.03 205.638 174.25 205.472C174.47 205.301 174.652 205.095 174.795 204.852C174.943 204.61 175.045 204.333 175.102 204.023L177.591 204.034C177.527 204.568 177.366 205.083 177.108 205.58C176.854 206.072 176.511 206.513 176.08 206.903C175.652 207.29 175.14 207.597 174.545 207.824C173.955 208.047 173.286 208.159 172.54 208.159C171.502 208.159 170.574 207.924 169.756 207.455C168.941 206.985 168.297 206.305 167.824 205.415C167.354 204.525 167.119 203.447 167.119 202.182C167.119 200.913 167.358 199.833 167.835 198.943C168.313 198.053 168.96 197.375 169.778 196.909C170.597 196.439 171.517 196.205 172.54 196.205C173.214 196.205 173.839 196.299 174.415 196.489C174.994 196.678 175.508 196.955 175.955 197.318C176.402 197.678 176.765 198.119 177.045 198.642C177.33 199.165 177.511 199.763 177.591 200.438ZM179.355 208V196.364H187.196V198.392H181.815V201.165H186.793V203.193H181.815V205.972H187.219V208H179.355Z" fill="white"/>
<rect x="1087" y="163" width="200" height="60" rx="30" fill="#356DEE"/>
<path d="M1146.11 188.364L1148.93 197.205H1149.03L1151.85 188.364H1154.58L1150.57 200H1147.4L1143.38 188.364H1146.11ZM1155.93 200V191.273H1158.36V200H1155.93ZM1157.15 190.148C1156.79 190.148 1156.48 190.028 1156.22 189.79C1155.97 189.547 1155.84 189.258 1155.84 188.92C1155.84 188.587 1155.97 188.301 1156.22 188.062C1156.48 187.82 1156.79 187.699 1157.15 187.699C1157.51 187.699 1157.82 187.82 1158.07 188.062C1158.33 188.301 1158.46 188.587 1158.46 188.92C1158.46 189.258 1158.33 189.547 1158.07 189.79C1157.82 190.028 1157.51 190.148 1157.15 190.148ZM1164.27 200.17C1163.37 200.17 1162.6 199.989 1161.95 199.625C1161.31 199.258 1160.81 198.739 1160.46 198.068C1160.12 197.394 1159.94 196.597 1159.94 195.676C1159.94 194.778 1160.12 193.991 1160.46 193.312C1160.81 192.634 1161.3 192.106 1161.94 191.727C1162.57 191.348 1163.32 191.159 1164.17 191.159C1164.75 191.159 1165.29 191.252 1165.78 191.438C1166.28 191.619 1166.72 191.894 1167.09 192.261C1167.46 192.629 1167.76 193.091 1167.96 193.648C1168.17 194.201 1168.28 194.848 1168.28 195.591V196.256H1160.91V194.756H1166C1166 194.407 1165.92 194.098 1165.77 193.83C1165.62 193.561 1165.41 193.35 1165.14 193.199C1164.88 193.044 1164.57 192.966 1164.21 192.966C1163.85 192.966 1163.52 193.051 1163.24 193.222C1162.96 193.388 1162.74 193.614 1162.58 193.898C1162.42 194.178 1162.34 194.491 1162.33 194.835V196.261C1162.33 196.693 1162.41 197.066 1162.57 197.381C1162.74 197.695 1162.96 197.938 1163.26 198.108C1163.56 198.278 1163.91 198.364 1164.31 198.364C1164.58 198.364 1164.83 198.326 1165.05 198.25C1165.27 198.174 1165.46 198.061 1165.62 197.909C1165.78 197.758 1165.9 197.572 1165.99 197.352L1168.23 197.5C1168.11 198.038 1167.88 198.508 1167.53 198.909C1167.18 199.307 1166.73 199.617 1166.17 199.841C1165.63 200.061 1164.99 200.17 1164.27 200.17ZM1171.52 200L1169.14 191.273H1171.59L1172.94 197.136H1173.02L1174.43 191.273H1176.83L1178.27 197.102H1178.34L1179.67 191.273H1182.11L1179.74 200H1177.18L1175.68 194.511H1175.57L1174.07 200H1171.52ZM1186.71 190.392V188.364H1196.27V190.392H1192.7V200H1190.27V190.392H1186.71ZM1200.51 200.17C1199.61 200.17 1198.84 199.989 1198.19 199.625C1197.54 199.258 1197.05 198.739 1196.7 198.068C1196.35 197.394 1196.18 196.597 1196.18 195.676C1196.18 194.778 1196.35 193.991 1196.7 193.312C1197.05 192.634 1197.54 192.106 1198.17 191.727C1198.81 191.348 1199.55 191.159 1200.41 191.159C1200.98 191.159 1201.52 191.252 1202.02 191.438C1202.52 191.619 1202.95 191.894 1203.32 192.261C1203.7 192.629 1203.99 193.091 1204.2 193.648C1204.41 194.201 1204.51 194.848 1204.51 195.591V196.256H1197.14V194.756H1202.23C1202.23 194.407 1202.16 194.098 1202.01 193.83C1201.85 193.561 1201.64 193.35 1201.38 193.199C1201.11 193.044 1200.8 192.966 1200.45 192.966C1200.08 192.966 1199.76 193.051 1199.47 193.222C1199.19 193.388 1198.97 193.614 1198.81 193.898C1198.65 194.178 1198.57 194.491 1198.57 194.835V196.261C1198.57 196.693 1198.65 197.066 1198.81 197.381C1198.97 197.695 1199.2 197.938 1199.49 198.108C1199.79 198.278 1200.14 198.364 1200.55 198.364C1200.81 198.364 1201.06 198.326 1201.28 198.25C1201.51 198.174 1201.7 198.061 1201.86 197.909C1202.02 197.758 1202.14 197.572 1202.22 197.352L1204.46 197.5C1204.35 198.038 1204.11 198.508 1203.76 198.909C1203.41 199.307 1202.96 199.617 1202.41 199.841C1201.86 200.061 1201.23 200.17 1200.51 200.17ZM1208.58 200.165C1208.02 200.165 1207.53 200.068 1207.09 199.875C1206.66 199.678 1206.31 199.388 1206.06 199.006C1205.81 198.619 1205.68 198.138 1205.68 197.562C1205.68 197.078 1205.77 196.67 1205.95 196.341C1206.13 196.011 1206.37 195.746 1206.68 195.545C1206.98 195.345 1207.33 195.193 1207.72 195.091C1208.12 194.989 1208.53 194.917 1208.96 194.875C1209.47 194.822 1209.88 194.773 1210.19 194.727C1210.5 194.678 1210.72 194.606 1210.86 194.511C1211 194.417 1211.07 194.277 1211.07 194.091V194.057C1211.07 193.697 1210.96 193.419 1210.73 193.222C1210.51 193.025 1210.19 192.926 1209.78 192.926C1209.34 192.926 1209 193.023 1208.74 193.216C1208.48 193.405 1208.31 193.644 1208.23 193.932L1205.99 193.75C1206.1 193.22 1206.33 192.761 1206.66 192.375C1206.99 191.985 1207.42 191.686 1207.95 191.477C1208.48 191.265 1209.09 191.159 1209.79 191.159C1210.27 191.159 1210.74 191.216 1211.18 191.33C1211.63 191.443 1212.02 191.619 1212.37 191.858C1212.72 192.097 1212.99 192.403 1213.19 192.778C1213.39 193.15 1213.49 193.595 1213.49 194.114V200H1211.2V198.79H1211.13C1210.99 199.062 1210.8 199.303 1210.57 199.511C1210.33 199.716 1210.05 199.877 1209.72 199.994C1209.39 200.108 1209.01 200.165 1208.58 200.165ZM1209.27 198.494C1209.63 198.494 1209.94 198.424 1210.22 198.284C1210.49 198.14 1210.7 197.947 1210.86 197.705C1211.01 197.462 1211.09 197.187 1211.09 196.881V195.955C1211.02 196.004 1210.91 196.049 1210.78 196.091C1210.65 196.129 1210.5 196.165 1210.34 196.199C1210.18 196.229 1210.02 196.258 1209.85 196.284C1209.69 196.307 1209.54 196.328 1209.41 196.347C1209.13 196.388 1208.88 196.455 1208.66 196.545C1208.45 196.636 1208.29 196.759 1208.17 196.915C1208.05 197.066 1207.99 197.256 1207.99 197.483C1207.99 197.812 1208.11 198.064 1208.35 198.239C1208.59 198.409 1208.9 198.494 1209.27 198.494ZM1215.37 200V191.273H1217.68V192.812H1217.78C1217.96 192.301 1218.27 191.898 1218.69 191.602C1219.11 191.307 1219.62 191.159 1220.21 191.159C1220.81 191.159 1221.32 191.309 1221.74 191.608C1222.16 191.903 1222.44 192.305 1222.58 192.812H1222.67C1222.85 192.312 1223.17 191.913 1223.64 191.614C1224.11 191.311 1224.66 191.159 1225.3 191.159C1226.12 191.159 1226.78 191.419 1227.29 191.938C1227.8 192.453 1228.05 193.184 1228.05 194.131V200H1225.64V194.608C1225.64 194.123 1225.51 193.759 1225.25 193.517C1225 193.275 1224.67 193.153 1224.29 193.153C1223.85 193.153 1223.5 193.294 1223.26 193.574C1223.01 193.85 1222.89 194.216 1222.89 194.67V200H1220.54V194.557C1220.54 194.129 1220.42 193.788 1220.17 193.534C1219.93 193.28 1219.61 193.153 1219.21 193.153C1218.94 193.153 1218.7 193.222 1218.49 193.358C1218.27 193.491 1218.11 193.678 1217.98 193.92C1217.86 194.159 1217.79 194.439 1217.79 194.761V200H1215.37Z" fill="white"/>
<rect x="231.5" y="161.5" width="59" height="24" rx="4.5" fill="#7EA1E4" stroke="#092AD0"/>
<path d="M243.031 178L244.463 169.273H245.827L244.395 178H243.031ZM239.124 175.835L239.349 174.472H246.168L245.942 175.835H239.124ZM239.963 178L241.395 169.273H242.759L241.327 178H239.963ZM239.622 172.801L239.852 171.438H246.67L246.44 172.801H239.622ZM255.063 171.783C255.029 171.439 254.883 171.172 254.624 170.982C254.366 170.791 254.015 170.696 253.572 170.696C253.271 170.696 253.016 170.739 252.809 170.824C252.602 170.906 252.442 171.021 252.332 171.169C252.224 171.317 252.17 171.484 252.17 171.672C252.164 171.828 252.197 171.964 252.268 172.081C252.342 172.197 252.442 172.298 252.57 172.384C252.698 172.466 252.846 172.538 253.013 172.601C253.181 172.661 253.36 172.712 253.55 172.754L254.335 172.942C254.715 173.027 255.065 173.141 255.383 173.283C255.701 173.425 255.977 173.599 256.21 173.807C256.442 174.014 256.623 174.259 256.751 174.54C256.881 174.821 256.948 175.143 256.951 175.507C256.948 176.041 256.812 176.504 256.542 176.896C256.275 177.286 255.888 177.588 255.383 177.804C254.88 178.017 254.273 178.124 253.563 178.124C252.859 178.124 252.245 178.016 251.722 177.8C251.202 177.584 250.796 177.264 250.504 176.841C250.214 176.415 250.062 175.888 250.048 175.26H251.833C251.853 175.553 251.937 175.797 252.085 175.993C252.235 176.186 252.435 176.332 252.685 176.432C252.938 176.528 253.224 176.577 253.542 176.577C253.854 176.577 254.126 176.531 254.356 176.44C254.589 176.349 254.769 176.223 254.897 176.061C255.025 175.899 255.089 175.713 255.089 175.503C255.089 175.307 255.031 175.142 254.914 175.009C254.8 174.875 254.633 174.761 254.411 174.668C254.192 174.574 253.924 174.489 253.606 174.412L252.656 174.173C251.92 173.994 251.339 173.714 250.913 173.334C250.487 172.953 250.275 172.44 250.278 171.795C250.275 171.267 250.415 170.805 250.7 170.411C250.987 170.016 251.38 169.707 251.88 169.486C252.38 169.264 252.948 169.153 253.585 169.153C254.232 169.153 254.798 169.264 255.281 169.486C255.766 169.707 256.144 170.016 256.414 170.411C256.684 170.805 256.823 171.263 256.832 171.783H255.063ZM260.025 178.124C259.607 178.124 259.235 178.051 258.908 177.906C258.581 177.759 258.323 177.541 258.132 177.254C257.945 176.964 257.851 176.604 257.851 176.172C257.851 175.808 257.918 175.503 258.051 175.256C258.185 175.009 258.367 174.81 258.597 174.659C258.827 174.509 259.088 174.395 259.381 174.318C259.676 174.241 259.986 174.188 260.31 174.156C260.691 174.116 260.998 174.08 261.23 174.045C261.463 174.009 261.632 173.955 261.738 173.884C261.843 173.812 261.895 173.707 261.895 173.568V173.543C261.895 173.273 261.81 173.064 261.64 172.916C261.472 172.768 261.233 172.695 260.924 172.695C260.597 172.695 260.337 172.767 260.144 172.912C259.951 173.054 259.823 173.233 259.76 173.449L258.081 173.312C258.167 172.915 258.334 172.571 258.584 172.281C258.834 171.989 259.157 171.764 259.551 171.608C259.949 171.449 260.409 171.369 260.932 171.369C261.296 171.369 261.644 171.412 261.976 171.497C262.311 171.582 262.608 171.714 262.867 171.893C263.128 172.072 263.334 172.303 263.485 172.584C263.635 172.862 263.711 173.196 263.711 173.585V178H261.989V177.092H261.938C261.833 177.297 261.692 177.477 261.516 177.634C261.34 177.787 261.128 177.908 260.881 177.996C260.634 178.081 260.348 178.124 260.025 178.124ZM260.544 176.871C260.811 176.871 261.047 176.818 261.252 176.713C261.456 176.605 261.617 176.46 261.733 176.278C261.85 176.097 261.908 175.891 261.908 175.661V174.966C261.851 175.003 261.773 175.037 261.674 175.068C261.577 175.097 261.468 175.124 261.346 175.149C261.223 175.172 261.101 175.193 260.979 175.213C260.857 175.23 260.746 175.246 260.647 175.26C260.434 175.291 260.248 175.341 260.088 175.409C259.929 175.477 259.806 175.57 259.718 175.686C259.63 175.8 259.586 175.942 259.586 176.112C259.586 176.359 259.675 176.548 259.854 176.679C260.036 176.807 260.266 176.871 260.544 176.871ZM266.985 178.124C266.568 178.124 266.196 178.051 265.869 177.906C265.542 177.759 265.284 177.541 265.093 177.254C264.906 176.964 264.812 176.604 264.812 176.172C264.812 175.808 264.879 175.503 265.012 175.256C265.146 175.009 265.328 174.81 265.558 174.659C265.788 174.509 266.049 174.395 266.342 174.318C266.637 174.241 266.947 174.188 267.271 174.156C267.652 174.116 267.958 174.08 268.191 174.045C268.424 174.009 268.593 173.955 268.699 173.884C268.804 173.812 268.856 173.707 268.856 173.568V173.543C268.856 173.273 268.771 173.064 268.6 172.916C268.433 172.768 268.194 172.695 267.885 172.695C267.558 172.695 267.298 172.767 267.105 172.912C266.912 173.054 266.784 173.233 266.721 173.449L265.042 173.312C265.127 172.915 265.295 172.571 265.545 172.281C265.795 171.989 266.118 171.764 266.512 171.608C266.91 171.449 267.37 171.369 267.893 171.369C268.257 171.369 268.605 171.412 268.937 171.497C269.272 171.582 269.569 171.714 269.828 171.893C270.089 172.072 270.295 172.303 270.446 172.584C270.596 172.862 270.672 173.196 270.672 173.585V178H268.95V177.092H268.899C268.794 177.297 268.653 177.477 268.477 177.634C268.301 177.787 268.089 177.908 267.842 177.996C267.595 178.081 267.309 178.124 266.985 178.124ZM267.505 176.871C267.772 176.871 268.008 176.818 268.213 176.713C268.417 176.605 268.578 176.46 268.694 176.278C268.811 176.097 268.869 175.891 268.869 175.661V174.966C268.812 175.003 268.734 175.037 268.635 175.068C268.538 175.097 268.429 175.124 268.306 175.149C268.184 175.172 268.062 175.193 267.94 175.213C267.818 175.23 267.707 175.246 267.608 175.26C267.395 175.291 267.208 175.341 267.049 175.409C266.89 175.477 266.767 175.57 266.679 175.686C266.591 175.8 266.547 175.942 266.547 176.112C266.547 176.359 266.636 176.548 266.815 176.679C266.997 176.807 267.227 176.871 267.505 176.871ZM276.848 171.783C276.814 171.439 276.668 171.172 276.409 170.982C276.151 170.791 275.8 170.696 275.357 170.696C275.056 170.696 274.801 170.739 274.594 170.824C274.387 170.906 274.228 171.021 274.117 171.169C274.009 171.317 273.955 171.484 273.955 171.672C273.949 171.828 273.982 171.964 274.053 172.081C274.127 172.197 274.228 172.298 274.355 172.384C274.483 172.466 274.631 172.538 274.799 172.601C274.966 172.661 275.145 172.712 275.336 172.754L276.12 172.942C276.5 173.027 276.85 173.141 277.168 173.283C277.486 173.425 277.762 173.599 277.995 173.807C278.228 174.014 278.408 174.259 278.536 174.54C278.667 174.821 278.733 175.143 278.736 175.507C278.733 176.041 278.597 176.504 278.327 176.896C278.06 177.286 277.674 177.588 277.168 177.804C276.665 178.017 276.059 178.124 275.348 178.124C274.644 178.124 274.03 178.016 273.507 177.8C272.988 177.584 272.581 177.264 272.289 176.841C271.999 176.415 271.847 175.888 271.833 175.26H273.618C273.638 175.553 273.722 175.797 273.87 175.993C274.02 176.186 274.221 176.332 274.471 176.432C274.723 176.528 275.009 176.577 275.327 176.577C275.64 176.577 275.911 176.531 276.141 176.44C276.374 176.349 276.554 176.223 276.682 176.061C276.81 175.899 276.874 175.713 276.874 175.503C276.874 175.307 276.816 175.142 276.699 175.009C276.586 174.875 276.418 174.761 276.196 174.668C275.978 174.574 275.709 174.489 275.391 174.412L274.441 174.173C273.705 173.994 273.124 173.714 272.698 173.334C272.272 172.953 272.06 172.44 272.063 171.795C272.06 171.267 272.201 170.805 272.485 170.411C272.772 170.016 273.165 169.707 273.665 169.486C274.165 169.264 274.733 169.153 275.37 169.153C276.017 169.153 276.583 169.264 277.066 169.486C277.551 169.707 277.929 170.016 278.199 170.411C278.469 170.805 278.608 171.263 278.617 171.783H276.848Z" fill="white"/>
<rect x="304.5" y="161.5" width="79" height="24" rx="4.5" fill="#7EA1E4" stroke="#092AD0"/>
<path d="M317.031 178L318.463 169.273H319.827L318.395 178H317.031ZM313.124 175.835L313.349 174.472H320.168L319.942 175.835H313.124ZM313.963 178L315.395 169.273H316.759L315.327 178H313.963ZM313.622 172.801L313.852 171.438H320.67L320.44 172.801H313.622ZM327.423 178H324.329V169.273H327.448C328.326 169.273 329.082 169.447 329.715 169.797C330.349 170.143 330.836 170.642 331.177 171.293C331.521 171.943 331.692 172.722 331.692 173.628C331.692 174.537 331.521 175.318 331.177 175.972C330.836 176.625 330.346 177.126 329.707 177.476C329.07 177.825 328.309 178 327.423 178ZM326.174 176.419H327.346C327.891 176.419 328.35 176.322 328.722 176.129C329.097 175.933 329.379 175.631 329.566 175.222C329.756 174.81 329.852 174.278 329.852 173.628C329.852 172.983 329.756 172.456 329.566 172.047C329.379 171.638 329.099 171.337 328.727 171.143C328.354 170.95 327.896 170.854 327.35 170.854H326.174V176.419ZM336.008 178.128C335.335 178.128 334.755 177.991 334.27 177.719C333.787 177.443 333.414 177.054 333.153 176.551C332.892 176.045 332.761 175.447 332.761 174.757C332.761 174.084 332.892 173.493 333.153 172.984C333.414 172.476 333.782 172.08 334.257 171.795C334.734 171.511 335.294 171.369 335.936 171.369C336.368 171.369 336.77 171.439 337.142 171.578C337.517 171.714 337.843 171.92 338.122 172.196C338.403 172.472 338.622 172.818 338.778 173.236C338.934 173.651 339.012 174.136 339.012 174.693V175.192H333.485V174.067H337.304C337.304 173.805 337.247 173.574 337.133 173.372C337.02 173.17 336.862 173.013 336.66 172.899C336.461 172.783 336.23 172.724 335.966 172.724C335.69 172.724 335.446 172.788 335.233 172.916C335.022 173.041 334.858 173.21 334.738 173.423C334.619 173.634 334.558 173.868 334.555 174.126V175.196C334.555 175.52 334.615 175.8 334.734 176.036C334.856 176.271 335.028 176.453 335.25 176.581C335.471 176.709 335.734 176.773 336.038 176.773C336.24 176.773 336.424 176.744 336.592 176.688C336.76 176.631 336.903 176.545 337.022 176.432C337.142 176.318 337.233 176.179 337.295 176.014L338.974 176.125C338.889 176.528 338.714 176.881 338.45 177.182C338.189 177.48 337.85 177.713 337.436 177.881C337.024 178.045 336.548 178.128 336.008 178.128ZM346.124 171.455L343.835 178H341.79L339.501 171.455H341.419L342.778 176.138H342.847L344.202 171.455H346.124ZM353.311 171.455V172.818H349.37V171.455H353.311ZM350.265 169.886H352.08V175.989C352.08 176.156 352.105 176.287 352.157 176.381C352.208 176.472 352.279 176.536 352.37 176.572C352.463 176.609 352.571 176.628 352.694 176.628C352.779 176.628 352.864 176.621 352.949 176.607C353.034 176.589 353.1 176.577 353.145 176.568L353.431 177.919C353.34 177.947 353.212 177.98 353.047 178.017C352.882 178.057 352.682 178.081 352.446 178.089C352.009 178.107 351.625 178.048 351.296 177.915C350.969 177.781 350.715 177.574 350.533 177.293C350.351 177.011 350.262 176.656 350.265 176.227V169.886ZM357.381 178.128C356.719 178.128 356.147 177.987 355.664 177.706C355.184 177.422 354.813 177.027 354.551 176.521C354.29 176.013 354.159 175.423 354.159 174.753C354.159 174.077 354.29 173.486 354.551 172.98C354.813 172.472 355.184 172.077 355.664 171.795C356.147 171.511 356.719 171.369 357.381 171.369C358.043 171.369 358.614 171.511 359.094 171.795C359.577 172.077 359.949 172.472 360.211 172.98C360.472 173.486 360.603 174.077 360.603 174.753C360.603 175.423 360.472 176.013 360.211 176.521C359.949 177.027 359.577 177.422 359.094 177.706C358.614 177.987 358.043 178.128 357.381 178.128ZM357.39 176.722C357.691 176.722 357.942 176.636 358.144 176.466C358.346 176.293 358.498 176.057 358.6 175.759C358.705 175.46 358.757 175.121 358.757 174.74C358.757 174.359 358.705 174.02 358.6 173.722C358.498 173.423 358.346 173.187 358.144 173.014C357.942 172.841 357.691 172.754 357.39 172.754C357.086 172.754 356.83 172.841 356.623 173.014C356.418 173.187 356.263 173.423 356.158 173.722C356.056 174.02 356.005 174.359 356.005 174.74C356.005 175.121 356.056 175.46 356.158 175.759C356.263 176.057 356.418 176.293 356.623 176.466C356.83 176.636 357.086 176.722 357.39 176.722ZM364.74 178.128C364.078 178.128 363.506 177.987 363.023 177.706C362.543 177.422 362.172 177.027 361.911 176.521C361.65 176.013 361.519 175.423 361.519 174.753C361.519 174.077 361.65 173.486 361.911 172.98C362.172 172.472 362.543 172.077 363.023 171.795C363.506 171.511 364.078 171.369 364.74 171.369C365.402 171.369 365.973 171.511 366.453 171.795C366.936 172.077 367.309 172.472 367.57 172.98C367.831 173.486 367.962 174.077 367.962 174.753C367.962 175.423 367.831 176.013 367.57 176.521C367.309 177.027 366.936 177.422 366.453 177.706C365.973 177.987 365.402 178.128 364.74 178.128ZM364.749 176.722C365.05 176.722 365.301 176.636 365.503 176.466C365.705 176.293 365.857 176.057 365.959 175.759C366.064 175.46 366.117 175.121 366.117 174.74C366.117 174.359 366.064 174.02 365.959 173.722C365.857 173.423 365.705 173.187 365.503 173.014C365.301 172.841 365.05 172.754 364.749 172.754C364.445 172.754 364.189 172.841 363.982 173.014C363.777 173.187 363.623 173.423 363.517 173.722C363.415 174.02 363.364 174.359 363.364 174.74C363.364 175.121 363.415 175.46 363.517 175.759C363.623 176.057 363.777 176.293 363.982 176.466C364.189 176.636 364.445 176.722 364.749 176.722ZM370.958 169.273V178H369.142V169.273H370.958Z" fill="white"/>
<rect x="398.5" y="161.5" width="79" height="24" rx="4.5" fill="#7EA1E4" stroke="#092AD0"/>
<path d="M411.031 178L412.463 169.273H413.827L412.395 178H411.031ZM407.124 175.835L407.349 174.472H414.168L413.942 175.835H407.124ZM407.963 178L409.395 169.273H410.759L409.327 178H407.963ZM407.622 172.801L407.852 171.438H414.67L414.44 172.801H407.622ZM420.293 178L417.796 169.273H419.812L421.256 175.337H421.329L422.923 169.273H424.648L426.238 175.349H426.315L427.759 169.273H429.775L427.278 178H425.479L423.817 172.294H423.749L422.092 178H420.293ZM433.008 178.128C432.335 178.128 431.755 177.991 431.27 177.719C430.787 177.443 430.414 177.054 430.153 176.551C429.892 176.045 429.761 175.447 429.761 174.757C429.761 174.084 429.892 173.493 430.153 172.984C430.414 172.476 430.782 172.08 431.257 171.795C431.734 171.511 432.294 171.369 432.936 171.369C433.368 171.369 433.77 171.439 434.142 171.578C434.517 171.714 434.843 171.92 435.122 172.196C435.403 172.472 435.622 172.818 435.778 173.236C435.934 173.651 436.012 174.136 436.012 174.693V175.192H430.485V174.067H434.304C434.304 173.805 434.247 173.574 434.133 173.372C434.02 173.17 433.862 173.013 433.66 172.899C433.461 172.783 433.23 172.724 432.966 172.724C432.69 172.724 432.446 172.788 432.233 172.916C432.022 173.041 431.858 173.21 431.738 173.423C431.619 173.634 431.558 173.868 431.555 174.126V175.196C431.555 175.52 431.615 175.8 431.734 176.036C431.856 176.271 432.028 176.453 432.25 176.581C432.471 176.709 432.734 176.773 433.038 176.773C433.24 176.773 433.424 176.744 433.592 176.688C433.76 176.631 433.903 176.545 434.022 176.432C434.142 176.318 434.233 176.179 434.295 176.014L435.974 176.125C435.889 176.528 435.714 176.881 435.45 177.182C435.189 177.48 434.85 177.713 434.436 177.881C434.024 178.045 433.548 178.128 433.008 178.128ZM437.231 178V169.273H439.047V172.554H439.102C439.181 172.378 439.297 172.199 439.447 172.017C439.6 171.832 439.799 171.679 440.044 171.557C440.291 171.432 440.598 171.369 440.964 171.369C441.441 171.369 441.882 171.494 442.285 171.744C442.689 171.991 443.011 172.365 443.252 172.865C443.494 173.362 443.615 173.986 443.615 174.736C443.615 175.466 443.497 176.082 443.261 176.585C443.028 177.085 442.71 177.464 442.306 177.723C441.906 177.979 441.457 178.107 440.96 178.107C440.608 178.107 440.308 178.048 440.061 177.932C439.816 177.815 439.616 177.669 439.46 177.493C439.304 177.314 439.184 177.134 439.102 176.952H439.021V178H437.231ZM439.008 174.727C439.008 175.116 439.062 175.456 439.17 175.746C439.278 176.036 439.434 176.261 439.639 176.423C439.843 176.582 440.092 176.662 440.385 176.662C440.68 176.662 440.93 176.581 441.135 176.419C441.339 176.254 441.494 176.027 441.599 175.737C441.707 175.445 441.761 175.108 441.761 174.727C441.761 174.349 441.708 174.017 441.603 173.73C441.498 173.443 441.343 173.219 441.139 173.057C440.934 172.895 440.683 172.814 440.385 172.814C440.089 172.814 439.839 172.892 439.635 173.048C439.433 173.205 439.278 173.426 439.17 173.713C439.062 174 439.008 174.338 439.008 174.727ZM449.47 178.124C449.052 178.124 448.68 178.051 448.353 177.906C448.027 177.759 447.768 177.541 447.578 177.254C447.39 176.964 447.297 176.604 447.297 176.172C447.297 175.808 447.363 175.503 447.497 175.256C447.63 175.009 447.812 174.81 448.042 174.659C448.272 174.509 448.534 174.395 448.826 174.318C449.122 174.241 449.431 174.188 449.755 174.156C450.136 174.116 450.443 174.08 450.676 174.045C450.909 174.009 451.078 173.955 451.183 173.884C451.288 173.812 451.341 173.707 451.341 173.568V173.543C451.341 173.273 451.255 173.064 451.085 172.916C450.917 172.768 450.679 172.695 450.369 172.695C450.042 172.695 449.782 172.767 449.589 172.912C449.396 173.054 449.268 173.233 449.206 173.449L447.527 173.312C447.612 172.915 447.779 172.571 448.029 172.281C448.279 171.989 448.602 171.764 448.997 171.608C449.395 171.449 449.855 171.369 450.377 171.369C450.741 171.369 451.089 171.412 451.422 171.497C451.757 171.582 452.054 171.714 452.312 171.893C452.574 172.072 452.779 172.303 452.93 172.584C453.081 172.862 453.156 173.196 453.156 173.585V178H451.434V177.092H451.383C451.278 177.297 451.137 177.477 450.961 177.634C450.785 177.787 450.574 177.908 450.326 177.996C450.079 178.081 449.794 178.124 449.47 178.124ZM449.99 176.871C450.257 176.871 450.493 176.818 450.697 176.713C450.902 176.605 451.062 176.46 451.179 176.278C451.295 176.097 451.353 175.891 451.353 175.661V174.966C451.297 175.003 451.218 175.037 451.119 175.068C451.022 175.097 450.913 175.124 450.791 175.149C450.669 175.172 450.547 175.193 450.424 175.213C450.302 175.23 450.191 175.246 450.092 175.26C449.879 175.291 449.693 175.341 449.534 175.409C449.375 175.477 449.251 175.57 449.163 175.686C449.075 175.8 449.031 175.942 449.031 176.112C449.031 176.359 449.12 176.548 449.299 176.679C449.481 176.807 449.711 176.871 449.99 176.871ZM454.564 180.455V171.455H456.354V172.554H456.435C456.515 172.378 456.63 172.199 456.78 172.017C456.934 171.832 457.132 171.679 457.377 171.557C457.624 171.432 457.931 171.369 458.297 171.369C458.775 171.369 459.215 171.494 459.618 171.744C460.022 171.991 460.344 172.365 460.586 172.865C460.827 173.362 460.948 173.986 460.948 174.736C460.948 175.466 460.83 176.082 460.594 176.585C460.361 177.085 460.043 177.464 459.64 177.723C459.239 177.979 458.79 178.107 458.293 178.107C457.941 178.107 457.641 178.048 457.394 177.932C457.15 177.815 456.949 177.669 456.793 177.493C456.637 177.314 456.517 177.134 456.435 176.952H456.38V180.455H454.564ZM456.341 174.727C456.341 175.116 456.395 175.456 456.503 175.746C456.611 176.036 456.767 176.261 456.972 176.423C457.176 176.582 457.425 176.662 457.718 176.662C458.013 176.662 458.263 176.581 458.468 176.419C458.672 176.254 458.827 176.027 458.932 175.737C459.04 175.445 459.094 175.108 459.094 174.727C459.094 174.349 459.042 174.017 458.936 173.73C458.831 173.443 458.676 173.219 458.472 173.057C458.267 172.895 458.016 172.814 457.718 172.814C457.422 172.814 457.172 172.892 456.968 173.048C456.766 173.205 456.611 173.426 456.503 173.713C456.395 174 456.341 174.338 456.341 174.727ZM462.158 180.455V171.455H463.948V172.554H464.029C464.108 172.378 464.223 172.199 464.374 172.017C464.527 171.832 464.726 171.679 464.971 171.557C465.218 171.432 465.525 171.369 465.891 171.369C466.368 171.369 466.809 171.494 467.212 171.744C467.615 171.991 467.938 172.365 468.179 172.865C468.421 173.362 468.542 173.986 468.542 174.736C468.542 175.466 468.424 176.082 468.188 176.585C467.955 177.085 467.637 177.464 467.233 177.723C466.833 177.979 466.384 178.107 465.887 178.107C465.534 178.107 465.235 178.048 464.988 177.932C464.743 177.815 464.543 177.669 464.387 177.493C464.23 177.314 464.111 177.134 464.029 176.952H463.973V180.455H462.158ZM463.935 174.727C463.935 175.116 463.989 175.456 464.097 175.746C464.205 176.036 464.361 176.261 464.566 176.423C464.77 176.582 465.019 176.662 465.311 176.662C465.607 176.662 465.857 176.581 466.061 176.419C466.266 176.254 466.421 176.027 466.526 175.737C466.634 175.445 466.688 175.108 466.688 174.727C466.688 174.349 466.635 174.017 466.53 173.73C466.425 173.443 466.27 173.219 466.066 173.057C465.861 172.895 465.61 172.814 465.311 172.814C465.016 172.814 464.766 172.892 464.561 173.048C464.36 173.205 464.205 173.426 464.097 173.713C463.989 174 463.935 174.338 463.935 174.727Z" fill="white"/>
<circle cx="808.36" cy="207.36" r="15.36" fill="#C4C4C4"/>
<rect x="801.447" y="209.28" width="13.824" height="7.68" rx="1.92" fill="white"/>
<circle cx="808.167" cy="202.944" r="4.8" fill="white"/>
<path d="M833.589 214.139C832.846 214.139 832.185 214.012 831.605 213.756C831.028 213.498 830.573 213.143 830.238 212.692C829.906 212.238 829.736 211.715 829.726 211.121H831.893C831.907 211.37 831.988 211.589 832.137 211.778C832.29 211.963 832.492 212.107 832.744 212.21C832.996 212.313 833.279 212.364 833.594 212.364C833.922 212.364 834.212 212.306 834.464 212.19C834.716 212.074 834.913 211.914 835.055 211.708C835.198 211.503 835.269 211.266 835.269 210.997C835.269 210.725 835.193 210.485 835.04 210.276C834.891 210.064 834.676 209.898 834.394 209.779C834.116 209.66 833.784 209.6 833.4 209.6H832.45V208.019H833.4C833.725 208.019 834.011 207.963 834.26 207.85C834.512 207.737 834.707 207.582 834.847 207.383C834.986 207.181 835.055 206.945 835.055 206.677C835.055 206.422 834.994 206.198 834.871 206.006C834.752 205.81 834.583 205.658 834.364 205.548C834.149 205.439 833.897 205.384 833.609 205.384C833.317 205.384 833.05 205.437 832.808 205.543C832.566 205.646 832.372 205.794 832.227 205.986C832.081 206.178 832.003 206.403 831.993 206.662H829.93C829.94 206.075 830.107 205.558 830.432 205.111C830.757 204.663 831.194 204.314 831.744 204.062C832.298 203.807 832.923 203.679 833.619 203.679C834.321 203.679 834.936 203.807 835.463 204.062C835.99 204.317 836.399 204.662 836.691 205.096C836.986 205.527 837.132 206.011 837.129 206.548C837.132 207.118 836.955 207.593 836.597 207.974C836.242 208.356 835.78 208.598 835.21 208.7V208.78C835.959 208.876 836.529 209.136 836.92 209.56C837.314 209.981 837.51 210.508 837.506 211.141C837.51 211.721 837.342 212.237 837.004 212.688C836.67 213.138 836.207 213.493 835.617 213.751C835.027 214.01 834.351 214.139 833.589 214.139ZM842.354 203.818H845.009L847.812 210.659H847.932L850.736 203.818H853.391V214H851.303V207.373H851.218L848.583 213.95H847.161L844.526 207.348H844.442V214H842.354V203.818ZM858.605 214.149C857.819 214.149 857.143 213.99 856.576 213.672C856.013 213.35 855.579 212.896 855.274 212.31C854.969 211.72 854.816 211.022 854.816 210.217C854.816 209.431 854.969 208.742 855.274 208.148C855.579 207.555 856.008 207.093 856.561 206.761C857.118 206.43 857.771 206.264 858.52 206.264C859.024 206.264 859.493 206.345 859.927 206.508C860.365 206.667 860.746 206.907 861.07 207.229C861.399 207.55 861.654 207.955 861.836 208.442C862.018 208.926 862.11 209.492 862.11 210.142V210.724H855.661V209.411H860.116C860.116 209.106 860.05 208.836 859.917 208.601C859.785 208.366 859.601 208.182 859.365 208.049C859.133 207.913 858.863 207.845 858.555 207.845C858.233 207.845 857.948 207.92 857.7 208.069C857.454 208.215 857.262 208.412 857.123 208.661C856.984 208.906 856.913 209.179 856.909 209.481V210.729C856.909 211.107 856.979 211.433 857.118 211.708C857.261 211.983 857.461 212.195 857.72 212.344C857.978 212.494 858.285 212.568 858.639 212.568C858.875 212.568 859.09 212.535 859.286 212.469C859.481 212.402 859.649 212.303 859.788 212.17C859.927 212.038 860.033 211.875 860.106 211.683L862.065 211.812C861.965 212.283 861.762 212.694 861.453 213.045C861.148 213.393 860.754 213.665 860.27 213.861C859.789 214.053 859.234 214.149 858.605 214.149ZM863.492 214V206.364H865.51V207.711H865.6C865.759 207.263 866.024 206.911 866.395 206.652C866.766 206.393 867.21 206.264 867.727 206.264C868.251 206.264 868.697 206.395 869.065 206.657C869.433 206.915 869.678 207.267 869.801 207.711H869.88C870.036 207.273 870.318 206.924 870.725 206.662C871.136 206.397 871.622 206.264 872.182 206.264C872.895 206.264 873.473 206.491 873.917 206.945C874.365 207.396 874.588 208.036 874.588 208.864V214H872.475V209.282C872.475 208.858 872.363 208.54 872.137 208.327C871.912 208.115 871.63 208.009 871.292 208.009C870.908 208.009 870.608 208.132 870.392 208.377C870.177 208.619 870.069 208.939 870.069 209.337V214H868.016V209.237C868.016 208.863 867.908 208.564 867.693 208.342C867.481 208.12 867.2 208.009 866.852 208.009C866.617 208.009 866.405 208.069 866.216 208.188C866.03 208.304 865.883 208.468 865.774 208.68C865.664 208.889 865.61 209.134 865.61 209.416V214H863.492ZM876.301 214V203.818H878.419V207.646H878.483C878.576 207.441 878.711 207.232 878.886 207.02C879.065 206.804 879.297 206.625 879.582 206.483C879.871 206.337 880.229 206.264 880.656 206.264C881.213 206.264 881.727 206.41 882.197 206.702C882.668 206.99 883.044 207.426 883.326 208.009C883.608 208.589 883.748 209.317 883.748 210.192C883.748 211.044 883.611 211.763 883.336 212.349C883.064 212.933 882.693 213.375 882.222 213.677C881.755 213.975 881.231 214.124 880.651 214.124C880.24 214.124 879.89 214.056 879.602 213.92C879.317 213.785 879.083 213.614 878.901 213.408C878.719 213.2 878.58 212.989 878.483 212.777H878.389V214H876.301ZM878.374 210.182C878.374 210.636 878.437 211.032 878.563 211.37C878.689 211.708 878.871 211.972 879.11 212.161C879.349 212.346 879.639 212.439 879.98 212.439C880.325 212.439 880.616 212.344 880.855 212.156C881.094 211.963 881.274 211.698 881.397 211.36C881.523 211.019 881.586 210.626 881.586 210.182C881.586 209.741 881.524 209.353 881.402 209.018C881.279 208.684 881.099 208.422 880.86 208.233C880.621 208.044 880.328 207.95 879.98 207.95C879.635 207.95 879.344 208.041 879.105 208.223C878.87 208.405 878.689 208.664 878.563 208.999C878.437 209.333 878.374 209.728 878.374 210.182ZM888.642 214.149C887.856 214.149 887.18 213.99 886.613 213.672C886.05 213.35 885.616 212.896 885.311 212.31C885.006 211.72 884.853 211.022 884.853 210.217C884.853 209.431 885.006 208.742 885.311 208.148C885.616 207.555 886.045 207.093 886.598 206.761C887.155 206.43 887.808 206.264 888.557 206.264C889.061 206.264 889.53 206.345 889.964 206.508C890.402 206.667 890.783 206.907 891.108 207.229C891.436 207.55 891.691 207.955 891.873 208.442C892.056 208.926 892.147 209.492 892.147 210.142V210.724H885.699V209.411H890.153C890.153 209.106 890.087 208.836 889.954 208.601C889.822 208.366 889.638 208.182 889.402 208.049C889.17 207.913 888.9 207.845 888.592 207.845C888.27 207.845 887.985 207.92 887.737 208.069C887.492 208.215 887.299 208.412 887.16 208.661C887.021 208.906 886.95 209.179 886.946 209.481V210.729C886.946 211.107 887.016 211.433 887.155 211.708C887.298 211.983 887.498 212.195 887.757 212.344C888.015 212.494 888.322 212.568 888.676 212.568C888.912 212.568 889.127 212.535 889.323 212.469C889.518 212.402 889.686 212.303 889.825 212.17C889.964 212.038 890.07 211.875 890.143 211.683L892.102 211.812C892.002 212.283 891.799 212.694 891.49 213.045C891.185 213.393 890.791 213.665 890.307 213.861C889.827 214.053 889.271 214.149 888.642 214.149ZM893.529 214V206.364H895.582V207.696H895.662C895.801 207.222 896.034 206.864 896.363 206.622C896.691 206.377 897.069 206.254 897.496 206.254C897.602 206.254 897.717 206.261 897.839 206.274C897.962 206.287 898.069 206.306 898.162 206.329V208.208C898.063 208.178 897.925 208.152 897.75 208.129C897.574 208.105 897.413 208.094 897.267 208.094C896.956 208.094 896.677 208.162 896.432 208.298C896.19 208.43 895.998 208.616 895.855 208.854C895.716 209.093 895.647 209.368 895.647 209.68V214H893.529ZM905.611 208.541L903.672 208.661C903.639 208.495 903.568 208.346 903.458 208.213C903.349 208.077 903.205 207.969 903.026 207.89C902.85 207.807 902.64 207.766 902.394 207.766C902.066 207.766 901.789 207.835 901.564 207.974C901.339 208.11 901.226 208.293 901.226 208.521C901.226 208.704 901.299 208.858 901.445 208.984C901.591 209.11 901.841 209.211 902.195 209.287L903.578 209.565C904.32 209.718 904.874 209.963 905.238 210.301C905.603 210.639 905.785 211.083 905.785 211.634C905.785 212.134 905.637 212.573 905.343 212.951C905.051 213.329 904.65 213.624 904.139 213.836C903.632 214.045 903.047 214.149 902.384 214.149C901.374 214.149 900.568 213.939 899.968 213.518C899.372 213.094 899.022 212.517 898.919 211.788L901.002 211.678C901.065 211.987 901.218 212.222 901.46 212.384C901.702 212.543 902.012 212.623 902.389 212.623C902.761 212.623 903.059 212.552 903.284 212.409C903.513 212.263 903.629 212.076 903.632 211.847C903.629 211.655 903.548 211.498 903.389 211.375C903.23 211.249 902.984 211.153 902.653 211.087L901.33 210.823C900.585 210.674 900.03 210.415 899.665 210.048C899.304 209.68 899.123 209.211 899.123 208.641C899.123 208.15 899.256 207.728 899.521 207.373C899.789 207.018 900.165 206.745 900.649 206.553C901.137 206.36 901.707 206.264 902.36 206.264C903.324 206.264 904.083 206.468 904.637 206.876C905.193 207.283 905.518 207.839 905.611 208.541Z" fill="#092AD0"/>
<path d="M981.825 214V212.449L985.45 209.093C985.758 208.795 986.016 208.526 986.225 208.288C986.437 208.049 986.598 207.815 986.707 207.587C986.817 207.355 986.871 207.104 986.871 206.836C986.871 206.538 986.804 206.281 986.668 206.065C986.532 205.847 986.346 205.679 986.111 205.563C985.875 205.444 985.609 205.384 985.31 205.384C984.999 205.384 984.727 205.447 984.495 205.573C984.263 205.699 984.084 205.88 983.958 206.115C983.832 206.35 983.769 206.63 983.769 206.955H981.726C981.726 206.289 981.877 205.711 982.178 205.22C982.48 204.73 982.902 204.35 983.446 204.082C983.99 203.813 984.616 203.679 985.325 203.679C986.054 203.679 986.689 203.808 987.229 204.067C987.773 204.322 988.196 204.677 988.497 205.131C988.799 205.585 988.95 206.105 988.95 206.692C988.95 207.076 988.873 207.456 988.721 207.83C988.572 208.205 988.305 208.621 987.92 209.078C987.536 209.532 986.994 210.077 986.295 210.714L984.808 212.17V212.24H989.084V214H981.825ZM1003.3 208.909C1003.3 210.019 1003.09 210.964 1002.67 211.743C1002.25 212.522 1001.68 213.117 1000.96 213.528C1000.24 213.935 999.431 214.139 998.532 214.139C997.627 214.139 996.815 213.934 996.096 213.523C995.377 213.112 994.809 212.517 994.391 211.738C993.973 210.959 993.765 210.016 993.765 208.909C993.765 207.799 993.973 206.854 994.391 206.075C994.809 205.296 995.377 204.703 996.096 204.295C996.815 203.884 997.627 203.679 998.532 203.679C999.431 203.679 1000.24 203.884 1000.96 204.295C1001.68 204.703 1002.25 205.296 1002.67 206.075C1003.09 206.854 1003.3 207.799 1003.3 208.909ZM1001.12 208.909C1001.12 208.19 1001.01 207.583 1000.79 207.089C1000.58 206.596 1000.28 206.221 999.895 205.966C999.507 205.711 999.053 205.583 998.532 205.583C998.012 205.583 997.558 205.711 997.17 205.966C996.782 206.221 996.481 206.596 996.265 207.089C996.053 207.583 995.947 208.19 995.947 208.909C995.947 209.628 996.053 210.235 996.265 210.729C996.481 211.223 996.782 211.597 997.17 211.852C997.558 212.107 998.012 212.235 998.532 212.235C999.053 212.235 999.507 212.107 999.895 211.852C1000.28 211.597 1000.58 211.223 1000.79 210.729C1001.01 210.235 1001.12 209.628 1001.12 208.909ZM1004.85 216.864V206.364H1006.94V207.646H1007.04C1007.13 207.441 1007.26 207.232 1007.44 207.02C1007.62 206.804 1007.85 206.625 1008.14 206.483C1008.42 206.337 1008.78 206.264 1009.21 206.264C1009.77 206.264 1010.28 206.41 1010.75 206.702C1011.22 206.99 1011.6 207.426 1011.88 208.009C1012.16 208.589 1012.3 209.317 1012.3 210.192C1012.3 211.044 1012.16 211.763 1011.89 212.349C1011.62 212.933 1011.25 213.375 1010.78 213.677C1010.31 213.975 1009.79 214.124 1009.21 214.124C1008.79 214.124 1008.44 214.056 1008.16 213.92C1007.87 213.785 1007.64 213.614 1007.46 213.408C1007.27 213.2 1007.13 212.989 1007.04 212.777H1006.97V216.864H1004.85ZM1006.93 210.182C1006.93 210.636 1006.99 211.032 1007.12 211.37C1007.24 211.708 1007.43 211.972 1007.66 212.161C1007.9 212.346 1008.19 212.439 1008.53 212.439C1008.88 212.439 1009.17 212.344 1009.41 212.156C1009.65 211.963 1009.83 211.698 1009.95 211.36C1010.08 211.019 1010.14 210.626 1010.14 210.182C1010.14 209.741 1010.08 209.353 1009.96 209.018C1009.83 208.684 1009.65 208.422 1009.41 208.233C1009.18 208.044 1008.88 207.95 1008.53 207.95C1008.19 207.95 1007.9 208.041 1007.66 208.223C1007.42 208.405 1007.24 208.664 1007.12 208.999C1006.99 209.333 1006.93 209.728 1006.93 210.182ZM1017.19 214.149C1016.41 214.149 1015.73 213.99 1015.17 213.672C1014.6 213.35 1014.17 212.896 1013.86 212.31C1013.56 211.72 1013.41 211.022 1013.41 210.217C1013.41 209.431 1013.56 208.742 1013.86 208.148C1014.17 207.555 1014.6 207.093 1015.15 206.761C1015.71 206.43 1016.36 206.264 1017.11 206.264C1017.61 206.264 1018.08 206.345 1018.52 206.508C1018.95 206.667 1019.34 206.907 1019.66 207.229C1019.99 207.55 1020.24 207.955 1020.43 208.442C1020.61 208.926 1020.7 209.492 1020.7 210.142V210.724H1014.25V209.411H1018.71C1018.71 209.106 1018.64 208.836 1018.51 208.601C1018.37 208.366 1018.19 208.182 1017.96 208.049C1017.72 207.913 1017.45 207.845 1017.14 207.845C1016.82 207.845 1016.54 207.92 1016.29 208.069C1016.04 208.215 1015.85 208.412 1015.71 208.661C1015.57 208.906 1015.5 209.179 1015.5 209.481V210.729C1015.5 211.107 1015.57 211.433 1015.71 211.708C1015.85 211.983 1016.05 212.195 1016.31 212.344C1016.57 212.494 1016.87 212.568 1017.23 212.568C1017.46 212.568 1017.68 212.535 1017.88 212.469C1018.07 212.402 1018.24 212.303 1018.38 212.17C1018.52 212.038 1018.62 211.875 1018.7 211.683L1020.65 211.812C1020.56 212.283 1020.35 212.694 1020.04 213.045C1019.74 213.393 1019.34 213.665 1018.86 213.861C1018.38 214.053 1017.82 214.149 1017.19 214.149ZM1024.2 209.585V214H1022.08V206.364H1024.1V207.711H1024.19C1024.36 207.267 1024.64 206.915 1025.04 206.657C1025.44 206.395 1025.92 206.264 1026.49 206.264C1027.02 206.264 1027.48 206.38 1027.87 206.612C1028.27 206.844 1028.57 207.176 1028.79 207.607C1029.01 208.034 1029.12 208.545 1029.12 209.138V214H1027V209.516C1027.01 209.048 1026.89 208.684 1026.65 208.422C1026.4 208.157 1026.07 208.024 1025.65 208.024C1025.36 208.024 1025.11 208.085 1024.89 208.208C1024.68 208.331 1024.51 208.51 1024.38 208.745C1024.26 208.977 1024.2 209.257 1024.2 209.585ZM1030.79 214V206.364H1032.91V214H1030.79ZM1031.85 205.379C1031.54 205.379 1031.27 205.275 1031.04 205.066C1030.82 204.854 1030.71 204.6 1030.71 204.305C1030.71 204.014 1030.82 203.763 1031.04 203.555C1031.27 203.343 1031.54 203.237 1031.85 203.237C1032.17 203.237 1032.44 203.343 1032.66 203.555C1032.89 203.763 1033 204.014 1033 204.305C1033 204.6 1032.89 204.854 1032.66 205.066C1032.44 205.275 1032.17 205.379 1031.85 205.379ZM1036.72 209.585V214H1034.6V206.364H1036.62V207.711H1036.71C1036.88 207.267 1037.17 206.915 1037.56 206.657C1037.96 206.395 1038.44 206.264 1039.01 206.264C1039.54 206.264 1040 206.38 1040.4 206.612C1040.79 206.844 1041.1 207.176 1041.32 207.607C1041.54 208.034 1041.64 208.545 1041.64 209.138V214H1039.53V209.516C1039.53 209.048 1039.41 208.684 1039.17 208.422C1038.93 208.157 1038.59 208.024 1038.17 208.024C1037.88 208.024 1037.63 208.085 1037.41 208.208C1037.2 208.331 1037.03 208.51 1036.91 208.745C1036.79 208.977 1036.73 209.257 1036.72 209.585ZM1046.75 217.023C1046.07 217.023 1045.48 216.928 1044.99 216.739C1044.5 216.554 1044.11 216.3 1043.83 215.979C1043.54 215.657 1043.35 215.296 1043.26 214.895L1045.22 214.631C1045.28 214.784 1045.38 214.926 1045.51 215.059C1045.64 215.192 1045.81 215.298 1046.02 215.377C1046.23 215.46 1046.5 215.501 1046.8 215.501C1047.26 215.501 1047.64 215.389 1047.94 215.163C1048.24 214.941 1048.39 214.568 1048.39 214.045V212.648H1048.31C1048.21 212.86 1048.07 213.06 1047.89 213.249C1047.7 213.438 1047.46 213.592 1047.17 213.712C1046.88 213.831 1046.53 213.891 1046.13 213.891C1045.55 213.891 1045.03 213.758 1044.56 213.493C1044.09 213.224 1043.72 212.815 1043.44 212.265C1043.17 211.711 1043.03 211.012 1043.03 210.167C1043.03 209.302 1043.17 208.579 1043.45 207.999C1043.73 207.419 1044.11 206.985 1044.58 206.697C1045.05 206.408 1045.56 206.264 1046.12 206.264C1046.55 206.264 1046.91 206.337 1047.2 206.483C1047.49 206.625 1047.72 206.804 1047.89 207.02C1048.07 207.232 1048.21 207.441 1048.31 207.646H1048.38V206.364H1050.49V214.075C1050.49 214.724 1050.33 215.268 1050.01 215.705C1049.69 216.143 1049.25 216.471 1048.69 216.69C1048.13 216.912 1047.48 217.023 1046.75 217.023ZM1046.8 212.3C1047.14 212.3 1047.43 212.215 1047.66 212.046C1047.9 211.874 1048.08 211.629 1048.21 211.31C1048.34 210.989 1048.4 210.604 1048.4 210.157C1048.4 209.71 1048.34 209.322 1048.22 208.994C1048.09 208.662 1047.91 208.405 1047.67 208.223C1047.43 208.041 1047.14 207.95 1046.8 207.95C1046.45 207.95 1046.16 208.044 1045.92 208.233C1045.68 208.419 1045.5 208.677 1045.38 209.009C1045.25 209.34 1045.19 209.723 1045.19 210.157C1045.19 210.598 1045.25 210.979 1045.38 211.3C1045.5 211.619 1045.68 211.866 1045.92 212.041C1046.16 212.214 1046.45 212.3 1046.8 212.3ZM1058.53 208.541L1056.59 208.661C1056.55 208.495 1056.48 208.346 1056.37 208.213C1056.26 208.077 1056.12 207.969 1055.94 207.89C1055.77 207.807 1055.56 207.766 1055.31 207.766C1054.98 207.766 1054.71 207.835 1054.48 207.974C1054.25 208.11 1054.14 208.293 1054.14 208.521C1054.14 208.704 1054.21 208.858 1054.36 208.984C1054.51 209.11 1054.76 209.211 1055.11 209.287L1056.49 209.565C1057.24 209.718 1057.79 209.963 1058.15 210.301C1058.52 210.639 1058.7 211.083 1058.7 211.634C1058.7 212.134 1058.55 212.573 1058.26 212.951C1057.97 213.329 1057.57 213.624 1057.06 213.836C1056.55 214.045 1055.96 214.149 1055.3 214.149C1054.29 214.149 1053.48 213.939 1052.88 213.518C1052.29 213.094 1051.94 212.517 1051.84 211.788L1053.92 211.678C1053.98 211.987 1054.13 212.222 1054.38 212.384C1054.62 212.543 1054.93 212.623 1055.31 212.623C1055.68 212.623 1055.97 212.552 1056.2 212.409C1056.43 212.263 1056.54 212.076 1056.55 211.847C1056.54 211.655 1056.46 211.498 1056.3 211.375C1056.15 211.249 1055.9 211.153 1055.57 211.087L1054.25 210.823C1053.5 210.674 1052.95 210.415 1052.58 210.048C1052.22 209.68 1052.04 209.211 1052.04 208.641C1052.04 208.15 1052.17 207.728 1052.44 207.373C1052.71 207.018 1053.08 206.745 1053.57 206.553C1054.05 206.36 1054.62 206.264 1055.28 206.264C1056.24 206.264 1057 206.468 1057.55 206.876C1058.11 207.283 1058.43 207.839 1058.53 208.541Z" fill="#092AD0"/>
<circle cx="961.36" cy="207.36" r="15.36" fill="#356DEE"/>
<rect x="953" y="209" width="2" height="16" rx="1" transform="rotate(-90 953 209)" fill="white"/>
<rect x="960" y="200" width="2" height="16" rx="1" fill="white"/>
<defs>
<linearGradient id="paint0_linear_799_1478" x1="-2.50137e-08" y1="25.6051" x2="145" y2="26.1227" gradientUnits="userSpaceOnUse">
<stop stop-color="#0EC5FF"/>
<stop offset="0.543619" stop-color="#356DEE"/>
<stop offset="0.9999" stop-color="#092AD0"/>
<stop offset="1" stop-color="#A4BAED"/>
<stop offset="1" stop-color="#092AD0"/>
</linearGradient>
</defs>
</svg>
