<svg width="1059" height="200" viewBox="0 0 1059 200" fill="none" xmlns="http://www.w3.org/2000/svg">
<rect width="1058.4" height="200" rx="28" fill="white"/>
<path d="M186.824 85.3999V62.1272H191.744V71.7294H201.733V62.1272H206.642V85.3999H201.733V75.7863H191.744V85.3999H186.824ZM215.585 85.7294C214.471 85.7294 213.479 85.5363 212.608 85.1499C211.736 84.756 211.047 84.1764 210.539 83.4113C210.039 82.6385 209.789 81.6764 209.789 80.5249C209.789 79.5552 209.967 78.7408 210.324 78.0817C210.68 77.4226 211.164 76.8923 211.778 76.4908C212.392 76.0893 213.089 75.7863 213.869 75.5817C214.657 75.3772 215.483 75.2332 216.346 75.1499C217.361 75.0438 218.18 74.9454 218.801 74.8544C219.422 74.756 219.873 74.612 220.153 74.4226C220.433 74.2332 220.574 73.9529 220.574 73.5817V73.5135C220.574 72.7938 220.346 72.237 219.892 71.8431C219.445 71.4491 218.808 71.2522 217.983 71.2522C217.111 71.2522 216.418 71.4454 215.903 71.8317C215.388 72.2105 215.047 72.6878 214.88 73.2635L210.403 72.8999C210.63 71.8393 211.077 70.9226 211.744 70.1499C212.411 69.3696 213.27 68.7711 214.324 68.3544C215.384 67.9302 216.611 67.7181 218.005 67.7181C218.975 67.7181 219.903 67.8317 220.789 68.059C221.683 68.2863 222.475 68.6385 223.164 69.1158C223.861 69.5931 224.411 70.2067 224.812 70.9567C225.214 71.6991 225.414 72.5893 225.414 73.6272V85.3999H220.824V82.9794H220.687C220.407 83.5249 220.032 84.006 219.562 84.4226C219.092 84.8317 218.528 85.1537 217.869 85.3885C217.21 85.6158 216.449 85.7294 215.585 85.7294ZM216.971 82.3885C217.683 82.3885 218.312 82.2484 218.858 81.9681C219.403 81.6802 219.831 81.2938 220.142 80.809C220.452 80.3241 220.608 79.7749 220.608 79.1613V77.309C220.456 77.4075 220.248 77.4984 219.983 77.5817C219.725 77.6575 219.433 77.7294 219.108 77.7976C218.782 77.8582 218.456 77.9151 218.13 77.9681C217.805 78.0135 217.509 78.0552 217.244 78.0931C216.676 78.1764 216.18 78.309 215.755 78.4908C215.331 78.6726 215.002 78.9188 214.767 79.2294C214.532 79.5325 214.414 79.9113 214.414 80.3658C214.414 81.0249 214.653 81.5287 215.13 81.8772C215.615 82.2181 216.229 82.3885 216.971 82.3885ZM237.056 85.7408C235.269 85.7408 233.731 85.362 232.443 84.6044C231.163 83.8393 230.178 82.7787 229.488 81.4226C228.806 80.0666 228.466 78.506 228.466 76.7408C228.466 74.9529 228.81 73.3848 229.5 72.0363C230.197 70.6802 231.185 69.6234 232.466 68.8658C233.746 68.1007 235.269 67.7181 237.034 67.7181C238.556 67.7181 239.89 67.9946 241.034 68.5476C242.178 69.1007 243.083 69.8772 243.75 70.8772C244.416 71.8772 244.784 73.0514 244.852 74.3999H240.284C240.155 73.5287 239.814 72.8279 239.261 72.2976C238.716 71.7598 238 71.4908 237.113 71.4908C236.363 71.4908 235.708 71.6954 235.147 72.1044C234.594 72.506 234.163 73.0931 233.852 73.8658C233.541 74.6385 233.386 75.5741 233.386 76.6726C233.386 77.7863 233.538 78.7332 233.841 79.5135C234.151 80.2938 234.587 80.8885 235.147 81.2976C235.708 81.7067 236.363 81.9113 237.113 81.9113C237.666 81.9113 238.163 81.7976 238.602 81.5704C239.049 81.3431 239.416 81.0135 239.704 80.5817C240 80.1423 240.193 79.6158 240.284 79.0022H244.852C244.776 80.3355 244.413 81.5098 243.761 82.5249C243.117 83.5325 242.227 84.3204 241.091 84.8885C239.954 85.4567 238.609 85.7408 237.056 85.7408ZM252.338 80.3772L252.349 74.5704H253.054L258.645 67.9454H264.201L256.69 76.7181H255.542L252.338 80.3772ZM247.951 85.3999V62.1272H252.792V85.3999H247.951ZM258.86 85.3999L253.724 77.7976L256.951 74.3772L264.531 85.3999H258.86ZM271.554 85.7294C270.44 85.7294 269.448 85.5363 268.576 85.1499C267.705 84.756 267.016 84.1764 266.508 83.4113C266.008 82.6385 265.758 81.6764 265.758 80.5249C265.758 79.5552 265.936 78.7408 266.292 78.0817C266.648 77.4226 267.133 76.8923 267.747 76.4908C268.36 76.0893 269.057 75.7863 269.838 75.5817C270.626 75.3772 271.451 75.2332 272.315 75.1499C273.33 75.0438 274.148 74.9454 274.77 74.8544C275.391 74.756 275.842 74.612 276.122 74.4226C276.402 74.2332 276.542 73.9529 276.542 73.5817V73.5135C276.542 72.7938 276.315 72.237 275.86 71.8431C275.413 71.4491 274.777 71.2522 273.951 71.2522C273.08 71.2522 272.387 71.4454 271.872 71.8317C271.357 72.2105 271.016 72.6878 270.849 73.2635L266.372 72.8999C266.599 71.8393 267.046 70.9226 267.713 70.1499C268.379 69.3696 269.239 68.7711 270.292 68.3544C271.353 67.9302 272.58 67.7181 273.974 67.7181C274.944 67.7181 275.872 67.8317 276.758 68.059C277.652 68.2863 278.444 68.6385 279.133 69.1158C279.83 69.5931 280.379 70.2067 280.781 70.9567C281.182 71.6991 281.383 72.5893 281.383 73.6272V85.3999H276.792V82.9794H276.656C276.376 83.5249 276.001 84.006 275.531 84.4226C275.061 84.8317 274.497 85.1537 273.838 85.3885C273.179 85.6158 272.417 85.7294 271.554 85.7294ZM272.94 82.3885C273.652 82.3885 274.281 82.2484 274.826 81.9681C275.372 81.6802 275.8 81.2938 276.11 80.809C276.421 80.3241 276.576 79.7749 276.576 79.1613V77.309C276.425 77.4075 276.217 77.4984 275.951 77.5817C275.694 77.6575 275.402 77.7294 275.076 77.7976C274.751 77.8582 274.425 77.9151 274.099 77.9681C273.773 78.0135 273.478 78.0552 273.213 78.0931C272.645 78.1764 272.148 78.309 271.724 78.4908C271.3 78.6726 270.97 78.9188 270.735 79.2294C270.501 79.5325 270.383 79.9113 270.383 80.3658C270.383 81.0249 270.622 81.5287 271.099 81.8772C271.584 82.2181 272.198 82.3885 272.94 82.3885ZM294.423 67.9454V71.5817H283.912V67.9454H294.423ZM286.298 63.7635H291.139V80.0363C291.139 80.4832 291.207 80.8317 291.343 81.0817C291.48 81.3241 291.669 81.4946 291.912 81.5931C292.162 81.6916 292.449 81.7408 292.775 81.7408C293.002 81.7408 293.23 81.7219 293.457 81.684C293.684 81.6385 293.859 81.6044 293.98 81.5817L294.741 85.184C294.499 85.2598 294.158 85.3469 293.718 85.4454C293.279 85.5514 292.745 85.6158 292.116 85.6385C290.949 85.684 289.927 85.5287 289.048 85.1726C288.177 84.8166 287.499 84.2635 287.014 83.5135C286.529 82.7635 286.29 81.8166 286.298 80.6726V63.7635ZM302.792 75.309V85.3999H297.951V62.1272H302.656V71.0249H302.86C303.254 69.9946 303.891 69.1878 304.77 68.6044C305.648 68.0135 306.751 67.7181 308.076 67.7181C309.288 67.7181 310.345 67.9832 311.247 68.5135C312.156 69.0363 312.86 69.7901 313.36 70.7749C313.868 71.7522 314.118 72.9226 314.11 74.2863V85.3999H309.27V75.1499C309.277 74.0741 309.004 73.237 308.451 72.6385C307.906 72.0401 307.141 71.7408 306.156 71.7408C305.497 71.7408 304.913 71.881 304.406 72.1613C303.906 72.4416 303.512 72.8507 303.224 73.3885C302.944 73.9188 302.8 74.559 302.792 75.309ZM325.806 85.7408C324.041 85.7408 322.515 85.3658 321.227 84.6158C319.947 83.8582 318.958 82.8052 318.261 81.4567C317.564 80.1007 317.216 78.5287 317.216 76.7408C317.216 74.9378 317.564 73.362 318.261 72.0135C318.958 70.6575 319.947 69.6044 321.227 68.8544C322.515 68.0969 324.041 67.7181 325.806 67.7181C327.572 67.7181 329.094 68.0969 330.375 68.8544C331.663 69.6044 332.655 70.6575 333.352 72.0135C334.049 73.362 334.397 74.9378 334.397 76.7408C334.397 78.5287 334.049 80.1007 333.352 81.4567C332.655 82.8052 331.663 83.8582 330.375 84.6158C329.094 85.3658 327.572 85.7408 325.806 85.7408ZM325.829 81.9908C326.632 81.9908 327.303 81.7635 327.841 81.309C328.378 80.8469 328.784 80.2181 329.056 79.4226C329.337 78.6272 329.477 77.7219 329.477 76.7067C329.477 75.6916 329.337 74.7863 329.056 73.9908C328.784 73.1954 328.378 72.5666 327.841 72.1044C327.303 71.6423 326.632 71.4113 325.829 71.4113C325.019 71.4113 324.337 71.6423 323.784 72.1044C323.238 72.5666 322.825 73.1954 322.545 73.9908C322.272 74.7863 322.136 75.6916 322.136 76.7067C322.136 77.7219 322.272 78.6272 322.545 79.4226C322.825 80.2181 323.238 80.8469 323.784 81.309C324.337 81.7635 325.019 81.9908 325.829 81.9908ZM342.386 75.309V85.3999H337.545V67.9454H342.159V71.0249H342.363C342.75 70.0098 343.397 69.2067 344.306 68.6158C345.216 68.0173 346.318 67.7181 347.613 67.7181C348.825 67.7181 349.882 67.9832 350.784 68.5135C351.685 69.0438 352.386 69.8014 352.886 70.7863C353.386 71.7635 353.636 72.9302 353.636 74.2863V85.3999H348.795V75.1499C348.803 74.0817 348.53 73.2484 347.977 72.6499C347.424 72.0438 346.663 71.7408 345.693 71.7408C345.041 71.7408 344.466 71.881 343.966 72.1613C343.473 72.4416 343.087 72.8507 342.806 73.3885C342.534 73.9188 342.394 74.559 342.386 75.309ZM364.062 66.184V62.1272H383.176V66.184H376.051V85.3999H371.187V66.184H364.062ZM391.656 85.7408C389.86 85.7408 388.315 85.3772 387.02 84.6499C385.732 83.9151 384.739 82.8772 384.042 81.5363C383.345 80.1878 382.997 78.5931 382.997 76.7522C382.997 74.9567 383.345 73.381 384.042 72.0249C384.739 70.6688 385.72 69.612 386.985 68.8544C388.258 68.0969 389.751 67.7181 391.463 67.7181C392.614 67.7181 393.686 67.9037 394.679 68.2749C395.679 68.6385 396.55 69.1878 397.292 69.9226C398.042 70.6575 398.626 71.5817 399.042 72.6954C399.459 73.8014 399.667 75.0969 399.667 76.5817V77.9113H384.929V74.9113H395.11C395.11 74.2143 394.959 73.5969 394.656 73.059C394.353 72.5211 393.932 72.1007 393.395 71.7976C392.864 71.487 392.247 71.3317 391.542 71.3317C390.807 71.3317 390.156 71.5022 389.588 71.8431C389.027 72.1764 388.588 72.6272 388.27 73.1954C387.951 73.756 387.788 74.381 387.781 75.0704V77.9226C387.781 78.7863 387.94 79.5325 388.258 80.1613C388.584 80.7901 389.042 81.2749 389.633 81.6158C390.224 81.9567 390.925 82.1272 391.735 82.1272C392.273 82.1272 392.766 82.0514 393.213 81.8999C393.66 81.7484 394.042 81.5211 394.36 81.2181C394.679 80.9151 394.921 80.5438 395.088 80.1044L399.565 80.3999C399.338 81.4757 398.872 82.4151 398.167 83.2181C397.47 84.0135 396.569 84.6348 395.463 85.0817C394.364 85.5211 393.095 85.7408 391.656 85.7408ZM407.804 85.7294C406.69 85.7294 405.698 85.5363 404.826 85.1499C403.955 84.756 403.266 84.1764 402.758 83.4113C402.258 82.6385 402.008 81.6764 402.008 80.5249C402.008 79.5552 402.186 78.7408 402.542 78.0817C402.898 77.4226 403.383 76.8923 403.997 76.4908C404.61 76.0893 405.307 75.7863 406.088 75.5817C406.876 75.3772 407.701 75.2332 408.565 75.1499C409.58 75.0438 410.398 74.9454 411.02 74.8544C411.641 74.756 412.092 74.612 412.372 74.4226C412.652 74.2332 412.792 73.9529 412.792 73.5817V73.5135C412.792 72.7938 412.565 72.237 412.11 71.8431C411.663 71.4491 411.027 71.2522 410.201 71.2522C409.33 71.2522 408.637 71.4454 408.122 71.8317C407.607 72.2105 407.266 72.6878 407.099 73.2635L402.622 72.8999C402.849 71.8393 403.296 70.9226 403.963 70.1499C404.629 69.3696 405.489 68.7711 406.542 68.3544C407.603 67.9302 408.83 67.7181 410.224 67.7181C411.194 67.7181 412.122 67.8317 413.008 68.059C413.902 68.2863 414.694 68.6385 415.383 69.1158C416.08 69.5931 416.629 70.2067 417.031 70.9567C417.432 71.6991 417.633 72.5893 417.633 73.6272V85.3999H413.042V82.9794H412.906C412.626 83.5249 412.251 84.006 411.781 84.4226C411.311 84.8317 410.747 85.1537 410.088 85.3885C409.429 85.6158 408.667 85.7294 407.804 85.7294ZM409.19 82.3885C409.902 82.3885 410.531 82.2484 411.076 81.9681C411.622 81.6802 412.05 81.2938 412.36 80.809C412.671 80.3241 412.826 79.7749 412.826 79.1613V77.309C412.675 77.4075 412.467 77.4984 412.201 77.5817C411.944 77.6575 411.652 77.7294 411.326 77.7976C411.001 77.8582 410.675 77.9151 410.349 77.9681C410.023 78.0135 409.728 78.0552 409.463 78.0931C408.895 78.1764 408.398 78.309 407.974 78.4908C407.55 78.6726 407.22 78.9188 406.985 79.2294C406.751 79.5325 406.633 79.9113 406.633 80.3658C406.633 81.0249 406.872 81.5287 407.349 81.8772C407.834 82.2181 408.448 82.3885 409.19 82.3885ZM421.389 85.3999V67.9454H426.002V71.0249H426.207C426.571 70.0022 427.177 69.1954 428.025 68.6044C428.874 68.0135 429.889 67.7181 431.071 67.7181C432.268 67.7181 433.287 68.0173 434.127 68.6158C434.968 69.2067 435.529 70.0098 435.809 71.0249H435.991C436.347 70.0249 436.991 69.2257 437.923 68.6272C438.862 68.0211 439.972 67.7181 441.252 67.7181C442.881 67.7181 444.203 68.237 445.218 69.2749C446.241 70.3052 446.752 71.7673 446.752 73.6613V85.3999H441.923V74.6158C441.923 73.6461 441.665 72.9188 441.15 72.434C440.635 71.9491 439.991 71.7067 439.218 71.7067C438.34 71.7067 437.654 71.987 437.162 72.5476C436.669 73.1007 436.423 73.8317 436.423 74.7408V85.3999H431.73V74.5135C431.73 73.6575 431.484 72.9757 430.991 72.4681C430.506 71.9605 429.866 71.7067 429.071 71.7067C428.533 71.7067 428.048 71.8431 427.616 72.1158C427.192 72.381 426.855 72.756 426.605 73.2408C426.355 73.7181 426.23 74.2787 426.23 74.9226V85.3999H421.389Z" fill="black"/>
<path d="M186.014 100.036H189.655L193.501 109.418H193.664L197.51 100.036H201.151V114H198.287V104.911H198.171L194.558 113.932H192.608L188.994 104.877H188.878V114H186.014V100.036ZM206.515 114.198C205.847 114.198 205.251 114.082 204.729 113.85C204.206 113.614 203.792 113.266 203.488 112.807C203.188 112.343 203.038 111.766 203.038 111.075C203.038 110.493 203.145 110.005 203.358 109.609C203.572 109.214 203.863 108.895 204.231 108.655C204.599 108.414 205.017 108.232 205.485 108.109C205.958 107.986 206.454 107.9 206.972 107.85C207.581 107.786 208.072 107.727 208.445 107.673C208.817 107.614 209.088 107.527 209.256 107.414C209.424 107.3 209.508 107.132 209.508 106.909V106.868C209.508 106.436 209.372 106.102 209.099 105.866C208.831 105.63 208.449 105.511 207.954 105.511C207.431 105.511 207.015 105.627 206.706 105.859C206.397 106.086 206.192 106.373 206.092 106.718L203.406 106.5C203.542 105.864 203.81 105.314 204.21 104.85C204.61 104.382 205.126 104.023 205.758 103.773C206.395 103.518 207.131 103.391 207.967 103.391C208.549 103.391 209.106 103.459 209.638 103.595C210.174 103.732 210.649 103.943 211.063 104.23C211.481 104.516 211.81 104.884 212.051 105.334C212.292 105.78 212.413 106.314 212.413 106.936V114H209.658V112.548H209.576C209.408 112.875 209.183 113.164 208.901 113.414C208.62 113.659 208.281 113.852 207.885 113.993C207.49 114.13 207.033 114.198 206.515 114.198ZM207.347 112.193C207.774 112.193 208.151 112.109 208.479 111.941C208.806 111.768 209.063 111.536 209.249 111.245C209.435 110.955 209.529 110.625 209.529 110.257V109.145C209.438 109.205 209.313 109.259 209.154 109.309C208.999 109.355 208.824 109.398 208.629 109.439C208.433 109.475 208.238 109.509 208.042 109.541C207.847 109.568 207.67 109.593 207.51 109.616C207.17 109.666 206.872 109.745 206.617 109.855C206.363 109.964 206.165 110.111 206.024 110.298C205.883 110.48 205.813 110.707 205.813 110.98C205.813 111.375 205.956 111.677 206.242 111.886C206.533 112.091 206.901 112.193 207.347 112.193ZM219.398 114.205C218.325 114.205 217.402 113.977 216.63 113.523C215.862 113.064 215.271 112.427 214.857 111.614C214.448 110.8 214.243 109.864 214.243 108.805C214.243 107.732 214.45 106.791 214.864 105.982C215.282 105.168 215.875 104.534 216.643 104.08C217.412 103.62 218.325 103.391 219.384 103.391C220.298 103.391 221.098 103.557 221.784 103.889C222.471 104.22 223.014 104.686 223.414 105.286C223.814 105.886 224.034 106.591 224.075 107.4H221.334C221.257 106.877 221.052 106.457 220.721 106.139C220.393 105.816 219.964 105.655 219.432 105.655C218.982 105.655 218.589 105.777 218.252 106.023C217.921 106.264 217.662 106.616 217.475 107.08C217.289 107.543 217.196 108.105 217.196 108.764C217.196 109.432 217.287 110 217.468 110.468C217.655 110.936 217.916 111.293 218.252 111.539C218.589 111.784 218.982 111.907 219.432 111.907C219.764 111.907 220.062 111.839 220.325 111.702C220.593 111.566 220.814 111.368 220.987 111.109C221.164 110.845 221.28 110.53 221.334 110.161H224.075C224.03 110.961 223.812 111.666 223.421 112.275C223.034 112.88 222.5 113.352 221.818 113.693C221.137 114.034 220.33 114.205 219.398 114.205ZM228.839 107.945V114H225.935V100.036H228.758V105.375H228.88C229.117 104.757 229.499 104.273 230.026 103.923C230.553 103.568 231.214 103.391 232.01 103.391C232.737 103.391 233.371 103.55 233.912 103.868C234.458 104.182 234.88 104.634 235.18 105.225C235.485 105.811 235.635 106.514 235.63 107.332V114H232.726V107.85C232.73 107.205 232.567 106.702 232.235 106.343C231.908 105.984 231.449 105.805 230.858 105.805C230.462 105.805 230.112 105.889 229.808 106.057C229.508 106.225 229.271 106.47 229.099 106.793C228.93 107.111 228.844 107.495 228.839 107.945ZM237.916 114V103.527H240.821V114H237.916ZM239.375 102.177C238.943 102.177 238.573 102.034 238.264 101.748C237.959 101.457 237.807 101.109 237.807 100.705C237.807 100.305 237.959 99.9614 238.264 99.675C238.573 99.3841 238.943 99.2386 239.375 99.2386C239.807 99.2386 240.175 99.3841 240.48 99.675C240.789 99.9614 240.943 100.305 240.943 100.705C240.943 101.109 240.789 101.457 240.48 101.748C240.175 102.034 239.807 102.177 239.375 102.177ZM246.052 107.945V114H243.147V103.527H245.916V105.375H246.038C246.27 104.766 246.659 104.284 247.204 103.93C247.75 103.57 248.411 103.391 249.188 103.391C249.916 103.391 250.55 103.55 251.091 103.868C251.631 104.186 252.052 104.641 252.352 105.232C252.652 105.818 252.802 106.518 252.802 107.332V114H249.897V107.85C249.902 107.209 249.738 106.709 249.406 106.35C249.075 105.986 248.618 105.805 248.036 105.805C247.645 105.805 247.3 105.889 247 106.057C246.704 106.225 246.472 106.47 246.304 106.793C246.141 107.111 246.056 107.495 246.052 107.945ZM259.864 114.205C258.787 114.205 257.859 113.986 257.082 113.55C256.309 113.109 255.714 112.486 255.296 111.682C254.877 110.873 254.668 109.916 254.668 108.811C254.668 107.734 254.877 106.789 255.296 105.975C255.714 105.161 256.302 104.527 257.062 104.073C257.825 103.618 258.721 103.391 259.748 103.391C260.439 103.391 261.082 103.502 261.677 103.725C262.277 103.943 262.8 104.273 263.246 104.714C263.696 105.155 264.046 105.709 264.296 106.377C264.546 107.041 264.671 107.818 264.671 108.709V109.507H255.827V107.707H261.937C261.937 107.289 261.846 106.918 261.664 106.595C261.482 106.273 261.23 106.02 260.907 105.839C260.589 105.652 260.218 105.559 259.796 105.559C259.355 105.559 258.964 105.661 258.623 105.866C258.287 106.066 258.023 106.336 257.832 106.677C257.641 107.014 257.543 107.389 257.539 107.802V109.514C257.539 110.032 257.634 110.48 257.825 110.857C258.021 111.234 258.296 111.525 258.65 111.73C259.005 111.934 259.425 112.036 259.912 112.036C260.234 112.036 260.53 111.991 260.798 111.9C261.066 111.809 261.296 111.673 261.487 111.491C261.677 111.309 261.823 111.086 261.923 110.823L264.609 111C264.473 111.645 264.193 112.209 263.771 112.691C263.352 113.168 262.812 113.541 262.148 113.809C261.489 114.073 260.727 114.205 259.864 114.205ZM271.064 114V100.036H274.017V111.566H280.003V114H271.064ZM286.676 114.205C285.599 114.205 284.672 113.986 283.895 113.55C283.122 113.109 282.526 112.486 282.108 111.682C281.69 110.873 281.481 109.916 281.481 108.811C281.481 107.734 281.69 106.789 282.108 105.975C282.526 105.161 283.115 104.527 283.874 104.073C284.638 103.618 285.533 103.391 286.56 103.391C287.251 103.391 287.895 103.502 288.49 103.725C289.09 103.943 289.613 104.273 290.058 104.714C290.508 105.155 290.858 105.709 291.108 106.377C291.358 107.041 291.483 107.818 291.483 108.709V109.507H282.64V107.707H288.749C288.749 107.289 288.658 106.918 288.476 106.595C288.295 106.273 288.042 106.02 287.72 105.839C287.401 105.652 287.031 105.559 286.608 105.559C286.167 105.559 285.776 105.661 285.435 105.866C285.099 106.066 284.835 106.336 284.645 106.677C284.454 107.014 284.356 107.389 284.351 107.802V109.514C284.351 110.032 284.447 110.48 284.638 110.857C284.833 111.234 285.108 111.525 285.463 111.73C285.817 111.934 286.238 112.036 286.724 112.036C287.047 112.036 287.342 111.991 287.61 111.9C287.879 111.809 288.108 111.673 288.299 111.491C288.49 111.309 288.635 111.086 288.735 110.823L291.422 111C291.285 111.645 291.006 112.209 290.583 112.691C290.165 113.168 289.624 113.541 288.96 113.809C288.301 114.073 287.54 114.205 286.676 114.205ZM296.365 114.198C295.697 114.198 295.101 114.082 294.579 113.85C294.056 113.614 293.642 113.266 293.338 112.807C293.038 112.343 292.888 111.766 292.888 111.075C292.888 110.493 292.995 110.005 293.208 109.609C293.422 109.214 293.713 108.895 294.081 108.655C294.449 108.414 294.867 108.232 295.335 108.109C295.808 107.986 296.304 107.9 296.822 107.85C297.431 107.786 297.922 107.727 298.295 107.673C298.667 107.614 298.938 107.527 299.106 107.414C299.274 107.3 299.358 107.132 299.358 106.909V106.868C299.358 106.436 299.222 106.102 298.949 105.866C298.681 105.63 298.299 105.511 297.804 105.511C297.281 105.511 296.865 105.627 296.556 105.859C296.247 106.086 296.042 106.373 295.942 106.718L293.256 106.5C293.392 105.864 293.66 105.314 294.06 104.85C294.46 104.382 294.976 104.023 295.608 103.773C296.245 103.518 296.981 103.391 297.817 103.391C298.399 103.391 298.956 103.459 299.488 103.595C300.024 103.732 300.499 103.943 300.913 104.23C301.331 104.516 301.66 104.884 301.901 105.334C302.142 105.78 302.263 106.314 302.263 106.936V114H299.508V112.548H299.426C299.258 112.875 299.033 113.164 298.751 113.414C298.47 113.659 298.131 113.852 297.735 113.993C297.34 114.13 296.883 114.198 296.365 114.198ZM297.197 112.193C297.624 112.193 298.001 112.109 298.329 111.941C298.656 111.768 298.913 111.536 299.099 111.245C299.285 110.955 299.379 110.625 299.379 110.257V109.145C299.288 109.205 299.163 109.259 299.004 109.309C298.849 109.355 298.674 109.398 298.479 109.439C298.283 109.475 298.088 109.509 297.892 109.541C297.697 109.568 297.52 109.593 297.36 109.616C297.02 109.666 296.722 109.745 296.467 109.855C296.213 109.964 296.015 110.111 295.874 110.298C295.733 110.48 295.663 110.707 295.663 110.98C295.663 111.375 295.806 111.677 296.092 111.886C296.383 112.091 296.751 112.193 297.197 112.193ZM304.516 114V103.527H307.332V105.355H307.441C307.632 104.705 307.952 104.214 308.402 103.882C308.852 103.545 309.371 103.377 309.957 103.377C310.102 103.377 310.259 103.386 310.427 103.405C310.596 103.423 310.743 103.448 310.871 103.48V106.057C310.734 106.016 310.546 105.98 310.305 105.948C310.064 105.916 309.843 105.9 309.643 105.9C309.216 105.9 308.834 105.993 308.498 106.18C308.166 106.361 307.902 106.616 307.707 106.943C307.516 107.27 307.421 107.648 307.421 108.075V114H304.516ZM315.277 107.945V114H312.372V103.527H315.141V105.375H315.263C315.495 104.766 315.884 104.284 316.429 103.93C316.975 103.57 317.636 103.391 318.413 103.391C319.141 103.391 319.775 103.55 320.316 103.868C320.856 104.186 321.277 104.641 321.577 105.232C321.877 105.818 322.027 106.518 322.027 107.332V114H319.122V107.85C319.127 107.209 318.963 106.709 318.631 106.35C318.3 105.986 317.843 105.805 317.261 105.805C316.87 105.805 316.525 105.889 316.225 106.057C315.929 106.225 315.697 106.47 315.529 106.793C315.366 107.111 315.281 107.495 315.277 107.945ZM324.316 114V103.527H327.221V114H324.316ZM325.775 102.177C325.343 102.177 324.973 102.034 324.664 101.748C324.359 101.457 324.207 101.109 324.207 100.705C324.207 100.305 324.359 99.9614 324.664 99.675C324.973 99.3841 325.343 99.2386 325.775 99.2386C326.207 99.2386 326.575 99.3841 326.88 99.675C327.189 99.9614 327.343 100.305 327.343 100.705C327.343 101.109 327.189 101.457 326.88 101.748C326.575 102.034 326.207 102.177 325.775 102.177ZM332.452 107.945V114H329.547V103.527H332.316V105.375H332.438C332.67 104.766 333.059 104.284 333.604 103.93C334.15 103.57 334.811 103.391 335.588 103.391C336.316 103.391 336.95 103.55 337.491 103.868C338.031 104.186 338.452 104.641 338.752 105.232C339.052 105.818 339.202 106.518 339.202 107.332V114H336.297V107.85C336.302 107.209 336.138 106.709 335.806 106.35C335.475 105.986 335.018 105.805 334.436 105.805C334.045 105.805 333.7 105.889 333.4 106.057C333.104 106.225 332.872 106.47 332.704 106.793C332.541 107.111 332.456 107.495 332.452 107.945ZM346.209 118.145C345.268 118.145 344.462 118.016 343.789 117.757C343.121 117.502 342.589 117.155 342.193 116.714C341.798 116.273 341.541 115.777 341.423 115.227L344.109 114.866C344.191 115.075 344.321 115.27 344.498 115.452C344.675 115.634 344.909 115.78 345.2 115.889C345.496 116.002 345.855 116.059 346.277 116.059C346.909 116.059 347.43 115.905 347.839 115.595C348.252 115.291 348.459 114.78 348.459 114.061V112.145H348.337C348.209 112.436 348.018 112.711 347.764 112.97C347.509 113.23 347.182 113.441 346.782 113.605C346.382 113.768 345.905 113.85 345.35 113.85C344.564 113.85 343.848 113.668 343.202 113.305C342.562 112.936 342.05 112.375 341.668 111.62C341.291 110.861 341.102 109.902 341.102 108.743C341.102 107.557 341.296 106.566 341.682 105.77C342.068 104.975 342.582 104.38 343.223 103.984C343.868 103.589 344.575 103.391 345.343 103.391C345.93 103.391 346.421 103.491 346.816 103.691C347.212 103.886 347.53 104.132 347.771 104.427C348.016 104.718 348.205 105.005 348.337 105.286H348.446V103.527H351.33V114.102C351.33 114.993 351.112 115.739 350.675 116.339C350.239 116.939 349.634 117.389 348.862 117.689C348.093 117.993 347.209 118.145 346.209 118.145ZM346.271 111.668C346.739 111.668 347.134 111.552 347.457 111.32C347.784 111.084 348.034 110.748 348.207 110.311C348.384 109.87 348.473 109.343 348.473 108.73C348.473 108.116 348.387 107.584 348.214 107.134C348.041 106.68 347.791 106.327 347.464 106.077C347.137 105.827 346.739 105.702 346.271 105.702C345.793 105.702 345.391 105.832 345.064 106.091C344.737 106.345 344.489 106.7 344.321 107.155C344.152 107.609 344.068 108.134 344.068 108.73C344.068 109.334 344.152 109.857 344.321 110.298C344.493 110.734 344.741 111.073 345.064 111.314C345.391 111.55 345.793 111.668 346.271 111.668ZM358.085 117.927V103.527H360.949V105.286H361.078C361.205 105.005 361.389 104.718 361.63 104.427C361.876 104.132 362.194 103.886 362.585 103.691C362.98 103.491 363.471 103.391 364.058 103.391C364.821 103.391 365.526 103.591 366.171 103.991C366.817 104.386 367.333 104.984 367.719 105.784C368.105 106.58 368.299 107.577 368.299 108.777C368.299 109.945 368.11 110.932 367.733 111.736C367.36 112.536 366.851 113.143 366.205 113.557C365.564 113.966 364.846 114.17 364.051 114.17C363.487 114.17 363.008 114.077 362.612 113.891C362.221 113.705 361.901 113.47 361.651 113.189C361.401 112.902 361.21 112.614 361.078 112.323H360.989V117.927H358.085ZM360.928 108.764C360.928 109.386 361.014 109.93 361.187 110.393C361.36 110.857 361.61 111.218 361.937 111.477C362.264 111.732 362.662 111.859 363.13 111.859C363.603 111.859 364.003 111.73 364.33 111.47C364.658 111.207 364.905 110.843 365.074 110.38C365.246 109.911 365.333 109.373 365.333 108.764C365.333 108.159 365.249 107.627 365.08 107.168C364.912 106.709 364.664 106.35 364.337 106.091C364.01 105.832 363.608 105.702 363.13 105.702C362.658 105.702 362.258 105.827 361.93 106.077C361.608 106.327 361.36 106.682 361.187 107.141C361.014 107.6 360.928 108.141 360.928 108.764ZM375.008 114.205C373.93 114.205 373.003 113.986 372.226 113.55C371.453 113.109 370.858 112.486 370.439 111.682C370.021 110.873 369.812 109.916 369.812 108.811C369.812 107.734 370.021 106.789 370.439 105.975C370.858 105.161 371.446 104.527 372.205 104.073C372.969 103.618 373.864 103.391 374.892 103.391C375.583 103.391 376.226 103.502 376.821 103.725C377.421 103.943 377.944 104.273 378.389 104.714C378.839 105.155 379.189 105.709 379.439 106.377C379.689 107.041 379.814 107.818 379.814 108.709V109.507H370.971V107.707H377.08C377.08 107.289 376.989 106.918 376.808 106.595C376.626 106.273 376.374 106.02 376.051 105.839C375.733 105.652 375.362 105.559 374.939 105.559C374.499 105.559 374.108 105.661 373.767 105.866C373.43 106.066 373.167 106.336 372.976 106.677C372.785 107.014 372.687 107.389 372.683 107.802V109.514C372.683 110.032 372.778 110.48 372.969 110.857C373.164 111.234 373.439 111.525 373.794 111.73C374.149 111.934 374.569 112.036 375.055 112.036C375.378 112.036 375.674 111.991 375.942 111.9C376.21 111.809 376.439 111.673 376.63 111.491C376.821 111.309 376.967 111.086 377.067 110.823L379.753 111C379.617 111.645 379.337 112.209 378.914 112.691C378.496 113.168 377.955 113.541 377.292 113.809C376.633 114.073 375.871 114.205 375.008 114.205ZM381.71 114V103.527H384.526V105.355H384.635C384.826 104.705 385.146 104.214 385.596 103.882C386.046 103.545 386.564 103.377 387.151 103.377C387.296 103.377 387.453 103.386 387.621 103.405C387.789 103.423 387.937 103.448 388.064 103.48V106.057C387.928 106.016 387.739 105.98 387.499 105.948C387.258 105.916 387.037 105.9 386.837 105.9C386.41 105.9 386.028 105.993 385.692 106.18C385.36 106.361 385.096 106.616 384.901 106.943C384.71 107.27 384.614 107.648 384.614 108.075V114H381.71ZM392.938 114.17C392.142 114.17 391.422 113.966 390.776 113.557C390.135 113.143 389.626 112.536 389.249 111.736C388.876 110.932 388.69 109.945 388.69 108.777C388.69 107.577 388.883 106.58 389.27 105.784C389.656 104.984 390.17 104.386 390.81 103.991C391.456 103.591 392.163 103.391 392.931 103.391C393.517 103.391 394.006 103.491 394.397 103.691C394.792 103.886 395.11 104.132 395.351 104.427C395.597 104.718 395.783 105.005 395.91 105.286H395.999V100.036H398.897V114H396.033V112.323H395.91C395.774 112.614 395.581 112.902 395.331 113.189C395.085 113.47 394.765 113.705 394.37 113.891C393.979 114.077 393.501 114.17 392.938 114.17ZM393.858 111.859C394.326 111.859 394.722 111.732 395.045 111.477C395.372 111.218 395.622 110.857 395.795 110.393C395.972 109.93 396.06 109.386 396.06 108.764C396.06 108.141 395.974 107.6 395.801 107.141C395.629 106.682 395.379 106.327 395.051 106.077C394.724 105.827 394.326 105.702 393.858 105.702C393.381 105.702 392.979 105.832 392.651 106.091C392.324 106.35 392.076 106.709 391.908 107.168C391.74 107.627 391.656 108.159 391.656 108.764C391.656 109.373 391.74 109.911 391.908 110.38C392.081 110.843 392.329 111.207 392.651 111.47C392.979 111.73 393.381 111.859 393.858 111.859ZM401.285 114V103.527H404.189V114H401.285ZM402.744 102.177C402.312 102.177 401.942 102.034 401.633 101.748C401.328 101.457 401.176 101.109 401.176 100.705C401.176 100.305 401.328 99.9614 401.633 99.675C401.942 99.3841 402.312 99.2386 402.744 99.2386C403.176 99.2386 403.544 99.3841 403.849 99.675C404.158 99.9614 404.312 100.305 404.312 100.705C404.312 101.109 404.158 101.457 403.849 101.748C403.544 102.034 403.176 102.177 402.744 102.177ZM411.248 114.205C410.175 114.205 409.252 113.977 408.48 113.523C407.712 113.064 407.121 112.427 406.707 111.614C406.298 110.8 406.093 109.864 406.093 108.805C406.093 107.732 406.3 106.791 406.714 105.982C407.132 105.168 407.725 104.534 408.493 104.08C409.262 103.62 410.175 103.391 411.234 103.391C412.148 103.391 412.948 103.557 413.634 103.889C414.321 104.22 414.864 104.686 415.264 105.286C415.664 105.886 415.884 106.591 415.925 107.4H413.184C413.107 106.877 412.902 106.457 412.571 106.139C412.243 105.816 411.814 105.655 411.282 105.655C410.832 105.655 410.439 105.777 410.102 106.023C409.771 106.264 409.512 106.616 409.325 107.08C409.139 107.543 409.046 108.105 409.046 108.764C409.046 109.432 409.137 110 409.318 110.468C409.505 110.936 409.766 111.293 410.102 111.539C410.439 111.784 410.832 111.907 411.282 111.907C411.614 111.907 411.912 111.839 412.175 111.702C412.443 111.566 412.664 111.368 412.837 111.109C413.014 110.845 413.13 110.53 413.184 110.161H415.925C415.88 110.961 415.662 111.666 415.271 112.275C414.884 112.88 414.35 113.352 413.668 113.693C412.987 114.034 412.18 114.205 411.248 114.205ZM423.355 103.527V105.709H417.049V103.527H423.355ZM418.48 101.018H421.385V110.782C421.385 111.05 421.426 111.259 421.508 111.409C421.589 111.555 421.703 111.657 421.849 111.716C421.999 111.775 422.171 111.805 422.367 111.805C422.503 111.805 422.639 111.793 422.776 111.77C422.912 111.743 423.017 111.723 423.089 111.709L423.546 113.87C423.401 113.916 423.196 113.968 422.933 114.027C422.669 114.091 422.349 114.13 421.971 114.143C421.271 114.17 420.658 114.077 420.13 113.864C419.608 113.65 419.201 113.318 418.91 112.868C418.619 112.418 418.476 111.85 418.48 111.164V101.018ZM425.247 114V103.527H428.152V114H425.247ZM426.706 102.177C426.275 102.177 425.904 102.034 425.595 101.748C425.291 101.457 425.138 101.109 425.138 100.705C425.138 100.305 425.291 99.9614 425.595 99.675C425.904 99.3841 426.275 99.2386 426.706 99.2386C427.138 99.2386 427.506 99.3841 427.811 99.675C428.12 99.9614 428.275 100.305 428.275 100.705C428.275 101.109 428.12 101.457 427.811 101.748C427.506 102.034 427.138 102.177 426.706 102.177ZM435.21 114.205C434.151 114.205 433.235 113.98 432.463 113.53C431.695 113.075 431.101 112.443 430.683 111.634C430.265 110.82 430.056 109.877 430.056 108.805C430.056 107.723 430.265 106.777 430.683 105.968C431.101 105.155 431.695 104.523 432.463 104.073C433.235 103.618 434.151 103.391 435.21 103.391C436.27 103.391 437.183 103.618 437.951 104.073C438.724 104.523 439.32 105.155 439.738 105.968C440.156 106.777 440.365 107.723 440.365 108.805C440.365 109.877 440.156 110.82 439.738 111.634C439.32 112.443 438.724 113.075 437.951 113.53C437.183 113.98 436.27 114.205 435.21 114.205ZM435.224 111.955C435.706 111.955 436.108 111.818 436.431 111.545C436.754 111.268 436.997 110.891 437.16 110.414C437.329 109.936 437.413 109.393 437.413 108.784C437.413 108.175 437.329 107.632 437.16 107.155C436.997 106.677 436.754 106.3 436.431 106.023C436.108 105.745 435.706 105.607 435.224 105.607C434.738 105.607 434.329 105.745 433.997 106.023C433.67 106.3 433.422 106.677 433.254 107.155C433.09 107.632 433.008 108.175 433.008 108.784C433.008 109.393 433.09 109.936 433.254 110.414C433.422 110.891 433.67 111.268 433.997 111.545C434.329 111.818 434.738 111.955 435.224 111.955ZM445.158 107.945V114H442.254V103.527H445.022V105.375H445.145C445.376 104.766 445.765 104.284 446.31 103.93C446.856 103.57 447.517 103.391 448.295 103.391C449.022 103.391 449.656 103.55 450.197 103.868C450.738 104.186 451.158 104.641 451.458 105.232C451.758 105.818 451.908 106.518 451.908 107.332V114H449.004V107.85C449.008 107.209 448.845 106.709 448.513 106.35C448.181 105.986 447.724 105.805 447.142 105.805C446.751 105.805 446.406 105.889 446.106 106.057C445.81 106.225 445.579 106.47 445.41 106.793C445.247 107.111 445.163 107.495 445.158 107.945ZM458.641 114V103.527H461.409V105.375H461.532C461.75 104.761 462.114 104.277 462.623 103.923C463.132 103.568 463.741 103.391 464.45 103.391C465.168 103.391 465.78 103.57 466.284 103.93C466.789 104.284 467.125 104.766 467.293 105.375H467.403C467.616 104.775 468.003 104.295 468.562 103.936C469.125 103.573 469.791 103.391 470.559 103.391C471.537 103.391 472.33 103.702 472.939 104.325C473.553 104.943 473.859 105.82 473.859 106.957V114H470.962V107.53C470.962 106.948 470.807 106.511 470.498 106.22C470.189 105.93 469.803 105.784 469.339 105.784C468.812 105.784 468.4 105.952 468.105 106.289C467.809 106.62 467.662 107.059 467.662 107.605V114H464.846V107.468C464.846 106.955 464.698 106.545 464.403 106.241C464.112 105.936 463.728 105.784 463.25 105.784C462.928 105.784 462.637 105.866 462.378 106.03C462.123 106.189 461.921 106.414 461.771 106.705C461.621 106.991 461.546 107.327 461.546 107.714V114H458.641ZM480.885 114.205C479.826 114.205 478.91 113.98 478.138 113.53C477.37 113.075 476.776 112.443 476.358 111.634C475.94 110.82 475.731 109.877 475.731 108.805C475.731 107.723 475.94 106.777 476.358 105.968C476.776 105.155 477.37 104.523 478.138 104.073C478.91 103.618 479.826 103.391 480.885 103.391C481.945 103.391 482.858 103.618 483.626 104.073C484.399 104.523 484.995 105.155 485.413 105.968C485.831 106.777 486.04 107.723 486.04 108.805C486.04 109.877 485.831 110.82 485.413 111.634C484.995 112.443 484.399 113.075 483.626 113.53C482.858 113.98 481.945 114.205 480.885 114.205ZM480.899 111.955C481.381 111.955 481.783 111.818 482.106 111.545C482.429 111.268 482.672 110.891 482.835 110.414C483.004 109.936 483.088 109.393 483.088 108.784C483.088 108.175 483.004 107.632 482.835 107.155C482.672 106.677 482.429 106.3 482.106 106.023C481.783 105.745 481.381 105.607 480.899 105.607C480.413 105.607 480.004 105.745 479.672 106.023C479.345 106.3 479.097 106.677 478.929 107.155C478.765 107.632 478.683 108.175 478.683 108.784C478.683 109.393 478.765 109.936 478.929 110.414C479.097 110.891 479.345 111.268 479.672 111.545C480.004 111.818 480.413 111.955 480.899 111.955ZM491.788 114.17C490.992 114.17 490.272 113.966 489.626 113.557C488.985 113.143 488.476 112.536 488.099 111.736C487.726 110.932 487.54 109.945 487.54 108.777C487.54 107.577 487.733 106.58 488.12 105.784C488.506 104.984 489.02 104.386 489.66 103.991C490.306 103.591 491.013 103.391 491.781 103.391C492.367 103.391 492.856 103.491 493.247 103.691C493.642 103.886 493.96 104.132 494.201 104.427C494.447 104.718 494.633 105.005 494.76 105.286H494.849V100.036H497.747V114H494.883V112.323H494.76C494.624 112.614 494.431 112.902 494.181 113.189C493.935 113.47 493.615 113.705 493.22 113.891C492.829 114.077 492.351 114.17 491.788 114.17ZM492.708 111.859C493.176 111.859 493.572 111.732 493.895 111.477C494.222 111.218 494.472 110.857 494.645 110.393C494.822 109.93 494.91 109.386 494.91 108.764C494.91 108.141 494.824 107.6 494.651 107.141C494.479 106.682 494.229 106.327 493.901 106.077C493.574 105.827 493.176 105.702 492.708 105.702C492.231 105.702 491.829 105.832 491.501 106.091C491.174 106.35 490.926 106.709 490.758 107.168C490.59 107.627 490.506 108.159 490.506 108.764C490.506 109.373 490.59 109.911 490.758 110.38C490.931 110.843 491.179 111.207 491.501 111.47C491.829 111.73 492.231 111.859 492.708 111.859ZM504.908 114.205C503.83 114.205 502.903 113.986 502.126 113.55C501.353 113.109 500.758 112.486 500.339 111.682C499.921 110.873 499.712 109.916 499.712 108.811C499.712 107.734 499.921 106.789 500.339 105.975C500.758 105.161 501.346 104.527 502.105 104.073C502.869 103.618 503.764 103.391 504.792 103.391C505.483 103.391 506.126 103.502 506.721 103.725C507.321 103.943 507.844 104.273 508.289 104.714C508.739 105.155 509.089 105.709 509.339 106.377C509.589 107.041 509.714 107.818 509.714 108.709V109.507H500.871V107.707H506.98C506.98 107.289 506.889 106.918 506.708 106.595C506.526 106.273 506.274 106.02 505.951 105.839C505.633 105.652 505.262 105.559 504.839 105.559C504.399 105.559 504.008 105.661 503.667 105.866C503.33 106.066 503.067 106.336 502.876 106.677C502.685 107.014 502.587 107.389 502.583 107.802V109.514C502.583 110.032 502.678 110.48 502.869 110.857C503.064 111.234 503.339 111.525 503.694 111.73C504.049 111.934 504.469 112.036 504.955 112.036C505.278 112.036 505.574 111.991 505.842 111.9C506.11 111.809 506.339 111.673 506.53 111.491C506.721 111.309 506.867 111.086 506.967 110.823L509.653 111C509.517 111.645 509.237 112.209 508.814 112.691C508.396 113.168 507.855 113.541 507.192 113.809C506.533 114.073 505.771 114.205 504.908 114.205ZM514.514 100.036V114H511.61V100.036H514.514Z" fill="#092AD0"/>
<circle cx="104.799" cy="105.6" r="64" fill="#C4C4C4"/>
<rect x="75.998" y="113.6" width="57.6" height="32" rx="8" fill="white"/>
<circle cx="103.998" cy="87.2002" r="20" fill="white"/>
<rect x="869.6" y="130.4" width="160" height="48" rx="24" fill="#356DEE"/>
<path d="M916.891 150.691L919.141 157.764H919.228L921.482 150.691H923.664L920.455 160H917.919L914.705 150.691H916.891ZM924.748 160V153.018H926.684V160H924.748ZM925.721 152.118C925.433 152.118 925.186 152.023 924.98 151.832C924.777 151.638 924.675 151.406 924.675 151.136C924.675 150.87 924.777 150.641 924.98 150.45C925.186 150.256 925.433 150.159 925.721 150.159C926.009 150.159 926.254 150.256 926.457 150.45C926.663 150.641 926.766 150.87 926.766 151.136C926.766 151.406 926.663 151.638 926.457 151.832C926.254 152.023 926.009 152.118 925.721 152.118ZM931.417 160.136C930.699 160.136 930.081 159.991 929.563 159.7C929.048 159.406 928.651 158.991 928.372 158.455C928.093 157.915 927.954 157.277 927.954 156.541C927.954 155.823 928.093 155.192 928.372 154.65C928.651 154.108 929.043 153.685 929.549 153.382C930.058 153.079 930.655 152.927 931.34 152.927C931.801 152.927 932.23 153.002 932.627 153.15C933.027 153.295 933.375 153.515 933.672 153.809C933.972 154.103 934.205 154.473 934.372 154.918C934.539 155.361 934.622 155.879 934.622 156.473V157.005H928.727V155.805H932.799C932.799 155.526 932.739 155.279 932.617 155.064C932.496 154.848 932.328 154.68 932.113 154.559C931.901 154.435 931.654 154.373 931.372 154.373C931.078 154.373 930.817 154.441 930.59 154.577C930.366 154.711 930.19 154.891 930.063 155.118C929.936 155.342 929.87 155.592 929.867 155.868V157.009C929.867 157.355 929.931 157.653 930.058 157.905C930.189 158.156 930.372 158.35 930.608 158.486C930.845 158.623 931.125 158.691 931.449 158.691C931.664 158.691 931.861 158.661 932.04 158.6C932.219 158.539 932.372 158.448 932.499 158.327C932.627 158.206 932.723 158.058 932.79 157.882L934.581 158C934.49 158.43 934.304 158.806 934.022 159.127C933.743 159.445 933.383 159.694 932.94 159.873C932.501 160.048 931.993 160.136 931.417 160.136ZM937.213 160L935.313 153.018H937.272L938.354 157.709H938.417L939.545 153.018H941.467L942.613 157.682H942.672L943.736 153.018H945.69L943.795 160H941.745L940.545 155.609H940.458L939.258 160H937.213ZM949.367 152.314V150.691H957.013V152.314H954.163V160H952.217V152.314H949.367ZM960.405 160.136C959.687 160.136 959.069 159.991 958.55 159.7C958.035 159.406 957.638 158.991 957.359 158.455C957.081 157.915 956.941 157.277 956.941 156.541C956.941 155.823 957.081 155.192 957.359 154.65C957.638 154.108 958.031 153.685 958.537 153.382C959.046 153.079 959.643 152.927 960.328 152.927C960.788 152.927 961.217 153.002 961.614 153.15C962.014 153.295 962.363 153.515 962.659 153.809C962.959 154.103 963.193 154.473 963.359 154.918C963.526 155.361 963.609 155.879 963.609 156.473V157.005H957.714V155.805H961.787C961.787 155.526 961.726 155.279 961.605 155.064C961.484 154.848 961.316 154.68 961.1 154.559C960.888 154.435 960.641 154.373 960.359 154.373C960.066 154.373 959.805 154.441 959.578 154.577C959.353 154.711 959.178 154.891 959.05 155.118C958.923 155.342 958.858 155.592 958.855 155.868V157.009C958.855 157.355 958.919 157.653 959.046 157.905C959.176 158.156 959.359 158.35 959.596 158.486C959.832 158.623 960.113 158.691 960.437 158.691C960.652 158.691 960.849 158.661 961.028 158.6C961.206 158.539 961.359 158.448 961.487 158.327C961.614 158.206 961.711 158.058 961.778 157.882L963.569 158C963.478 158.43 963.291 158.806 963.009 159.127C962.731 159.445 962.37 159.694 961.928 159.873C961.488 160.048 960.981 160.136 960.405 160.136ZM966.864 160.132C966.419 160.132 966.022 160.055 965.673 159.9C965.325 159.742 965.049 159.511 964.846 159.205C964.646 158.895 964.546 158.511 964.546 158.05C964.546 157.662 964.617 157.336 964.759 157.073C964.902 156.809 965.096 156.597 965.341 156.436C965.587 156.276 965.866 156.155 966.178 156.073C966.493 155.991 966.823 155.933 967.169 155.9C967.575 155.858 967.902 155.818 968.15 155.782C968.399 155.742 968.579 155.685 968.691 155.609C968.803 155.533 968.859 155.421 968.859 155.273V155.245C968.859 154.958 968.769 154.735 968.587 154.577C968.408 154.42 968.153 154.341 967.823 154.341C967.475 154.341 967.197 154.418 966.991 154.573C966.785 154.724 966.649 154.915 966.582 155.145L964.791 155C964.882 154.576 965.061 154.209 965.328 153.9C965.594 153.588 965.938 153.348 966.359 153.182C966.784 153.012 967.275 152.927 967.832 152.927C968.22 152.927 968.591 152.973 968.946 153.064C969.303 153.155 969.62 153.295 969.896 153.486C970.175 153.677 970.394 153.923 970.555 154.223C970.716 154.52 970.796 154.876 970.796 155.291V160H968.959V159.032H968.905C968.793 159.25 968.643 159.442 968.455 159.609C968.267 159.773 968.041 159.902 967.778 159.995C967.514 160.086 967.209 160.132 966.864 160.132ZM967.419 158.795C967.703 158.795 967.955 158.739 968.173 158.627C968.391 158.512 968.563 158.358 968.687 158.164C968.811 157.97 968.873 157.75 968.873 157.505V156.764C968.813 156.803 968.729 156.839 968.623 156.873C968.52 156.903 968.403 156.932 968.273 156.959C968.143 156.983 968.013 157.006 967.882 157.027C967.752 157.045 967.634 157.062 967.528 157.077C967.3 157.111 967.102 157.164 966.932 157.236C966.763 157.309 966.631 157.408 966.537 157.532C966.443 157.653 966.396 157.805 966.396 157.986C966.396 158.25 966.491 158.452 966.682 158.591C966.876 158.727 967.122 158.795 967.419 158.795ZM972.298 160V153.018H974.144V154.25H974.225C974.371 153.841 974.613 153.518 974.953 153.282C975.292 153.045 975.698 152.927 976.171 152.927C976.65 152.927 977.057 153.047 977.394 153.286C977.73 153.523 977.954 153.844 978.066 154.25H978.139C978.281 153.85 978.539 153.53 978.912 153.291C979.288 153.048 979.731 152.927 980.244 152.927C980.895 152.927 981.424 153.135 981.83 153.55C982.239 153.962 982.444 154.547 982.444 155.305V160H980.512V155.686C980.512 155.298 980.409 155.008 980.203 154.814C979.997 154.62 979.739 154.523 979.43 154.523C979.078 154.523 978.804 154.635 978.607 154.859C978.41 155.08 978.312 155.373 978.312 155.736V160H976.434V155.645C976.434 155.303 976.336 155.03 976.139 154.827C975.945 154.624 975.689 154.523 975.371 154.523C975.156 154.523 974.962 154.577 974.789 154.686C974.619 154.792 974.484 154.942 974.384 155.136C974.284 155.327 974.234 155.552 974.234 155.809V160H972.298Z" fill="white"/>
<rect x="185.199" y="129.2" width="47.2" height="19.2" rx="3.6" fill="#7EA1E4" stroke="#092AD0" stroke-width="0.8"/>
<path d="M193.623 141.8L194.769 134.818H195.86L194.714 141.8H193.623ZM190.497 140.068L190.678 138.977H196.133L195.952 140.068H190.497ZM191.169 141.8L192.314 134.818H193.405L192.26 141.8H191.169ZM190.896 137.641L191.08 136.55H196.535L196.351 137.641H190.896ZM200.665 141.8H199.083L201.493 134.818H203.396L205.802 141.8H204.221L202.472 136.413H202.417L200.665 141.8ZM200.566 139.055H204.302V140.208H200.566V139.055ZM208.119 134.818V141.8H206.643V134.818H208.119ZM212.347 134.491L210.097 142.85H208.846L211.096 134.491H212.347ZM213.074 134.818H214.894L216.817 139.509H216.899L218.822 134.818H220.642V141.8H219.21V137.255H219.152L217.346 141.766H216.371L214.564 137.238H214.506V141.8H213.074V134.818ZM221.858 141.8V134.818H223.335V140.583H226.328V141.8H221.858Z" fill="white"/>
<rect x="243.601" y="129.2" width="63.2" height="19.2" rx="3.6" fill="#7EA1E4" stroke="#092AD0" stroke-width="0.8"/>
<path d="M253.625 141.8L254.771 134.818H255.862L254.716 141.8H253.625ZM250.499 140.068L250.68 138.977H256.134L255.954 140.068H250.499ZM251.171 141.8L252.316 134.818H253.407L252.262 141.8H251.171ZM250.898 137.641L251.082 136.55H256.537L256.353 137.641H250.898ZM261.938 141.8H259.463V134.818H261.959C262.661 134.818 263.266 134.958 263.773 135.237C264.279 135.515 264.669 135.913 264.942 136.434C265.217 136.954 265.354 137.577 265.354 138.302C265.354 139.029 265.217 139.654 264.942 140.177C264.669 140.7 264.277 141.101 263.766 141.38C263.257 141.66 262.648 141.8 261.938 141.8ZM260.94 140.535H261.877C262.313 140.535 262.681 140.458 262.978 140.303C263.278 140.146 263.503 139.904 263.653 139.577C263.806 139.248 263.882 138.823 263.882 138.302C263.882 137.786 263.806 137.365 263.653 137.037C263.503 136.71 263.279 136.469 262.982 136.315C262.684 136.16 262.317 136.083 261.881 136.083H260.94V140.535ZM268.807 141.902C268.268 141.902 267.805 141.793 267.416 141.575C267.03 141.354 266.732 141.043 266.523 140.641C266.314 140.236 266.209 139.758 266.209 139.205C266.209 138.667 266.314 138.194 266.523 137.787C266.732 137.38 267.026 137.063 267.406 136.836C267.788 136.609 268.235 136.495 268.749 136.495C269.094 136.495 269.416 136.551 269.714 136.662C270.014 136.771 270.275 136.936 270.498 137.157C270.723 137.377 270.898 137.654 271.023 137.988C271.148 138.32 271.21 138.709 271.21 139.154V139.553H266.789V138.653H269.843C269.843 138.444 269.798 138.259 269.707 138.098C269.616 137.936 269.49 137.81 269.329 137.719C269.169 137.626 268.984 137.579 268.773 137.579C268.552 137.579 268.357 137.63 268.186 137.733C268.018 137.833 267.886 137.968 267.791 138.138C267.696 138.307 267.647 138.494 267.644 138.701V139.557C267.644 139.816 267.692 140.04 267.788 140.228C267.885 140.417 268.023 140.562 268.2 140.665C268.377 140.767 268.588 140.818 268.831 140.818C268.992 140.818 269.14 140.795 269.274 140.75C269.408 140.704 269.523 140.636 269.618 140.545C269.714 140.454 269.786 140.343 269.836 140.211L271.18 140.3C271.111 140.623 270.972 140.904 270.76 141.145C270.551 141.384 270.281 141.57 269.949 141.704C269.619 141.836 269.239 141.902 268.807 141.902ZM276.899 136.563L275.069 141.8H273.432L271.602 136.563H273.136L274.223 140.31H274.278L275.362 136.563H276.899ZM282.65 136.563V137.654H279.496V136.563H282.65ZM280.212 135.309H281.664V140.191C281.664 140.325 281.685 140.429 281.726 140.504C281.767 140.577 281.823 140.628 281.896 140.658C281.971 140.687 282.057 140.702 282.155 140.702C282.223 140.702 282.292 140.696 282.36 140.685C282.428 140.671 282.48 140.661 282.517 140.654L282.745 141.735C282.672 141.758 282.57 141.784 282.438 141.813C282.306 141.845 282.146 141.865 281.957 141.871C281.607 141.885 281.301 141.838 281.037 141.732C280.776 141.625 280.572 141.459 280.427 141.234C280.281 141.009 280.21 140.725 280.212 140.382V135.309ZM285.905 141.902C285.376 141.902 284.918 141.79 284.531 141.565C284.147 141.337 283.851 141.021 283.642 140.617C283.432 140.21 283.328 139.738 283.328 139.202C283.328 138.661 283.432 138.188 283.642 137.784C283.851 137.377 284.147 137.061 284.531 136.836C284.918 136.609 285.376 136.495 285.905 136.495C286.435 136.495 286.892 136.609 287.276 136.836C287.662 137.061 287.96 137.377 288.169 137.784C288.378 138.188 288.482 138.661 288.482 139.202C288.482 139.738 288.378 140.21 288.169 140.617C287.96 141.021 287.662 141.337 287.276 141.565C286.892 141.79 286.435 141.902 285.905 141.902ZM285.912 140.777C286.153 140.777 286.354 140.709 286.515 140.573C286.677 140.434 286.798 140.245 286.88 140.007C286.964 139.768 287.006 139.496 287.006 139.192C287.006 138.887 286.964 138.616 286.88 138.377C286.798 138.138 286.677 137.95 286.515 137.811C286.354 137.673 286.153 137.603 285.912 137.603C285.669 137.603 285.464 137.673 285.298 137.811C285.135 137.95 285.011 138.138 284.927 138.377C284.845 138.616 284.804 138.887 284.804 139.192C284.804 139.496 284.845 139.768 284.927 140.007C285.011 140.245 285.135 140.434 285.298 140.573C285.464 140.709 285.669 140.777 285.912 140.777ZM291.793 141.902C291.263 141.902 290.805 141.79 290.419 141.565C290.035 141.337 289.738 141.021 289.529 140.617C289.32 140.21 289.215 139.738 289.215 139.202C289.215 138.661 289.32 138.188 289.529 137.784C289.738 137.377 290.035 137.061 290.419 136.836C290.805 136.609 291.263 136.495 291.793 136.495C292.322 136.495 292.779 136.609 293.163 136.836C293.55 137.061 293.847 137.377 294.056 137.784C294.265 138.188 294.37 138.661 294.37 139.202C294.37 139.738 294.265 140.21 294.056 140.617C293.847 141.021 293.55 141.337 293.163 141.565C292.779 141.79 292.322 141.902 291.793 141.902ZM291.8 140.777C292.04 140.777 292.242 140.709 292.403 140.573C292.564 140.434 292.686 140.245 292.768 140.007C292.852 139.768 292.894 139.496 292.894 139.192C292.894 138.887 292.852 138.616 292.768 138.377C292.686 138.138 292.564 137.95 292.403 137.811C292.242 137.673 292.04 137.603 291.8 137.603C291.556 137.603 291.352 137.673 291.186 137.811C291.022 137.95 290.898 138.138 290.814 138.377C290.732 138.616 290.692 138.887 290.692 139.192C290.692 139.496 290.732 139.768 290.814 140.007C290.898 140.245 291.022 140.434 291.186 140.573C291.352 140.709 291.556 140.777 291.8 140.777ZM296.767 134.818V141.8H295.314V134.818H296.767Z" fill="white"/>
<rect x="318.8" y="129.2" width="63.2" height="19.2" rx="3.6" fill="#7EA1E4" stroke="#092AD0" stroke-width="0.8"/>
<path d="M328.827 141.8L329.972 134.818H331.063L329.917 141.8H328.827ZM325.7 140.068L325.881 138.977H331.336L331.155 140.068H325.7ZM326.372 141.8L327.517 134.818H328.608L327.463 141.8H326.372ZM326.099 137.641L326.283 136.55H331.738L331.554 137.641H326.099ZM336.236 141.8L334.238 134.818H335.851L337.007 139.669H337.065L338.34 134.818H339.72L340.992 139.679H341.053L342.209 134.818H343.821L341.824 141.8H340.385L339.056 137.235H339.001L337.675 141.8H336.236ZM346.408 141.902C345.869 141.902 345.406 141.793 345.017 141.575C344.631 141.354 344.333 141.043 344.124 140.641C343.915 140.236 343.81 139.758 343.81 139.205C343.81 138.667 343.915 138.194 344.124 137.787C344.333 137.38 344.627 137.063 345.007 136.836C345.389 136.609 345.837 136.495 346.35 136.495C346.696 136.495 347.017 136.551 347.315 136.662C347.615 136.771 347.876 136.936 348.099 137.157C348.324 137.377 348.499 137.654 348.624 137.988C348.749 138.32 348.812 138.709 348.812 139.154V139.553H344.39V138.653H347.444C347.444 138.444 347.399 138.259 347.308 138.098C347.217 137.936 347.091 137.81 346.93 137.719C346.771 137.626 346.585 137.579 346.374 137.579C346.154 137.579 345.958 137.63 345.788 137.733C345.619 137.833 345.488 137.968 345.392 138.138C345.297 138.307 345.248 138.494 345.246 138.701V139.557C345.246 139.816 345.293 140.04 345.389 140.228C345.487 140.417 345.624 140.562 345.801 140.665C345.979 140.767 346.189 140.818 346.432 140.818C346.593 140.818 346.741 140.795 346.875 140.75C347.009 140.704 347.124 140.636 347.219 140.545C347.315 140.454 347.388 140.343 347.438 140.211L348.781 140.3C348.713 140.623 348.573 140.904 348.362 141.145C348.152 141.384 347.882 141.57 347.55 141.704C347.221 141.836 346.84 141.902 346.408 141.902ZM349.787 141.8V134.818H351.239V137.443H351.283C351.347 137.302 351.439 137.159 351.559 137.013C351.682 136.866 351.841 136.743 352.037 136.645C352.234 136.545 352.48 136.495 352.773 136.495C353.155 136.495 353.507 136.595 353.83 136.795C354.152 136.993 354.41 137.292 354.604 137.692C354.797 138.09 354.893 138.588 354.893 139.188C354.893 139.773 354.799 140.266 354.61 140.668C354.424 141.068 354.169 141.371 353.847 141.578C353.526 141.783 353.167 141.885 352.769 141.885C352.488 141.885 352.248 141.838 352.05 141.745C351.855 141.652 351.694 141.535 351.569 141.394C351.444 141.251 351.349 141.107 351.283 140.961H351.218V141.8H349.787ZM351.208 139.182C351.208 139.493 351.251 139.765 351.338 139.996C351.424 140.228 351.549 140.409 351.713 140.538C351.876 140.666 352.075 140.729 352.309 140.729C352.546 140.729 352.746 140.665 352.909 140.535C353.073 140.403 353.197 140.221 353.281 139.99C353.367 139.755 353.41 139.486 353.41 139.182C353.41 138.879 353.368 138.613 353.284 138.384C353.2 138.154 353.076 137.975 352.913 137.845C352.749 137.716 352.548 137.651 352.309 137.651C352.073 137.651 351.873 137.713 351.709 137.838C351.548 137.963 351.424 138.141 351.338 138.37C351.251 138.6 351.208 138.87 351.208 139.182ZM359.577 141.899C359.243 141.899 358.946 141.841 358.684 141.725C358.423 141.607 358.216 141.433 358.064 141.203C357.914 140.971 357.839 140.683 357.839 140.337C357.839 140.046 357.892 139.802 357.999 139.604C358.106 139.407 358.251 139.248 358.435 139.127C358.619 139.007 358.829 138.916 359.063 138.854C359.299 138.793 359.547 138.75 359.806 138.725C360.11 138.693 360.356 138.663 360.542 138.636C360.729 138.607 360.864 138.563 360.948 138.507C361.032 138.45 361.074 138.366 361.074 138.254V138.234C361.074 138.018 361.006 137.851 360.869 137.733C360.735 137.615 360.544 137.555 360.297 137.555C360.035 137.555 359.827 137.613 359.673 137.729C359.518 137.843 359.416 137.986 359.366 138.159L358.023 138.05C358.091 137.732 358.225 137.457 358.425 137.225C358.625 136.991 358.883 136.811 359.199 136.686C359.517 136.559 359.885 136.495 360.304 136.495C360.594 136.495 360.873 136.529 361.139 136.598C361.407 136.666 361.644 136.771 361.851 136.915C362.06 137.058 362.225 137.242 362.346 137.467C362.466 137.69 362.526 137.957 362.526 138.268V141.8H361.149V141.074H361.108C361.024 141.237 360.912 141.382 360.771 141.507C360.63 141.629 360.46 141.726 360.263 141.796C360.065 141.865 359.837 141.899 359.577 141.899ZM359.993 140.896C360.207 140.896 360.396 140.854 360.559 140.77C360.723 140.684 360.851 140.568 360.944 140.423C361.038 140.277 361.084 140.112 361.084 139.928V139.373C361.039 139.402 360.976 139.429 360.897 139.454C360.819 139.477 360.732 139.499 360.634 139.519C360.537 139.537 360.439 139.554 360.341 139.57C360.243 139.584 360.155 139.596 360.075 139.608C359.905 139.633 359.756 139.673 359.629 139.727C359.501 139.782 359.402 139.855 359.332 139.949C359.262 140.04 359.226 140.153 359.226 140.29C359.226 140.487 359.298 140.638 359.441 140.743C359.587 140.845 359.771 140.896 359.993 140.896ZM363.653 143.763V136.563H365.085V137.443H365.15C365.213 137.302 365.305 137.159 365.426 137.013C365.548 136.866 365.708 136.743 365.903 136.645C366.101 136.545 366.346 136.495 366.639 136.495C367.021 136.495 367.373 136.595 367.696 136.795C368.019 136.993 368.277 137.292 368.47 137.692C368.663 138.09 368.76 138.588 368.76 139.188C368.76 139.773 368.665 140.266 368.477 140.668C368.29 141.068 368.036 141.371 367.713 141.578C367.393 141.783 367.034 141.885 366.636 141.885C366.354 141.885 366.114 141.838 365.917 141.745C365.721 141.652 365.561 141.535 365.436 141.394C365.311 141.251 365.215 141.107 365.15 140.961H365.105V143.763H363.653ZM365.075 139.182C365.075 139.493 365.118 139.765 365.204 139.996C365.29 140.228 365.415 140.409 365.579 140.538C365.743 140.666 365.942 140.729 366.176 140.729C366.412 140.729 366.612 140.665 366.776 140.535C366.939 140.403 367.063 140.221 367.147 139.99C367.234 139.755 367.277 139.486 367.277 139.182C367.277 138.879 367.235 138.613 367.151 138.384C367.067 138.154 366.943 137.975 366.779 137.845C366.615 137.716 366.414 137.651 366.176 137.651C365.939 137.651 365.739 137.713 365.576 137.838C365.414 137.963 365.29 138.141 365.204 138.37C365.118 138.6 365.075 138.87 365.075 139.182ZM369.728 143.763V136.563H371.16V137.443H371.225C371.288 137.302 371.38 137.159 371.501 137.013C371.623 136.866 371.783 136.743 371.978 136.645C372.176 136.545 372.421 136.495 372.714 136.495C373.096 136.495 373.448 136.595 373.771 136.795C374.094 136.993 374.352 137.292 374.545 137.692C374.738 138.09 374.835 138.588 374.835 139.188C374.835 139.773 374.74 140.266 374.552 140.668C374.365 141.068 374.111 141.371 373.788 141.578C373.468 141.783 373.109 141.885 372.711 141.885C372.429 141.885 372.189 141.838 371.992 141.745C371.796 141.652 371.636 141.535 371.511 141.394C371.386 141.251 371.29 141.107 371.225 140.961H371.18V143.763H369.728ZM371.15 139.182C371.15 139.493 371.193 139.765 371.279 139.996C371.365 140.228 371.49 140.409 371.654 140.538C371.818 140.666 372.017 140.729 372.251 140.729C372.487 140.729 372.687 140.665 372.851 140.535C373.014 140.403 373.138 140.221 373.222 139.99C373.309 139.755 373.352 139.486 373.352 139.182C373.352 138.879 373.31 138.613 373.226 138.384C373.142 138.154 373.018 137.975 372.854 137.845C372.69 137.716 372.489 137.651 372.251 137.651C372.014 137.651 371.814 137.713 371.651 137.838C371.489 137.963 371.365 138.141 371.279 138.37C371.193 138.6 371.15 138.87 371.15 139.182Z" fill="white"/>
<circle cx="646.686" cy="165.888" r="12.288" fill="#C4C4C4"/>
<rect x="641.156" y="167.424" width="11.0592" height="6.144" rx="1.536" fill="white"/>
<circle cx="646.531" cy="162.355" r="3.84" fill="white"/>
<path d="M666.87 171.111C666.276 171.111 665.747 171.009 665.283 170.805C664.822 170.598 664.457 170.314 664.19 169.953C663.924 169.59 663.788 169.171 663.78 168.697H665.514C665.525 168.896 665.59 169.071 665.709 169.222C665.831 169.37 665.993 169.485 666.194 169.568C666.396 169.65 666.622 169.691 666.874 169.691C667.137 169.691 667.369 169.645 667.57 169.552C667.772 169.459 667.93 169.33 668.044 169.166C668.158 169.002 668.215 168.812 668.215 168.597C668.215 168.38 668.154 168.188 668.032 168.021C667.912 167.851 667.74 167.718 667.515 167.623C667.292 167.527 667.027 167.48 666.719 167.48H665.959V166.215H666.719C666.979 166.215 667.208 166.17 667.407 166.08C667.609 165.989 667.765 165.865 667.876 165.706C667.988 165.544 668.044 165.356 668.044 165.141C668.044 164.937 667.994 164.758 667.896 164.604C667.801 164.448 667.666 164.326 667.491 164.238C667.318 164.151 667.117 164.107 666.886 164.107C666.653 164.107 666.439 164.149 666.246 164.234C666.052 164.316 665.897 164.434 665.78 164.588C665.664 164.742 665.601 164.922 665.594 165.129H663.943C663.951 164.66 664.085 164.246 664.345 163.888C664.605 163.53 664.955 163.25 665.395 163.049C665.837 162.845 666.337 162.743 666.894 162.743C667.456 162.743 667.948 162.845 668.37 163.049C668.791 163.253 669.119 163.529 669.352 163.876C669.588 164.221 669.705 164.608 669.702 165.038C669.705 165.494 669.563 165.874 669.276 166.179C668.993 166.484 668.623 166.678 668.167 166.76V166.823C668.766 166.9 669.222 167.108 669.535 167.448C669.851 167.785 670.007 168.206 670.004 168.713C670.007 169.177 669.873 169.589 669.603 169.95C669.335 170.31 668.965 170.594 668.493 170.801C668.021 171.007 667.48 171.111 666.87 171.111ZM673.882 162.854H676.006L678.249 168.327H678.345L680.588 162.854H682.712V171H681.041V165.698H680.974L678.866 170.96H677.728L675.62 165.678H675.553V171H673.882V162.854ZM686.883 171.119C686.254 171.119 685.714 170.992 685.26 170.737C684.809 170.48 684.462 170.117 684.218 169.647C683.974 169.175 683.852 168.617 683.852 167.973C683.852 167.344 683.974 166.793 684.218 166.318C684.462 165.844 684.805 165.474 685.248 165.209C685.694 164.943 686.216 164.811 686.815 164.811C687.218 164.811 687.593 164.876 687.941 165.006C688.291 165.133 688.596 165.325 688.856 165.582C689.118 165.84 689.322 166.163 689.468 166.553C689.614 166.94 689.687 167.393 689.687 167.913V168.378H684.528V167.328H688.092C688.092 167.085 688.039 166.868 687.933 166.68C687.827 166.492 687.68 166.345 687.491 166.239C687.306 166.13 687.09 166.076 686.843 166.076C686.586 166.076 686.358 166.135 686.159 166.255C685.963 166.371 685.809 166.529 685.698 166.728C685.586 166.924 685.529 167.143 685.527 167.384V168.382C685.527 168.685 685.582 168.946 685.694 169.166C685.808 169.386 685.968 169.556 686.175 169.675C686.382 169.794 686.627 169.854 686.911 169.854C687.099 169.854 687.271 169.828 687.428 169.775C687.584 169.721 687.718 169.642 687.829 169.536C687.941 169.43 688.026 169.3 688.084 169.146L689.651 169.25C689.572 169.626 689.408 169.955 689.162 170.236C688.918 170.514 688.602 170.732 688.215 170.888C687.831 171.042 687.387 171.119 686.883 171.119ZM690.793 171V164.89H692.407V165.968H692.479C692.606 165.61 692.818 165.328 693.115 165.121C693.412 164.914 693.768 164.811 694.181 164.811C694.6 164.811 694.957 164.916 695.251 165.125C695.545 165.332 695.742 165.613 695.84 165.968H695.903C696.028 165.618 696.253 165.339 696.579 165.129C696.908 164.917 697.297 164.811 697.745 164.811C698.315 164.811 698.778 164.993 699.133 165.356C699.491 165.716 699.67 166.228 699.67 166.891V171H697.979V167.225C697.979 166.886 697.889 166.631 697.709 166.461C697.529 166.292 697.303 166.207 697.033 166.207C696.725 166.207 696.485 166.305 696.313 166.501C696.141 166.695 696.054 166.951 696.054 167.269V171H694.412V167.189C694.412 166.89 694.326 166.651 694.153 166.473C693.984 166.296 693.76 166.207 693.481 166.207C693.293 166.207 693.123 166.255 692.972 166.35C692.824 166.443 692.706 166.574 692.618 166.744C692.531 166.911 692.487 167.107 692.487 167.332V171H690.793ZM701.04 171V162.854H702.734V165.917H702.786C702.86 165.752 702.968 165.585 703.108 165.415C703.251 165.243 703.437 165.1 703.665 164.986C703.896 164.869 704.182 164.811 704.524 164.811C704.97 164.811 705.381 164.928 705.757 165.161C706.134 165.392 706.434 165.74 706.66 166.207C706.885 166.671 706.998 167.253 706.998 167.953C706.998 168.634 706.888 169.21 706.668 169.679C706.45 170.146 706.153 170.5 705.777 170.741C705.403 170.98 704.984 171.099 704.52 171.099C704.191 171.099 703.912 171.045 703.681 170.936C703.453 170.827 703.266 170.691 703.12 170.526C702.974 170.359 702.863 170.191 702.786 170.021H702.71V171H701.04ZM702.699 167.945C702.699 168.308 702.749 168.625 702.85 168.896C702.95 169.166 703.096 169.377 703.287 169.528C703.478 169.676 703.71 169.751 703.983 169.751C704.259 169.751 704.492 169.675 704.683 169.524C704.874 169.37 705.019 169.158 705.117 168.888C705.217 168.614 705.268 168.3 705.268 167.945C705.268 167.592 705.219 167.282 705.121 167.014C705.023 166.746 704.878 166.537 704.687 166.386C704.496 166.235 704.262 166.159 703.983 166.159C703.707 166.159 703.474 166.232 703.283 166.378C703.095 166.524 702.95 166.731 702.85 166.998C702.749 167.266 702.699 167.582 702.699 167.945ZM710.913 171.119C710.284 171.119 709.743 170.992 709.29 170.737C708.839 170.48 708.492 170.117 708.248 169.647C708.004 169.175 707.882 168.617 707.882 167.973C707.882 167.344 708.004 166.793 708.248 166.318C708.492 165.844 708.835 165.474 709.278 165.209C709.723 164.943 710.246 164.811 710.845 164.811C711.248 164.811 711.623 164.876 711.971 165.006C712.321 165.133 712.625 165.325 712.885 165.582C713.148 165.84 713.352 166.163 713.498 166.553C713.644 166.94 713.717 167.393 713.717 167.913V168.378H708.558V167.328H712.122C712.122 167.085 712.069 166.868 711.963 166.68C711.857 166.492 711.709 166.345 711.521 166.239C711.335 166.13 711.119 166.076 710.873 166.076C710.616 166.076 710.388 166.135 710.189 166.255C709.992 166.371 709.839 166.529 709.727 166.728C709.616 166.924 709.559 167.143 709.556 167.384V168.382C709.556 168.685 709.612 168.946 709.723 169.166C709.837 169.386 709.998 169.556 710.205 169.675C710.411 169.794 710.657 169.854 710.94 169.854C711.129 169.854 711.301 169.828 711.457 169.775C711.614 169.721 711.748 169.642 711.859 169.536C711.971 169.43 712.055 169.3 712.114 169.146L713.681 169.25C713.601 169.626 713.438 169.955 713.192 170.236C712.948 170.514 712.632 170.732 712.245 170.888C711.86 171.042 711.416 171.119 710.913 171.119ZM714.822 171V164.89H716.465V165.956H716.528C716.64 165.577 716.827 165.291 717.089 165.097C717.352 164.901 717.654 164.803 717.996 164.803C718.081 164.803 718.172 164.808 718.271 164.819C718.369 164.829 718.455 164.844 718.529 164.863V166.366C718.45 166.342 718.339 166.321 718.199 166.302C718.058 166.284 717.93 166.275 717.813 166.275C717.564 166.275 717.341 166.329 717.145 166.438C716.951 166.544 716.798 166.692 716.684 166.883C716.572 167.074 716.517 167.294 716.517 167.543V171H714.822ZM724.488 166.632L722.937 166.728C722.91 166.595 722.853 166.476 722.766 166.37C722.678 166.261 722.563 166.175 722.42 166.111C722.279 166.045 722.111 166.012 721.915 166.012C721.652 166.012 721.431 166.068 721.25 166.179C721.07 166.288 720.98 166.434 720.98 166.617C720.98 166.762 721.038 166.886 721.155 166.986C721.272 167.087 721.472 167.168 721.756 167.229L722.861 167.452C723.455 167.574 723.898 167.77 724.19 168.04C724.481 168.311 724.627 168.666 724.627 169.106C724.627 169.507 724.509 169.858 724.273 170.16C724.04 170.463 723.719 170.699 723.311 170.868C722.905 171.035 722.437 171.119 721.907 171.119C721.098 171.119 720.454 170.95 719.974 170.614C719.497 170.274 719.217 169.813 719.135 169.23L720.801 169.142C720.851 169.389 720.973 169.577 721.167 169.707C721.361 169.834 721.608 169.898 721.911 169.898C722.208 169.898 722.446 169.841 722.627 169.727C722.81 169.61 722.902 169.46 722.905 169.277C722.902 169.124 722.837 168.998 722.71 168.9C722.583 168.799 722.387 168.722 722.122 168.669L721.064 168.458C720.467 168.339 720.023 168.132 719.731 167.838C719.442 167.543 719.298 167.168 719.298 166.712C719.298 166.32 719.404 165.982 719.616 165.698C719.831 165.414 720.132 165.195 720.519 165.042C720.908 164.888 721.365 164.811 721.887 164.811C722.658 164.811 723.266 164.974 723.708 165.3C724.154 165.626 724.414 166.07 724.488 166.632Z" fill="#092AD0"/>
<path d="M789.003 162.854V171H787.281V164.489H787.233L785.368 165.658V164.131L787.384 162.854H789.003ZM801.064 166.927C801.064 167.815 800.896 168.571 800.559 169.194C800.225 169.817 799.769 170.293 799.191 170.622C798.615 170.948 797.968 171.111 797.25 171.111C796.526 171.111 795.876 170.946 795.301 170.618C794.725 170.289 794.271 169.813 793.937 169.19C793.603 168.567 793.435 167.812 793.435 166.927C793.435 166.039 793.603 165.283 793.937 164.66C794.271 164.037 794.725 163.562 795.301 163.236C795.876 162.907 796.526 162.743 797.25 162.743C797.968 162.743 798.615 162.907 799.191 163.236C799.769 163.562 800.225 164.037 800.559 164.66C800.896 165.283 801.064 166.039 801.064 166.927ZM799.318 166.927C799.318 166.351 799.232 165.866 799.059 165.471C798.89 165.076 798.65 164.776 798.339 164.572C798.029 164.368 797.666 164.266 797.25 164.266C796.833 164.266 796.47 164.368 796.16 164.572C795.85 164.776 795.608 165.076 795.436 165.471C795.266 165.866 795.181 166.351 795.181 166.927C795.181 167.502 795.266 167.987 795.436 168.382C795.608 168.778 795.85 169.077 796.16 169.281C796.47 169.485 796.833 169.588 797.25 169.588C797.666 169.588 798.029 169.485 798.339 169.281C798.65 169.077 798.89 168.778 799.059 168.382C799.232 167.987 799.318 167.502 799.318 166.927ZM802.308 173.29V164.89H803.978V165.917H804.054C804.128 165.752 804.235 165.585 804.376 165.415C804.519 165.243 804.705 165.1 804.933 164.986C805.163 164.869 805.45 164.811 805.792 164.811C806.237 164.811 806.648 164.928 807.025 165.161C807.401 165.392 807.702 165.74 807.928 166.207C808.153 166.671 808.266 167.253 808.266 167.953C808.266 168.634 808.156 169.21 807.936 169.679C807.718 170.146 807.421 170.5 807.045 170.741C806.671 170.98 806.252 171.099 805.788 171.099C805.459 171.099 805.179 171.045 804.949 170.936C804.721 170.827 804.534 170.691 804.388 170.526C804.242 170.359 804.131 170.191 804.054 170.021H804.002V173.29H802.308ZM803.966 167.945C803.966 168.308 804.017 168.625 804.117 168.896C804.218 169.166 804.364 169.377 804.555 169.528C804.746 169.676 804.978 169.751 805.251 169.751C805.527 169.751 805.76 169.675 805.951 169.524C806.142 169.37 806.286 169.158 806.384 168.888C806.485 168.614 806.536 168.3 806.536 167.945C806.536 167.592 806.487 167.282 806.388 167.014C806.29 166.746 806.146 166.537 805.955 166.386C805.764 166.235 805.529 166.159 805.251 166.159C804.975 166.159 804.742 166.232 804.551 166.378C804.363 166.524 804.218 166.731 804.117 166.998C804.017 167.266 803.966 167.582 803.966 167.945ZM812.179 171.119C811.551 171.119 811.01 170.992 810.557 170.737C810.106 170.48 809.759 170.117 809.515 169.647C809.271 169.175 809.149 168.617 809.149 167.973C809.149 167.344 809.271 166.793 809.515 166.318C809.759 165.844 810.102 165.474 810.545 165.209C810.99 164.943 811.513 164.811 812.112 164.811C812.515 164.811 812.89 164.876 813.237 165.006C813.587 165.133 813.892 165.325 814.152 165.582C814.415 165.84 814.619 166.163 814.765 166.553C814.91 166.94 814.983 167.393 814.983 167.913V168.378H809.825V167.328H813.388C813.388 167.085 813.335 166.868 813.229 166.68C813.123 166.492 812.976 166.345 812.788 166.239C812.602 166.13 812.386 166.076 812.14 166.076C811.882 166.076 811.654 166.135 811.456 166.255C811.259 166.371 811.106 166.529 810.994 166.728C810.883 166.924 810.826 167.143 810.823 167.384V168.382C810.823 168.685 810.879 168.946 810.99 169.166C811.104 169.386 811.265 169.556 811.471 169.675C811.678 169.794 811.923 169.854 812.207 169.854C812.395 169.854 812.568 169.828 812.724 169.775C812.881 169.721 813.015 169.642 813.126 169.536C813.237 169.43 813.322 169.3 813.381 169.146L814.948 169.25C814.868 169.626 814.705 169.955 814.458 170.236C814.214 170.514 813.899 170.732 813.512 170.888C813.127 171.042 812.683 171.119 812.179 171.119ZM817.783 167.468V171H816.089V164.89H817.704V165.968H817.775C817.911 165.613 818.137 165.332 818.456 165.125C818.774 164.916 819.159 164.811 819.613 164.811C820.037 164.811 820.407 164.904 820.723 165.089C821.038 165.275 821.283 165.54 821.458 165.885C821.633 166.227 821.721 166.635 821.721 167.11V171H820.027V167.412C820.029 167.038 819.934 166.746 819.74 166.537C819.547 166.325 819.28 166.219 818.941 166.219C818.713 166.219 818.511 166.268 818.336 166.366C818.164 166.464 818.029 166.607 817.931 166.796C817.835 166.981 817.786 167.205 817.783 167.468ZM823.056 171V164.89H824.751V171H823.056ZM823.907 164.103C823.655 164.103 823.439 164.019 823.259 163.852C823.081 163.683 822.993 163.48 822.993 163.244C822.993 163.01 823.081 162.81 823.259 162.643C823.439 162.474 823.655 162.389 823.907 162.389C824.159 162.389 824.374 162.474 824.552 162.643C824.732 162.81 824.822 163.01 824.822 163.244C824.822 163.48 824.732 163.683 824.552 163.852C824.374 164.019 824.159 164.103 823.907 164.103ZM827.802 167.468V171H826.108V164.89H827.723V165.968H827.794C827.929 165.613 828.156 165.332 828.474 165.125C828.792 164.916 829.178 164.811 829.632 164.811C830.056 164.811 830.426 164.904 830.741 165.089C831.057 165.275 831.302 165.54 831.477 165.885C831.652 166.227 831.74 166.635 831.74 167.11V171H830.045V167.412C830.048 167.038 829.952 166.746 829.759 166.537C829.565 166.325 829.299 166.219 828.959 166.219C828.731 166.219 828.53 166.268 828.355 166.366C828.183 166.464 828.047 166.607 827.949 166.796C827.854 166.981 827.805 167.205 827.802 167.468ZM835.827 173.418C835.278 173.418 834.808 173.342 834.415 173.191C834.026 173.043 833.715 172.84 833.485 172.582C833.254 172.325 833.104 172.036 833.035 171.715L834.602 171.505C834.65 171.627 834.726 171.741 834.829 171.847C834.932 171.953 835.069 172.038 835.239 172.101C835.411 172.168 835.62 172.201 835.867 172.201C836.236 172.201 836.539 172.11 836.778 171.93C837.019 171.753 837.14 171.454 837.14 171.035V169.918H837.068C836.994 170.087 836.883 170.248 836.734 170.399C836.586 170.55 836.395 170.673 836.161 170.769C835.928 170.864 835.65 170.912 835.326 170.912C834.867 170.912 834.45 170.806 834.073 170.594C833.699 170.379 833.401 170.052 833.178 169.611C832.958 169.169 832.848 168.609 832.848 167.933C832.848 167.241 832.961 166.663 833.186 166.199C833.412 165.735 833.711 165.388 834.085 165.157C834.462 164.926 834.874 164.811 835.322 164.811C835.664 164.811 835.951 164.869 836.181 164.986C836.412 165.1 836.598 165.243 836.738 165.415C836.881 165.585 836.991 165.752 837.068 165.917H837.132V164.89H838.814V171.059C838.814 171.579 838.687 172.014 838.432 172.364C838.178 172.714 837.825 172.976 837.374 173.151C836.926 173.329 836.411 173.418 835.827 173.418ZM835.863 169.639C836.136 169.639 836.367 169.572 836.555 169.436C836.746 169.299 836.892 169.102 836.993 168.848C837.096 168.591 837.148 168.283 837.148 167.925C837.148 167.567 837.097 167.257 836.997 166.994C836.896 166.729 836.75 166.524 836.559 166.378C836.368 166.232 836.136 166.159 835.863 166.159C835.585 166.159 835.35 166.235 835.159 166.386C834.968 166.534 834.824 166.741 834.726 167.006C834.627 167.271 834.578 167.578 834.578 167.925C834.578 168.278 834.627 168.583 834.726 168.84C834.826 169.094 834.971 169.292 835.159 169.432C835.35 169.57 835.585 169.639 835.863 169.639Z" fill="#092AD0"/>
<circle cx="769.087" cy="165.888" r="12.288" fill="#356DEE"/>
<rect x="762.398" y="167.2" width="1.6" height="12.8" rx="0.8" transform="rotate(-90 762.398 167.2)" fill="white"/>
<rect x="767.998" y="160" width="1.6" height="12.8" rx="0.8" fill="white"/>
</svg>
